<?xml version="1.0" encoding="UTF-8"?>
<!-- Created with Inkscape (http://www.inkscape.org/) -->
<svg width="225.78mm" height="93.462mm" version="1.1" viewBox="0 0 225.78 93.462" xmlns="http://www.w3.org/2000/svg">
 <g transform="translate(-16.478 -86.487)">
  <g>
   <path d="m55.479 99.064c0.73608 3.6104 2.0548 10.078 0.71161 12.281s-25.732 33.574-39.346 51.086c8.146-2.1616 22.177-5.8848 24.355-8.2724 2.1787-2.3876 20.633-39.147 21.44-41.735s-2.6284-9.6239-3.6892-11.101c-1.0608-1.4767-2.3988-1.911-3.4716-2.2591z" stop-color="#000000" style="-inkscape-stroke:none;font-variation-settings:normal"/>
   <path d="m164.41 105.73c2.9659 1.6914 8.2794 4.7215 10.008 6.7242 1.729 2.0027 26.118 33.374 39.732 50.886-8.146-2.1616-22.177-5.8848-24.355-8.2724-2.1787-2.3876-20.633-39.147-22.136-41.597-1.5031-2.4498-7.9292-7.5376-8.2622-8.2918-0.33298-0.75425 2.6336-0.0297 5.0131 0.55146z" stop-color="#000000" style="-inkscape-stroke:none;font-variation-settings:normal"/>
   <path d="m68.638 102.73c-3.9365 7.0836-10.48 18.858-11.007 21.702-0.52749 2.8438 1.2437 24.075 3.6111 27.42 2.3674 3.3447 15.927 9.472 24.878 13.516-8.1705-15.063-22.395-41.286-23.117-43.814s5.0795-12.47 5.6753-13.949c0.59584-1.4787 0.21515-3.5118-0.04005-4.8747z" stop-color="#000000" style="-inkscape-stroke:none;font-variation-settings:normal"/>
   <path d="m198.83 143.1c-1.4007-3.0882-4.0914-23.7-2.4554-27.383 1.636-3.6824 19.191-16.265 19.654-14.582 0.46216 1.6826-11.801 41.387-11.788 44.239 0.0122 2.8516 11.514 15.449 12.878 17.389 1.3639 1.9396 1.68 4.899 1.892 6.8835-7.0543-8.8119-18.779-23.458-20.18-26.546z" stop-color="#000000" style="-inkscape-stroke:none;font-variation-settings:normal"/>
   <path d="m16.478 162.15 30.147-38.766c-0.60657 0.0929-1.654 0.25332-3.0247 1.7086-1.3707 1.4553-23.84 26.625-25.481 28.855-1.641 2.2297-1.6412 5.9506-1.6413 8.2026z" stop-color="#000000" style="-inkscape-stroke:none;font-variation-settings:normal"/>
   <path d="m53.718 132.2c-0.43758 0.8229-2.6023 4.8937-2.1967 5.6946s5.106 0.9468 5.7 0.31904c0.594-0.62776 0.07753-5.4165-0.27743-6.1181-0.35496-0.70164-2.1104-0.71378-2.4493-0.71613-0.33896-2e-3 -0.33896-2e-3 -0.77654 0.82063z" stop-color="#000000" style="-inkscape-stroke:none;font-variation-settings:normal"/>
   <path transform="matrix(.26458 0 0 .26458 16.478 85.957)" d="m214.96 73.641c-18.682-0.18701-42.792 51.693-40.781 60.078 2.0429 8.5184 69.185 114.62 76.936 120.08 7.7501 5.4589 68.533-0.0558 86.648-13.018 18.116-12.962 61.969-81.22 59.623-85.576-1.5108-2.8049-27.269 1.8773-55.143 7.7559 19.01-4.8249 33.625-10.003 29.953-14.369-6.4328-7.6483-137.56-73.005-156.35-74.898-0.29368-0.02959-0.58822-0.04586-0.88477-0.04883zm109.6 77.928c7.8412-0.0184 19.944 4.1017 16.289 6.0742-3.8986 2.104-48.462 11.569-52.715 11.924-4.2527 0.35444 0.27409-6.1442 3.2813-7.7676 3.0072-1.6234 23.977-9.5318 31.641-10.17 0.47895-0.0399 0.98116-0.0593 1.5039-0.0605zm35.545 21.234c4.9965 0.65651-8.8748 16.427-16.352 18.742-7.4768 2.3149-45.544 1.3692-48.48 0.98438-2.9364-0.38487-7.3127-5.7202-4.4805-6.5977 2.8322-0.87749 64.316-13.785 69.312-13.129z" stop-color="#000000" style="-inkscape-stroke:none;font-variation-settings:normal"/>
  </g>
  <path d="m132.84 104.56a23.359 31.291 23.41 0 0-26.359 18.931 23.359 31.291 23.41 0 0 6.6489 39.245 23.359 31.291 23.41 0 0 34.408-16.77 23.359 31.291 23.41 0 0-6.6489-39.245 23.359 31.291 23.41 0 0-8.0491-2.1612zm-11.339 17.24a10.094 13.522 23.41 0 1 3.4782 0.93419 10.094 13.522 23.41 0 1 2.8731 16.959 10.094 13.522 23.41 0 1-14.869 7.2466 10.094 13.522 23.41 0 1-2.8731-16.959 10.094 13.522 23.41 0 1 11.391-8.1813z" stroke-width=".33109"/>
  <g>
   <path d="m79.944 108.85 3.8767-1.1645c6.2289 3.443 15.507 8.5716 19.43 7.8084 3.9221-0.76324 23.523-14.561 24.881-15.68 1.3581-1.1198-1.662-1.2711-0.81588-1.7995s14.404-7.5141 22.192-11.527c-6.0556 6.3054-15.661 16.307-16.849 17.428s-0.44132-1.0052-1.446-0.55825c-1.0047 0.44695-26.673 13.701-29.812 14.068-3.139 0.36698-14.518-5.1874-21.456-8.5738z" stop-color="#000000" style="-inkscape-stroke:none;font-variation-settings:normal"/>
   <path d="m84.148 153.5 2.1713 1.8951c5.125-1.5626 10.462-3.1899 14.884-1.179 4.4216 2.0108 11.673 12.195 12.061 12.922 0.38799 0.72671-2.6242-0.28777-1.8774 0.35179 0.74674 0.63956 10.677 8.0516 16.589 12.465l-12.141-16.409c0.0983 0.78168 0.27384 2.1783-0.23375 1.7088s-8.2769-8.7609-12.862-11.401c-4.5848-2.6402-6.9491-2.0572-9.8458-1.3428 0 0-8.7455 0.99024-8.7455 0.99024z" stop-color="#000000" style="-inkscape-stroke:none;font-variation-settings:normal"/>
   <path d="m162.87 110.66c-2.4581 6.8328-5.4608 15.179-3.2337 18.572s12.218 5.6914 20.397 7.5736l8.5697 15.77c-17.276-5.3737-44.855-13.952-47.036-16.652-2.1806-2.6998 8.1494-15.479 14.62-23.484l6.6825-1.779z" stop-color="#000000" style="-inkscape-stroke:none;font-variation-settings:normal"/>
   <path d="m209.16 132.72c2.8651-7.1353 6.3649-15.851 9.466-17.754 3.1011-1.9029 9.332 0.84112 14.433 3.0877l9.198-3.0624c-9.161-4.4532-23.785-11.562-26.218-10.642s-7.0529 15.31-9.947 24.324c0 0 3.0679 4.0466 3.0679 4.0466z" stop-color="#000000" style="-inkscape-stroke:none;font-variation-settings:normal"/>
   <path d="m195.34 130.4c-0.0702-5.9451-0.1559-13.207-2.1407-15.316-1.9848-2.1093-10.995-1.1659-12.392-1.2262-1.3968-0.0602-3.717-1.3285-5.1941-2.136 8.5648-2.3954 22.237-6.2195 23.877-4.7944 1.6398 1.425 0.93755 16.522 0.49767 25.979l-4.6479-2.5059z" stop-color="#000000" style="-inkscape-stroke:none;font-variation-settings:normal"/>
   <path d="m172.89 146.51-2.4609 1.5774c-7.9369-1.2007-18.034-2.7281-21.464-1.1905-3.4302 1.5376-6.3825 12.295-6.5169 13.012-0.13443 0.71703 1.2652-0.46096 1.1282-0.10993s-3.461 7.1414-5.3191 10.937c0.56972-4.3327 1.5699-11.939 1.6588-12.369 0.0889-0.42996 0.48291 1.6093 0.82056 0.96369s5.5685-12.913 7.9283-14.952c2.3598-2.039 7.5408-1.6295 11.573-1.3107l12.652 3.4415z" stop-color="#000000" style="-inkscape-stroke:none;font-variation-settings:normal"/>
  </g>
  <circle cx="166.12" cy="130.92" r="3.2418" stroke-width=".26458"/>
  <circle cx="149.22" cy="113.1" r="4.9568" stroke-width=".40456"/>
  <circle cx="53.914" cy="110.3" r="4.9568" stroke-width=".40456"/>
  <circle cx="176.97" cy="150.89" r="6.0724" stroke-width=".4956"/>
  <circle cx="212.41" cy="153.25" r="3.8978" stroke-width=".31812"/>
  <circle cx="90.695" cy="110.4" r="2.5659" stroke-width=".20942"/>
  <circle cx="94.214" cy="108.43" r="1.2572" stroke-width=".10261"/>
  <circle cx="218.47" cy="148.99" r="2.0675" stroke-width=".16874"/>
  <circle cx="51.524" cy="103.73" r="1.9305" stroke-width=".15756"/>
  <circle cx="151.12" cy="106.25" r="2.0511" stroke-width=".16741"/>
  <circle cx="169.6" cy="132.88" r="1.9494" stroke-width=".1591"/>
  <g>
   <path d="m184.97 113.39 1.2686 1.0538c1.8781 0.0473 4.8405 0.1218 5.1534 0.70845 0.31291 0.58666-0.55102 6.5213-0.67696 6.954-0.12595 0.4327-0.62924-0.81414-0.65406-0.29858-0.0248 0.51555 0.15312 5.3175 0.26563 8.3538 0.87139-2.7823 2.4122-7.702 2.4782-7.9852 0.066-0.28322-0.69406 0.57087-0.70563 0.24508-0.0116-0.32578 0.4654-7.1281-0.0782-7.8548-0.54362-0.72665-4.4874-0.99932-7.051-1.1766z" stop-color="#000000" style="-inkscape-stroke:none;font-variation-settings:normal"/>
   <path d="m226.56 117.42c-2.5753-0.74552-6.0117-1.7404-7.7132-0.37716s-5.0883 7.8257-7.6261 12.668c0.13086-0.0381 0 0 0.32788-0.2947 0.32789-0.29469 5.8436-10.253 7.2381-11.38 1.3945-1.1269 6.3122 0.28908 6.5107 0.31205 0.19857 0.023 0.88862-0.59406 1.2626-0.92845z" stop-color="#000000" style="-inkscape-stroke:none;font-variation-settings:normal"/>
   <path d="m226.96 115.45-1.4386 1.8953-0.29987-0.0994 1.4137-1.9929z" stop-color="#000000" style="-inkscape-stroke:none;font-variation-settings:normal"/>
   <path d="m212.18 128.03-1.2233-0.77957 0.13789-0.28485 1.1784 0.74617z" stop-color="#000000" style="-inkscape-stroke:none;font-variation-settings:normal"/>
   <path d="m212.71 127.45-1.2233-0.77957 0.13789-0.28485 1.1784 0.74617z" stop-color="#000000" style="-inkscape-stroke:none;font-variation-settings:normal"/>
   <path d="m177.05 136.43-8.7189-17.679-0.17689 0.6427 8.2971 17.004z" stop-color="#000000" style="-inkscape-stroke:none;font-variation-settings:normal"/>
   <path d="m168.76 119.72 1.8593-1.3358 0.27228 0.64086-2.0184 1.2717z" stop-color="#000000" style="-inkscape-stroke:none;font-variation-settings:normal"/>
   <path d="m175.81 134.31 2.1833-1.5182 0.19971 0.34327-2.261 1.5931z" stop-color="#000000" style="-inkscape-stroke:none;font-variation-settings:normal"/>
   <path d="m175.33 133.71 2.1833-1.5182 0.19971 0.34327-2.261 1.5931z" stop-color="#000000" style="-inkscape-stroke:none;font-variation-settings:normal"/>
   <path d="m57.286 141.88c0.52511 3.8165 1.3501 9.8127 2.1613 10.993 0.81121 1.1803 5.9267 3.8302 9.183 5.5171l-0.47569 0.026c-3.3894-1.5064-8.6008-3.8227-9.4565-5.068s-1.3352-7.2131-1.647-11.094l0.23487-0.37416z" stop-color="#000000" style="-inkscape-stroke:none;font-variation-settings:normal"/>
   <path d="m57.362 142.96 1.7755-1.2507 0.02331 0.40357-1.7959 1.2493z" stop-color="#000000" style="-inkscape-stroke:none;font-variation-settings:normal"/>
   <path d="m57.382 143.61 1.7755-1.2507 0.02331 0.40357-1.7959 1.2493z" stop-color="#000000" style="-inkscape-stroke:none;font-variation-settings:normal"/>
   <path d="m68.912 156.62-1.7258 1.1351-0.15798-0.0981 1.8809-1.4392z" stop-color="#000000" style="-inkscape-stroke:none;font-variation-settings:normal"/>
   <path d="m29.837 140.8c0.34619-2.2468 0.86485-5.6131 2.663-7.3717 1.7981-1.7586 10.976-8.1673 13.401-13.01 2.425-4.8423-1.0225-9.6386-1.7426-10.309-0.72006-0.6701-0.95147 1.6855-1.1979 0.69126-0.24648-0.99422-2.5064-12.672-3.8646-19.69 2.9547 6.2796 8.0767 17.165 8.397 17.931 0.32029 0.766-0.94865-0.45661-0.78212 0.30766 0.16653 0.76428 2.2605 7.195 0.764 10.838-1.4965 3.6431-8.138 8.7942-9.2281 9.8215-1.0901 1.0273-1.0056 2.0386-0.94902 2.715 0 0-7.4609 8.0754-7.4609 8.0754z" stop-color="#000000" style="-inkscape-stroke:none;font-variation-settings:normal"/>
  </g>
 </g>
</svg>
