<?xml version="1.0" encoding="UTF-8"?>
<!-- Created with Inkscape (http://www.inkscape.org/) -->
<svg width="1980" height="1e3" version="1.1" viewBox="0 0 523.87 264.58" xmlns="http://www.w3.org/2000/svg">
 <g>
  <g fill="#9ece6a">
   <path d="m191.9 66.255-2.1347 0.38802-2.5587 4.6477 3.8353 4.9064-4.8104 22.153 13.267 14.951 12.531 1.9934-0.86711-6.1812-12.23-16.092-0.18709-3.0216-2.4548-1.7086-0.6274-20.132-3.9303 1.0926z" stop-color="#000000" style="-inkscape-stroke:none;font-variation-settings:normal"/>
   <path d="m107.4 109.64 3.552-0.55143 49.872 39.941 0.95003 5.466-2.8435 0.1385z" stop-color="#000000" style="-inkscape-stroke:none;font-variation-settings:normal"/>
   <path d="m192.03 103.86-69.778 15.38 1.1372 0.37691 70.355-14.354z" stop-color="#000000" style="-inkscape-stroke:none;font-variation-settings:normal"/>
   <path d="m319.5 48.418-9.6361 17.194 5.6033 2.5704-3.0799 5.7764 2.1389-1.0433 5.9335-7.645-3.0825-8.8424 2.1528-5.672z" stop-color="#000000" style="-inkscape-stroke:none;font-variation-settings:normal"/>
   <path d="m400.97 111.71 3.2525-1.8273 50.888 14.236 8.2476 12.583z" stop-color="#000000" style="-inkscape-stroke:none;font-variation-settings:normal"/>
   <path d="m317.99 66.923 120.07 53.048-9.0868-2.5621-111.48-49.874z" stop-color="#000000" style="-inkscape-stroke:none;font-variation-settings:normal"/>
   <path d="m189.02 88.227-4.3878 1.026-5.1015 17.994 1.1216-0.25709 4.5436-16.564 3.683-0.97048z" stop-color="#000000" style="-inkscape-stroke:none;font-variation-settings:normal"/>
   <path d="m285.43 108.2 4.2922-8.491 4.2065-1.8792-0.41341 5.3526-5.3565 4.2589z" stop-color="#000000" style="-inkscape-stroke:none;font-variation-settings:normal"/>
   <path d="m325.6 185.56 37.605-3.4758-4.1796-2.528-30.351 0.82372z" stop-color="#000000" style="-inkscape-stroke:none;font-variation-settings:normal"/>
   <path d="m290.39 103.55 48.101 77.314 1.0051-0.13539-48.828-77.431z" stop-color="#000000" style="-inkscape-stroke:none;font-variation-settings:normal"/>
   <path d="m278.35 45.589 2.1469 2.5097 20.836 0.27763 5.8919-2.4652-9.7142-2.5364-15.753 2.725z" stop-color="#000000" style="-inkscape-stroke:none;font-variation-settings:normal"/>
   <path d="m226.11 43.434-3.109-0.7329-3.6978-2.1711-14.502-1.7872 5.0705 4.0836 14.163 1.8738z" stop-color="#000000" style="-inkscape-stroke:none;font-variation-settings:normal"/>
   <path d="m243.78 65.082 0.72385-3.4682 3.3052-3.17 1.1582-1.9041-2.268 7.0536-2.9421 1.9079z" stop-color="#000000" style="-inkscape-stroke:none;font-variation-settings:normal"/>
   <path d="m215.8 132.3-2.575 12.627 2.18 6.7233 1.5873-1.1711-0.30109-13.282z" stop-color="#000000" style="-inkscape-stroke:none;font-variation-settings:normal"/>
   <path d="m247.77 124.06 1.5791-4.331 17.116-9.3917 7.7397-2.1468-6.2623 8.3923z" stop-color="#000000" style="-inkscape-stroke:none;font-variation-settings:normal"/>
   <path d="m252.16-59.97 0.44923 21.01-4.4864-5.0562-2.0874-13.498z" stop-color="#000000" style="-inkscape-stroke:none;font-variation-settings:normal"/>
   <path d="m248.58-52.25-149.65 101.8 0.59748 0.16487 149.05-100.82z" stop-color="#000000" style="-inkscape-stroke:none;font-variation-settings:normal"/>
   <path d="m304.66-48.086 11.351-17.52 0.67559 3.5103-6.7831 15.203z" stop-color="#000000" style="-inkscape-stroke:none;font-variation-settings:normal"/>
   <path d="m374.68 41.225 23.449-6.799-2.7871-2.636-18.847 2.8171z" stop-color="#000000" style="-inkscape-stroke:none;font-variation-settings:normal"/>
   <path d="m312.12-55.05c0.12877 0.69854 75.588 88.625 75.588 88.625l0.69765-0.14876-76.101-88.718z" stop-color="#000000" style="-inkscape-stroke:none;font-variation-settings:normal"/>
  </g>
  <path d="m197.46 62.743 2.7626-7.1959 38.266-10.626 6.8177 5.8534-2.1063 5.7986-33.187 8.1876z" stop-color="#000000" style="-inkscape-stroke:none;font-variation-settings:normal"/>
  <path d="m264.89 46.033-6.5422 6.5712 0.80718 5.393 25.029 9.5607 16.956-5.3129-0.64648-3.93z" stop-color="#000000" style="-inkscape-stroke:none;font-variation-settings:normal"/>
  <g fill="#0e0f19">
   <path d="m231.09 132.98 43.176-14.102 11.61-11.154 3.4489-8.5194 4.4908-2.365 0.67837 0.0832 1.9523-2.358 2.8786-9.748 10.559-25.227 4.078-1.2759 7.6334-13.705-1.2847-2.1022 2.4585 0.3098 5.3741-5.8841 0.90072-7.6551-2.3539-1.7782 91.65-47.158-13.822-0.09715-92.035 50.305-20.798 11.003 22.072-6.4371 3.5587 1.3723-2.0663 5.7436-13.105 6.7699 10.264-3.0611-3.9163 10.729-4.5031 0.58756 1.8678 1.4348-5.4177-0.1111-16.926-5.3211 12.282 5.6599-0.36321 2.2226-10.225 2.9639-29.882-8.6798 27.76 11.515 5.7945 7.353-3.0045 14.334 1.9379 0.91545-0.38938 2.9665-1.1795-0.32789-1.0102 3.8031h2.0141l-1.7356 3.1269-2.1213 7.7758-10.28 10.931z" stop-color="#000000" style="-inkscape-stroke:none;font-variation-settings:normal"/>
   <path d="m253.96 38.113 1.3739 3.2711 9.4977 5.0868-6.5773 6.8039 0.41181 4.0315-1.3688-0.56054-0.49696-4.88 3.8876-5.3733-6.721-3.6775z" stop-color="#000000" style="-inkscape-stroke:none;font-variation-settings:normal"/>
   <path d="m257.77 24.679 3.9325-1.9067 61.967-55.214-55.048 46.598-6.0263 1.1803z" stop-color="#000000" style="-inkscape-stroke:none;font-variation-settings:normal"/>
   <path d="m256.26 32.564 1.2928-9.8923 41.114-62.124-41.754 56.535-3.22 6.0599z" stop-color="#000000" style="-inkscape-stroke:none;font-variation-settings:normal"/>
   <path d="m254.12 23.33-1.1832-63.669-3.6285 51.664z" stop-color="#000000" style="-inkscape-stroke:none;font-variation-settings:normal"/>
   <path d="m254.17 31.294-0.28136-7.2051-2.9379-2.5191-15.539-59.207 11.2 59.035-2.5973 1.466z" stop-color="#000000" style="-inkscape-stroke:none;font-variation-settings:normal"/>
   <path d="m194.44-30.903 57.784 62.398 1.8621 6.1644-3.4641 3.6102-3.7827 0.6687-43.449-53.52-1.3096-7.1035-6.8061-8.7522z" stop-color="#000000" style="-inkscape-stroke:none;font-variation-settings:normal"/>
   <path d="m209.37 65.254 33.751-8.6064 2.4826-5.9664-7.2449-5.8652-2.6982 0.93252 6.9935 5.2348-2.199 3.3575-21.043 5.9896z" stop-color="#000000" style="-inkscape-stroke:none;font-variation-settings:normal"/>
   <path d="m251.27 56.705-0.85798 4.4189-2.2045 3.3738 0.1045 8.7541 1.0476 3.8404-1.3469-1.0235-0.98039-2.4998-0.32667-10.164 2.2458-5.4804 1.4792-3.1458z" stop-color="#000000" style="-inkscape-stroke:none;font-variation-settings:normal"/>
   <path d="m253.57 50.675c0.0661 0.35734 0.85886 9.7816 0.85886 9.7816l2.773 3.9442 1.086 8.4734-4.422 8.0724 1.7604-8.5708-0.42943-7.9566-1.6598-3.1189z" stop-color="#000000" style="-inkscape-stroke:none;font-variation-settings:normal"/>
   <path d="m258.92 125.65-10.312 7.8299-0.53562 4.8144-8.8595 11.867 0.13527-1.9461 6.8502-10.999-0.18642-6.1965 9.3799-5.2383z" stop-color="#000000" style="-inkscape-stroke:none;font-variation-settings:normal"/>
   <path d="m251.49 130.79-5.8419 3.7991-10.956 19.484-0.12906-2.2283 9.4378-18.721z" stop-color="#000000" style="-inkscape-stroke:none;font-variation-settings:normal"/>
   <path d="m219.21 159.7 8.2189-26.984-12.266-16.685 0.17174 1.8058 8.1647 17.008-2.1786 11.821 0.10706 2.1219-2.2633 7.4843z" stop-color="#000000" style="-inkscape-stroke:none;font-variation-settings:normal"/>
   <path d="m297.94 86.529-24.951 13.34-17.285 3.1272 17.294-2.4099 24.496-12.787z" stop-color="#000000" style="-inkscape-stroke:none;font-variation-settings:normal"/>
   <path d="m298.05 85.818-24.049 7.796-14.967-0.48965 15.289 1.0125 23.486-7.0845z" stop-color="#000000" style="-inkscape-stroke:none;font-variation-settings:normal"/>
   <path d="m298.07 84.85c-0.53679 0.17795-23.325 6.2649-23.325 6.2649l-18.354-4.1459 17.555 5.3353 21.734-5.2202 1.9483-2.0591z" stop-color="#000000" style="-inkscape-stroke:none;font-variation-settings:normal"/>
   <path d="m247.67 140.12 11.693 6.628 3.5445 2.2629 7.9318-0.39843 5.2286-3.5564 6.919 0.19379 25.222 29.846-2.3616-0.13229-19.107-13.828-7.5541-10.706-6.0332 4.101-7.4285-0.45475-19.086-12.92z" stop-color="#000000" style="-inkscape-stroke:none;font-variation-settings:normal"/>
   <path d="m211.56 137.15c-1.3105 0.13487-32.765 8.7044-32.765 8.7044l-13.9 21.813-6.7577 3.713-30.207 44.35 5.2358-2.9104 25.65-37.198 15.335-8.2383 7.0978-13.811 21.676-7.753z" stop-color="#000000" style="-inkscape-stroke:none;font-variation-settings:normal"/>
   <path d="m253.88-30.845 16.415 0.35809 6.0852 10.322 8.2361 2.5895s-3.3234 4.1442-2.7548 4.8463c0.56859 0.70207 10.668 7.5611 10.668 7.5611l1.7793-1.8834 26.989 21.456-1.5065 7.1442 1.143 6.9936-1.6258 0.31517-4.2442-4.8663-2.0939-9.6402-28.47-11.998 2.9406-2.703-7.9456-8.6165-0.40925-6.7191-6.5062-3.0417-4.4747-9.4815-14.511-1.2251z" stop-color="#000000" style="-inkscape-stroke:none;font-variation-settings:normal"/>
  </g>
  <g fill="#3c3f56">
   <path d="m144.53 7.0308 43.985 23.56-3.5338 3.3069 0.17722 2.7237 2.9934 0.72204 4.1518 11.8-4.5007 13.327 4.77 1.5066-1.0188 5.2871 4.8888-0.11693 0.13996 19.649 2.0419 1.7284 0.56563 2.4537 28.668 38.83-21.492-38.435-0.72406-4.4503-3.7533-2.8695 0.91682-15.743 14.71-5.9704c-6.2046-0.10877-16.073-0.50573-16.073-0.50573l1.7406-8.4279-3.4613 1.692-1.2508 2.5041-5.9857-1.9432 5.9901-8.3561-7.8504-11.844 1.1843-5.7797-3.2839-11.575-26.464-11.507-8.2633 0.050792-4.8449-1.9104z" stop-color="#000000" style="-inkscape-stroke:none;font-variation-settings:normal"/>
   <path d="m212.74 117.09 1.8336 8.1424-2.2308 15.319 1.0816-16.004z" stop-color="#000000" style="-inkscape-stroke:none;font-variation-settings:normal"/>
   <path d="m214.32 115.36 2.4267 10.803-0.41181 2.5787 0.54117 6.5331 0.0577 14.71 1.2048-4.3407 0.48709-13.534-1.0454-4.3188 0.0935-2.6076z" stop-color="#000000" style="-inkscape-stroke:none;font-variation-settings:normal"/>
   <path d="m200.12 85.318 34.402 16.06-36.757-19.199z" stop-color="#000000" style="-inkscape-stroke:none;font-variation-settings:normal"/>
   <path d="m201.09 81.366 31.428 11.536-30.216-9.9109z" stop-color="#000000" style="-inkscape-stroke:none;font-variation-settings:normal"/>
   <path d="m204.32 81.531 25.978 6.4692-23.097-5.058z" stop-color="#000000" style="-inkscape-stroke:none;font-variation-settings:normal"/>
   <path d="m178.25 24.989 26.72-39.85 5.9111 0.92344 13.734-6.9888 4.0908-8.1975 7.3564-5.5527 0.36214 2.0406-5.1993 5.6816-1.4976 10.115-23.768 6.9747-20.169 38.01z" stop-color="#000000" style="-inkscape-stroke:none;font-variation-settings:normal"/>
  </g>
  <g>
   <path d="m308.96 59.844-10.144 24.826-24.773 5.6406-18.699-4.5977-2.9601 1.664-4.3876-2.707s-1.6834 0.06671-2.414 0.1171c-3.9643 0.27981-7.5707 0.55197-11.666 0.86719l-0.0723 0.0039-6.6219 0.42962-31.726-7.9941-0.32031 1.2832 35.068 8.7559 17.324-2.3232 4.7663 3.4775 3.2559-2.1504 18.441 4.5332 25.715-5.8555 14.4-26.793z" color="#000000" style="-inkscape-stroke:none"/>
   <path d="m195.53 78.102-0.38477 1.2656 37.212 13.843 14.404-1.4179 5.2914-0.73143 6.8034 2.1814 15.285 0.50228 25.31-7.8612-0.33399-1.2812-24.751 7.9816-15.416-0.16832-6.7612-2.2665-5.3057 0.89332-14.499 0.99718z" color="#000000" style="-inkscape-stroke:none"/>
   <path d="m196.78 78.88-1.2467 2.7237 39.066 19.845 14.41-2.1696 0.0212 7.0158 3.3034-6.5238 2.3028 3.6598 18.336-3.3691 25.764-13.23-0.62797-1.0824-25.47 13.03-17.447 3.2051-3.0898-4.0039-1.7701 2.768-0.32382-2.809-15.249 1.7447z" color="#000000" style="-inkscape-stroke:none"/>
   <path d="m298.62 85.238-2.715 8.9585-2.2772 3.2954 1.0664 0.78125 5.207-7.1094 0.041-5.918z" color="#000000" style="-inkscape-stroke:none"/>
   <path d="m198.27 86.629-0.0722-0.04667 0.50781 6.9453 28.154 39.357-13.105 42.072 7.3559-18.135 10.363-22.154 43.232-14.938 11.326-11.268 4.2771-7.9815 4.3513-2.2162 2.4479-5.3118-8.7892 6.2868-3.4121 8.4766-10.92 10.863-43.881 13.701-2.9693 6.9796 1.9887-7.1564-29.129-39.045z" color="#000000" style="-inkscape-stroke:none"/>
   <path d="m188.05 36.07-3.5 0.30274 0.11328 1.3184 3.166-0.27344 17.564 7.6797 12.246-0.43164 6.5508 1.0566 2.627-1.373 24.652-2.7695 2.4062-3.9473-1.1289-0.6875-2.0703 3.3926-24.252 2.7246-2.457 1.2832-6.2461-1.0059-12.305-0.0561z" color="#000000" style="-inkscape-stroke:none"/>
   <path d="m187.37 29.597-3.1584 3.9796 0.43555 4.123 1.3164-0.13867-0.35352-3.3516 3.4356-2.4316 14.68 7.2949 5.7266 4.3047 8.1309 1.2793 0.20508-1.3066-7.8047-1.2285-5.5606-4.1797z" color="#000000" style="-inkscape-stroke:none"/>
   <path d="m204.16 37.852-0.17774 1.3105 15.705 1.9495 3.5971 2.0754 3.5616 0.68479-0.0804-0.81126-3.8451-0.77489-3.9691-2.4905z" color="#000000" style="-inkscape-stroke:none"/>
   <path d="m318.19 40.684-2.5824 1.4654 5.3636 2.3354-7.9785 13.877 1.1484 0.66016 8.5547-14.883z" color="#000000" style="-inkscape-stroke:none"/>
   <path d="m222.81-87.461-1.2812 0.33398 28.869 110.94 0.0644 0.09375c0.81335 1.2231 2.1874 3.2559 2.1874 3.2559l0.0391 5.0859-0.041 5.1035 1.3242 0.01563s0.0295-2.5386 0.041-5.1133c6e-3 -1.2873 7e-3 -2.5836-2e-3 -3.5801-5e-3 -0.49826-0.0234-1.2363-0.0234-1.2363l-1.3476-2.6797s0.78015-2.5204 0.72188-2.6056z" color="#000000" style="-inkscape-stroke:none"/>
   <path d="m334.03-94.975-77.293 117.47-0.8125 7.3125-3.207 4.7344 2.3574 6.1582 2.1289-10.422 1.7192-6.3029 76.212-118.22z" color="#000000" style="-inkscape-stroke:none"/>
   <path d="m252.03-95.43-1.3223 0.03906 1.9452 122.55-0.0233 7.5703 4.0818-4.8525-1.0272-1.0127z" color="#000000" style="-inkscape-stroke:none"/>
   <path d="m373.11-78.445-111.33 100.88-4.1061 0.93418-0.77083 1.1459 0.55363 2.4438 5.0382-3.3852 111.51-101.04z" color="#000000" style="-inkscape-stroke:none"/>
   <path d="m156.78-72.939-0.97851 0.89062 92.891 102.04 4.0332 7.6133 0.81068-7.0347-3.0202-3.1142z" color="#000000" style="-inkscape-stroke:none"/>
   <path d="m190.33 37.862-3.011-0.88937 4.418 11.953-4.1602 13.535 1.2656 0.38867 4.291-13.963z" color="#000000" style="-inkscape-stroke:none"/>
   <path d="m250.77 53.804-385.67 95.159 0.0524 7.8761 385.51-101.29z" color="#000000" style="-inkscape-stroke:none"/>
   <path d="m258.62 56.494-5.8146-0.6931 466.04 186.03 8.7915-7.4917z" color="#000000" style="-inkscape-stroke:none"/>
   <path d="m253.93 37.121-1.2383 0.4668 1.623 4.3008 27.979 4.7656 14.965-2.7266 10.055 2.1122 2.9767-1.9638-13.076-1.4844-14.928 2.7188-27-4.5996z" color="#000000" style="-inkscape-stroke:none"/>
   <path d="m319.91 32.285-29.104 8.2539-3.3926 4.1992 2.7818-0.26054 1.4642-2.142 28.178-8.6561 3.8848 1.5586-1.0254 3.1855-21.365 9.4551-20.557-0.35547-2.4707-2.9023-3.9022 0.34439 5.7538 3.8705 21.445 0.37109 22.174-9.8125 1.584-4.9238z" color="#000000" style="-inkscape-stroke:none"/>
   <path d="m327.6 27.552-1.8232 0.34647 2.6953 1.8145-0.75 6.2949-5.4219 6.2539-4.1055-1.5781 1.7695 2.9688 2.9551-0.08398 6.6486-6.5951 0.31426-7.9069z" color="#000000" style="-inkscape-stroke:none"/>
   <path d="m255.07 40.697-0.54493 1.2051 11.291 5.1055 37.696 10.975 3.308 2.6327 4.7828-1.5297-5.8105-2.644-39.529-10.684z" color="#000000" style="-inkscape-stroke:none"/>
   <path d="m237.8 44.551-37.639 10.287-5.6934 7.9375 3.7866 0.79337 2.9734-6.849 36.92-10.892z" color="#000000" style="-inkscape-stroke:none"/>
   <path d="m266.26 45.76-0.44336 1.2461 33.045 11.628 0.0958 3.5232 4.777-1.0206-2.5606-2.9883z" color="#000000" style="-inkscape-stroke:none"/>
   <path d="m239.08 43.961-2.2652 0.95626 8.2082 6.5063-0.24701-0.9263-2.9031 6.703 2.396-1.3258 2.0979-5.1111z" color="#000000" style="-inkscape-stroke:none"/>
   <path d="m263.79 45.956-5.9819 6.6667 0.21702 3.7963-7.2547-2.6151-0.46634 1.7001 5.8558 0.94523 3.0141 0.6679-0.37411-3.5468 6.5822-6.9139z" color="#000000" style="-inkscape-stroke:none"/>
   <path d="m197.95 68.626-3.449 1.3621 1.2246 18.812 3.1953 2.7191-0.34984-2.4181-1.5584-0.91038z" color="#000000" style="-inkscape-stroke:none"/>
   <path d="m307.05 76.242-8.377 12.859 1.1074 0.72266 9.5586-12.484z" color="#000000" style="-inkscape-stroke:none"/>
   <path d="m583.84-23.088s-168.07 52.304-252.96 76.21c0 0-11.111 3.1192-21.12 5.9252-5.2776 1.4796-10.249 2.8721-13.124 3.6744-4.1639 1.162-7.46 2.0772-9.7402 2.7051-1.1401 0.31396-2.0256 0.55612-2.6387 0.7207-0.30654 0.08229-0.54569 0.14515-0.71094 0.1875-0.0826 0.02117-0.14677 0.03677-0.18945 0.04687-0.0427 0.01011-0.10236 0.01741-0.0176 0.0078l0.15039 1.3145c0.11189-0.01267 0.11555-0.02182 0.17187-0.03516 0.0563-0.01334 0.12576-0.03041 0.21289-0.05273 0.17427-0.04466 0.41544-0.10841 0.72461-0.19141 0.61834-0.166 1.5069-0.4083 2.6484-0.72266 2.2831-0.62871 5.5795-1.5448 9.7441-2.707 8.3292-2.3244 34.248-9.5996 34.248-9.5996s168.4-47.462 252.6-71.221z" color="#000000" style="-inkscape-stroke:none"/>
   <path d="m-125.71 25.758-0.0536 12.37 337 27.548 1.8565-1.0806z" color="#000000" style="-inkscape-stroke:none"/>
   <path d="m191.97 63.018-1.8574 7.7832 2.8315-0.18922 0.31107-7.2873z" color="#000000" style="-inkscape-stroke:none"/>
   <path d="m308.82 64.668-1.1123 2.5153 5.6202 2.9789-3.9902 7.1777 1.1562 0.64258 5.4471-10.012z" color="#000000" style="-inkscape-stroke:none"/>
   <path d="m-45.089-98.084-2.0902 6.2889 239.25 124.85 12.348 4.8906z" color="#000000" style="-inkscape-stroke:none"/>
   <path d="m533.78-85.481-223.85 121.32 2.6861-0.3046 224.22-113.89z" color="#000000" style="-inkscape-stroke:none"/>
   <path d="m250.9 40.32c-2.4359 0.64986-16.449 3.8541-29.77 6.873-13.32 3.019-26.01 5.8691-26.01 5.8691l-0.17969 0.04102-6.3867 6.0762 0.28516 3.6699 6.748-8.5371c0.17187-0.03861 12.605-2.8295 25.836-5.8281 13.322-3.0193 27.212-6.1899 29.816-6.8848z" color="#000000" style="-inkscape-stroke:none"/>
   <path d="m195.27 73.17-47.72 13.476-5.1152-3.3828-0.73047 1.1035 5.5938 3.6973 48.258-11.43z" color="#000000" style="-inkscape-stroke:none"/>
   <path d="m306.46 79.285-1.9358 2.6584 57.277 20.246 2.9668-2.4922-0.8496-1.0117-2.3887 2.0039z" color="#000000" style="-inkscape-stroke:none"/>
   <path d="m356.08 43.096-39.207 8.8828-0.79961 2.9086 39.729-10.371 2.7773 1.9277 0.75586-1.0859z" color="#000000" style="-inkscape-stroke:none"/>
   <path d="m147.41 53.475-3.3789 3.5137 0.95508 0.91602 2.957-3.0762 41.136 3.5864 1.2079-2.6977z" color="#000000" style="-inkscape-stroke:none"/>
   <path d="m296.54 93.672-21.31 13.06-7.9492 9.168-32.102 12.49-4.0586 4.0723 0.9375 0.93359 3.8594-3.873 32.674-11.639 7.506-10.133 16.808-10.925z" color="#000000" style="-inkscape-stroke:none"/>
   <path d="m274.77 107.59-8.3789 2.2832-17.857 9.623-2.8594 4.8008 2.685-0.60709 1.7712-3.3084 16.373-9.6839 8.5655-2.437z" color="#000000" style="-inkscape-stroke:none"/>
   <path d="m199.63 92.602 1.1981 2.8582 6.235 0.19941 17.351 22.852-0.92182 4.475 1.5552 4.6429 0.76899 2.1677 3.3041 2.4252-2.143-4.3991-2.736-5.4593 1.0339-4.0708-17.838-23.408z" color="#000000" style="-inkscape-stroke:none"/>
   <path d="m252.7 37.391-0.78906 6.1934h2e-3l-2.1836 16.836-2 3.7871 0.19141 9.3027 3.4976 12.859 1.7739-1.1577 3.1602-12.859-0.32618-8.0312-1.9023-3.9238-0.10742-22.924zm0.041 10.088-0.45454 13.225 2.4291 3.9473 0.81121 7.9089-2.574 7.9491-1.0009 1.1345-3.2139-7.9726 0.32134-9.1487 2.3352-3.6953z" color="#000000" style="-inkscape-stroke:none"/>
   <path d="m253.62 48.684-0.85742 1.0078 0.78125 0.66406 0.0351 4.924 2.2811 2.7511 3.9049 3.4171 2.5152 11.843-5.7786 5.2935-2.5283 0.90394-0.19506 2.5819 2.4726-0.81641 7.4961-7.5625-3.1875-12.604-4.0684-3.4922-1.4863-6.752-0.26563-1.207z" color="#000000" style="-inkscape-stroke:none"/>
   <path d="m251.64 48.648-1.5293 1.3594-2.8496 8.1465-3.3242 3.4297-2.9121 12.701 7.3457 7.4375 2.3516 0.67969-0.40986-3.1062-2.5152-0.70042-5.3191-4.7227 2.4373-11.927 3.0358-3.2626 3.031-4.7949 1.5369-4.2502z" color="#000000" style="-inkscape-stroke:none"/>
   <path d="m249.37 54.95-1.3876 4.2336-1.5413 4.0717-3.4607 2.6627-5e-3 0.1891 4.0514-2.3876 1.6576-4.4991 2.6432-4.4408z" color="#000000" style="-inkscape-stroke:none"/>
   <path d="m253.42 58.384-0.24828 0.3718 5.0547 3.8516 2.252 8.5371 2.1719 1.7617 0.25782-0.95719-1.7707-0.93971-2.5142-8.6378z" color="#000000" style="-inkscape-stroke:none"/>
   <path d="m204.59-16.619-26.957 40.674 1.2503 1.2729 27.72-40.564z" color="#000000" style="-inkscape-stroke:none"/>
   <path d="m235.83-35.496-10.828 8.6895-1.6094 5.5449-14.328 7.2695 0.91344 1.6607 16.797-8.6104 2.1052-6.9322 7.8505-6.33z" color="#000000" style="-inkscape-stroke:none"/>
   <path d="m237.48-32.014 0.57426 1.7025 15.518 3.7992 0.53842-3.2693z" color="#000000" style="-inkscape-stroke:none"/>
   <path d="m253.35-31.891 0.20001 1.7035 15.55 0.07078 6.1883 10.692 8.0256 2.1839-0.0128-0.96517-7.3027-3.3242-5.7109-9.7051z" color="#000000" style="-inkscape-stroke:none"/>
   <path d="m280.57-14.307-0.48072 1.3937 11.613 9.67 1.9672-3.3782z" color="#000000" style="-inkscape-stroke:none"/>
   <path d="m294.91-7.5117-0.50709 1.0393 26.262 20.982-2.293 7.9418 2.0202 8.4186 4.545-2.5468-3.1051-8.112 0.96484-5.5488z" color="#000000" style="-inkscape-stroke:none"/>
   <path d="m287.98-0.042327-0.36435 0.53451 21.858 11.425 7.7441-1.3455-2.0906-1.5796-7.3016 1.1345z" color="#000000" style="-inkscape-stroke:none"/>
   <path d="m200.3-9.998 15.821 24.7 13.976 10.108 4.2572-0.20973-1.4082-1.6246-3.8395 0.15216-12.412-9.2143-15.098-24.864z" color="#000000" style="-inkscape-stroke:none"/>
   <path d="m213.7 113.02-3.509-3.8905 5.4082 17.111-3.8945 19.646 4.4102 11.051 2.4823 4.3046 1.3268-2.9653-2.7447-2.2377-3.1918-11.549 2.975-18.324z" color="#000000" style="-inkscape-stroke:none"/>
   <path d="m210.91 111.15 2.1028 14.128-2.4162 15.496 1.8184 2.6562 1.0918-0.74609-1.1164-2.353 1.4234-15.32-1.4801-11.607z" color="#000000" style="-inkscape-stroke:none"/>
   <path d="m216.6 126.59-1.485 6.0848 0.85598 5.1695 0.45 12.565-1.5052 1.2502 0.29822 0.82169 2.166-1.7402v-15.99z" color="#000000" style="-inkscape-stroke:none"/>
   <path d="m259.36 124.07-14.083 10.03-11.113 20.16-10.461 3.666-3.8971 0.35615-0.78086 2.4266 4.883-1.4527 11.17-3.916 11.207-20.33 19.359-12.168z" color="#000000" style="-inkscape-stroke:none"/>
   <path d="m249.41 128.95-6.7051 2.7148-12.836 18.92-1.6752 5.8471 0.75533 0.12313 2.4106-6.2174 12.328-17.168 7.7152-2.4736 1.3935-0.38641 0.0137-1.3223z" color="#000000" style="-inkscape-stroke:none"/>
   <path d="m251.06 131.73-3.0706 1.516-0.52218 4.5926-8.8919 12.079-2.3379 0.76953 0.41406 1.2578 2.7363-0.90235 10.451-14.047z" color="#000000" style="-inkscape-stroke:none"/>
   <path d="m211.45 138.49-41.21 13.718-156.96 231.23 2.5765 1.7474 155.22-231.86 40.698-12.046z" color="#000000" style="-inkscape-stroke:none"/>
   <path d="m211.54 135.58-32.668 9.6236-14.525 22-7.6934 4.3613 0.65234 1.1504 7.9707-4.5176 14.416-21.834 31.923-8.2501z" color="#000000" style="-inkscape-stroke:none"/>
   <path d="m245.4 141.49-1.554 2.0575 13.096 6.3752 14.102-0.7461 4.8421-3.2204 7.7341 0.18084 33.625 40.579 1.0117-0.85352-35.428-42.055-7.4902 0.0215-6.4027 4.1274-11.724 0.62844z" color="#000000" style="-inkscape-stroke:none"/>
   <path d="m213.85 174.5-3.7346 18.763 1.9785 7.4219-11.732 26.066 0.78711 22.279-145.3 159.78 0.97852 0.88867 145.66-160.17-0.79297-22.512 11.797-26.213-2.0156-7.5625 8.1224-32.869z" color="#000000" style="-inkscape-stroke:none"/>
   <path d="m273.41 146.86-1.1191 0.70508 12.184 19.314 24.117 13.252 3.2793-0.74805c-0.25102-0.59669-4.3345-5.2969-1.6287-2.6601l-2.5835 0.34804-24.194-13.829z" color="#000000" style="-inkscape-stroke:none"/>
   <path d="m247.97 138.76-1.8887 2.0002 13.329 6.3683 7.0195 5.0664 9.3477-0.35547 0.14067-0.65832-8.2979 0.40695-7.544-5.61z" color="#000000" style="-inkscape-stroke:none"/>
   <path d="m299.96 166.04 2.4297 1.3263 71.031 4.106 13.767 7.7027 10.605-0.84011-23.787-10.885z" color="#000000" style="-inkscape-stroke:none"/>
   <path d="m109.18 111.98-1.4043 7.9629 48.717 52.639 2.5809-2.4797-48.571-49.319 1.2752-6.4911z" color="#000000" style="-inkscape-stroke:none"/>
   <path d="m217.34 195.19s-3.7961-0.30305-3.2586 0.64546c1.0078 3.1119 2.1047 6.1942 3.1761 9.2847-4.4369 8.251-8.9158 16.482-13.326 24.745-1.0858 2.5627-2.1717 5.1254-3.2575 7.6882 0.44565 0.0357 1.2237 0.89161 1.3638 0.17317 1.1395-2.617 2.1753-5.2839 3.3803-7.8694l13.959-26.829z" color="#000000" style="-inkscape-stroke:none"/>
   <path d="m725.21 149.55-513.92 45.049 0.11524 1.3184 518.72-36.152z" color="#000000" style="-inkscape-stroke:none"/>
   <path d="m101.67 104.14-78.191 20.62-14.459-6.6789-4.6572 1.3389 15.228 7.542s54.486-14.241 81.729-21.361c20.863 18.744 62.549 56.277 62.549 56.277l2.4682-3.522z" color="#000000" style="-inkscape-stroke:none"/>
   <path d="m335.75 212.1-1.0644 0.78515 129.08 185.75 9.1353-0.82443z" color="#000000" style="-inkscape-stroke:none"/>
   <path d="m212.86 200.09-2.3752 4.6247 554.3 51.639 0.13086-1.3164z" color="#000000" style="-inkscape-stroke:none"/>
  </g>
  <g fill="#9ece6a">
   <path d="m310.04 134.41 55.804-45.498 0.48885 0.26536-55.517 46.398z" stop-color="#000000" style="-inkscape-stroke:none;font-variation-settings:normal"/>
   <path d="m359.95 86.183 12.193 5.1715-2.0376 0.14056-9.9568-3.4476z" stop-color="#000000" style="-inkscape-stroke:none;font-variation-settings:normal"/>
   <path d="m306.41 128.85 7.0781 11.139 0.0661-1.7828-4.9641-8.8674z" stop-color="#000000" style="-inkscape-stroke:none;font-variation-settings:normal"/>
   <path d="m147 114.22 10.795-2.297-2.3284-0.91309-7.3656 0.93752z" stop-color="#000000" style="-inkscape-stroke:none;font-variation-settings:normal"/>
   <path d="m90.375 50.511 25.413 2.9665-3.6502-2.3681-15.573-3.0285z" stop-color="#000000" style="-inkscape-stroke:none;font-variation-settings:normal"/>
   <path d="m103.8 52.098 47.479 60.42 0.66275-0.30799-47.23-60.339z" stop-color="#000000" style="-inkscape-stroke:none;font-variation-settings:normal"/>
   <path d="m156.01 148.63-153.96 230.31-0.55885-0.2581 153.68-230.72z" stop-color="#000000" style="-inkscape-stroke:none;font-variation-settings:normal"/>
   <path d="m149.84 143.87 10.022 8.2094-2.0929 0.68879-7.982-5.0742z" stop-color="#000000" style="-inkscape-stroke:none;font-variation-settings:normal"/>
   <path d="m145.42 160.61-11.172-12.067-0.55422 4.963 10.082 7.3512z" stop-color="#000000" style="-inkscape-stroke:none;font-variation-settings:normal"/>
   <path d="m138.62 156.36-0.57214-0.55935-152.92 91.112 0.11465 0.19803z" stop-color="#000000" style="-inkscape-stroke:none;font-variation-settings:normal"/>
   <path d="m322.48 124.96 12.319-9.8555-0.26458 1.9738-8.3132 8.1979z" stop-color="#000000" style="-inkscape-stroke:none;font-variation-settings:normal"/>
   <path d="m328.16 122.38 304.7 195.49 0.24455-0.20902-304.23-195.85z" stop-color="#000000" style="-inkscape-stroke:none;font-variation-settings:normal"/>
  </g>
 </g>
</svg>
