<?xml version="1.0" encoding="UTF-8"?>
<!-- Created with Inkscape (http://www.inkscape.org/) -->
<svg width="1980" height="1e3" version="1.1" viewBox="0 0 523.87 264.58" xmlns="http://www.w3.org/2000/svg">
 <g fill="#2a2c41">
  <path d="m197.46 62.743 2.7626-7.1959 38.266-10.626 6.8177 5.8534-2.1063 5.7986-33.187 8.1876z" stop-color="#000000" style="-inkscape-stroke:none;font-variation-settings:normal"/>
  <path d="m264.89 46.033-6.5422 6.5712 0.80718 5.393 25.029 9.5607 16.956-5.3129-0.64648-3.93z" stop-color="#000000" style="-inkscape-stroke:none;font-variation-settings:normal"/>
 </g>
 <g>
  <path d="m199.81 79.421c1.3848 0.1857 25.718 5.5371 25.718 5.5371l20.365-2.6972 5.5841 3.5843 4.0681-3.0332 17.565 5.8872 27.039-4.837-0.29741 1.0651-45.312 14.483-0.78796-3.5769-4.0379 6.6546-1.2386-9.4955-8.2396 4.0965z" fill="#9ece6a" stop-color="#000000" style="-inkscape-stroke:none;font-variation-settings:normal"/>
  <path d="m201.38 79.875c0 0.14792 38.912 17.16 38.912 17.16l10.453-5.4952 0.32735 7.7395 2.6918-4.9865 2.2606 2.4459 18.213-2.5381-7.5494 2.6293-12.623 2.4597-0.78647-2.2605-4.1806 6.8289-1.7259-8.315-8.0106 4.3191-42.938-20.123z" fill="#658a3f" stop-color="#000000" style="-inkscape-stroke:none;font-variation-settings:normal"/>
  <g fill="#9ece6a">
   <path d="m251.69 60.358-0.69098 7.6699 3.5032 8.7904 1.0804-2.7422-0.81742-4.7941 0.6581-1.2197-2.7274-1.8939z" stop-color="#000000" style="-inkscape-stroke:none;font-variation-settings:normal"/>
   <path d="m250.29 75.804-1.2392-6.937 1.0118-8.51-3.5704 9.1699-0.38733 2.5308 1.9339 0.05317z" stop-color="#000000" style="-inkscape-stroke:none;font-variation-settings:normal"/>
   <path d="m251.36 52.537c-1.0114 0.53276-40.77 10.217-40.77 10.217l-13.963 7.3425 0.20905 2.9861 46.865-12.164 1.6845 2.8933 4.2248-2.4826 0.81267-8.2589z" stop-color="#000000" style="-inkscape-stroke:none;font-variation-settings:normal"/>
   <path d="m252.21 51.363c0.68989 0.37418 53.792 21.386 53.792 21.386l-2.9123 3.8474-43.447-16.028-5.3971 2.134-3.8861-2.1373z" stop-color="#000000" style="-inkscape-stroke:none;font-variation-settings:normal"/>
   <path d="m213.91 67.261c0.83678 1.268 19.015 17.706 19.015 17.706l0.79074-0.0877-12.676-13.75 1.8665-5.9642-1.2508 0.69902-1.9085 5.7753-4.5205-4.6593z" stop-color="#000000" style="-inkscape-stroke:none;font-variation-settings:normal"/>
   <path d="m272.6 64.438-10.817 17.918-5.9991 1.4831 1.17 0.5023 7.4145-1.9704 7.3546-12.816 24.81 3.7429-1.2513-0.84853-21.585-3.5365-1.4302-2.6319 0.88728-1.9113z" stop-color="#000000" style="-inkscape-stroke:none;font-variation-settings:normal"/>
   <path d="m270.31 71.225c0.84182 0.76429 21.802 11.583 21.802 11.583l1.3751 2.7414 0.6935-0.42633-2.0226-4.2948-15.192-8.0471-1.2423-3.0029-0.83667-0.13022 1.6368 3.9565-6.0536-3.2718z" stop-color="#000000" style="-inkscape-stroke:none;font-variation-settings:normal"/>
   <path d="m197.64 74.393c0.82398 0 23.066 2.095 23.066 2.095l10.701 8.093 0.98107-0.14986-10.865-9.4405-18.606-1.3885 0.16485-2.5911-0.74544 0.1341-0.18526 2.8755-4.7759-0.34158z" stop-color="#000000" style="-inkscape-stroke:none;font-variation-settings:normal"/>
  </g>
  <g>
   <path d="m308.96 59.844-10.144 24.826-24.773 5.6406-18.699-4.5977-2.9601 1.664-4.3876-2.707s-1.6834 0.06671-2.414 0.1171c-3.9643 0.27981-7.5707 0.55197-11.666 0.86719l-0.0723 0.0039-6.6219 0.42962-31.726-7.9941-0.32031 1.2832 35.068 8.7559 17.324-2.3232 4.7663 3.4775 3.2559-2.1504 18.441 4.5332 25.715-5.8555 14.4-26.793z" color="#000000" style="-inkscape-stroke:none"/>
   <path d="m195.53 78.102-0.38477 1.2656 38.039 11.59 14.877-0.37891 4.209 0.64648 7.8652 2.1445 13.623-0.78125 25.693-6.7051-0.33399-1.2812-25.566 6.6738-13.275 0.76172-7.7305-2.1074-4.4004-0.67773-14.781 0.37891z" color="#000000" style="-inkscape-stroke:none"/>
   <path d="m195.56 78.113-0.45117 1.2441c15.324 5.5489 30.481 13.444 45.451 20.336l0.3086 0.14062 9.3008-5.2871 0.34125 6.0848 3.3933-5.7312 2.2129 2.8672 18.336-3.3691 25.043-8.5312-0.42773-1.252-24.949 8.5-17.447 3.2051-3.0898-4.0039-1.7701 2.768-0.32382-2.809-10.676 6.0723c-14.833-6.8413-29.916-14.681-45.252-20.234z" color="#000000" style="-inkscape-stroke:none"/>
   <path d="m204.32 84.555-6.1367 2.0391 1.2656 3.877 5.0072-3.6724 36.46 17.605-0.0126 2.1326-9.0656 13.79-4.4737 6.6934 7.4913-6.5449 14.682-15.807-2.7055-6.0433 4.518-4.8044-1.041-0.81641-4.3273 5.6031 2.1379 5.643-11.703 13.055 5.4433-10.482-0.10351-3.1133z" color="#000000" style="-inkscape-stroke:none"/>
   <path d="m243.11 98.071-0.49617 2.2105 1.9219 5.4824-10.699 13.865 8.8692-7.7168 3.2715-6.0312-1.9004-5.4258 6.0938-5.9082z" color="#000000" style="-inkscape-stroke:none"/>
   <path d="m256.23 96.404-6.6954 8.2637-15.621 14.883 0.83789 1.0234 16.094-15.457 5.7111-7.4318z" color="#000000" style="-inkscape-stroke:none"/>
   <path d="m285.25 94.992-24.096 6.4928-24.741 15.82-1.5606 3.1699 3.6872-2.9978 15.663-10.448 31.238-10.708 6.4141 0.13086 2.6719 1.6895 0.70703-1.1191-2.9844-1.8867z" color="#000000" style="-inkscape-stroke:none"/>
   <path d="m286.07 91.898-20.91 5.8223-26.411 17.348 5.4828-2.0843 21.48-14.045 20.381-6.3118 6.1525 2.5071-0.61514 0.48253 3.8124 1.6229-2.0527-3.4062z" color="#000000" style="-inkscape-stroke:none"/>
   <path d="m298.62 85.238-2.715 8.9585-2.2772 3.2954 1.0664 0.78125 5.207-7.1094 0.041-5.918z" color="#000000" style="-inkscape-stroke:none"/>
   <path d="m199.52 86.486-1.3184 0.0957 0.50781 6.9453 28.154 39.357-7.6523 21.23 1.2012 0.54493 11.064-19.992 43.232-14.938 11.326-11.268 4.2771-7.9815 3.3186-2.9892-2.082-2.123-3.2266 3.8711-3.4121 8.4766-10.92 10.863-43.881 13.701-6.0511 12.825 5.0705-13.002-29.129-39.045z" color="#000000" style="-inkscape-stroke:none"/>
   <path d="m188.05 36.07-3.5 0.30274 0.11328 1.3184 3.166-0.27344 17.564 7.6797 12.246-0.43164 6.5508 1.0566 2.627-1.373 24.652-2.7695 2.4062-3.9473-1.1289-0.6875-2.0703 3.3926-24.252 2.7246-2.457 1.2832-6.2461-1.0059-12.305-0.0561z" color="#000000" style="-inkscape-stroke:none"/>
   <path d="m187.37 29.597-3.1584 3.9796 0.43555 4.123 1.3164-0.13867-0.35352-3.3516 3.4356-2.4316 14.68 7.2949 5.7266 4.3047 8.1309 1.2793 0.20508-1.3066-7.8047-1.2285-5.5606-4.1797z" color="#000000" style="-inkscape-stroke:none"/>
   <path d="m204.16 37.852-0.17774 1.3105 15.705 1.9495 3.5971 2.0754 3.5616 0.68479-0.0804-0.81126-3.8451-0.77489-3.9691-2.4905z" color="#000000" style="-inkscape-stroke:none"/>
   <path d="m318.19 40.684-2.5824 1.4654 5.3636 2.3354-7.9785 13.877 1.1484 0.66016 8.5547-14.883z" color="#000000" style="-inkscape-stroke:none"/>
   <path d="m222.81-87.461-1.2812 0.33398 28.869 110.94 0.0644 0.09375c0.81335 1.2231 2.1874 3.2559 2.1874 3.2559l0.0391 5.0859-0.041 5.1035 1.3242 0.01563s0.0295-2.5386 0.041-5.1133c6e-3 -1.2873 7e-3 -2.5836-2e-3 -3.5801-5e-3 -0.49826-0.0234-1.2363-0.0234-1.2363l-1.3476-2.6797s0.78015-2.5204 0.72188-2.6056z" color="#000000" style="-inkscape-stroke:none"/>
   <path d="m334.03-94.975-77.293 117.47-0.8125 7.3125-3.207 4.7344 2.3574 6.1582 2.1289-10.422 1.7192-6.3029 76.212-118.22z" color="#000000" style="-inkscape-stroke:none"/>
   <path d="m252.03-95.43-1.3223 0.03906 1.9452 122.55-0.0233 7.5703 4.0818-4.8525-1.0272-1.0127z" color="#000000" style="-inkscape-stroke:none"/>
   <path d="m373.11-78.445-111.33 100.88-4.1061 0.93418-0.77083 1.1459 0.55363 2.4438 5.0382-3.3852 111.51-101.04z" color="#000000" style="-inkscape-stroke:none"/>
   <path d="m156.78-72.939-0.97851 0.89062 92.891 102.04 4.0332 7.6133 0.81068-7.0347-3.0202-3.1142z" color="#000000" style="-inkscape-stroke:none"/>
   <path d="m190.33 37.862-3.011-0.88937 4.418 11.953-4.1602 13.535 1.2656 0.38867 4.291-13.963z" color="#000000" style="-inkscape-stroke:none"/>
   <path d="m250.77 53.804-385.67 95.159 0.0524 7.8761 385.51-101.29z" color="#000000" style="-inkscape-stroke:none"/>
   <path d="m258.62 56.494-5.8146-0.6931 466.04 186.03 8.7915-7.4917z" color="#000000" style="-inkscape-stroke:none"/>
   <path d="m253.93 37.121-1.2383 0.4668 1.623 4.3008 27.979 4.7656 14.965-2.7266 10.055 2.1122 2.9767-1.9638-13.076-1.4844-14.928 2.7188-27-4.5996z" color="#000000" style="-inkscape-stroke:none"/>
   <path d="m319.91 32.285-29.104 8.2539-3.3926 4.1992 2.7818-0.26054 1.4642-2.142 28.178-8.6561 3.8848 1.5586-1.0254 3.1855-21.365 9.4551-20.557-0.35547-2.4707-2.9023-3.9022 0.34439 5.7538 3.8705 21.445 0.37109 22.174-9.8125 1.584-4.9238z" color="#000000" style="-inkscape-stroke:none"/>
   <path d="m327.6 27.552-1.8232 0.34647 2.6953 1.8145-0.75 6.2949-5.4219 6.2539-4.1055-1.5781 1.7695 2.9688 2.9551-0.08398 6.6486-6.5951 0.31426-7.9069z" color="#000000" style="-inkscape-stroke:none"/>
   <path d="m255.07 40.697-0.54493 1.2051 11.291 5.1055 37.696 10.975 3.308 2.6327 4.7828-1.5297-5.8105-2.644-39.529-10.684z" color="#000000" style="-inkscape-stroke:none"/>
   <path d="m237.8 44.551-37.639 10.287-5.6934 7.9375 3.7866 0.79337 2.9734-6.849 36.92-10.892z" color="#000000" style="-inkscape-stroke:none"/>
   <path d="m266.26 45.76-0.44336 1.2461 33.045 11.628 0.0958 3.5232 4.777-1.0206-2.5606-2.9883z" color="#000000" style="-inkscape-stroke:none"/>
   <path d="m239.08 43.961-2.2652 0.95626 8.2082 6.5063-0.24701-0.9263-2.9031 6.703 2.396-1.3258 2.0979-5.1111z" color="#000000" style="-inkscape-stroke:none"/>
   <path d="m263.79 45.956-5.9819 6.6667 0.21702 3.7963-7.2547-2.6151-0.46634 1.7001 5.8558 0.94523 3.0141 0.6679-0.37411-3.5468 6.5822-6.9139z" color="#000000" style="-inkscape-stroke:none"/>
   <path d="m197.95 68.626-3.449 1.3621 1.2246 18.812 2.8184 2.6367 0.80797-2.0133-2.3392-1.2328z" color="#000000" style="-inkscape-stroke:none"/>
   <path d="m307.05 76.242-8.377 12.859 1.1074 0.72266 9.5586-12.484z" color="#000000" style="-inkscape-stroke:none"/>
   <path d="m583.84-23.088s-168.07 52.304-252.96 76.21c0 0-11.111 3.1192-21.12 5.9252-5.2776 1.4796-10.249 2.8721-13.124 3.6744-4.1639 1.162-7.46 2.0772-9.7402 2.7051-1.1401 0.31396-2.0256 0.55612-2.6387 0.7207-0.30654 0.08229-0.54569 0.14515-0.71094 0.1875-0.0826 0.02117-0.14677 0.03677-0.18945 0.04687-0.0427 0.01011-0.10236 0.01741-0.0176 0.0078l0.15039 1.3145c0.11189-0.01267 0.11555-0.02182 0.17187-0.03516 0.0563-0.01334 0.12576-0.03041 0.21289-0.05273 0.17427-0.04466 0.41544-0.10841 0.72461-0.19141 0.61834-0.166 1.5069-0.4083 2.6484-0.72266 2.2831-0.62871 5.5795-1.5448 9.7441-2.707 8.3292-2.3244 34.248-9.5996 34.248-9.5996s168.4-47.462 252.6-71.221z" color="#000000" style="-inkscape-stroke:none"/>
   <path d="m-125.71 25.758-0.0536 12.37 337 27.548 1.8565-1.0806z" color="#000000" style="-inkscape-stroke:none"/>
   <path d="m191.97 63.018-1.8574 7.7832 2.8315-0.18922 0.31107-7.2873z" color="#000000" style="-inkscape-stroke:none"/>
   <path d="m308.82 64.668-1.1123 2.5153 5.6202 2.9789-3.9902 7.1777 1.1562 0.64258 5.4471-10.012z" color="#000000" style="-inkscape-stroke:none"/>
   <path d="m-45.089-98.084-2.0902 6.2889 239.25 124.85 12.348 4.8906z" color="#000000" style="-inkscape-stroke:none"/>
   <path d="m533.78-85.481-223.85 121.32 2.6861-0.3046 224.22-113.89z" color="#000000" style="-inkscape-stroke:none"/>
   <path d="m250.9 40.32c-2.4359 0.64986-16.449 3.8541-29.77 6.873-13.32 3.019-26.01 5.8691-26.01 5.8691l-0.17969 0.04102-6.3867 6.0762 0.28516 3.6699 6.748-8.5371c0.17187-0.03861 12.605-2.8295 25.836-5.8281 13.322-3.0193 27.212-6.1899 29.816-6.8848z" color="#000000" style="-inkscape-stroke:none"/>
   <path d="m195.27 73.17-47.72 13.476-5.1152-3.3828-0.73047 1.1035 5.5938 3.6973 48.258-11.43z" color="#000000" style="-inkscape-stroke:none"/>
   <path d="m306.46 79.285-1.9358 2.6584 57.277 20.246 2.9668-2.4922-0.8496-1.0117-2.3887 2.0039z" color="#000000" style="-inkscape-stroke:none"/>
   <path d="m356.08 43.096-39.207 8.8828-0.79961 2.9086 39.729-10.371 2.7773 1.9277 0.75586-1.0859z" color="#000000" style="-inkscape-stroke:none"/>
   <path d="m147.41 53.475-3.3789 3.5137 0.95508 0.91602 2.957-3.0762 41.136 3.5864 1.2079-2.6977z" color="#000000" style="-inkscape-stroke:none"/>
   <path d="m252.66 37.164c-0.0221 0.11499-0.0365 0.2397-0.0742 0.50977s-0.0897 0.64262-0.15234 1.1055c-0.12522 0.92569-0.29628 2.2092-0.49805 3.7285-0.40354 3.0387-0.92815 7.0235-1.4492 10.986-1.0421 7.9257-2.0684 15.764-2.0684 15.764l-0.0117 0.09766 3.2871 19.24 1.3106-0.05469 0.54883-6.4531 1.4785-5.0879-3.916-9.1895 2.8535-30.459zm-2.7793 31.125 3.1179 10.629-0.75262 2.9258-2.502-12.514c8.6e-4 -0.0065 0.12727-0.96879 0.13672-1.041z" color="#000000" style="-inkscape-stroke:none"/>
   <path d="m250.64 55.746c0 0.24177 0.0345 0.3796 0.084 0.70312 0.0495 0.32353 0.11966 0.74674 0.20312 1.2383 0.16693 0.98308 0.60938 3.4707 0.60938 3.4707l0.93947 5.1387 3.4492 2.3125 2.8281 5.4648-4.7363 2.3887 0.63282 1.1602 5.713-2.6689-3.203-6.497-2.75-1.983-1.5705-5.5503s-0.44379-2.4819-0.60937-3.457c-0.0828-0.48759-0.15172-0.90816-0.19922-1.2188s-0.0684-0.59982-0.0684-0.50195z" color="#000000" style="-inkscape-stroke:none"/>
   <path d="m252.14 53.627-1.3438 3.5215 2.916 4.2676 4.9824 2.7578 4.8498 11.097-4.797-1.1971-0.31054 1.2852 5.8169 1.7241 6.5996 8.2105-1.6626-3.1905-9.498-18.889-4.918-2.7227z" color="#000000" style="-inkscape-stroke:none"/>
   <path d="m249.72 62.9-0.0853-1.4817-3.9616 8.4075-0.83203 6.1465 5.626 4.6807 0.44233-4.587-0.76759 1.6787-3.7461-2.1071 0.55277-5.3744c0.0597-0.10378 2.7714-7.3633 2.7714-7.3633l1.0821 0.76172z" color="#000000" style="-inkscape-stroke:none"/>
   <path d="m250.67 55.547c6e-3 -0.01895-0.0678 0.18082-0.16406 0.42383-0.0963 0.24301-0.22764 0.56918-0.38086 0.94727-0.30645 0.75617-0.70235 1.7224-1.0938 2.6758-0.76241 1.8571-1.4675 3.5674-1.5059 3.6602l-5.5078 6.2949-2.4531 14.168 6.5742-8.166-1.0293-0.83008-2.2883 2.2785 0.43677-6.8606 5.4609-6.3145 0.62036-3.3812s1.7046-2.2692 2.0124-3.0289c0.15394-0.37984 0.2862-0.70636 0.38477-0.95508 0.0986-0.24872 0.15344-0.37938 0.19531-0.51172z" color="#000000" style="-inkscape-stroke:none"/>
   <path d="m251.5 51.949-4.0293 11.436 1.248 0.43945 2.834-8.0449 2.0781 5.4121 1.2344-0.47461z" color="#000000" style="-inkscape-stroke:none"/>
   <path d="m221.18 122.19-10.007 17.708 6.1836 6.7774 1.6869 10.297s-3.6394 14.791-5.7416 22.212c0.95584 0.57613 1.56 0.38794 1.7244-0.75568 3.4135-8.5352 6.8269-17.07 10.24-25.606 5.7923-3.4824 17.852-9.9024 17.852-9.9024l1.048-7.0081 5.0858-5.5528 5.5639-3.8875-2.0892-0.16746-4.7216 3.7069s-4.0056 4.1646-6.0084 6.2469c-0.19857 1.7734-0.39713 3.5469-0.5957 5.3203-5.7324 3.446-11.465 6.8919-17.197 10.338-2.0606 5.153-4.1211 10.306-6.1816 15.459 0.98307-3.472 1.9662-6.944 2.9492-10.416l-2.3984-10.914c-1.9219-2.1068-4.7324-5.0547-4.7324-5.0547l9.0717-16.307z" color="#000000" style="-inkscape-stroke:none"/>
   <path d="m224.84 126.69-3.1223 7.4876 2.025 10.221 1.0476-3.126-1.6937-6.9076 3.0862-5.374z" color="#000000" style="-inkscape-stroke:none"/>
   <path d="m241.11 129.75-5.8856 7.7616-9.2093 4.3556-0.78416 2.1819 10.783-5.4536 9.3448-9.3758z" color="#000000" style="-inkscape-stroke:none"/>
   <path d="m235.07 137.68-2.7988 4.0606c-0.16133 0.0708-2.1579 0.94638-4.3848 1.9336-1.1576 0.51316-2.3318 1.0376-3.2559 1.4551-0.462 0.20871-0.86173 0.38945-1.166 0.53125s-0.47672 0.21991-0.63086 0.31055l0.67187 1.1406c-0.0108 6e-3 0.22168-0.11406 0.51758-0.25195 0.29591-0.13789 0.69299-0.31788 1.1523-0.52539 0.91871-0.41503 2.092-0.93869 3.248-1.4512 2.3121-1.025 4.5527-2.0078 4.5527-2.0078l0.17187-0.0762 12.206-13.577z" color="#000000" style="-inkscape-stroke:none"/>
   <path d="m215.39 144.37-0.67774 13.887 3.2891 5.7539 1.1484-0.6582-3.0976-5.416 1.3046-11.26z" color="#000000" style="-inkscape-stroke:none"/>
   <path d="m211.76 140.38 0.44786 10.487 2.8574 5.3965 0.82227-0.45636-2.3496-5.2546c0.11255-3.2672 0.29885-9.5547 0.29885-9.5547z" color="#000000" style="-inkscape-stroke:none"/>
   <path d="m227.78 150.31-2.3549 5.8212-3.9043 2.4727 0.70703 1.1172 4.2051-2.6621 3.6875-7.0645z" color="#000000" style="-inkscape-stroke:none"/>
   <path d="m234.75 145.59-2.6562 4.6758-4.9531 2.5938 0.61329 1.1719 5.2969-2.7754 4.4952-5.3089z" color="#000000" style="-inkscape-stroke:none"/>
   <path d="m222.14 135.49-1.9805 5.1602 0.95703 9.3652 1.736-1.0419-1.3453-8.1437 1.4174-5.1456z" color="#000000" style="-inkscape-stroke:none"/>
   <path d="m202.96 99.484-0.32813 3.5293 13.496 20.809-0.43946 8.5078 2.1828-1.9561-0.46206-7.0282-0.45511 0.38868 0.50781-0.27149-0.0527-0.11719-0.0117 2e-3 -13.406-20.668 0.28515-3.0742z" color="#000000" style="-inkscape-stroke:none"/>
   <path d="m270.62 120.38-3.7323 4.6807-18.324 7.7389-6.9082 7.9785 1.4613 2.1464 8.8782-10.361 18.729-8.2852 2.7422-3.6484z" color="#000000" style="-inkscape-stroke:none"/>
   <path d="m204.27 99.606-1.3802 0.60798 25.468 31.978-9.7558 21.652 1.1777 0.59766 11.078-21.383 42.605-12.428-0.39843-1.2617-42.791 12.874-4.6368 9.21 3.4572-9.3609z" color="#000000" style="-inkscape-stroke:none"/>
   <path d="m212.48 138.2-42.247 14.012-156.96 231.23 2.5765 1.7474 155.22-231.86 41.055-12.08z" color="#000000" style="-inkscape-stroke:none"/>
   <path d="m214.96 134.74-36.085 10.458-14.525 22-7.6934 4.3613 0.65234 1.1504 7.9707-4.5176 14.416-21.834 33.652-8.3262z" color="#000000" style="-inkscape-stroke:none"/>
   <path d="m243.86 140.11-2.1289 2.4707 15.215 7.3457 14.102-0.7461 4.8421-3.2204 7.7341 0.18084 33.625 40.579 1.0117-0.85352-35.428-42.055-7.4902 0.0215-6.4027 4.1274-11.724 0.62844z" color="#000000" style="-inkscape-stroke:none"/>
   <path d="m213.29 179.22-3.1777 14.041 1.9785 7.4219-11.732 26.066 0.78711 22.279-145.3 159.78 0.97852 0.88867 145.66-160.17-0.79297-22.512 11.797-26.213-2.0156-7.5625 3.1074-13.723z" color="#000000" style="-inkscape-stroke:none"/>
   <path d="m273.41 146.86-1.1191 0.70508 12.184 19.314 24.117 13.252 3.2793-0.74805c-0.25102-0.59669-4.3345-5.2969-1.6287-2.6601l-2.5835 0.34804-24.194-13.829z" color="#000000" style="-inkscape-stroke:none"/>
   <path d="m245.33 138.27-1.4701 1.8392 15.547 7.0254 7.0195 5.0664 9.3477-0.35547 0.14067-0.65832-8.2979 0.40695-7.544-5.61z" color="#000000" style="-inkscape-stroke:none"/>
   <path d="m299.96 166.04 2.4297 1.3263 71.031 4.106 13.767 7.7027 10.605-0.84011-23.787-10.885z" color="#000000" style="-inkscape-stroke:none"/>
   <path d="m109.18 111.98-1.4043 7.9629 48.717 52.639 2.5809-2.4797-48.571-49.319 1.2752-6.4911z" color="#000000" style="-inkscape-stroke:none"/>
   <path d="m217.34 195.19s-3.7961-0.30305-3.2586 0.64546c1.0078 3.1119 2.1047 6.1942 3.1761 9.2847-4.4369 8.251-8.9158 16.482-13.326 24.745-1.0858 2.5627-2.1717 5.1254-3.2575 7.6882 0.44565 0.0357 1.2237 0.89161 1.3638 0.17317 1.1395-2.617 2.1753-5.2839 3.3803-7.8694l13.959-26.829z" color="#000000" style="-inkscape-stroke:none"/>
   <path d="m725.21 149.55-513.92 45.049 0.11524 1.3184 518.72-36.152z" color="#000000" style="-inkscape-stroke:none"/>
   <path d="m101.67 104.14-78.191 20.62-14.459-6.6789-4.6572 1.3389 15.228 7.542s54.486-14.241 81.729-21.361c20.863 18.744 62.549 56.277 62.549 56.277l2.4682-3.522z" color="#000000" style="-inkscape-stroke:none"/>
   <path d="m335.75 212.1-1.0644 0.78515 129.08 185.75 9.1353-0.82443z" color="#000000" style="-inkscape-stroke:none"/>
   <path d="m212.86 200.09-2.3752 4.6247 554.3 51.639 0.13086-1.3164z" color="#000000" style="-inkscape-stroke:none"/>
  </g>
 </g>
</svg>
