<?xml version="1.0" encoding="UTF-8"?>
<!-- Created with Inkscape (http://www.inkscape.org/) -->
<svg width="1098" height="466.74" version="1.1" viewBox="0 0 290.52 123.49" xmlns="http://www.w3.org/2000/svg">
 <g transform="translate(-46.051 -4.0053)" type="layer">
  <rect x="37.245" y="-3.2137" width="306.28" height="138.63" fill="#cacaca" stroke-width=".38345"/>
 </g>
 <g id="U0_block" fill="#838889" type="layer">
  <path transform="translate(21.532 22.461)" d="m174.98-17.219c-2.833 1.1101-5.5414 2.5088-8.2457 3.8961-7.5829 3.9637-14.995 8.2453-22.354 12.606-1.9856 1.1815-3.9659 2.3717-5.9486 3.558-0.0467-1.8479-0.127-3.6952-0.14457-5.5436 0.025-1.9556 0.25596-3.9702 1.1447-5.7387 0.18321-0.32599 0.38966-0.63812 0.57999-0.95989-6.3592 7.6765-12.748 15.33-18.957 23.129-0.96347 0.62506-1.9261 1.2514-2.8867 1.8809-1.1745-1.2845-2.349-2.569-3.5234-3.8535 1.1169-1.4162 2.2558-2.8149 3.3809-4.2246-4.9711 3.2894-9.9415 6.5798-14.902 9.8848 0.0833 1.9839-0.0611 4.0346-0.8457 5.8809-0.79013 1.6679-1.779 3.2311-2.6868 4.8358-0.1718 0.28192-0.32068 0.5836-0.50438 0.85564-1.6765 1.3482-3.3326 2.7315-4.8361 4.2734 0.46738 0.81584 0.90489 1.6484 1.3535 2.4746-0.03059 0.14367-0.16039 0.30449-0.0037 0.41581 2.0499 2.6951 4.0724 5.4112 6.1511 8.0842 0.49007 0.64282 1.0217 1.2625 1.5016 1.9087 1.2994 4.91 3.0754 9.6787 4.9656 14.388 1.1965 2.9488 2.3937 5.8974 3.5904 8.8462-3.0926-2.2645-6.1979-4.5119-9.2802-6.7904-0.94173-0.72765-1.9264-1.4224-2.7228-2.314-0.52763-0.72749-0.78852-1.6061-1.1123-2.4348-1.1027-3.1438-1.9724-6.3663-2.7088-9.6141-0.3821-1.7409-0.72845-3.499-0.80758-5.2837-0.09867-1.4696-0.19735-2.9391-0.29602-4.4087-0.83189 3.6925-1.4977 7.4197-2.2 11.138-1.2215 5.3394-2.4267 10.683-3.6766 16.016-0.25984 1.1614-0.58204 2.3068-0.90854 3.4507-0.66294 0.12619-1.3178 0.30374-1.9879 0.38483-1.084 0.08139-2.0856-0.51844-2.8057-1.2826-0.23195-0.16876-0.28345-0.46413-0.41204-0.7053-1.6024-3.6576-3.0433-7.3866-4.3274-11.168-0.71481-2.1901-1.4363-4.3966-1.7761-6.682-0.29158-1.9982 0.32344-3.9884 1.068-5.8205 0.9879-2.4401 2.37-4.7086 3.2203-7.2055 0.32285-0.93453 0.46314-1.9272 0.39062-2.9141-0.15631-2.8786-0.55776-5.737-0.96071-8.5894-0.67502-4.5386-1.4453-9.0683-2.5018-13.535-0.2693-1.1025-0.55063-2.2039-0.91509-3.2794-2.4813 0.55335-4.904 1.3366-7.3237 2.1098-1.9201 0.62232-3.83 1.276-5.723 1.9765-5.1613 1.8223-10.256 3.841-15.223 6.1437-0.93164 0.42463-1.8633 0.84926-2.7949 1.2739 0.14324-1.5638 0.2917-3.1273 0.43164-4.6914 0.01322-2.2399-1.3197-4.4075-3.3058-5.4337-1.9382-1.0475-4.4376-0.92065-6.2601 0.3175-1.8127 1.1812-2.9189 3.363-2.76 5.5261 0.11839 2.2404 1.5724 4.3406 3.6256 5.2434 0.77528 0.33138 1.6015 0.51797 2.4035 0.77256 0.09546 0.63244 0.15345 1.2718 0.27582 1.8993 0.50857 1.6305 1.2182 3.1895 1.899 4.7534 0.28132 0.63063 0.56847 1.2587 0.86038 1.8845-0.4668 0.32292-0.93359 0.64583-1.4004 0.96875 1.9598 2.73 3.9285 5.4545 5.8824 8.1882 5.2829 10.415 10.81 20.704 16.377 30.97-3.0568 0.39644-6.1127 0.80533-9.1824 1.0912-4.5999 0.45455-9.2102 0.79257-13.817 1.1648-3.7722 0.30572-7.5495 0.55411-11.316 0.92215-0.51465-0.03516-0.91552 0.20271-1.1423 0.66871-1.2878 1.9151-2.1771 4.0556-3.1275 6.1492-12.839 2.1181-25.692 4.1505-38.545 6.1836 2.6275 1.2441 5.2101 2.5851 7.8733 3.7527 1.1656 0.53472 2.4668 0.58806 3.7208 0.73699 2.3412 0.23509 4.7004 0.27199 7.0342 0.5805 1.7556 0.24241 3.2915 1.1865 4.8788 1.9063 1.5648 0.74214 3.2515 1.3672 5.0076 1.3305 0.89827-0.07201 1.7577-0.37476 2.6314-0.57828 7.7939-2.0641 15.547-4.2779 23.289-6.5293 7.8524-2.3068 15.698-4.6475 23.455-7.259 1.3417-0.45346 2.6766-0.92671 4.0136-1.3935 2.1782 3.9534 4.3624 7.9034 6.5605 11.846-1.7495-0.15363-3.4978-0.32371-5.2482-0.46671-2.209-0.12359-4.4091 1.0764-5.54 2.9707-1.1739 1.8835-1.1909 4.4072-0.04755 6.3082 1.0648 1.8424 3.1299 3.0583 5.2624 3.0567 2.1843 0.0379 4.328-1.195 5.3989-3.0982 0.54789-1.0573 1.0421-2.1421 1.5674-3.2111 0.25248-0.52311 0.50496-1.0462 0.75744-1.5693 0.66862 1.1029 1.3372 2.2057 2.0059 3.3086 1.2587-0.88502 2.2759-2.0524 3.3078-3.181 1.14-1.287 2.2409-2.6108 3.2725-3.9863 0.39226-0.82282 0.54802-1.7341 0.76413-2.6139 0.51402-2.563 0.98244-5.1357 1.3935-7.7175 0.87775-5.4682 1.6749-10.95 2.3656-16.445 1.7559 0.06185 3.5117 0.1237 5.2676 0.18555 0.07496 1.2111 0.14467 2.4303 0.40234 3.6191 0.74229 0.38848 1.5712 0.57806 2.3651 0.83434 4.2888 1.2375 8.6386 2.2529 12.997 3.2123 0.58036 0.12577 1.161 0.25017 1.7415 0.37522 1.1326 2.3624 2.3174 4.7021 3.6465 6.9609 0.42992 0.32092 1.009 0.28904 1.5191 0.34506 2.2437 0.08809 4.4916-5e-3 6.7347 0.11963 2.8518 0.15156 5.7547 0.49932 8.397 1.6458 0.80006 0.35996 1.5706 0.79116 2.3118 1.257 4.1611 4.3222 8.3602 8.6103 12.699 12.755 0.58236 0.53956 1.1471 1.1021 1.7738 1.5906 0.74998-0.19702 1.4036-0.6293 2.0898-0.97461 0.98127 0.33076 1.9726 0.63042 2.9832 0.85931 0.22445 0.03026 0.73084 0.29922 0.43529-0.08785-0.40314-0.79591-0.80503-1.5924-1.2076-2.3886 1.6778-1.4651 3.3487-2.9415 4.8907-4.5514 2.6515-2.742 5.1394-5.6624 7.2154-8.8679 0.0709-0.25772 0.29066-0.0073 0.4481 0.03011 1.4663 0.68051 2.9326 1.361 4.3989 2.0415-0.64087 1.9685-0.17801 4.2404 1.1758 5.8059 1.3635 1.6418 3.616 2.4789 5.7199 2.1093 2.2501-0.35212 4.2145-2.0604 4.8758-4.2399 0.26342-0.89237 0.52176-1.7863 0.78318-2.6792 5.3634 1.6087 10.733 3.1953 16.114 4.7456 6.1194 1.7697 12.258 3.4713 18.396 5.1762 0.21597-0.07667 0.6049 0.14352 0.88523 0.17451 0.55234 0.1408 1.1061 0.27596 1.6616 0.40362 6.6601-3.3471 13.322-6.6905 20.002-9.998-0.32617-0.0599-0.65234-0.11979-0.97851-0.17969 2.8542-1.182 5.7138-2.3512 8.5645-3.5413 2.8315-1.3213 5.6334-2.707 8.479-3.9988 1.3514-0.6179 2.7145-1.2184 4.108-1.7317 1.282-0.64563 2.5719-1.2797 3.8133-2.0016-1.4482-1.901-3.1933-3.5492-4.9483-5.1623-2.8579-2.5767-5.8513-5.009-9.008-7.2112-1.0813-0.72018-2.1568-1.4845-3.3731-1.9618-0.97191-0.26524-1.99-0.28911-2.9889-0.37815-4.8058-0.3051-9.623-0.36795-14.437-0.42904-1.3498-0.01337-2.6996-0.02179-4.0494-0.02547l-0.85938-5.1465c3.1872-1.123 6.3063-2.4296 9.4082-3.7676 1.299-1.3662 2.5473-2.8134 3.4485-4.4787 0.0367-0.27895-0.59741-0.32141-0.82284-0.50718-2.5017-1.1424-5.0221-2.2436-7.5364-3.3574-4.1455-2.0214-8.2964-4.0319-12.449-6.0395-0.43349-1.0095-0.86968-2.0189-1.373-2.9961-5.0718-2.9309-10.153-5.8531-15.366-8.5274-1.1834-0.5751-2.3535-1.2055-3.615-1.5954-0.4835-0.1294-0.9743 0.07164-1.4511 0.15125-1.0952 0.24645-2.1691 0.57498-3.2437 0.89734-3.2756-1.572-6.5492-3.1481-9.8301-4.709 1.0798-0.96953 2.1778-1.9195 3.2453-2.9023 1.5772-1.5535 2.1978-3.991 1.5436-6.1079-0.23258-0.79213-0.63441-1.5293-1.17-2.1561-1.4736-1.8696-4.1159-2.6987-6.3961-2.0147-0.9675 0.27508-1.8122 0.83568-2.7022 1.2864-0.86754 0.46357-1.7351 0.92714-2.6026 1.3907 0.22962-5.1648 0.46656-10.33 0.50695-15.501 0.0189-2.8872 0.0229-5.7821-0.24926-8.6592-0.0171-0.1629-0.0357-0.32564-0.0565-0.4881zm4.875 48.5c6.4825 3.1135 12.978 6.2011 19.454 9.3261 1.3089 0.65114 2.6447 1.2551 3.9122 1.9849 1.2808 0.90292 2.3227 2.1012 3.2763 3.3335 0.99217 1.3507 1.9328 2.823 2.2474 4.495 0.17327 0.89162-0.0153 1.9295-0.76662 2.5131-0.4512 0.38164-1.0251 0.58519-1.6128 0.60869-2.6937 0.23617-5.4009 0.20891-8.1014 0.30067-0.3037-6.3e-5 0.3592 0.10422 0.48666 0.15084 3.7067 0.88814 7.4405 1.6563 11.163 2.4741 0.36699 0.07962 0.73397 0.15924 1.101 0.23885-2.6995 1.2069-5.4071 2.3959-8.101 3.6152-1.6176 0.73942-3.1727 1.6541-4.9022 2.1155-1.0836 0.25747-2.2078 0.15089-3.311 0.14572-4.1827-0.11617-8.3634-0.43052-12.55-0.3315-1.4923 0.05943-2.9778 0.22467-4.4666 0.3375l-4.9372 0.41252c2.8501-2.4522 5.72-4.8815 8.5498-7.3572 1.7914-1.5746 3.5412-3.1984 5.1901-4.9226 0.12974-0.0497 0.20088-0.18672 0.28929-0.30976 0.15255-0.20737 0.29179-0.42559 0.455-0.62431 0.0413-0.30782-0.094-0.78654-0.18232-1.1523-0.71214-2.5791-1.6978-5.0731-2.7212-7.5421-1.1073-2.626-2.3485-5.1922-3.5342-7.783-0.31302-0.67649-0.62603-1.353-0.93905-2.0295zm66.279 54.229c-3.337 1.956-6.701 3.8654-10.049 5.8027 1.928-0.14047 3.8717-0.20993 5.771-0.5956 1.008-0.25128 1.9296-0.75317 2.8741-1.1723 2.1535-1.0154 4.284-2.0786 6.4311-3.1071-1.6755-0.31087-3.3515-0.6188-5.0273-0.92773zm-58.197 7.377c-0.18773 0.08364-0.43942 0.16808-0.41992 0.41797-0.0242 0.22933 0.21786 0.29839 0.36328 0.41406 0.18604 0.03851 0.35257-0.07945 0.39713-0.25819 0.13475-0.144 0.0366-0.29468-0.0681-0.42011-0.048-0.11534-0.15527-0.1494-0.27238-0.15373zm-132.08 0.60352c-0.47773-0.0158-0.79904 0.62173-0.46017 0.97901 0.27463 0.37811 0.91311 0.23797 1.0336-0.20318 0.12983-0.36741-0.19203-0.78-0.57344-0.77583z" stop-color="#000000" style="-inkscape-stroke:none;font-variation-settings:normal"/>
  <g stroke-dasharray="0.79375, 0.79375" stroke-width=".26458">
   <circle cx="57.622" cy="50.009" r="10.632"/>
   <circle cx="213.1" cy="35.672" r="10.632"/>
   <circle cx="118.06" cy="94.556" r="10.632"/>
  </g>
  <circle cx="126.87" cy="108.28" r="3.9377" stroke-dasharray="0.293981, 0.293981" stroke-width=".097994"/>
  <circle cx="218.19" cy="20.915" r="3.6752" stroke-dasharray="0.274383, 0.274383" stroke-width=".091461"/>
  <circle cx="48.523" cy="36.358" r="4.594" stroke-dasharray="0.342978, 0.342978" stroke-width=".11433"/>
 </g>
 <g id="U1_block" transform="translate(-46.051 -4.0053)" fill="#9ba2a3" type="layer">
  <path transform="translate(-3.5269 .37125)" d="m149.9 126.86c-1.3793-1.6649-40.66-72.382-40.609-77.86 0.051-5.4772 38.698-18.611 40.74-17.925 2.0429 0.68602 5.9425 25.197 5.6453 29.581-0.29722 4.3839-4.7963 9.7017-4.7494 13.722 0.0469 4.0203 6.3102 18.946 6.4736 18.81 0.16335-0.1355 6.5155-28.798 7.271-30.902s2.8197 1.8863 2.6725 5.0721c-0.1472 3.1859-4.8128 47.268-7.5856 50.919-2.7727 3.6512-8.4795 10.247-9.8588 8.5823z" stop-color="#000000" style="-inkscape-stroke:none;font-variation-settings:normal"/>
  <path d="m159.71 58.713c1.5502-6.7748 81.379-55.183 85.247-52.995 3.8681 2.1884-3.9406 91.238-5.5045 98.072-1.5638 6.8346-18.053 24.074-21.984 21.85-3.9309-2.224-59.308-60.153-57.758-66.927z" stop-color="#000000" style="-inkscape-stroke:none;font-variation-settings:normal"/>
  <path d="m246.93 86.029c-2.4104 1.0087-18.815 15.236-16.52 16.957 2.2952 1.7214 52.574 14.53 62.288 14.278 9.7141-0.2515 42.317-14.654 43.782-17.119 1.4649-2.4647-15.696-16.696-19.832-17.85-4.1361-1.154-35.59-1.0224-39.968-0.57956-4.3782 0.44282-9.858 4.0257-11.557 4.2514-1.6989 0.22573-15.783-0.94673-18.193 0.06201z" stop-color="#000000" style="-inkscape-stroke:none;font-variation-settings:normal"/>
  <g stroke-dasharray="0.506082, 0.506082" stroke-width=".16869">
   <circle cx="108.33" cy="41.223" r="8.8172"/>
   <circle cx="249.78" cy="36.725" r="8.8172"/>
   <circle cx="245.68" cy="111" r="8.8172"/>
  </g>
  <circle cx="255.98" cy="119.35" r="2.2275" stroke-dasharray="0.127852, 0.127852" stroke-width=".042617"/>
  <circle cx="257.45" cy="26.266" r="3.7125" stroke-dasharray="0.213087, 0.213087" stroke-width=".071029"/>
  <circle cx="259.35" cy="20.131" r="1.9491" stroke-dasharray="0.111871, 0.111871" stroke-width=".03729"/>
  <circle cx="137.91" cy="122.55" r="8.8172" stroke-dasharray="0.506082, 0.506082" stroke-width=".16869"/>
  <circle cx="123.9" cy="120.13" r="3.2484" stroke-dasharray="0.186451, 0.186451" stroke-width=".06215"/>
  <circle cx="117.46" cy="30.62" r="3.9909" stroke-dasharray="0.229069, 0.229069" stroke-width=".076356"/>
  <circle cx="124.08" cy="26.603" r="1.5778" stroke-dasharray="0.0905622, 0.0905622" stroke-width=".030187"/>
 </g>
 <g id="O_block" transform="translate(-46.051 -4.0053)" type="layer">
  <path transform="matrix(2.1376 0 0 2.1376 -.26587 -53.855)" d="m110.2 33.552c-1.9861-2.5446-19.681 10.428-21.179 11.779s-5.4396 7.7193-3.9036 11.454c1.536 3.7343 15.571 21.904 17.02 22.934 1.4493 1.0295 8.366-3.5659 8.8476-6.2334 0.48163-2.6675 1.2014-37.388-0.78471-39.932zm-10.782 13.934c1.0188 1.3125 1.4202 16.705 1.2062 18.123-0.21404 1.4181-3.311 3.5044-4.4008 2.7613-1.0898-0.74313-6.8181-8.3696-7.5143-10.096s0.50265-5.2751 1.5819-6.3598c1.0792-1.0848 8.1083-5.741 9.127-4.4285z" fill="#fff" stop-color="#000000" style="-inkscape-stroke:none;font-variation-settings:normal"/>
  <g fill="#f0f0f0">
   <path d="m192.87 40.484c-0.0123 0.02178 35.96-25.102 40.409-19.455 4.4494 5.6468 3.9751 75.822 3.9874 75.8 0.0123-0.02178 2.4698-74.62-1.7445-79.969s-42.64 23.602-42.652 23.624z" stop-color="#000000" style="-inkscape-stroke:none;font-variation-settings:normal"/>
   <path transform="translate(-.066861 -.07346)" d="m202.73 89.398c0.9648 1.1822 2.2567 2.7652 3.164 2.9855s2.8369-0.33871 4.765-1.5883c1.9281-1.2496 3.5486-3.1011 3.8511-4.7776 0.30247-1.6765 0.17202-14.877 0.17723-14.865 5e-3 0.01274 0.5925 14.904 0.43748 16.414-0.15503 1.5097-2.1528 5.5861-3.291 6.1884-1.1382 0.60229-5.215-0.21673-5.8595-0.57408-0.6445-0.35735-2.2417-2.4619-3.2444-3.783z" stop-color="#000000" style="-inkscape-stroke:none;font-variation-settings:normal"/>
   <path d="m213.28 51.409 22.113-10.465 0.0928 1.0209-22.105 10.302z" stop-color="#000000" style="-inkscape-stroke:none;font-variation-settings:normal"/>
   <circle cx="214.58" cy="49.223" r=".65628" stroke-dasharray="0.512097, 0.512097" stroke-width=".1707"/>
  </g>
 </g>
 <g id="O_b_block" type="layer">
  <path d="m191.79 56.872-23.278 14.199c0.14302 5.4806 0.15149 9.971-2e-3 10.988-0.45752 3.0312-7.0776 7.491-9.4072 5.9025-0.93773-0.63941-3.4906-3.6875-6.2932-7.3127l-4.1574 2.5358c9.6608 13.146 21.228 27.709 23.091 29.033 3.098 2.2006 17.883-7.6224 18.912-13.324 0.50814-2.8143 1.1348-22.333 1.1343-42.022z" fill="#e4e3e3" stop-color="#000000" style="-inkscape-stroke:none;font-variation-settings:normal"/>
 </g>
 <g id="M1_block" transform="translate(-46.051 -4.0053)" type="layer">
  <path transform="matrix(1.8311 0 0 1.8311 39.903 -26.442)" d="m46.25 43.372c0.1239 0.55486 14.45 33.707 15.09 34.902 0.63935 1.1953 2.5344-1.2571 2.7921-2.4719 0.25768-1.2148 3.4121-21.817 5.163-25.862 1.7509-4.0449 9.9839-14.238 15.497-21.063-0.52503-0.04375-1.4589-0.12158-1.9961 0.19295-0.53711 0.31453-8.242 5.4511-12.573 8.3387 0.06563 0.98442 0.15401 2.3101-0.32353 3.3939-0.47755 1.0837-3.2843 5.3708-3.9493 7.7094-0.665 2.3386-2.8187 15.951-3.5467 16.631-0.728 0.67937-3.8323-6.4513-4.2381-8.6055s0.52896-3.8369 1.2946-5.2151c-2.2314-4.069-4.4627-8.1379-6.6941-12.207-2.2751 1.2688-6.6386 3.7023-6.5147 4.2572z" stop-color="#000000" style="-inkscape-stroke:none;font-variation-settings:normal"/>
  <path d="m136.87 44.412 11.235 22.755 2.4069-3.5239-9.5222-20.743z" stop-color="#000000" style="-inkscape-stroke:none;font-variation-settings:normal"/>
  <path d="m141.75 42.585 7.6344 20.455 1.3573-1.5073-5.6139-18.689z" stop-color="#000000" style="-inkscape-stroke:none;font-variation-settings:normal"/>
  <path d="m164.13 40.455c0.92885 2.3499 2.2894 5.7919 2.1055 7.1833-0.18395 1.3914-2.5504 5.5635-4.1662 8.4121l0.18381-1.1069c1.1849-2.5357 3.0038-6.4284 2.9462-7.6104-0.0576-1.182-2.2583-5.0989-3.6916-7.65 0 0 2.6223 0.77187 2.6223 0.77187z" stop-color="#000000" style="-inkscape-stroke:none;font-variation-settings:normal"/>
  <path d="m163.28 53.265 1.8055 0.59785 0.12599-0.26747-1.7221-0.6525z" stop-color="#000000" style="-inkscape-stroke:none;font-variation-settings:normal"/>
  <path d="m165.35 44.508 3.3779-1.6428-0.10532 0.49225-3.1422 1.3527z" stop-color="#000000" style="-inkscape-stroke:none;font-variation-settings:normal"/>
  <path d="m165.66 45.041 3.2579-1.2415-0.0115 0.36391-3.2125 1.136z" stop-color="#000000" style="-inkscape-stroke:none;font-variation-settings:normal"/>
 </g>
 <g id="M1_b_block" type="layer">
  <path transform="translate(-46.051 -4.0053)" d="m158.74 71.606c-1.64 8.7981-3.7093 20.319-4.6121 21.162-1.1859 1.1067-5.795-9.0699-7.3256-14.115l-8.2057 7.1117c3.5907 8.3028 7.0688 16.31 9.6459 22.195l9.1524 3.7321c0.53108-2.8266 4.0857-25.721 7.1303-38.94z" fill="#302b2b" stop-color="#000000" style="-inkscape-stroke:none;font-variation-settings:normal"/>
 </g>
 <g id="M3_block" transform="translate(-46.051 -4.0053)" type="layer">
  <path transform="matrix(1.7905 .38339 -.38339 1.7905 94.475 -91.939)" d="m75.329 37.455c-6.8565 13.069-17.838 34.002-18.156 37.998-0.31813 3.9959 11.557 19.783 12.971 20.756s6.2862-1.2139 9.5931-0.56608c3.3069 0.64781 8.7188 4.6255 10.073 5.2386 1.3538 0.61309 4.943 0.6968 7.2743 0.75117-10.926-8.5013-27.538-21.427-29.331-25.571s3.4501-17.493 6.8982-26.273c-0.30404-1.1199-0.69243-2.5505-0.40596-3.7811 0.28648-1.2306 2.1922-5.2023 2.3354-6.0103s-0.68429-1.8372-1.2511-2.5422z" stop-color="#000000" style="-inkscape-stroke:none;font-variation-settings:normal"/>
  <path transform="matrix(1.8311 0 0 1.8311 39.903 -26.442)" d="m27.937 71.93c0.68062-1.5469 1.8865-4.2875 2.8381-4.5153 0.95157-0.22774 19.012-1.2859 19.99-2.1061 0.97725-0.82022-5.9519-9.1676-6.2566-9.4928-0.30464-0.3252 0.03958 1.1264-0.10648 0.93747-0.14606-0.18897-7.3975-10.285-11.174-15.544 4.4747 4.5663 13.113 13.382 13.254 13.534 0.14008 0.15236-1.0809-0.33778-0.88754-0.05358s7.9094 10.483 6.716 11.687-15.418 3.873-24.372 5.5534z" stop-color="#000000" style="-inkscape-stroke:none;font-variation-settings:normal"/>
  <path d="m127.17 79.607 6.2032-6.7981 0.33991 0.76478-6.2882 6.883z" stop-color="#000000" style="-inkscape-stroke:none;font-variation-settings:normal"/>
  <path d="m193.71 52.074c-2.8245 5.7949-6.991 14.343-5.4473 18.734 1.5437 4.3906 14.386 20.52 23.092 31.455l-0.69029-1.8439c-7.6085-10.256-17.821-24.021-19.674-29.243s0.79417-12.768 2.7669-18.391c0 0-0.0469-0.71174-0.0469-0.71174z" stop-color="#000000" style="-inkscape-stroke:none;font-variation-settings:normal"/>
  <path d="m189.35 56.901 0.28713 0.15587 1.7297 0.91918-0.19111 0.21047-1.9512-1.0558z" stop-color="#000000" style="-inkscape-stroke:none;font-variation-settings:normal"/>
  <path d="m189.08 57.574 0.28712 0.15587 1.7297 0.91918-0.19111 0.21047-1.9512-1.0558z" stop-color="#000000" style="-inkscape-stroke:none;font-variation-settings:normal"/>
  <path d="m206.24 95.188-0.20561 0.16407-1.6684 1.7649 0.25367 0.25162 1.6904-1.793z" stop-color="#000000" style="-inkscape-stroke:none;font-variation-settings:normal"/>
  <path d="m126.67 84.637c1.5585 2.3955 4.0132 6.1685 3.2691 6.7847-0.74411 0.61614-8.7121 1.4097-13.771 1.9136l0.63899-0.53294c4.1386-0.71567 10.208-1.7652 11.058-2.4576 0.8505-0.69238-0.54339-3.45-1.4938-5.3303 0 0 0.29892-0.37741 0.29892-0.37741z" stop-color="#000000" style="-inkscape-stroke:none;font-variation-settings:normal"/>
  <path d="m127.2 85.719 1.3936-1.1775 0.12075 0.11701-1.3755 1.2338z" stop-color="#000000" style="-inkscape-stroke:none;font-variation-settings:normal"/>
  <path d="m127.56 86.158 0.0237-0.03797 1.3988-1.1219-0.0189 0.16068-1.3543 1.0515z" stop-color="#000000" style="-inkscape-stroke:none;font-variation-settings:normal"/>
  <path d="m118.79 92.962-0.0146 0.08639-0.33628 2.3069 0.12863-0.0066 0.42344-2.3811z" stop-color="#000000" style="-inkscape-stroke:none;font-variation-settings:normal"/>
 </g>
 <g id="M3_b_block" type="layer">
  <path transform="matrix(1.7905 .38339 -.38339 1.7905 48.564 -95.874)" d="m57.99 78.661c3.149 6.1694 11.065 16.798 12.154 17.547 1.4138 0.97259 6.2861-1.2141 9.593-0.56626 3.3069 0.64781 8.7187 4.6255 10.073 5.2386 1.3538 0.6131 4.9429 0.69696 7.2742 0.75133-8.6964-6.7666-18.345-13.72-23.906-19.433z" fill="#241f1f" stop-color="#000000" style="-inkscape-stroke:none;font-variation-settings:normal"/>
 </g>
 <g id="M4_block" transform="translate(-46.051 -4.0053)" fill="#393939" type="layer">
  <path transform="translate(-5.2969 .94678)" d="m189.29 38.045c-0.44546 0.43802-18.102 21.528-18.859 28.346-0.75706 6.817 11.056 32.616 11.673 33.677 0.61702 1.0612 2.2963-2.1399 2.0945-4.5575-0.20183-2.4176-3.6061-23.803-2.9387-29.494s8.5961-22.149 9.223-23.868c0.62697-1.7197-0.74667-4.5411-1.1921-4.103z" stop-color="#000000" style="-inkscape-stroke:none;font-variation-settings:normal"/>
  <path d="m125.24 57.077c0.5619 1.611 13.772 33.151 15.189 35.581s3.4412-3.5877 3.4116-4.0057c-0.0295-0.41805-4.925-31.88-5.5482-33.169-0.6232-1.2881-10.641-2.9532-11.467-2.8718-0.82523 0.08136-2.1473 2.8542-1.5854 4.4652z" stop-color="#000000" style="-inkscape-stroke:none;font-variation-settings:normal"/>
 </g>
 <g id="M4_b_block" type="layer">
  <path d="m120.89 72.712c1.6589 5.2555 4.0972 11.341 6.1614 16.179l5.6053 2.2417c-0.40106-3.0489-1.4303-10.056-2.143-16.55z" fill="#312929" stop-color="#000000" style="-inkscape-stroke:none;font-variation-settings:normal"/>
 </g>
 <g id="Mstone_1_block" type="layer">
  <path transform="matrix(1.3433 0 0 1.3433 -32.814 -25.903)" d="m91.666 79.903c-0.15727-0.5862 0.88356-3.2109 1.3878-3.4115 0.5042-0.2006 3.6105 0.73128 4.1154 1.1633 0.50489 0.43202 1.7369 3.2611 1.5595 3.7501s-3.2816 2.4291-3.7338 2.3349c-0.45222-0.09421-3.1716-3.2506-3.3288-3.8368z" stop-color="#000000" style="-inkscape-stroke:none;font-variation-settings:normal"/>
  <path transform="matrix(1.3433 0 0 1.3433 -33.063 -25.28)" d="m93.746 75.434c0.21665 0.35718 2.3674 1.0595 2.8185 0.99931 0.45112-0.06015 2.3935-1.3866 2.4428-1.7117 0.04937-0.32504-1.3111-2.7176-1.7201-2.8906s-2.6802 0.66127-2.9483 0.93817c-0.2681 0.27689-0.80963 2.3076-0.59298 2.6648z" stop-color="#000000" style="-inkscape-stroke:none;font-variation-settings:normal"/>
  <path transform="matrix(1.3433 0 0 1.3433 -33.967 -25.592)" d="m98.07 76.451c0.25397-0.35132 4.0886-2.7783 4.6577-2.7524s3.1363 2.7383 3.2348 3.1967c0.0985 0.4584-1.2901 2.819-1.8988 2.9645-0.60868 0.14544-4.3636-0.94033-4.854-1.2144s-1.3938-1.8431-1.1398-2.1944z" stop-color="#000000" style="-inkscape-stroke:none;font-variation-settings:normal"/>
 </g>
 <g id="M2_block" transform="translate(-46.051 -4.0053)" type="layer">
  <path transform="matrix(1.2895 1.3001 -1.3001 1.2895 143.92 -52.956)" d="m26.016 101.08c10.425-14.457 27.64-38.329 28.597-41.037 0.95717-2.707-11.205-5.3379-11.7-5.5443-0.49537-0.20641-1.1439-2.2694-1.5017-3.4074 7.2802 2.7203 19.45 7.2678 19.626 9.5431 0.17558 2.2753-14.412 28.438-15.654 30.276-1.2426 1.8385-4.2259 2.3357-5.1798 2.892-0.95387 0.55626-3.3768 3.0627-4.7069 3.7835-1.33 0.72085-6.134 2.3553-9.4794 3.4936z" fill="#fff" stop-color="#000000" style="-inkscape-stroke:none;font-variation-settings:normal"/>
  <path d="m131.15 66.8c-0.0395 0.07497-0.0936 0.18099-0.13539 0.26045 4.9334 12.38 13.029 32.753 10.345 35.803-2.7012 3.0709-52.909 17.989-56.776 18.814-3.8676 0.82523-9.0446-1.6667-11.225-2.1482-2.1806-0.48146-9.1653-0.83673-11.913-1.6568-2.4588-0.73366-9.2663-3.8816-14.846-6.4833 5.7793 2.8742 13.866 6.8882 16.477 7.6755 2.6522 0.79958 9.0353 0.71744 10.988 1.2402 1.9532 0.52279 6.4467 3.7603 10.439 3.005 3.9925-0.7553 56.816-15.527 59.547-18.689 2.7316-3.1623-7.0497-24.848-12.901-37.821z" fill="#f0f0f0" stop-color="#000000" style="-inkscape-stroke:none;font-variation-settings:normal"/>
  <path transform="matrix(-1.8311 0 0 1.8311 267.8 -28.037)" d="m52.588 46.496c1.2601 2.0238 2.9673 4.7658 3.0914 6.4003 0.12406 1.6346-1.7317 8.0855-2.1833 8.681s-5.6831 4.1622-7.8142 5.8477c-2.1311 1.6855-3.4289 3.0355-4.7267 4.3855 5.9166-1.1815 15.702-3.1356 16.687-4.2053s0.48784-12.17 0.09869-13.73c-0.38915-1.5594-3.7962-6.3158-4.1569-6.7644-0.36073-0.44858-0.75195-0.55115-0.99608-0.61516z" fill="#fff" stop-color="#000000" style="-inkscape-stroke:none;font-variation-settings:normal"/>
  <path d="m171.56 57.025c-0.10037 0.02632-0.21825 0.05889-0.3421 0.0987-2.4968 3.8518-5.193 8.7526-5.7423 11.907-0.56647 3.2526 2.5705 15.064 3.3719 16.155 0.80135 1.0905 9.1101 6.4638 13.569 9.2253 4.3257 2.6788 7.4827 6.5655 10.27 8.9338 0.0523 0.0104 0.12264 0.0247 0.17467 0.0351-2.3765-2.472-4.753-4.9437-8.6553-8.03-3.9023-3.0863-13.482-9.6174-14.309-10.708s-4.2248-12.903-3.9977-15.896c0.22716-2.9931 3.3533-8.0143 5.6606-11.72z" fill="#f0f0f0" stop-color="#000000" style="-inkscape-stroke:none;font-variation-settings:normal"/>
 </g>
 <g id="sign" type="layer">
  <path d="m40.241 94.197c-1.2946 0.17365-4.8485 1.4173-6.58 2.1303a2.4708 3.3859 33.469 0 0-2.6455 0.40863c0.20812-0.31195 0.3146-0.54021 0.25743-0.62772-0.29707-0.45473-6.1103 1.6828-6.8641 2.1716-0.75377 0.48883-1.0933 2.7591-0.84194 2.7241 0.25139-0.035 4.3504-2.4488 4.0758-1.866-0.27451 0.58279-4.4969 4.5705-4.3669 4.9744 0.10542 0.32755 4.5751-1.5574 6.4405-2.3973a2.4708 3.3859 33.469 0 0 0.38998 0.35802 2.4708 3.3859 33.469 0 0 3.3697-0.77256c-0.36626 0.42082-0.59243 0.72892-0.55485 0.81896 0.1125 0.26951 3.8684-1.3754 6.0051-2.3614 0.20917 0.2909 0.51712 0.60398 0.91363 0.82314 0.89179 0.49291 2.4803 0.64237 3.3507 0.19198 0.87034-0.45039 1.7134-2.1883 1.73-2.6913 0.01659-0.50306-0.80916-1.3526-1.2512-1.5572-0.44204-0.20459-1.5722-0.24724-1.8825-0.24935-0.31029-0.0021-0.8307 0.01872-0.91358-0.01119-0.08289-0.02991 0.44062-0.13812 0.47669-0.14109 0.03608-3e-3 2.2056-0.08664 2.4649-0.23836 0.25938-0.15172 0.61538-1.5229 0.54996-1.5435-0.06542-0.0206-3.4647 0.4334-3.8738 0.6461-0.04003 0.02082-0.08885 0.0608-0.14141 0.10928 0.31207-0.45097 0.47075-0.78267 0.34826-0.87895-0.0617-0.0485-0.22212-0.05218-0.45694-0.02068zm-16.654 2.6579c-0.22728 0.04061-0.7897 0.37989-0.94317 0.65866-0.20463 0.37169-2.8818 6.4611-2.974 6.6931-0.09225 0.23201 0.24743 0.047 0.3785-0.19112 0.13107-0.23807 3.5215-6.8239 3.6267-7.0883 0.02629-0.06612-0.0122-0.08581-0.08796-0.07227zm-10.793 1.5686a2.4708 3.3859 2.7098 0 0-2.1278 2.2088c-0.1351-0.83348-0.25175-1.4972-0.28568-1.5676-0.1007-0.20873-1.4229 0.30506-1.5838 0.46793-0.16084 0.16288-0.4518 1.0311-0.49694 1.0479-0.045138 0.0167 0.086713-0.77444-0.052871-0.82712-0.13959-0.0526-1.5938 0.53886-1.9957 1.0047-0.40193 0.46584-3.8389 5.6456-4.0356 5.9422-0.19678 0.29656-0.19685 0.29656-0.041555 0.2588 0.1553-0.0378 2.9323-0.71295 3.1862-0.95303 0.25394-0.24008 0.98847-2.3075 1.1078-2.5614 0.1193-0.25386-0.25285 1.1199-0.23432 1.1376 0.01853 0.0176 2.3458-0.3109 2.3712-0.33393 0.025417-0.023 0.10456-1.3448 0.11972-1.1378 0.015158 0.20706 0.00442 2.1639 0.14007 2.3008 0.13567 0.13691 2.3211-0.43243 2.3745-0.64858 0.0091-0.0369-0.01324-0.25652-0.04676-0.53822a2.4708 3.3859 2.7098 0 0 1.6049 0.94943 2.4708 3.3859 2.7098 0 0 2.1621-1.489c-0.11586 0.53095-0.2032 0.90599-0.09443 0.97305 0.24628 0.15182 4.0629-1.4143 4.5541-1.7504 0.4912-0.33613 1.1308-1.8537 1.0205-1.98-0.11029-0.12625-1.7067-0.14846-1.7701-0.16334-0.06346-0.0149 1.3021-0.051 1.3605-0.14518 0.05841-0.0942-0.81365-1.2124-1.4735-1.4781-0.63922-0.25737-3.9507-0.89441-4.3195-0.83199-0.01188 2e-3 -0.02084 0.0046-0.02642 0.0082-0.09359 0.05873 0.14271 0.37684 0.41121 0.9048a2.4708 3.3859 2.7098 0 0-1.5043-0.81223 2.4708 3.3859 2.7098 0 0-0.32348 0.01364zm3.6166 0.99149c0.13425-0.0124 1.4754 0.2975 1.6554 0.3765 0.18583 0.0816 0.56754 0.52298 0.47995 0.57778-0.0876 0.0548-1.1819 0.0899-1.406-9e-3 -0.22406-0.0983-0.79414-0.90898-0.73849-0.9438 0.0017-9.6e-4 0.0047-2e-3 0.0091-2e-3zm23.069-3.1966c-0.29693 0.44787-0.53266 0.85724-0.51268 0.90364 0.04367 0.10136 1.6013-0.06495 2.1077 0.04471 0.50638 0.10965 1.0995 0.58624 1.2161 0.97493 0.11654 0.38868-0.12565 1.0892-0.43992 1.3641-0.31427 0.27488-1.0132 0.46284-1.6937 0.23331-0.20061-0.0676-0.40281-0.17059-0.59402-0.27836 0.42372-0.20025 0.75411-0.36043 0.80994-0.39781 0.3038-0.20345-0.81548-1.0283-1.2149-0.92968-0.39946 0.09857-2.6866 1.6026-2.3576 1.1402 0.18835-0.26478 1.5988-1.7553 2.6792-3.055zm-2.0598 0.76561c0.0843-0.0134 0.10323 0.02201 0.03126 0.12436-0.31996 0.45497-2.4525 2.516-3.675 3.8571a2.4708 3.3859 33.469 0 0 0.25938-0.35427 2.4708 3.3859 33.469 0 0 0.71926-2.2166c0.76633-0.41682 2.3046-1.3533 2.6651-1.4106zm-7.8764 1.5876a2.4708 3.3859 33.469 0 0-0.34654 1.6841c-0.73582 0.3727-2.2941 1.3635-2.0179 0.97515 0.16898-0.23756 1.322-1.4622 2.3644-2.6592zm1.4873-0.12477a0.88883 1.218 33.469 0 1 0.60886 0.08409 0.88883 1.218 33.469 0 1 0.06964 1.5061 0.88883 1.218 33.469 0 1-1.4131 0.52605 0.88883 1.218 33.469 0 1-0.06969-1.5064 0.88883 1.218 33.469 0 1 0.80428-0.60983zm-18.927 2.9206a0.88883 1.218 2.7098 0 1 0.19909-0.0211 0.88883 1.218 2.7098 0 1 0.83016 1.2587 0.88883 1.218 2.7098 0 1-0.94543 1.1748 0.88883 1.218 2.7098 0 1-0.83017-1.2587 0.88883 1.218 2.7098 0 1 0.74634-1.1536zm5.1951-0.16597c0.36958-0.0415 1.5696 0.14971 1.644 0.19007 0.08202 0.0446-0.03822 0.50356-0.29886 0.64182-0.26063 0.13826-1.8831 0.63882-2.0202 0.56438-0.13709-0.0744 0.3941-1.2721 0.5892-1.3756 0.01828-0.01 0.04767-0.0164 0.0859-0.0207z" stop-color="#000000" style="-inkscape-stroke:none;font-variation-settings:normal"/>
 </g>
 <g id="B1_block" transform="translate(-46.051 -4.0053)" type="layer">
  <path transform="matrix(1.8311 0 0 1.8311 43.431 -19.756)" d="m107.6 32.313c1.4821 0.45137 36.091 15.217 37.424 16.004 1.3331 0.78729-1.9047 4.3854-2.4 4.7113-0.49529 0.32586-6.3822 2.7558-7.5816 2.8038-1.1994 0.04804-18.943-1.5788-19.295-1.634-0.3515-0.05524 0.2755-1.0187 1.1758-1.1203 0.90027-0.1016 8.8412-0.13863 9.1144-0.2464 0.2732-0.10777-1.4586-2.8063-2.4296-3.3665-0.971-0.56021-17.016-8.1349-17.883-8.6872s-3.8899-4.8891-3.7816-5.6354 4.1745-3.2808 5.6566-2.8294z" fill="#fff" stop-color="#000000" style="-inkscape-stroke:none;font-variation-settings:normal"/>
  <g>
   <path d="m225.23 108.41c2.8616-1.828 38.307-24.47 40.079-28.324 1.7726-3.8535-13.866-24.711-15.811-26.501-1.9446-1.7908-9.1516-3.7346-13.869-7.4478-4.7169-3.7133-12.986-14.053-13.834-14.906-0.84716-0.85301-2.7475 0.26435-2.0282 1.5359s23.348 37.111 24.061 42.115-14.236 17.8-15.109 18.757c-0.87364 0.95619-0.90198 4.1677-1.7383 5.689-0.83637 1.5214-4.8336 6.067-5.3234 7.0826-0.48975 1.0156 0.22232 2.6846 0.71011 3.828h1e-5s-1e-5 0 2.8616-1.828z" stop-color="#000000" style="-inkscape-stroke:none;font-variation-settings:normal"/>
   <path d="m233.34 58.477c2.5608 5.6392 6.7963 14.966 6.698 16.609-0.0983 1.6428-5.2726 8.0175-8.4011 11.872l0.18715-1.0475c2.4814-3.5473 6.515-9.3136 6.6033-10.976 0.0883-1.6628-3.1799-10.336-5.1902-15.671l0.10293-0.78562z" stop-color="#000000" style="-inkscape-stroke:none;font-variation-settings:normal"/>
   <path d="m235.44 64.027 2.8038-1.6171 0.27972 0.25104-2.8141 1.7291z" stop-color="#000000" style="-inkscape-stroke:none;font-variation-settings:normal"/>
   <path d="m236.21 65.043 2.4454-1.4611 0.0552 0.18866-2.4444 1.56z" stop-color="#000000" style="-inkscape-stroke:none;font-variation-settings:normal"/>
   <path d="m233.73 84.283 2.4844 3.1217-0.15997-0.79856-2.0945-2.8823z" stop-color="#000000" style="-inkscape-stroke:none;font-variation-settings:normal"/>
   <path d="m224.26 19.907c3.8981-1.5508 9.7747-3.8886 10.845-2.9305 1.0699 0.95811 1.7438 9.1604 2.1909 14.602 0 0 0.5463-0.78792 0.5463-0.78792-0.10676-6.1685-0.30045-17.359-0.71218-17.723s-8.2605 3.7278-12.587 5.9829c0 0-0.28289 0.85688-0.28289 0.85688z" stop-color="#000000" style="-inkscape-stroke:none;font-variation-settings:normal"/>
   <path d="m237.5 25.723-0.41077 0.17511-11.381 10.906 0.58841 0.21136 11-10.483z" stop-color="#000000" style="-inkscape-stroke:none;font-variation-settings:normal"/>
  </g>
 </g>
 <g id="B3_block" transform="translate(-46.051 -4.0053)" type="layer">
  <path d="m261.49 79.875c16.916 1.1566 45.667 3.1223 49.073 4.1512 3.4056 1.029 16.352 13.836 15.002 16.786-1.3496 2.9496-28.368 20.014-32.205 20.255-3.8373 0.24178-54.064-14.56-54.657-14.803s-3.2878-6.6144-2.4652-8.1377c0.82266-1.5233 10.645-9.9926 13.429-10.678s22.709 0.96251 24.135 0.90645 4.6649-2.8734 4.3362-3.0673c-0.32867-0.19389-10.588-2.4686-12.874-3.1881-2.286-0.71949-3.0983-1.5414-3.7736-2.2246z" fill="#fff" stop-color="#000000" style="-inkscape-stroke:none;font-variation-settings:normal"/>
 </g>
 <g id="Bstone_1_block" type="layer">
  <path d="m245.4 93.364c-0.56237 0.28408-0.56237 0.28408-0.60692 0.25067-0.0445-0.03341-3.7159-2.7869-3.564-3.5683 0.15193-0.78134 4.4308-5.2462 5.6148-5.7443 1.184-0.4981 5.982 0.19635 6.4893 0.59017 0.50729 0.39382 0.50729 3.4228-0.28608 4.2162-0.79338 0.79337-7.0847 3.9715-7.6471 4.2556z" stop-color="#000000" style="-inkscape-stroke:none;font-variation-settings:normal"/>
  <path d="m254.83 84.931c-0.40275 0.43067-0.30183 3.2566-0.0408 3.611 0.26099 0.35438 3.8538 2.5237 4.518 2.5932 0.66413 0.0695 2.8353-1.4438 2.8209-1.9414-0.0145-0.49767-2.393-4.7188-3.0159-5.0818-0.62287-0.36305-3.8794 0.38845-4.2821 0.81912z" stop-color="#000000" style="-inkscape-stroke:none;font-variation-settings:normal"/>
  <path d="m250.2 83.429c0.52432 0.2355 3.1632 0.68531 3.6415 0.69284 0.4783 0.0075 1.5962-0.36511 1.8872-0.63055 0.29097-0.26544 0.85396-1.4853 0.67933-1.6722-0.17464-0.18694-3.346-1.5054-3.8582-1.5083-0.51218-0.0029-3.2904 1.16-3.5213 1.4652-0.23094 0.30517 0.6472 1.4175 1.1715 1.653z" stop-color="#000000" style="-inkscape-stroke:none;font-variation-settings:normal"/>
  <path d="m257.05 83.023c-0.2596-0.09652 0.53336-1.9468 0.90574-2.1346s3.2366-0.18787 3.5008-0.08963c0.2642 0.09823-0.0308 1.0488-0.41115 1.2407-0.38033 0.19188-3.7358 1.0801-3.9954 0.98357z" stop-color="#000000" style="-inkscape-stroke:none;font-variation-settings:normal"/>
 </g>
 <g id="B5_block" type="layer">
  <path transform="translate(-42.524 -5.8616)" d="m232.55 44.419c0.9099-1.2298 6.9211-4.9695 8.7644-4.3306s58.254 27.885 59.576 28.665c1.3223 0.78001-0.12298 5.0421-2.5303 5.8497-2.4074 0.80763-18.855 2.8925-20.259 2.5776-1.4035-0.31488-2.2739-6.9756-4.5882-8.5251-2.3143-1.5495-36.414-18.163-38.545-19.342s-3.3288-3.6647-2.4189-4.8945z" stop-color="#000000" style="-inkscape-stroke:none;font-variation-settings:normal"/>
  <path d="m219.68 60.075c3.2437 2.1056 8.0603 5.2323 9.0595 6.4986 0.9992 1.2663 1.9435 5.4387 2.5796 8.249l-1.4-0.68975c-0.4292-2.4418-1.0684-6.0781-1.9354-7.2286-0.86706-1.1505-5.286-4.2239-8.2529-6.2874 0 0-0.0507-0.54183-0.0507-0.54183z" stop-color="#000000" style="-inkscape-stroke:none;font-variation-settings:normal"/>
  <path d="m220.72 60.869 0.032-3.6595 0.35494 0.20022-0.0595 3.6752z" stop-color="#000000" style="-inkscape-stroke:none;font-variation-settings:normal"/>
  <path d="m221.67 57.786-0.16106 3.614 0.30106 0.11498 0.11955-3.6278z" stop-color="#000000" style="-inkscape-stroke:none;font-variation-settings:normal"/>
  <path d="m229.47 68.814 4.2349-2.0208-0.0331 0.41847-4.0907 1.9304z" stop-color="#000000" style="-inkscape-stroke:none;font-variation-settings:normal"/>
  <path d="m215.36 40.737 42.563 18.561-1.8211-2.0915-39.987-16.666z" stop-color="#000000" style="-inkscape-stroke:none;font-variation-settings:normal"/>
  <path d="m218.51 41.947-0.81954 1.6782 0.30282 0.09064 0.71911-1.6875z" stop-color="#000000" style="-inkscape-stroke:none;font-variation-settings:normal"/>
  <path d="m251.55 56.333-0.44966 3.5168 0.54389-0.1756 0.24835-3.278z" stop-color="#000000" style="-inkscape-stroke:none;font-variation-settings:normal"/>
 </g>
 <g id="B4_block" transform="translate(-46.051 -4.0053)" type="layer">
  <path transform="translate(.26251 2.3626)" d="m252.15 91.681c2.4942-0.69037 16.924 0.86532 20.279 0.27761 3.3553-0.58771 6.8458-5.2161 9.9704-4.5504 3.1246 0.66568 30.331 12.353 31.658 15.924 1.3268 3.5701-14.325 18.39-22.141 18.774-7.8163 0.3846-51.921-14.284-53.434-14.847s-2.8368-2.8898-1.7478-4.0881c1.089-1.1982 12.922-10.8 15.416-11.49z" stop-color="#000000" style="-inkscape-stroke:none;font-variation-settings:normal"/>
  <path d="m303.16 96.437 0.8688 0.49939c5.3656 2.9261 13.697 7.47 13.821 9.1879s-7.3477 9.105-12.159 13.862l0.46042 0.0326c5.2207-4.9277 13.385-12.634 13.223-14.344-0.16225-1.7108-9.4913-6.2724-15.457-9.1893l-0.75727-0.04848z" stop-color="#000000" style="-inkscape-stroke:none;font-variation-settings:normal"/>
  <path d="m306.31 97.954-1.5004 1.8316 0.36636-0.08665 1.5486-1.677z" stop-color="#000000" style="-inkscape-stroke:none;font-variation-settings:normal"/>
  <path d="m306.87 115.79 0.17279 0.0947 1.9268 1.0661-0.31301 0.16741-1.9773-1.0736z" stop-color="#000000" style="-inkscape-stroke:none;font-variation-settings:normal"/>
 </g>
</svg>
