<?xml version="1.0" encoding="UTF-8"?>
<!-- Created with Inkscape (http://www.inkscape.org/) -->
<svg width="1400.2" height="559.03" version="1.1" viewBox="0 0 370.48 147.91" xmlns="http://www.w3.org/2000/svg">
 <g id="letter_b_star" transform="translate(0 -.8536)" type="layer">
  <path transform="matrix(.39565 -.044277 .044277 .39565 46.765 -36.066)" d="m388.11 140.03 33.791 22.563 37.743-15.045-11.017 39.109 25.972 31.247-40.599 1.6077-21.692 34.356-14.075-38.116-39.378-10.014 31.901-25.164z"/>
 </g>
 <g id="letter_b_shadow" type="layer">
  <path d="m193.46 3.7216 2.9259 7.5825-5.7676-5.0684-0.3762 6.8766 30.18 55.105-1.1922 6.4001 11.284 60.872 10.909-18.94 7.6114 3.6251c21.096-12.357 60.044-35.171 61.831-37.058 1.7878-1.8872 7.418-33.725 6.011-34.955-1.407-1.23-26.471 1.7151-40.662 3.3827 1.9893-1.9395 5.9678-5.8183 4.6436-6.3903-1.3242-0.57201-37.488-16.194-42.27-17.466-2.6359-0.70108-6.2994-0.85492-9.7973-1.3627-0.12594-0.019-0.2466-0.0366-0.37156-0.0553-2.7125-0.4158-5.2996-1.0651-7.1959-2.3771-4.4191-3.0574-2.2591-9.1209-2.8944-9.8495-0.63529-0.72864-16.268-6.9171-24.869-10.322z"/>
 </g>
 <g id="letter_b" transform="translate(-58.194 -25.782)" type="layer">
  <g transform="translate(3.1505 -1.8705)" fill="#fff">
   <path transform="matrix(.26458 0 0 .26458 55.043 27.652)" d="m743.84 25.717c2.3087 12.569 4.6481 24.621 7.8613 36.328l-24.955-27.211-0.95508 17.615 115.94 205.66-4.6465 27.158 36.527 197.8 100.92-178.06-39.432-42.994c22.744 1.4953 47.226 3.121 61.85 3.9961 20.774 1.2432 37.174 1.9848 33.119 8.0762-4.0551 6.0914-29.293 20.563-52.055 33.615l-65.549 125.11 30.699 15.885c1.402-0.8017 3.3404-1.9174 4.7793-2.7402 10.137-32.801 38.369-121.75 37.826-116.21-0.5216 5.331-24.293 80.997-32.811 112.41 77.959-44.592 201.37-114.49 211.66-125.36 10.852-11.465 29.606-124.81 23.732-129.14-5.8741-4.3287-156.33 14.668-161.03 14.648-4.7057-0.0192 25.706-18.284 17.803-24.416s-135.11-63.263-143.79-66.156-53.866-6.873-66.102-15.615c-12.235-8.7423-12.05-24.66-11.865-40.275zm99.186 135.9c35.806 17.875 73.616 30.713 84.66 39.568 12.686 10.172-5.2466 24.53-17.059 34.145z" fill="#fff"/>
  </g>
 </g>
 <g id="letter_b_over" transform="translate(0 -.8536)" type="layer">
  <path transform="matrix(.26458 0 0 .26458 0 .8536)" d="m924.9 107.96-20.488 8.5371 96.506 46.814-31.322 28.713 162.91 88.355-45.258 48.854 1.5214 14.396-6.6191 6.0977 2.2227 10.75-14.811 2.2266-11.387 8.168-187.26-58.723-2.6016-22.445 6.9707-15.107-26.623-36.826-8.3711 47.355 34.994 187.86 11.938-20.209-11.705-100.96 44.969 0.72461 10.258-15.143 123.67 36.176-50.312 36.094-12.16 23.393 55.623-33.016 31.894 6.8418 4.6504-1.75-29.961-9 3.3672-1.998 32.172 9.3945 6.8339-1.666-31.392-12.248 2.2617-1.3418 41.961 16.465 108.08-54.604 2.5234-10.037-52.213 7.8477 37.037-12.674-22.357-121.25-19.418-6.5156-12.811 79.525-0.1523 0.14062-167.42-92.752 28.176-26.32 11.951 5.7988 19.494-14.797-10.158-28.488zm210.45 173.96 12.834 6.9609-55.311 50.963-0.6269-11.797zm-263.51 38.246 55.574 16.256-6.5527 9.9688-46.08-0.85351z" fill="#5e929f"/>
 </g>
 <g id="letter_b_outline" transform="translate(-58.194 -25.782)" type="layer">
  <path transform="matrix(.26458 0 0 .26458 58.194 25.782)" d="m732.2 15.035 11.059 28.658-21.799-19.156-1.4219 25.99 114.07 208.27-4.5059 24.189 42.648 230.07 41.23-71.584 28.768 13.701c79.733-46.704 226.94-132.93 233.69-140.06 6.757-7.1326 28.036-127.47 22.719-132.12s-100.05 6.4823-153.68 12.785c7.5186-7.3304 22.556-21.99 17.551-24.152s-141.69-61.205-159.76-66.012c-18.071-4.8065-48.929-2.7882-65.631-14.344-16.702-11.556-8.5384-34.473-10.939-37.227-2.4011-2.7539-61.487-26.143-93.994-39.012zm11.754 10.486 79.533 30.135c-0.18482 15.616-0.37 31.533 11.865 40.275 12.235 8.7422 57.424 12.722 66.102 15.615 1.5828 0.52763 7.9743 3.264 16 6.7617l-39.436 59.107c-11.186-4.8268-23.102-10.111-34.879-15.99l67.602 73.713c11.812-9.615 29.744-23.973 17.059-34.145-7.0998-5.6929-25.302-13.058-46.881-22.322l39.334-59.143c37.483 16.412 118.69 53.289 124.99 58.174 7.903 6.132-22.509 24.397-17.803 24.416 2.4776 0.0102 45.25-5.2175 86.16-9.5703l0.053 156.84c-45.517 27.045-111.9 64.745-160.58 92.588 8.518-31.413 32.289-107.08 32.811-112.41 0.54277-5.5457-27.69 83.406-37.826 116.21-1.4389 0.82284-3.3773 1.9385-4.7793 2.7402l-30.7-15.885 65.549-125.11c22.762-13.052 48-27.524 52.055-33.615 4.055-6.0914-12.346-6.833-33.119-8.0762-14.623-0.87511-39.106-2.5008-61.85-3.9961l39.432 42.994-22.432 39.576-110.06-32.5-4.9531-26.818 4.6465-27.158-115.94-205.66 0.95508-17.615 24.955 27.211c-3.2132-11.707-5.5527-23.759-7.8613-36.328zm439.29 161.31c2.8529 0.0307 4.6739 0.23091 5.2246 0.63672 5.874 4.3287-12.88 117.68-23.732 129.14-3.7381 3.9492-22.496 15.735-48.473 31.211l-0.6504-155.48c28.766-3.044 56.343-5.6273 67.631-5.5059zm-340.62 127.64 108.27 32.246-77.172 136.15z"/>
  <path transform="matrix(.26458 0 0 .26458 58.194 25.782)" d="m1092.9 365.19-3.2851 1.209s-56.756 75.383-55.484 64.68c1.2716-10.702 2.3026-19.38 4.0897-34.421l-2.3437 1.3887c-4.4824 35.124-12.145 95.17-15.681 97.147-3.5352 1.9778-37.492-34.789-57.355-56.296l-2.3164 2.0488c4.9056 5.2884 9.8858 10.657 7.567 12.112-2.3188 1.455-12.078-0.91363-21.692-3.247l-2.3828 2.1074c11.572 2.8848 34.216 8.5295 41.197 15.848s614.5 662.2 924.99 996.9c-295.1-320.12-840.07-911.31-862.5-937.31-22.422-25.997-17.815-62.039-6.8419-84.492s31.821-50.492 52.031-77.673z" stop-color="#000000" style="-inkscape-stroke:none;font-variation-settings:normal"/>
  <path transform="matrix(.26458 0 0 .26458 58.194 25.782)" d="m2137.1-400c-320.18 165.07-935.67 482.39-950.75 489.32-15.078 6.9309-145.75 32.604-213.73 45.96l3.5898 2.9414c64.277-13.044 165.77-33.642 170.22-31.706 4.4475 1.9362-63.681 37.06-106.83 59.303l3.0684 1.957c23.213-12.043 59.999-31.128 63.457-29.306 3.4582 1.8219-6.932 34.807-13.489 55.622l3.7461-1.3672c6.4466-20.949 18.945-61.564 29.569-67.615s670.69-348.48 1011.1-525.11z" stop-color="#000000" style="-inkscape-stroke:none;font-variation-settings:normal"/>
 </g>
 <g id="letter_m_shadow" type="layer">
  <path transform="scale(.26458)" d="m300.4 36.5-15.434 34.588-4.043-18.203-65.139 45.568-54.65 260.8-105 30.854 243.46 53.053 33.453-13.48 20.449 8.3223 87.121-32.066-24.902-57.582 7.9629 15.045 16.543 10.943 4.5742 15.826 294.78 110.41-5.7578-6.5488s-36.942-87.736-55.287-131.58l-19.061-9.8828-17.559-52.982-0.99609-0.5332-68.293-55.543-44.816-46.121-4.9219-4.2246-0.22266-2.5703-21.678-18.66-35.145-11.137-96.158-115.16-15.227 79.936z"/>
 </g>
 <g id="letter_m" transform="translate(-58.194 -25.782)" type="layer">
  <path d="m137.11 40.462-3.61 7.4124-2.2885-6.06-15.969 13.418-12.613 67.08-16.068 6.6396 53.105 11.417 24.465-8.3572-17.649 6.6572 5.1945 1.7547 18.078-8.1085-24.49-56.293 22.328 40.626-4.12-42.872 8.4631 48.425 5.4098 1.9224 43.518 16.755-43.356-15.927 0.69872 3.2554 73.827 28.294-14.56-34.8-5.0428-2.6149-4.6458-14.018-0.26378-0.14115-39.651-32.249-7.4565-3.5342-24.183-26.482-3.6551 19.109z" fill="#fff"/>
 </g>
 <g id="letter_m_star" transform="translate(-58.194 -25.782)" type="layer">
  <path transform="matrix(.39505 -.14554 .14554 .39505 -87.99 34.391)" d="m388.11 140.03 33.791 22.563 37.743-15.045-11.017 39.109 25.972 31.247-40.599 1.6077-21.692 34.356-14.075-38.116-39.378-10.014 31.901-25.164z" fill="#000c0d"/>
 </g>
 <g id="letter_o_star" transform="translate(-58.194 -25.782)" type="layer">
  <path transform="matrix(.4517 0 0 .4517 33.233 55.064)" d="m388.11 140.03 33.791 22.563 37.743-15.045-11.017 39.109 25.972 31.247-40.599 1.6077-21.692 34.356-14.075-38.116-39.378-10.014 31.901-25.164z"/>
 </g>
 <g id="letter_o_shadow" type="layer">
  <path d="m166.02 8.9599c-3.3663 0.0115-6.5639 0.6534-9.5142 1.9115-19.056 8.1269-23.876 39.639-10.765 70.383 0.0555 0.13013 0.11501 0.25778 0.17105 0.38758a60.519 37.512 66.904 0 0 0.71779 1.7534 60.519 37.512 66.904 0 0 58.245 40.953 60.519 37.512 66.904 0 0 15.973-54.375 60.519 37.512 66.904 0 0-5.5361-17.396 60.519 37.512 66.904 0 0-21.921-31.118c0.8972 0.72024 1.7901 1.474 2.6763 2.2686-9.3634-9.3004-19.797-14.544-29.372-14.761-0.22589-5e-3 -0.45098-7e-3 -0.67541-6e-3zm27.702 40.852a25.61 15.874 66.904 0 1 20.975 17.644 25.61 15.874 66.904 0 0-1.1178-2.9311 25.61 15.874 66.904 0 0-0.59841-1.2842 25.61 15.874 66.904 0 1 1.6076 3.2995 25.61 15.874 66.904 0 1-4.5558 29.784 25.61 15.874 66.904 0 1-24.647-17.331 25.61 15.874 66.904 0 1-1.7684-5.0312 25.61 15.874 66.904 0 1-1e-3 -3e-3 25.61 15.874 66.904 0 1 6.6533-23.36 25.61 15.874 66.904 0 1 3.4525-0.78755z"/>
 </g>
 <g id="letter_o" transform="translate(-58.194 -25.782)" type="layer">
  <path d="m214.42 38.148a60.519 37.512 66.904 0 1 58.245 40.954 60.519 37.512 66.904 0 1-10.765 70.383 60.519 37.512 66.904 0 1-58.245-40.954 60.519 37.512 66.904 0 1 10.765-70.383zm32.875 37.588a25.61 15.874 66.904 0 0-4.5552 29.783 25.61 15.874 66.904 0 0 24.647 17.331 25.61 15.874 66.904 0 0 4.5556-29.784 25.61 15.874 66.904 0 0-24.647-17.33z" fill="#fff"/>
 </g>
 <g id="letter_m_outline" type="layer">
  <path transform="scale(.26458)" d="m299.45 36.584-15.434 34.588-4.043-18.203-65.139 45.568-54.65 260.8-105 30.854 243.46 53.053 33.453-13.48 20.449 8.3223 87.121-32.066-24.902-57.582 7.9629 15.045 16.543 10.943 4.5742 15.826 294.78 110.41-0.39648-0.89454 1.2852 0.58594-60.18-138.6-3.6621-1.7812-1.373-1.1309 0.57031 0.74219-15.225-7.4004-15.234-53.965-147.56-123.5-2.4863-0.77148-29.475-13.068-96.158-115.16-15.227 79.936zm-0.93945 18.953 58.449 80.537 13.814-72.223 91.4 100.09 2.4648 0.78906-2.7227-0.84375 27.953 13.248 151.64 123.03 17.58 52.492 17.094 8.6328 1.2148 1.584 42.146 99.717 12.697 31.279-278.41-106.7-2.6406-12.303 163.86 60.195-164.48-63.326-20.445-7.2656-31.986-183.02 15.57 162.04-84.389-153.55 92.562 212.76-68.324 30.646-19.633-6.6328 66.703-25.16-70.197 23.98-22.268 7.6055-200.71-43.15 60.73-25.094 47.67-253.53 60.355-50.713 8.6504 22.904z" stop-color="#000000" style="-inkscape-stroke:none;font-variation-settings:normal"/>
  <path d="m46.183 85.684 57.816 2.9092-0.12088-1.3915-58.813-2.6906z"/>
  <path transform="scale(.26458)" d="m-775.85-166.73c300.42 127.18 885.2 374.73 893.67 378.89 8.4747 4.1594 40.869 59.48 57.512 87.901 0 0-0.22461-6.8359-0.22461-6.8359-15.681-25.766-40.251-66.138-40.986-70.592-0.73529-4.4542 25.847 6.7977 29.145 11.415 3.2976 4.6172 9.8184 32.904 13.902 50.616 0 0 1.6113-4.2871 1.6113-4.2871-3.8216-15.946-9.0796-37.885-8.3145-42.033s9.394-0.49393 15.666 2.1617l1.6484-4.252c-38.659-16.167-105.85-44.264-105.41-46.089s73.461 2.0607 115.48 4.2964l0.51758-3.2129c-43.904-1.8828-129.76-5.5649-136.96-8.2098s-556.42-232.32-837.25-349.77z" stop-color="#000000" style="-inkscape-stroke:none;font-variation-settings:normal"/>
 </g>
 <g id="letter_m_over" transform="translate(-58.194 -25.782)" type="layer">
  <path d="m126.12 31.571-15.454 6.0449-1.5342 1.8271 17.593-7.3745zm0.8134 0.68107-17.92 7.6929-0.72606 2.3714 19.113-9.3727zm0.67313 0.85752-19.352 10.212-0.29113 2.7993 17.587-10.096-17.696 11.157-3.1089 29.929 13.876-17.321-4.4614 39.651-8.936 6.9739-0.63431 4.1314-2.914-0.97749-1.1813 6.4975 28.057 6.6175s-25.147-5.1795-28.335-6.0317l-22.92 16.04-19.097 41 94.078-47.153-23.216-7.7864-9.355-10.067 1.4971-15.125-0.99338-1.4768 3.2422-38.327 9.5668-11.943zm35.228 0.82575c0.51801 1.8006 6.7895 27.965 6.7895 27.965l1.6312 1.5774-2.277-15.762 3.738 18.939 8.0035 5.4459 0.28496 2.7375 34.683 29.432 13.272 31.19 6.9475 3.6691 2.3776 6.704 40.294 16.392-36.521-42.507-4.8398-2.7719 26.841 34.016-30.708-36.874-7.692-3.8588 8.9369 25.201-3.1636-1.8218-9.8579-25.493-37.597-31.785-0.32819-2.2373 32.871 22.365-39.554-54.291zm-43.155 64.421-1.3877 12.802 5.0136 5.6638-17.063-5.723 0.41553-2.5937z" fill="#5e929f"/>
 </g>
 <g id="letter_o_oultine" transform="translate(-58.194 -25.782)" type="layer">
  <path transform="matrix(.26458 0 0 .26458 58.194 25.782)" d="m624.32 36.672c-12.723 0.04332-24.808 2.4695-35.959 7.2246-72.024 30.716-90.239 149.81-40.686 266.02 0.20977 0.49181 0.4347 0.97424 0.64648 1.4648a228.73 141.78 66.904 0 0 2.7129 6.627 228.73 141.78 66.904 0 0 220.14 154.78 228.73 141.78 66.904 0 0 42.092-262.65 228.73 141.78 66.904 0 1-47.15 249.79 228.73 141.78 66.904 0 1-163.92-63.865c-17.593-22.795-32.86-48.941-44.824-76.992-49.554-116.2-31.336-235.3 40.689-266.02 40.943-17.403 92.715-2.7998 139.82 39.439-35.389-35.151-74.822-54.969-111.01-55.791-0.85378-0.01832-1.7045-0.02632-2.5527-0.02344zm104.61 141.53a96.792 59.994 66.904 0 0-5.7129 0.0313 96.792 59.994 66.904 0 0-12.301 2.9512 96.792 59.994 66.904 0 0-17.219 112.56 96.792 59.994 66.904 0 0 0.95312 2.0527 96.792 59.994 66.904 0 1 21.32-101.75 96.792 59.994 66.904 0 1 92.324 63.709 96.792 59.994 66.904 0 0-4.2246-11.08 96.792 59.994 66.904 0 0-75.141-68.479z"/>
  <path d="m205.45 48.047 35.844 31.367-0.17527 0.64202-36.271-31.412z"/>
  <path transform="matrix(.26458 0 0 .26458 58.194 25.782)" d="m305.2-839.36c91.055 278.84 265.62 813.43 268.97 826.12 3.3509 12.695-16.114 65.691-26.267 93.334l3.3965-2.4023c9.5924-25.09 21.993-57.525 27.087-61.188 5.0939-3.6626 11.313 15.381 16.124 30.114l3.3832-1.3486c-8.1401-24.452-18.602-55.878-12.662-56.146 5.94-0.26833 37.761 30.193 62.521 53.895l5.0271 0.15077c-27.102-25.468-78.686-73.942-84.283-88.152-5.5971-14.21-174.54-525.67-263.3-794.38z" stop-color="#000000" style="-inkscape-stroke:none;font-variation-settings:normal"/>
 </g>
 <g id="letter_m_star_top" type="layer">
  <path transform="matrix(.20682 -.032845 .032845 .20682 98.376 -5.2806)" d="m388.11 140.03 33.791 22.563 37.743-15.045-11.017 39.109 25.972 31.247-40.599 1.6077-21.692 34.356-14.075-38.116-39.378-10.014 31.901-25.164z"/>
 </g>
</svg>
