<?xml version="1.0" encoding="UTF-8" standalone="no"?>
<!-- Created with Inkscape (http://www.inkscape.org/) -->

<svg
   width="690.61517mm"
   height="117.17584mm"
   viewBox="0 0 690.61517 117.17584"
   version="1.1"
   id="svg1"
   xml:space="preserve"
   xmlns="http://www.w3.org/2000/svg"
   xmlns:svg="http://www.w3.org/2000/svg"><defs
     id="defs1" /><g
     id="background"
     style="display:inline"
     type="layer"><rect
       style="fill:#aaaaaa;fill-opacity:1;stroke-width:0.228205;stroke-dasharray:0.684616, 0.684616"
       id="rect10113"
       width="693.75714"
       height="120.29344"
       x="-1.650854"
       y="-0.057420984" /></g><g
     id="layer-03"
     style="display:inline"
     type="layer"><g
       id="layer28"
       style="display:inline"><path
         d="m 270.47723,114.04533 -78.63834,8.98065 -1.34772,0.74696 z"
         id="path96" /><path
         d="m 244.66884,118.46731 -51.34241,5.86343 -0.87991,0.48767 z"
         id="path96-99" /><path
         d="m 293.71595,109.41855 -104.833,12.49504 -1.7974,1.03263 z"
         id="path96-9" /><path
         d="m 405.81781,135.33758 54.94338,-51.806472 0.5937,-1.358685 z"
         id="path96-9-8-6-9" /><path
         d="m 415.82011,127.42352 35.00837,-33.009627 0.3783,-0.865716 z"
         id="path96-9-8-6-9-1" /><path
         d="m -122.99919,119.22476 102.627765,-14.18818 1.744552,-1.04625 z"
         id="path96-9-8-6-9-9-9" /><path
         d="m -109.42541,118.94062 84.092562,-11.62573 1.429474,-0.85729 z"
         id="path96-9-8-6-9-9-9-1" /><path
         d="m -101.00114,119.23811 72.177077,-9.97841 1.226925,-0.73582 z"
         id="path96-9-8-6-9-9-9-7" /></g><g
       id="layer21"
       style="display:inline"
       transform="translate(0.40128714)"><path
         id="path55"
         style="fill:#7f7a7a;fill-opacity:1;stroke:none;stroke-width:2.77045;stroke-dasharray:none;stroke-opacity:1"
         d="M 126.05146 -1.4081828 L 105.03104 41.839823 L 157.21907 22.269442 L 121.9437 27.58488 L 122.66872 22.752616 L 117.59513 27.826208 L 126.05146 -1.4081828 z M 576.7733 15.607316 L 578.16288 41.455351 L 561.7644 32.839339 L 585.94484 57.019775 L 586.69776 57.131913 L 587.68116 58.91165 L 566.25508 68.136926 L 563.72552 70.071175 L 608.21479 59.358134 L 600.38788 56.521098 L 618.46378 24.501347 L 596.50646 39.509733 L 605.4005 16.163354 L 584.55526 37.842135 L 576.7733 15.607316 z M 277.05723 22.752616 L 267.3927 37.490735 L 260.86907 30.483927 L 261.11092 36.041211 L 245.40593 28.309383 L 267.20512 48.431152 L 256.40526 44.457751 L 254.66893 43.520341 L 241.27957 49.257458 L 277.89025 63.60697 L 283.64546 71.600281 L 289.15985 72.969706 L 278.23235 56.703516 L 317.40567 40.148454 L 284.30537 38.69893 L 295.41942 23.235791 L 278.74808 35.074345 L 277.05723 22.752616 z M 75.5548 63.584233 L 8.6291694 106.10774 L 17.085501 105.86589 L 18.77687 127.61082 L 41.488146 110.21498 L 51.635847 122.77855 L 75.5548 63.584233 z M 449.69734 70.302686 L 418.07136 105.65867 L 445.03096 86.203524 L 452.25739 125.94838 L 452.81343 98.432751 L 461.42944 105.38116 L 459.76184 95.653076 L 471.43503 100.37785 L 455.78896 72.094307 L 448.23128 76.070292 L 449.69734 70.302686 z M 135.39301 101.51163 L 99.957445 116.49677 L 128.94276 110.17725 L 104.06469 137.75852 L 139.58138 109.00678 L 132.81642 128.81901 L 144.65498 107.55726 L 168.3326 116.01359 L 147.17834 102.6821 L 141.8877 103.01387 L 135.39301 101.51163 z " /></g><g
       id="layer15"
       style="display:inline"
       transform="translate(0.40128714)"><path
         id="path29"
         d="M 128.79289 28.481982 L 107.43709 44.370418 L 128.62185 31.557247 L 202.42613 59.746224 L 221.73141 75.63466 L 203.79297 58.72148 L 128.79289 28.481982 z M 149.6216 64.884412 L 150.68975 67.851672 L 145.38 66.966972 L 149.00406 74.456954 L 184.52076 74.456954 L 150.45359 73.00743 L 148.27904 68.89967 L 167.12492 70.59104 L 151.75738 68.029956 L 151.07112 65.971684 L 188.40941 72.400232 L 149.6216 64.884412 z M 195.38728 73.19915 L 195.1413 73.337126 L 180.89669 78.322868 L 147.31269 81.221916 L 181.86304 80.738741 L 194.36098 73.819784 L 224.87488 80.526351 L 195.38728 73.19915 z M 227.74551 82.95566 L 218.14403 91.010982 L 142.28923 102.79889 L 136.30975 101.6031 L 141.43502 105.70311 L 219.16877 91.694145 L 227.74551 82.95566 z M 180.55821 100.91994 L 154.24819 104.16573 L 135.48861 120.94817 L 137.33501 121.24996 L 117.17552 133.8926 L 132.03869 117.32049 L 131.52606 120.05417 L 151.17292 104.67837 L 133.23448 117.49154 L 133.40553 114.58732 L 113.75867 136.79682 L 141.09344 120.05417 L 138.18922 119.87279 L 154.41924 105.01995 L 180.55821 100.91994 z " /></g><g
       id="layer23"
       style="display:inline"
       transform="translate(0.40128714)"><path
         style="fill:#7f7a7a;fill-opacity:1;stroke-width:2.77045;stroke:none"
         d="m 558.3002,39.96155 -6.944,2.419891 -26.93439,-4.103289 -9.15351,3.156375 -3.15635,-0.8417 12.20462,-13.888044 z"
         id="path22" /></g><g
       id="layer24"
       style="display:inline"
       transform="rotate(-15.857657,527.88979,-11.898938)"><path
         id="path26"
         d="M 646.79629 42.522869 L 599.71006 53.410104 L 598.19437 52.913484 L 569.7977 57.724054 L 568.60906 59.04907 L 571.73818 60.556787 L 575.76179 60.422785 C 570.70547 67.861467 564.56113 77.184854 565.47299 78.635561 C 566.50863 80.283192 581.54559 79.554963 591.29961 79.082672 C 581.92404 79.167072 567.91086 79.29348 566.76908 77.476977 C 565.77158 75.890018 571.18603 67.393029 575.80899 60.421151 L 579.83963 60.286996 L 580.9687 74.798618 L 581.38637 74.98871 L 580.48399 60.265353 L 587.82234 60.021078 L 588.53471 58.057943 L 601.73196 54.072545 L 600.32188 53.610759 L 643.52255 44.234387 L 631.43281 63.172245 L 594.56492 67.502383 L 625.26321 65.098521 L 625.93227 66.378032 L 626.54673 66.353808 L 625.89666 65.049069 L 632.36571 64.542281 L 646.79629 42.522869 z M 655.50379 65.696029 L 606.52292 67.624334 L 651.85837 66.894767 L 648.34594 69.230947 L 627.91714 68.765136 C 626.42313 68.657802 624.8958 68.559227 623.31244 68.476756 C 614.44249 67.856548 604.16283 67.810243 594.61594 67.770976 C 594.91533 67.789565 595.23605 67.811005 595.53775 67.829758 C 595.16459 67.826195 594.77705 67.82124 594.40604 67.81772 C 594.97091 67.83363 595.57359 67.852083 596.1462 67.868293 C 607.67221 68.586117 620.64574 69.452053 630.06367 71.273374 C 630.38881 72.000419 630.97678 72.961434 631.94177 73.327163 C 633.57096 73.944632 636.82944 75.179234 640.08783 76.414166 L 633.57252 79.203843 L 621.38755 103.58505 C 621.41466 104.40806 621.44181 105.23105 621.46892 106.05407 C 619.76719 107.29224 617.99883 108.42877 616.20134 109.4931 L 597.29051 92.338185 C 599.15802 90.376583 600.20954 87.80936 601.16453 85.457324 C 600.03072 87.681266 598.80804 90.064907 596.7574 91.854754 L 596.53875 91.656194 L 596.48482 92.08246 C 595.02494 93.276008 593.16295 94.176861 590.64168 94.527477 C 584.29304 95.41034 563.54043 92.401125 559.47422 93.940119 C 555.62297 95.397754 549.43809 106.70096 545.05445 114.90967 L 541.08471 120.79046 C 532.4159 120.92479 523.68886 120.95069 515.27738 120.97521 C 523.50939 121.02707 532.20647 121.07819 540.91984 121.03425 L 538.74403 124.25724 L 571.81393 126.43256 L 565.25801 120.55412 C 580.87779 119.95439 595.09371 118.67333 605.05518 116.05042 L 586.98605 130.0778 L 632.09964 110.64623 L 622.17796 111.28536 L 628.45869 111.38101 L 592.32578 126.75919 L 606.55302 115.64913 C 607.62667 115.33791 608.65863 115.01403 609.61586 114.66686 C 628.32318 107.88197 649.13627 82.675275 646.08203 75.32285 C 645.21922 73.245817 642.46286 71.762125 638.51643 70.678439 C 642.25234 71.357431 645.02262 72.207548 646.285 73.297745 C 651.0957 77.452303 640.34848 92.767583 635.33532 98.77119 C 630.32218 104.7748 625.46204 108.61481 621.23604 111.95362 C 625.51049 108.64307 630.7718 104.56773 635.74807 98.989967 C 640.72432 93.412205 652.95652 77.611382 647.54192 72.940834 C 645.71708 71.366766 641.53873 70.303374 636.0076 69.566639 L 649.17432 70.165165 L 655.50379 65.696029 z M 596.84868 92.781583 L 615.35657 109.99717 C 612.72914 111.49555 610.03278 112.79333 607.30191 113.75976 C 601.14905 115.93719 593.17207 117.44703 584.09556 118.49913 L 583.19026 117.16809 L 586.83246 116.69744 L 582.45225 111.98015 L 576.94965 113.55921 L 576.50762 108.45266 L 558.40621 116.79527 L 575.55154 110.01994 L 575.77207 112.84061 L 555.29162 119.76394 L 549.11301 119.3277 L 548.43891 113.23014 L 546.92631 112.61299 C 551.93492 105.60174 558.12657 97.411999 561.80213 96.080315 C 566.14777 94.505848 586.14899 96.466587 591.9025 95.282084 C 594.01407 94.847365 595.60112 93.944612 596.84868 92.781583 z M 582.04954 113.39787 L 584.05067 115.7031 L 559.17311 120.0376 L 555.37759 119.76956 L 557.46217 119.18253 L 582.04954 113.39787 z M 582.6521 117.23763 L 583.55383 118.55852 C 576.71562 119.33393 569.26199 119.85107 561.50154 120.20155 L 560.34709 120.1202 L 582.6521 117.23763 z " /></g><g
       id="layer25"
       style="display:inline"
       transform="translate(0.40128714)"><path
         id="path7"
         d="M 512.37827 21.807971 L 505.38179 46.953723 L 512.92862 23.35258 L 516.74441 24.122559 L 503.50956 54.147599 L 500.14335 59.606181 L 502.86774 55.603841 L 502.64604 56.10717 L 503.01501 55.387834 L 521.71826 27.913025 L 604.89355 59.159696 L 527.81867 79.098014 L 609.65502 59.159696 L 520.97412 25.829948 L 504.34775 52.789026 L 519.48016 23.281266 L 512.37827 21.807971 z M 510.49828 24.860498 L 504.85935 24.970569 L 503.89816 45.244267 L 505.54354 26.046472 L 508.56971 25.971025 L 503.40517 52.656734 L 510.49828 24.860498 z M 505.64844 61.391602 L 539.49702 65.98667 L 526.47973 64.590889 L 528.11632 68.236145 L 529.83818 68.181368 L 531.65823 70.521277 L 550.46535 67.496655 L 532.50004 69.995211 L 530.76112 68.151912 L 547.5446 67.618095 L 528.63722 67.492004 L 527.74425 65.557756 L 545.48116 66.799023 L 550.5842 67.492004 L 494.04295 77.461422 L 565.4634 66.896692 L 505.64844 61.391602 z M 578.85483 70.616878 L 560.85076 78.65153 L 529.15812 79.842155 L 539.91457 80.190454 L 541.15377 81.252922 L 549.25508 81.989827 L 550.09689 83.146863 L 560.72312 85.67229 L 577.76756 74.309159 L 583.13364 73.046704 L 583.87158 72.375944 L 597.90018 72.699955 L 595.82899 75.275509 L 595.26985 74.237329 L 581.13428 79.593591 L 577.56343 93.729163 L 573.99259 99.383081 L 574.09285 102.30177 L 569.77838 107.6663 L 520.60257 93.435124 L 519.76593 93.136951 L 520.29923 93.347274 L 517.84977 92.638273 L 521.06973 93.650614 L 544.92977 103.05366 L 541.2101 105.73205 L 518.93187 94.605595 L 541.65658 107.6663 L 547.60816 103.05366 L 522.25415 94.023201 L 570.37369 109.15406 L 600.13208 72.253471 L 578.85483 70.616878 z M 519.09103 95.211243 L 533.17545 104.83908 L 531.08617 105.2406 L 518.68796 96.356392 L 530.99935 106.30721 L 536.59746 105.73205 L 519.09103 95.211243 z " /></g><g
       id="layer22"
       transform="translate(0.40128714)"
       style="display:inline"><path
         id="path13-9"
         d="M 466.47771 25.246004 C 460.91355 25.099178 455.6767 26.334679 451.24143 29.15791 C 450.65328 29.532291 450.096 29.935701 449.55419 30.353186 L 452.48321 31.505054 C 452.59665 31.429704 452.70326 31.34747 452.81859 31.27406 C 459.81427 26.821034 470.18343 25.498215 479.86707 29.135173 C 489.55068 32.772123 500.22474 40.464429 507.87673 50.72972 C 515.52869 60.995013 518.33683 73.129599 518.5629 82.786678 C 518.78894 92.443761 514.87964 101.28263 507.88397 105.73566 C 500.88828 110.18869 491.36815 109.05017 481.68453 105.4132 C 472.28984 101.88475 462.67975 95.201204 455.12698 85.432511 L 476.36858 63.799207 C 478.79737 65.967012 481.49202 67.59435 484.19239 68.573592 C 488.28016 70.055948 492.41987 70.05609 495.55345 68.130208 C 498.68702 66.204322 500.16334 62.752608 500.06791 58.816565 C 499.97241 54.880524 498.32649 50.425946 495.17105 46.338774 C 492.01561 42.251596 487.93704 39.291936 483.84926 37.809578 C 479.76149 36.327224 475.62074 36.327594 472.48716 38.253479 C 469.35361 40.179362 467.87828 43.630561 467.97374 47.566606 C 468.06924 51.502645 469.71515 55.957219 472.8706 60.044397 C 473.73563 61.164865 474.67206 62.197047 475.65699 63.140849 L 454.53063 84.662016 C 454.49754 84.61786 454.46287 84.57607 454.42987 84.531791 C 452.18389 81.51878 450.26676 78.427434 448.66019 75.31995 L 446.92541 77.737374 C 448.44322 80.51025 450.2019 83.259572 452.20571 85.947725 C 460.14567 96.599379 470.40792 104.31366 480.6939 108.17686 C 490.97986 112.04005 501.39635 112.03993 509.2813 107.02086 C 517.16623 102.00177 520.88092 93.005708 520.64081 82.747921 C 520.40069 72.490133 516.25904 60.880632 508.31908 50.228975 C 500.37907 39.577308 490.11689 31.864067 479.8309 28.000875 C 475.33078 26.31073 470.80534 25.360202 466.47771 25.246004 z M 479.5043 37.440609 C 480.93898 37.465708 482.42059 37.721365 483.86373 38.244694 C 487.7121 39.640239 491.95386 42.59209 494.99483 46.53101 C 498.03582 50.469933 499.15176 55.126007 499.2416 58.831551 C 499.3315 62.537095 497.77811 65.928531 494.99793 67.637215 C 492.21777 69.345897 488.43457 68.908746 484.58616 67.513192 C 480.73779 66.117645 476.79577 63.440199 473.75478 59.501278 C 470.7138 55.562356 469.14723 51.276797 469.0574 47.571257 C 468.9675 43.865714 470.33384 40.773998 473.114 39.065316 C 474.8516 37.997389 477.11318 37.398777 479.5043 37.440609 z M 442.61043 52.37148 L 439.89535 53.672176 C 439.97145 56.27036 440.30009 58.954508 440.87255 61.68564 L 443.18766 59.340564 C 442.85144 57.328223 442.65469 55.354281 442.60991 53.441699 C 442.60191 53.081056 442.6087 52.727558 442.61043 52.37148 z " /></g><g
       id="layer13"
       style="display:inline"
       transform="translate(0.40128714)"><path
         id="path14065"
         d="M 436.14726 23.741187 L 371.283 45.27734 L 365.00328 70.412756 L 369.08262 50.66099 L 362.39207 55.089144 L 360.5896 81.775887 L 359.27702 82.254928 L 360.64799 83.781449 L 362.5533 83.13136 L 404.01279 66.542192 L 363.41682 87.829781 L 363.65918 89.44777 L 438.37141 48.525203 L 418.00522 59.204655 L 437.40455 48.944816 L 401.98294 66.677067 L 361.17613 81.561947 L 363.47314 56.574841 L 367.2848 54.155868 L 364.86066 70.984814 L 364.78366 71.292289 L 364.84154 71.116073 L 364.80329 71.381689 L 364.88598 70.980164 L 372.94647 46.451428 L 428.93633 28.572416 L 429.39418 30.315462 L 446.24742 35.17098 L 451.80109 33.49563 L 451.17477 32.617647 L 466.34077 38.773861 L 385.33434 83.04506 L 387.70836 81.827563 L 414.31914 73.986182 L 412.81483 76.807198 L 385.57877 84.490967 L 408.37893 78.930066 L 407.75364 79.693327 L 379.86801 86.029891 L 425.84091 78.069653 L 444.1354 58.858423 L 463.46756 52.925452 L 428.356 104.14403 L 467.05752 50.579342 L 445.7074 55.829667 L 427.09355 75.298246 L 409.00111 79.409623 L 409.75042 78.595719 L 413.79307 77.609733 L 417.12982 71.881401 L 387.76262 81.800175 L 388.1042 81.624992 L 411.36221 73.427559 L 408.06164 71.392025 L 472.39466 38.405408 L 436.14726 23.741187 z M 457.91234 59.146777 L 429.95126 96.362594 L 371.04426 99.189294 L 371.26595 99.67557 L 429.73111 98.913342 L 457.91234 59.146777 z M 407.55366 71.652474 L 407.18417 71.882434 L 409.27707 73.313354 L 391.69726 79.782727 L 407.55366 71.652474 z " /></g><g
       id="layer17"
       style="display:inline"
       transform="translate(0.40128714)" /><g
       id="layer18"
       style="display:inline"
       transform="translate(0.40128714)"><path
         id="path34"
         d="M 296.38577 22.027596 L 293.4862 29.638501 L 308.70801 51.745679 L 294.81532 29.275732 L 295.90259 26.618014 L 320.06339 71.31606 L 296.38577 22.027596 z M 294.39261 32.593359 L 292.19739 38.483439 L 305.84824 51.651628 L 293.88824 38.363033 L 295.10522 35.732186 L 313.57955 61.074308 L 294.39261 32.593359 z M 307.49516 67.776225 L 305.27411 74.438867 L 316.54991 95.623621 L 319.24173 85.95341 L 348.16917 101.78759 L 330.21729 107.92416 L 334.82993 110.14521 L 382.66629 104.50732 L 361.82311 72.388863 L 357.21048 80.076766 L 363.70259 96.477832 L 349.00994 101.50026 L 319.47273 85.122453 L 321.16255 79.052022 L 319.96675 76.830969 L 315.18307 79.222555 L 307.49516 67.776225 z " /></g><g
       id="layer14"
       style="display:inline"
       transform="translate(0.40128714)"><path
         d="m 301.00146,30.188982 21.5657,44.262298 -6.30657,8.982325 -23.61378,-37.525555 -31.3245,-6.01437 -10.89274,8.736878 2.16839,1.640424 25.84218,11.396718 38.06395,53.07146 53.74784,-17.071821 -15.62167,-37.022324 15.55673,-20.442907 z m 3.09209,1.076733 63.69723,9.191341 -16.3368,19.784835 16.51399,37.275198 -50.14278,15.905621 -38.64877,-52.633864 -25.74008,-12.159296 8.30905,-7.381663 26.90173,4.980169 26.88235,40.514085 9.03575,-13.123785 z"
         id="path16" /></g><g
       id="layer19"
       style="display:inline"
       transform="translate(0.40128714)"><path
         id="path33"
         d="M 197.0063 6.304008 L 211.06746 26.459884 L 211.2137 24.064164 L 224.79117 36.35282 L 210.05305 21.794019 L 210.20705 24.084318 L 199.5462 9.0247721 L 214.97885 21.395593 L 213.4208 21.458639 L 227.28559 37.080424 L 255.80478 50.108569 L 227.51142 36.397778 L 215.54936 22.608956 L 217.97091 22.751066 L 197.0063 6.304008 z M 216.60614 32.75304 L 195.93402 55.646216 L 217.11877 35.315674 L 273.94321 61.132703 L 216.60614 32.75304 z M 198.29821 34.258374 L 189.83671 54.91086 L 198.72868 35.549251 L 208.19425 37.126933 L 191.41439 60.790605 L 211.34961 35.979716 L 198.29821 34.258374 z M 196.72518 35.360632 L 185.57651 37.123315 L 183.64898 56.162463 L 186.24468 38.079846 L 194.41059 37.072156 L 186.37749 60.612321 L 196.72518 35.360632 z M 134.90725 55.422457 L 245.9413 84.472363 L 249.81238 79.899516 L 264.97631 77.476925 L 246.61413 79.530546 L 247.94324 77.960099 L 263.81669 77.043359 L 271.95935 77.001501 L 240.43879 76.403605 L 235.31352 70.68044 L 273.60731 75.467745 L 247.33863 71.676245 L 246.61413 69.503768 L 266.18451 73.369682 L 257.12563 71.234928 L 254.61881 68.117806 L 209.08928 61.284115 L 254.53354 69.484648 L 256.94941 71.193587 L 245.1646 68.416496 L 246.25187 71.436983 L 247.31538 71.673145 L 232.15299 69.484648 L 238.6451 77.17255 L 247.04201 77.129659 L 244.5605 80.738741 L 249.26048 79.987882 L 245.52892 82.401172 L 134.90725 55.422457 z M 289.72726 85.202035 L 279.13514 96.477832 L 215.75193 101.43205 L 200.88875 94.086247 L 215.2393 103.99469 L 279.47672 97.844674 L 289.72726 85.202035 z M 191.53273 87.778621 L 199.98338 107.29423 L 195.41157 108.96906 L 190.84389 92.831026 L 195.21933 110.08062 L 201.52902 108.15774 L 191.53273 87.778621 z M 194.38941 88.554801 L 211.40749 105.39615 L 205.95408 108.89878 L 195.04105 94.031986 L 206.04503 110.11989 L 213.69004 105.68606 L 194.38941 88.554801 z " /></g><g
       id="layer6"
       style="display:inline"
       transform="translate(17.843147,-69.41861)"><path
         id="path24"
         d="M 101.36095 100.86889 L 101.11962 104.97665 L 106.84743 112.50797 L 106.03921 115.89588 L 81.133241 130.46346 L 75.644687 123.3564 L 76.327849 127.96904 L 79.744695 133.60694 L 80.342591 144.11379 L 87.945228 153.2538 L 88.53899 145.93177 L 125.32176 155.52188 L 125.56515 154.67025 L 88.940516 145.05792 L 88.55501 145.73281 L 88.970488 140.61168 L 82.022592 131.61533 L 105.83819 116.73769 L 103.05232 128.41243 L 121.32665 147.9487 L 128.67504 150.73561 L 124.79724 126.72106 L 101.36095 100.86889 z " /></g><g
       id="layer5"
       style="display:inline"
       transform="translate(0.40128714)"><path
         id="path13"
         d="M 84.972313 22.062736 C 78.370515 22.060277 72.264378 23.789554 67.359951 27.490828 C 59.512879 33.412868 56.372996 43.153417 57.483035 53.888184 C 58.593064 64.622946 63.906916 76.448331 73.122907 86.951799 C 82.338888 97.455256 93.743525 104.68378 104.8512 107.87352 C 115.95886 111.06327 126.88035 110.19164 134.72742 104.2696 C 142.5745 98.347559 145.71643 88.605982 144.6064 77.871216 C 143.49635 67.13645 138.18252 55.311058 128.96653 44.807601 C 119.75054 34.304133 108.34589 27.075108 97.238231 23.885364 C 93.072855 22.689209 88.933392 22.064212 84.972313 22.062736 z M 87.60316 23.727751 C 90.805103 23.708236 94.102648 24.133434 97.370523 25.071855 C 107.82769 28.074799 119.66315 35.246338 128.54485 45.368807 C 137.42654 55.491275 141.38528 67.97955 142.4303 78.085673 C 143.47533 88.191804 140.11698 97.78555 133.1549 103.03971 C 126.19283 108.29385 116.11609 107.89629 105.65891 104.89334 C 95.201717 101.89039 84.217912 95.403568 75.336209 85.281099 C 66.454528 75.158631 61.387321 63.779839 60.342292 53.673726 C 59.297263 43.567602 62.228764 34.831678 69.190847 29.577523 C 73.97728 25.965292 80.558886 23.770683 87.60316 23.727751 z M 77.118012 50.246545 C 74.557153 50.245584 72.18883 50.921278 70.286388 52.367346 C 67.242471 54.681057 66.024518 58.486396 66.455097 62.680412 C 66.885717 66.874431 68.946994 71.494837 72.52191 75.598486 C 76.096827 79.702132 80.520472 82.526447 84.829169 83.772664 C 89.137865 85.018882 93.374736 84.678192 96.418643 82.364482 C 99.46255 80.050771 100.68104 76.244917 100.25045 72.050899 C 99.819862 67.856882 97.758554 63.23647 94.183637 59.132825 C 90.608721 55.029173 86.185106 52.204862 81.876378 50.958647 C 80.260617 50.491315 78.654528 50.247122 77.118012 50.246545 z M 78.138622 50.897152 C 79.380666 50.889527 80.659917 51.055548 81.927538 51.422184 C 85.983916 52.595418 90.575093 55.397654 94.02034 59.35245 C 97.465556 63.307246 99.001205 68.186205 99.406574 72.134615 C 99.811934 76.083026 98.508972 79.83112 95.808344 81.883891 C 93.107727 83.936661 89.198705 83.781633 85.142329 82.608394 C 81.085951 81.435158 76.825512 78.900609 73.380256 74.945813 C 69.935019 70.991017 67.969453 66.545101 67.564073 62.596696 C 67.158704 58.648285 68.295785 55.235052 70.996422 53.182284 C 72.85309 51.771004 75.406124 50.913925 78.138622 50.897152 z " /></g><g
       id="layer2"
       style="display:inline"
       transform="translate(17.843147,-69.41861)"><path
         d="m 57.388239,107.39249 -45.905731,55.81171 34.550111,2.89932 -31.409194,-4.34897 z"
         id="path52" /></g><g
       id="layer20"
       style="display:inline"
       transform="translate(0.40128714)"><path
         id="path39"
         d="m 72.463463,16.06093 -31.421855,9.293488 -61.834468,32.874479 -23.408389,2.221571 -87.501641,47.011082 6.03478,-0.13798 L -18.587826,92.107451 18.179954,60.856128 9.4817772,71.304587 7.2741606,76.299113 45.247035,47.404235 7.8312326,98.316891 88.831972,122.22809 80.975088,91.585518 69.423856,77.54865 68.937581,78.263851 66.61524,75.325528 66.041565,81.056999 81.942055,102.26574 87.578818,121.00233 9.9752886,97.455445 46.072308,48.246046 47.234511,44.598723 12.457824,70.590934 30.531138,49.713656 36.559711,43.726942 -19.557276,90.512715 -126.68717,106.18825 -47.07601,63.056511 -23.587521,61.00599 41.513931,26.316118 l 26.409756,-7.70754 -13.851602,13.048057 3.763079,-1.354955 14.998819,-8.164635 16.852201,-4.015776 -2.015493,4.933418 2.025264,0.284867 2.552862,-6.626984 -20.510376,4.532023 -13.168955,6.731648 z" /></g><g
       id="layer1"><path
         style="font-variation-settings:normal;opacity:1;vector-effect:none;fill:#ffffff;fill-opacity:1;stroke:none;stroke-width:0.264583px;stroke-linecap:butt;stroke-linejoin:miter;stroke-miterlimit:4;stroke-dasharray:none;stroke-dashoffset:0;stroke-opacity:1;-inkscape-stroke:none;stop-color:#000000;stop-opacity:1"
         d="m 126.7901,39.761363 15.18741,16.902864 -1.46155,-5.0526 -7.6334,-10.957546 -4.5394,-1.558441 z"
         id="path9665" /><path
         style="fill:#ffffff;fill-opacity:1;stroke-width:0.264583;stroke-dasharray:0.79375, 0.79375;stroke:none"
         d="m 134.89812,45.320886 20.04962,-6.458819 -12.09591,-4.854021 1.28794,-0.44546 25.35093,8.397375 1.11298,3.068883 -15.25257,-5.902098 -20.14278,6.656423 z"
         id="path9978" /><path
         style="fill:#ffffff;fill-opacity:1;stroke-width:0.264583;stroke-dasharray:0.79375, 0.79375;stroke:none"
         d="m 219.40545,73.1202 -13.67729,-12.928622 0.87074,-0.246473 13.22684,7.281699 0.70975,3.064401 z"
         id="path21316" /><path
         style="fill:#ffffff;fill-opacity:1;stroke-width:0.264583;stroke-dasharray:0.79375, 0.79375;stroke:none"
         d="m 214.97756,68.61879 -5.80221,6.126107 0.57197,0.153924 5.83048,-6.069637 z"
         id="path21492" /><path
         style="fill:#ffffff;fill-opacity:1;stroke-width:0.264583;stroke-dasharray:0.79375, 0.79375;stroke:none"
         d="m 212.1221,75.493837 -7.83359,-2.051458 0.38053,0.367295 5.51477,2.171456 1.35085,-0.365836 z"
         id="path21664" /><path
         style="fill:#ffffff;fill-opacity:1;stroke-width:0.264583;stroke-dasharray:0.79375, 0.79375;stroke:none"
         d="m 272.59145,57.528605 0.29755,0.13989 6.73465,3.172569 7.72311,10.409224 -0.16243,-1.165746 -4.98843,-10.631903 -8.98893,-2.245368 z"
         id="path21779" /><path
         style="fill:#ffffff;fill-opacity:1;stroke-width:0.264583;stroke-dasharray:0.79375, 0.79375;stroke:none"
         d="m 235.67954,70.619833 0.0768,0.166852 5.05251,5.601282 8.69154,0.134498 -0.68295,-0.511027 -7.1296,-1.145283 -4.93165,-4.054726 z"
         id="path21781" /><path
         style="fill:#ffffff;fill-opacity:1;stroke-width:0.264583;stroke-dasharray:0.79375, 0.79375;stroke:none"
         d="m 282.60177,64.589209 -0.41743,-0.04314 -38.54729,10.870446 0.69025,0.09595 38.53347,-10.540707 z"
         id="path21896" /><path
         style="fill:#ffffff;fill-opacity:1;stroke-width:0.264583;stroke-dasharray:0.79375, 0.79375;stroke:none"
         d="m 123.25961,49.346349 -2.40096,9.742133 10.59035,11.205419 -1.96638,-0.265186 -14.82795,-11.250782 6.8882,-8.703905 z"
         id="path24847" /><path
         style="fill:#ffffff;fill-opacity:1;stroke-width:0.264583;stroke-dasharray:0.79375, 0.79375;stroke:none"
         d="m 101.84956,64.569858 5.06235,6.604616 -0.91356,10.198912 0.60396,-0.371133 2.49136,-9.741181 -6.33689,-6.544347 z"
         id="path24849" /><path
         style="fill:#ffffff;fill-opacity:1;stroke-width:0.264583;stroke-dasharray:0.79375, 0.79375;stroke:none"
         d="m 105.31476,67.723236 11.67394,-7.633959 0.5088,0.553529 -11.71866,7.453469 z"
         id="path24851" /><path
         style="fill:#ffffff;fill-opacity:1;stroke-width:0.264583;stroke-dasharray:0.79375, 0.79375;stroke:none"
         d="M -9.1984355,52.195523 25.020836,34.081603 22.224953,33.867169 -4.9211851,42.832139 -8.4942309,50.32843 Z"
         id="path24853" /><path
         style="fill:#ffffff;fill-opacity:1;stroke-width:0.264583;stroke-dasharray:0.79375, 0.79375;stroke:none"
         d="M 18.172921,87.220506 31.42783,68.739257 31.582627,69.82348 24.893318,83.23255 19.509641,87.564996 Z"
         id="path24855" /><path
         style="fill:#ffffff;fill-opacity:1;stroke-width:0.264583;stroke-dasharray:0.79375, 0.79375;stroke:none"
         d="M 22.363891,81.812722 9.0715519,42.046093 9.8087462,41.46116 23.451284,81.194798 Z"
         id="path24857" /><path
         style="fill:#ffffff;fill-opacity:1;stroke-width:0.264583;stroke-dasharray:0.79375, 0.79375;stroke:none"
         d="m 359.62272,50.733822 -0.70228,0.704204 -7.06583,8.989396 4.47455,10.052997 -1.09154,-0.307692 -9.15498,-11.168623 11.37608,-7.692644 z"
         id="path24972" /><path
         style="fill:#ffffff;fill-opacity:1;stroke-width:0.264583;stroke-dasharray:0.79375, 0.79375;stroke:none"
         d="m 309.77456,70.532124 5.83665,8.743558 3.67012,-2.001591 -1.50961,-0.868836 -2.40096,0.08311 -4.53006,-5.527688 z"
         id="path24974" /><path
         style="fill:#ffffff;fill-opacity:1;stroke-width:0.264583;stroke-dasharray:0.79375, 0.79375;stroke:none"
         d="m 347.68361,60.601253 -0.42696,0.08121 -34.44449,13.073465 0.45932,0.430136 34.91902,-13.043332 z"
         id="path24976" /><path
         style="fill:#ffffff;fill-opacity:1;stroke-width:0.264583;stroke-dasharray:0.79375, 0.79375;stroke:none"
         d="m 382.87348,41.619024 36.4767,-12.205554 -2.48165,-0.114843 -30.42418,6.982934 -3.5655,4.43398 z"
         id="path33763" /><path
         style="fill:#ffffff;fill-opacity:1;stroke-width:0.264583;stroke-dasharray:0.79375, 0.79375;stroke:none"
         d="m 415.34553,67.809289 h 0.55041 l 24.36313,-12.802645 0.72313,4.904113 -2.11156,-1.196869 -20.84922,9.623404 z"
         id="path33996" /><path
         style="fill:#ffffff;fill-opacity:1;stroke-width:0.264583;stroke-dasharray:0.79375, 0.79375;stroke:none"
         d="m 431.29824,59.743879 -22.66918,-27.423472 1.01026,-0.161047 22.94821,27.655845 z"
         id="path33998" /><path
         style="fill:#ffffff;fill-opacity:1;stroke-width:0.264583;stroke-dasharray:0.79375, 0.79375;stroke:none"
         d="m 458.70063,82.285667 18.0625,-18.481495 -0.32973,2.173475 -8.21523,14.091029 -6.78376,2.415272 z"
         id="path34113" /><path
         style="fill:#ffffff;fill-opacity:1;stroke-width:0.264583;stroke-dasharray:0.79375, 0.79375;stroke:none"
         d="m 555.27627,84.222054 0.25929,0.144675 5.71813,1.325843 15.83539,-10.629617 v 0.907968 l -14.10491,13.553379 -7.84291,-4.286163 z"
         id="path34228" /><path
         style="fill:#ffffff;fill-opacity:1;stroke-width:0.264583;stroke-dasharray:0.79375, 0.79375;stroke:none"
         d="m 548.52532,37.918884 26.513,9.85601 -1.11279,0.727996 -22.77816,-5.118807 -3.24506,-3.892476 z"
         id="path34232" /><path
         style="fill:#ffffff;fill-opacity:1;stroke-width:0.264583;stroke-dasharray:0.79375, 0.79375;stroke:none"
         d="m 565.67334,46.364583 v 0.628073 l 5.61081,32.735048 -0.6744,0.226489 -5.69042,-33.824664 z"
         id="path34234" /><path
         style="fill:#ffffff;fill-opacity:1;stroke-width:0.264583;stroke-dasharray:0.79375, 0.79375;stroke:none"
         d="m 605.14837,42.816121 0.11848,-3.974554 9.28792,-5.926661 -0.82106,2.026651 -6.71753,5.378283 -0.6763,1.540053 z"
         id="path34831" /><path
         style="fill:#ffffff;fill-opacity:1;stroke-width:0.264583;stroke-dasharray:0.79375, 0.79375;stroke:none"
         d="m 654.38567,46.965692 -4.78224,25.621631 -0.7521,-2.134817 1.19938,-19.367532 3.28978,-4.142121 z"
         id="path35117" /><path
         style="fill:#ffffff;fill-opacity:1;stroke-width:0.264583;stroke-dasharray:0.79375, 0.79375;stroke:none"
         d="m 609.3039,37.974079 0.36224,0.362569 40.29638,19.034464 -0.0188,0.915148 -41.21309,-19.779588 z"
         id="path35119" /></g><path
       style="fill:#ffffff;fill-opacity:1;stroke-width:0.264583;stroke-dasharray:0.79375, 0.79375;stroke:none"
       d="m 181.68268,98.523254 14.12423,-2.529665 -0.32647,0.365609 -11.44764,3.156363 -2.29438,-0.552006 z"
       id="path15384" /></g><g
     id="layer-02"
     style="display:inline"
     type="layer"><path
       id="path102"
       d="m 460.63958,28.575 2.93367,26.401489 -1.08158,0.05684 0.25218,6.181018 -2.23656,0.24443 0.57464,5.003312 -0.97151,0.106454 0.60823,5.2927 -1.1374,0.124023 0.93586,8.141105 -1.59732,0.174667 1.29295,11.246858 -2.21899,0.262517 1.53582,15.495177 -0.96221,0.32092 -0.44132,-5.62964 -6.08542,2.24896 0.26459,1.19063 h 0.79375 l 0.40566,2.16421 -25.79119,8.6434 4.0659,-40.713801 -9.448,-0.748274 -5.98672,55.003885 -0.5612,-0.0935 3.64835,-34.70486 -0.77566,-0.07596 1.39888,-12.937194 -0.67644,-0.0646 1.33118,-11.628231 -8.23205,-1.122929 -1.279,11.969812 -0.95188,-0.09095 0.17312,-2.337325 -0.62012,-0.05271 1.9296,-18.656226 -0.56121,-0.187068 -1.84329,18.802986 -3.30161,-0.28112 -0.0853,2.299602 -0.56947,-0.05426 -1.07797,12.936678 -1.13585,-0.111104 -1.12241,12.161019 -1.02888,0.0935 0.56121,-7.390246 -2.22571,-0.214974 0.59687,-5.731433 -1.23145,-0.138493 0.56999,-5.332491 -1.1064,-0.12144 0.44494,-4.221964 -6.95978,-0.774113 0.47749,-3.698999 -0.8475,-0.09612 2.435,-19.350756 -0.52917,-0.132292 -2.62826,19.400883 -4.25091,-0.483175 -0.38499,3.723287 -2.55023,-0.283703 -0.39842,4.25142 -1.37305,-0.150379 -0.50281,5.28805 -1.1405,-0.128675 -0.56069,6.055961 -2.0624,-0.198954 -1.96267,23.102466 -19.61483,-9.32294 0.12454,-1.53531 0.37414,0.10439 0.2806,-1.22732 -4.95783,-1.68362 v 1.60094 l 0.39015,0.14314 0.008,0.80047 -1.54719,-0.73535 -0.0641,-27.836034 -0.77359,0.01344 0.33538,-17.988566 h -0.39688 l -0.45269,17.997351 -6.38514,0.110071 0.1323,35.586458 h -0.92605 V 86.609701 h -0.49144 l -0.0873,-12.389425 -5.93246,-0.03876 0.38448,-20.628199 h -0.39688 l -0.51883,20.624581 -1.10639,-0.0072 0.0863,-8.556067 H 327.758 l 0.0894,8.517826 -0.83768,-0.0057 v 12.482959 h -5.87871 l -0.79013,29.938734 -3.29282,-3.021 0.0729,-1.43506 -1.78594,-0.66146 -0.0243,0.50282 -8.88267,-8.14938 1.8433,-21.925786 -0.86041,-0.104386 0.4222,-3.885551 -0.63149,-0.08113 0.31936,-2.937805 -0.97203,-0.125057 0.72295,-6.958749 h -0.56121 l -0.71623,6.887435 -3.59306,-0.461987 -0.25632,2.946073 -0.86041,-0.110587 -0.34262,3.942912 -0.8077,-0.09767 -2.34301,28.480958 -3.82199,-0.37001 -2.09599,21.08295 -0.73949,-0.12299 2.95899,-33.658929 -13.68547,-1.110009 -1.35651,11.466488 h -0.6165 l 1.97301,-19.356963 -10.70322,-1.306897 0.8046,-6.517431 -2.97915,-0.323495 0.55242,-5.788277 -0.23151,-0.06615 -0.58239,5.826001 -0.32711,-0.03566 1.7694,-15.282271 -0.23151,-0.06615 -1.80247,15.319479 -0.47078,-0.05116 -0.76532,6.464205 -1.18443,-0.144694 -1.00355,8.549865 -1.07332,-0.10697 0.15916,-1.362707 -0.48938,-0.08165 -3.68659,30.622935 -5.26842,-2.8975 -0.98702,-9.31003 -2.68045,0.42323 -1.11931,-10.50478 -12.84625,1.33532 2.68046,25.95604 -2.82153,-19.46703 -1.48829,0.15813 -0.38602,-3.27991 -0.90485,0.091 -0.32453,-2.63499 -1.942,0.14573 -0.678,-6.681241 -0.79995,0.05064 -1.16168,-18.321362 -0.39223,0.04341 1.2914,18.294491 -1.24024,0.07855 -0.70486,-8.041886 -0.26149,0.04341 0.69195,8.015531 -4.31033,0.272852 0.18603,3.042708 -2.79311,0.176217 0.23926,3.77342 -19.90421,1.49603 -0.45527,3.51141 -1.34823,0.13539 0.0997,1.39889 -6.84041,2.25412 -1.00665,-1.11259 -8.46357,0.21962 -0.14314,-3.12952 -0.78032,0.0574 -0.0661,-4.07779 -1.59836,0.13488 -0.046,-2.85926 -0.85576,0.0724 -0.0362,-2.248448 -2.71353,0.229444 -0.68213,-10.984343 0.27233,11.018966 -2.54971,0.215491 0.11007,2.24173 -0.95395,0.0806 0.14004,2.85202 -1.10225,0.093 0.1943,3.9548 -0.89969,0.0656 1.41077,15.79955 -4.79661,-24.68687 -1.38699,0.27751 -0.65836,-4.015781 -1.49138,0.30179 -0.50178,-3.063379 -1.11621,0.225826 -0.38396,-2.343009 -2.33215,0.472839 -0.75345,-2.502689 -0.31936,0.119889 -1.495,-8.093563 1.19476,8.206218 -0.3669,0.137459 -0.21291,2.528011 -2.37711,0.481624 0.42788,2.334225 -0.8661,0.175183 0.55966,3.05201 -1.11001,0.224792 0.72812,3.973405 -0.94,0.1881 6.06475,30.95418 -3.9486,-16.14216 -11.14402,10.29756 1.41025,-0.14108 4.69739,8.72299 -21.15892,24.59694 27.51667,-14.2875 88.9,0.52917 99.21875,37.83542 222.77917,-27.51667 18.78541,-14.55208 -18.44021,-6.75256 -0.17674,-13.61106 1.68414,-0.18758 -14.96705,-11.5993 -0.18707,18.52187 -0.74827,1.12241 0.18707,-33.114774 -3.17914,-0.03256 0.10852,-28.42979 -0.52916,-0.132291 v 28.557946 l -1.0511,-0.01085 0.12505,-9.497094 h -3.70881 l -0.12764,-6.879167 h -7.54063 l 0.12764,6.879167 h -1.45056 l 0.12144,9.36997 -1.23041,-0.0124 v 13.283433 l -1.12241,0.37413 0.37413,-25.818061 -2.20916,-0.06925 0.36225,-10.753866 -2.59416,-0.05064 0.21291,-5.108732 -1.8433,-0.03256 0.0574,-1.885673 -6.42855,-0.03669 -0.11989,-6.247164 H 522.087 l -0.0641,-5.754688 h -0.39688 l 0.12661,5.754688 h -3.36775 l 0.12299,6.223392 -0.98289,-0.0057 0.0563,1.750798 -1.77612,-0.03101 v 5.081343 l -2.77813,-0.05426 v 10.52959 l -1.85983,-0.05788 -0.092,17.168463 -3.63233,-1.43402 -2.56729,-28.50989 -6.34741,0.627352 -0.71469,-6.790284 1.5875,-0.132291 -9.39271,-6.35 1.85209,13.890625 0.34416,0.0067 -1.27021,0.125573 0.66146,5.423959 -0.71003,0.07493 -1.53893,-14.36243 -8.46666,9.657291 1.5875,-0.132291 0.7214,5.651851 -5.35161,0.565857 3.43958,36.380208 -0.66146,0.13229 -2.51354,-27.252081 -2.0376,0.241329 -1.40198,-11.089246 -1.77405,0.193787 -1.02785,-8.131287 -1.34565,0.146761 -0.66818,-5.285982 -1.03042,0.112654 -0.63149,-4.997111 -1.60765,0.1757 -1.572,-5.89473 -1.02009,0.05374 -2.9486,-26.379814 z m -198.5238,65.727254 1.06867,0.137976 -3.44578,29.35945 -0.99942,-0.54984 z m 245.36384,6.523116 3.59358,1.43764 -0.093,17.40979 -1.77147,0.35398 z m -201.10194,3.56154 8.89868,8.24756 -0.0703,1.44591 -8.96224,-8.1008 z m 44.05571,3.43855 1.55184,0.73277 0.0119,1.17099 -1.56115,-0.709 z m 103.16786,0.2899 0.20568,1.09761 -22.80068,7.60057 1.93477,0.89814 2.04535,17.46301 -4.26176,-0.0253 -4.08347,-8.16746 1.00614,-10.07587 z m -97.89221,2.2009 19.61792,9.26094 -1.26452,14.88591 -2.43189,-14.87351 1.87068,-0.0935 -17.87798,-8.11992 z m -157.14907,0.29404 0.12351,1.72806 -2.07429,0.22014 1.57044,17.27492 -6.03839,2.14922 2.21072,-8.8439 2.68046,-0.98754 -13.52527,-5.26066 -0.29921,16.26361 -0.78393,-17.14159 z m -7.97522,1.12758 0.8046,0.85266 -8.98601,2.96106 -0.16123,-3.52588 z m 126.42691,2.50476 3.30936,3.067 -0.35554,13.46946 -1.21543,-12.15482 1.19063,-0.26458 -3.00034,-2.71198 z m 116.49211,3.73052 1.20665,0.56017 1.83348,16.65067 -1.05524,-0.006 z m -6.97115,10.09654 3.53777,7.07554 -4.24212,-0.0253 z" /></g></svg>
