<?xml version="1.0" encoding="UTF-8" standalone="no"?>
<!-- Created with Inkscape (http://www.inkscape.org/) -->

<svg
   width="1570.1979"
   height="571.92346"
   viewBox="0 0 415.44819 151.32142"
   version="1.1"
   id="svg5"
   xmlns="http://www.w3.org/2000/svg"
   xmlns:svg="http://www.w3.org/2000/svg">
  <defs
     id="defs2" />
  <g
     id="layer5"
     style="display:none"
     transform="translate(-8.3120776,-35.36316)">
    <rect
       style="fill:#cacaca;fill-opacity:1;stroke-width:0.552715"
       id="rect58230"
       width="442.15494"
       height="199.51302"
       x="-1.5173547"
       y="-0.83339179" />
  </g>
  <g
     id="letter_r_shadow"
     style="display:inline"
     type="layer"
     transform="translate(-8.3120776,-35.36316)">
    <path
       style="font-variation-settings:normal;display:inline;vector-effect:none;fill:#a2a2a2;fill-opacity:1;stroke:none;stroke-width:0.392955px;stroke-linecap:butt;stroke-linejoin:miter;stroke-miterlimit:4;stroke-dasharray:none;stroke-dashoffset:0;stroke-opacity:1;-inkscape-stroke:none;stop-color:#000000"
       d="m 8.8997936,137.37661 c -1.93335,6.10388 2.0667164,30.41491 3.8836864,29.00962 1.81697,-1.4053 24.495727,-48.10343 28.72764,-53.54403 4.231913,-5.4406 37.087322,-30.291217 40.87815,-34.485614 3.790828,-4.194397 17.8053,-27.986527 26.22242,-42.276133 C 97.630571,48.175379 85.254934,61.806268 74.548188,70.690312 63.841442,79.574357 39.912864,94.160112 35.728402,98.105997 31.543941,102.05188 10.833144,131.27273 8.8997936,137.37661 Z"
       id="path65796-3" />
    <path
       style="font-variation-settings:normal;display:inline;vector-effect:none;fill:#a2a2a2;fill-opacity:1;stroke:none;stroke-width:0.392955px;stroke-linecap:butt;stroke-linejoin:miter;stroke-miterlimit:4;stroke-dasharray:none;stroke-dashoffset:0;stroke-opacity:1;-inkscape-stroke:none;stop-color:#000000"
       d="m 33.814082,142.33492 c -3.300489,3.79345 -12.91298,7.42416 -12.53363,4.93464 0.379351,-2.48952 13.171005,-24.84353 17.96635,-30.51763 4.795345,-5.6741 17.513222,-13.64148 26.197957,-16.06046 8.684735,-2.418974 47.077151,-9.474159 73.099021,-14.256068 -23.6499,5.121736 -63.139331,13.673758 -68.297092,15.531708 -5.157761,1.85794 -16.365821,10.91531 -22.929128,19.41999 -6.563306,8.50467 -10.202989,17.15437 -13.503478,20.94782 z"
       id="path83980-6" />
    <path
       style="font-variation-settings:normal;display:inline;vector-effect:none;fill:#a2a2a2;fill-opacity:1;stroke:none;stroke-width:0.392955px;stroke-linecap:butt;stroke-linejoin:miter;stroke-miterlimit:4;stroke-dasharray:none;stroke-dashoffset:0;stroke-opacity:1;-inkscape-stroke:none;stop-color:#000000"
       d="m 64.72672,90.820278 7.885563,8.566134 1.242744,-0.299532 -8.390496,-8.760634 z"
       id="path88086-7" />
    <path
       style="font-variation-settings:normal;display:inline;vector-effect:none;fill:#a2a2a2;fill-opacity:1;stroke:none;stroke-width:0.392955px;stroke-linecap:butt;stroke-linejoin:miter;stroke-miterlimit:4;stroke-dasharray:none;stroke-dashoffset:0;stroke-opacity:1;-inkscape-stroke:none;stop-color:#000000"
       d="m 77.667031,137.28007 c 0.277135,-1.44406 8.394333,-7.76456 12.469773,-7.18968 4.075439,0.57488 32.661416,13.20516 35.529276,16.01422 2.86785,2.80906 13.0069,28.47238 10.08804,28.24813 -2.91885,-0.22425 -45.42542,-29.02091 -48.352687,-30.88216 -2.927267,-1.86126 -10.011537,-4.74644 -9.734402,-6.19051 z"
       id="path94865-5" />
    <path
       style="font-variation-settings:normal;display:inline;vector-effect:none;fill:#a2a2a2;fill-opacity:1;stroke:none;stroke-width:0.392955px;stroke-linecap:butt;stroke-linejoin:miter;stroke-miterlimit:4;stroke-dasharray:none;stroke-dashoffset:0;stroke-opacity:1;-inkscape-stroke:none;stop-color:#000000"
       d="m 90.521565,123.48768 c -2.246279,0.41401 -14.143782,7.17173 -13.116459,7.97243 1.027322,0.80071 30.546134,6.9102 36.515974,4.35531 5.96985,-2.55489 80.70373,-54.011269 83.80321,-55.728402 3.09949,-1.717132 6.63612,5.382619 10.3321,5.466987 3.69597,0.08437 31.787,-6.318283 32.97862,-6.674356 1.19161,-0.356073 1.84492,-2.884832 0.88457,-2.975018 -0.96035,-0.09018 -37.76229,-0.892212 -39.5404,-0.430214 -1.77812,0.461998 -20.79989,10.609239 -41.6813,21.748304 -20.8814,11.139069 -43.632,23.275019 -49.80214,25.510939 -6.17013,2.23593 -18.127896,0.34001 -20.374175,0.75402 z"
       id="path100913-3" />
    <path
       style="font-variation-settings:normal;display:inline;vector-effect:none;fill:#a2a2a2;fill-opacity:1;stroke:none;stroke-width:0.392955px;stroke-linecap:butt;stroke-linejoin:miter;stroke-miterlimit:4;stroke-dasharray:none;stroke-dashoffset:0;stroke-opacity:1;-inkscape-stroke:none;stop-color:#000000"
       d="m 123.23859,108.00022 c -2.41081,1.70885 11.36411,7.8983 16.41215,5.7914 5.04804,-2.10689 51.38331,-33.040676 50.78763,-34.88843 -0.59569,-1.847754 -29.63627,2.916244 -59.00052,8.584362 C 102.0736,93.155669 77.615484,98.816873 79.796878,98.67631 81.978272,98.535746 157.6483,87.48782 163.03903,88.565359 c 5.39073,1.077539 -37.38962,17.726011 -39.80044,19.434861 z"
       id="path1145-5" />
    <path
       style="font-variation-settings:normal;display:inline;vector-effect:none;fill:#a2a2a2;fill-opacity:1;stroke:none;stroke-width:0.392955px;stroke-linecap:butt;stroke-linejoin:miter;stroke-miterlimit:4;stroke-dasharray:none;stroke-dashoffset:0;stroke-opacity:1;-inkscape-stroke:none;stop-color:#000000"
       d="m 98.048282,60.886198 c -4.779798,0.437149 -19.772919,16.808818 -17.360541,17.759955 2.412377,0.951137 38.574239,-0.436985 41.678169,1.348066 3.10392,1.78505 -25.602704,9.520873 -26.936945,10.027626 -1.334241,0.506753 -4.133636,6.284608 -2.411665,5.821152 1.72197,-0.463456 61.18091,-21.18848 61.40743,-23.183361 0.22652,-1.994881 -51.59665,-12.210587 -56.376448,-11.773438 z"
       id="path5327-6" />
    <path
       style="font-variation-settings:normal;display:inline;vector-effect:none;fill:#a2a2a2;fill-opacity:1;stroke:none;stroke-width:0.392955px;stroke-linecap:butt;stroke-linejoin:miter;stroke-miterlimit:4;stroke-dasharray:none;stroke-dashoffset:0;stroke-opacity:1;-inkscape-stroke:none;stop-color:#000000"
       d="m 98.35515,76.687625 4.52796,12.336455 1.19082,-0.67622 -4.373796,-11.669919 z"
       id="path9585-2" />
    <path
       style="font-variation-settings:normal;display:inline;vector-effect:none;fill:#a2a2a2;fill-opacity:1;stroke:none;stroke-width:0.392955px;stroke-linecap:butt;stroke-linejoin:miter;stroke-miterlimit:4;stroke-dasharray:none;stroke-dashoffset:0;stroke-opacity:1;-inkscape-stroke:none;stop-color:#000000"
       d="m 60.243137,79.131449 c 0.522832,1.419195 13.490595,-5.36393 14.433056,-7.780971 0.942461,-2.417041 -2.088438,-15.431158 -1.959799,-19.946454 0.128638,-4.515295 2.567019,-8.531363 4.639229,-11.944339 -3.283512,2.901221 -7.607505,6.721781 -9.733142,11.524093 -2.125637,4.802311 -7.902176,26.728475 -7.379344,28.147671 z"
       id="path15561-9" />
  </g>
  <g
     id="letter_d_shadow"
     style="display:inline"
     type="layer"
     transform="translate(-8.3120776,-35.36316)">
    <path
       style="font-variation-settings:normal;display:inline;vector-effect:none;fill:#64382e;fill-opacity:1;stroke:none;stroke-width:0.392955px;stroke-linecap:butt;stroke-linejoin:miter;stroke-miterlimit:4;stroke-dasharray:none;stroke-dashoffset:0;stroke-opacity:1;-inkscape-stroke:none;stop-color:#000000"
       d="m 196.84614,88.702871 c -0.67533,0.89584 -23.36485,15.772639 -21.91098,22.051729 1.45387,6.2791 33.79874,31.42224 37.5876,32.45171 3.78885,1.02948 42.38427,-2.25713 63.90316,-4.08958 0.42448,1.03513 1.14215,2.78525 -0.38194,3.52186 -1.52409,0.73661 -24.22631,8.96987 -27.31942,9.19591 -3.09311,0.22604 -8.7391,-5.68025 -11.03173,-5.98571 -2.29264,-0.30546 -23.34944,2.62351 -26.86818,1.4801 -3.51875,-1.14341 -51.83216,-26.66218 -53.68662,-30.65885 -1.85447,-3.99667 18.36215,-22.805967 24.15753,-26.28941 5.79538,-3.483444 16.22591,-2.573598 15.55058,-1.677759 z"
       id="path72790-1" />
    <path
       style="font-variation-settings:normal;display:inline;vector-effect:none;fill:#64382e;fill-opacity:1;stroke:none;stroke-width:0.392955px;stroke-linecap:butt;stroke-linejoin:miter;stroke-miterlimit:4;stroke-dasharray:none;stroke-dashoffset:0;stroke-opacity:1;-inkscape-stroke:none;stop-color:#000000"
       d="m 207.38407,149.42509 c -0.52393,-1.417 1.35729,-4.92452 2.91328,-3.85347 1.55599,1.07105 17.04927,16.03148 20.79646,17.01802 3.74718,0.98654 26.35647,-4.50677 27.66456,-4.57916 1.30809,-0.0724 -0.12266,4.725 -1.154,5.72077 -1.03134,0.99576 -28.04305,23.70729 -30.75008,22.93402 -2.70704,-0.77327 -18.94629,-35.82319 -19.47022,-37.24018 z"
       id="path75442-2" />
    <path
       style="font-variation-settings:normal;display:inline;vector-effect:none;fill:#a2a2a2;fill-opacity:1;stroke:none;stroke-width:0.392955px;stroke-linecap:butt;stroke-linejoin:miter;stroke-miterlimit:4;stroke-dasharray:none;stroke-dashoffset:0;stroke-opacity:1;-inkscape-stroke:none;stop-color:#000000"
       d="m 234.31216,181.77619 c 0.95751,-0.86292 28.82038,-22.74959 31.07164,-22.85939 2.25126,-0.10979 52.12075,11.89632 78.67165,18.28847 -0.83188,0.98806 -2.3987,2.84903 -3.93855,2.68131 -1.53984,-0.16773 -69.4947,-10.43362 -73.47613,-10.33062 -3.98143,0.103 -27.84606,12.31462 -28.96479,12.81073 -1.11874,0.49612 -4.32132,0.27242 -3.36382,-0.5905 z"
       id="path85775-7" />
    <path
       style="font-variation-settings:normal;display:inline;vector-effect:none;fill:#64382e;fill-opacity:1;stroke:none;stroke-width:0.392955px;stroke-linecap:butt;stroke-linejoin:miter;stroke-miterlimit:4;stroke-dasharray:none;stroke-dashoffset:0;stroke-opacity:1;-inkscape-stroke:none;stop-color:#000000"
       d="m 139.26517,139.526 c -1.1994,0.99003 -1.76968,5.99452 -0.65668,5.33825 1.113,-0.65627 17.2667,-14.45655 20.17638,-13.88112 2.90969,0.57543 17.03832,19.32219 19.15845,21.19642 2.12013,1.87423 6.06045,0.81196 8.61872,0.12228 -5.22044,-11.25326 -14.07084,-30.33129 -16.53057,-30.95211 -2.45972,-0.62082 -29.5669,17.18625 -30.7663,18.17628 z"
       id="path89463-0" />
    <path
       style="font-variation-settings:normal;display:inline;vector-effect:none;fill:#64382e;fill-opacity:1;stroke:none;stroke-width:0.392955px;stroke-linecap:butt;stroke-linejoin:miter;stroke-miterlimit:4;stroke-dasharray:none;stroke-dashoffset:0;stroke-opacity:1;-inkscape-stroke:none;stop-color:#000000"
       d="m 182.90497,147.8605 26.91288,2.358 0.0291,1.23038 -26.39752,-2.34007 z"
       id="path92892-9" />
    <path
       style="font-variation-settings:normal;display:inline;vector-effect:none;fill:#64382e;fill-opacity:1;stroke:none;stroke-width:0.392955px;stroke-linecap:butt;stroke-linejoin:miter;stroke-miterlimit:4;stroke-dasharray:none;stroke-dashoffset:0;stroke-opacity:1;-inkscape-stroke:none;stop-color:#000000"
       d="m 221.54178,99.610392 c -0.2211,1.828408 3.34871,10.542778 7.29069,12.125968 3.94198,1.58319 45.96216,9.0839 48.26759,9.99601 2.30543,0.91211 12.84477,15.13603 13.23169,15.52965 0.38693,0.39361 2.74998,-0.83488 2.60626,-1.24451 -0.14372,-0.40963 -9.09138,-18.33076 -12.23742,-20.19866 -3.14604,-1.86791 -50.82227,-17.659134 -52.20495,-18.049653 -1.38267,-0.39052 -6.73277,0.01278 -6.95386,1.841195 z"
       id="path1898-3" />
  </g>
  <g
     id="letter_p_shadow"
     style="display:inline"
     type="layer"
     transform="translate(-8.3120776,-35.36316)">
    <path
       style="font-variation-settings:normal;display:inline;vector-effect:none;fill:#a2a2a2;fill-opacity:1;stroke:none;stroke-width:0.392955px;stroke-linecap:butt;stroke-linejoin:miter;stroke-miterlimit:4;stroke-dasharray:none;stroke-dashoffset:0;stroke-opacity:1;-inkscape-stroke:none;stop-color:#000000"
       d="m 306.15467,67.930632 c -0.27217,0.83775 -5.45225,34.828948 -3.20275,40.460238 2.24949,5.63128 32.10787,49.2777 49.57856,74.81604 0,0 -1.16511,-4.48937 -1.16511,-4.48937 -14.33482,-25.2029 -38.45285,-67.60622 -40.15203,-72.57301 -1.69917,-4.96679 6.80556,-19.207733 7.05698,-21.227346 0.25142,-2.019614 -4.37641,-14.355526 -5.50397,-15.885222 -1.12756,-1.529696 -6.33952,-1.93908 -6.61168,-1.10133 z"
       id="path3119-6" />
    <path
       style="font-variation-settings:normal;display:inline;vector-effect:none;fill:#a2a2a2;fill-opacity:1;stroke:none;stroke-width:0.392955px;stroke-linecap:butt;stroke-linejoin:miter;stroke-miterlimit:4;stroke-dasharray:none;stroke-dashoffset:0;stroke-opacity:1;-inkscape-stroke:none;stop-color:#000000"
       d="m 331.6362,89.912669 c 3.15795,0.286437 72.08926,18.623291 76.49227,22.504461 4.403,3.88117 -16.96029,19.23115 -25.88669,22.38304 -8.92639,3.15188 -44.02195,6.66818 -45.9264,6.76608 -1.90446,0.0979 -2.84816,-1.99229 -1.91114,-2.23657 0.93701,-0.24428 37.5901,-7.81807 43.69371,-10.2699 6.10361,-2.45184 11.68588,-11.2722 8.44932,-12.12322 -3.23656,-0.85102 -63.39515,-4.43985 -66.45575,-4.99709 -3.0606,-0.55723 -2.56407,-6.80584 -1.26146,-9.29963 1.3026,-2.49379 9.64818,-13.013608 12.80614,-12.727171 z"
       id="path3745-0" />
    <path
       style="font-variation-settings:normal;display:inline;vector-effect:none;fill:#a2a2a2;fill-opacity:1;stroke:none;stroke-width:0.392955px;stroke-linecap:butt;stroke-linejoin:miter;stroke-miterlimit:4;stroke-dasharray:none;stroke-dashoffset:0;stroke-opacity:1;-inkscape-stroke:none;stop-color:#000000"
       d="m 341.70228,112.40987 c -3.19071,1.202 -16.61776,14.51281 -16.72582,17.63152 -0.10807,3.1187 8.8784,18.39179 14.4908,27.93044 0,0 8.31305,14.71524 8.31305,14.71524 0,0 1.60312,0.35927 1.60312,0.35927 -1.5825,-6.36838 -3.85523,-15.5144 -4.93105,-17.48848 -1.07581,-1.97409 -5.23725,-3.15517 -6.92746,-5.29603 -1.69022,-2.14085 -9.56975,-16.85917 -8.20777,-18.65121 1.36199,-1.79204 32.59899,-16.46751 33.68065,-18.03788 1.08166,-1.57037 -18.10481,-2.36487 -21.29552,-1.16287 z"
       id="path4970-6" />
  </g>
  <g
     id="letter_r"
     style="display:inline"
     type="layer"
     transform="translate(-8.3120776,-35.36316)">
    <path
       style="font-variation-settings:normal;opacity:1;vector-effect:none;fill:#ffffff;fill-opacity:1;stroke:none;stroke-width:0.392955px;stroke-linecap:butt;stroke-linejoin:miter;stroke-miterlimit:4;stroke-dasharray:none;stroke-dashoffset:0;stroke-opacity:1;-inkscape-stroke:none;stop-color:#000000;stop-opacity:1"
       d="m 8.8623374,137.1685 c -1.9772639,5.942 1.8712526,28.10074 3.7053166,26.64403 1.834063,-1.45671 24.92751,-46.62652 29.108506,-51.91683 C 45.857155,106.6054 77.635691,82.205083 81.425468,78.018939 85.215244,73.832794 99.99499,49.79832 108.87174,35.36316 97.89688,47.408827 85.528296,60.984204 74.824284,69.846745 64.120272,78.709286 40.191688,93.295041 35.987625,97.299854 31.783562,101.30467 10.839601,131.2265 8.8623374,137.1685 Z"
       id="path65796" />
    <path
       style="font-variation-settings:normal;opacity:1;vector-effect:none;fill:#ffffff;fill-opacity:1;stroke:none;stroke-width:0.392955px;stroke-linecap:butt;stroke-linejoin:miter;stroke-miterlimit:4;stroke-dasharray:none;stroke-dashoffset:0;stroke-opacity:1;-inkscape-stroke:none;stop-color:#000000;stop-opacity:1"
       d="m 33.959788,141.49499 c -3.233037,3.70182 -12.368617,6.80648 -11.967499,4.30428 0.401117,-2.50219 12.861396,-24.40597 17.595045,-29.99624 4.733649,-5.59027 17.45152,-13.55765 26.136257,-15.976626 8.684736,-2.418978 47.077149,-9.474164 73.099009,-14.256075 -24.61507,5.544764 -65.716124,14.803141 -70.873877,16.661091 -5.157753,1.85795 -14.939827,10.29031 -20.980745,18.57365 -6.040918,8.28333 -9.775152,16.9881 -13.00819,20.68992 z"
       id="path83980" />
    <path
       style="font-variation-settings:normal;opacity:1;vector-effect:none;fill:#ffffff;fill-opacity:1;stroke:none;stroke-width:0.392955px;stroke-linecap:butt;stroke-linejoin:miter;stroke-miterlimit:4;stroke-dasharray:none;stroke-dashoffset:0;stroke-opacity:1;-inkscape-stroke:none;stop-color:#000000;stop-opacity:1"
       d="m 65.005543,89.955205 7.885561,8.566138 1.242747,-0.299544 -8.390499,-8.760627 z"
       id="path88086" />
    <path
       style="font-variation-settings:normal;opacity:1;vector-effect:none;fill:#ffffff;fill-opacity:1;stroke:none;stroke-width:0.392955px;stroke-linecap:butt;stroke-linejoin:miter;stroke-miterlimit:4;stroke-dasharray:none;stroke-dashoffset:0;stroke-opacity:1;-inkscape-stroke:none;stop-color:#000000;stop-opacity:1"
       d="m 77.577051,136.79849 c 0.281602,-1.39891 8.690862,-8.06302 12.802441,-7.53066 4.111579,0.53237 32.697558,13.16266 35.565408,15.97172 2.86785,2.80906 13.00691,28.47238 10.08501,28.21743 -2.9219,-0.25495 -45.461908,-29.38922 -48.409757,-31.22628 -2.947849,-1.83706 -10.324704,-4.0333 -10.043102,-5.43221 z"
       id="path94865" />
    <path
       style="font-variation-settings:normal;opacity:1;vector-effect:none;fill:#ffffff;fill-opacity:1;stroke:none;stroke-width:0.392955px;stroke-linecap:butt;stroke-linejoin:miter;stroke-miterlimit:4;stroke-dasharray:none;stroke-dashoffset:0;stroke-opacity:1;-inkscape-stroke:none;stop-color:#000000;stop-opacity:1"
       d="m 90.787369,122.63637 c -2.259296,0.42777 -14.302906,7.3399 -13.261379,8.06943 1.041528,0.72953 30.94926,5.50009 36.92818,2.93563 5.97891,-2.56445 80.46869,-52.798672 83.55856,-54.467645 3.08987,-1.668974 6.6265,5.430775 10.32247,5.515146 3.69598,0.08437 31.78702,-6.318282 32.97862,-6.674359 1.19161,-0.356077 1.84492,-2.884826 0.88457,-2.97501 -0.96035,-0.09019 -37.76229,-0.892219 -39.5404,-0.430222 -1.77811,0.461997 -20.79988,10.609239 -41.68128,21.748302 -20.8814,11.139058 -43.63201,23.275028 -49.80215,25.510948 -6.17014,2.23591 -18.127894,0.34001 -20.387191,0.76778 z"
       id="path100913" />
    <path
       style="font-variation-settings:normal;display:inline;vector-effect:none;fill:#ffffff;fill-opacity:1;stroke:none;stroke-width:0.392955px;stroke-linecap:butt;stroke-linejoin:miter;stroke-miterlimit:4;stroke-dasharray:none;stroke-dashoffset:0;stroke-opacity:1;-inkscape-stroke:none;stop-color:#000000"
       d="m 123.51742,107.13515 c -2.41082,1.70885 11.3641,7.8983 16.41215,5.7914 5.04804,-2.1069 51.3833,-33.040676 50.78761,-34.888431 -0.59569,-1.847755 -29.63625,2.916237 -59.00051,8.584355 -29.36426,5.668119 -53.82236,11.329324 -51.640964,11.188761 2.181396,-0.140563 77.851434,-11.188486 83.242144,-10.110945 5.39072,1.077541 -37.38961,17.72601 -39.80043,19.43486 z"
       id="path1145" />
    <path
       style="font-variation-settings:normal;opacity:1;vector-effect:none;fill:#ffffff;fill-opacity:1;stroke:none;stroke-width:0.392955px;stroke-linecap:butt;stroke-linejoin:miter;stroke-miterlimit:4;stroke-dasharray:none;stroke-dashoffset:0;stroke-opacity:1;-inkscape-stroke:none;stop-color:#000000;stop-opacity:1"
       d="m 98.4136,59.952186 c -4.693309,0.368207 -18.474551,15.773891 -16.081869,16.775887 2.392681,1.001996 37.494189,0.832606 40.331159,2.830437 2.83697,1.99783 -25.640817,9.143038 -26.965077,9.624023 -1.32426,0.480984 -4.123653,6.258852 -2.401682,5.795396 C 95.018103,94.514472 154.47704,73.789444 154.70356,71.794563 154.93008,69.799681 103.10691,59.583979 98.4136,59.952186 Z"
       id="path5327" />
    <path
       style="font-variation-settings:normal;opacity:1;vector-effect:none;fill:#ffffff;fill-opacity:1;stroke:none;stroke-width:0.392955px;stroke-linecap:butt;stroke-linejoin:miter;stroke-miterlimit:4;stroke-dasharray:none;stroke-dashoffset:0;stroke-opacity:1;-inkscape-stroke:none;stop-color:#000000;stop-opacity:1"
       d="m 98.633978,75.822553 4.527962,12.336456 1.19082,-0.676219 -4.373798,-11.669919 z"
       id="path9585" />
    <path
       style="font-variation-settings:normal;opacity:1;vector-effect:none;fill:#ffffff;fill-opacity:1;stroke:none;stroke-width:0.392955px;stroke-linecap:butt;stroke-linejoin:miter;stroke-miterlimit:4;stroke-dasharray:none;stroke-dashoffset:0;stroke-opacity:1;-inkscape-stroke:none;stop-color:#000000;stop-opacity:1"
       d="m 61.517341,76.008867 c 0.522857,1.419189 12.665948,-3.493542 13.523044,-5.717023 0.857097,-2.223481 -2.173803,-15.237599 -2.045165,-19.75289 0.128638,-4.515291 2.567024,-8.53136 4.639235,-11.944333 -3.283515,2.901218 -7.60751,6.721774 -9.604766,11.232912 -1.997256,4.511138 -7.035205,24.762145 -6.512348,26.181334 z"
       id="path15561" />
  </g>
  <g
     id="letter_d"
     style="display:inline"
     type="layer"
     transform="translate(-8.3120776,-35.36316)">
    <path
       style="font-variation-settings:normal;opacity:1;vector-effect:none;fill:#bc5a45;fill-opacity:1;stroke:none;stroke-width:0.392955px;stroke-linecap:butt;stroke-linejoin:miter;stroke-miterlimit:4;stroke-dasharray:none;stroke-dashoffset:0;stroke-opacity:1;-inkscape-stroke:none;stop-color:#000000;stop-opacity:1"
       d="m 197.06384,88.383099 c -0.63112,0.859781 -23.51674,14.702801 -22.09395,20.818191 1.4228,6.1154 33.76768,31.25853 37.5507,32.34705 3.78303,1.08853 42.27714,-1.17203 63.73956,-2.43241 0.55239,0.87868 1.48637,2.36434 -0.0286,2.98802 -1.51501,0.62369 -24.37594,7.59201 -27.44944,7.77245 -3.07349,0.18043 -8.39352,-4.91505 -10.68615,-5.1895 -2.29262,-0.27444 -23.71195,2.12254 -27.24915,0.95205 -3.5372,-1.17049 -51.85061,-26.68925 -53.77677,-30.62745 -1.92616,-3.93819 17.59002,-22.176254 23.41942,-25.479563 5.82939,-3.303309 17.20555,-2.008619 16.57442,-1.148838 z"
       id="path72790" />
    <path
       style="font-variation-settings:normal;opacity:1;vector-effect:none;fill:#bc5a45;fill-opacity:1;stroke:none;stroke-width:0.392955px;stroke-linecap:butt;stroke-linejoin:miter;stroke-miterlimit:4;stroke-dasharray:none;stroke-dashoffset:0;stroke-opacity:1;-inkscape-stroke:none;stop-color:#000000;stop-opacity:1"
       d="m 207.38024,147.68857 c -0.51643,-1.39749 1.36478,-4.90502 2.92078,-3.83397 1.55599,1.07105 17.04927,16.03148 20.79645,17.01802 3.74719,0.98654 26.35648,-4.50677 27.66457,-4.57917 1.3081,-0.0724 -0.12268,4.72501 -1.16144,5.70144 -1.03877,0.97644 -28.25527,23.15537 -30.96231,22.38211 -2.70705,-0.77327 -18.74161,-35.29094 -19.25805,-36.68843 z"
       id="path75442" />
    <path
       style="font-variation-settings:normal;opacity:1;vector-effect:none;fill:#fffcfc;fill-opacity:1;stroke:none;stroke-width:0.392955px;stroke-linecap:butt;stroke-linejoin:miter;stroke-miterlimit:4;stroke-dasharray:none;stroke-dashoffset:0;stroke-opacity:1;-inkscape-stroke:none;stop-color:#000000;stop-opacity:1"
       d="m 234.31583,180.05917 c 0.95751,-0.86292 28.82039,-22.7496 31.07345,-22.82525 2.25306,-0.0757 52.17831,12.98386 78.7589,19.93684 -0.9443,0.77638 -2.72278,2.23861 -4.26438,2.03823 -1.5416,-0.20038 -69.2768,-11.39342 -73.24879,-11.33023 -3.972,0.0632 -27.83663,12.2748 -28.95536,12.77091 -1.11874,0.49612 -4.32133,0.27242 -3.36382,-0.5905 z"
       id="path85775" />
    <path
       style="font-variation-settings:normal;opacity:1;vector-effect:none;fill:#a34734;fill-opacity:1;stroke:none;stroke-width:0.392955px;stroke-linecap:butt;stroke-linejoin:miter;stroke-miterlimit:4;stroke-dasharray:none;stroke-dashoffset:0;stroke-opacity:1;-inkscape-stroke:none;stop-color:#000000;stop-opacity:1"
       d="m 139.26885,137.80898 c -1.1994,0.99002 -1.76969,5.99451 -0.65669,5.33824 1.113,-0.65627 17.26669,-14.45654 20.17638,-13.8811 2.90969,0.57543 17.03833,19.32218 19.11169,21.2201 2.07336,1.89791 5.70029,0.99438 8.0551,0.40775 -5.01698,-11.35631 -13.52245,-30.60905 -15.95118,-31.24557 -2.42873,-0.63651 -29.5359,17.17055 -30.7353,18.16058 z"
       id="path89463" />
    <path
       style="font-variation-settings:normal;opacity:1;vector-effect:none;fill:#a34734;fill-opacity:1;stroke:none;stroke-width:0.392955px;stroke-linecap:butt;stroke-linejoin:miter;stroke-miterlimit:4;stroke-dasharray:none;stroke-dashoffset:0;stroke-opacity:1;-inkscape-stroke:none;stop-color:#000000;stop-opacity:1"
       d="m 183.07434,147.31088 26.91288,2.358 0.0291,1.23039 -26.39752,-2.34007 z"
       id="path92892" />
    <path
       style="font-variation-settings:normal;opacity:1;vector-effect:none;fill:#bc5a45;fill-opacity:1;stroke:none;stroke-width:0.392955px;stroke-linecap:butt;stroke-linejoin:miter;stroke-miterlimit:4;stroke-dasharray:none;stroke-dashoffset:0;stroke-opacity:1;-inkscape-stroke:none;stop-color:#000000;stop-opacity:1"
       d="m 221.50448,99.481435 c -0.22101,1.828435 3.3824,9.238785 7.32802,10.679945 3.94562,1.44115 45.96581,8.94186 48.27123,9.85397 2.30543,0.91211 12.84477,15.13603 13.22426,15.5654 0.37948,0.42937 2.48198,0.42937 2.33813,0.0197 -0.14385,-0.40967 -8.84325,-19.50147 -11.97557,-21.434 -3.13233,-1.93253 -50.80856,-17.723749 -52.1925,-18.067884 -1.38394,-0.344134 -6.77257,1.554439 -6.99357,3.382869 z"
       id="path1898" />
  </g>
  <g
     id="letter_p"
     style="display:inline"
     type="layer"
     transform="translate(-8.3120776,-35.36316)">
    <path
       style="font-variation-settings:normal;opacity:1;vector-effect:none;fill:#ffffff;fill-opacity:1;stroke:none;stroke-width:0.392955px;stroke-linecap:butt;stroke-linejoin:miter;stroke-miterlimit:4;stroke-dasharray:none;stroke-dashoffset:0;stroke-opacity:1;-inkscape-stroke:none;stop-color:#000000;stop-opacity:1"
       d="m 306.43898,66.661714 c -0.26073,0.823397 -5.44081,34.814596 -3.2087,40.500026 2.2321,5.68543 31.88615,49.96802 49.23729,75.87859 0,0 -0.80646,-5.60607 -0.80646,-5.60607 -14.33482,-25.20289 -38.45283,-67.6062 -40.20401,-72.6106 -1.75117,-5.004408 5.98685,-19.800262 6.20795,-21.781946 0.2211,-1.981684 -4.08584,-13.333225 -5.12892,-14.801758 -1.04308,-1.468532 -5.83642,-2.401638 -6.09715,-1.578242 z"
       id="path3119" />
    <path
       style="font-variation-settings:normal;opacity:1;vector-effect:none;fill:#ffffff;fill-opacity:1;stroke:none;stroke-width:0.392955px;stroke-linecap:butt;stroke-linejoin:miter;stroke-miterlimit:4;stroke-dasharray:none;stroke-dashoffset:0;stroke-opacity:1;-inkscape-stroke:none;stop-color:#000000;stop-opacity:1"
       d="m 331.93194,88.629395 c 3.15796,0.286443 72.08926,18.623295 76.49227,22.504465 4.403,3.88117 -16.96028,19.23115 -25.88668,22.38304 -8.9264,3.15188 -44.02195,6.66817 -45.9264,6.76607 -1.90445,0.0979 -2.84816,-1.99228 -1.91115,-2.23656 0.93702,-0.24428 37.5901,-7.81807 43.69371,-10.2699 6.10362,-2.45183 11.68589,-11.2722 8.44933,-12.12321 -3.23656,-0.85102 -63.39515,-4.43987 -66.45575,-4.9971 -3.0606,-0.55723 -2.56407,-6.80584 -1.26147,-9.29964 1.3026,-2.493786 9.64819,-13.013608 12.80614,-12.727165 z"
       id="path3745" />
    <path
       style="font-variation-settings:normal;opacity:1;vector-effect:none;fill:#ffffff;fill-opacity:1;stroke:none;stroke-width:0.392955px;stroke-linecap:butt;stroke-linejoin:miter;stroke-miterlimit:4;stroke-dasharray:none;stroke-dashoffset:0;stroke-opacity:1;-inkscape-stroke:none;stop-color:#000000;stop-opacity:1"
       d="m 341.99803,111.12659 c -3.19071,1.202 -16.61777,14.51282 -16.72583,17.63153 -0.10806,3.1187 8.87841,18.39179 14.49081,27.93043 0,0 8.31304,14.71525 8.31304,14.71525 0,0 1.60313,0.35927 1.60313,0.35927 -1.58251,-6.36838 -3.85524,-15.5144 -4.93105,-17.48849 -1.07582,-1.97408 -5.23725,-3.15516 -6.92747,-5.29601 -1.69022,-2.14086 -9.56975,-16.85919 -8.20776,-18.65123 1.36199,-1.79204 32.59899,-16.46752 33.68065,-18.03788 1.08166,-1.57037 -18.10481,-2.36487 -21.29552,-1.16287 z"
       id="path4970" />
  </g>
  <g
     id="letter_r_pieces"
     style="display:inline"
     type="layer"
     transform="translate(-8.3120776,-35.36316)">
    <path
       style="font-variation-settings:normal;display:inline;vector-effect:none;fill:#7c3c2e;fill-opacity:1;stroke:none;stroke-width:0.392955px;stroke-linecap:butt;stroke-linejoin:miter;stroke-miterlimit:4;stroke-dasharray:none;stroke-dashoffset:0;stroke-opacity:1;-inkscape-stroke:none;stop-color:#000000"
       d="m 37.697759,135.53066 c 6.047465,-9.73107 12.657292,-20.36705 19.689446,-25.03865 7.032153,-4.67159 25.724389,-5.79807 26.25868,-5.86431 0.534291,-0.0662 -0.131122,-1.30267 -0.06404,-1.73964 0.06708,-0.43696 1.131091,-1.85978 1.65161,-1.80647 0.520519,0.0533 19.182195,3.94501 19.145645,4.12503 -0.0366,0.18002 -21.198513,8.57382 -21.765474,8.74854 -0.566961,0.17472 -1.410105,-1.22889 -1.366644,-1.48191 0.04346,-0.25302 1.37923,-1.87153 0.573055,-1.98926 -0.806175,-0.11772 -16.979501,-1.00449 -23.371287,2.55276 -6.391787,3.55725 -14.068029,13.68054 -20.750994,22.49391 z"
       id="path6292-5" />
    <path
       style="font-variation-settings:normal;display:inline;vector-effect:none;fill:#7c3c2e;fill-opacity:1;stroke:none;stroke-width:0.392955px;stroke-linecap:butt;stroke-linejoin:miter;stroke-miterlimit:4;stroke-dasharray:none;stroke-dashoffset:0;stroke-opacity:1;-inkscape-stroke:none;stop-color:#000000"
       d="m 50.732284,120.16267 c 2.553574,-3.34673 6.336342,-8.30444 12.953767,-7.70257 6.617424,0.60187 55.003489,12.54347 61.072539,12.36136 6.06905,-0.18211 21.43954,-10.97595 30.89493,-17.61594 0.34397,1.98155 0.93867,5.40745 -0.35589,6.33851 -1.29455,0.93106 -25.27404,12.7754 -30.0176,13.00009 -4.74355,0.22469 -50.202135,-6.99761 -57.17727,-7.61198 -6.975136,-0.61438 -12.138477,1.61602 -13.455921,1.89643 -1.317445,0.28041 -2.80718,-0.2624 -3.914555,-0.6659 z"
       id="path8865-3" />
    <path
       style="font-variation-settings:normal;opacity:1;vector-effect:none;fill:#bc5a45;fill-opacity:1;stroke:none;stroke-width:0.392955px;stroke-linecap:butt;stroke-linejoin:miter;stroke-miterlimit:4;stroke-dasharray:none;stroke-dashoffset:0;stroke-opacity:1;-inkscape-stroke:none;stop-color:#000000;stop-opacity:1"
       d="m 37.199119,136.44212 c 6.047465,-10.28901 12.65729,-21.53481 19.689445,-26.45944 7.032154,-4.92462 25.72439,-6.0511 26.258681,-6.11734 0.534291,-0.0662 -0.131122,-1.30267 -0.06404,-1.73964 0.06708,-0.43696 1.131091,-1.85978 1.689654,-1.78801 0.558563,0.0718 20.685198,4.67432 20.648618,4.85432 -0.0366,0.18001 -22.664349,7.86254 -23.2689,8.01903 -0.604552,0.15648 -1.447696,-1.24713 -1.404235,-1.50015 0.04346,-0.25302 1.37923,-1.87153 0.573055,-1.98926 -0.806175,-0.11772 -16.979501,-1.00449 -23.371289,2.79027 -6.391787,3.79476 -14.068027,14.55891 -20.750992,23.93022 z"
       id="path6292" />
    <path
       style="font-variation-settings:normal;display:inline;vector-effect:none;fill:#7c3c2e;fill-opacity:1;stroke:none;stroke-width:0.392955px;stroke-linecap:butt;stroke-linejoin:miter;stroke-miterlimit:4;stroke-dasharray:none;stroke-dashoffset:0;stroke-opacity:1;-inkscape-stroke:none;stop-color:#000000"
       d="m 151.45233,96.325022 -1.14842,15.743028 0.59373,-0.26159 1.6719,-15.959326 z"
       id="path11033-6" />
    <path
       style="font-variation-settings:normal;display:inline;vector-effect:none;fill:#7c3c2e;fill-opacity:1;stroke:none;stroke-width:0.392955px;stroke-linecap:butt;stroke-linejoin:miter;stroke-miterlimit:4;stroke-dasharray:none;stroke-dashoffset:0;stroke-opacity:1;-inkscape-stroke:none;stop-color:#000000"
       d="m 145.91717,89.85405 c 0.8193,0.09928 12.09612,-0.386549 12.21565,0.406704 0.11953,0.793254 -10.9558,5.84504 -11.59296,6.255306 -0.63717,0.410266 1.68148,1.528524 2.62038,1.16302 0.93889,-0.365504 22.56889,-10.653037 22.57927,-11.464013 0.0104,-0.810975 -21.77812,1.289786 -22.59868,1.421844 -0.82056,0.132058 -4.04295,2.117861 -3.22366,2.217139 z"
       id="path10316-5" />
    <path
       style="font-variation-settings:normal;opacity:1;vector-effect:none;fill:#bc5a45;fill-opacity:1;stroke:none;stroke-width:0.392955px;stroke-linecap:butt;stroke-linejoin:miter;stroke-miterlimit:4;stroke-dasharray:none;stroke-dashoffset:0;stroke-opacity:1;-inkscape-stroke:none;stop-color:#000000;stop-opacity:1"
       d="m 50.233644,119.40031 c 2.553574,-3.34673 6.336342,-8.30444 12.953767,-7.70257 6.617424,0.60187 55.003489,12.54347 61.111909,12.39846 6.10842,-0.14502 21.8207,-10.61672 31.48636,-17.05855 0.13371,1.78339 0.36487,4.86669 -0.95819,5.77088 -1.32305,0.9042 -25.30254,12.74854 -30.0461,12.97323 -4.74355,0.22469 -50.202135,-6.99761 -57.17727,-7.61198 -6.975136,-0.61438 -12.138477,1.61602 -13.455921,1.89643 -1.317445,0.28041 -2.80718,-0.2624 -3.914555,-0.6659 z"
       id="path8865" />
    <path
       style="font-variation-settings:normal;opacity:1;vector-effect:none;fill:#bc5a45;fill-opacity:1;stroke:none;stroke-width:0.392955px;stroke-linecap:butt;stroke-linejoin:miter;stroke-miterlimit:4;stroke-dasharray:none;stroke-dashoffset:0;stroke-opacity:1;-inkscape-stroke:none;stop-color:#000000;stop-opacity:1"
       d="m 146.32482,89.481244 c 0.79877,0.07066 11.42622,-0.67978 11.47297,0.140039 0.0468,0.819819 -10.7693,6.300235 -11.40598,6.710225 -0.63667,0.409989 1.35481,0.990012 2.30636,0.622902 0.95154,-0.367109 23.20463,-10.197817 23.2414,-10.972057 0.0368,-0.774241 -22.11233,1.240669 -22.92734,1.3682 -0.81502,0.127531 -3.48618,2.060036 -2.68741,2.130691 z"
       id="path10316" />
    <path
       style="font-variation-settings:normal;display:inline;vector-effect:none;fill:#7c3c2e;fill-opacity:1;stroke:none;stroke-width:0.392955px;stroke-linecap:butt;stroke-linejoin:miter;stroke-miterlimit:4;stroke-dasharray:none;stroke-dashoffset:0;stroke-opacity:1;-inkscape-stroke:none;stop-color:#000000"
       d="m 37.733912,87.148268 c -0.954813,0.558072 -9.8375,3.823525 -12.472323,6.417575 -2.634822,2.594049 -6.076462,12.323747 -6.346723,12.861827 -0.270261,0.53808 -2.087881,0.87236 -2.443606,-0.84435 -0.355726,-1.71671 -1.603201,-15.324037 0.319266,-17.504132 1.922466,-2.180095 16.955097,-2.464455 18.073349,-2.42795 1.118251,0.0365 3.824849,0.938957 2.870037,1.49703 z"
       id="path12465-2" />
    <path
       style="font-variation-settings:normal;opacity:1;vector-effect:none;fill:#bc5a45;fill-opacity:1;stroke:none;stroke-width:0.392955px;stroke-linecap:butt;stroke-linejoin:miter;stroke-miterlimit:4;stroke-dasharray:none;stroke-dashoffset:0;stroke-opacity:1;-inkscape-stroke:none;stop-color:#000000;stop-opacity:1"
       d="m 150.95369,95.562664 -1.14842,15.743026 0.59373,-0.26159 1.6719,-15.959324 z"
       id="path11033" />
    <path
       style="font-variation-settings:normal;opacity:1;vector-effect:none;fill:#bc5a45;fill-opacity:1;stroke:none;stroke-width:0.392955px;stroke-linecap:butt;stroke-linejoin:miter;stroke-miterlimit:4;stroke-dasharray:none;stroke-dashoffset:0;stroke-opacity:1;-inkscape-stroke:none;stop-color:#000000;stop-opacity:1"
       d="m 37.235272,86.38591 c -0.954813,0.558072 -9.8375,3.823525 -12.472323,6.417575 -2.634822,2.594049 -6.076462,12.323745 -6.346723,12.861825 -0.270261,0.53808 -2.087881,0.87236 -2.443606,-0.84435 -0.355726,-1.71671 -1.603201,-15.324035 0.319266,-17.50413 1.922466,-2.180095 16.955097,-2.464455 18.073349,-2.42795 1.118251,0.0365 3.824849,0.938957 2.870037,1.49703 z"
       id="path12465" />
    <path
       style="font-variation-settings:normal;display:inline;vector-effect:none;fill:#7c3c2e;fill-opacity:1;stroke:none;stroke-width:0.392955px;stroke-linecap:butt;stroke-linejoin:miter;stroke-miterlimit:4;stroke-dasharray:none;stroke-dashoffset:0;stroke-opacity:1;-inkscape-stroke:none;stop-color:#000000"
       d="m 71.17253,109.9508 -1.509858,3.04239 0.911371,0.0714 1.362655,-3.1184 z"
       id="path4659-1" />
    <path
       style="font-variation-settings:normal;opacity:1;vector-effect:none;fill:#bc5a45;fill-opacity:1;stroke:none;stroke-width:0.392955px;stroke-linecap:butt;stroke-linejoin:miter;stroke-miterlimit:4;stroke-dasharray:none;stroke-dashoffset:0;stroke-opacity:1;-inkscape-stroke:none;stop-color:#000000;stop-opacity:1"
       d="m 70.67389,109.18844 -1.179377,3.87814 0.648784,0.0952 1.294761,-3.97791 z"
       id="path4659" />
  </g>
  <g
     id="letter_d_pieces"
     style="display:inline"
     type="layer"
     transform="translate(-8.3120776,-35.36316)">
    <path
       style="font-variation-settings:normal;opacity:1;vector-effect:none;fill:#7c3c2e;fill-opacity:1;stroke:none;stroke-width:0.509243px;stroke-linecap:butt;stroke-linejoin:miter;stroke-miterlimit:4;stroke-dasharray:none;stroke-dashoffset:0;stroke-opacity:1;-inkscape-stroke:none;stop-color:#000000;stop-opacity:1"
       d="m 178.80095,88.303145 c -0.79863,0.7745 -22.41757,21.740395 -23.22834,25.471315 -0.81076,3.73092 12.66088,10.1976 14.21387,10.6496 1.55299,0.45201 1.49447,-2.46861 1.04272,-3.15678 -0.45175,-0.68817 -6.0323,-6.68312 -5.10732,-10.37872 0.92498,-3.69559 11.01476,-17.313291 12.21481,-19.088505 1.20006,-1.775214 1.633,-4.110109 1.64796,-4.19076 0.0149,-0.08065 0.0149,-0.08065 -0.7837,0.69385 z"
       id="path13001" />
    <path
       style="font-variation-settings:normal;opacity:1;vector-effect:none;fill:#7c3c2e;fill-opacity:1;stroke:none;stroke-width:0.392955px;stroke-linecap:butt;stroke-linejoin:miter;stroke-miterlimit:4;stroke-dasharray:none;stroke-dashoffset:0;stroke-opacity:1;-inkscape-stroke:none;stop-color:#000000;stop-opacity:1"
       d="m 163.93489,120.65926 c 12.07785,6.38313 32.11772,16.97418 35.08097,19.54209 2.96325,2.56791 16.32142,24.40967 16.71195,25.00511 0.39052,0.59543 0.63733,-0.5173 0.70939,-0.57967 0.0721,-0.0624 0.97919,0.0875 1.02821,0.1927 0.049,0.10516 4.63935,11.23892 6.97745,16.90996 -4.68924,-4.45926 -13.35267,-12.6978 -13.69965,-13.07046 -0.34698,-0.37265 -0.0524,-1.28521 0.16581,-1.34229 0.21824,-0.0571 1.21778,0.53285 1.00155,0.0318 -0.21624,-0.50102 -10.28256,-21.99737 -14.92397,-26.39669 -4.6414,-4.39932 -31.06395,-17.72973 -31.98971,-18.23766 -0.92576,-0.50793 -1.01408,-1.51075 -1.062,-2.05493 z"
       id="path15226" />
    <path
       style="font-variation-settings:normal;opacity:1;vector-effect:none;fill:#7c3c2e;fill-opacity:1;stroke:none;stroke-width:0.392955px;stroke-linecap:butt;stroke-linejoin:miter;stroke-miterlimit:4;stroke-dasharray:none;stroke-dashoffset:0;stroke-opacity:1;-inkscape-stroke:none;stop-color:#000000;stop-opacity:1"
       d="m 178.58284,129.50725 c -9.588,-4.87246 -26.58659,-13.51085 -28.23184,-13.79948 -1.64525,-0.28864 -10.33832,3.84487 -15.24139,6.17625 0.5103,0.41683 1.35495,1.10678 2.13357,1.20386 0.77862,0.0971 9.6424,0.42077 10.71551,0.14141 1.0731,-0.27936 2.94292,-3.15337 5.57251,-2.56983 2.62958,0.58354 22.94138,8.94474 23.35001,9.09833 0.40862,0.15359 1.25717,-0.11162 1.70163,-0.25054 z"
       id="path16954" />
    <path
       style="font-variation-settings:normal;opacity:1;vector-effect:none;fill:#7c3c2e;fill-opacity:1;stroke:none;stroke-width:0.580295px;stroke-linecap:butt;stroke-linejoin:miter;stroke-miterlimit:4;stroke-dasharray:none;stroke-dashoffset:0;stroke-opacity:1;-inkscape-stroke:none;stop-color:#000000;stop-opacity:1"
       d="m 245.97432,113.00645 c 0.57732,-0.17153 29.6912,3.27411 32.07763,4.57057 2.38644,1.29645 12.26826,18.30516 12.80002,19.44259 0.53177,1.13743 -0.38918,3.18766 -1.34648,2.27439 -0.9573,-0.91327 -10.46147,-12.43851 -14.50099,-14.23913 -4.03952,-1.80062 -20.03454,-0.89481 -20.88723,-1.18002 -0.8527,-0.28521 -8.72026,-10.69687 -8.14295,-10.8684 z"
       id="path19233" />
    <path
       style="font-variation-settings:normal;opacity:1;vector-effect:none;fill:#7c3c2e;fill-opacity:1;stroke:none;stroke-width:0.392955px;stroke-linecap:butt;stroke-linejoin:miter;stroke-miterlimit:4;stroke-dasharray:none;stroke-dashoffset:0;stroke-opacity:1;-inkscape-stroke:none;stop-color:#000000;stop-opacity:1"
       d="m 201.42794,143.6622 c 9.74625,5.1379 26.23568,13.83059 28.77186,14.32898 2.53618,0.49838 19.70949,-4.3678 20.11923,-4.52194 0.40975,-0.15415 -0.9112,-1.04287 -1.03654,-1.3225 -0.12535,-0.27962 0.36115,-1.30108 0.76697,-1.44169 0.40581,-0.14062 18.15171,-5.56427 27.42123,-8.3973 0,0 -26.86749,19.27348 -26.86749,19.27348 -0.32884,-0.38572 -0.73423,-0.86122 -0.745,-1.22086 -0.0108,-0.35965 0.60891,-1.49662 0.0337,-1.45677 -0.57522,0.0399 -18.40271,2.67207 -20.0048,2.24818 -1.6021,-0.42389 -18.12488,-9.84127 -27.30659,-15.07451 0,0 -1.15257,-2.41507 -1.15257,-2.41507 z"
       id="path21403" />
    <path
       style="font-variation-settings:normal;opacity:1;vector-effect:none;fill:#7c3c2e;fill-opacity:1;stroke:none;stroke-width:0.392955px;stroke-linecap:butt;stroke-linejoin:miter;stroke-miterlimit:4;stroke-dasharray:none;stroke-dashoffset:0;stroke-opacity:1;-inkscape-stroke:none;stop-color:#000000;stop-opacity:1"
       d="m 203.29118,146.3704 c 0,0 7.97776,12.8847 7.97776,12.8847 0.27635,-0.49457 0.72278,-1.29353 0.62242,-1.69189 -0.10036,-0.39835 -1.64441,-3.44915 -1.39412,-3.87148 0.25028,-0.42234 3.23659,0.25343 3.60012,0.24219 0.36353,-0.0112 1.56074,-1.0565 1.42868,-1.14897 -0.13206,-0.0925 -8.10133,-4.25534 -12.23486,-6.41455 z"
       id="path22607" />
    <path
       style="font-variation-settings:normal;opacity:1;vector-effect:none;fill:#7c3c2e;fill-opacity:1;stroke:none;stroke-width:0.545359px;stroke-linecap:butt;stroke-linejoin:miter;stroke-miterlimit:4;stroke-dasharray:none;stroke-dashoffset:0;stroke-opacity:1;-inkscape-stroke:none;stop-color:#000000;stop-opacity:1"
       d="m 248.67684,176.45394 c 0.47124,-0.71118 14.52836,-16.29357 16.87172,-16.64041 2.34335,-0.34684 20.81801,10.26374 21.56243,10.87304 0.74441,0.6093 -2.01307,3.03367 -2.92021,3.02831 -0.90714,-0.005 -12.97465,-2.04479 -16.99905,-1.41434 -4.0244,0.63045 -14.0089,5.85156 -15.26768,6.25468 -1.25878,0.40311 -3.71844,-1.39011 -3.24721,-2.10128 z"
       id="path23901" />
    <path
       style="font-variation-settings:normal;opacity:1;vector-effect:none;fill:#7c3c2e;fill-opacity:1;stroke:none;stroke-width:0.392955px;stroke-linecap:butt;stroke-linejoin:miter;stroke-miterlimit:4;stroke-dasharray:none;stroke-dashoffset:0;stroke-opacity:1;-inkscape-stroke:none;stop-color:#000000;stop-opacity:1"
       d="m 242.35418,159.79376 14.62305,9.63434 -0.56994,0.34118 -14.955,-9.83702 z"
       id="path26930" />
    <path
       style="font-variation-settings:normal;opacity:1;vector-effect:none;fill:#7c3c2e;fill-opacity:1;stroke:none;stroke-width:0.392955px;stroke-linecap:butt;stroke-linejoin:miter;stroke-miterlimit:4;stroke-dasharray:none;stroke-dashoffset:0;stroke-opacity:1;-inkscape-stroke:none;stop-color:#000000;stop-opacity:1"
       d="m 243.33405,160.83065 -23.94667,9.65024 0.36067,0.39748 24.10174,-9.52244 z"
       id="path30834" />
  </g>
  <g
     id="letter_p_pieces"
     style="display:inline"
     type="layer"
     transform="translate(-8.3120776,-35.36316)">
    <path
       style="font-variation-settings:normal;display:inline;vector-effect:none;fill:#7c3c2e;fill-opacity:1;stroke:none;stroke-width:0.580293px;stroke-linecap:butt;stroke-linejoin:miter;stroke-miterlimit:4;stroke-dasharray:none;stroke-dashoffset:0;stroke-opacity:1;-inkscape-stroke:none;stop-color:#000000"
       d="m 387.18401,108.14204 c 1.26533,1.05179 11.20516,4.98576 12.29545,6.99636 1.09029,2.0106 -3.57476,7.52106 -4.0771,8.94879 -0.50234,1.42774 2.52362,2.86789 3.75928,2.36118 1.23565,-0.50671 21.04781,-11.15167 20.07801,-14.12965 -0.9698,-2.97798 -26.53695,-6.81392 -27.46689,-6.88288 -0.92993,-0.069 -5.85407,1.65441 -4.58875,2.7062 z"
       id="path37128-2" />
    <path
       style="font-variation-settings:normal;display:inline;vector-effect:none;fill:#7c3c2e;fill-opacity:1;stroke:none;stroke-width:0.580293px;stroke-linecap:butt;stroke-linejoin:miter;stroke-miterlimit:4;stroke-dasharray:none;stroke-dashoffset:0;stroke-opacity:1;-inkscape-stroke:none;stop-color:#000000"
       d="m 345.10143,121.9155 c -5.94229,2.84562 -15.39459,7.37211 -16.10486,9.02551 -0.71026,1.6534 4.87687,13.48236 6.59237,15.0676 1.71549,1.58524 14.94074,8.88467 22.861,13.2561 -0.35539,0.0893 -0.83688,0.21036 -0.90666,0.36775 -0.0698,0.15739 0.24684,1.06442 0.51755,1.10584 0.27072,0.0414 13.32981,1.32678 20.12473,1.99557 -5.47436,-2.97011 -15.93407,-8.64503 -16.19279,-8.77544 -0.25871,-0.13042 -0.97523,-0.0175 -1.06878,0.1549 -0.0936,0.17241 0.031,1.1295 -0.4822,0.90146 -0.51319,-0.22804 -19.42902,-9.59194 -22.36488,-11.78198 -2.93585,-2.19005 -7.98187,-9.90914 -7.24825,-11.74062 0.73363,-1.83147 8.82283,-6.45899 14.27277,-9.57669 z"
       id="path38614-7" />
    <path
       style="font-variation-settings:normal;opacity:1;vector-effect:none;fill:#bc5a45;fill-opacity:1;stroke:none;stroke-width:0.580293px;stroke-linecap:butt;stroke-linejoin:miter;stroke-miterlimit:4;stroke-dasharray:none;stroke-dashoffset:0;stroke-opacity:1;-inkscape-stroke:none;stop-color:#000000;stop-opacity:1"
       d="m 387.08934,107.88542 c 1.29948,0.98134 11.54521,4.08975 12.65241,6.10774 1.10721,2.01798 -3.77858,8.37275 -4.31658,9.80925 -0.53799,1.4365 2.55842,1.83712 3.79844,1.31417 1.24001,-0.52295 21.05562,-10.48345 20.08587,-13.38515 -0.96976,-2.9017 -26.54162,-7.06911 -27.47697,-7.12995 -0.93535,-0.0608 -6.04265,2.30259 -4.74317,3.28394 z"
       id="path37128" />
    <path
       style="font-variation-settings:normal;display:inline;vector-effect:none;fill:#7c3c2e;fill-opacity:1;stroke:none;stroke-width:0.580293px;stroke-linecap:butt;stroke-linejoin:miter;stroke-miterlimit:4;stroke-dasharray:none;stroke-dashoffset:0;stroke-opacity:1;-inkscape-stroke:none;stop-color:#000000"
       d="m 339.13735,151.88634 c 0.0161,0.95213 6.73795,15.53236 7.19942,16.22596 0.46147,0.6936 3.39822,0.1945 3.39271,-0.12612 -0.006,-0.32063 -3.0407,-13.29096 -3.72961,-14.32718 -0.68891,-1.03623 -6.87858,-2.72479 -6.86252,-1.77266 z"
       id="path40099-0" />
    <path
       style="font-variation-settings:normal;opacity:1;vector-effect:none;fill:#bc5a45;fill-opacity:1;stroke:none;stroke-width:0.580293px;stroke-linecap:butt;stroke-linejoin:miter;stroke-miterlimit:4;stroke-dasharray:none;stroke-dashoffset:0;stroke-opacity:1;-inkscape-stroke:none;stop-color:#000000;stop-opacity:1"
       d="m 345.95053,121.46699 c -6.14105,2.9033 -15.90965,7.52159 -16.67335,9.14669 -0.76369,1.6251 4.68181,13.01139 6.38697,14.56431 1.70515,1.55292 14.9304,8.85235 22.85066,13.22378 -0.35539,0.0893 -0.83688,0.21036 -0.90666,0.36775 -0.0698,0.15739 0.24684,1.06442 0.52134,1.11911 0.2745,0.0547 13.51987,1.99266 20.41171,3.00103 -5.57128,-3.30969 -16.21619,-9.63343 -16.47923,-9.77901 -0.26304,-0.14558 -0.97956,-0.0327 -1.07311,0.13974 -0.0936,0.17241 0.031,1.1295 -0.4822,0.90146 -0.51319,-0.22804 -19.42902,-9.59194 -22.36488,-11.78198 -2.93585,-2.19005 -7.98187,-9.90914 -7.18084,-11.705 0.80104,-1.79585 9.27824,-6.21833 14.98959,-9.19788 z"
       id="path38614" />
    <path
       style="font-variation-settings:normal;display:inline;vector-effect:none;fill:#7c3c2e;fill-opacity:1;stroke:none;stroke-width:0.580293px;stroke-linecap:butt;stroke-linejoin:miter;stroke-miterlimit:4;stroke-dasharray:none;stroke-dashoffset:0;stroke-opacity:1;-inkscape-stroke:none;stop-color:#000000"
       d="m 352.59641,155.4432 -5.32679,3.59249 -0.0393,0.5486 5.90458,-3.80872 z"
       id="path41085-3" />
    <path
       style="font-variation-settings:normal;display:inline;vector-effect:none;fill:#7c3c2e;fill-opacity:1;stroke:none;stroke-width:0.580293px;stroke-linecap:butt;stroke-linejoin:miter;stroke-miterlimit:4;stroke-dasharray:none;stroke-dashoffset:0;stroke-opacity:1;-inkscape-stroke:none;stop-color:#000000"
       d="m 346.14418,156.44729 4.81116,-2.04566 0.39457,0.27689 -5.00318,2.14207 z"
       id="path41083-9" />
    <path
       style="font-variation-settings:normal;opacity:1;vector-effect:none;fill:#bc5a45;fill-opacity:1;stroke:none;stroke-width:0.580293px;stroke-linecap:butt;stroke-linejoin:miter;stroke-miterlimit:4;stroke-dasharray:none;stroke-dashoffset:0;stroke-opacity:1;-inkscape-stroke:none;stop-color:#000000;stop-opacity:1"
       d="m 339.23016,151.84147 c 0.0418,0.9472 7.10809,14.71358 7.56791,15.39446 0.45982,0.68088 2.98617,0.80075 2.97191,0.48174 -0.0143,-0.31901 -3.02039,-13.81232 -3.70713,-14.83014 -0.68673,-1.01782 -6.87444,-1.99327 -6.83269,-1.04606 z"
       id="path40099" />
    <path
       style="font-variation-settings:normal;opacity:1;vector-effect:none;fill:#bc5a45;fill-opacity:1;stroke:none;stroke-width:0.580293px;stroke-linecap:butt;stroke-linejoin:miter;stroke-miterlimit:4;stroke-dasharray:none;stroke-dashoffset:0;stroke-opacity:1;-inkscape-stroke:none;stop-color:#000000;stop-opacity:1"
       d="m 346.12836,156.17169 5.14999,-2.23571 0.44105,0.24068 -5.3078,2.42689 z"
       id="path41083" />
    <path
       style="font-variation-settings:normal;display:inline;vector-effect:none;fill:#7c3c2e;fill-opacity:1;stroke:none;stroke-width:0.580293px;stroke-linecap:butt;stroke-linejoin:miter;stroke-miterlimit:4;stroke-dasharray:none;stroke-dashoffset:0;stroke-opacity:1;-inkscape-stroke:none;stop-color:#000000"
       d="m 313.60683,93.466476 c -1.40677,3.471518 -3.69282,9.112874 -2.53224,12.279934 1.16057,3.16706 13.50243,24.97036 21.09767,38.38823 0.1531,-1.27827 0.42224,-3.52544 -0.26065,-5.08391 -0.6829,-1.55846 -12.94443,-26.09805 -14.80148,-30.974 -1.85705,-4.87596 -1.76904,-10.98864 -1.93128,-12.195499 -0.16225,-1.206859 -0.98381,-1.910772 -1.57202,-2.414755 z"
       id="path41394-6" />
    <path
       style="font-variation-settings:normal;opacity:1;vector-effect:none;fill:#bc5a45;fill-opacity:1;stroke:none;stroke-width:0.580293px;stroke-linecap:butt;stroke-linejoin:miter;stroke-miterlimit:4;stroke-dasharray:none;stroke-dashoffset:0;stroke-opacity:1;-inkscape-stroke:none;stop-color:#000000;stop-opacity:1"
       d="m 352.74197,154.86525 -5.46184,4.0047 0.0879,0.38114 5.95883,-4.08423 z"
       id="path41085" />
    <path
       style="font-variation-settings:normal;opacity:1;vector-effect:none;fill:#bc5a45;fill-opacity:1;stroke:none;stroke-width:0.580293px;stroke-linecap:butt;stroke-linejoin:miter;stroke-miterlimit:4;stroke-dasharray:none;stroke-dashoffset:0;stroke-opacity:1;-inkscape-stroke:none;stop-color:#000000;stop-opacity:1"
       d="m 313.6717,92.603537 c -1.40677,3.471518 -3.69282,9.112873 -2.53224,12.279933 1.16057,3.16706 13.50243,24.97036 21.09767,38.38823 0.1531,-1.27827 0.42224,-3.52544 -0.26065,-5.08391 -0.6829,-1.55846 -12.94443,-26.09805 -14.80148,-30.974 -1.85705,-4.87596 -1.76904,-10.988634 -1.93128,-12.195495 -0.16225,-1.206861 -0.98381,-1.910773 -1.57202,-2.414758 z"
       id="path41394" />
  </g>
  <g
     id="letter_r_fill"
     style="display:inline"
     type="layer"
     transform="translate(-8.3120776,-35.36316)">
    <path
       style="font-variation-settings:normal;opacity:1;vector-effect:none;fill:#000000;fill-opacity:1;stroke:none;stroke-width:0.392955px;stroke-linecap:butt;stroke-linejoin:miter;stroke-miterlimit:4;stroke-dasharray:none;stroke-dashoffset:0;stroke-opacity:1;-inkscape-stroke:none;stop-color:#000000;stop-opacity:1"
       d="m 95.613942,70.774943 c -2.727357,-2.452661 6.715238,-20.614413 9.810148,-20.922316 3.0949,-0.307903 74.75697,11.166987 74.94605,13.330159 0.18909,2.163171 -71.07309,27.045551 -72.30203,27.44661 -1.22894,0.401059 -0.3696,-1.572873 0.64293,-2.001565 1.01254,-0.428691 22.39803,-8.14523 20.84863,-9.680851 -1.5494,-1.535621 -31.218371,-5.719376 -33.945728,-8.172037 z"
       id="path52638" />
    <path
       style="font-variation-settings:normal;opacity:1;vector-effect:none;fill:#000000;fill-opacity:1;stroke:none;stroke-width:0.392955px;stroke-linecap:butt;stroke-linejoin:miter;stroke-miterlimit:4;stroke-dasharray:none;stroke-dashoffset:0;stroke-opacity:1;-inkscape-stroke:none;stop-color:#000000;stop-opacity:1"
       d="m 88.503162,143.77782 c 2.648456,2.47089 46.613218,32.32751 49.386408,32.52121 2.7732,0.1937 -8.20793,-25.205 -12.30437,-29.027 -4.09644,-3.822 -27.424279,-9.6074 -29.397289,-9.74523 -1.973009,-0.13784 -10.333206,3.78012 -7.684749,6.25102 z"
       id="path54303" />
    <path
       style="font-variation-settings:normal;opacity:1;vector-effect:none;fill:#000000;fill-opacity:1;stroke:none;stroke-width:0.392955px;stroke-linecap:butt;stroke-linejoin:miter;stroke-miterlimit:4;stroke-dasharray:none;stroke-dashoffset:0;stroke-opacity:1;-inkscape-stroke:none;stop-color:#000000;stop-opacity:1"
       d="M 14.144606,132.48622 C 15.747315,130.52014 29.791442,105.23767 35.104104,99.80611 40.416766,94.374551 61.80524,82.309746 64.51467,80.226711 67.224099,78.143676 63.038399,78.026624 60.008625,77.941898 46.343554,81.206635 26.220275,86.01431 21.853771,90.31287 c -4.366504,4.29856 -10.646564,32.59038 -10.954963,35.00587 -0.308399,2.41549 1.643088,9.13356 3.245798,7.16748 z"
       id="path54761" />
    <path
       style="font-variation-settings:normal;opacity:1;vector-effect:none;fill:#000000;fill-opacity:1;stroke:none;stroke-width:0.392955px;stroke-linecap:butt;stroke-linejoin:miter;stroke-miterlimit:4;stroke-dasharray:none;stroke-dashoffset:0;stroke-opacity:1;-inkscape-stroke:none;stop-color:#000000;stop-opacity:1"
       d="m 117.89684,86.132763 c 4.38122,1.249986 11.35971,3.240989 9.99621,6.772321 -1.36351,3.531331 -19.00362,29.159546 -30.079149,45.250506 0,0 2.566759,0.47505 2.566759,0.47505 13.52476,-17.06515 36.17416,-45.643488 37.71837,-48.739209 1.54421,-3.09572 -5.21067,-6.38886 -9.24396,-8.355173 0,0 -10.95823,4.596505 -10.95823,4.596505 z"
       id="path2278" />
    <path
       style="font-variation-settings:normal;opacity:1;vector-effect:none;fill:#000000;fill-opacity:1;stroke:none;stroke-width:0.392955px;stroke-linecap:butt;stroke-linejoin:miter;stroke-miterlimit:4;stroke-dasharray:none;stroke-dashoffset:0;stroke-opacity:1;-inkscape-stroke:none;stop-color:#000000;stop-opacity:1"
       d="M 63.020094,80.250524 96.998561,64.704626 96.144284,68.788739 62.814287,81.384791 Z"
       id="path3020" />
    <path
       style="font-variation-settings:normal;opacity:1;vector-effect:none;fill:#000000;fill-opacity:1;stroke:none;stroke-width:0.392955px;stroke-linecap:butt;stroke-linejoin:miter;stroke-miterlimit:4;stroke-dasharray:none;stroke-dashoffset:0;stroke-opacity:1;-inkscape-stroke:none;stop-color:#000000;stop-opacity:1"
       d="m 83.341428,88.373596 c -0.99428,0.07516 -37.269704,6.433408 -45.548626,11.759654 -8.278921,5.32624 -23.337571,30.74428 -24.013075,32.44789 -0.675504,1.70362 5.798925,-0.24262 7.941734,-2.37151 2.142808,-2.12889 17.893563,-21.54811 24.47825,-25.79771 6.584688,-4.24961 30.107103,-10.023116 32.489646,-10.867261 2.382542,-0.844144 5.646351,-5.246219 4.652071,-5.171063 z"
       id="path4829" />
    <path
       style="font-variation-settings:normal;opacity:1;vector-effect:none;fill:#000000;fill-opacity:1;stroke:none;stroke-width:0.264583px;stroke-linecap:butt;stroke-linejoin:miter;stroke-miterlimit:4;stroke-dasharray:none;stroke-dashoffset:0;stroke-opacity:1;-inkscape-stroke:none;stop-color:#000000;stop-opacity:1"
       d="m 135.73897,82.517722 c 2.95918,1.974279 7.75713,5.175325 6.94727,7.073793 -0.80986,1.898467 -12.53984,14.952435 -19.7749,23.004125 0,0 0.2717,0.11509 0.2717,0.11509 7.60604,-8.14226 20.2436,-21.670764 20.98959,-23.386077 0.74599,-1.715313 -4.5697,-5.027861 -7.76881,-7.021434 0,0 -0.66485,0.214503 -0.66485,0.214503 z"
       id="path74655" />
    <path
       style="font-variation-settings:normal;opacity:1;vector-effect:none;fill:#000000;fill-opacity:1;stroke:none;stroke-width:0.264583px;stroke-linecap:butt;stroke-linejoin:miter;stroke-miterlimit:4;stroke-dasharray:none;stroke-dashoffset:0;stroke-opacity:1;-inkscape-stroke:none;stop-color:#000000;stop-opacity:1"
       d="m 133.03021,84.08726 3.78248,-1.14264 0.29309,0.236368 -3.67655,1.206108 z"
       id="path74901" />
    <path
       style="font-variation-settings:normal;opacity:1;vector-effect:none;fill:#000000;fill-opacity:1;stroke:none;stroke-width:0.264583px;stroke-linecap:butt;stroke-linejoin:miter;stroke-miterlimit:4;stroke-dasharray:none;stroke-dashoffset:0;stroke-opacity:1;-inkscape-stroke:none;stop-color:#000000;stop-opacity:1"
       d="m 141.18524,92.023929 -4.98344,0.324707 -0.17093,0.304961 4.93101,-0.168312 z"
       id="path74903" />
    <path
       style="font-variation-settings:normal;opacity:1;vector-effect:none;fill:#000000;fill-opacity:1;stroke:none;stroke-width:0.264583px;stroke-linecap:butt;stroke-linejoin:miter;stroke-miterlimit:4;stroke-dasharray:none;stroke-dashoffset:0;stroke-opacity:1;-inkscape-stroke:none;stop-color:#000000;stop-opacity:1"
       d="m 121.92269,111.09751 1.41437,1.11339 0.1859,-0.13166 -1.42254,-1.27806 z"
       id="path74905" />
    <path
       style="font-variation-settings:normal;opacity:1;vector-effect:none;fill:#000000;fill-opacity:1;stroke:none;stroke-width:0.264583px;stroke-linecap:butt;stroke-linejoin:miter;stroke-miterlimit:4;stroke-dasharray:none;stroke-dashoffset:0;stroke-opacity:1;-inkscape-stroke:none;stop-color:#000000;stop-opacity:1"
       d="m 135.35388,93.498224 5.12497,-0.09114 -0.3661,0.286967 -5.03251,0.0576 z"
       id="path74907" />
    <path
       style="font-variation-settings:normal;opacity:1;vector-effect:none;fill:#000000;fill-opacity:1;stroke:none;stroke-width:0.264583px;stroke-linecap:butt;stroke-linejoin:miter;stroke-miterlimit:4;stroke-dasharray:none;stroke-dashoffset:0;stroke-opacity:1;-inkscape-stroke:none;stop-color:#000000;stop-opacity:1"
       d="m 32.99241,120.12627 c 4.946147,-5.0844 12.199991,-12.54099 14.878497,-14.38044 2.678507,-1.83945 10.15206,-4.49697 15.248118,-6.309081 0,0 0.02127,0.223624 0.02127,0.223624 -5.022574,1.980947 -12.961413,5.112097 -15.025385,6.615307 -2.063971,1.50321 -9.684271,9.70415 -14.505239,14.89245 0,0 -0.617261,-1.04186 -0.617261,-1.04186 z"
       id="path75596" />
    <path
       style="font-variation-settings:normal;opacity:1;vector-effect:none;fill:#000000;fill-opacity:1;stroke:none;stroke-width:0.264583px;stroke-linecap:butt;stroke-linejoin:miter;stroke-miterlimit:4;stroke-dasharray:none;stroke-dashoffset:0;stroke-opacity:1;-inkscape-stroke:none;stop-color:#000000;stop-opacity:1"
       d="m 62.478929,99.695163 -0.370208,-1.601928 -0.277995,0.05754 0.462817,1.66003 z"
       id="path75880" />
    <path
       style="font-variation-settings:normal;opacity:1;vector-effect:none;fill:#000000;fill-opacity:1;stroke:none;stroke-width:0.264583px;stroke-linecap:butt;stroke-linejoin:miter;stroke-miterlimit:4;stroke-dasharray:none;stroke-dashoffset:0;stroke-opacity:1;-inkscape-stroke:none;stop-color:#000000;stop-opacity:1"
       d="m 47.659267,103.36577 1.292715,2.20142 0.206653,-0.16637 -1.242878,-2.22637 z"
       id="path75882" />
    <path
       style="font-variation-settings:normal;opacity:1;vector-effect:none;fill:#000000;fill-opacity:1;stroke:none;stroke-width:0.264583px;stroke-linecap:butt;stroke-linejoin:miter;stroke-miterlimit:4;stroke-dasharray:none;stroke-dashoffset:0;stroke-opacity:1;-inkscape-stroke:none;stop-color:#000000;stop-opacity:1"
       d="m 49.411912,105.06231 -1.109337,-1.97935 0.103767,-0.0275 1.162624,1.98747 z"
       id="path75884" />
    <path
       style="font-variation-settings:normal;opacity:1;vector-effect:none;fill:#000000;fill-opacity:1;stroke:none;stroke-width:0.264583px;stroke-linecap:butt;stroke-linejoin:miter;stroke-miterlimit:4;stroke-dasharray:none;stroke-dashoffset:0;stroke-opacity:1;-inkscape-stroke:none;stop-color:#000000;stop-opacity:1"
       d="m 32.132238,118.15972 1.186587,2.00636 0.38645,-0.28385 -1.295883,-2.16991 z"
       id="path75886" />
  </g>
  <g
     id="letter_p_fill"
     style="display:inline"
     type="layer"
     transform="translate(-8.3120776,-35.36316)">
    <path
       style="font-variation-settings:normal;opacity:1;vector-effect:none;fill:#000000;fill-opacity:1;stroke:none;stroke-width:0.392955px;stroke-linecap:butt;stroke-linejoin:miter;stroke-miterlimit:4;stroke-dasharray:none;stroke-dashoffset:0;stroke-opacity:1;-inkscape-stroke:none;stop-color:#000000;stop-opacity:1"
       d="m 292.55868,46.926452 c 5.87461,1.781613 108.09976,40.597809 118.27975,50.243082 10.17999,9.645276 -8.11817,21.275126 -24.12237,28.704976 -16.0042,7.42985 -27.43869,7.96412 -27.94798,7.88627 -0.50928,-0.0779 -7.18514,-4.76999 -5.99874,-5.26577 1.18641,-0.49577 22.33635,-2.97579 17.40288,-8.84704 -4.93347,-5.87126 -70.68051,-56.140826 -75.48044,-60.290182 -4.79994,-4.149357 -8.00771,-14.212949 -2.1331,-12.431336 z"
       id="path55541" />
    <path
       style="font-variation-settings:normal;opacity:1;vector-effect:none;fill:#000000;fill-opacity:1;stroke:none;stroke-width:0.392955px;stroke-linecap:butt;stroke-linejoin:miter;stroke-miterlimit:4;stroke-dasharray:none;stroke-dashoffset:0;stroke-opacity:1;-inkscape-stroke:none;stop-color:#000000;stop-opacity:1"
       d="m 298.60745,106.25389 c 15.94834,23.35592 44.70767,65.47322 45.88151,67.65336 1.17385,2.18013 -9.03038,-0.84727 -10.96063,-2.23408 -1.93025,-1.38681 -25.00299,-21.62063 -28.63115,-27.78352 -3.62815,-6.16289 -7.47869,-31.33845 -7.66419,-33.25341 -0.1855,-1.91496 0.79683,-3.46871 1.37446,-4.38235 z"
       id="path60329" />
    <path
       style="font-variation-settings:normal;opacity:1;vector-effect:none;fill:#000000;fill-opacity:1;stroke:none;stroke-width:0.392955px;stroke-linecap:butt;stroke-linejoin:miter;stroke-miterlimit:4;stroke-dasharray:none;stroke-dashoffset:0;stroke-opacity:1;-inkscape-stroke:none;stop-color:#000000;stop-opacity:1"
       d="m 343.36145,96.290844 c -3.72399,0.615239 -8.662,1.431044 -11.4389,5.873906 -2.7769,4.44287 -8.76611,21.11103 -13.28262,33.68064 0,0 0.99178,1.69458 0.99178,1.69458 4.84023,-11.88247 12.05893,-29.6039 14.81775,-32.43927 2.75882,-2.83537 11.71829,-1.74248 17.72596,-1.00966 0,0 -8.81397,-7.800196 -8.81397,-7.800196 z"
       id="path14843" />
    <path
       style="font-variation-settings:normal;opacity:1;vector-effect:none;fill:#000000;fill-opacity:1;stroke:none;stroke-width:0.264583px;stroke-linecap:butt;stroke-linejoin:miter;stroke-miterlimit:4;stroke-dasharray:none;stroke-dashoffset:0;stroke-opacity:1;-inkscape-stroke:none;stop-color:#000000;stop-opacity:1"
       d="m 338.96104,95.275666 c -2.56165,0.645483 -6.10564,1.538494 -8.08577,4.721226 -1.98014,3.182728 -7.32378,16.575758 -11.18608,26.256028 0,0 -0.6206,-1.91829 -0.6206,-1.91829 3.9988,-9.27918 9.5525,-22.1665 11.55387,-25.158285 2.00137,-2.991786 5.54328,-3.701913 8.09366,-4.213245 0,0 0.24492,0.312566 0.24492,0.312566 z"
       id="path76496" />
    <path
       style="font-variation-settings:normal;opacity:1;vector-effect:none;fill:#000000;fill-opacity:1;stroke:none;stroke-width:0.264583px;stroke-linecap:butt;stroke-linejoin:miter;stroke-miterlimit:4;stroke-dasharray:none;stroke-dashoffset:0;stroke-opacity:1;-inkscape-stroke:none;stop-color:#000000;stop-opacity:1"
       d="m 337.94891,95.435014 2.09261,1.691978 -0.46601,0.07876 -2.05507,-1.685962 z"
       id="path76936" />
    <path
       style="font-variation-settings:normal;opacity:1;vector-effect:none;fill:#000000;fill-opacity:1;stroke:none;stroke-width:0.264583px;stroke-linecap:butt;stroke-linejoin:miter;stroke-miterlimit:4;stroke-dasharray:none;stroke-dashoffset:0;stroke-opacity:1;-inkscape-stroke:none;stop-color:#000000;stop-opacity:1"
       d="m 332.88272,97.685613 1.75464,2.080585 0.39348,-0.357735 -1.95847,-1.988315 z"
       id="path76938" />
    <path
       style="font-variation-settings:normal;opacity:1;vector-effect:none;fill:#000000;fill-opacity:1;stroke:none;stroke-width:0.264583px;stroke-linecap:butt;stroke-linejoin:miter;stroke-miterlimit:4;stroke-dasharray:none;stroke-dashoffset:0;stroke-opacity:1;-inkscape-stroke:none;stop-color:#000000;stop-opacity:1"
       d="m 333.53918,97.155025 1.76098,1.967431 0.14519,-0.154381 -1.70048,-1.908839 z"
       id="path76940" />
    <path
       style="font-variation-settings:normal;opacity:1;vector-effect:none;fill:#000000;fill-opacity:1;stroke:none;stroke-width:0.264583px;stroke-linecap:butt;stroke-linejoin:miter;stroke-miterlimit:4;stroke-dasharray:none;stroke-dashoffset:0;stroke-opacity:1;-inkscape-stroke:none;stop-color:#000000;stop-opacity:1"
       d="m 320.77689,122.7133 1.9466,3.47478 -0.0854,0.19105 -1.95114,-3.45457 z"
       id="path76942" />
  </g>
  <g
     id="letter_d_fill"
     style="display:inline"
     type="layer"
     transform="translate(-8.3120776,-35.36316)">
    <path
       style="font-variation-settings:normal;opacity:1;vector-effect:none;fill:#000000;fill-opacity:1;stroke:none;stroke-width:0.392955px;stroke-linecap:butt;stroke-linejoin:miter;stroke-miterlimit:4;stroke-dasharray:none;stroke-dashoffset:0;stroke-opacity:1;-inkscape-stroke:none;stop-color:#000000;stop-opacity:1"
       d="m 172.9931,38.261461 c 0.68604,2.709445 13.94509,33.4834 19.55247,36.587322 5.60738,3.103922 81.93807,22.20524 90.08964,27.692807 8.15157,5.48757 14.52428,39.7488 15.40103,42.83254 0.87676,3.08374 2.94501,-2.57665 2.81556,-4.91758 -0.12946,-2.34094 -4.56616,-39.49064 -11.85984,-45.847297 -7.29367,-6.356659 -76.66573,-34.126522 -82.36264,-36.914942 -5.69691,-2.78842 -22.01608,-16.220554 -25.85428,-18.7948 -3.83819,-2.574246 -8.46799,-3.347496 -7.78194,-0.63805 z"
       id="path59538" />
    <path
       style="font-variation-settings:normal;opacity:1;vector-effect:none;fill:#000000;fill-opacity:1;stroke:none;stroke-width:0.392955px;stroke-linecap:butt;stroke-linejoin:miter;stroke-miterlimit:4;stroke-dasharray:none;stroke-dashoffset:0;stroke-opacity:1;-inkscape-stroke:none;stop-color:#000000;stop-opacity:1"
       d="m 206.01062,83.321709 c 0,0 9.85742,20.533941 9.85742,20.533941 21.8868,3.68382 58.66839,9.87463 62.78068,11.76751 4.11228,1.89287 12.56924,19.79341 13.97289,21.90309 1.40365,2.10967 5.69086,3.19936 5.50275,1.77487 -0.18811,-1.4245 -8.32404,-29.94208 -13.9258,-33.41572 -5.60176,-3.47364 -50.66937,-15.326351 -78.18794,-22.563691 z"
       id="path7345" />
    <path
       style="font-variation-settings:normal;opacity:1;vector-effect:none;fill:#000000;fill-opacity:1;stroke:none;stroke-width:0.392955px;stroke-linecap:butt;stroke-linejoin:miter;stroke-miterlimit:4;stroke-dasharray:none;stroke-dashoffset:0;stroke-opacity:1;-inkscape-stroke:none;stop-color:#000000;stop-opacity:1"
       d="m 175.69891,113.18779 c 0.68433,0.74383 32.71416,29.38741 35.75523,30.27931 3.04107,0.89191 55.07892,-3.05394 56.38589,-3.22941 1.30697,-0.17547 -2.60291,-2.79567 -3.57019,-2.91234 -0.96728,-0.11666 -42.5281,-3.16535 -47.95503,-4.76711 -5.42693,-1.60175 -32.75448,-18.5263 -34.14351,-19.25372 -1.38902,-0.72741 -7.15671,-0.86056 -6.47239,-0.11673 z"
       id="path17341" />
    <path
       style="font-variation-settings:normal;opacity:1;vector-effect:none;fill:#000000;fill-opacity:1;stroke:none;stroke-width:0.392955px;stroke-linecap:butt;stroke-linejoin:miter;stroke-miterlimit:4;stroke-dasharray:none;stroke-dashoffset:0;stroke-opacity:1;-inkscape-stroke:none;stop-color:#000000;stop-opacity:1"
       d="m 205.27336,83.496429 c 7.13332,14.946117 19.44637,40.745101 19.87847,42.992561 0.4321,2.24745 -6.43479,4.77936 -10.41293,6.24614 0,0 -20.5296,-10.564 -20.5296,-10.564 -0.63558,-1.82913 -1.66783,-4.79985 -0.12112,-4.64879 1.5467,0.15106 20.20663,5.69284 21.09304,3.13447 0.8864,-2.55838 -11.00801,-29.680799 -11.69654,-31.75485 -0.68853,-2.07405 0.87025,-4.170382 1.78868,-5.405531 z"
       id="path17998" />
    <path
       style="font-variation-settings:normal;opacity:1;vector-effect:none;fill:#000000;fill-opacity:1;stroke:none;stroke-width:0.264583px;stroke-linecap:butt;stroke-linejoin:miter;stroke-miterlimit:4;stroke-dasharray:none;stroke-dashoffset:0;stroke-opacity:1;-inkscape-stroke:none;stop-color:#000000;stop-opacity:1"
       d="m 221.98284,112.02554 c 2.69724,5.33971 7.10592,14.06752 6.90679,15.36129 -0.19914,1.29377 -6.38832,4.13751 -10.17495,5.87735 0.16416,0.0675 0.43756,0.17991 1.16267,-0.0908 0.72511,-0.27076 10.77172,-4.33237 10.915,-5.1861 0.14327,-0.85374 -7.50909,-14.884 -7.78385,-15.35091 -0.27475,-0.46691 -0.7604,-0.55996 -1.02566,-0.61079 z"
       id="path70779" />
    <path
       style="font-variation-settings:normal;opacity:1;vector-effect:none;fill:#000000;fill-opacity:1;stroke:none;stroke-width:0.264583px;stroke-linecap:butt;stroke-linejoin:miter;stroke-miterlimit:4;stroke-dasharray:none;stroke-dashoffset:0;stroke-opacity:1;-inkscape-stroke:none;stop-color:#000000;stop-opacity:1"
       d="m 223.15399,114.0024 -3.79635,-0.35711 0.31927,0.6005 3.52351,0.12536 z"
       id="path71461" />
    <path
       style="font-variation-settings:normal;display:inline;vector-effect:none;fill:#000000;fill-opacity:1;stroke:none;stroke-width:0.264583px;stroke-linecap:butt;stroke-linejoin:miter;stroke-miterlimit:4;stroke-dasharray:none;stroke-dashoffset:0;stroke-opacity:1;-inkscape-stroke:none;stop-color:#000000"
       d="m 228.73429,125.46401 -4.13317,-0.19155 0.12807,0.46363 4.08339,0.0873 z"
       id="path71461-3" />
    <path
       style="font-variation-settings:normal;display:inline;vector-effect:none;fill:#000000;fill-opacity:1;stroke:none;stroke-width:0.264583px;stroke-linecap:butt;stroke-linejoin:miter;stroke-miterlimit:4;stroke-dasharray:none;stroke-dashoffset:0;stroke-opacity:1;-inkscape-stroke:none;stop-color:#000000"
       d="m 228.88135,126.32174 -4.1229,-0.0713 0.0969,0.31083 4.11882,-0.0353 c -0.0261,-0.11979 -0.0928,-0.20422 -0.0928,-0.20422 z"
       id="path71461-3-6" />
    <path
       style="font-variation-settings:normal;opacity:1;vector-effect:none;fill:#000000;fill-opacity:1;stroke:none;stroke-width:0.264583px;stroke-linecap:butt;stroke-linejoin:miter;stroke-miterlimit:4;stroke-dasharray:none;stroke-dashoffset:0;stroke-opacity:1;-inkscape-stroke:none;stop-color:#000000;stop-opacity:1"
       d="m 252.681,113.59838 c 8.56836,1.07884 23.56558,2.96714 25.01704,3.70161 1.45146,0.73447 6.80037,9.1392 9.85653,13.94135 -0.21451,0.0195 -0.5738,0.0521 -1.08156,-0.68752 -0.50777,-0.7396 -7.13963,-11.15578 -9.39774,-12.28383 -2.2581,-1.12804 -19.49891,-3.17965 -21.61179,-3.50639 -2.11288,-0.32674 -2.51497,-0.83025 -2.78248,-1.16522 z"
       id="path73232" />
    <path
       style="font-variation-settings:normal;opacity:1;vector-effect:none;fill:#000000;fill-opacity:1;stroke:none;stroke-width:0.264583px;stroke-linecap:butt;stroke-linejoin:miter;stroke-miterlimit:4;stroke-dasharray:none;stroke-dashoffset:0;stroke-opacity:1;-inkscape-stroke:none;stop-color:#000000;stop-opacity:1"
       d="m 254.46054,114.03459 -0.50543,-3.97733 0.22631,0.0273 0.66161,3.97798 z"
       id="path74071" />
    <path
       style="font-variation-settings:normal;opacity:1;vector-effect:none;fill:#000000;fill-opacity:1;stroke:none;stroke-width:0.264583px;stroke-linecap:butt;stroke-linejoin:miter;stroke-miterlimit:4;stroke-dasharray:none;stroke-dashoffset:0;stroke-opacity:1;-inkscape-stroke:none;stop-color:#000000;stop-opacity:1"
       d="m 276.30287,117.0729 0.57065,-2.32415 -0.19203,-0.0771 -0.57655,2.35831 z"
       id="path74073" />
    <path
       style="font-variation-settings:normal;opacity:1;vector-effect:none;fill:#000000;fill-opacity:1;stroke:none;stroke-width:0.264583px;stroke-linecap:butt;stroke-linejoin:miter;stroke-miterlimit:4;stroke-dasharray:none;stroke-dashoffset:0;stroke-opacity:1;-inkscape-stroke:none;stop-color:#000000;stop-opacity:1"
       d="m 278.54461,118.42246 1.58927,-1.9075 0.10805,0.23992 -1.49791,1.87176 z"
       id="path74075" />
  </g>
</svg>
