<?xml version="1.0" encoding="UTF-8"?>
<!-- Created with Inkscape (http://www.inkscape.org/) -->
<svg width="1098" height="466.74" version="1.1" viewBox="0 0 290.52 123.49" xmlns="http://www.w3.org/2000/svg">
 <g transform="translate(-46.051 -4.0053)" type="layer">
  <rect x="37.245" y="-3.2137" width="306.28" height="138.63" fill="#cacaca" stroke-width=".38345"/>
 </g>
 <g id="U0_block" fill="#838889" type="layer">
  <path transform="translate(21.532 22.461)" d="m175.03-17.242c0.12201 1.0985 0.22885 2.545 0.26367 4.498 0.0706 3.9568-0.0587 9.3635-0.32812 15.537l-0.20313 4.6523 4.1074-2.1953c0.88174-0.47124 1.8672-0.72038 2.8672-0.72656 3.4307 0.00427 6.1523 2.7277 6.1524 6.1563-2e-3 1.7579-0.75315 3.4294-2.0664 4.5977l-2.9883 2.6582 3.6094 1.7227c1.5035 0.7178 3.5978 1.7291 5.3125 2.5508l0.92578 0.44336 0.98242-0.29297c1.146-0.34262 2.1634-0.60163 2.832-0.7207 0.44579-0.07938 0.77099-0.06999 0.62695-0.08398-0.08-0.0078 0.22457 0.06707 0.38086 0.12109 0.31259 0.10804 0.74784 0.28167 1.2559 0.50391 1.5241 0.66672 3.6952 1.7668 5.9688 2.9824 2.842 1.5195 5.8686 3.2265 8.1934 4.5625 0.0163 0.0094 2.8071 1.6356 3.4297 1.9961 0.0103 0.02016 0.0205 0.03941 0.0312 0.06055 0.0216 0.04246 0.0435 0.08694 0.0664 0.13281 0.0255 0.05097 0.0513 0.10381 0.0781 0.1582 0.26796 0.54391 0.59018 1.2391 0.80664 1.7402l0.39063 0.90625 0.88867 0.43164c4.5173 2.1876 8.7875 4.2552 11.631 5.6445l0.0508 0.02539 0.0527 0.02148c2.5826 1.1269 4.827 2.1136 6.4824 2.8535 1e-3 4.6e-4 0.94315 0.43452 1.7559 0.80859-5e-3 0.0097-9e-3 0.01752-0.0137 0.02734-0.0536 0.10734-0.11351 0.22151-0.17969 0.33984-0.49629 0.8875-1.3206 1.9946-2.0566 2.8594-7.2e-4 8.44e-4 -1.2487 1.3578-1.248 1.3574 5.1e-4 -3.39e-4 -1.827 0.81593-1.8281 0.81641-0.75952 0.32446-1.6717 0.7012-2.6426 1.0898-1.6182 0.64774-3.4049 1.3286-4.9355 1.8594l0.86132 5.166c5.7449 0.01562 11.707 0.10966 15.973 0.3125 1.7064 0.08114 3.146 0.18065 4.1426 0.29102 0.6644 0.07358 1.1674 0.17185 1.2305 0.18945 0.067 0.0187 0.73368 0.2962 1.5273 0.76367 1.1905 0.7012 2.8001 1.8089 4.5176 3.1074 4.2936 3.2463 9.3964 7.865 11.287 10.34 0.0262 0.03423 0.0474 0.06449 0.0723 0.09766-1.2056 0.74606-3.3239 1.9202-6.2461 3.3125-2.9982 1.4285-6.6081 3.0289-10.379 4.5859l-8.3203 3.4355 8.8535 1.6309c0.70319 0.12961 1.4024 0.25938 2.1328 0.39453-1.4077 0.68358-2.841 1.4132-4.0977 1.998-2.3156 1.0777-4.3442 1.928-5.0234 2.1328-0.73834 0.22259-3.0199 0.47398-5.168 0.61719-1.7453 0.11636-4.3543 0.22813-5.7422 0.59961-1.0846 0.2903-2.8134 1.2025-3.7969 1.6582-0.98343 0.45568-2.0155 0.87674-2.9707 1.123-0.95521 0.24631-1.8062 0.30872-2.4883 0.17969-0.20215-0.03824-1.5607-0.36496-3.2168-0.79883l-0.0137 0.05273c-1.6783-0.46422-4.0264-1.1171-7.1367-1.9902-4.9588-1.3721-11.168-3.1427-17.449-4.9883-0.63287-0.18448-1.2192-0.35445-1.8359-0.53516-0.2744-0.08116-0.54308-0.16275-0.84375-0.25195-1.5809-0.46439-3.1193-0.92668-4.6934-1.3965l-2.5625-0.76367-0.74805 2.5664c-0.76935 2.6415-3.1617 4.4371-5.9121 4.4375-3.4342 1.41e-4 -6.1622-2.7274-6.1621-6.1523 2e-3 -0.62151 0.0983-1.2395 0.28516-1.832l-4.7793-2.2168c-2.4096 3.8142-6.7618 8.7795-10.652 12.201l-1.543 1.3574 0.92578 1.834c0.0141 0.02786 0.3046 0.60358 0.41992 0.83203-0.84168-0.23441-1.715-0.46216-2.4746-0.70898l-1.0703-0.34766-0.99414 0.52734c-0.52034 0.27612-0.88905 0.39418-1.1152 0.45312-0.31519-0.27164-0.94472-0.81196-0.94532-0.8125-0.51542-0.46856-1.1484-1.066-1.877-1.7676-2.732-2.631-6.7956-6.7423-11.396-11.531l-0.2461-0.25586-0.30273-0.18164c-0.65654-0.39433-1.4004-0.80653-2.1309-1.1191-1.41-0.60343-2.96-0.95938-4.4414-1.1758-3.386-0.49462-7.4926-0.37654-9.8301-0.54492-0.83109-0.05987-1.5174-0.16028-1.9297-0.26953-0.1845-0.04888-0.28793-0.09355-0.34766-0.12109-0.067-0.10865-0.46258-0.74752-0.46289-0.74805-0.22799-0.39193-0.50166-0.88949-0.80859-1.4688-0.51156-0.96543-1.1139-2.1607-1.7715-3.5176l-0.5664-1.166-1.2656-0.27148c-4.9824-1.0724-9.7983-2.2005-12.965-3.1562-1.0555-0.31857-1.9284-0.62028-2.5117-0.86328-0.15828-0.06594-0.25791-0.11533-0.36719-0.16797-0.0062-0.02698-0.01318-0.05252-0.01953-0.08203-0.14731-0.68396-0.29101-1.9717-0.37305-3.4902l-5.2871-0.1875c-0.79016 6.3047-1.6878 12.82-2.5625 17.951-0.52484 3.0787-1.0485 5.6744-1.5 7.3301-2.93e-4 0.0011-0.50027 1.5531-0.5 1.5527-1.3214 1.74-3.4108 4.2521-5.1914 5.9883-0.55729 0.54337-0.91307 0.77843-1.3379 1.1074l-2.0078-3.3145-2.1289 4.4082c-1.029 2.1313-3.1725 3.4789-5.5352 3.4824-3.4342 1.4e-4 -6.1603-2.7271-6.1602-6.1621 5.8e-5 -3.4348 2.7264-6.1603 6.1543-6.1602 0.18317 4.7e-4 0.36146 0.0076 0.53711 0.02344l5 0.45117-2.4414-4.3867c-0.93032-1.672-2.0075-3.6312-3.0487-5.5176l-1.084-1.9648-2.1172 0.74024c-9.2941 3.2506-24.706 7.8081-36.164 11.041-7.6386 2.1553-13.967 3.8037-14.582 3.9199-0.44288 0.08379-0.96065 0.08755-1.5508 0.0059l-0.03516-0.0059-0.03711-0.0039c-1.421-0.15626-3.2027-0.90108-4.7852-1.6602-0.92308-0.4428-2.0671-1.0516-3.1074-1.3301-0.37719-0.10096-0.85016-0.17737-1.1895-0.22461l-0.021484-2e-3 -0.021484-0.0039c-2.0388-0.25142-5.3857-0.36598-7.5-0.61719l-0.01954-4e-3c-0.95677-0.10593-1.789-0.25378-2.1582-0.3651-0.6791-0.20473-2.7082-1.0551-5.0234-2.1328-1.1637-0.54169-2.4962-1.2202-3.7949-1.8496 11.786-1.8651 24.605-3.8896 37.344-5.9863l1.4062-0.23242 0.58398-1.3008c0.62428-1.3893 1.3712-2.956 2.0605-4.0996 0.34466-0.57182 0.68153-1.0359 0.89844-1.2754 0.01728-0.01907 0.03345-0.03466 0.04883-0.05078 0.37908-0.03607 2.2623-0.21473 2.2637-0.21484 6.1245-0.51744 21.073-1.543 28.904-2.5566l3.8359-0.49805-1.8418-3.4004c-5.1361-9.4879-10.345-19.29-14.461-27.42l-0.0918-0.18359-0.12109-0.16797c-2.0672-2.8754-3.8707-5.3845-5.75-7.998l1.3984-0.96875c-1.0301-2.2082-1.8364-4.0587-2.3184-5.334-0.32131-0.85018-0.48603-1.5219-0.48438-1.5098l-0.23047-1.6953-1.6406-0.49024c-2.6217-0.78188-4.3995-3.1658-4.4004-5.9004 6e-5 -3.4348 2.7262-6.1623 6.1602-6.1621 3.421 6.1e-5 6.138 2.7093 6.1582 6.125-0.0036 0.04859-0.0058 0.08964-0.01172 0.1543l-0.41992 4.5605 4.166-1.9004c5.6687-2.5851 12.634-5.2118 18.291-7.1152 2.8287-0.95174 5.3384-1.7241 7.168-2.2187 0.57633-0.15583 0.9332-0.22993 1.3535-0.32617 0.26362 0.72161 0.56295 1.5485 0.91016 2.957 0.67702 2.7464 1.3874 6.4018 1.9883 10.025 0.60084 3.6236 1.0952 7.2341 1.3613 9.9023 0.17742 1.7788 0.23135 3.2355 0.20508 3.623-0.07386 1.0895-0.69613 2.7745-1.5645 4.6094-0.81405 1.7202-1.98 3.9411-2.6172 5.9355-0.33452 1.0471-0.58807 2.2017-0.57422 3.3887 0.04952 4.2436 5.0311 16.251 6.2148 18.879l0.20898 0.46289 0.36719 0.35547c0.35868 0.34676 1.4614 1.3648 3.0332 1.0371l1.5781-0.32812 0.4375-1.5508c0.37702-1.3379 2.7262-11.713 4.1152-17.754l0.01367-0.05469 0.0098-0.05664c0.92962-5.0032 1.7329-9.1142 2.1953-11.121l0.34375 5.0996c0.06404 0.95327 0.25252 2.121 0.48633 3.3027 0.42896 2.1681 2.622 11.335 4.0312 13.193 0.71006 0.9365 3.5179 2.9373 4.5586 3.6973l7.5371 5.5039-3.5098-8.6465c-2.0092-4.9506-3.8303-10.025-4.9219-14.105l-0.14453-0.53906-0.34765-0.43555c-1.0553-1.3182-2.0165-2.5565-2.9219-3.752l-4.4648-5.8945 0.09375-0.29883-0.53516-0.99023c-0.35203-0.65125-0.57646-1.1723-0.68945-1.5039 0.16814-0.21162 0.40595-0.48966 0.76758-0.84961 0.81495-0.81118 2.0527-1.8848 3.5645-3.0977l0.39062-0.31445 0.25-0.43555c0.93964-1.6365 2.4845-4.2517 2.9219-5.2441 0.89407-2.029 0.91557-4.1543 0.84766-5.8828 4.4948-2.9964 10.304-6.8646 14.906-9.918-1.1696 1.4653-2.2201 2.7519-3.4024 4.25l3.5371 3.8672c0.84564-0.55277 1.668-1.0915 2.5234-1.6445l0.36523-0.23633 0.26954-0.33789c6.0565-7.5987 12.563-15.508 18.805-23.047-0.29642 0.48049-0.61798 0.98392-0.80469 1.3809-1.0493 2.2309-1.0986 4.7228-1.043 6.5996l0.13476 4.5273 3.8848-2.3262c14.202-8.5072 27.636-15.842 32.729-17.775zm4.7969 48.504 3.1016 6.7012c1.6392 3.5425 3.095 7.1015 3.7891 9.5469 0.23136 0.81514 0.37438 1.5055 0.42578 1.959 0.0216 0.1904 0.0208 0.30475 0.0195 0.38867-0.0214 0.0387 0.0203-0.04217-0.043 0.04687l-0.54102 0.76172-0.0508-0.0059-0.92383 0.94336c-1.5312 1.5621-3.9031 3.7065-6.6543 6.0645l-6.2402 5.3477 8.1894-0.68555c1.5559-0.13007 4.2972-0.10393 7.0098-0.01563 1.943 0.06325 8.3531 0.39886 9.5176 0.24414 1.4689-0.19517 4.8567-1.9581 6.1973-2.5547l7.418-3.3008-7.9356-1.7207c-2.122-0.46018-3.5311-0.80116-5.0195-1.1543 3.0118-0.04976 6.3923-0.1011 7.6973-0.17578 0.10863-0.0062 0.84689-0.03108 1.3672-0.23633 0.81635-0.32205 1.3127-0.95089 1.5488-1.5703 0.45918-1.2044-0.0844-2.3398-0.1914-2.584-0.7029-1.6048-3.2731-5.5235-5.4531-6.7812-1.1748-0.67782-11.728-5.7073-16.568-8.0273zm36.359 0.14844c7e-3 0.01324 0.0168 0.02717 0.0254 0.04297 0.01 0.01755 0.0184 0.03636 0.0293 0.05664-0.0594-0.08118-0.0715-0.12975-0.0547-0.09961zm-28.256 61.467c0.0206 2e-6 0.0434 0.0021 0.0664 0.0059 0.028 0.0046 0.0292 0.0054 0.0566 0.01367 0.0165 0.0049 0.0315 0.01096 0.0469 0.01758 0.0138 6e-3 0.0283 0.01244 0.041 0.01953 0.0114 0.0064 0.0207 0.01235 0.0312 0.01953 9e-3 0.0065 0.0186 0.01246 0.0273 0.01953 8e-3 0.0064 0.0161 0.01463 0.0234 0.02148 0.0657 0.0617 0.11633 0.15285 0.13086 0.25195 3e-3 0.02072 4e-3 0.04001 4e-3 0.05859-2e-5 0.13361-0.0112 0.16457-0.0977 0.27148-6e-3 0.0079-0.0126 0.01609-0.0195 0.02344-8e-3 0.0082-0.0151 0.01592-0.0234 0.02344-9e-3 0.0084-0.0192 0.01585-0.0293 0.02344-0.0112 0.0084-0.0229 0.01597-0.0352 0.02344-0.0137 0.0083-0.0279 0.01649-0.043 0.02344-0.0167 0.0077-0.0346 0.01579-0.0527 0.02148-0.0301 0.0095-0.0297 0.0086-0.0606 0.01367-0.0228 0.0037-0.046 0.0059-0.0664 0.0059-0.0184 2e-6 -0.038-8.89e-4 -0.0586-0.0039-0.0278-0.0041-0.0289-0.0059-0.0566-0.01367-0.0249-7e-3 -0.0253-0.0059-0.0488-0.01563-0.0141-0.0058-0.028-0.01252-0.041-0.01953-0.0118-0.0063-0.0224-0.01239-0.0332-0.01953-0.01-0.0064-0.0184-0.01443-0.0273-0.02148-8e-3 -0.0064-0.0159-0.01268-0.0234-0.01953-0.0677-0.06166-0.11869-0.15143-0.13476-0.25-4e-3 -0.0229-6e-3 -0.04611-6e-3 -0.06641-1e-5 -0.02034 2e-3 -0.04163 6e-3 -0.06445 5e-3 -0.0308 4e-3 -0.03234 0.0137-0.0625 6e-3 -0.0181 0.0138-0.03598 0.0215-0.05273 7e-3 -0.01507 0.0151-0.02927 0.0234-0.04297 7e-3 -0.01233 0.015-0.02395 0.0234-0.03516 8e-3 -0.01009 0.0151-0.02005 0.0234-0.0293 8e-3 -0.0083 0.0152-0.01575 0.0234-0.02344 7e-3 -0.0069 0.0155-0.0131 0.0234-0.01953 0.10733-0.08675 0.13838-0.09767 0.27148-0.09766zm-132.08 0.62305c0.35906 6e-6 0.59179 0.23283 0.5918 0.5918-7e-6 0.35906-0.23282 0.59179-0.5918 0.5918-0.35906-5e-6 -0.59179-0.23282-0.5918-0.5918 6e-6 -0.35907 0.23282-0.59179 0.5918-0.5918zm164.7 0.96094c0.16084 0.01133 0.16557 0.06853 0.17773 0.09766-0.087-0.02616-0.17256-0.05174-0.27343-0.08203 0.0252-8.12e-4 0.0746-0.01711 0.0957-0.01563z" stop-color="#000000" style="-inkscape-stroke:none;font-variation-settings:normal"/>
  <path d="m67.777 105.43-1.8768 1.2559-122.98 160.1 0.13233 0.0675 125.12-160.89z" stop-color="#000000" style="-inkscape-stroke:none;font-variation-settings:normal"/>
  <path d="m213.13 45.06 2.2394 0.29062 197.98-39.519-0.0552-0.13794-200.11 38.704z" stop-color="#000000" style="-inkscape-stroke:none;font-variation-settings:normal"/>
  <path d="m200.85 101.47-1.5484 1.6438-84.062 183.55 0.14411 0.0362 85.97-184.8z" stop-color="#000000" style="-inkscape-stroke:none;font-variation-settings:normal"/>
  <path d="m131.35 38.378-0.1353-2.2542-76.011-187.03-0.12514 0.0801 75.611 189.27z" stop-color="#000000" style="-inkscape-stroke:none;font-variation-settings:normal"/>
  <g stroke-dasharray="0.79375, 0.79375" stroke-width=".26458">
   <circle cx="57.622" cy="50.009" r="10.632"/>
   <circle cx="213.1" cy="35.672" r="10.632"/>
   <circle cx="118.06" cy="94.556" r="10.632"/>
  </g>
  <circle cx="126.87" cy="108.28" r="3.9377" stroke-dasharray="0.293981, 0.293981" stroke-width=".097994"/>
  <circle cx="218.19" cy="20.915" r="3.6752" stroke-dasharray="0.274383, 0.274383" stroke-width=".091461"/>
  <circle cx="48.523" cy="36.358" r="4.594" stroke-dasharray="0.342978, 0.342978" stroke-width=".11433"/>
 </g>
 <g id="U1_block" transform="translate(-46.051 -4.0053)" fill="#9ba2a3" type="layer">
  <path transform="translate(-3.5269 .37125)" d="m149.9 126.86c-1.3793-1.6649-40.66-72.382-40.609-77.86 0.051-5.4772 38.698-18.611 40.74-17.925 2.0429 0.68602 5.9425 25.197 5.6453 29.581-0.29722 4.3839-4.7963 9.7017-4.7494 13.722 0.0469 4.0203 6.3102 18.946 6.4736 18.81 0.16335-0.1355 6.5155-28.798 7.271-30.902s2.8197 1.8863 2.6725 5.0721c-0.1472 3.1859-4.8128 47.268-7.5856 50.919-2.7727 3.6512-8.4795 10.247-9.8588 8.5823z" stop-color="#000000" style="-inkscape-stroke:none;font-variation-settings:normal"/>
  <path d="m159.71 58.713c1.5502-6.7748 81.379-55.183 85.247-52.995 3.8681 2.1884-3.9406 91.238-5.5045 98.072-1.5638 6.8346-18.053 24.074-21.984 21.85-3.9309-2.224-59.308-60.153-57.758-66.927z" stop-color="#000000" style="-inkscape-stroke:none;font-variation-settings:normal"/>
  <path d="m246.93 86.029c-2.4104 1.0087-18.815 15.236-16.52 16.957 2.2952 1.7214 52.574 14.53 62.288 14.278 9.7141-0.2515 42.317-14.654 43.782-17.119 1.4649-2.4647-15.696-16.696-19.832-17.85-4.1361-1.154-35.59-1.0224-39.968-0.57956-4.3782 0.44282-9.858 4.0257-11.557 4.2514-1.6989 0.22573-15.783-0.94673-18.193 0.06201z" stop-color="#000000" style="-inkscape-stroke:none;font-variation-settings:normal"/>
  <g stroke-dasharray="0.506082, 0.506082" stroke-width=".16869">
   <circle cx="108.33" cy="41.223" r="8.8172"/>
   <circle cx="249.78" cy="36.725" r="8.8172"/>
   <circle cx="245.68" cy="111" r="8.8172"/>
  </g>
  <circle cx="255.98" cy="119.35" r="2.2275" stroke-dasharray="0.127852, 0.127852" stroke-width=".042617"/>
  <circle cx="257.45" cy="26.266" r="3.7125" stroke-dasharray="0.213087, 0.213087" stroke-width=".071029"/>
  <circle cx="259.35" cy="20.131" r="1.9491" stroke-dasharray="0.111871, 0.111871" stroke-width=".03729"/>
  <circle cx="137.91" cy="122.55" r="8.8172" stroke-dasharray="0.506082, 0.506082" stroke-width=".16869"/>
  <circle cx="123.9" cy="120.13" r="3.2484" stroke-dasharray="0.186451, 0.186451" stroke-width=".06215"/>
  <circle cx="117.46" cy="30.62" r="3.9909" stroke-dasharray="0.229069, 0.229069" stroke-width=".076356"/>
  <circle cx="124.08" cy="26.603" r="1.5778" stroke-dasharray="0.0905622, 0.0905622" stroke-width=".030187"/>
  <path d="m112.47 57.296-1.8376-1.3126-193.21-58.54-0.0164 0.14766 194.7 60.263z" stop-color="#000000" style="-inkscape-stroke:none;font-variation-settings:normal"/>
  <path d="m246.67 41.247 2.243-0.26149 182.47-86.376-0.087-0.12042-184.74 86.102z" stop-color="#000000" style="-inkscape-stroke:none;font-variation-settings:normal"/>
  <path d="m157.64 94.422 0.1633 2.2523 78.326 186.07 0.12416-0.0816-77.953-188.32z" stop-color="#000000" style="-inkscape-stroke:none;font-variation-settings:normal"/>
 </g>
 <g id="O_block" transform="translate(-46.051 -4.0053)" type="layer">
  <path transform="matrix(2.1376 0 0 2.1376 -.26587 -53.855)" d="m110.2 33.552c-1.9861-2.5446-19.681 10.428-21.179 11.779s-5.4396 7.7193-3.9036 11.454c1.536 3.7343 15.571 21.904 17.02 22.934 1.4493 1.0295 8.366-3.5659 8.8476-6.2334 0.48163-2.6675 1.2014-37.388-0.78471-39.932zm-10.782 13.934c1.0188 1.3125 1.4202 16.705 1.2062 18.123-0.21404 1.4181-3.311 3.5044-4.4008 2.7613-1.0898-0.74313-6.8181-8.3696-7.5143-10.096s0.50265-5.2751 1.5819-6.3598c1.0792-1.0848 8.1083-5.741 9.127-4.4285z" fill="#fff" stop-color="#000000" style="-inkscape-stroke:none;font-variation-settings:normal"/>
  <g fill="#f0f0f0">
   <path d="m192.87 40.484c-0.0123 0.02178 35.96-25.102 40.409-19.455 4.4494 5.6468 3.9751 75.822 3.9874 75.8 0.0123-0.02178 2.4698-74.62-1.7445-79.969s-42.64 23.602-42.652 23.624z" stop-color="#000000" style="-inkscape-stroke:none;font-variation-settings:normal"/>
   <path transform="translate(-.066861 -.07346)" d="m202.73 89.398c0.9648 1.1822 2.2567 2.7652 3.164 2.9855s2.8369-0.33871 4.765-1.5883c1.9281-1.2496 3.5486-3.1011 3.8511-4.7776 0.30247-1.6765 0.17202-14.877 0.17723-14.865 5e-3 0.01274 0.5925 14.904 0.43748 16.414-0.15503 1.5097-2.1528 5.5861-3.291 6.1884-1.1382 0.60229-5.215-0.21673-5.8595-0.57408-0.6445-0.35735-2.2417-2.4619-3.2444-3.783z" stop-color="#000000" style="-inkscape-stroke:none;font-variation-settings:normal"/>
   <path d="m213.28 51.409 22.113-10.465 0.0928 1.0209-22.105 10.302z" stop-color="#000000" style="-inkscape-stroke:none;font-variation-settings:normal"/>
   <circle cx="214.58" cy="49.223" r=".65628" stroke-dasharray="0.512097, 0.512097" stroke-width=".1707"/>
  </g>
 </g>
 <g id="O_b_block" type="layer">
  <path d="m191.79 56.872-23.278 14.199c0.14302 5.4806 0.15149 9.971-2e-3 10.988-0.45752 3.0312-7.0776 7.491-9.4072 5.9025-0.93773-0.63941-3.4906-3.6875-6.2932-7.3127l-4.1574 2.5358c9.6608 13.146 21.228 27.709 23.091 29.033 3.098 2.2006 17.883-7.6224 18.912-13.324 0.50814-2.8143 1.1348-22.333 1.1343-42.022z" fill="#e4e3e3" stop-color="#000000" style="-inkscape-stroke:none;font-variation-settings:normal"/>
  <path d="m164.09 42.828c-5.0142 0.28836-15.859 8.2448-17.802 10.383-2.3026 2.5343-4.5769 11.211-3.456 14.26s13.898 21.635 15.415 22.66c1.5175 1.0251 9.6044-3.5828 10.376-7.7946s0.34334-35.222-2.4411-38.795c-0.43508-0.55818-1.1636-0.76783-2.0922-0.71443zm-0.60292 1.2622c0.86616-0.02141 1.5484 0.19654 1.9611 0.73008 2.6412 3.4146 3.4123 32.326 2.7647 36.243-0.64761 3.9173-7.6931 7.7604-9.1661 6.7939-1.4729-0.96652-14.311-18.023-15.417-20.917-1.1058-2.8933 1.1116-11.321 3.2992-13.667 1.8458-1.9793 11.88-9.0674 16.558-9.183z" stop-color="#000000" style="-inkscape-stroke:none;font-variation-settings:normal"/>
 </g>
 <g id="M1_block" transform="translate(-46.051 -4.0053)" type="layer">
  <path transform="matrix(1.8311 0 0 1.8311 39.903 -26.442)" d="m46.25 43.372c0.1239 0.55486 14.45 33.707 15.09 34.902 0.63935 1.1953 2.5344-1.2571 2.7921-2.4719 0.25768-1.2148 3.4121-21.817 5.163-25.862 1.7509-4.0449 9.9839-14.238 15.497-21.063-0.52503-0.04375-1.4589-0.12158-1.9961 0.19295-0.53711 0.31453-8.242 5.4511-12.573 8.3387 0.06563 0.98442 0.15401 2.3101-0.32353 3.3939-0.47755 1.0837-3.2843 5.3708-3.9493 7.7094-0.665 2.3386-2.8187 15.951-3.5467 16.631-0.728 0.67937-3.8323-6.4513-4.2381-8.6055s0.52896-3.8369 1.2946-5.2151c-2.2314-4.069-4.4627-8.1379-6.6941-12.207-2.2751 1.2688-6.6386 3.7023-6.5147 4.2572z" stop-color="#000000" style="-inkscape-stroke:none;font-variation-settings:normal"/>
  <path d="m136.87 44.412 11.235 22.755 2.4069-3.5239-9.5222-20.743z" stop-color="#000000" style="-inkscape-stroke:none;font-variation-settings:normal"/>
  <path d="m141.75 42.585 7.6344 20.455 1.3573-1.5073-5.6139-18.689z" stop-color="#000000" style="-inkscape-stroke:none;font-variation-settings:normal"/>
 </g>
 <g id="M1_b_block" type="layer">
  <path transform="translate(-46.051 -4.0053)" d="m158.74 71.606c-1.64 8.7981-3.7093 20.319-4.6121 21.162-1.1859 1.1067-5.795-9.0699-7.3256-14.115l-8.2057 7.1117c3.5907 8.3028 7.0688 16.31 9.6459 22.195l9.1524 3.7321c0.53108-2.8266 4.0857-25.721 7.1303-38.94z" fill="#302b2b" stop-color="#000000" style="-inkscape-stroke:none;font-variation-settings:normal"/>
 </g>
 <g id="M3_block" transform="translate(-46.051 -4.0053)" type="layer">
  <path transform="matrix(1.7905 .38339 -.38339 1.7905 94.475 -91.939)" d="m75.329 37.455c-6.8565 13.069-17.838 34.002-18.156 37.998-0.31813 3.9959 11.557 19.783 12.971 20.756s6.2862-1.2139 9.5931-0.56608c3.3069 0.64781 8.7188 4.6255 10.073 5.2386 1.3538 0.61309 4.943 0.6968 7.2743 0.75117-10.926-8.5013-27.538-21.427-29.331-25.571s3.4501-17.493 6.8982-26.273c-0.30404-1.1199-0.69243-2.5505-0.40596-3.7811 0.28648-1.2306 2.1922-5.2023 2.3354-6.0103s-0.68429-1.8372-1.2511-2.5422z" stop-color="#000000" style="-inkscape-stroke:none;font-variation-settings:normal"/>
  <path transform="matrix(1.8311 0 0 1.8311 39.903 -26.442)" d="m27.937 71.93c0.68062-1.5469 1.8865-4.2875 2.8381-4.5153 0.95157-0.22774 19.012-1.2859 19.99-2.1061 0.97725-0.82022-5.9519-9.1676-6.2566-9.4928-0.30464-0.3252 0.03958 1.1264-0.10648 0.93747-0.14606-0.18897-7.3975-10.285-11.174-15.544 4.4747 4.5663 13.113 13.382 13.254 13.534 0.14008 0.15236-1.0809-0.33778-0.88754-0.05358s7.9094 10.483 6.716 11.687-15.418 3.873-24.372 5.5534z" stop-color="#000000" style="-inkscape-stroke:none;font-variation-settings:normal"/>
  <path d="m127.17 79.607 6.2032-6.7981 0.33991 0.76478-6.2882 6.883z" stop-color="#000000" style="-inkscape-stroke:none;font-variation-settings:normal"/>
  <path d="m204.3 31.723c0.35767-0.25955 29.338-20.755 32.107-14.546 2.7694 6.2085 2.4151 76.039 0.84731 85.011-1.5678 8.9722-16.914 15.074-17.123 15.124-0.20873 0.0497-2.2248-2.3444-2.0374-2.4294 0.18743-0.085 16.7-4.8418 18.499-14.565 1.7993-9.7234 0.64827-76.563-1.5894-81.39-2.2377-4.827-30.841 13.589-31.172 13.795s0.11009-0.73889 0.46777-0.99844z" stop-color="#000000" style="-inkscape-stroke:none;font-variation-settings:normal"/>
 </g>
 <g id="M3_b_block" type="layer">
  <path transform="matrix(1.7905 .38339 -.38339 1.7905 48.564 -95.874)" d="m57.99 78.661c3.149 6.1694 11.065 16.798 12.154 17.547 1.4138 0.97259 6.2861-1.2141 9.593-0.56626 3.3069 0.64781 8.7187 4.6255 10.073 5.2386 1.3538 0.6131 4.9429 0.69696 7.2742 0.75133-8.6964-6.7666-18.345-13.72-23.906-19.433z" fill="#241f1f" stop-color="#000000" style="-inkscape-stroke:none;font-variation-settings:normal"/>
 </g>
 <g id="M4_block" transform="translate(-46.051 -4.0053)" fill="#393939" type="layer">
  <path transform="translate(-5.2969 .94678)" d="m189.29 38.045c-0.44546 0.43802-18.102 21.528-18.859 28.346-0.75706 6.817 11.056 32.616 11.673 33.677 0.61702 1.0612 2.2963-2.1399 2.0945-4.5575-0.20183-2.4176-3.6061-23.803-2.9387-29.494s8.5961-22.149 9.223-23.868c0.62697-1.7197-0.74667-4.5411-1.1921-4.103z" stop-color="#000000" style="-inkscape-stroke:none;font-variation-settings:normal"/>
  <path d="m125.24 57.077c0.5619 1.611 13.772 33.151 15.189 35.581s3.4412-3.5877 3.4116-4.0057c-0.0295-0.41805-4.925-31.88-5.5482-33.169-0.6232-1.2881-10.641-2.9532-11.467-2.8718-0.82523 0.08136-2.1473 2.8542-1.5854 4.4652z" stop-color="#000000" style="-inkscape-stroke:none;font-variation-settings:normal"/>
 </g>
 <g id="M4_b_block" type="layer">
  <path d="m120.89 72.712c1.6589 5.2555 4.0972 11.341 6.1614 16.179l5.6053 2.2417c-0.40106-3.0489-1.4303-10.056-2.143-16.55z" fill="#312929" stop-color="#000000" style="-inkscape-stroke:none;font-variation-settings:normal"/>
  <path d="m138.05 34.693c-0.0348 0.0031-0.0668 0.01795-0.0951 0.04548-0.45244 0.44035-18.405 21.629-19.19 28.545-0.78506 6.915 11.122 33.281 11.779 34.356 0.6564 1.0743 3.1754-2.4416 3.0525-4.9031-0.12285-2.4615-3.4401-24.022-2.852-29.765 0.58807-5.7436 7.8972-22.379 8.4672-24.115 0.53439-1.6274-0.63954-4.209-1.1612-4.1625zm-0.2372 1.4888c0.44627 0.04768 1.0959 1.5032 0.58291 2.9652-0.58629 1.6709-7.7179 18.528-8.2796 24.186-0.56166 5.6577 2.7556 26.432 2.896 28.784s-1.9715 4.5162-2.56 3.4659c-0.58858-1.0503-11.417-25.581-10.632-32.209 0.78505-6.628 17.406-26.683 17.818-27.121 0.0515-0.05475 0.11091-0.07658 0.17466-0.06976z" stop-color="#000000" style="-inkscape-stroke:none;font-variation-settings:normal"/>
  <path d="m80.415 48.318c-0.89497 0.04649-2.2169 2.8191-1.6381 4.4638 0.57877 1.6447 14.147 33.901 15.607 36.399 1.4601 2.4976 3.5942-3.5205 3.5719-3.9419s-4.3805-32.182-5.0245-33.502c-0.64397-1.3205-11.621-3.4649-12.516-3.4184zm0.40514 0.42426c0.79839-0.0155 10.435 2.4835 11.043 3.7558 0.60781 1.2724 5.5332 31.391 5.5748 31.782 0.04168 0.3905-0.9978 5.3418-2.3838 2.9378-1.386-2.4039-15.189-32.663-15.778-34.211-0.58921-1.5475 0.74571-4.2488 1.5441-4.2643z" stop-color="#000000" style="-inkscape-stroke:none;font-variation-settings:normal"/>
 </g>
 <g id="M2_block" transform="translate(-46.051 -4.0053)" type="layer">
  <path transform="matrix(1.2895 1.3001 -1.3001 1.2895 143.92 -52.956)" d="m26.016 101.08c10.425-14.457 27.64-38.329 28.597-41.037 0.95717-2.707-11.205-5.3379-11.7-5.5443-0.49537-0.20641-1.1439-2.2694-1.5017-3.4074 7.2802 2.7203 19.45 7.2678 19.626 9.5431 0.17558 2.2753-14.412 28.438-15.654 30.276-1.2426 1.8385-4.2259 2.3357-5.1798 2.892-0.95387 0.55626-3.3768 3.0627-4.7069 3.7835-1.33 0.72085-6.134 2.3553-9.4794 3.4936z" fill="#fff" stop-color="#000000" style="-inkscape-stroke:none;font-variation-settings:normal"/>
  <path d="m131.15 66.8c-0.0395 0.07497-0.0936 0.18099-0.13539 0.26045 4.9334 12.38 13.029 32.753 10.345 35.803-2.7012 3.0709-52.909 17.989-56.776 18.814-3.8676 0.82523-9.0446-1.6667-11.225-2.1482-2.1806-0.48146-9.1653-0.83673-11.913-1.6568-2.4588-0.73366-9.2663-3.8816-14.846-6.4833 5.7793 2.8742 13.866 6.8882 16.477 7.6755 2.6522 0.79958 9.0353 0.71744 10.988 1.2402 1.9532 0.52279 6.4467 3.7603 10.439 3.005 3.9925-0.7553 56.816-15.527 59.547-18.689 2.7316-3.1623-7.0497-24.848-12.901-37.821z" fill="#f0f0f0" stop-color="#000000" style="-inkscape-stroke:none;font-variation-settings:normal"/>
  <path transform="matrix(-1.8311 0 0 1.8311 267.8 -28.037)" d="m52.588 46.496c1.2601 2.0238 2.9673 4.7658 3.0914 6.4003 0.12406 1.6346-1.7317 8.0855-2.1833 8.681s-5.6831 4.1622-7.8142 5.8477c-2.1311 1.6855-3.4289 3.0355-4.7267 4.3855 5.9166-1.1815 15.702-3.1356 16.687-4.2053s0.48784-12.17 0.09869-13.73c-0.38915-1.5594-3.7962-6.3158-4.1569-6.7644-0.36073-0.44858-0.75195-0.55115-0.99608-0.61516z" fill="#fff" stop-color="#000000" style="-inkscape-stroke:none;font-variation-settings:normal"/>
  <path d="m171.56 57.025c-0.10037 0.02632-0.21825 0.05889-0.3421 0.0987-2.4968 3.8518-5.193 8.7526-5.7423 11.907-0.56647 3.2526 2.5705 15.064 3.3719 16.155 0.80135 1.0905 9.1101 6.4638 13.569 9.2253 4.3257 2.6788 7.4827 6.5655 10.27 8.9338 0.0523 0.0104 0.12264 0.0247 0.17467 0.0351-2.3765-2.472-4.753-4.9437-8.6553-8.03-3.9023-3.0863-13.482-9.6174-14.309-10.708s-4.2248-12.903-3.9977-15.896c0.22716-2.9931 3.3533-8.0143 5.6606-11.72z" fill="#f0f0f0" stop-color="#000000" style="-inkscape-stroke:none;font-variation-settings:normal"/>
 </g>
 <g id="M2_b_block" type="layer">
  <path transform="matrix(1.2895 1.3001 -1.3001 1.2895 97.83 -57.235)" d="m51.785 55.14-0.1377 2.1037c1.9236 0.8501 3.3124 1.8206 2.965 2.803-0.24344 0.6885-1.5534 2.7653-3.5209 5.6889l-1.1203 17.115c4.6855-8.4725 11.183-20.684 11.065-22.213-0.1026-1.3296-4.3256-3.4347-9.2508-5.4981z" fill="#e5e4e4" stop-color="#000000" style="-inkscape-stroke:none;font-variation-settings:normal"/>
  <path transform="matrix(-1.8311 0 0 1.8311 221.79 -31.938)" d="m57.859 54.631c0.3554 2.9446 0.66964 12.011-0.21702 12.974-0.42726 0.46393-2.5479 1.0959-5.2522 1.7573l-2.3915-5.1111c1.7206-1.2405 3.2616-2.3632 3.4974-2.6742 0.32501-0.42865 1.3693-3.8772 1.8874-6.3935z" fill="#e5e4e4" stop-color="#000000" style="-inkscape-stroke:none;font-variation-settings:normal"/>
  <path d="m125.92 52.533c-0.51926 0.0875-1.351 0.22812-2.0507 1.075-0.69968 0.84689-7.2088 9.899-7.983 12.827-0.77419 2.9277-2.0393 23.643-0.13703 25.626 1.7688 1.8437 18.239 4.9748 29.863 7.1215-11.163-2.2681-26.808-5.5385-28.524-7.3322-1.8565-1.9406-1.0002-21.843-0.3377-24.686 0.66252-2.8434 6.4538-11.845 7.046-12.698 0.59215-0.85297 1.0877-1.0791 1.397-1.2202-2.359 3.5702-5.5552 8.4074-5.7757 11.472-0.22048 3.0644 3.3309 15.633 4.2253 16.742 0.89442 1.1086 11.361 7.2824 15.577 10.285 2.3357 1.6637 4.1364 3.1729 5.711 4.6166-1.5805-1.4915-3.354-3.0676-5.6457-4.8708-4.0489-3.1859-13.927-10.006-14.797-11.112-0.87007-1.106-4.6899-12.852-4.488-15.867 0.20192-3.0152 3.4912-8.1718 5.9192-11.978z" fill="#080000" stop-color="#000000" style="-inkscape-stroke:none;font-variation-settings:normal"/>
  <path transform="matrix(1.2895 1.3001 -1.3001 1.2895 97.671 -57.29)" d="m41.307 50.69c0.39211 1.273 1.1028 3.5809 1.6014 3.8s12.661 2.8499 11.686 5.5806c-0.97475 2.7307-18.356 26.827-28.881 41.42 3.2275-1.0533 7.8623-2.5659 9.1971-3.2725s3.9964-3.2736 5.0744-3.8304c1.078-0.55677 4.5369-0.98823 5.8257-2.8678 1.2888-1.8796 15.992-28.717 15.786-31.05s-12.772-6.9923-20.289-9.7793zm0.78286 0.63738c6.9243 2.4514 18.499 6.5493 18.642 8.858s-14.083 29.581-15.335 31.432c-1.2521 1.8508-4.6633 1.5521-5.7077 2.0579-1.0444 0.50584-3.5701 3.4457-4.8 4.1757s-5.4405 2.0588-8.3729 2.9842c10.493-14.288 27.82-37.882 28.776-40.594 0.95568-2.7115-11.396-5.8204-11.892-6.0275-0.49616-0.20719-1.021-1.9338-1.3105-2.8862z" stop-color="#000000" style="-inkscape-stroke:none;font-variation-settings:normal"/>
 </g>
 <g id="sign" type="layer">
  <path d="m40.241 94.197c-1.2946 0.17365-4.8485 1.4173-6.58 2.1303a2.4708 3.3859 33.469 0 0-2.6455 0.40863c0.20812-0.31195 0.3146-0.54021 0.25743-0.62772-0.29707-0.45473-6.1103 1.6828-6.8641 2.1716-0.75377 0.48883-1.0933 2.7591-0.84194 2.7241 0.25139-0.035 4.3504-2.4488 4.0758-1.866-0.27451 0.58279-4.4969 4.5705-4.3669 4.9744 0.10542 0.32755 4.5751-1.5574 6.4405-2.3973a2.4708 3.3859 33.469 0 0 0.38998 0.35802 2.4708 3.3859 33.469 0 0 3.3697-0.77256c-0.36626 0.42082-0.59243 0.72892-0.55485 0.81896 0.1125 0.26951 3.8684-1.3754 6.0051-2.3614 0.20917 0.2909 0.51712 0.60398 0.91363 0.82314 0.89179 0.49291 2.4803 0.64237 3.3507 0.19198 0.87034-0.45039 1.7134-2.1883 1.73-2.6913 0.01659-0.50306-0.80916-1.3526-1.2512-1.5572-0.44204-0.20459-1.5722-0.24724-1.8825-0.24935-0.31029-0.0021-0.8307 0.01872-0.91358-0.01119-0.08289-0.02991 0.44062-0.13812 0.47669-0.14109 0.03608-3e-3 2.2056-0.08664 2.4649-0.23836 0.25938-0.15172 0.61538-1.5229 0.54996-1.5435-0.06542-0.0206-3.4647 0.4334-3.8738 0.6461-0.04003 0.02082-0.08885 0.0608-0.14141 0.10928 0.31207-0.45097 0.47075-0.78267 0.34826-0.87895-0.0617-0.0485-0.22212-0.05218-0.45694-0.02068zm-16.654 2.6579c-0.22728 0.04061-0.7897 0.37989-0.94317 0.65866-0.20463 0.37169-2.8818 6.4611-2.974 6.6931-0.09225 0.23201 0.24743 0.047 0.3785-0.19112 0.13107-0.23807 3.5215-6.8239 3.6267-7.0883 0.02629-0.06612-0.0122-0.08581-0.08796-0.07227zm-10.793 1.5686a2.4708 3.3859 2.7098 0 0-2.1278 2.2088c-0.1351-0.83348-0.25175-1.4972-0.28568-1.5676-0.1007-0.20873-1.4229 0.30506-1.5838 0.46793-0.16084 0.16288-0.4518 1.0311-0.49694 1.0479-0.045138 0.0167 0.086713-0.77444-0.052871-0.82712-0.13959-0.0526-1.5938 0.53886-1.9957 1.0047-0.40193 0.46584-3.8389 5.6456-4.0356 5.9422-0.19678 0.29656-0.19685 0.29656-0.041555 0.2588 0.1553-0.0378 2.9323-0.71295 3.1862-0.95303 0.25394-0.24008 0.98847-2.3075 1.1078-2.5614 0.1193-0.25386-0.25285 1.1199-0.23432 1.1376 0.01853 0.0176 2.3458-0.3109 2.3712-0.33393 0.025417-0.023 0.10456-1.3448 0.11972-1.1378 0.015158 0.20706 0.00442 2.1639 0.14007 2.3008 0.13567 0.13691 2.3211-0.43243 2.3745-0.64858 0.0091-0.0369-0.01324-0.25652-0.04676-0.53822a2.4708 3.3859 2.7098 0 0 1.6049 0.94943 2.4708 3.3859 2.7098 0 0 2.1621-1.489c-0.11586 0.53095-0.2032 0.90599-0.09443 0.97305 0.24628 0.15182 4.0629-1.4143 4.5541-1.7504 0.4912-0.33613 1.1308-1.8537 1.0205-1.98-0.11029-0.12625-1.7067-0.14846-1.7701-0.16334-0.06346-0.0149 1.3021-0.051 1.3605-0.14518 0.05841-0.0942-0.81365-1.2124-1.4735-1.4781-0.63922-0.25737-3.9507-0.89441-4.3195-0.83199-0.01188 2e-3 -0.02084 0.0046-0.02642 0.0082-0.09359 0.05873 0.14271 0.37684 0.41121 0.9048a2.4708 3.3859 2.7098 0 0-1.5043-0.81223 2.4708 3.3859 2.7098 0 0-0.32348 0.01364zm3.6166 0.99149c0.13425-0.0124 1.4754 0.2975 1.6554 0.3765 0.18583 0.0816 0.56754 0.52298 0.47995 0.57778-0.0876 0.0548-1.1819 0.0899-1.406-9e-3 -0.22406-0.0983-0.79414-0.90898-0.73849-0.9438 0.0017-9.6e-4 0.0047-2e-3 0.0091-2e-3zm23.069-3.1966c-0.29693 0.44787-0.53266 0.85724-0.51268 0.90364 0.04367 0.10136 1.6013-0.06495 2.1077 0.04471 0.50638 0.10965 1.0995 0.58624 1.2161 0.97493 0.11654 0.38868-0.12565 1.0892-0.43992 1.3641-0.31427 0.27488-1.0132 0.46284-1.6937 0.23331-0.20061-0.0676-0.40281-0.17059-0.59402-0.27836 0.42372-0.20025 0.75411-0.36043 0.80994-0.39781 0.3038-0.20345-0.81548-1.0283-1.2149-0.92968-0.39946 0.09857-2.6866 1.6026-2.3576 1.1402 0.18835-0.26478 1.5988-1.7553 2.6792-3.055zm-2.0598 0.76561c0.0843-0.0134 0.10323 0.02201 0.03126 0.12436-0.31996 0.45497-2.4525 2.516-3.675 3.8571a2.4708 3.3859 33.469 0 0 0.25938-0.35427 2.4708 3.3859 33.469 0 0 0.71926-2.2166c0.76633-0.41682 2.3046-1.3533 2.6651-1.4106zm-7.8764 1.5876a2.4708 3.3859 33.469 0 0-0.34654 1.6841c-0.73582 0.3727-2.2941 1.3635-2.0179 0.97515 0.16898-0.23756 1.322-1.4622 2.3644-2.6592zm1.4873-0.12477a0.88883 1.218 33.469 0 1 0.60886 0.08409 0.88883 1.218 33.469 0 1 0.06964 1.5061 0.88883 1.218 33.469 0 1-1.4131 0.52605 0.88883 1.218 33.469 0 1-0.06969-1.5064 0.88883 1.218 33.469 0 1 0.80428-0.60983zm-18.927 2.9206a0.88883 1.218 2.7098 0 1 0.19909-0.0211 0.88883 1.218 2.7098 0 1 0.83016 1.2587 0.88883 1.218 2.7098 0 1-0.94543 1.1748 0.88883 1.218 2.7098 0 1-0.83017-1.2587 0.88883 1.218 2.7098 0 1 0.74634-1.1536zm5.1951-0.16597c0.36958-0.0415 1.5696 0.14971 1.644 0.19007 0.08202 0.0446-0.03822 0.50356-0.29886 0.64182-0.26063 0.13826-1.8831 0.63882-2.0202 0.56438-0.13709-0.0744 0.3941-1.2721 0.5892-1.3756 0.01828-0.01 0.04767-0.0164 0.0859-0.0207z" stop-color="#000000" style="-inkscape-stroke:none;font-variation-settings:normal"/>
 </g>
 <g id="B1_block" transform="translate(-46.051 -4.0053)" type="layer">
  <path transform="matrix(1.8311 0 0 1.8311 43.431 -19.756)" d="m107.6 32.313c1.4821 0.45137 36.091 15.217 37.424 16.004 1.3331 0.78729-1.9047 4.3854-2.4 4.7113-0.49529 0.32586-6.3822 2.7558-7.5816 2.8038-1.1994 0.04804-18.943-1.5788-19.295-1.634-0.3515-0.05524 0.2755-1.0187 1.1758-1.1203 0.90027-0.1016 8.8412-0.13863 9.1144-0.2464 0.2732-0.10777-1.4586-2.8063-2.4296-3.3665-0.971-0.56021-17.016-8.1349-17.883-8.6872s-3.8899-4.8891-3.7816-5.6354 4.1745-3.2808 5.6566-2.8294z" stop-color="#000000" style="-inkscape-stroke:none;font-variation-settings:normal"/>
  <path transform="matrix(-1.3436 -.28769 .28769 -1.3436 312.03 193)" d="m75.404 49.465c-1.3878 1.6363-18.578 21.905-19.061 24.954-0.48317 3.0487 11.368 17.178 12.838 18.247 1.4706 1.0693 6.9027 1.0123 10.939 2.6853 4.0359 1.673 11.865 7.2893 12.627 7.7202 0.76149 0.43087 1.873-0.72612 1.1186-1.4754s-23.665-21.405-25.149-24.77c-1.4847-3.3653 6.4696-15.274 6.8935-16.116 0.42386-0.84193-0.18853-3.0976 0.09795-4.3282 0.28648-1.2306 2.1922-5.2023 2.3354-6.0103 0.1432-0.80798-0.68429-1.8372-1.2511-2.5422 0 1e-6 0 3e-6 -1.3878 1.6363z" stop-color="#000000" style="-inkscape-stroke:none;font-variation-settings:normal"/>
 </g>
 <g id="B1_b_block" type="layer">
  <path d="m211.53 42.556-20.983 14.024c2.8816 4.4967 5.0284 8.1503 5.3103 9.509 0.44464 2.1433-1.9532 5.9299-4.8777 9.617l15.13 3.1755c1.3572-1.2208 2.5619-2.3468 3.4918-3.2954 1.1162 0.14352 32.984 3.0633 35.164 2.976 2.1962-0.08796 12.976-4.5379 13.883-5.1346 0.90694-0.5967 6.8357-7.1852 4.3946-8.6269-1.6839-0.99441-31.752-13.897-51.513-22.245zm-4.0912 16.415c7.7462 3.7127 15.502 7.4213 16.389 7.9328 1.778 1.0258 4.9496 5.9671 4.4493 6.1645-0.50026 0.19735-15.041 0.2651-16.69 0.45114-0.071 8e-3 -0.13505 0.03392-0.20412 0.04754 0.18572-0.26128 0.33531-0.49861 0.40669-0.68368 0.72381-1.8767-1.569-7.8996-4.3512-13.912z" fill="#241f1f" stop-color="#000000" style="-inkscape-stroke:none;font-variation-settings:normal"/>
 </g>
 <g id="B3_block" transform="translate(-46.051 -4.0053)" type="layer">
  <path d="m259.53 79.693c17.567 1.2172 47.424 3.2858 50.928 4.3239 3.5039 1.0381 16.45 13.845 15.1 16.795-1.3496 2.9496-28.368 20.014-32.205 20.255-3.8373 0.24178-54.064-14.56-54.657-14.803s-3.2878-6.6144-2.4652-8.1377c0.82266-1.5233 10.645-9.9926 13.429-10.678s22.709 0.96251 24.135 0.90645 4.6649-2.8734 4.2556-3.0754c-0.40926-0.20197-12.323-2.6193-14.988-3.3979-2.6648-0.77861-3.1316-1.5374-3.5322-2.1886z" fill="#241f1f" stop-color="#000000" style="-inkscape-stroke:none;font-variation-settings:normal"/>
 </g>
 <g id="B2_block" transform="translate(-46.051 -4.0053)" type="layer">
  <path transform="matrix(-1.2895 1.3001 1.3001 1.2895 229.93 -52.795)" d="m26.016 101.08c9.4432-13.819 25.036-36.637 25.986-39.484 0.94971-2.8473-8.2849-8.6483-9.1249-9.9046-0.83999-1.2562-3.2324-13.713-3.2501-13.942-0.01773-0.22897 1.4106 0.23916 1.7053 1.1368 0.29463 0.8976 2.1642 9.8769 3.9367 11.585 1.7725 1.7084 15.989 7.9117 16.025 10.069 0.03578 2.1575-14.67 28.532-15.912 30.37-1.2426 1.8385-4.2259 2.3357-5.1798 2.892-0.95387 0.55626-3.3768 3.0627-4.7069 3.7835-1.33 0.72085-6.134 2.3553-9.4794 3.4936z" fill="#fff" stop-color="#000000" style="-inkscape-stroke:none;font-variation-settings:normal"/>
  <path d="m240.63 85.816-7.9918 2.5053c-2.3546 7.8758-4.4526 15.746-3.0127 17.222 1.0593 1.0862 9.5906 3.9546 19.892 7.1148l11.97-13.344c-9.6392-1.9991-16.819-3.6548-18.509-4.4907-1.979-0.97894-2.4483-4.719-2.3492-9.0077z" fill="#e5e4e4" stop-color="#000000" style="-inkscape-stroke:none;font-variation-settings:normal"/>
  <path transform="matrix(-1.2895 1.3001 1.3001 1.2895 229.99 -52.901)" d="m39.51 37.02c0.21365-0.13311 1.9608 0.43528 2.271 1.297 0.33095 0.91919 2.1252 10.025 3.9094 11.762 1.7841 1.7373 16.186 8.0718 16.239 10.294 0.05268 2.2221-14.874 28.964-16.149 30.855-1.2751 1.8907-4.434 2.7983-5.4718 3.3349-1.0378 0.53665-3.5032 3.0008-4.9276 3.7153s-6.6742 2.3509-10.33 3.4904c9.5742-13.927 25.384-36.923 26.371-39.792s-8.0545-8.6976-8.8703-10.015c-0.81582-1.3174-3.0588-14.662-3.0631-14.906-2.68e-4 -0.01523 0.0074-0.02733 0.0216-0.03621zm0.33479 0.42588c-0.0386 0.01169-0.05964 0.0326-0.05801 0.0629 0.01302 0.24239 2.1682 13.284 3.0372 14.574s10.71 7.0183 9.7716 9.8349-16.862 25.395-26.504 39.069c3.1921-0.97712 7.7759-2.3803 9.0502-3.0823 1.2743-0.70198 3.6195-3.375 4.6938-3.9428 1.0743-0.56784 4.1848-1.3227 5.4628-3.1752 1.278-1.8525 15.928-27.942 15.851-30.113-0.077293-2.171-14.175-8.4989-15.945-10.226s-3.4399-10.994-3.7162-11.91c-0.24174-0.8015-1.3728-1.1737-1.643-1.0918z" stop-color="#000000" style="-inkscape-stroke:none;font-variation-settings:normal"/>
  <path transform="matrix(-1 0 0 1 411.2 .18594)" d="m189.29 38.045c-0.44546 0.43802-18.102 21.528-18.859 28.346-0.75706 6.817 11.056 32.616 11.673 33.677 0.61702 1.0612 2.2963-2.1399 2.0945-4.5575-0.20183-2.4176-3.6061-23.803-2.9387-29.494s8.5961-22.149 9.223-23.868c0.62697-1.7197-0.74667-4.5411-1.1921-4.103z" fill="#393939" stop-color="#000000" style="-inkscape-stroke:none;font-variation-settings:normal"/>
  <path d="m238.96 75.957c-1.6589 5.2555-4.0972 11.341-6.1614 16.179l-5.6053 2.2417c0.40106-3.0489 1.4303-10.056 2.143-16.55z" fill="#312929" stop-color="#000000" style="-inkscape-stroke:none;font-variation-settings:normal"/>
  <path d="m221.8 37.937c0.0348 0.0031 0.0668 0.01795 0.0951 0.04548 0.45244 0.44035 18.405 21.629 19.19 28.545 0.78506 6.915-11.122 33.281-11.779 34.356-0.6564 1.0743-3.1754-2.4416-3.0525-4.903 0.12285-2.4615 3.4401-24.022 2.852-29.765-0.58807-5.7436-7.8972-22.379-8.4672-24.115-0.53439-1.6274 0.63954-4.209 1.1612-4.1625zm0.2372 1.4888c-0.44627 0.04768-1.0959 1.5032-0.58291 2.9652 0.58629 1.6709 8.3742 18.462 8.9359 24.12 0.56166 5.6577-2.7556 26.432-2.896 28.784-0.1404 2.3518 1.3152 4.5818 1.9038 3.5316 0.58858-1.0503 11.417-25.581 10.632-32.209-0.78505-6.628-17.406-26.683-17.818-27.121-0.0515-0.05475-0.11091-0.07658-0.17466-0.06976z" stop-color="#000000" style="-inkscape-stroke:none;font-variation-settings:normal"/>
 </g>
 <g id="B4_block" transform="translate(-46.051 -4.0053)" type="layer">
  <path transform="translate(.26251 2.3626)" d="m252.15 91.681c2.4942-0.69037 16.924 0.86532 20.279 0.27761 3.3553-0.58771 6.8458-5.2161 9.9704-4.5504 3.1246 0.66568 30.331 12.353 31.658 15.924 1.3268 3.5701-14.325 18.39-22.141 18.774-7.8163 0.3846-51.921-14.284-53.434-14.847s-2.8368-2.8898-1.7478-4.0881c1.089-1.1982 12.922-10.8 15.416-11.49z" stop-color="#000000" style="-inkscape-stroke:none;font-variation-settings:normal"/>
 </g>
 <g id="B5_block" type="layer">
  <path transform="translate(-42.524 -5.8616)" d="m232.55 44.419c0.9099-1.2298 6.9211-4.9695 8.7644-4.3306s58.254 27.885 59.576 28.665c1.3223 0.78001-0.12298 5.0421-2.5303 5.8497-2.4074 0.80763-18.855 2.8925-20.259 2.5776-1.4035-0.31488-2.2739-6.9756-4.5882-8.5251-2.3143-1.5495-36.414-18.163-38.545-19.342s-3.3288-3.6647-2.4189-4.8945z" stop-color="#000000" style="-inkscape-stroke:none;font-variation-settings:normal"/>
 </g>
 <g id="G1_block" transform="translate(-46.051 -4.0053)" type="layer">
  <path transform="translate(.51047 -.78891)" d="m197.33 89.61c-0.0911 2.6098-0.2272 6.5118 2.4592 9.7883 2.6864 3.2764 29.04 28.738 29.069 28.583 0.0292-0.15488-23.574-46.387-20.886-51.763s52.393-23.042 57.547-23.893c5.1541-0.85131 21.872 7.338 22.053 7.3938 0.18185 0.0558-1.0152-3.7244-1.239-3.8884-0.22379-0.16407-17.881-10.583-20.905-10.877-3.0238-0.29384-17.506 5.5725-19.353 6.6353-1.8471 1.0629-3.5977 4.314-8.1217 6.6571-4.524 2.3431-30.694 13.53-33.235 16.599-2.5409 3.0689 1.9575 17.532 1.9025 19.125-0.055 1.5931-4.9141-4.0517-5.7042-4.6253-0.79009-0.57357-2.4973-0.06167-3.5864 0.26492z" fill="#0a0a0a" stop-color="#000000" style="-inkscape-stroke:none;font-variation-settings:normal"/>
 </g>
</svg>
