<?xml version="1.0" encoding="UTF-8" standalone="no"?>
<!-- Created with Inkscape (http://www.inkscape.org/) -->

<svg
   width="1400.2454"
   height="559.02795"
   viewBox="0 0 370.48158 147.90948"
   version="1.1"
   id="svg5"
   xmlns="http://www.w3.org/2000/svg"
   xmlns:svg="http://www.w3.org/2000/svg">
  <defs
     id="defs2" />
  <g
     id="layer1"
     style="display:none">
    <rect
       style="fill:#dae2e4;fill-opacity:1;stroke-width:0.223535"
       id="rect2373"
       width="397.13504"
       height="149.65195"
       x="0.41534933"
       y="-0.67294598" />
  </g>
  <g
     id="letter_b_star"
     style="display:inline"
     transform="translate(0,-0.85359868)"
     type="layer">
    <path
       style="display:inline;fill:#000000;fill-opacity:1;stroke:none;stroke-opacity:1"
       id="path194095-7"
       transform="matrix(0.39564943,-0.04427716,0.04427716,0.39564943,46.765342,-36.065685)"
       d="m 388.11349,140.02808 33.79063,22.56308 37.74335,-15.04455 -11.01688,39.10917 25.97156,31.24704 -40.59944,1.60772 -21.69205,34.35629 -14.07495,-38.11555 -39.37798,-10.01369 31.90064,-25.16442 z" />
  </g>
  <g
     id="letter_b"
     style="display:inline"
     transform="translate(-58.193854,-25.781868)"
     type="layer">
    <g
       id="g26254"
       transform="translate(3.1504986,-1.8704622)"
       style="fill:#ffffff;fill-opacity:1;stroke:none">
      <path
         id="path16242"
         style="fill:#ffffff;fill-opacity:1;stroke:none;stroke-width:0.999999px;stroke-linecap:butt;stroke-linejoin:miter;stroke-opacity:1"
         d="m 743.8418,25.716797 c 2.30867,12.569283 4.64812,24.621454 7.86132,36.328125 l -24.95507,-27.210938 -0.95508,17.615235 115.9375,205.664061 -4.64649,27.1582 36.52735,197.79883 100.92187,-178.05664 -39.43164,-42.99414 c 22.74371,1.49527 47.22632,3.12098 61.84961,3.99609 20.77373,1.24319 37.17413,1.98476 33.11913,8.07618 -4.0551,6.09143 -29.2927,20.56324 -52.05468,33.61523 l -65.54882,125.11328 30.69922,15.88477 c 1.402,-0.8017 3.34039,-1.9174 4.77929,-2.74024 10.1366,-32.80113 38.36897,-121.75278 37.82617,-116.20703 -0.5216,5.33102 -24.29254,80.99671 -32.81054,112.41016 77.95866,-44.59206 201.37006,-114.48571 211.66406,-125.36133 10.8519,-11.46504 29.6064,-124.81193 23.7324,-129.14062 -5.8741,-4.32869 -156.3255,14.6677 -161.0312,14.64843 -4.7057,-0.0192 25.7057,-18.28405 17.8027,-24.41601 -7.903,-6.13196 -135.1092,-63.26335 -143.7871,-66.15625 -8.6779,-2.8929 -53.86647,-6.87299 -66.10157,-15.615237 C 823.00503,87.384691 823.1902,71.467145 823.375,55.851562 Z m 99.18554,135.904293 c 35.80621,17.87498 73.6159,30.7126 84.66016,39.56836 12.68579,10.17195 -5.24664,24.52955 -17.05859,34.14453 z"
         transform="matrix(0.26458333,0,0,0.26458333,55.043355,27.65233)" />
    </g>
  </g>
  <g
     id="letter_b_over"
     style="display:inline"
     transform="translate(0,-0.853599)"
     type="layer">
    <path
       id="path30102"
       style="fill:#5e929f;fill-opacity:1;stroke:none;stroke-width:0.999999px;stroke-linecap:butt;stroke-linejoin:miter;stroke-opacity:1"
       d="m 924.90234,107.96094 -20.48828,8.53711 96.50584,46.81445 -31.32224,28.71289 162.91214,88.35547 -45.2578,48.85352 1.5214,14.39648 -6.6191,6.09766 2.2227,10.75 -14.8106,2.22656 -11.3867,8.16797 -187.26368,-58.72266 -2.60157,-22.44531 6.97071,-15.10742 -26.62305,-36.82618 -8.37109,47.35547 34.99414,187.86328 11.9375,-20.20898 -11.70508,-100.96484 44.96875,0.72461 10.25781,-15.14258 123.67186,36.17578 -50.3125,36.09375 -12.16014,23.39258 55.62304,-33.01563 31.8945,6.8418 4.6504,-1.75 -29.9609,-9 3.3672,-1.99805 32.1719,9.39453 6.8339,-1.66601 -31.3925,-12.24805 2.2617,-1.3418 41.9609,16.46485 108.0801,-54.60352 2.5234,-10.03711 -52.2129,7.84766 37.0371,-12.67383 -22.3574,-121.24805 -19.4179,-6.51562 -12.8106,79.52539 -0.1523,0.14062 -167.41605,-92.75195 28.17575,-26.32031 11.9512,5.79883 19.4941,-14.79688 -10.1582,-28.48828 z m 210.45316,173.96289 12.834,6.96094 -55.3106,50.96289 -0.6269,-11.79688 z m -263.50784,38.24609 55.57422,16.25586 -6.55274,9.96875 -46.08008,-0.85351 z"
       transform="matrix(0.26458333,0,0,0.26458333,0,0.85359868)" />
  </g>
  <g
     id="letter_b_outline"
     transform="translate(-58.193854,-25.781868)"
     style="display:inline"
     type="layer">
    <path
       id="path26873-2"
       style="display:inline;fill:#000000;fill-opacity:1;stroke:none;stroke-width:0.999999px;stroke-linecap:butt;stroke-linejoin:miter;stroke-opacity:1"
       d="m 732.20117,15.035156 11.0586,28.658203 -21.79883,-19.15625 -1.42188,25.990235 114.06641,208.271486 -4.50586,24.18945 42.64844,230.06836 41.23047,-71.58398 28.76757,13.70117 c 79.73251,-46.70385 226.93631,-132.92985 233.69341,-140.0625 6.757,-7.13265 28.0365,-127.46636 22.7187,-132.11524 -5.3178,-4.64888 -100.0481,6.4823 -153.6836,12.78516 7.5186,-7.33038 22.5556,-21.99039 17.5508,-24.15234 -5.0048,-2.16195 -141.68846,-61.20526 -159.75978,-66.01172 -18.0712,-4.80646 -48.92878,-2.78818 -65.63085,-14.343752 -16.70215,-11.55557 -8.53836,-34.472705 -10.93946,-37.226563 -2.40109,-2.75387 -61.48695,-26.143319 -93.99414,-39.011719 z m 11.75391,10.486328 79.5332,30.134766 c -0.18482,15.615609 -0.37,31.53312 11.86524,40.275391 12.23512,8.742239 57.42365,12.722349 66.10156,15.615239 1.58276,0.52763 7.97426,3.26397 16,6.76171 l -39.43555,59.10743 c -11.18646,-4.82676 -23.10237,-10.11122 -34.87891,-15.99024 l 67.60157,73.71289 c 11.81189,-9.61497 29.74439,-23.97261 17.05859,-34.14453 -7.09985,-5.69294 -25.30184,-13.05785 -46.88086,-22.32226 l 39.33399,-59.14258 c 37.48294,16.41174 118.69259,53.28896 124.98829,58.17382 7.903,6.13199 -22.5086,24.39713 -17.8027,24.41602 2.4776,0.0102 45.2505,-5.21747 86.1601,-9.57031 l 0.053,156.83594 c -45.517,27.04541 -111.9022,64.74546 -160.57808,92.58789 8.518,-31.41347 32.28882,-107.07917 32.81055,-112.41016 0.54277,-5.54574 -27.68956,83.40591 -37.82618,116.20703 -1.43886,0.82284 -3.37728,1.93848 -4.77929,2.74024 L 912.58008,432.625 978.12891,307.51172 c 22.76199,-13.05199 47.99959,-27.52381 52.05469,-33.61524 4.055,-6.09142 -12.3455,-6.83297 -33.11915,-8.07617 -14.62329,-0.87511 -39.10581,-2.50083 -61.84961,-3.99609 l 39.43164,42.99414 -22.43164,39.57617 -110.06445,-32.5 -4.95312,-26.81836 4.64648,-27.1582 -115.9375,-205.664064 0.95508,-17.615234 24.95508,27.210937 c -3.21317,-11.70667 -5.55268,-23.758852 -7.86133,-36.328125 z M 1183.2461,186.83398 c 2.8529,0.0307 4.6739,0.23091 5.2246,0.63672 5.874,4.32869 -12.8805,117.67558 -23.7324,129.14063 -3.7381,3.94924 -22.4955,15.73461 -48.4727,31.21094 l -0.6504,-155.48243 c 28.7659,-3.04397 56.3431,-5.62729 67.6309,-5.50586 z M 842.62695,314.47461 950.89648,346.7207 873.72461,482.875 Z"
       transform="matrix(0.26458333,0,0,0.26458333,58.193854,25.781868)" />
  </g>
  <g
     id="letter_m"
     style="display:inline"
     transform="translate(-58.193854,-25.781868)"
     type="layer">
    <path
       id="path16535"
       style="fill:#ffffff;fill-opacity:1;stroke:none;stroke-width:0.451695px;stroke-linecap:butt;stroke-linejoin:miter;stroke-opacity:1"
       d="m 137.10551,40.4616 -3.61003,7.412388 -2.28847,-6.05995 -15.96901,13.417638 -12.61305,67.080244 -16.067821,6.63957 53.105051,11.41677 5.89144,-2.01234 18.57332,-6.3449 -17.64876,6.6572 5.1945,1.75474 18.07751,-8.10846 -24.49035,-56.292501 22.32803,40.626091 -4.11995,-42.872212 8.4631,48.424882 5.40976,1.92235 43.518,16.75507 -43.35567,-15.92667 0.69872,3.25538 73.82656,28.29446 -14.56012,-34.79992 -5.04275,-2.61489 -4.64575,-14.01843 -0.26378,-0.14115 -39.65125,-32.248561 -7.45649,-3.534162 -24.18333,-26.482385 -3.6551,19.108924 z" />
  </g>
  <g
     id="letter_m_star"
     style="display:inline"
     transform="translate(-58.193854,-25.781868)"
     type="layer">
    <path
       style="fill:#000c0d;fill-opacity:1;stroke:none;stroke-opacity:1"
       id="path194095-7-3-6"
       transform="matrix(0.39505136,-0.14554199,0.14554199,0.39505136,-87.989741,34.391387)"
       d="m 388.11349,140.02808 33.79063,22.56308 37.74335,-15.04455 -11.01688,39.10917 25.97156,31.24704 -40.59944,1.60772 -21.69205,34.35629 -14.07495,-38.11555 -39.37798,-10.01369 31.90064,-25.16442 z" />
  </g>
  <g
     id="letter_o_star"
     style="display:inline"
     transform="translate(-58.193854,-25.781868)"
     type="layer">
    <path
       style="display:inline;fill:#000000;fill-opacity:1;stroke:none;stroke-opacity:1"
       id="path194095"
       d="m 388.11349,140.02808 33.79063,22.56308 37.74335,-15.04455 -11.01688,39.10917 25.97156,31.24704 -40.59944,1.60772 -21.69205,34.35629 -14.07495,-38.11555 -39.37798,-10.01369 31.90064,-25.16442 z"
       transform="matrix(0.45169507,0,0,0.45169507,33.232598,55.06394)" />
  </g>
  <g
     id="letter_o"
     style="display:inline"
     transform="translate(-58.193854,-25.781868)"
     type="layer">
    <path
       id="path39162"
       style="fill:#ffffff;fill-opacity:1;stroke:none;stroke-width:0.378714;stroke-opacity:1"
       d="M 214.42449,38.147821 A 60.519369,37.511615 66.904198 0 1 272.66943,79.1016 60.519369,37.511615 66.904198 0 1 261.90408,149.48478 60.519369,37.511615 66.904198 0 1 203.6591,108.53103 60.519369,37.511615 66.904198 0 1 214.42449,38.147821 Z m 32.87472,37.587645 a 25.609566,15.873531 66.904198 0 0 -4.55525,29.783244 25.609566,15.873531 66.904198 0 0 24.64701,17.33079 25.609566,15.873531 66.904198 0 0 4.55561,-29.784235 25.609566,15.873531 66.904198 0 0 -24.64737,-17.329799 z" />
  </g>
  <g
     id="letter_m_outline"
     style="display:inline"
     type="layer">
    <path
       id="path200381-0"
       style="font-variation-settings:normal;display:inline;vector-effect:none;fill:#000000;fill-opacity:1;stroke:none;stroke-width:0.999999px;stroke-linecap:butt;stroke-linejoin:miter;stroke-miterlimit:4;stroke-dasharray:none;stroke-dashoffset:0;stroke-opacity:1;-inkscape-stroke:none;stop-color:#000000"
       d="M 299.44531,36.583984 284.01172,71.171875 279.96875,52.96875 214.83008,98.537109 160.17969,359.33398 55.177734,390.1875 l 243.462886,53.05273 33.45313,-13.48046 20.44922,8.32226 87.12109,-32.06641 -24.90234,-57.58203 7.96289,15.04493 16.54297,10.94336 4.57422,15.82617 294.77734,110.41211 -36.54883,-116.67383 c 0,0 20.89488,76.23934 30.79102,110.125 l -279.0293,-106.93945 -2.64062,-12.30274 163.86328,60.19531 -164.47852,-63.32617 -20.44531,-7.26562 -31.98633,-183.02344 15.57031,162.03711 -84.38867,-153.54883 92.5625,212.75977 -68.32422,30.64648 -19.63281,-6.63281 66.70313,-25.16016 -70.19727,23.98047 -22.26758,7.60547 -200.71289,-43.15039 60.73047,-25.09375 47.66992,-253.53125 60.35547,-50.712892 8.65039,22.904296 13.64258,-28.015625 58.44922,80.537111 13.81445,-72.222658 91.40039,100.091798 34.65415,11.09619 25.55861,23.46269 -0.6776,-7.83036 L 500.02734,172.01172 464.88281,160.875 368.72461,45.716797 353.49805,125.65234 Z"
       transform="scale(0.26458333)" />
    <path
       style="fill:#000000;fill-opacity:1;stroke:none;stroke-width:0.264583px;stroke-linecap:butt;stroke-linejoin:miter;stroke-opacity:1"
       d="m 46.18328,85.684256 57.81619,2.909247 -0.12088,-1.39147 -58.813104,-2.690577 z"
       id="path43371" />
  </g>
  <g
     id="letter_m_over"
     style="display:inline"
     transform="translate(-58.193854,-25.781868)"
     type="layer">
    <path
       id="path12634"
       style="fill:#5e929f;fill-opacity:1;stroke:none;stroke-width:0.451695px;stroke-linecap:butt;stroke-linejoin:miter;stroke-opacity:1"
       d="m 126.11574,31.57062 -15.4538,6.044949 -1.53417,1.827071 17.59317,-7.374451 z m 0.8134,0.68107 -17.91959,7.692931 -0.72606,2.3714 19.11322,-9.372673 z m 0.67313,0.857516 -19.35231,10.21166 -0.29113,2.799272 17.587,-10.096089 -17.6964,11.156515 -3.10893,29.929212 13.87551,-17.32145 -4.46137,39.651239 -8.93598,6.973925 -0.63431,4.13142 -2.91396,-0.97749 -1.18129,6.49752 28.05715,6.61751 c 0,0 -25.14657,-5.17948 -28.33505,-6.03171 l -22.919995,16.04047 -19.097351,41.00014 94.077856,-47.15273 -23.21554,-7.78644 -9.35503,-10.06698 1.49712,-15.124726 -0.99338,-1.476831 3.24215,-38.327031 9.56676,-11.942574 z m 35.22781,0.825753 c 0.51801,1.800574 6.78954,27.965395 6.78954,27.965395 l 1.63122,1.577405 -2.277,-15.761688 3.73795,18.938549 8.00347,5.445925 0.28496,2.737521 34.68347,29.431634 13.27207,31.1899 6.94746,3.66914 2.37758,6.70397 40.29437,16.39158 -36.52113,-42.50697 -4.83984,-2.77192 26.84057,34.01563 -30.70821,-36.87402 -7.69205,-3.85881 8.93686,25.20053 -3.16364,-1.82179 -9.85788,-25.49254 -37.59744,-31.784507 -0.32819,-2.2373 32.8714,22.36508 -39.55419,-54.290748 z m -43.15541,64.421247 -1.38773,12.801844 5.01364,5.66384 -17.06296,-5.72295 0.41553,-2.59371 z" />
  </g>
  <g
     id="letter_o_oultine"
     style="display:inline"
     transform="translate(-58.193854,-25.781868)"
     type="layer">
    <path
       id="path39162-0"
       style="display:inline;fill:#000000;fill-opacity:1;stroke:none;stroke-width:1.43136;stroke-opacity:1"
       d="m 624.31836,36.671875 c -12.7231,0.04332 -24.80848,2.469527 -35.95898,7.224609 -72.02408,30.715971 -90.23928,149.814886 -40.68555,266.015626 0.20977,0.49181 0.4347,0.97424 0.64648,1.46484 a 228.73462,141.77618 66.904198 0 0 2.71289,6.62696 228.73462,141.77618 66.904198 0 0 220.13868,154.7832 228.73462,141.77618 66.904198 0 0 42.09179,-262.6543 228.73462,141.77618 66.904198 0 1 -47.15039,249.78711 228.73462,141.77618 66.904198 0 1 -163.91992,-63.86523 C 584.59994,373.25938 569.33374,347.11366 557.36914,319.0625 507.81526,202.86029 526.03267,83.760677 598.05859,53.046875 639.00172,35.643935 690.77342,50.247069 737.88281,92.486328 702.49366,57.335078 663.06052,37.517212 626.87109,36.695312 c -0.85378,-0.01832 -1.70452,-0.02632 -2.55273,-0.02344 z M 728.92969,178.20312 a 96.79206,59.994448 66.904198 0 0 -5.71289,0.0313 96.79206,59.994448 66.904198 0 0 -12.30078,2.95117 96.79206,59.994448 66.904198 0 0 -17.21875,112.56445 96.79206,59.994448 66.904198 0 0 0.95312,2.05273 96.79206,59.994448 66.904198 0 1 21.32031,-101.75 96.79206,59.994448 66.904198 0 1 92.32422,63.70899 96.79206,59.994448 66.904198 0 0 -4.22461,-11.08008 96.79206,59.994448 66.904198 0 0 -75.14062,-68.47852 z"
       transform="matrix(0.26458333,0,0,0.26458333,58.193854,25.781868)" />
    <path
       style="fill:#000000;fill-opacity:1;stroke:none;stroke-width:0.264583px;stroke-linecap:butt;stroke-linejoin:miter;stroke-opacity:1"
       d="m 205.44707,48.046513 35.84355,31.367192 -0.17527,0.642018 -36.27141,-31.411849 z"
       id="path39445" />
  </g>
  <g
     id="letter_m_star_top"
     type="layer"
     style="display:inline">
    <path
       style="display:inline;fill:#000000;fill-opacity:1;stroke:none;stroke-opacity:1"
       id="path194095-7-3"
       transform="matrix(0.206823,-0.03284508,0.03284508,0.206823,98.376129,-5.2806456)"
       d="m 388.11349,140.02808 33.79063,22.56308 37.74335,-15.04455 -11.01688,39.10917 25.97156,31.24704 -40.59944,1.60772 -21.69205,34.35629 -14.07495,-38.11555 -39.37798,-10.01369 31.90064,-25.16442 z" />
  </g>
</svg>
