<?xml version="1.0" encoding="UTF-8"?>
<!-- Created with Inkscape (http://www.inkscape.org/) -->
<svg width="1098" height="466.74" version="1.1" viewBox="0 0 290.52 123.49" xmlns="http://www.w3.org/2000/svg">
 <g transform="translate(-46.051 -4.0053)" type="layer">
  <rect x="37.245" y="-3.2137" width="306.28" height="138.63" fill="#cacaca" stroke-width=".38345"/>
 </g>
 <g id="U1_block" transform="translate(-46.051 -4.0053)" fill="#9ea6a8" type="layer">
  <path transform="translate(-3.5269 .37125)" d="m149.9 126.86c-1.3793-1.6649-40.66-72.382-40.609-77.86 0.051-5.4772 38.698-18.611 40.74-17.925 2.0429 0.68602 5.9425 25.197 5.6453 29.581-0.29722 4.3839-4.7963 9.7017-4.7494 13.722 0.0469 4.0203 6.3102 18.946 6.4736 18.81 0.16335-0.1355 6.5155-28.798 7.271-30.902s2.8197 1.8863 2.6725 5.0721c-0.1472 3.1859-4.8128 47.268-7.5856 50.919-2.7727 3.6512-8.4795 10.247-9.8588 8.5823z" stop-color="#000000" style="-inkscape-stroke:none;font-variation-settings:normal"/>
  <path d="m159.71 58.713c1.5502-6.7748 81.379-55.183 85.247-52.995 3.8681 2.1884-3.9406 91.238-5.5045 98.072-1.5638 6.8346-18.053 24.074-21.984 21.85-3.9309-2.224-59.308-60.153-57.758-66.927z" stop-color="#000000" style="-inkscape-stroke:none;font-variation-settings:normal"/>
  <path d="m246.93 86.029c-2.4104 1.0087-18.815 15.236-16.52 16.957 2.2952 1.7214 52.574 14.53 62.288 14.278 9.7141-0.2515 42.317-14.654 43.782-17.119 1.4649-2.4647-15.696-16.696-19.832-17.85-4.1361-1.154-35.59-1.0224-39.968-0.57956-4.3782 0.44282-9.858 4.0257-11.557 4.2514-1.6989 0.22573-15.783-0.94673-18.193 0.06201z" stop-color="#000000" style="-inkscape-stroke:none;font-variation-settings:normal"/>
  <g stroke-dasharray="0.506082, 0.506082" stroke-width=".16869">
   <circle cx="108.33" cy="41.223" r="8.8172"/>
   <circle cx="249.78" cy="36.725" r="8.8172"/>
   <circle cx="245.68" cy="111" r="8.8172"/>
  </g>
  <circle cx="255.98" cy="119.35" r="2.2275" stroke-dasharray="0.127852, 0.127852" stroke-width=".042617"/>
  <circle cx="257.45" cy="26.266" r="3.7125" stroke-dasharray="0.213087, 0.213087" stroke-width=".071029"/>
  <circle cx="259.35" cy="20.131" r="1.9491" stroke-dasharray="0.111871, 0.111871" stroke-width=".03729"/>
  <circle cx="137.91" cy="122.55" r="8.8172" stroke-dasharray="0.506082, 0.506082" stroke-width=".16869"/>
  <circle cx="123.9" cy="120.13" r="3.2484" stroke-dasharray="0.186451, 0.186451" stroke-width=".06215"/>
  <circle cx="117.46" cy="30.62" r="3.9909" stroke-dasharray="0.229069, 0.229069" stroke-width=".076356"/>
  <circle cx="124.08" cy="26.603" r="1.5778" stroke-dasharray="0.0905622, 0.0905622" stroke-width=".030187"/>
  <path d="m112.47 57.296-1.8376-1.3126-193.21-58.54-0.0164 0.14766 194.7 60.263z" stop-color="#000000" style="-inkscape-stroke:none;font-variation-settings:normal"/>
  <path d="m246.67 41.247 2.243-0.26149 182.47-86.376-0.087-0.12042-184.74 86.102z" stop-color="#000000" style="-inkscape-stroke:none;font-variation-settings:normal"/>
  <path d="m157.64 94.422 0.1633 2.2523 78.326 186.07 0.12416-0.0816-77.953-188.32z" stop-color="#000000" style="-inkscape-stroke:none;font-variation-settings:normal"/>
 </g>
 <g id="O_block" transform="translate(-46.051 -4.0053)" type="layer">
  <path transform="matrix(2.1376 0 0 2.1376 -.26587 -53.855)" d="m110.2 33.552c-1.9861-2.5446-19.681 10.428-21.179 11.779s-5.4396 7.7193-3.9036 11.454c1.536 3.7343 15.571 21.904 17.02 22.934 1.4493 1.0295 8.366-3.5659 8.8476-6.2334 0.48163-2.6675 1.2014-37.388-0.78471-39.932zm-10.782 13.934c1.0188 1.3125 1.4202 16.705 1.2062 18.123-0.21404 1.4181-3.311 3.5044-4.4008 2.7613-1.0898-0.74313-6.8181-8.3696-7.5143-10.096s0.50265-5.2751 1.5819-6.3598c1.0792-1.0848 8.1083-5.741 9.127-4.4285z" fill="#fff" stop-color="#000000" style="-inkscape-stroke:none;font-variation-settings:normal"/>
  <g fill="#f0f0f0">
   <path d="m192.87 40.484c-0.0123 0.02178 35.96-25.102 40.409-19.455 4.4494 5.6468 3.9751 75.822 3.9874 75.8 0.0123-0.02178 2.4698-74.62-1.7445-79.969s-42.64 23.602-42.652 23.624z" stop-color="#000000" style="-inkscape-stroke:none;font-variation-settings:normal"/>
   <path transform="translate(-.066861 -.07346)" d="m202.73 89.398c0.9648 1.1822 2.2567 2.7652 3.164 2.9855s2.8369-0.33871 4.765-1.5883c1.9281-1.2496 3.5486-3.1011 3.8511-4.7776 0.30247-1.6765 0.17202-14.877 0.17723-14.865 5e-3 0.01274 0.5925 14.904 0.43748 16.414-0.15503 1.5097-2.1528 5.5861-3.291 6.1884-1.1382 0.60229-5.215-0.21673-5.8595-0.57408-0.6445-0.35735-2.2417-2.4619-3.2444-3.783z" stop-color="#000000" style="-inkscape-stroke:none;font-variation-settings:normal"/>
   <path d="m213.28 51.409 22.113-10.465 0.0928 1.0209-22.105 10.302z" stop-color="#000000" style="-inkscape-stroke:none;font-variation-settings:normal"/>
   <circle cx="214.58" cy="49.223" r=".65628" stroke-dasharray="0.512097, 0.512097" stroke-width=".1707"/>
  </g>
 </g>
 <g id="M1_block" transform="translate(-46.051 -4.0053)" type="layer">
  <path transform="matrix(1.8311 0 0 1.8311 39.903 -26.442)" d="m46.25 43.372c0.1239 0.55486 14.45 33.707 15.09 34.902 0.63935 1.1953 2.5344-1.2571 2.7921-2.4719 0.25768-1.2148 3.4121-21.817 5.163-25.862 1.7509-4.0449 9.9839-14.238 15.497-21.063-0.52503-0.04375-1.4589-0.12158-1.9961 0.19295-0.53711 0.31453-8.242 5.4511-12.573 8.3387 0.06563 0.98442 0.15401 2.3101-0.32353 3.3939-0.47755 1.0837-3.2843 5.3708-3.9493 7.7094-0.665 2.3386-2.8187 15.951-3.5467 16.631-0.728 0.67937-3.8323-6.4513-4.2381-8.6055s0.52896-3.8369 1.2946-5.2151c-2.2314-4.069-4.4627-8.1379-6.6941-12.207-2.2751 1.2688-6.6386 3.7023-6.5147 4.2572z" stop-color="#000000" style="-inkscape-stroke:none;font-variation-settings:normal"/>
  <path d="m136.87 44.412 11.235 22.755 2.4069-3.5239-9.5222-20.743z" stop-color="#000000" style="-inkscape-stroke:none;font-variation-settings:normal"/>
  <path d="m141.75 42.585 7.6344 20.455 1.3573-1.5073-5.6139-18.689z" stop-color="#000000" style="-inkscape-stroke:none;font-variation-settings:normal"/>
 </g>
 <g id="M3_block" transform="translate(-46.051 -4.0053)" type="layer">
  <path transform="matrix(1.7905 .38339 -.38339 1.7905 94.475 -91.939)" d="m75.329 37.455c-6.8565 13.069-17.838 34.002-18.156 37.998-0.31813 3.9959 11.557 19.783 12.971 20.756s6.2862-1.2139 9.5931-0.56608c3.3069 0.64781 8.7188 4.6255 10.073 5.2386 1.3538 0.61309 4.943 0.6968 7.2743 0.75117-10.926-8.5013-27.538-21.427-29.331-25.571s3.4501-17.493 6.8982-26.273c-0.30404-1.1199-0.69243-2.5505-0.40596-3.7811 0.28648-1.2306 2.1922-5.2023 2.3354-6.0103s-0.68429-1.8372-1.2511-2.5422z" stop-color="#000000" style="-inkscape-stroke:none;font-variation-settings:normal"/>
  <path transform="matrix(1.8311 0 0 1.8311 39.903 -26.442)" d="m27.937 71.93c0.68062-1.5469 1.8865-4.2875 2.8381-4.5153 0.95157-0.22774 19.012-1.2859 19.99-2.1061 0.97725-0.82022-5.9519-9.1676-6.2566-9.4928-0.30464-0.3252 0.03958 1.1264-0.10648 0.93747-0.14606-0.18897-7.3975-10.285-11.174-15.544 4.4747 4.5663 13.113 13.382 13.254 13.534 0.14008 0.15236-1.0809-0.33778-0.88754-0.05358s7.9094 10.483 6.716 11.687-15.418 3.873-24.372 5.5534z" stop-color="#000000" style="-inkscape-stroke:none;font-variation-settings:normal"/>
  <path d="m127.17 79.607 6.2032-6.7981 0.33991 0.76478-6.2882 6.883z" stop-color="#000000" style="-inkscape-stroke:none;font-variation-settings:normal"/>
  <path d="m193.42 82.974c7e-3 -0.0147 0.63452-1.2641 0.25975-2.1368-0.37478-0.87275-4.7159-8.8538-4.1974-11.311 0.51851-2.4574 8.7359-11.172 9.233-11.645 0.49704-0.47337-0.0696 1.1074 0.15956 0.86516 0.22917-0.24227 3.9578-4.8783 6.0788-7.5156-2.7363 1.9789-7.4274 5.3714-7.7227 5.6325s1.3937-0.11992 1.0754 0.24926c-0.31838 0.36918-8.4434 8.5355-10.323 10.906-1.8799 2.3709-3.2561 6.3206-3.1882 6.4614 0.0679 0.14081 8.4433 8.338 8.5306 8.4234 0.0873 0.08539 0.0872 0.08539 0.0946 0.07069z" stop-color="#000000" style="-inkscape-stroke:none;font-variation-settings:normal"/>
  <path d="m192.53 64.383-5.119-5.2503h1.3126l3.8064 4.2002z" stop-color="#000000" style="-inkscape-stroke:none;font-variation-settings:normal"/>
 </g>
 <g id="M4_block" transform="translate(-46.051 -4.0053)" fill="#393939" type="layer">
  <path transform="translate(-.65628 -1.8376)" d="m189.29 38.045c-0.44546 0.43802-18.102 21.528-18.859 28.346-0.75706 6.817 11.056 32.616 11.673 33.677 0.61702 1.0612 2.2963-2.1399 2.0945-4.5575-0.20183-2.4176-3.6061-23.803-2.9387-29.494s8.5961-22.149 9.223-23.868c0.62697-1.7197-0.74667-4.5411-1.1921-4.103z" stop-color="#000000" style="-inkscape-stroke:none;font-variation-settings:normal"/>
  <path d="m125.24 57.077c0.5619 1.611 13.772 33.151 15.189 35.581s3.4412-3.5877 3.4116-4.0057c-0.0295-0.41805-4.925-31.88-5.5482-33.169-0.6232-1.2881-10.641-2.9532-11.467-2.8718-0.82523 0.08136-2.1473 2.8542-1.5854 4.4652z" stop-color="#000000" style="-inkscape-stroke:none;font-variation-settings:normal"/>
 </g>
 <g id="M2_block" transform="translate(-46.051 -4.0053)" type="layer">
  <path transform="matrix(1.2895 1.3001 -1.3001 1.2895 143.92 -52.956)" d="m26.016 101.08c10.425-14.457 27.64-38.329 28.597-41.037 0.95717-2.707-11.205-5.3379-11.7-5.5443-0.49537-0.20641-1.1439-2.2694-1.5017-3.4074 7.2802 2.7203 19.45 7.2678 19.626 9.5431 0.17558 2.2753-14.412 28.438-15.654 30.276-1.2426 1.8385-4.2259 2.3357-5.1798 2.892-0.95387 0.55626-3.3768 3.0627-4.7069 3.7835-1.33 0.72085-6.134 2.3553-9.4794 3.4936z" fill="#fff" stop-color="#000000" style="-inkscape-stroke:none;font-variation-settings:normal"/>
  <path d="m131.15 66.8c-0.0395 0.07497-0.0936 0.18099-0.13539 0.26045 4.9334 12.38 13.029 32.753 10.345 35.803-2.7012 3.0709-52.909 17.989-56.776 18.814-3.8676 0.82523-9.0446-1.6667-11.225-2.1482-2.1806-0.48146-9.1653-0.83673-11.913-1.6568-2.4588-0.73366-9.2663-3.8816-14.846-6.4833 5.7793 2.8742 13.866 6.8882 16.477 7.6755 2.6522 0.79958 9.0353 0.71744 10.988 1.2402 1.9532 0.52279 6.4467 3.7603 10.439 3.005 3.9925-0.7553 56.816-15.527 59.547-18.689 2.7316-3.1623-7.0497-24.848-12.901-37.821z" fill="#f0f0f0" stop-color="#000000" style="-inkscape-stroke:none;font-variation-settings:normal"/>
  <path transform="matrix(-1.8311 0 0 1.8311 267.8 -28.037)" d="m52.588 46.496c1.2601 2.0238 2.9673 4.7658 3.0914 6.4003 0.12406 1.6346-1.7317 8.0855-2.1833 8.681s-5.6831 4.1622-7.8142 5.8477c-2.1311 1.6855-3.4289 3.0355-4.7267 4.3855 5.9166-1.1815 15.702-3.1356 16.687-4.2053s0.48784-12.17 0.09869-13.73c-0.38915-1.5594-3.7962-6.3158-4.1569-6.7644-0.36073-0.44858-0.75195-0.55115-0.99608-0.61516z" fill="#fff" stop-color="#000000" style="-inkscape-stroke:none;font-variation-settings:normal"/>
  <path d="m171.56 57.025c-0.10037 0.02632-0.21825 0.05889-0.3421 0.0987-2.4968 3.8518-5.193 8.7526-5.7423 11.907-0.56647 3.2526 2.5705 15.064 3.3719 16.155 0.80135 1.0905 9.1101 6.4638 13.569 9.2253 4.3257 2.6788 7.4827 6.5655 10.27 8.9338 0.0523 0.0104 0.12264 0.0247 0.17467 0.0351-2.3765-2.472-4.753-4.9437-8.6553-8.03-3.9023-3.0863-13.482-9.6174-14.309-10.708s-4.2248-12.903-3.9977-15.896c0.22716-2.9931 3.3533-8.0143 5.6606-11.72z" fill="#f0f0f0" stop-color="#000000" style="-inkscape-stroke:none;font-variation-settings:normal"/>
 </g>
 <g id="B1_block" transform="translate(-46.051 -4.0053)" type="layer">
  <path transform="matrix(1.8311 0 0 1.8311 43.431 -19.756)" d="m107.6 32.313c1.4821 0.45137 36.091 15.217 37.424 16.004 1.3331 0.78729-1.9047 4.3854-2.4 4.7113-0.49529 0.32586-6.3822 2.7558-7.5816 2.8038-1.1994 0.04804-18.943-1.5788-19.295-1.634-0.3515-0.05524 0.2755-1.0187 1.1758-1.1203 0.90027-0.1016 8.8412-0.13863 9.1144-0.2464 0.2732-0.10777-1.4586-2.8063-2.4296-3.3665-0.971-0.56021-17.016-8.1349-17.883-8.6872s-3.8899-4.8891-3.7816-5.6354 4.1745-3.2808 5.6566-2.8294z" stop-color="#000000" style="-inkscape-stroke:none;font-variation-settings:normal"/>
  <path transform="matrix(-1.3436 -.28769 .28769 -1.3436 312.03 193)" d="m75.404 49.465c-1.3878 1.6363-18.578 21.905-19.061 24.954-0.48317 3.0487 11.368 17.178 12.838 18.247 1.4706 1.0693 6.9027 1.0123 10.939 2.6853 4.0359 1.673 11.865 7.2893 12.627 7.7202 0.76149 0.43087 1.873-0.72612 1.1186-1.4754s-23.665-21.405-25.149-24.77c-1.4847-3.3653 6.4696-15.274 6.8935-16.116 0.42386-0.84193-0.18853-3.0976 0.09795-4.3282 0.28648-1.2306 2.1922-5.2023 2.3354-6.0103 0.1432-0.80798-0.68429-1.8372-1.2511-2.5422 0 1e-6 0 3e-6 -1.3878 1.6363z" stop-color="#000000" style="-inkscape-stroke:none;font-variation-settings:normal"/>
 </g>
 <g id="B3_block" transform="translate(-46.051 -4.0053)" type="layer">
  <path d="m259.53 79.693c17.567 1.2172 47.424 3.2858 50.928 4.3239 3.5039 1.0381 16.45 13.845 15.1 16.795-1.3496 2.9496-28.368 20.014-32.205 20.255-3.8373 0.24178-54.064-14.56-54.657-14.803s-3.2878-6.6144-2.4652-8.1377c0.82266-1.5233 10.645-9.9926 13.429-10.678s22.709 0.96251 24.135 0.90645 4.6649-2.8734 4.2556-3.0754c-0.40926-0.20197-12.323-2.6193-14.988-3.3979-2.6648-0.77861-3.1316-1.5374-3.5322-2.1886z" stop-color="#000000" style="-inkscape-stroke:none;font-variation-settings:normal"/>
 </g>
 <g id="B2_block" transform="translate(-46.051 -4.0053)" type="layer">
  <path transform="matrix(-1.2895 1.3001 1.3001 1.2895 229.93 -52.795)" d="m26.016 101.08c9.4432-13.819 25.036-36.637 26.019-39.493 0.983-2.8558-8.7936-9.4302-8.6713-9.4353 0.12227-0.0051 17.663 6.301 17.755 8.5295 0.09252 2.2285-14.495 28.391-15.737 30.229-1.2426 1.8385-4.2259 2.3357-5.1798 2.892-0.95387 0.55626-3.3768 3.0627-4.7069 3.7835-1.33 0.72085-6.134 2.3553-9.4794 3.4936z" fill="#fff" stop-color="#000000" style="-inkscape-stroke:none;font-variation-settings:normal"/>
  <path transform="translate(-.06523 .1111)" d="m241.65 71.081c0.14639-0.34372 0.14639-0.34372-0.0151 8e-3 -0.1615 0.35176-14.284 31.112-11.747 33.899s58.701 18.207 58.716 18.199c0.0151-8e-3 -52.053-15.316-55.653-19.27s8.5532-32.492 8.6996-32.835z" fill="#f0f0f0" stop-color="#000000" style="-inkscape-stroke:none;font-variation-settings:normal"/>
  <path d="m246.99 108.98 4.7798-12.309 0.65498 0.21446-4.2986 12.466z" fill="#f0f0f0" stop-color="#000000" style="-inkscape-stroke:none;font-variation-settings:normal"/>
 </g>
 <g id="B4_block" transform="translate(-46.051 -4.0053)" type="layer">
  <path d="m252.15 91.681c2.4942-0.69037 16.924 0.86532 20.279 0.27761 3.3553-0.58771 6.8458-5.2161 9.9704-4.5504 3.1246 0.66568 30.331 12.353 31.658 15.924 1.3268 3.5701-14.325 18.39-22.141 18.774-7.8163 0.3846-51.921-14.284-53.434-14.847s-2.8368-2.8898-1.7478-4.0881c1.089-1.1982 12.922-10.8 15.416-11.49z" fill="#393939" stop-color="#000000" style="-inkscape-stroke:none;font-variation-settings:normal"/>
 </g>
 <g id="B5_block" type="layer">
  <path transform="translate(-42.524 -5.8616)" d="m232.55 44.419c0.9099-1.2298 6.9211-4.9695 8.7644-4.3306s58.254 27.885 59.576 28.665c1.3223 0.78001-0.12298 5.0421-2.5303 5.8497-2.4074 0.80763-18.855 2.8925-20.259 2.5776-1.4035-0.31488-2.2739-6.9756-4.5882-8.5251-2.3143-1.5495-36.414-18.163-38.545-19.342s-3.3288-3.6647-2.4189-4.8945z" fill="#393939" stop-color="#000000" style="-inkscape-stroke:none;font-variation-settings:normal"/>
 </g>
 <g id="G1_block" transform="translate(-46.051 -4.0053)" type="layer">
  <path d="m196.96 89.331c10.859 12.794 32.139 37.867 32.17 37.765 0.0302-0.10207-23.806-45.618-21.137-50.936 2.6683-5.3187 52.374-22.984 57.563-23.836 5.1894-0.85131 22.415 7.338 22.597 7.3938 0.18179 0.05577-1.5823-3.7244-1.812-3.8885-0.2297-0.16407-17.887-10.583-20.911-10.877-3.0238-0.29384-17.506 5.5725-19.353 6.6353-1.8471 1.0629-3.5977 4.314-8.1217 6.6571-4.524 2.3431-30.694 13.53-33.235 16.599-2.5409 3.0689 1.9575 17.532 1.9025 19.125-0.055 1.5931-4.9141-4.0517-5.7309-4.6453-0.81685-0.59365-2.718-0.22722-3.9309 0.0066z" fill="#0a0a0a" stop-color="#000000" style="-inkscape-stroke:none;font-variation-settings:normal"/>
 </g>
</svg>
