<?xml version="1.0" encoding="UTF-8" standalone="no"?>
<!-- Generator: Gravit.io -->

<svg
   style="isolation:isolate"
   viewBox="0 0 258.50191 139.49488"
   width="258.50192pt"
   height="139.49487pt"
   version="1.1"
   id="svg314"
   xmlns="http://www.w3.org/2000/svg"
   xmlns:svg="http://www.w3.org/2000/svg">
  <defs
     id="defs195">
    <clipPath
       id="_clipPath_VL4lQNFTekCiBlrKs3lIcRmLPUe8LF3L">
      <rect
         width="257.70001"
         height="131.14999"
         id="rect192"
         x="0"
         y="0" />
    </clipPath>
  </defs>
  <g
     id="layer1"
     style="display:none"
     transform="translate(0.80192417,0.34883055)">
    <rect
       style="fill:#a0a0b1;fill-opacity:1;fill-rule:evenodd;stroke:none;stroke-width:0.775327"
       id="rect421"
       width="258.50269"
       height="140.24139"
       x="-0.80192417"
       y="-0.34883055" />
  </g>
  <g
     id="layer10"
     style="display:inline" />
  <g
     id="layer2">
    <path
       style="font-variation-settings:normal;opacity:1;vector-effect:none;fill:#030500;fill-opacity:1;stroke:none;stroke-width:14.1732;stroke-linecap:butt;stroke-linejoin:miter;stroke-miterlimit:4;stroke-dasharray:none;stroke-dashoffset:0;stroke-opacity:1;-inkscape-stroke:none;stop-color:#000000;stop-opacity:1"
       d="m 92.329837,81.669803 c 0,0 -6.093949,21.125167 -6.506474,22.551637 -0.621327,0.46154 -9.829463,7.281 -9.829463,7.281 l -0.375,1.21583 c 0,0 10.28944,-7.22033 11.430172,-8.02222 0.674963,-2.34544 6.751197,-23.493477 6.751197,-23.493477 z"
       id="path19184" />
    <path
       style="font-variation-settings:normal;opacity:1;vector-effect:none;fill:#030500;fill-opacity:1;stroke:none;stroke-width:14.1732;stroke-linecap:butt;stroke-linejoin:miter;stroke-miterlimit:4;stroke-dasharray:none;stroke-dashoffset:0;stroke-opacity:1;-inkscape-stroke:none;stop-color:#000000;stop-opacity:1"
       d="m 77.940675,89.464965 -3.315674,0.82947 -19.49231,19.940185 9.835327,5.15515 0.97522,-0.39331 -8.585449,-5.1753 17.548462,-18.885123 2.930421,-0.714112 z"
       id="path19976" />
    <path
       style="font-variation-settings:normal;opacity:1;vector-effect:none;fill:#030500;fill-opacity:1;stroke:none;stroke-width:14.1732;stroke-linecap:butt;stroke-linejoin:miter;stroke-miterlimit:4;stroke-dasharray:none;stroke-dashoffset:0;stroke-opacity:1;-inkscape-stroke:none;stop-color:#000000;stop-opacity:1"
       d="m 3.6256715,87.457035 c 0.4425659,0.37353 9.6580815,7.405515 9.6580815,7.405515 L 38.962647,83.185732 39.936219,80.48932 38.540406,80.810303 38.012146,82.885441 13.498535,93.688664 4.4575195,87.11334 Z"
       id="path20228" />
    <path
       style="font-variation-settings:normal;opacity:1;vector-effect:none;fill:#030500;fill-opacity:1;stroke:none;stroke-width:14.1732;stroke-linecap:butt;stroke-linejoin:miter;stroke-miterlimit:4;stroke-dasharray:none;stroke-dashoffset:0;stroke-opacity:1;-inkscape-stroke:none;stop-color:#000000;stop-opacity:1"
       d="m 131.05005,74.332032 3.85254,-2.403077 13.07191,-36.186518 0.60216,-0.124037 -13.30319,37.023751 -4.2801,2.664644 z"
       id="path21536" />
    <path
       style="font-variation-settings:normal;opacity:1;vector-effect:none;fill:#030500;fill-opacity:1;stroke:none;stroke-width:14.1732;stroke-linecap:butt;stroke-linejoin:miter;stroke-miterlimit:4;stroke-dasharray:none;stroke-dashoffset:0;stroke-opacity:1;-inkscape-stroke:none;stop-color:#000000;stop-opacity:1"
       d="m 129.41767,69.371339 2.52331,-7.260361 4.01099,-2.73555 -0.20837,0.979065 -3.24601,2.080628 -2.25394,6.861419 z"
       id="path21940" />
    <path
       style="font-variation-settings:normal;opacity:1;vector-effect:none;fill:#030500;fill-opacity:1;stroke:none;stroke-width:14.1732;stroke-linecap:butt;stroke-linejoin:miter;stroke-miterlimit:4;stroke-dasharray:none;stroke-dashoffset:0;stroke-opacity:1;-inkscape-stroke:none;stop-color:#000000;stop-opacity:1"
       d="M 183.42481,8.7484132 C 183.07984,9.203613 169.32312,42.030396 169.32312,42.030396 l 1.5304,7.292359 0.69594,-0.950335 -1.50353,-6.411067 13.23697,-31.766224 z"
       id="path22557" />
    <path
       style="font-variation-settings:normal;opacity:1;vector-effect:none;fill:#030500;fill-opacity:1;stroke:none;stroke-width:14.1732;stroke-linecap:butt;stroke-linejoin:miter;stroke-miterlimit:4;stroke-dasharray:none;stroke-dashoffset:0;stroke-opacity:1;-inkscape-stroke:none;stop-color:#000000;stop-opacity:1"
       d="m 129.17227,79.697503 1.15852,1.904704 -16.26999,44.020223 -0.95325,0.0356 16.5922,-43.992078 -0.86134,-1.305055 z"
       id="path22997" />
    <path
       style="font-variation-settings:normal;opacity:1;vector-effect:none;fill:#030500;fill-opacity:1;stroke:none;stroke-width:14.1732;stroke-linecap:butt;stroke-linejoin:miter;stroke-miterlimit:4;stroke-dasharray:none;stroke-dashoffset:0;stroke-opacity:1;-inkscape-stroke:none;stop-color:#000000;stop-opacity:1"
       d="m 137.50141,44.740906 -3.10346,7.269837 -1.69318,1.194579 -0.14208,0.611939 2.39428,-1.639526 3.17578,-7.810731 z"
       id="path25313" />
    <path
       style="font-variation-settings:normal;opacity:1;vector-effect:none;fill:#030500;fill-opacity:1;stroke:none;stroke-width:14.1732;stroke-linecap:butt;stroke-linejoin:miter;stroke-miterlimit:4;stroke-dasharray:none;stroke-dashoffset:0;stroke-opacity:1;-inkscape-stroke:none;stop-color:#000000;stop-opacity:1"
       d="m 58.360989,74.88397 6.741856,6.682728 11.325012,-2.085005 1.487363,-2.894168 0.874511,-0.246188 -1.882261,3.878542 -12.082824,2.338346 -7.220031,-7.226257 z"
       id="path25492" />
    <path
       style="font-variation-settings:normal;opacity:1;vector-effect:none;fill:#030500;fill-opacity:1;stroke:none;stroke-width:14.1732;stroke-linecap:butt;stroke-linejoin:miter;stroke-miterlimit:4;stroke-dasharray:none;stroke-dashoffset:0;stroke-opacity:1;-inkscape-stroke:none;stop-color:#000000;stop-opacity:1"
       d="m 46.296387,78.5874 18.205078,22.10193 0.696168,-0.6665 -18.205079,-21.889525 z"
       id="path26785" />
    <path
       style="font-variation-settings:normal;opacity:1;vector-effect:none;fill:#030500;fill-opacity:1;stroke:none;stroke-width:14.1732;stroke-linecap:butt;stroke-linejoin:miter;stroke-miterlimit:4;stroke-dasharray:none;stroke-dashoffset:0;stroke-opacity:1;-inkscape-stroke:none;stop-color:#000000;stop-opacity:1"
       d="M 50.748047,83.069093 C 49.682007,83.615482 1.3388672,109.62635 1.3388672,109.62635 L 1.1440429,110.68799 50.968873,83.76636 Z"
       id="path26900" />
    <path
       style="font-variation-settings:normal;opacity:1;vector-effect:none;fill:#030500;fill-opacity:1;stroke:none;stroke-width:14.1732;stroke-linecap:butt;stroke-linejoin:miter;stroke-miterlimit:4;stroke-dasharray:none;stroke-dashoffset:0;stroke-opacity:1;-inkscape-stroke:none;stop-color:#000000;stop-opacity:1"
       d="m 130.01969,77.225175 14.8842,-9.121521 -0.41023,0.773666 -14.56532,9.015745 z"
       id="path27015" />
    <path
       style="font-variation-settings:normal;opacity:1;vector-effect:none;fill:#030500;fill-opacity:1;stroke:none;stroke-width:14.1732;stroke-linecap:butt;stroke-linejoin:miter;stroke-miterlimit:4;stroke-dasharray:none;stroke-dashoffset:0;stroke-opacity:1;-inkscape-stroke:none;stop-color:#000000;stop-opacity:1"
       d="m 142.29584,52.432618 5.83374,4.696655 0.17596,-0.775635 -5.85864,-4.530578 z"
       id="path27584" />
    <path
       style="font-variation-settings:normal;opacity:1;vector-effect:none;fill:#030500;fill-opacity:1;stroke:none;stroke-width:14.1732;stroke-linecap:butt;stroke-linejoin:miter;stroke-miterlimit:4;stroke-dasharray:none;stroke-dashoffset:0;stroke-opacity:1;-inkscape-stroke:none;stop-color:#000000;stop-opacity:1"
       d="m 129.18769,83.65206 8.34,14.204715 -0.51505,0.349327 -8.11343,-14.092072 z"
       id="path27699" />
    <path
       style="font-variation-settings:normal;opacity:1;vector-effect:none;fill:#030500;fill-opacity:1;stroke:none;stroke-width:14.1732;stroke-linecap:butt;stroke-linejoin:miter;stroke-miterlimit:4;stroke-dasharray:none;stroke-dashoffset:0;stroke-opacity:1;-inkscape-stroke:none;stop-color:#000000;stop-opacity:1"
       d="m 168.90806,74.733557 -0.27863,27.212043 0.71729,0.32213 0.23021,-27.2659 z"
       id="path27814" />
  </g>
  <g
     clip-path="url(#_clipPath_VL4lQNFTekCiBlrKs3lIcRmLPUe8LF3L)"
     id="g312"
     transform="translate(0.80192417,0.34883055)">
    <clipPath
       id="_clipPath_2R05YMjZbD0UgsZZwA9G1NSyA91KCKEh">
      <rect
         x="0"
         y="0"
         width="257.70001"
         height="131.14999"
         fill="#ffffff"
         id="rect199" />
    </clipPath>
    <g
       clip-path="url(#_clipPath_2R05YMjZbD0UgsZZwA9G1NSyA91KCKEh)"
       id="g294">
      <g
         id="g292">
        <g
           id="g274">
          <g
             id="g272">
            <g
               id="g206" />
            <g
               id="g214" />
            <g
               id="g228" />
            <g
               id="g234" />
            <g
               id="g240" />
            <g
               id="g246" />
            <g
               id="g252" />
            <g
               id="g258" />
            <g
               id="g264" />
            <g
               id="g270" />
          </g>
        </g>
      </g>
    </g>
  </g>
  <g
     id="block9"
     style="display:inline"
     transform="translate(0.80192417,0.34883055)"
     ref="M_left">
    <path
       d="m 132.60144,68.324268 -0.0849,1.420123 L 86.77,78.08 63.36,108.95 70.927966,113.93207 -0.29,131.63 -0.08,87.41 6.4,84.87 l 4.45,3.17 51.11,-15.63 4.47,4.92 59.97,-11.32 7.33,-20.11 7.73,-6.53 -8.94346,30.374391 -1.04761,0.0818 L 140.35,41.63 134.58,46.49 127.15,66.88 66.07,78.42 61.65,73.56 10.67,89.14 6.26,85.99 0.92,88.09 0.71,130.35 68.424083,113.58302 61.94,109.16 86.2,77.17 Z"
       fill="#ffffff"
       id="path308"
       style="isolation:isolate;fill:#000000;fill-opacity:1" />
    <path
       style="display:inline;isolation:isolate;fill:#000000;fill-opacity:1;stroke:none;stroke-width:0.75px;stroke-linecap:butt;stroke-linejoin:miter;stroke-opacity:1"
       d="m -0.29,131.63 12.442143,4.078 73.471952,-12.47364 -14.696129,-9.30229 z"
       id="path24700" />
    <path
       style="display:inline;isolation:isolate;fill:#000000;fill-opacity:1;stroke:none;stroke-width:0.75px;stroke-linecap:butt;stroke-linejoin:miter;stroke-opacity:0.971079"
       d="M 74.117472,116.07143 88.55736,82.292835 86.769998,78.080002 63.36,108.95 Z"
       id="path25252" />
    <path
       style="display:inline;isolation:isolate;fill:#000000;fill-opacity:1;stroke:none;stroke-width:0.75px;stroke-linecap:butt;stroke-linejoin:miter;stroke-opacity:1"
       d="m 88.55736,82.292835 43.46057,-11.391225 0.49864,-1.157219 -45.746572,8.335611 z"
       id="path25254" />
    <path
       style="display:inline;isolation:isolate;fill:#000000;fill-opacity:1;stroke:none;stroke-width:0.75px;stroke-linecap:butt;stroke-linejoin:miter;stroke-opacity:1"
       d="m 142.26193,39.718831 1.5687,2.320079 -10.51214,28.054312 v 0 z"
       id="path102660"
       transform="translate(-0.80192417,-0.34883055)" />
  </g>
  <g
     id="block10"
     style="display:inline"
     transform="translate(0.80192417,0.34883055)"
     ref="M_right">
    <path
       d="m 147.516,80.156 47.487,45.724 -2,4 h 62 l -57,-49 -3,3 v 4.154 l -33,-16.154 20,-59 v -7 L 165.688,36.5 165.25,35.25 183,1.85 V 13.04 L 163.23,71.37 194,86.43 v -2.96 l 3.95,-3.95 20.873,17.942 38.877,33.418 h -66.31 l 2.41,-4.82 -46.706,-44.779 z"
       fill="#ffffff"
       id="path208"
       style="isolation:isolate;fill:#000000;fill-opacity:1" />
    <path
       d="m 149.122,77.19 -2.356,-2.659 18.047,-36.187 -19.407,36.281 3.212,3.488 z"
       fill="#ffffff"
       id="path210"
       style="isolation:isolate;fill:#000000;fill-opacity:1" />
    <path
       d="m 133.43,104.198 1.589,-0.318 16.54,-31.698 -15.873,32.588 -2.878,0.575 z"
       fill="#ffffff"
       id="path278"
       style="isolation:isolate;fill:#000000;fill-opacity:1" />
    <path
       d="M 128.37035,79.348672 145.452,35.507 155.871,31.039 144.773,69.258 140.17735,79.053435 154.195,33.047 l -8.07,3.578 z"
       fill="#ffffff"
       id="path298"
       style="isolation:isolate;fill:#000000;fill-opacity:1" />
    <path
       d="m 164.78,65.29 -0.32,-0.38 0.76,-0.65 0.33,0.39 5.8,6.87 0.22,3.76 0.03,0.49 -1,0.06 -0.03,-0.5 -0.2,-3.42 z"
       fill="#ffffff"
       id="path306"
       style="isolation:isolate;fill:#000000;fill-opacity:1" />
    <path
       d="m 142,74.125 21.969,-42.437 2.594,6.75 -2.761,-4.846 -23.62465,45.461435 z"
       fill="#ffffff"
       id="path276"
       style="isolation:isolate;fill:#000000;fill-opacity:1" />
    <path
       style="display:inline;isolation:isolate;fill:#000000;fill-opacity:1;stroke:none;stroke-width:0.75px;stroke-linecap:butt;stroke-linejoin:miter;stroke-opacity:1"
       d="m 183.80192,13.38883 -0.31998,6.28036 -14.19744,48.810436 -3.26258,-3.870795 z"
       id="path94622"
       transform="translate(-0.80192417,-0.34883055)" />
    <path
       style="display:inline;isolation:isolate;fill:#000000;fill-opacity:1;stroke:none;stroke-width:0.75px;stroke-linecap:butt;stroke-linejoin:miter;stroke-opacity:1"
       d="m 258.50192,131.22883 -5.22567,4.25823 -59.06214,4.00781 -2.02218,-8.26604 z"
       id="path68566"
       transform="translate(-0.80192417,-0.34883055)" />
    <path
       style="display:inline;isolation:isolate;fill:#000000;fill-opacity:1;stroke:none;stroke-width:0.75px;stroke-linecap:butt;stroke-linejoin:miter;stroke-opacity:1"
       d="m 148.6615,82.384643 45.94042,44.024187 -1.90625,3.83703 -44.46532,-46.934067 z"
       id="path72600"
       transform="translate(-0.80192417,-0.34883055)" />
    <path
       style="display:inline;isolation:isolate;fill:#000000;fill-opacity:1;stroke:none;stroke-width:0.75px;stroke-linecap:butt;stroke-linejoin:miter;stroke-opacity:1"
       d="m 156.67292,31.387831 -11.098,38.219 4.60965,-9.545491 7.54395,-23.38092 z"
       id="path68384"
       transform="translate(-0.80192417,-0.34883055)" />
    <path
       style="display:inline;isolation:isolate;fill:#000000;fill-opacity:1;stroke:none;stroke-width:0.75px;stroke-linecap:butt;stroke-linejoin:miter;stroke-opacity:1"
       d="m 108.12793,127.53083 1.57037,3.87664 9.46967,-1.57305 -1.14705,-3.75459 z"
       id="path46914"
       transform="translate(-0.80192417,-0.34883055)" />
    <path
       style="display:inline;isolation:isolate;fill:#000000;fill-opacity:1;stroke:none;stroke-width:0.75px;stroke-linecap:butt;stroke-linejoin:miter;stroke-opacity:1"
       d="m 123.20192,117.45883 c -0.72029,-0.0935 1.0333,2.95507 1.54995,4.4326 l 4.59687,-1.46013 -0.57781,-4.84046 z"
       id="path54417"
       transform="translate(-0.80192417,-0.34883055)" />
    <path
       style="display:inline;isolation:isolate;fill:#000000;fill-opacity:1;stroke:none;stroke-width:0.75px;stroke-linecap:butt;stroke-linejoin:miter;stroke-opacity:1"
       d="m 128.77093,115.59084 4.95949,-9.92294 0.72197,1.79328 -5.10365,12.97012 z"
       id="path58189"
       transform="translate(-0.80192417,-0.34883055)" />
    <path
       style="display:inline;isolation:isolate;fill:#000000;fill-opacity:1;stroke:none;stroke-width:0.75px;stroke-linecap:butt;stroke-linejoin:miter;stroke-opacity:1"
       d="m 133.73042,105.6679 0.72197,1.79328 2.97545,-0.38407 -0.93992,-1.95829 z"
       id="path62263"
       transform="translate(-0.80192417,-0.34883055)" />
    <path
       style="display:inline;isolation:isolate;fill:#000000;fill-opacity:1;stroke:none;stroke-width:0.75px;stroke-linecap:butt;stroke-linejoin:miter;stroke-opacity:1"
       d="m 136.48793,105.11883 11.408,-23.489002 0.76557,0.754815 -11.23366,24.692467 z"
       id="path65322"
       transform="translate(-0.80192417,-0.34883055)" />
    <path
       style="display:inline;isolation:isolate;fill:#000000;fill-opacity:1;stroke:none;stroke-width:0.75px;stroke-linecap:butt;stroke-linejoin:miter;stroke-opacity:1"
       d="m 119.16797,129.83442 4.9773,-9.52463 -0.94335,-2.85096 -0.0923,0.01 9.33888,-19.181722 -14.42759,27.793022 z"
       id="path51124"
       transform="translate(-0.80192417,-0.34883055)" />
    <path
       d="m 140.484,90.211 -12.515,25.031 -6.1133,2.42091 10.67994,-21.493551 v 0 L 124.219,115.172 l 3.328,-1.125 z"
       fill="#ffffff"
       id="path296"
       style="isolation:isolate;fill:#000000;fill-opacity:1" />
    <path
       d="m 132.53564,96.169359 v 0 L 126.46896,109.01183 117.219,125.731 107.326,127.182 132.60144,68.324268 146.125,36.625 l -36.648,88.953 7.171,-1.055 z"
       fill="#ffffff"
       id="path300"
       style="isolation:isolate;fill:#000000;fill-opacity:1" />
    <path
       style="color:#000000;fill:#000000;fill-opacity:1;-inkscape-stroke:none"
       d="m 133.21875,67.802734 -0.69922,0.15625 -12.66797,2.826172 0.91797,11.494141 3.99414,3.30664 0.85356,0.663188 z m -1.23438,1.042969 -6.61132,16.273438 -0.13086,-0.109375 -3.75,-3.105469 L 120.65234,71.375 Z"
       id="path23708" />
    <path
       style="fill:#000000;fill-opacity:1;stroke:none;stroke-width:0.75px;stroke-linecap:butt;stroke-linejoin:miter;stroke-opacity:1"
       d="m 120.76448,82.281693 0.75208,3.713594 2.12823,3.186817 1.58,-3.316196 z"
       id="path33282" />
  </g>
  <g
     id="layer3"
     style="display:inline">
    <circle
       style="fill:#000000;fill-opacity:1;stroke:none;stroke-width:19.6764;stroke-linecap:round;stroke-linejoin:round;stroke-miterlimit:300;paint-order:fill markers stroke"
       id="path28223"
       cx="141.17242"
       cy="37.743553"
       r="3.8164086" />
    <circle
       style="isolation:isolate;fill:#000000;fill-opacity:1;stroke:none;stroke-width:25.8825;stroke-linecap:round;stroke-linejoin:round;stroke-miterlimit:300;paint-order:fill markers stroke"
       id="path28223-7"
       cx="73.684204"
       cy="73.289429"
       r="5.020144" />
    <circle
       style="isolation:isolate;fill:#000000;fill-opacity:1;stroke:none;stroke-width:25.8825;stroke-linecap:round;stroke-linejoin:round;stroke-miterlimit:300;paint-order:fill markers stroke"
       id="path28223-7-3"
       cx="120.55371"
       cy="77.001709"
       r="5.020144" />
    <circle
       style="isolation:isolate;fill:#000000;fill-opacity:1;stroke:none;stroke-width:25.8825;stroke-linecap:round;stroke-linejoin:round;stroke-miterlimit:300;paint-order:fill markers stroke"
       id="path28223-7-3-2"
       cx="173.10791"
       cy="65.971436"
       r="5.020144" />
    <circle
       style="isolation:isolate;fill:#000000;fill-opacity:1;stroke:none;stroke-width:12.968;stroke-linecap:round;stroke-linejoin:round;stroke-miterlimit:300;paint-order:fill markers stroke"
       id="path28223-7-3-2-9"
       cx="178.6582"
       cy="72.510498"
       r="2.5152612" />
    <circle
       style="isolation:isolate;fill:#000000;fill-opacity:1;stroke:none;stroke-width:8.00989;stroke-linecap:round;stroke-linejoin:round;stroke-miterlimit:300;paint-order:fill markers stroke"
       id="path28223-7-3-2-9-1"
       cx="183.58447"
       cy="74.942139"
       r="1.5535913" />
    <circle
       style="isolation:isolate;fill:#000000;fill-opacity:1;stroke:none;stroke-width:13.676;stroke-linecap:round;stroke-linejoin:round;stroke-miterlimit:300;paint-order:fill markers stroke"
       id="path28223-7-3-5"
       cx="113.39684"
       cy="82.523071"
       r="2.6525903" />
    <circle
       style="isolation:isolate;fill:#000000;fill-opacity:1;stroke:none;stroke-width:8.59707;stroke-linecap:round;stroke-linejoin:round;stroke-miterlimit:300;paint-order:fill markers stroke"
       id="path28223-7-3-5-6"
       cx="112.0232"
       cy="88.256104"
       r="1.6674829" />
    <circle
       style="isolation:isolate;fill:#000000;fill-opacity:1;stroke:none;stroke-width:14.7277;stroke-linecap:round;stroke-linejoin:round;stroke-miterlimit:300;paint-order:fill markers stroke"
       id="path28223-7-5"
       cx="65.157715"
       cy="68.870361"
       r="2.8565698" />
    <circle
       style="isolation:isolate;fill:#000000;fill-opacity:1;stroke:none;stroke-width:12.0197;stroke-linecap:round;stroke-linejoin:round;stroke-miterlimit:300;paint-order:fill markers stroke"
       id="path28223-3"
       cx="134.6694"
       cy="34.607403"
       r="2.3313291" />
    <circle
       style="isolation:isolate;fill:#000000;fill-opacity:1;stroke:none;stroke-width:7.44573;stroke-linecap:round;stroke-linejoin:round;stroke-miterlimit:300;paint-order:fill markers stroke"
       id="path28223-3-6"
       cx="138.33795"
       cy="32.204086"
       r="1.4441656" />
  </g>
  <g
     id="layer4">
    <path
       style="font-variation-settings:normal;opacity:1;vector-effect:none;fill:#50526a;fill-opacity:1;stroke:none;stroke-width:14.1732;stroke-linecap:butt;stroke-linejoin:miter;stroke-miterlimit:4;stroke-dasharray:none;stroke-dashoffset:0;stroke-opacity:1;-inkscape-stroke:none;stop-color:#000000;stop-opacity:1"
       d="m 87.001928,77.51883 -24.260004,31.99 6.484083,4.42302 -12.98764,3.24424 10.565993,-3.52561 -6.188468,-3.98171 z"
       id="path1025" />
    <path
       style="font-variation-settings:normal;opacity:1;vector-effect:none;fill:#50526a;fill-opacity:1;stroke:none;stroke-width:14.1732;stroke-linecap:butt;stroke-linejoin:miter;stroke-miterlimit:4;stroke-dasharray:none;stroke-dashoffset:0;stroke-opacity:1;-inkscape-stroke:none;stop-color:#000000;stop-opacity:1"
       d="m 141.15193,41.97883 -8.31259,26.436924 -7.65554,1.707971 6.72544,-2.174031 z"
       id="path1652" />
    <path
       style="font-variation-settings:normal;opacity:1;vector-effect:none;fill:#50526a;fill-opacity:1;stroke:none;stroke-width:14.1732;stroke-linecap:butt;stroke-linejoin:miter;stroke-miterlimit:4;stroke-dasharray:none;stroke-dashoffset:0;stroke-opacity:1;-inkscape-stroke:none;stop-color:#000000;stop-opacity:1"
       d="m 146.92693,36.973831 8.07,-3.578001 -8.49972,27.85393 7.13972,-26.482503 z"
       id="path1932" />
    <path
       style="font-variation-settings:normal;opacity:1;vector-effect:none;fill:#50526a;fill-opacity:1;stroke:none;stroke-width:14.1732;stroke-linecap:butt;stroke-linejoin:miter;stroke-miterlimit:4;stroke-dasharray:none;stroke-dashoffset:0;stroke-opacity:1;-inkscape-stroke:none;stop-color:#000000;stop-opacity:1"
       d="m 182.80492,6.2288306 v 7.0000004 l -17.543,52.03 16.54368,-52.022971 z"
       id="path2100" />
    <path
       style="font-variation-settings:normal;opacity:1;vector-effect:none;fill:#50526a;fill-opacity:1;stroke:none;stroke-width:14.1732;stroke-linecap:butt;stroke-linejoin:miter;stroke-miterlimit:4;stroke-dasharray:none;stroke-dashoffset:0;stroke-opacity:1;-inkscape-stroke:none;stop-color:#000000;stop-opacity:1"
       d="m 165.61492,38.692831 -19.407,36.280999 3.1096,3.377365 -4.29323,-3.357238 z"
       id="path5937" />
    <path
       style="font-variation-settings:normal;opacity:1;vector-effect:none;fill:#50526a;fill-opacity:1;stroke:none;stroke-width:14.1732;stroke-linecap:butt;stroke-linejoin:miter;stroke-miterlimit:4;stroke-dasharray:none;stroke-dashoffset:0;stroke-opacity:1;-inkscape-stroke:none;stop-color:#000000;stop-opacity:1"
       d="m 162.80492,72.22883 6.09971,2.962975 -0.256,24.890855 -0.56788,-24.39089 z"
       id="path11287" />
  </g>
</svg>
