<?xml version="1.0" encoding="UTF-8" standalone="no"?>
<!-- Created with Inkscape (http://www.inkscape.org/) -->

<svg
   width="1980"
   height="1300"
   viewBox="0 0 523.87499 343.95835"
   version="1.1"
   id="svg5"
   xmlns="http://www.w3.org/2000/svg"
   xmlns:svg="http://www.w3.org/2000/svg">
  <defs
     id="defs2" />
  <g
     id="layer23"
     style="display:inline"
     ref="back_green">
    <path
       style="font-variation-settings:normal;opacity:1;vector-effect:none;fill:#444555;fill-opacity:1;stroke:none;stroke-width:4.99999;stroke-linecap:butt;stroke-linejoin:miter;stroke-miterlimit:4;stroke-dasharray:none;stroke-dashoffset:0;stroke-opacity:1;-inkscape-stroke:none;stop-color:#000000;stop-opacity:1"
       d="m 198.53311,104.25375 c 0,0 -20.14016,92.69752 -20.14016,92.69752 -2.25244,-13.30033 -4.33142,-25.57642 -18.84252,-44.03303 -14.51111,-18.4566 -24.5471,-26.98031 -40.40852,-44.01042 C 103.28048,91.877704 106.73551,90.521213 104.53162,87.630993 102.32773,84.740774 85.835743,72.326901 74.3108,63.65183 c 3.30667,-3.092691 4.161115,-3.891844 15.182717,-0.08039 11.021603,3.811451 13.437343,5.741324 22.787363,13.210827 2.65819,-2.751135 3.50113,-3.623549 20.80839,4.878094 17.30725,8.501644 31.51122,18.696261 36.2266,17.149708 4.71538,-1.546552 4.73732,-6.305672 9.83447,-27.270314 5.09715,-20.964641 4.09667,-20.939993 8.59751,-21.050876 0,0 0,-36.142755 0,-36.142755 3.06833,0 2.6e-4,0 5.39276,44.953814 5.3925,44.953814 4.86575,14.984605 5.3925,44.953814 z"
       id="path61858" />
    <path
       style="font-variation-settings:normal;opacity:1;vector-effect:none;fill:#444555;fill-opacity:1;stroke:none;stroke-width:4.99999;stroke-linecap:butt;stroke-linejoin:miter;stroke-miterlimit:4;stroke-dasharray:none;stroke-dashoffset:0;stroke-opacity:1;-inkscape-stroke:none;stop-color:#000000;stop-opacity:1"
       d="m 222.97366,219.82084 c -0.29812,-1.9148 -8.80571,-55.51605 3.3995,-60.4954 12.20521,-4.97935 38.56016,20.91486 49.01711,28.50794 10.45694,7.59308 16.08363,3.43226 20.45392,0.20053 0,0 9.54293,3.11915 9.54293,3.11915 -7.84963,5.6422 -17.48624,12.56885 -27.2787,9.18622 -9.79245,-3.38263 -37.61872,-26.27165 -43.96917,-25.39035 -6.35045,0.88131 -9.60081,24.25106 -11.98793,41.41418 0.38964,1.86828 1.12047,5.37252 0.82234,3.45773 z"
       id="path66347" />
    <path
       style="font-variation-settings:normal;opacity:1;vector-effect:none;fill:#444555;fill-opacity:1;stroke:none;stroke-width:4.99999;stroke-linecap:butt;stroke-linejoin:miter;stroke-miterlimit:4;stroke-dasharray:none;stroke-dashoffset:0;stroke-opacity:1;-inkscape-stroke:none;stop-color:#000000;stop-opacity:1"
       d="m 259.01285,146.48603 c -3.44726,-10.15151 -2.46044,-7.24552 -6.54953,-25.58187 -4.08909,-18.33635 -4.05193,-16.65096 -4.18177,-22.540113 -2.06528,1.498901 -3.97614,2.885733 -3.8612,10.092063 0.11494,7.20633 2.22369,18.22677 4.50286,30.13784 0,0 10.08964,7.89208 10.08964,7.89208 z"
       id="path51954" />
    <path
       style="font-variation-settings:normal;display:inline;opacity:1;vector-effect:none;fill:#444555;fill-opacity:1;stroke:none;stroke-width:4.99999;stroke-linecap:butt;stroke-linejoin:miter;stroke-miterlimit:4;stroke-dasharray:none;stroke-dashoffset:0;stroke-opacity:1;-inkscape-stroke:none;stop-color:#000000;stop-opacity:1"
       d="m 159.47262,261.87689 c -6.94312,2.58161 -48.08691,40.02431 -75.934246,65.36664 9.651029,-5.71453 22.505596,-13.32594 30.014816,-18.12147 7.50922,-4.79554 29.4651,-19.58504 34.71637,-20.87787 5.25127,-1.29282 12.25975,6.36524 14.0522,2.69589 1.79245,-3.66934 4.09398,-31.64479 -2.84914,-29.06319 z"
       id="path70722" />
  </g>
  <g
     id="layer1"
     style="display:inline"
     ref="stroke_back">
    <path
       style="font-variation-settings:normal;opacity:1;vector-effect:none;fill:#030500;fill-opacity:1;stroke:none;stroke-width:4.99999;stroke-linecap:butt;stroke-linejoin:miter;stroke-miterlimit:4;stroke-dasharray:none;stroke-dashoffset:0;stroke-opacity:1;-inkscape-stroke:none;stop-color:#000000;stop-opacity:1"
       d="m 139.9558,246.69876 c 3.06335,6.72473 4.19926,9.21829 -9.19121,29.31106 -13.39047,20.09277 -20.62061,26.74443 -40.121555,44.68508 17.822355,-14.09982 33.662375,-26.63136 49.888385,-43.98613 16.22602,-17.35476 35.54375,-46.4389 35.41125,-47.45045 -0.1325,-1.01155 -23.22066,10.87048 -35.98687,17.44044 z"
       id="path5804" />
  </g>
  <g
     id="layer2"
     style="display:inline"
     ref="main_letter">
    <path
       style="font-variation-settings:normal;display:inline;fill:#2a2c41;fill-opacity:1;stroke:none;stroke-width:5.29167;stroke-linecap:round;stroke-linejoin:round;stroke-miterlimit:4;stroke-dasharray:none;stroke-dashoffset:0;stroke-opacity:1;stop-color:#000000"
       d="m 229.31267,164.87375 c 6.52661,-3.00893 13.62787,2.7004 23.80017,10.8788 0,0 15.25845,12.2676 15.25845,12.2676 5.08615,4.0892 11.52885,9.26906 16.05298,9.65183 4.52413,0.38277 13.71039,-3.47402 20.96285,-6.51892 0,0 -12.79858,-29.39801 -12.79858,-29.39801 0,0 50.37506,-45.13788 50.37506,-45.13788 0,0 68.02235,-51.260846 68.02235,-51.260846 -8.01897,1.375101 -4.88523,0.837725 -56.99334,33.210663 -52.1081,32.372933 -38.20783,22.327763 -73.77996,48.034323 0,0 8.18284,23.39435 8.18284,23.39435 C 274.4723,152.24713 270.54192,147.2369 236.3272,117.40657 202.11247,87.576248 182.36683,74.635084 176.42172,75.327692 c -5.94511,0.692609 -1.1117,31.668828 0.29549,47.739568 1.40719,16.07073 1.46363,33.56899 1.51508,49.51933 0.0514,15.95034 0.1356,42.03836 -1.82141,46.54207 -1.95701,4.5037 -19.60697,18.8415 -30.39834,27.60778 -15.06736,12.97382 -0.38791,0.33402 -21.79041,31.40264 -21.40249,31.06862 -22.06064,23.3544 -21.38512,31.27219 0,0 42.03782,-36.25082 42.03782,-36.25082 0,0 17.82805,-14.51652 17.82805,-14.51652 0,0 0,42.63599 0,42.63599 1.25513,-18.6062 0.55243,-8.18924 9.84873,-29.7875 9.29631,-21.59826 3.83717,-23.17173 16.65158,-27.09211 12.81442,-3.92037 25.04172,-11.02019 29.60344,-18.24419 4.56173,-7.22401 4.37339,-23.73544 4.22737,-36.53627 -0.14602,-12.80084 -0.24795,-21.73717 6.27867,-24.7461 z"
       id="path6119-3" />
    <path
       style="font-variation-settings:normal;opacity:1;vector-effect:none;fill:#444555;fill-opacity:1;stroke:none;stroke-width:4.99999;stroke-linecap:butt;stroke-linejoin:miter;stroke-miterlimit:4;stroke-dasharray:none;stroke-dashoffset:0;stroke-opacity:1;-inkscape-stroke:none;stop-color:#000000;stop-opacity:1"
       d="m 410.83993,65.331603 c -39.78657,30.053126 -104.54256,78.967107 -111.17556,86.594367 -6.63299,7.62727 0.1455,25.37906 4.31033,36.28608 -2.93121,-9.02929 -6.6358,-20.44093 6.47505,-35.51684 13.11085,-15.07591 61.83723,-55.432745 100.39018,-87.363607 z"
       id="path52611" />
    <path
       style="font-variation-settings:normal;display:inline;opacity:1;vector-effect:none;fill:#2a2c41;fill-opacity:1;stroke:none;stroke-width:4.99999;stroke-linecap:butt;stroke-linejoin:miter;stroke-miterlimit:4;stroke-dasharray:none;stroke-dashoffset:0;stroke-opacity:1;-inkscape-stroke:none;stop-color:#000000;stop-opacity:1"
       d="m 311.73737,180.03908 c 35.18038,16.1695 111.40077,63.57109 122.29223,69.8357 10.89145,6.2646 25.64186,10.69945 34.60094,13.39308 -47.75166,-31.84429 -85.90144,-57.28534 -132.78688,-94.66191 -46.88544,-37.37657 -80.60198,-71.174826 -87.43567,-70.427239 -6.83369,0.747586 6.85492,43.514899 17.27994,76.085799 6.03461,-5.77137 10.86905,-10.39493 46.04944,5.77457 z"
       id="path25858" />
  </g>
  <g
     id="layer3"
     style="display:inline"
     ref="fill_middle">
    <path
       style="font-variation-settings:normal;opacity:1;vector-effect:none;fill:#444555;fill-opacity:1;stroke:none;stroke-width:4.99999;stroke-linecap:butt;stroke-linejoin:miter;stroke-miterlimit:4;stroke-dasharray:none;stroke-dashoffset:0;stroke-opacity:1;-inkscape-stroke:none;stop-color:#000000;stop-opacity:1"
       d="m 278.96899,243.09319 c -1.95096,-0.72413 -35.21407,-13.07036 -37.34291,-13.89918 -2.12884,-0.82881 -29.62316,-12.11356 -49.12862,-1.23378 -19.50546,10.87978 -44.86126,39.39263 -69.84287,67.48472 18.03889,-17.9561 38.87392,-38.69551 56.75322,-45.79459 17.8793,-7.09908 45.92138,-5.76689 70.20035,-4.61347 0,0 31.31179,-1.21956 29.36083,-1.9437 z"
       id="path2016" />
    <path
       style="font-variation-settings:normal;display:inline;opacity:1;vector-effect:none;fill:#444555;fill-opacity:1;stroke:none;stroke-width:4.99999;stroke-linecap:butt;stroke-linejoin:miter;stroke-miterlimit:4;stroke-dasharray:none;stroke-dashoffset:0;stroke-opacity:1;-inkscape-stroke:none;stop-color:#000000;stop-opacity:1"
       d="m 430.43944,243.99438 c -6.50122,-2.39225 -14.30605,-5.26419 -19.13477,-6.74786 -4.82871,-1.48368 -14.93936,-3.87494 -19.05802,-6.1793 -4.11866,-2.30435 -14.27494,-9.15763 -44.34418,-25.13443 -30.06923,-15.97681 -30.64048,-16.19504 -45.65954,-21.93263 0,0 -6.13761,-13.21361 -6.13761,-13.21361"
       id="path20072" />
    <path
       style="font-variation-settings:normal;display:inline;opacity:1;vector-effect:none;fill:#444555;fill-opacity:1;stroke:none;stroke-width:4.99999;stroke-linecap:butt;stroke-linejoin:miter;stroke-miterlimit:4;stroke-dasharray:none;stroke-dashoffset:0;stroke-opacity:1;-inkscape-stroke:none;stop-color:#000000;stop-opacity:1"
       d="m 252.53845,131.7245 c 0.82424,0.63386 0.87487,0.67279 3.65788,2.86508 2.78302,2.1923 2.9077,2.29146 4.95412,3.91894 -2.18117,-1.89136 -3.23844,-2.80816 -5.68244,-5.44601 -2.44399,-2.63785 -2.9508,-3.40939 -3.99566,-5.00004 0,0 1.0661,3.66203 1.0661,3.66203 z"
       id="path1218" />
    <path
       style="font-variation-settings:normal;display:inline;opacity:1;vector-effect:none;fill:#444555;fill-opacity:1;stroke:none;stroke-width:4.99999;stroke-linecap:butt;stroke-linejoin:miter;stroke-miterlimit:4;stroke-dasharray:none;stroke-dashoffset:0;stroke-opacity:1;-inkscape-stroke:none;stop-color:#000000;stop-opacity:1"
       d="m 322.40951,183.8809 c -1.19771,-1.90243 -3.38322,-20.50769 5.03933,-34.19163 8.42255,-13.68393 25.74879,-27.5294 43.58117,-41.77932 0,0 88.70193,-72.097101 88.70193,-72.097101 -10.46874,9.391224 -20.4618,18.355731 -35.47748,32.080347 -15.01568,13.724615 -32.44355,29.823351 -50.70096,46.688364 -11.78099,11.28817 -19.72017,18.89525 -28.69785,32.27617 -8.97768,13.38093 -10.22199,19.67171 -12.85097,26.00212 -2.62898,6.33041 -8.39746,12.92349 -9.59517,11.02105 z"
       id="path59116" />
  </g>
  <g
     id="layer5"
     style="display:inline"
     ref="dark_green">
    <path
       style="font-variation-settings:normal;opacity:1;vector-effect:none;fill:#fefffd;fill-opacity:1;stroke:none;stroke-width:4.99999;stroke-linecap:butt;stroke-linejoin:miter;stroke-miterlimit:4;stroke-dasharray:none;stroke-dashoffset:0;stroke-opacity:1;-inkscape-stroke:none;stop-color:#000000;stop-opacity:1"
       d="m 148.50377,116.05543 c 0.40135,0.0601 -1.15854,-6.71905 -14.21294,-19.848333 -13.05441,-13.129288 -18.58261,-17.142032 -33.39187,-27.891595 8.64474,6.401816 11.02151,8.161918 17.82929,16.540901 6.80777,8.378983 6.60111,9.289384 5.8492,12.601803 8.15721,6.427684 23.52497,18.537094 23.92632,18.597224 z"
       id="path4620" />
    <path
       style="font-variation-settings:normal;opacity:1;vector-effect:none;fill:#fefffd;fill-opacity:1;stroke:none;stroke-width:4.99999;stroke-linecap:butt;stroke-linejoin:miter;stroke-miterlimit:4;stroke-dasharray:none;stroke-dashoffset:0;stroke-opacity:1;-inkscape-stroke:none;stop-color:#000000;stop-opacity:1"
       d="m 103.60157,86.301508 c 17.08575,9.407721 34.87434,19.202432 43.97458,30.027892 9.10024,10.82546 11.07359,24.53822 12.96905,37.70969 -4.65337,-5.47885 -13.77013,-16.21287 -13.79989,-16.52496 -0.0298,-0.31209 3.37036,-10.74992 -6.89628,-23.00341 -10.26664,-12.25349 -19.66632,-18.026155 -36.24746,-28.209212 z"
       id="path7472" />
    <path
       style="font-variation-settings:normal;opacity:1;vector-effect:none;fill:#fefffd;fill-opacity:1;stroke:none;stroke-width:4.99999;stroke-linecap:butt;stroke-linejoin:miter;stroke-miterlimit:4;stroke-dasharray:none;stroke-dashoffset:0;stroke-opacity:1;-inkscape-stroke:none;stop-color:#000000;stop-opacity:1"
       d="m 162.29658,130.87411 c 4.47792,17.47383 10.53596,41.11363 11.99485,41.53909 1.45889,0.42547 1.50065,-21.43533 1.53152,-37.5942 -1.27897,10.24666 -2.34706,18.80374 -4.97317,18.03788 -2.62612,-0.76587 -5.32339,-10.42115 -8.55321,-21.98277 0,0 1e-5,0 1e-5,0 z"
       id="path10023" />
    <path
       style="font-variation-settings:normal;opacity:1;vector-effect:none;fill:#fefffd;fill-opacity:1;stroke:none;stroke-width:4.99999;stroke-linecap:butt;stroke-linejoin:miter;stroke-miterlimit:4;stroke-dasharray:none;stroke-dashoffset:0;stroke-opacity:1;-inkscape-stroke:none;stop-color:#000000;stop-opacity:1"
       d="m 115.2616,78.512039 c 0,0 31.92686,28.547821 31.92686,28.547821 0,0 17.75595,47.17441 17.75595,47.17441 0,0 -2.64784,-23.36016 -2.64784,-23.36016 0,0 3.80679,-14.84595 3.80679,-14.84595 0,0 2.57361,-5.90502 2.57361,-5.90502 -3.3566,5.36324 -7.41386,11.84602 -9.6034,11.05238 -2.18954,-0.79364 -6.07239,-13.93295 -9.14843,-17.31823 -3.07604,-3.38528 -22.39282,-16.814514 -34.66354,-25.345251 z"
       id="path15668" />
    <path
       style="font-variation-settings:normal;opacity:1;vector-effect:none;fill:#fefffd;fill-opacity:1;stroke:none;stroke-width:4.99999;stroke-linecap:butt;stroke-linejoin:miter;stroke-miterlimit:4;stroke-dasharray:none;stroke-dashoffset:0;stroke-opacity:1;-inkscape-stroke:none;stop-color:#000000;stop-opacity:1"
       d="m 187.87811,37.489551 c 0,0 -0.2337,21.004537 -0.2337,21.004537 0,0 -1.50395,19.944966 -1.50395,19.944966 0,0 7.57279,5.086659 7.57279,5.086659 -1.63068,-2.967779 -2.43013,-4.422766 -3.89837,-16.005736 -1.46824,-11.582969 -1.6224,-17.652818 -1.93677,-30.030426 z"
       id="path16256" />
    <path
       style="font-variation-settings:normal;opacity:1;vector-effect:none;fill:#fefffd;fill-opacity:1;stroke:none;stroke-width:4.99999;stroke-linecap:butt;stroke-linejoin:miter;stroke-miterlimit:4;stroke-dasharray:none;stroke-dashoffset:0;stroke-opacity:1;-inkscape-stroke:none;stop-color:#000000;stop-opacity:1"
       d="m 187.65062,60.785077 c 0,0 -1.51016,17.653977 -1.51016,17.653977 0,0 -6.22931,-2.625633 -6.22931,-2.625633 1.63189,-0.33145 1.38928,-0.282174 4.16091,-5.66419 2.77163,-5.382016 2.63062,-4.686156 3.57856,-9.364154 z"
       id="path16582" />
    <path
       style="font-variation-settings:normal;opacity:1;vector-effect:none;fill:#ffffff;fill-opacity:1;stroke:none;stroke-width:4.99999;stroke-linecap:butt;stroke-linejoin:miter;stroke-miterlimit:4;stroke-dasharray:none;stroke-dashoffset:0;stroke-opacity:1;-inkscape-stroke:none;stop-color:#000000;stop-opacity:1"
       d="m 142.6629,275.85085 c 4.21921,-4.94026 5.4677,-6.40212 10.96894,-10.45358 5.50123,-4.05147 6.37074,-3.97946 7.49432,-3.55181 1.12358,0.42765 1.38577,1.25474 1.6258,2.0119 0,0 0.0231,19.85331 0.0231,19.85331 -0.0241,-8.35558 -0.0365,-12.67043 -5.00944,-14.614 -4.97294,-1.94356 -8.42275,1.01854 -15.10274,6.75418 0,0 2e-5,0 2e-5,0 z"
       id="path16946" />
    <path
       style="font-variation-settings:normal;opacity:1;vector-effect:none;fill:#ffffff;fill-opacity:1;stroke:none;stroke-width:4.99999;stroke-linecap:butt;stroke-linejoin:miter;stroke-miterlimit:4;stroke-dasharray:none;stroke-dashoffset:0;stroke-opacity:1;-inkscape-stroke:none;stop-color:#000000;stop-opacity:1"
       d="m 146.36026,269.04153 c 16.96978,-17.64832 36.03461,-37.47545 50.33009,-42.9178 14.29549,-5.44235 31.87476,0.4337 47.52251,5.66412 -15.09037,-3.3302 -31.81364,-7.02075 -46.35749,-1.48383 -14.54385,5.53693 -33.96795,22.98942 -51.49511,38.73751 z"
       id="path18171" />
    <path
       style="font-variation-settings:normal;opacity:1;vector-effect:none;fill:#ffffff;fill-opacity:1;stroke:none;stroke-width:4.99999;stroke-linecap:butt;stroke-linejoin:miter;stroke-miterlimit:4;stroke-dasharray:none;stroke-dashoffset:0;stroke-opacity:1;-inkscape-stroke:none;stop-color:#000000;stop-opacity:1"
       d="m 208.82404,242.47488 c 0,0 63.599,-2.00708 63.599,-2.00708 0,0 -28.21018,-8.67995 -28.21018,-8.67995 4.24143,2.99575 5.29999,3.74341 -5.0247,6.86124 -10.32469,3.11782 -14.32641,3.2592 -30.36412,3.82579 z"
       id="path18615" />
    <path
       style="font-variation-settings:normal;opacity:1;vector-effect:none;fill:#ffffff;fill-opacity:1;stroke:none;stroke-width:4.99999;stroke-linecap:butt;stroke-linejoin:miter;stroke-miterlimit:4;stroke-dasharray:none;stroke-dashoffset:0;stroke-opacity:1;-inkscape-stroke:none;stop-color:#000000;stop-opacity:1"
       d="m 223.16338,205.8333 c -1.2832,-20.09058 -2.3714,-37.12828 5.89426,-40.99559 8.26566,-3.86731 21.52376,7.47625 37.15756,20.85245 -15.32127,-10.75585 -29.93413,-21.01439 -37.4412,-17.50201 -7.50706,3.51238 -6.58128,20.17492 -5.61062,37.64515 z"
       id="path20232" />
    <path
       style="font-variation-settings:normal;opacity:1;vector-effect:none;fill:#ffffff;fill-opacity:1;stroke:none;stroke-width:4.99999;stroke-linecap:butt;stroke-linejoin:miter;stroke-miterlimit:4;stroke-dasharray:none;stroke-dashoffset:0;stroke-opacity:1;-inkscape-stroke:none;stop-color:#000000;stop-opacity:1"
       d="m 301.17591,173.54192 c 0,0 57.02824,30.97848 57.02824,30.97848 0,0 29.46016,16.17954 29.46016,16.17954 -14.99561,-8.09051 -27.99416,-15.10355 -44.37045,-23.58929 -16.37629,-8.48574 -28.4329,-14.45557 -42.34116,-21.34223 0,0 0.22321,-2.2265 0.22321,-2.2265 z"
       id="path23658" />
    <path
       style="font-variation-settings:normal;opacity:1;vector-effect:none;fill:#ffffff;fill-opacity:1;stroke:none;stroke-width:4.99999;stroke-linecap:butt;stroke-linejoin:miter;stroke-miterlimit:4;stroke-dasharray:none;stroke-dashoffset:0;stroke-opacity:1;-inkscape-stroke:none;stop-color:#000000;stop-opacity:1"
       d="m 300.95913,181.7113 c -0.0158,-0.0147 -5.69724,-21.08635 -0.53095,-28.15778 5.1663,-7.07142 35.87411,-31.46701 57.05318,-48.29257 -20.774,17.20224 -43.11334,35.70067 -51.79747,47.58703 -8.68413,11.88635 -4.70895,28.87802 -4.72476,28.86332 z"
       id="path24291" />
    <path
       style="font-variation-settings:normal;opacity:1;vector-effect:none;fill:#fefffd;fill-opacity:1;stroke:none;stroke-width:4.99999;stroke-linecap:butt;stroke-linejoin:miter;stroke-miterlimit:4;stroke-dasharray:none;stroke-dashoffset:0;stroke-opacity:1;-inkscape-stroke:none;stop-color:#000000;stop-opacity:1"
       d="m 125.82152,85.914422 c 8.88251,4.402726 22.27052,11.038656 24.66454,13.419009 2.39402,2.380349 3.65089,10.304059 4.48483,15.561499 0,0 2.15988,5.62226 2.15988,5.62226 -0.60514,-6.95873 -1.59564,-18.34902 -3.70677,-20.595764 -2.11113,-2.246744 -20.15497,-11.111158 -31.17814,-16.526517 0,0 3.82243,2.929255 3.82243,2.929255 0,0 -0.24677,-0.409742 -0.24677,-0.409742 z"
       id="path25139" />
    <path
       style="font-variation-settings:normal;opacity:1;vector-effect:none;fill:#fefffd;fill-opacity:1;stroke:none;stroke-width:4.99999;stroke-linecap:butt;stroke-linejoin:miter;stroke-miterlimit:4;stroke-dasharray:none;stroke-dashoffset:0;stroke-opacity:1;-inkscape-stroke:none;stop-color:#000000;stop-opacity:1"
       d="m 128.97775,103.07431 c 4.11637,8.30419 10.48865,21.15934 11.92385,23.39984 1.43521,2.2405 4.89269,4.73198 7.12641,6.34161 -0.0197,-1.09152 -0.0483,-2.67915 -0.23386,-3.07322 -0.1856,-0.39406 -4.35539,-2.62346 -5.75926,-4.57977 -1.40387,-1.95632 -8.49893,-14.21367 -13.05719,-22.08846 0,0 5e-5,0 5e-5,0 z"
       id="path25670" />
    <path
       style="font-variation-settings:normal;opacity:1;vector-effect:none;fill:#ffffff;fill-opacity:1;stroke:none;stroke-width:4.99999;stroke-linecap:butt;stroke-linejoin:miter;stroke-miterlimit:4;stroke-dasharray:none;stroke-dashoffset:0;stroke-opacity:1;-inkscape-stroke:none;stop-color:#000000;stop-opacity:1"
       d="m 190.0209,229.6332 c 3.13068,1.78867 8.09824,4.62682 12.08116,4.93983 3.98293,0.31301 29.59136,-0.1214 45.7316,-0.39519 0,0 -3.6208,-2.38999 -3.6208,-2.38999 -13.36438,0.99283 -32.21064,2.3929 -36.52336,1.71079 -4.31273,-0.68212 -6.08951,-5.34522 -7.34937,-8.65168 0,0 -10.31923,4.78624 -10.31923,4.78624 z"
       id="path26927" />
    <path
       style="font-variation-settings:normal;opacity:1;vector-effect:none;fill:#ffffff;fill-opacity:1;stroke:none;stroke-width:4.99999;stroke-linecap:butt;stroke-linejoin:miter;stroke-miterlimit:4;stroke-dasharray:none;stroke-dashoffset:0;stroke-opacity:1;-inkscape-stroke:none;stop-color:#000000;stop-opacity:1"
       d="m 323.29002,183.7201 c 0.98642,-1.1251 1.97283,-2.25019 2.77606,-3.7086 0.80324,-1.45842 1.39854,-3.17868 2.73146,-8.62092 1.33292,-5.44224 4.17345,-18.12151 9.30594,-24.40577 5.13249,-6.28426 33.14526,-31.13004 51.79989,-47.675658 -20.93933,16.956108 -48.50166,39.275358 -55.73877,47.939188 -7.2371,8.66382 -7.43345,15.79578 -8.36079,23.99112 -0.92733,8.19534 -1.47958,9.68706 -2.51379,12.48064 z"
       id="path39674" />
  </g>
  <g
     id="layer28"
     style="display:inline"
     ref="stroke">
    <path
       style="font-variation-settings:normal;opacity:1;vector-effect:none;fill:#000000;fill-opacity:1;stroke:none;stroke-width:2;stroke-linecap:butt;stroke-linejoin:miter;stroke-miterlimit:4;stroke-dasharray:none;stroke-dashoffset:0;stroke-opacity:1;-inkscape-stroke:none;stop-color:#000000;stop-opacity:1"
       d="m 223.16338,205.8333 c 0.061,-0.001 -0.89481,-21.4698 -0.78763,-29.5621 0.10719,-8.09231 0.85077,-14.93941 4.83472,-16.05951 3.98394,-1.1201 12.04189,4.15572 18.4289,9.05941 6.38701,4.9037 17.99751,14.76631 27.5101,22.84684 -9.6475,-9.1818 -18.46726,-17.57582 -28.54335,-26.14391 -10.07609,-8.56808 -20.84375,-16.54244 -23.83448,-15.39254 -2.99074,1.1499 -2.52577,11.51592 -1.32182,24.43313 1.20394,12.9172 3.65262,30.81987 3.71356,30.81868 z"
       id="path109823" />
    <path
       style="font-variation-settings:normal;opacity:1;vector-effect:none;fill:#000000;fill-opacity:1;stroke:none;stroke-width:2;stroke-linecap:butt;stroke-linejoin:miter;stroke-miterlimit:4;stroke-dasharray:none;stroke-dashoffset:0;stroke-opacity:1;-inkscape-stroke:none;stop-color:#000000;stop-opacity:1"
       d="m 322.37906,201.91117 c 1.13427,0.20224 2.31344,0.41248 1.89931,-6.4183 -0.41414,-6.83077 -2.49636,-21.87579 -0.36349,-33.12645 2.13288,-11.25066 10.49814,-22.12831 23.98888,-34.16953 13.49074,-12.04122 58.54301,-48.851354 92.45229,-76.557066 -34.44359,27.207439 -66.72576,52.707536 -88.94708,71.540106 -22.22132,18.83257 -28.46412,25.80236 -30.88304,36.92498 -2.41893,11.12262 -0.34122,19.71827 1.15738,28.52543 1.49859,8.80716 1.14239,10.79202 0.69575,13.28083 z"
       id="path112770" />
    <path
       style="font-variation-settings:normal;opacity:1;vector-effect:none;fill:#000000;fill-opacity:1;stroke:none;stroke-width:2;stroke-linecap:butt;stroke-linejoin:miter;stroke-miterlimit:4;stroke-dasharray:none;stroke-dashoffset:0;stroke-opacity:1;-inkscape-stroke:none;stop-color:#000000;stop-opacity:1"
       d="m 190.0209,229.63319 c 0.10149,-0.0964 21.07768,-14.30956 31.36583,-13.81064 10.28815,0.49892 29.47927,10.91894 39.72544,10.65063 10.24617,-0.26831 20.198,-10.01992 29.00333,-18.64808 -8.69776,9.17207 -19.98565,21.07552 -29.11663,22.10791 -9.13099,1.03239 -31.11528,-6.88259 -43.91602,-7.78011 -12.80073,-0.89753 -27.16343,7.57668 -27.06195,7.48029 z"
       id="path116170" />
    <path
       style="font-variation-settings:normal;opacity:1;vector-effect:none;fill:#000000;fill-opacity:1;stroke:none;stroke-width:2;stroke-linecap:butt;stroke-linejoin:miter;stroke-miterlimit:4;stroke-dasharray:none;stroke-dashoffset:0;stroke-opacity:1;-inkscape-stroke:none;stop-color:#000000;stop-opacity:1"
       d="m 410.83992,65.331603 c -0.0742,-0.005 -99.50312,71.043157 -110.61624,85.456417 -11.11312,14.41327 1.03356,34.55312 9.83479,49.14605 -7.83556,-14.52835 -17.71812,-32.85218 -4.47397,-50.02925 13.24414,-17.17707 105.32961,-84.568252 105.25542,-84.573217 z"
       id="path116905" />
    <path
       style="font-variation-settings:normal;opacity:1;vector-effect:none;fill:#000000;fill-opacity:1;stroke:none;stroke-width:2;stroke-linecap:butt;stroke-linejoin:miter;stroke-miterlimit:4;stroke-dasharray:none;stroke-dashoffset:0;stroke-opacity:1;-inkscape-stroke:none;stop-color:#000000;stop-opacity:1"
       d="m 178.29209,183.83871 c 0.0532,0.0663 -1.03944,-33.76595 2.72636,-49.27115 3.7658,-15.50519 10.18295,-22.41698 17.51466,-30.31381 -8.01557,7.04466 -17.04598,14.98124 -19.97022,27.02143 -2.92424,12.0402 -0.32401,52.49723 -0.2708,52.56353 z"
       id="path127485" />
    <path
       style="font-variation-settings:normal;opacity:1;vector-effect:none;fill:#000000;fill-opacity:1;stroke:none;stroke-width:2;stroke-linecap:butt;stroke-linejoin:miter;stroke-miterlimit:4;stroke-dasharray:none;stroke-dashoffset:0;stroke-opacity:1;-inkscape-stroke:none;stop-color:#000000;stop-opacity:1"
       d="m 74.310802,63.65183 c 0,0 29.290768,22.649677 29.290768,22.649677 15.94523,9.323268 38.51112,22.517673 44.45462,31.171033 5.94351,8.65336 13.0136,41.36178 16.61617,51.33291 3.60256,9.97112 13.54175,19.91313 13.46858,19.49201 -0.0732,-0.42112 -19.70396,-60.89791 -29.4105,-72.57814 C 139.0239,104.0391 100.82707,80.200563 74.310802,63.65183 Z"
       id="path128534" />
    <path
       style="font-variation-settings:normal;opacity:1;vector-effect:none;fill:#000000;fill-opacity:1;stroke:none;stroke-width:2;stroke-linecap:butt;stroke-linejoin:miter;stroke-miterlimit:4;stroke-dasharray:none;stroke-dashoffset:0;stroke-opacity:1;-inkscape-stroke:none;stop-color:#000000;stop-opacity:1"
       d="m 77.347265,50.197164 c 23.484475,17.985882 56.435905,43.222152 66.443955,56.974246 10.00805,13.75208 24.10828,53.1685 34.15769,81.26105 C 168.505,160.07952 152.28403,111.38021 147.54951,104.8744 142.81499,98.36858 101.43723,67.922659 77.347265,50.197164 Z"
       id="path3898" />
    <path
       style="font-variation-settings:normal;opacity:1;vector-effect:none;fill:#000000;fill-opacity:1;stroke:none;stroke-width:2;stroke-linecap:butt;stroke-linejoin:miter;stroke-miterlimit:4;stroke-dasharray:none;stroke-dashoffset:0;stroke-opacity:1;-inkscape-stroke:none;stop-color:#000000;stop-opacity:1"
       d="m 174.23949,84.580098 c -0.53936,7.282154 -1.06848,14.426081 -3.47125,21.607352 -2.40277,7.18128 -7.61426,15.6821 -6.9632,25.7029 0.65106,10.02081 8.19155,36.01936 14.14387,56.54211 -6.96805,-20.20237 -17.85766,-51.77444 -18.32864,-57.33239 -0.47098,-5.55795 5.13652,-11.64157 9.14264,-21.71698 4.00612,-10.075407 4.55875,-15.610388 5.47658,-24.802992 z"
       id="path5195" />
    <path
       style="font-variation-settings:normal;opacity:1;vector-effect:none;fill:#000000;fill-opacity:1;stroke:none;stroke-width:2;stroke-linecap:butt;stroke-linejoin:miter;stroke-miterlimit:4;stroke-dasharray:none;stroke-dashoffset:0;stroke-opacity:1;-inkscape-stroke:none;stop-color:#000000;stop-opacity:1"
       d="m 177.9227,187.40185 c -0.35014,-3.31837 -3.31739,-39.84802 -1.95025,-56.73839 1.36715,-16.89036 5.05922,-28.46999 8.2296,-44.9883 3.17038,-16.518307 3.32658,-24.285285 3.5458,-35.186283 0.51496,8.469739 0.77857,12.805372 -1.80249,33.810367 -2.58106,21.004996 -6.29122,39.408066 -7.34193,49.404066 -1.0507,9.99601 -0.72537,23.11442 -0.49454,37.66737 0.23082,14.55296 0.16395,19.34955 -0.18619,16.03117 z"
       id="path8645" />
    <path
       style="font-variation-settings:normal;opacity:1;vector-effect:none;fill:#030500;fill-opacity:1;stroke:none;stroke-width:4.99999;stroke-linecap:butt;stroke-linejoin:miter;stroke-miterlimit:4;stroke-dasharray:none;stroke-dashoffset:0;stroke-opacity:1;-inkscape-stroke:none;stop-color:#000000;stop-opacity:1"
       d="m 190.02181,111.79626 c -5.16538,11.19167 -12.88117,27.90922 -13.33801,37.1517 -0.45683,9.24247 6.88422,64.55636 5.10274,69.77796 -1.78149,5.2216 -26.94699,19.51766 -41.83074,27.97284 17.00719,-8.28874 45.83273,-22.33736 47.5906,-27.48974 1.75787,-5.15237 -7.87047,-49.90127 -8.0201,-67.12477 -0.14963,-17.22351 5.33013,-29.09632 10.49551,-40.28799 z"
       id="path2716" />
    <path
       style="font-variation-settings:normal;opacity:1;vector-effect:none;fill:#030500;fill-opacity:1;stroke:none;stroke-width:4.99999;stroke-linecap:butt;stroke-linejoin:miter;stroke-miterlimit:4;stroke-dasharray:none;stroke-dashoffset:0;stroke-opacity:1;-inkscape-stroke:none;stop-color:#000000;stop-opacity:1"
       d="m 167.77861,152.64113 c 0,0 3.95151,18.05369 3.95151,18.05369 0,0 6.22024,17.09985 6.22024,17.09985 0,0 -2.14181,-36.71182 -2.14181,-36.71182 -0.12045,7.21652 -0.23974,14.36423 -1.59081,14.62646 -1.35107,0.26223 -3.88293,-6.37109 -6.43913,-13.06818 z"
       id="path7564" />
    <path
       style="font-variation-settings:normal;opacity:1;vector-effect:none;fill:#030500;fill-opacity:1;stroke:none;stroke-width:4.99999;stroke-linecap:butt;stroke-linejoin:miter;stroke-miterlimit:4;stroke-dasharray:none;stroke-dashoffset:0;stroke-opacity:1;-inkscape-stroke:none;stop-color:#000000;stop-opacity:1"
       d="m 179.87309,142.04903 c 0.0187,0.1979 1.79591,-22.28321 15.34437,-24.66199 13.54846,-2.37877 28.60491,4.27844 47.09531,15.32869 18.4904,11.05026 27.62167,19.45071 38.20368,29.1858 -10.58201,-9.73509 -21.76312,-20.02133 -37.19746,-30.18415 -15.43435,-10.16283 -36.86942,-21.59757 -49.40216,-19.39714 -12.53274,2.20042 -14.06242,29.53088 -14.04374,29.72879 z"
       id="path9135" />
    <path
       style="font-variation-settings:normal;opacity:1;vector-effect:none;fill:#030500;fill-opacity:1;stroke:none;stroke-width:4.99999;stroke-linecap:butt;stroke-linejoin:miter;stroke-miterlimit:4;stroke-dasharray:none;stroke-dashoffset:0;stroke-opacity:1;-inkscape-stroke:none;stop-color:#000000;stop-opacity:1"
       d="m 181.80906,262.23914 c 0,0 -10.26519,-14.23904 6.98598,-17.73571 17.25117,-3.49667 87.57238,-3.83882 103.2804,-4.70162 15.70802,-0.86281 28.83306,-4.81011 38.05333,-7.58307 -10.96647,5.03588 -29.56917,13.57838 -37.84332,14.03289 -8.27416,0.4545 -81.56691,-2.98477 -100.75355,-0.0623 -19.18664,2.92243 -9.72284,16.04985 -9.72284,16.04985 z"
       id="path21166" />
    <path
       style="font-variation-settings:normal;opacity:1;vector-effect:none;fill:#030500;fill-opacity:1;stroke:none;stroke-width:4.99999;stroke-linecap:butt;stroke-linejoin:miter;stroke-miterlimit:4;stroke-dasharray:none;stroke-dashoffset:0;stroke-opacity:1;-inkscape-stroke:none;stop-color:#000000;stop-opacity:1"
       d="m 200.34013,224.84696 c 5.94766,-1.90019 13.01355,-4.15764 22.52867,-2.06511 9.51512,2.09252 29.45097,10.13378 43.8083,13.60845 14.35733,3.47467 23.79286,3.07228 33.70442,2.64959 -7.29773,2.58946 -13.87173,4.92212 -27.20565,1.58642 -13.33392,-3.33569 -17.8383,-5.63486 -39.13804,-11.62062 -21.29974,-5.98577 -24.6129,-5.49752 -33.6977,-4.15873 z"
       id="path27205" />
    <path
       style="font-variation-settings:normal;opacity:1;vector-effect:none;fill:#030500;fill-opacity:1;stroke:none;stroke-width:4.99999;stroke-linecap:butt;stroke-linejoin:miter;stroke-miterlimit:4;stroke-dasharray:none;stroke-dashoffset:0;stroke-opacity:1;-inkscape-stroke:none;stop-color:#000000;stop-opacity:1"
       d="m 332.72726,211.07611 c 20.13899,11.04422 58.31445,13.90508 73.33403,16.00424 15.01957,2.09916 19.05729,4.9592 24.05313,8.49788 4.99585,3.53869 8.89133,6.29794 15.52946,11.06923 6.63813,4.77129 14.72781,10.63454 22.98666,16.6204 -18.03674,-14.72943 -46.03101,-37.59053 -57.17849,-40.83201 -11.14749,-3.24149 -54.07259,-2.89487 -75.77821,-13.59654 -21.70562,-10.70167 -25.26682,-25.18771 -29.71607,-43.28612 3.45047,17.94252 6.63049,34.47869 26.76949,45.52292 z"
       id="path28238" />
    <path
       style="font-variation-settings:normal;opacity:1;vector-effect:none;fill:#030500;fill-opacity:1;stroke:none;stroke-width:4.99999;stroke-linecap:butt;stroke-linejoin:miter;stroke-miterlimit:4;stroke-dasharray:none;stroke-dashoffset:0;stroke-opacity:1;-inkscape-stroke:none;stop-color:#000000;stop-opacity:1"
       d="m 344.36922,214.65586 c 6.50853,8.37479 16.21334,20.86238 22.26577,22.09597 6.05242,1.23359 6.29541,1.18399 40.58574,4.26502 34.29034,3.08104 29.32396,0.21218 39.73516,6.22628 0,0 21.67465,16.02473 21.67465,16.02473 -20.58488,-9.87751 -28.78871,-13.81405 -56.52286,-18.95185 -27.73416,-5.1378 -37.42229,-2.75138 -46.22797,-5.43967 -8.80568,-2.68829 -22.72973,-16.9458 -33.51561,-27.98999 0,0 12.00512,3.76951 12.00512,3.76951 z"
       id="path30097" />
    <path
       style="font-variation-settings:normal;opacity:1;vector-effect:none;fill:#030500;fill-opacity:1;stroke:none;stroke-width:4.99999;stroke-linecap:butt;stroke-linejoin:miter;stroke-miterlimit:4;stroke-dasharray:none;stroke-dashoffset:0;stroke-opacity:1;-inkscape-stroke:none;stop-color:#000000;stop-opacity:1"
       d="m 385.57076,103.714 c -0.45701,0.35046 -34.46111,26.4259 -40.74863,40.38514 -6.28752,13.95923 -1.63044,42.60226 4.75754,48.63103 6.38798,6.02878 35.03655,14.63076 53.75554,23.0878 18.71899,8.45703 22.546,12.69274 27.97641,18.70307 0,0 3.3334,2.14344 3.3334,2.14344 -6.01234,-7.71243 -10.97973,-14.08444 -27.50109,-22.471 -16.52136,-8.38655 -42.75819,-16.18149 -50.6882,-23.78631 -7.93001,-7.60483 -12.37789,-36.95834 -8.51432,-46.70807 3.86358,-9.74973 23.54283,-27.3376 38.08637,-40.33555 0,0 0,0 -0.45702,0.35045 z"
       id="path34025" />
    <path
       style="font-variation-settings:normal;opacity:1;vector-effect:none;fill:#030500;fill-opacity:1;stroke:none;stroke-width:4.99999;stroke-linecap:butt;stroke-linejoin:miter;stroke-miterlimit:4;stroke-dasharray:none;stroke-dashoffset:0;stroke-opacity:1;-inkscape-stroke:none;stop-color:#000000;stop-opacity:1"
       d="m 356.71936,97.004255 c -28.77907,15.358325 -66.47314,35.474245 -75.23579,42.999005 -8.76265,7.52477 -1.21281,21.88606 -1.24974,21.88191 -0.0369,-0.004 -9.78306,-14.85977 -1.53958,-21.93872 8.24347,-7.07895 48.33922,-27.68557 78.02511,-42.942195 z"
       id="path9140" />
    <path
       style="font-variation-settings:normal;opacity:1;vector-effect:none;fill:#030500;fill-opacity:1;stroke:none;stroke-width:4.99999;stroke-linecap:butt;stroke-linejoin:miter;stroke-miterlimit:4;stroke-dasharray:none;stroke-dashoffset:0;stroke-opacity:1;-inkscape-stroke:none;stop-color:#000000;stop-opacity:1"
       d="m 386.02778,103.36355 c -18.06977,14.12086 -36.41294,28.45536 -44.4616,39.28978 -8.04866,10.83442 -7.25839,14.44452 -10.00284,24.83084 -2.74445,10.38631 -5.07015,12.80526 -10.32043,18.26605 5.4817,-3.65762 8.95977,-5.97834 13.4755,-15.46955 4.51573,-9.49122 5.50533,-18.4442 11.63229,-27.49583 6.12696,-9.05163 24.6961,-25.86047 39.67708,-39.42129 z"
       id="path29791" />
    <path
       style="font-variation-settings:normal;opacity:1;vector-effect:none;fill:#030500;fill-opacity:1;stroke:none;stroke-width:4.99999;stroke-linecap:butt;stroke-linejoin:miter;stroke-miterlimit:4;stroke-dasharray:none;stroke-dashoffset:0;stroke-opacity:1;-inkscape-stroke:none;stop-color:#000000;stop-opacity:1"
       d="m 161.22196,253.90213 c -6.2426,3.43869 -13.02306,7.17367 -16.60733,14.11432 -3.58426,6.94066 -6.22861,26.34052 -8.44265,29.66758 -2.21404,3.32707 -15.62482,8.85862 -24.19563,12.39382 7.56647,-4.68937 15.0404,-9.32138 19.55579,-17.10557 4.5154,-7.78418 5.92901,-18.93573 11.13065,-26.58742 5.20164,-7.6517 15.39291,-13.46462 25.05005,-18.97287 0,0 -6.49088,6.49014 -6.49088,6.49014 z"
       id="path3813" />
  </g>
</svg>
