<?xml version="1.0" encoding="UTF-8" standalone="no"?>
<!-- Created with Inkscape (http://www.inkscape.org/) -->

<svg
   width="1980"
   height="1300"
   viewBox="0 0 523.87499 343.95835"
   version="1.1"
   id="svg5"
   xmlns="http://www.w3.org/2000/svg"
   xmlns:svg="http://www.w3.org/2000/svg">
  <defs
     id="defs2" />
  <g
     id="layer4"
     style="display:none">
    <rect
       style="fill:#bababa;fill-opacity:1;stroke:none;stroke-width:0.264583;stroke-opacity:1"
       id="rect115781"
       width="1135.5608"
       height="550.75751"
       x="-201.33615"
       y="-98.807602" />
  </g>
  <g
     id="layer3"
     ref="svg_group"
     style="display:inline">
    <path
       style="font-variation-settings:normal;isolation:isolate;vector-effect:none;fill:#4f6469;fill-opacity:1;stroke:none;stroke-width:15.2751;stroke-linecap:butt;stroke-linejoin:miter;stroke-miterlimit:4;stroke-dasharray:none;stroke-dashoffset:0;stroke-opacity:1;-inkscape-stroke:none;stop-color:#000000"
       d="m 164.78874,99.925665 c -2.36746,-0.33664 -4.54347,-0.646056 -10.63167,-2.722232 -6.0882,-2.076175 -17.19527,-6.451434 -18.26603,-10.565697 -1.07076,-4.114264 11.40342,-23.335445 11.69329,-23.923111 0.28987,-0.587666 -3.135,0.358875 -3.9657,0.2226 -0.8307,-0.136275 -2.62706,-1.90353 -1.92419,-2.517545 0.70287,-0.614015 22.52311,-15.527253 23.41856,-15.982206 0.89545,-0.454952 7.13222,0.229981 7.32023,0.889357 0.18801,0.659376 -0.4515,18.381723 -0.76816,19.607017 -0.31665,1.225294 -3.94226,2.135374 -4.69142,1.956172 -0.74915,-0.179202 -3.36702,-2.630639 -4.94724,-1.699451 -1.58022,0.931189 -20.90395,15.555898 -19.84875,21.25196 1.0552,5.696062 14.84138,9.905041 27.84922,13.876391 0,0 -5.23814,-0.393255 -5.23814,-0.393255 z"
       id="path6826" />
    <path
       style="font-variation-settings:normal;isolation:isolate;vector-effect:none;fill:#4f6469;fill-opacity:1;stroke:none;stroke-width:24.2263;stroke-linecap:butt;stroke-linejoin:miter;stroke-miterlimit:4;stroke-dasharray:none;stroke-dashoffset:0;stroke-opacity:1;-inkscape-stroke:none;stop-color:#000000"
       d="m 200.32665,226.5604 c -3.75478,0.53391 -7.20592,1.02465 -16.86178,4.31745 -9.65585,3.29281 -27.27162,10.23195 -28.96985,16.75716 -1.69823,6.5252 18.08576,37.0099 18.54551,37.94194 0.45974,0.93204 -4.9721,-0.56917 -6.28959,-0.35304 -1.31748,0.21614 -4.1665,3.01899 -3.05175,3.99282 1.11475,0.97382 35.72156,24.62615 37.14173,25.3477 1.42018,0.72156 11.31167,-0.36474 11.60986,-1.41051 0.29818,-1.04577 -0.71608,-29.15333 -1.21829,-31.09664 -0.50221,-1.94331 -6.25244,-3.3867 -7.44058,-3.10249 -1.18815,0.28422 -5.34009,4.17218 -7.84631,2.69533 -2.50622,-1.47686 -33.15357,-24.67158 -31.48002,-33.70551 1.67355,-9.03393 23.53835,-15.70935 44.16873,-22.00789 0,0 -8.30766,0.62368 -8.30766,0.62368 z"
       id="path6826-7" />
    <circle
       style="fill:#4f6469;fill-opacity:1;stroke-width:4.99999;stroke-linecap:round;stroke-linejoin:round;stroke-miterlimit:300;paint-order:fill markers stroke"
       id="path9003"
       cx="133.27689"
       cy="74.737267"
       r="9.3756361" />
    <circle
       style="fill:#4f6469;fill-opacity:1;stroke-width:8.1809;stroke-linecap:round;stroke-linejoin:round;stroke-miterlimit:300;paint-order:fill markers stroke"
       id="path9003-3"
       cx="406.3562"
       cy="214.27861"
       r="15.340266" />
    <circle
       style="fill:#4f6469;fill-opacity:1;stroke-width:3.47017;stroke-linecap:round;stroke-linejoin:round;stroke-miterlimit:300;paint-order:fill markers stroke"
       id="path9003-3-5"
       cx="388.52628"
       cy="230.36845"
       r="6.5070219" />
    <circle
       style="fill:#4f6469;fill-opacity:1;stroke-width:1.71577;stroke-linecap:round;stroke-linejoin:round;stroke-miterlimit:300;paint-order:fill markers stroke"
       id="path9003-3-5-6"
       cx="392.48813"
       cy="243.50882"
       r="3.2172954" />
    <circle
       style="fill:#4f6469;fill-opacity:1;stroke-width:3.23885;stroke-linecap:round;stroke-linejoin:round;stroke-miterlimit:300;paint-order:fill markers stroke"
       id="path9003-5"
       cx="131.64717"
       cy="57.972797"
       r="6.073276" />
  </g>
  <g
     id="layer2"
     ref="svg_group"
     style="display:inline">
    <path
       style="font-variation-settings:normal;opacity:1;vector-effect:none;fill:#4f6469;fill-opacity:1;stroke:none;stroke-width:4.99999;stroke-linecap:butt;stroke-linejoin:miter;stroke-miterlimit:4;stroke-dasharray:none;stroke-dashoffset:0;stroke-opacity:1;-inkscape-stroke:none;stop-color:#000000;stop-opacity:1"
       d="m 127.5075,84.818986 c -2.32203,-1.457116 -9.77944,-8.569157 -20.98765,-12.190421 -11.208216,-3.621264 -23.559036,-2.00165 -22.850938,2.736615 0.708097,4.738265 27.262418,79.73939 38.656588,106.35863 11.39418,26.61923 14.84588,27.94396 18.85102,29.4811 3.10176,7.76934 4.99094,12.50138 10.37762,17.77839 5.38668,5.27701 8.21432,5.16642 12.85765,4.98482 -1.36509,7.36561 -2.75782,14.88037 -0.90491,19.49898 1.8529,4.61862 9.76427,7.78861 12.20559,9.26043 2.44132,1.47181 8.53745,6.426 17.61281,9.38196 9.07537,2.95595 18.86288,3.55756 25.73808,6.06433 6.87521,2.50677 26.61109,14.14686 31.01514,13.68495 4.40404,-0.4619 3.63036,-11.02679 3.00936,-19.50673 54.8054,-20.19349 138.92689,-51.18872 152.67274,-57.64694 13.74586,-6.45821 20.35451,-18.09093 24.66004,-25.66963 1.81852,-0.56613 4.37795,-1.36292 4.03992,-5.89441 -0.33803,-4.5315 -3.96309,-22.57242 -9.36848,-34.81897 -5.40539,-12.24654 -12.74261,-19.35329 -18.7044,-21.45535 -5.96179,-2.10205 -30.0527,-3.36476 -32.37547,-4.13785 -2.32277,-0.77308 4.26058,-6.8725 4.98346,-7.24788 0.72287,-0.37537 8.89704,-2.47554 12.33858,-6.8265 3.44155,-4.35096 8.19874,-17.450726 10.34212,-22.395882 2.14338,-4.945156 13.11721,-27.973318 15.66605,-35.026834 2.54883,-7.053515 2.44844,-14.049914 -8.50339,-12.974664 -10.95184,1.07525 -97.44224,17.263691 -112.41956,20.744542 -14.97733,3.48085 -15.91996,6.52266 -16.61417,8.762822 -7.1078,2.516143 -14.28631,5.057319 -18.75848,7.223626 -4.47216,2.166307 -6.41782,4.044908 -8.34427,5.90496 0,0 -35.55154,-10.051521 -35.55154,-10.051521 -2.33514,-3.041442 -3.88629,-5.061769 -9.02854,-5.987646 -5.14226,-0.925877 -8.70666,0.173883 -14.07156,1.829165 -8.02865,-2.38454 -15.9083,-4.724829 -20.50196,-2.861869 -4.59366,1.86296 -5.56656,7.793447 -6.55785,13.836047 -0.94498,14.970671 -2.22652,35.273304 -4.99473,36.374094 -2.76821,1.10078 -14.19393,-16.142433 -19.40282,-21.404037 -5.20889,-5.261604 -12.76402,-6.35121 -15.08605,-7.808327 z"
       id="path1297" />
  </g>
  <g
     id="layer16"
     style="display:inline"
     ref="svg_group">
    <path
       style="font-variation-settings:normal;opacity:1;vector-effect:none;fill:#000000;fill-opacity:1;stroke:none;stroke-width:4.99999;stroke-linecap:butt;stroke-linejoin:miter;stroke-miterlimit:4;stroke-dasharray:none;stroke-dashoffset:0;stroke-opacity:1;-inkscape-stroke:none;stop-color:#000000;stop-opacity:1"
       d="m 168.36061,254.84416 c 7.7357,5.44365 16.69346,11.74728 23.979,14.65847 7.28555,2.91119 26.12602,5.80761 26.71589,5.47797 0.58987,-0.32964 -5.42812,-9.31743 -8.75085,-14.27988 0,0 -41.94404,-5.85656 -41.94404,-5.85656 z"
       id="path292964" />
    <path
       style="font-variation-settings:normal;opacity:1;vector-effect:none;fill:#000000;fill-opacity:1;stroke:none;stroke-width:4.99999;stroke-linecap:butt;stroke-linejoin:miter;stroke-miterlimit:4;stroke-dasharray:none;stroke-dashoffset:0;stroke-opacity:1;-inkscape-stroke:none;stop-color:#000000;stop-opacity:1"
       d="m 210.30465,260.70072 c 2.89295,4.72246 8.48065,13.84385 8.90885,14.17857 0.42819,0.33471 21.56081,11.44081 25.32602,10.76461 3.76521,-0.6762 4.70604,-9.44559 5.4461,-16.34356 0,0 -2.43368,-14.13638 -2.43368,-14.13638 0,0 -10.60035,8.9516 -10.60035,8.9516 0,0 -26.64694,-3.41484 -26.64694,-3.41484 z"
       id="path293910" />
    <path
       style="font-variation-settings:normal;opacity:1;vector-effect:none;fill:#000000;fill-opacity:1;stroke:none;stroke-width:4.99999;stroke-linecap:butt;stroke-linejoin:miter;stroke-miterlimit:4;stroke-dasharray:none;stroke-dashoffset:0;stroke-opacity:1;-inkscape-stroke:none;stop-color:#000000;stop-opacity:1"
       d="m 247.55194,255.16396 c 0,0 180.44006,-68.59991 180.44006,-68.59991 -3.55618,8.74732 -7.82799,19.25494 -31.5258,30.26949 -23.69781,11.01456 -90.7013,33.63536 -146.48058,52.4668 0,0 -2.43368,-14.13638 -2.43368,-14.13638 z"
       id="path298379" />
  </g>
  <g
     id="layer15"
     style="display:inline"
     ref="svg_group">
    <path
       style="font-variation-settings:normal;display:inline;vector-effect:none;fill:#000000;fill-opacity:1;stroke:none;stroke-width:4.99999;stroke-linecap:butt;stroke-linejoin:miter;stroke-miterlimit:4;stroke-dasharray:none;stroke-dashoffset:0;stroke-opacity:1;-inkscape-stroke:none;stop-color:#000000"
       d="m 263.32785,76.861061 c 12.49814,-5.73393 132.01755,-31.571357 139.57445,-29.293215 7.5569,2.278142 -4.5461,56.264894 -17.82002,63.900574 -13.27392,7.63568 -74.67811,10.04579 -71.41266,11.37765 3.26545,1.33187 80.33685,3.17578 92.87075,7.86817 12.53391,4.69238 30.2816,50.13721 21.18697,56.6787 -9.09464,6.54149 -180.69053,73.83343 -195.69795,71.24682 -15.00742,-2.58661 27.97385,-85.34234 40.9341,-94.91929 12.96026,-9.57695 100.93778,-22.46097 97.67693,-24.9236 -3.26084,-2.46263 -124.28911,-11.35449 -131.94772,-14.78212 -7.65861,-3.42763 12.13701,-41.419758 24.63515,-47.153689 z"
       id="path148310-7" />
    <path
       style="font-variation-settings:normal;display:inline;vector-effect:none;fill:#000000;fill-opacity:1;stroke:none;stroke-width:4.99999;stroke-linecap:butt;stroke-linejoin:miter;stroke-miterlimit:4;stroke-dasharray:none;stroke-dashoffset:0;stroke-opacity:1;-inkscape-stroke:none;stop-color:#000000"
       d="M 146.82962,221.13876 C 141.93074,211.54023 96.635428,91.53129 96.233537,83.5736 c -0.401891,-7.957689 38.191953,5.370656 43.758443,9.511324 5.56648,4.140668 21.50693,29.514576 24.105,26.209106 2.59807,-3.30546 3.21975,-51.281298 15.40388,-52.315312 12.18413,-1.034014 170.829,43.050632 176.998,45.632452 6.16901,2.58181 -6.49457,16.17345 -11.92229,19.87381 -5.42772,3.70035 -21.07386,9.89988 -28.46503,19.53349 -7.39117,9.63362 -69.84616,108.48892 -76.23936,114.60505 -6.39321,6.11613 -36.59088,-5.58277 -38.27264,-12.33325 -1.68176,-6.75049 3.85957,-88.83641 3.58542,-93.78193 -0.27415,-4.94552 -8.21529,23.68259 -11.72988,26.2189 -3.51459,2.5363 -26.16652,-1.7516 -30.77976,-4.18019 -4.61325,-2.42859 -8.76688,-11.02357 -7.24579,-4.64298 1.5211,6.3806 13.00735,44.98261 12.76159,50.24301 -0.24576,5.2604 -16.46261,2.59021 -21.3615,-7.00832 z"
       id="path146269-5" />
    <path
       style="font-variation-settings:normal;vector-effect:none;fill:#000000;fill-opacity:1;stroke:none;stroke-width:4.99999;stroke-linecap:butt;stroke-linejoin:miter;stroke-miterlimit:4;stroke-dasharray:none;stroke-dashoffset:0;stroke-opacity:1;-inkscape-stroke:none;stop-color:#000000"
       d="m 284.86076,66.689541 c 7.96271,-4.489879 117.4217,-27.467261 127.59907,-25.00891 10.17738,2.458351 -12.72101,48.541314 -18.665,51.892795 -5.94399,3.351482 -76.9258,10.632074 -87.69598,8.030814 -10.77018,-2.601263 -29.2008,-30.424821 -21.23809,-34.914699 z"
       id="path206059-3" />
    <path
       style="font-variation-settings:normal;vector-effect:none;fill:#000000;fill-opacity:1;stroke:none;stroke-width:4.99999;stroke-linecap:butt;stroke-linejoin:miter;stroke-miterlimit:4;stroke-dasharray:none;stroke-dashoffset:0;stroke-opacity:1;-inkscape-stroke:none;stop-color:#000000"
       d="M 133.466,197.59412 C 123.97623,179.19476 88.744435,89.150002 87.826268,78.563762 86.9081,67.977522 120.33022,76.469615 125.48989,86.473989 c 5.15967,10.004374 26.96566,112.635281 27.57627,119.673841 0.61061,7.03856 -10.11038,9.84564 -19.60016,-8.55371 z"
       id="path205360-5" />
    <path
       style="font-variation-settings:normal;vector-effect:none;fill:#000000;fill-opacity:1;stroke:none;stroke-width:4.99999;stroke-linecap:butt;stroke-linejoin:miter;stroke-miterlimit:4;stroke-dasharray:none;stroke-dashoffset:0;stroke-opacity:1;-inkscape-stroke:none;stop-color:#000000"
       d="m 290.34075,157.08471 c -37.83582,6.90819 -88.48436,16.15577 -102.82658,26.32296 -14.34222,10.16718 -22.86973,46.88634 -22.34298,60.38379 0.52675,13.49744 4.24874,18.91484 35.74217,18.06195 31.49344,-0.85289 72.90683,-15.50142 73.09442,-15.7106 0.18758,-0.20918 10.93268,-59.34003 16.33297,-89.0581 z"
       id="path199123-2" />
  </g>
  <g
     id="layer9"
     style="display:inline"
     ref="svg_group">
    <path
       style="font-variation-settings:normal;opacity:1;vector-effect:none;fill:#ffffff;fill-opacity:1;stroke:none;stroke-width:4.99999;stroke-linecap:butt;stroke-linejoin:miter;stroke-miterlimit:4;stroke-dasharray:none;stroke-dashoffset:0;stroke-opacity:1;-inkscape-stroke:none;stop-color:#000000;stop-opacity:1"
       d="m 290.34075,157.08471 c -36.08231,7.50224 -84.38353,17.54504 -98.46878,27.62087 -14.08525,10.07582 -24.1168,45.45441 -23.12455,58.41622 0.99225,12.96182 5.87753,18.12315 36.72642,17.49939 30.84889,-0.62375 68.37636,-14.27688 68.54894,-14.48222 0.17258,-0.20534 10.91768,-59.33619 16.31797,-89.05426 z"
       id="path199123" />
    <path
       style="display:inline;fill:#000000;fill-opacity:1;stroke:none;stroke-width:0.264583px;stroke-linecap:butt;stroke-linejoin:miter;stroke-opacity:1"
       d="m 168.15612,236.56009 c 2.17015,1.06841 54.98523,-0.28228 54.98523,-0.28228 l -55.96669,2.50008 z"
       id="path106497-0" />
  </g>
  <g
     id="layer18"
     style="display:inline"
     ref="svg_group">
    <path
       style="font-variation-settings:normal;opacity:1;vector-effect:none;fill:#000000;fill-opacity:1;stroke:none;stroke-width:4.99999;stroke-linecap:butt;stroke-linejoin:miter;stroke-miterlimit:4;stroke-dasharray:none;stroke-dashoffset:0;stroke-opacity:1;-inkscape-stroke:none;stop-color:#000000;stop-opacity:1"
       d="m 151.41631,224.7989 c 0.88865,0.5843 1.99477,1.3116 5.25614,2.72164 3.26138,1.41005 17.02817,7.00655 17.52621,3.21883 0.49805,-3.78772 -8.102,-33.51229 -13.71037,-52.89664 0,0 -10.85699,-15.69448 -10.85699,-15.69448 0,0 15.53554,64.60706 15.53554,64.60706 0,0 -13.75053,-1.95641 -13.75053,-1.95641 z"
       id="path340812" />
    <path
       style="font-variation-settings:normal;opacity:1;vector-effect:none;fill:#000000;fill-opacity:1;stroke:none;stroke-width:4.99999;stroke-linecap:butt;stroke-linejoin:miter;stroke-miterlimit:4;stroke-dasharray:none;stroke-dashoffset:0;stroke-opacity:1;-inkscape-stroke:none;stop-color:#000000;stop-opacity:1"
       d="m 156.07592,172.63114 c 3.26353,4.51707 7.91383,10.95359 11.75526,13.07071 3.84143,2.11712 24.52832,7.94833 27.086,7.10726 2.55768,-0.84106 8.89283,-14.00011 10.63465,-21.79656 1.74181,-7.79646 2.54157,-21.29242 3.22381,-32.80536 -5.94165,15.24063 -11.67439,29.94539 -20.76639,35.88448 -9.09201,5.93908 -20.30841,2.30545 -31.93333,-1.46053 z"
       id="path343334" />
  </g>
  <g
     id="layer1"
     style="display:inline"
     ref="svg_group">
    <path
       style="font-variation-settings:normal;vector-effect:none;fill:#ffffff;fill-opacity:1;stroke:none;stroke-width:4.99999;stroke-linecap:butt;stroke-linejoin:miter;stroke-miterlimit:4;stroke-dasharray:none;stroke-dashoffset:0;stroke-opacity:1;-inkscape-stroke:none;stop-color:#000000"
       d="M 147.70851,220.21324 C 142.94882,210.96599 96.434093,93.513249 95.94084,85.747061 c -0.493252,-7.766188 38.1006,5.56216 43.69498,9.531089 5.59437,3.968928 21.78463,27.80457 24.66061,24.58273 2.87598,-3.22183 5.06828,-49.057459 17.01407,-50.09147 11.94579,-1.03401 165.58661,40.48062 171.67462,42.95211 6.08802,2.4715 -3.9353,16.06314 -8.88578,19.76348 -4.95049,3.70033 -20.59663,9.89986 -28.03246,19.31721 -7.43583,9.41735 -70.38445,105.88237 -76.77765,111.99848 -6.3932,6.11612 -36.0786,-3.10216 -37.60265,-10.3082 -1.52406,-7.20605 3.86896,-74.87876 7.08906,-115.2853 -5.14262,16.58957 -13.11065,42.29362 -16.72261,45.54795 -3.61195,3.25434 -24.41971,-0.84392 -29.07319,-3.59302 -4.65347,-2.74911 -9.66634,-11.54952 -13.34854,-18.01387 6.47053,22.79283 16.1612,56.92883 16.21024,62.55226 0.049,5.62344 -13.37334,4.75999 -18.13303,-4.48727 z"
       id="path146269" />
    <path
       style="font-variation-settings:normal;display:inline;opacity:1;vector-effect:none;fill:#030500;fill-opacity:1;stroke:none;stroke-width:4.99999;stroke-linecap:butt;stroke-linejoin:miter;stroke-miterlimit:4;stroke-dasharray:none;stroke-dashoffset:0;stroke-opacity:1;-inkscape-stroke:none;stop-color:#000000;stop-opacity:1"
       d="m 155.64298,181.35692 -9.55335,0.75084 0.43417,1.99565 9.6961,-0.726 z"
       id="path361986" />
    <path
       id="path1181"
       style="font-variation-settings:normal;display:inline;opacity:1;vector-effect:none;fill:#030500;fill-opacity:1;stroke:none;stroke-width:18.8976;stroke-linecap:butt;stroke-linejoin:miter;stroke-miterlimit:4;stroke-dasharray:none;stroke-dashoffset:0;stroke-opacity:1;-inkscape-stroke:none;stop-color:#000000;stop-opacity:1"
       d="m 789.07422,522.35742 -9.29297,33.06836 -14.11719,190.26953 c -1.64111,23.53207 -3.50431,50.61505 -5.16406,77.51172 2.77569,-1.25534 5.51909,-2.5015 8.2168,-3.73047 2.0207,-27.84277 4.2108,-55.91649 6.08984,-79.78711 z m -22.4961,327.8711 -7.85546,3.14453 c -24.11425,154.88465 -23.26972,120.92246 75.25976,156.98045 l 43.40235,-5.5508 c -16.97613,-1.5441 -30.16201,-2.7446 -54.68946,-10.85543 -24.52745,-8.11081 -55.37968,-23.74065 -59.19336,-42.97071 -2.1475,-10.82857 -0.12026,-52.86763 3.07617,-100.74804 z"
       transform="scale(0.26458334)" />
    <path
       style="fill:#000000;fill-opacity:1;stroke:none;stroke-width:0.201275px;stroke-linecap:butt;stroke-linejoin:miter;stroke-opacity:1"
       d="m 232.27225,174.86844 c 9.94695,4.66092 22.12349,10.36659 16.17876,16.81055 -5.94474,6.44396 -36.88119,21.07329 -62.15282,33.02382 27.42353,-12.01796 60.11134,-26.34292 67.28172,-32.80465 7.17038,-6.46173 -4.36269,-11.20049 -14.03847,-15.17612 0,0 -7.26919,-1.8536 -7.26919,-1.8536 z"
       id="path60466" />
    <path
       style="font-variation-settings:normal;isolation:isolate;vector-effect:none;fill:#000000;fill-opacity:1;stroke:none;stroke-width:15.2751;stroke-linecap:butt;stroke-linejoin:miter;stroke-miterlimit:4;stroke-dasharray:none;stroke-dashoffset:0;stroke-opacity:1;-inkscape-stroke:none;stop-color:#000000"
       d="m 234.65704,211.04071 c 12.86151,-6.15868 25.73528,-13.40115 26.85803,-17.96282 1.12274,-4.56167 -14.10909,-21.68038 -14.48433,-22.21757 -0.37523,-0.53719 3.15328,-0.11831 3.95389,-0.37838 0.80062,-0.26006 2.30973,-2.27816 1.52226,-2.77908 -0.78748,-0.50092 -24.60828,-11.95069 -25.56212,-12.26531 -0.95385,-0.31462 -7.01585,1.3036 -7.1022,1.9838 -0.0864,0.68021 3.22015,18.1031 3.71807,19.26658 0.49792,1.16349 4.21936,1.51604 4.93289,1.22584 0.71353,-0.2902 2.93151,-3.10861 4.70761,-2.32273 1.77611,0.78587 24.08242,13.73584 18.47907,22.11262 -5.60334,8.37678 -31.4045,19.61797 -55.74907,30.22455 13.48006,-5.59167 25.8644,-10.72883 38.7259,-16.8875 z"
       id="path6826-1" />
    <path
       style="fill:#000000;fill-opacity:1;stroke:none;stroke-width:0.264583px;stroke-linecap:butt;stroke-linejoin:miter;stroke-opacity:1"
       d="m 207.84901,152.1801 81.71198,-16.12967 c 0,0 3.52888,-0.73277 1.27296,0.60125 -2.25592,1.33401 -84.20461,17.25787 -84.20461,17.25787 z"
       id="path95989" />
    <path
       style="fill:#000000;fill-opacity:1;stroke:none;stroke-width:0.264583px;stroke-linecap:butt;stroke-linejoin:miter;stroke-opacity:1"
       d="m 257.03122,105.9051 -20.88205,42.23603 2.92828,-1.5889 18.06661,-40.75373 z"
       id="path96617" />
    <circle
       style="display:inline;fill:#000000;fill-opacity:1;stroke:none;stroke-width:4.99999;stroke-linecap:round;stroke-linejoin:round;stroke-miterlimit:300;stroke-opacity:1;paint-order:fill markers stroke"
       id="path364191-7"
       cx="234.73958"
       cy="142.77042"
       r="1.7318369" />
    <circle
       style="display:inline;fill:#000000;fill-opacity:1;stroke:none;stroke-width:4.99999;stroke-linecap:round;stroke-linejoin:round;stroke-miterlimit:300;stroke-opacity:1;paint-order:fill markers stroke"
       id="path364191-7-9"
       cx="171.26454"
       cy="107.70695"
       r="1.7318369" />
    <path
       style="fill:#000000;fill-opacity:1;stroke:none;stroke-width:0.264583px;stroke-linecap:butt;stroke-linejoin:miter;stroke-opacity:1"
       d="m 242.68823,136.30056 c -2.44649,-0.60983 -76.57899,-24.63878 -76.57899,-24.63878 l 0.41866,-0.90045 76.90833,23.79191 z"
       id="path108773" />
    <path
       style="display:inline;fill:#ffffff;fill-opacity:1;stroke:none;stroke-width:0.264583px;stroke-linecap:butt;stroke-linejoin:miter;stroke-opacity:1"
       d="M 151.30383,159.59105 -374.30389,61.517161 151.28713,157.44353 Z"
       id="path114670-2" />
    <path
       style="display:inline;fill:#ffffff;fill-opacity:1;stroke:none;stroke-width:0.264583px;stroke-linecap:butt;stroke-linejoin:miter;stroke-opacity:1"
       d="m 138.91594,136.68531 -93.021608,-3.64292 -4.9202,4.44705 -4.46226,-0.33544 5.85001,-5.01982 99.887908,2.15824 z"
       id="path118927-2" />
    <path
       style="display:inline;fill:#ffffff;fill-opacity:1;stroke:none;stroke-width:0.264583px;stroke-linecap:butt;stroke-linejoin:miter;stroke-opacity:1"
       d="m 49.544122,133.03554 -5.4684,5.22201 0.75364,0.0873 5.51561,-5.28648 z"
       id="path119431-8" />
    <path
       style="display:inline;fill:#ffffff;fill-opacity:1;stroke:none;stroke-width:0.264583px;stroke-linecap:butt;stroke-linejoin:miter;stroke-opacity:1"
       d="m 47.362632,132.88527 -5.4684,5.22201 0.75364,0.0873 5.51561,-5.28648 z"
       id="path119431-3-9" />
    <path
       style="display:inline;fill:#ffffff;fill-opacity:1;stroke:none;stroke-width:0.264583px;stroke-linecap:butt;stroke-linejoin:miter;stroke-opacity:1"
       d="m 51.947562,133.1759 -5.4684,5.22201 0.75364,0.0873 5.51561,-5.28648 z"
       id="path119431-6-7" />
    <path
       style="display:inline;fill:#ffffff;fill-opacity:1;stroke:none;stroke-width:0.264583px;stroke-linecap:butt;stroke-linejoin:miter;stroke-opacity:1"
       d="m 146.86492,178.98326 -87.737878,-31.11842 -2.91986,-5.95475 -4.2684,-1.34353 3.57092,6.83153 93.563758,35.0439 z"
       id="path118927-0-3" />
    <path
       style="display:inline;fill:#ffffff;fill-opacity:1;stroke:none;stroke-width:0.264583px;stroke-linecap:butt;stroke-linejoin:miter;stroke-opacity:1"
       d="m 62.513972,149.2249 -3.14153,-6.87776 0.73226,0.19845 3.16146,6.95514 z"
       id="path119431-62-6" />
    <path
       style="display:inline;fill:#ffffff;fill-opacity:1;stroke:none;stroke-width:0.264583px;stroke-linecap:butt;stroke-linejoin:miter;stroke-opacity:1"
       d="m 60.432342,148.55534 -3.14153,-6.87776 0.73227,0.19845 3.16145,6.95514 z"
       id="path119431-3-6-1" />
    <path
       style="display:inline;fill:#ffffff;fill-opacity:1;stroke:none;stroke-width:0.264583px;stroke-linecap:butt;stroke-linejoin:miter;stroke-opacity:1"
       d="m 64.767512,149.94771 -3.40238,-7.24997 0.77797,0.20172 3.3766,7.32408 z"
       id="path119431-6-1-2" />
    <path
       style="fill:#ffffff;fill-opacity:1;stroke:none;stroke-width:0.264583px;stroke-linecap:butt;stroke-linejoin:miter;stroke-opacity:1"
       d="M 97.289707,162.2418 -414.13833,602.00817 95.395333,161.37684 Z"
       id="path130497" />
    <path
       style="fill:#ffffff;fill-opacity:1;stroke:none;stroke-width:0.264583px;stroke-linecap:butt;stroke-linejoin:miter;stroke-opacity:1"
       d="m 12.602865,132.74041 -44.90865,140.2085 -1.94325,1.24383 45.894465,-141.82462 z"
       id="path130678" />
    <path
       style="fill:#ffffff;fill-opacity:1;stroke:none;stroke-width:0.264583px;stroke-linecap:butt;stroke-linejoin:miter;stroke-opacity:1"
       d="M 3.5828206,131.46442 -51.784979,-231.34543 2.5769113,131.09493 Z"
       id="path130779" />
  </g>
  <g
     id="layer17"
     style="display:inline"
     ref="svg_group">
    <path
       style="font-variation-settings:normal;opacity:1;vector-effect:none;fill:#000000;fill-opacity:1;stroke:none;stroke-width:4.99999;stroke-linecap:butt;stroke-linejoin:miter;stroke-miterlimit:4;stroke-dasharray:none;stroke-dashoffset:0;stroke-opacity:1;-inkscape-stroke:none;stop-color:#000000;stop-opacity:1"
       d="m 248.81459,96.187692 c 0,0 134.13115,40.513668 134.13115,40.513668 -46.90557,-2.85586 -118.97488,-7.24381 -131.22219,-7.91612 -12.24731,-0.67232 -20.05171,-0.73147 -18.71005,-7.24049 1.34166,-6.50901 7.66639,-14.75338 15.80109,-25.357058 z"
       id="path310708" />
    <path
       style="font-variation-settings:normal;opacity:1;vector-effect:none;fill:#000000;fill-opacity:1;stroke:none;stroke-width:4.99999;stroke-linecap:butt;stroke-linejoin:miter;stroke-miterlimit:4;stroke-dasharray:none;stroke-dashoffset:0;stroke-opacity:1;-inkscape-stroke:none;stop-color:#000000;stop-opacity:1"
       d="m 306.18814,123.40918 c 0,0 80.06469,-18.94183 80.06469,-18.94183 -4.24939,5.77438 -10.91062,14.82614 -16.68094,16.1913 -5.77032,1.36516 -40.94491,2.21097 -63.38375,2.75053 z"
       id="path332835" />
  </g>
  <g
     id="layer5"
     style="display:inline"
     ref="svg_group">
    <path
       style="font-variation-settings:normal;display:inline;vector-effect:none;fill:#ffffff;fill-opacity:1;stroke:none;stroke-width:4.99999;stroke-linecap:butt;stroke-linejoin:miter;stroke-miterlimit:4;stroke-dasharray:none;stroke-dashoffset:0;stroke-opacity:1;-inkscape-stroke:none;stop-color:#000000"
       d="m 265.51009,78.481353 c 12.49814,-5.733921 130.10645,-32.990327 137.2806,-30.952657 7.17416,2.03767 -8.17487,54.188514 -21.44879,61.824194 -13.27392,7.63569 -72.40625,11.33074 -68.88778,13.53677 3.51847,2.20603 78.98503,5.5802 91.12804,10.23493 12.14301,4.65473 28.18978,47.51522 19.22604,53.9319 -8.96374,6.41667 -176.69602,74.0808 -191.11121,71.44515 -14.4152,-2.63565 29.57664,-86.11928 43.16068,-95.85154 13.58405,-9.73226 106.87774,-23.45303 103.4982,-25.83017 -3.37955,-2.37713 -131.01188,-9.62471 -139.02843,-12.82601 -8.01656,-3.2013 13.68452,-39.778646 26.18265,-45.512567 z"
       id="path148310" />
    <path
       style="font-variation-settings:normal;display:inline;opacity:1;vector-effect:none;fill:#030500;fill-opacity:1;stroke:none;stroke-width:4.99999;stroke-linecap:butt;stroke-linejoin:miter;stroke-miterlimit:4;stroke-dasharray:none;stroke-dashoffset:0;stroke-opacity:1;-inkscape-stroke:none;stop-color:#000000;stop-opacity:1"
       d="m 367.5364,211.90691 c -0.43122,-3.10276 -19.80742,-56.59745 -19.80742,-56.59745 l 2.15737,-0.59082 19.93586,56.0062 z"
       id="path361039" />
    <path
       style="font-variation-settings:normal;display:inline;opacity:1;vector-effect:none;fill:#030500;fill-opacity:1;stroke:none;stroke-width:4.99999;stroke-linecap:butt;stroke-linejoin:miter;stroke-miterlimit:4;stroke-dasharray:none;stroke-dashoffset:0;stroke-opacity:1;-inkscape-stroke:none;stop-color:#000000;stop-opacity:1"
       d="m 353.80394,116.5461 3.94835,-19.843634 1.7634,0.508281 -3.93254,19.164173 z"
       id="path362336" />
    <circle
       style="display:inline;fill:#000000;fill-opacity:1;stroke:none;stroke-width:4.99999;stroke-linecap:round;stroke-linejoin:round;stroke-miterlimit:300;stroke-opacity:1;paint-order:fill markers stroke"
       id="path364191"
       cx="372.70068"
       cy="202.38165"
       r="1.7318369" />
    <path
       style="fill:#000000;fill-opacity:1;stroke:none;stroke-width:0.264583px;stroke-linecap:butt;stroke-linejoin:miter;stroke-opacity:1"
       d="m 363.88115,196.19101 61.44445,-24.51798 0.08,-2.82735 -63.03878,26.25549 z"
       id="path98840" />
    <path
       style="display:inline;fill:#000000;fill-opacity:1;stroke:none;stroke-width:0.264583px;stroke-linecap:butt;stroke-linejoin:miter;stroke-opacity:1"
       d="m 369.44324,214.41649 c -6.09374,-12.2446 -13.84871,-27.82726 -26.13791,-28.48857 -12.2892,-0.66131 -72.80939,22.12152 -72.76281,22.0926 0.0466,-0.0289 66.17913,-25.52192 76.09721,-26.42315 9.91808,-0.90124 14.90644,10.39676 18.50312,18.54279 0,0 4.30039,14.27633 4.30039,14.27633 z"
       id="path101545" />
    <path
       style="display:inline;fill:#ffffff;fill-opacity:1;stroke:none;stroke-width:0.264583px;stroke-linecap:butt;stroke-linejoin:miter;stroke-opacity:1"
       d="M 390.00929,170.32865 923.714,70.656319 390.02241,167.87978 Z"
       id="path114670" />
    <path
       style="fill:#ffffff;fill-opacity:1;stroke:none;stroke-width:0.264583px;stroke-linecap:butt;stroke-linejoin:miter;stroke-opacity:1"
       d="m 410.49417,145.82447 93.02161,-3.64292 4.9202,4.44705 4.46226,-0.33544 -5.85001,-5.01982 -99.88791,2.15824 z"
       id="path118927" />
    <path
       style="fill:#ffffff;fill-opacity:1;stroke:none;stroke-width:0.264583px;stroke-linecap:butt;stroke-linejoin:miter;stroke-opacity:1"
       d="m 499.86599,142.1747 5.4684,5.22201 -0.75364,0.0873 -5.51561,-5.28648 z"
       id="path119431" />
    <path
       style="display:inline;fill:#ffffff;fill-opacity:1;stroke:none;stroke-width:0.264583px;stroke-linecap:butt;stroke-linejoin:miter;stroke-opacity:1"
       d="m 502.04748,142.02443 5.4684,5.22201 -0.75364,0.0873 -5.51561,-5.28648 z"
       id="path119431-3" />
    <path
       style="display:inline;fill:#ffffff;fill-opacity:1;stroke:none;stroke-width:0.264583px;stroke-linecap:butt;stroke-linejoin:miter;stroke-opacity:1"
       d="m 497.46255,142.31506 5.4684,5.22201 -0.75364,0.0873 -5.51561,-5.28648 z"
       id="path119431-6" />
    <path
       style="display:inline;fill:#ffffff;fill-opacity:1;stroke:none;stroke-width:0.264583px;stroke-linecap:butt;stroke-linejoin:miter;stroke-opacity:1"
       d="m 402.54519,188.12242 87.73788,-31.11842 2.91986,-5.95475 4.2684,-1.34353 -3.57092,6.83153 -93.56376,35.0439 z"
       id="path118927-0" />
    <path
       style="display:inline;fill:#ffffff;fill-opacity:1;stroke:none;stroke-width:0.264583px;stroke-linecap:butt;stroke-linejoin:miter;stroke-opacity:1"
       d="m 486.89614,158.36406 3.14153,-6.87776 -0.73226,0.19845 -3.16146,6.95514 z"
       id="path119431-62" />
    <path
       style="display:inline;fill:#ffffff;fill-opacity:1;stroke:none;stroke-width:0.264583px;stroke-linecap:butt;stroke-linejoin:miter;stroke-opacity:1"
       d="m 488.97777,157.6945 3.14153,-6.87776 -0.73227,0.19845 -3.16145,6.95514 z"
       id="path119431-3-6" />
    <path
       style="display:inline;fill:#ffffff;fill-opacity:1;stroke:none;stroke-width:0.264583px;stroke-linecap:butt;stroke-linejoin:miter;stroke-opacity:1"
       d="m 484.6426,159.08687 3.40238,-7.24997 -0.77797,0.20172 -3.3766,7.32408 z"
       id="path119431-6-1" />
    <path
       style="fill:#ffffff;fill-opacity:1;stroke:none;stroke-width:0.264583px;stroke-linecap:butt;stroke-linejoin:miter;stroke-opacity:1"
       d="M 453.98857,143.33893 869.9432,-249.18037 455.86463,143.24797 Z"
       id="path132209" />
    <path
       style="fill:#ffffff;fill-opacity:1;stroke:none;stroke-width:0.264583px;stroke-linecap:butt;stroke-linejoin:miter;stroke-opacity:1"
       d="M 569.4152,136.375 823.25376,509.51735 570.74624,135.60497 Z"
       id="path132645" />
    <path
       style="fill:#ffffff;fill-opacity:1;stroke:none;stroke-width:0.264583px;stroke-linecap:butt;stroke-linejoin:miter;stroke-opacity:1"
       d="m 436.82429,177.31436 168.06797,10.3672 0.92903,1.60261 -170.22681,-11.00324 z"
       id="path132826" />
  </g>
  <g
     id="layer11"
     style="display:inline"
     ref="svg_group">
    <path
       style="font-variation-settings:normal;opacity:1;vector-effect:none;fill:#000000;fill-opacity:1;stroke:none;stroke-width:4.99999;stroke-linecap:butt;stroke-linejoin:miter;stroke-miterlimit:4;stroke-dasharray:none;stroke-dashoffset:0;stroke-opacity:1;-inkscape-stroke:none;stop-color:#000000;stop-opacity:1"
       d="M 133.51389,196.07622 C 124.43025,178.09676 91.41444,91.591559 90.389394,81.333258 c -1.025045,-10.258301 28.757786,-2.923403 33.696626,6.852665 4.93884,9.776068 28.17895,111.097377 28.86065,117.917907 0.6817,6.82052 -10.34914,7.95186 -19.43278,-10.02761 z"
       id="path205360" />
    <path
       style="font-variation-settings:normal;opacity:1;vector-effect:none;fill:#000000;fill-opacity:1;stroke:none;stroke-width:5.13078;stroke-linecap:butt;stroke-linejoin:miter;stroke-miterlimit:4;stroke-dasharray:none;stroke-dashoffset:0;stroke-opacity:1;-inkscape-stroke:none;stop-color:#000000;stop-opacity:1"
       d="m 304.69457,178.90874 c -7.4367,1.67378 12.11517,-18.59053 11.50857,-25.66444 -0.60659,-7.0739 -22.49991,-19.30159 -14.55076,-21.09079 7.94915,-1.7892 80.29316,-0.30641 80.85093,6.19742 0.55778,6.50384 -70.37205,38.88402 -77.80874,40.55781 z"
       id="path208158" />
    <path
       style="font-variation-settings:normal;opacity:1;vector-effect:none;fill:#000000;fill-opacity:1;stroke:none;stroke-width:4.99999;stroke-linecap:butt;stroke-linejoin:miter;stroke-miterlimit:4;stroke-dasharray:none;stroke-dashoffset:0;stroke-opacity:1;-inkscape-stroke:none;stop-color:#000000;stop-opacity:1"
       d="m 285.69913,67.857654 c 7.70697,-4.330364 113.36271,-26.307583 123.43688,-23.944371 10.07417,2.363213 -9.77902,46.54683 -15.53209,49.779227 -5.75308,3.232398 -76.73489,10.51299 -87.39585,8.01241 -10.66096,-2.500575 -28.2159,-29.516902 -20.50894,-33.847266 z"
       id="path206059" />
  </g>
  <g
     id="layer10"
     style="display:inline"
     ref="svg_group">
    <path
       style="font-variation-settings:normal;opacity:1;vector-effect:none;fill:#ffffff;fill-opacity:1;stroke:none;stroke-width:4.99999;stroke-linecap:butt;stroke-linejoin:miter;stroke-miterlimit:4;stroke-dasharray:none;stroke-dashoffset:0;stroke-opacity:1;-inkscape-stroke:none;stop-color:#000000;stop-opacity:1"
       d="m 228.50376,253.91788 c 0.60061,-6.81474 1.08388,-12.29815 9.08504,-30.95616 8.00116,-18.65802 24.84386,-50.80198 31.25429,-57.7044 6.41044,-6.90241 31.3978,-14.1417 25.43235,-22.89498 -5.96545,-8.75329 -48.06729,-38.79517 -79.56563,-61.270897 0,0 13.24034,-0.149335 13.24034,-0.149335 34.48579,23.396642 86.53301,58.707712 86.57814,72.856222 0.0451,14.14851 -51.72328,65.8576 -86.02453,100.11955 z"
       id="path203804" />
    <path
       style="font-variation-settings:normal;display:inline;vector-effect:none;fill:#000000;fill-opacity:1;stroke:none;stroke-width:4.99999;stroke-linecap:butt;stroke-linejoin:miter;stroke-miterlimit:4;stroke-dasharray:none;stroke-dashoffset:0;stroke-opacity:1;-inkscape-stroke:none;stop-color:#000000"
       d="m 299.61931,237.42301 c -27.64915,9.14737 -59.83334,19.79509 -67.16468,15.71965 -7.33134,-4.07545 2.52734,-22.50384 11.8609,-41.37604 9.33357,-18.8722 13.86948,-29.29605 19.46143,-42.14675 -4.7474,8.81725 -8.86728,16.46903 -18.8431,34.62782 -9.97582,18.1588 -25.05099,45.39415 -25.71497,52.77577 -0.66398,7.38162 9.51703,5.45516 29.84502,-1.05938 20.32799,-6.51455 31.95466,-11.14043 50.5554,-18.54107 z"
       id="path1831" />
    <path
       style="fill:#030500;fill-opacity:1;stroke:none;stroke-width:0.264583px;stroke-linecap:butt;stroke-linejoin:miter;stroke-opacity:1"
       d="m 238.23022,98.029053 c 0.11761,-0.0017 54.38253,37.850757 58.37156,44.113897 3.98903,6.26315 -9.83152,14.76298 -19.39355,20.64376 8.24985,-5.86173 20.18111,-14.33918 16.19844,-20.59235 -3.98266,-6.25317 -55.29405,-44.163594 -55.17645,-44.165307 z"
       id="path24127" />
    <path
       style="display:inline;fill:#030500;fill-opacity:1;stroke:none;stroke-width:0.315947px;stroke-linecap:butt;stroke-linejoin:miter;stroke-opacity:1"
       d="m 234.2146,85.378476 c 0.21855,0.02098 81.66774,57.505754 85.80984,68.315694 4.1421,10.80995 -26.21908,30.48498 -47.22513,44.09758 18.5676,-13.84677 45.42073,-33.87247 41.28522,-44.66521 -4.1355,-10.79275 -80.08847,-67.769045 -79.86993,-67.748064 z"
       id="path24127-3" />
  </g>
</svg>
