<?xml version="1.0" encoding="UTF-8" standalone="no"?>
<!-- Created with Inkscape (http://www.inkscape.org/) -->

<svg
   width="1980"
   height="1300"
   viewBox="0 0 523.87499 343.95835"
   version="1.1"
   id="svg5"
   xmlns="http://www.w3.org/2000/svg"
   xmlns:svg="http://www.w3.org/2000/svg">
  <defs
     id="defs2" />
  <g
     id="layer14"
     style="display:none"
     ref="svg_group">
    <rect
       style="fill:#1a1b26;fill-opacity:1;stroke-width:4.99999;stroke-linecap:round;stroke-linejoin:round;stroke-miterlimit:300;paint-order:fill markers stroke"
       id="rect214210"
       width="529.86664"
       height="343.89014"
       x="-1.5261097"
       y="-0.29983172" />
  </g>
  <g
     id="layer3"
     ref="svg_group">
    <path
       style="font-variation-settings:normal;isolation:isolate;vector-effect:none;fill:#ffffff;fill-opacity:1;stroke:none;stroke-width:15.2751;stroke-linecap:butt;stroke-linejoin:miter;stroke-miterlimit:4;stroke-dasharray:none;stroke-dashoffset:0;stroke-opacity:1;-inkscape-stroke:none;stop-color:#000000"
       d="m 164.78874,99.925665 c -2.36746,-0.33664 -4.54347,-0.646056 -10.63167,-2.722232 -6.0882,-2.076175 -17.19527,-6.451434 -18.26603,-10.565697 -1.07076,-4.114264 11.40342,-23.335445 11.69329,-23.923111 0.28987,-0.587666 -3.135,0.358875 -3.9657,0.2226 -0.8307,-0.136275 -2.62706,-1.90353 -1.92419,-2.517545 0.70287,-0.614015 22.52311,-15.527253 23.41856,-15.982206 0.89545,-0.454952 7.13222,0.229981 7.32023,0.889357 0.18801,0.659376 -0.4515,18.381723 -0.76816,19.607017 -0.31665,1.225294 -3.94226,2.135374 -4.69142,1.956172 -0.74915,-0.179202 -3.36702,-2.630639 -4.94724,-1.699451 -1.58022,0.931189 -20.90395,15.555898 -19.84875,21.25196 1.0552,5.696062 14.84138,9.905041 27.84922,13.876391 0,0 -5.23814,-0.393255 -5.23814,-0.393255 z"
       id="path6826" />
    <path
       style="font-variation-settings:normal;isolation:isolate;vector-effect:none;fill:#ffffff;fill-opacity:1;stroke:none;stroke-width:24.2263;stroke-linecap:butt;stroke-linejoin:miter;stroke-miterlimit:4;stroke-dasharray:none;stroke-dashoffset:0;stroke-opacity:1;-inkscape-stroke:none;stop-color:#000000"
       d="m 200.32665,226.5604 c -3.75478,0.53391 -7.20592,1.02465 -16.86178,4.31745 -9.65585,3.29281 -27.27162,10.23195 -28.96985,16.75716 -1.69823,6.5252 18.08576,37.0099 18.54551,37.94194 0.45974,0.93204 -4.9721,-0.56917 -6.28959,-0.35304 -1.31748,0.21614 -4.1665,3.01899 -3.05175,3.99282 1.11475,0.97382 35.72156,24.62615 37.14173,25.3477 1.42018,0.72156 11.31167,-0.36474 11.60986,-1.41051 0.29818,-1.04577 -0.71608,-29.15333 -1.21829,-31.09664 -0.50221,-1.94331 -6.25244,-3.3867 -7.44058,-3.10249 -1.18815,0.28422 -5.34009,4.17218 -7.84631,2.69533 -2.50622,-1.47686 -33.15357,-24.67158 -31.48002,-33.70551 1.67355,-9.03393 23.53835,-15.70935 44.16873,-22.00789 0,0 -8.30766,0.62368 -8.30766,0.62368 z"
       id="path6826-7" />
    <circle
       style="fill:#ffffff;fill-opacity:1;stroke-width:4.99999;stroke-linecap:round;stroke-linejoin:round;stroke-miterlimit:300;paint-order:fill markers stroke"
       id="path9003"
       cx="133.27689"
       cy="74.737267"
       r="9.3756361" />
    <circle
       style="fill:#ffffff;fill-opacity:1;stroke-width:8.1809;stroke-linecap:round;stroke-linejoin:round;stroke-miterlimit:300;paint-order:fill markers stroke"
       id="path9003-3"
       cx="406.3562"
       cy="214.27861"
       r="15.340266" />
    <circle
       style="fill:#ffffff;fill-opacity:1;stroke-width:3.47017;stroke-linecap:round;stroke-linejoin:round;stroke-miterlimit:300;paint-order:fill markers stroke"
       id="path9003-3-5"
       cx="388.52628"
       cy="230.36845"
       r="6.5070219" />
    <circle
       style="fill:#ffffff;fill-opacity:1;stroke-width:1.71577;stroke-linecap:round;stroke-linejoin:round;stroke-miterlimit:300;paint-order:fill markers stroke"
       id="path9003-3-5-6"
       cx="392.48813"
       cy="243.50882"
       r="3.2172954" />
    <circle
       style="fill:#ffffff;fill-opacity:1;stroke-width:3.23885;stroke-linecap:round;stroke-linejoin:round;stroke-miterlimit:300;paint-order:fill markers stroke"
       id="path9003-5"
       cx="131.64717"
       cy="57.972797"
       r="6.073276" />
  </g>
  <g
     id="layer2"
     ref="svg_group">
    <path
       style="font-variation-settings:normal;opacity:1;vector-effect:none;fill:#ffffff;fill-opacity:1;stroke:none;stroke-width:4.99999;stroke-linecap:butt;stroke-linejoin:miter;stroke-miterlimit:4;stroke-dasharray:none;stroke-dashoffset:0;stroke-opacity:1;-inkscape-stroke:none;stop-color:#000000;stop-opacity:1"
       d="m 127.5075,84.818986 c -2.32203,-1.457116 -9.77944,-8.569157 -20.98765,-12.190421 -11.208216,-3.621264 -23.559036,-2.00165 -22.850938,2.736615 0.708097,4.738265 27.262418,79.73939 38.656588,106.35863 11.39418,26.61923 14.84588,27.94396 18.85102,29.4811 3.10176,7.76934 4.99094,12.50138 10.37762,17.77839 5.38668,5.27701 8.21432,5.16642 12.85765,4.98482 -1.36509,7.36561 -2.75782,14.88037 -0.90491,19.49898 1.8529,4.61862 9.76427,7.78861 12.20559,9.26043 2.44132,1.47181 8.53745,6.426 17.61281,9.38196 9.07537,2.95595 18.86288,3.55756 25.73808,6.06433 6.87521,2.50677 26.61109,14.14686 31.01514,13.68495 4.40404,-0.4619 3.63036,-11.02679 3.00936,-19.50673 54.8054,-20.19349 138.92689,-51.18872 152.67274,-57.64694 13.74586,-6.45821 20.35451,-18.09093 24.66004,-25.66963 1.81852,-0.56613 4.37795,-1.36292 4.03992,-5.89441 -0.33803,-4.5315 -3.96309,-22.57242 -9.36848,-34.81897 -5.40539,-12.24654 -12.74261,-19.35329 -18.7044,-21.45535 -5.96179,-2.10205 -30.0527,-3.36476 -32.37547,-4.13785 -2.32277,-0.77308 4.26058,-6.8725 4.98346,-7.24788 0.72287,-0.37537 8.89704,-2.47554 12.33858,-6.8265 3.44155,-4.35096 8.19874,-17.450726 10.34212,-22.395882 2.14338,-4.945156 13.11721,-27.973318 15.66605,-35.026834 2.54883,-7.053515 2.44844,-14.049914 -8.50339,-12.974664 -10.95184,1.07525 -97.44224,17.263691 -112.41956,20.744542 -14.97733,3.48085 -15.91996,6.52266 -16.61417,8.762822 -7.1078,2.516143 -14.28631,5.057319 -18.75848,7.223626 -4.47216,2.166307 -6.41782,4.044908 -8.34427,5.90496 0,0 -35.55154,-10.051521 -35.55154,-10.051521 -2.33514,-3.041442 -3.88629,-5.061769 -9.02854,-5.987646 -5.14226,-0.925877 -8.70666,0.173883 -14.07156,1.829165 -8.02865,-2.38454 -15.9083,-4.724829 -20.50196,-2.861869 -4.59366,1.86296 -5.56656,7.793447 -6.55785,13.836047 -0.94498,14.970671 -2.22652,35.273304 -4.99473,36.374094 -2.76821,1.10078 -14.19393,-16.142433 -19.40282,-21.404037 -5.20889,-5.261604 -12.76402,-6.35121 -15.08605,-7.808327 z"
       id="path1297" />
  </g>
  <g
     id="layer16"
     style="display:inline"
     ref="svg_group">
    <path
       style="font-variation-settings:normal;opacity:1;vector-effect:none;fill:#000000;fill-opacity:1;stroke:none;stroke-width:4.99999;stroke-linecap:butt;stroke-linejoin:miter;stroke-miterlimit:4;stroke-dasharray:none;stroke-dashoffset:0;stroke-opacity:1;-inkscape-stroke:none;stop-color:#000000;stop-opacity:1"
       d="m 168.36061,254.84416 c 7.7357,5.44365 16.69346,11.74728 23.979,14.65847 7.28555,2.91119 26.12602,5.80761 26.71589,5.47797 0.58987,-0.32964 -5.42812,-9.31743 -8.75085,-14.27988 0,0 -41.94404,-5.85656 -41.94404,-5.85656 z"
       id="path292964" />
    <path
       style="font-variation-settings:normal;opacity:1;vector-effect:none;fill:#000000;fill-opacity:1;stroke:none;stroke-width:4.99999;stroke-linecap:butt;stroke-linejoin:miter;stroke-miterlimit:4;stroke-dasharray:none;stroke-dashoffset:0;stroke-opacity:1;-inkscape-stroke:none;stop-color:#000000;stop-opacity:1"
       d="m 210.30465,260.70072 c 2.89295,4.72246 8.48065,13.84385 8.90885,14.17857 0.42819,0.33471 21.56081,11.44081 25.32602,10.76461 3.76521,-0.6762 4.70604,-9.44559 5.4461,-16.34356 0,0 -2.43368,-14.13638 -2.43368,-14.13638 0,0 -10.60035,8.9516 -10.60035,8.9516 0,0 -26.64694,-3.41484 -26.64694,-3.41484 z"
       id="path293910" />
    <path
       style="font-variation-settings:normal;opacity:1;vector-effect:none;fill:#000000;fill-opacity:1;stroke:none;stroke-width:4.99999;stroke-linecap:butt;stroke-linejoin:miter;stroke-miterlimit:4;stroke-dasharray:none;stroke-dashoffset:0;stroke-opacity:1;-inkscape-stroke:none;stop-color:#000000;stop-opacity:1"
       d="m 247.55194,255.16396 c 0,0 180.44006,-68.59991 180.44006,-68.59991 -3.55618,8.74732 -7.82799,19.25494 -31.5258,30.26949 -23.69781,11.01456 -90.7013,33.63536 -146.48058,52.4668 0,0 -2.43368,-14.13638 -2.43368,-14.13638 z"
       id="path298379" />
  </g>
  <g
     id="layer15"
     style="display:inline"
     ref="svg_group">
    <path
       style="font-variation-settings:normal;display:inline;vector-effect:none;fill:#000000;fill-opacity:1;stroke:none;stroke-width:4.99999;stroke-linecap:butt;stroke-linejoin:miter;stroke-miterlimit:4;stroke-dasharray:none;stroke-dashoffset:0;stroke-opacity:1;-inkscape-stroke:none;stop-color:#000000"
       d="m 263.32785,76.861061 c 12.49814,-5.73393 132.01755,-31.571357 139.57445,-29.293215 7.5569,2.278142 -4.5461,56.264894 -17.82002,63.900574 -13.27392,7.63568 -74.67811,10.04579 -71.41266,11.37765 3.26545,1.33187 80.33685,3.17578 92.87075,7.86817 12.53391,4.69238 30.2816,50.13721 21.18697,56.6787 -9.09464,6.54149 -180.69053,73.83343 -195.69795,71.24682 -15.00742,-2.58661 27.97385,-85.34234 40.9341,-94.91929 12.96026,-9.57695 100.93778,-22.46097 97.67693,-24.9236 -3.26084,-2.46263 -124.28911,-11.35449 -131.94772,-14.78212 -7.65861,-3.42763 12.13701,-41.419758 24.63515,-47.153689 z"
       id="path148310-7" />
    <path
       style="font-variation-settings:normal;display:inline;vector-effect:none;fill:#000000;fill-opacity:1;stroke:none;stroke-width:4.99999;stroke-linecap:butt;stroke-linejoin:miter;stroke-miterlimit:4;stroke-dasharray:none;stroke-dashoffset:0;stroke-opacity:1;-inkscape-stroke:none;stop-color:#000000"
       d="M 146.82962,221.13876 C 141.93074,211.54023 96.635428,91.53129 96.233537,83.5736 c -0.401891,-7.957689 38.191953,5.370656 43.758443,9.511324 5.56648,4.140668 21.50693,29.514576 24.105,26.209106 2.59807,-3.30546 3.21975,-51.281298 15.40388,-52.315312 12.18413,-1.034014 170.829,43.050632 176.998,45.632452 6.16901,2.58181 -6.49457,16.17345 -11.92229,19.87381 -5.42772,3.70035 -21.07386,9.89988 -28.46503,19.53349 -7.39117,9.63362 -69.84616,108.48892 -76.23936,114.60505 -6.39321,6.11613 -36.59088,-5.58277 -38.27264,-12.33325 -1.68176,-6.75049 3.85957,-88.83641 3.58542,-93.78193 -0.27415,-4.94552 -8.21529,23.68259 -11.72988,26.2189 -3.51459,2.5363 -26.16652,-1.7516 -30.77976,-4.18019 -4.61325,-2.42859 -8.76688,-11.02357 -7.24579,-4.64298 1.5211,6.3806 13.00735,44.98261 12.76159,50.24301 -0.24576,5.2604 -16.46261,2.59021 -21.3615,-7.00832 z"
       id="path146269-5" />
    <path
       style="font-variation-settings:normal;vector-effect:none;fill:#000000;fill-opacity:1;stroke:none;stroke-width:4.99999;stroke-linecap:butt;stroke-linejoin:miter;stroke-miterlimit:4;stroke-dasharray:none;stroke-dashoffset:0;stroke-opacity:1;-inkscape-stroke:none;stop-color:#000000"
       d="m 284.86076,66.689541 c 7.96271,-4.489879 117.4217,-27.467261 127.59907,-25.00891 10.17738,2.458351 -12.72101,48.541314 -18.665,51.892795 -5.94399,3.351482 -76.9258,10.632074 -87.69598,8.030814 -10.77018,-2.601263 -29.2008,-30.424821 -21.23809,-34.914699 z"
       id="path206059-3" />
    <path
       style="font-variation-settings:normal;vector-effect:none;fill:#000000;fill-opacity:1;stroke:none;stroke-width:4.99999;stroke-linecap:butt;stroke-linejoin:miter;stroke-miterlimit:4;stroke-dasharray:none;stroke-dashoffset:0;stroke-opacity:1;-inkscape-stroke:none;stop-color:#000000"
       d="M 133.466,197.59412 C 123.97623,179.19476 88.744435,89.150002 87.826268,78.563762 86.9081,67.977522 120.33022,76.469615 125.48989,86.473989 c 5.15967,10.004374 26.96566,112.635281 27.57627,119.673841 0.61061,7.03856 -10.11038,9.84564 -19.60016,-8.55371 z"
       id="path205360-5" />
    <path
       style="font-variation-settings:normal;vector-effect:none;fill:#000000;fill-opacity:1;stroke:none;stroke-width:4.99999;stroke-linecap:butt;stroke-linejoin:miter;stroke-miterlimit:4;stroke-dasharray:none;stroke-dashoffset:0;stroke-opacity:1;-inkscape-stroke:none;stop-color:#000000"
       d="m 228.50376,253.91788 c 0.60061,-6.81474 1.08388,-12.29815 9.08504,-30.95616 8.00116,-18.65802 24.84386,-50.80198 31.25429,-57.7044 6.41044,-6.90241 31.3978,-14.1417 24.18355,-23.73924 -7.21425,-9.59754 -77.99451,-59.819592 -84.59496,-64.083353 -6.60045,-4.263762 -14.63231,-5.706447 -19.44001,-6.570007 5.67813,-1.081135 15.85312,-3.018486 20.79207,-0.23474 4.93895,2.783745 101.11285,66.84068 102.95127,82.07877 1.83842,15.23809 -49.93,66.94718 -84.23125,101.20913 z"
       id="path203804-6" />
    <path
       style="font-variation-settings:normal;vector-effect:none;fill:#000000;fill-opacity:1;stroke:none;stroke-width:4.99999;stroke-linecap:butt;stroke-linejoin:miter;stroke-miterlimit:4;stroke-dasharray:none;stroke-dashoffset:0;stroke-opacity:1;-inkscape-stroke:none;stop-color:#000000"
       d="m 290.34075,157.08471 c -37.83582,6.90819 -88.48436,16.15577 -102.82658,26.32296 -14.34222,10.16718 -22.86973,46.88634 -22.34298,60.38379 0.52675,13.49744 4.24874,18.91484 35.74217,18.06195 31.49344,-0.85289 72.90683,-15.50142 73.09442,-15.7106 0.18758,-0.20918 10.93268,-59.34003 16.33297,-89.0581 z"
       id="path199123-2" />
  </g>
  <g
     id="layer9"
     style="display:inline"
     ref="svg_group">
    <path
       style="font-variation-settings:normal;opacity:1;vector-effect:none;fill:#789d50;fill-opacity:1;stroke:none;stroke-width:4.99999;stroke-linecap:butt;stroke-linejoin:miter;stroke-miterlimit:4;stroke-dasharray:none;stroke-dashoffset:0;stroke-opacity:1;-inkscape-stroke:none;stop-color:#000000;stop-opacity:1"
       d="m 290.34075,157.08471 c -36.08231,7.50224 -84.38353,17.54504 -98.46878,27.62087 -14.08525,10.07582 -24.1168,45.45441 -23.12455,58.41622 0.99225,12.96182 5.87753,18.12315 36.72642,17.49939 30.84889,-0.62375 68.37636,-14.27688 68.54894,-14.48222 0.17258,-0.20534 10.91768,-59.33619 16.31797,-89.05426 z"
       id="path199123" />
  </g>
  <g
     id="layer18"
     style="display:inline"
     ref="svg_group">
    <path
       style="font-variation-settings:normal;opacity:1;vector-effect:none;fill:#000000;fill-opacity:1;stroke:none;stroke-width:4.99999;stroke-linecap:butt;stroke-linejoin:miter;stroke-miterlimit:4;stroke-dasharray:none;stroke-dashoffset:0;stroke-opacity:1;-inkscape-stroke:none;stop-color:#000000;stop-opacity:1"
       d="m 151.41631,224.7989 c 0.88865,0.5843 1.99477,1.3116 5.25614,2.72164 3.26138,1.41005 17.02817,7.00655 17.52621,3.21883 0.49805,-3.78772 -8.102,-33.51229 -13.71037,-52.89664 0,0 -10.85699,-15.69448 -10.85699,-15.69448 0,0 15.53554,64.60706 15.53554,64.60706 0,0 -13.75053,-1.95641 -13.75053,-1.95641 z"
       id="path340812" />
    <path
       style="font-variation-settings:normal;opacity:1;vector-effect:none;fill:#000000;fill-opacity:1;stroke:none;stroke-width:4.99999;stroke-linecap:butt;stroke-linejoin:miter;stroke-miterlimit:4;stroke-dasharray:none;stroke-dashoffset:0;stroke-opacity:1;-inkscape-stroke:none;stop-color:#000000;stop-opacity:1"
       d="m 156.07592,172.63114 c 3.26353,4.51707 7.91383,10.95359 11.75526,13.07071 3.84143,2.11712 24.52832,7.94833 27.086,7.10726 2.55768,-0.84106 8.89283,-14.00011 10.63465,-21.79656 1.74181,-7.79646 2.54157,-21.29242 3.22381,-32.80536 -5.94165,15.24063 -11.67439,29.94539 -20.76639,35.88448 -9.09201,5.93908 -20.30841,2.30545 -31.93333,-1.46053 z"
       id="path343334" />
  </g>
  <g
     id="layer1"
     style="display:inline"
     ref="svg_group">
    <path
       style="font-variation-settings:normal;vector-effect:none;fill:#9ece6a;fill-opacity:1;stroke:none;stroke-width:4.99999;stroke-linecap:butt;stroke-linejoin:miter;stroke-miterlimit:4;stroke-dasharray:none;stroke-dashoffset:0;stroke-opacity:1;-inkscape-stroke:none;stop-color:#000000"
       d="M 147.70851,220.21324 C 142.94882,210.96599 96.434093,93.513249 95.94084,85.747061 c -0.493252,-7.766188 38.1006,5.56216 43.69498,9.531089 5.59437,3.968928 21.78463,27.80457 24.66061,24.58273 2.87598,-3.22183 5.06828,-49.057459 17.01407,-50.09147 11.94579,-1.03401 165.58661,40.48062 171.67462,42.95211 6.08802,2.4715 -3.9353,16.06314 -8.88578,19.76348 -4.95049,3.70033 -20.59663,9.89986 -28.03246,19.31721 -7.43583,9.41735 -70.38445,105.88237 -76.77765,111.99848 -6.3932,6.11612 -36.0786,-3.10216 -37.60265,-10.3082 -1.52406,-7.20605 3.86896,-74.87876 7.08906,-115.2853 -5.14262,16.58957 -13.11065,42.29362 -16.72261,45.54795 -3.61195,3.25434 -24.41971,-0.84392 -29.07319,-3.59302 -4.65347,-2.74911 -9.66634,-11.54952 -13.34854,-18.01387 6.47053,22.79283 16.1612,56.92883 16.21024,62.55226 0.049,5.62344 -13.37334,4.75999 -18.13303,-4.48727 z"
       id="path146269" />
    <path
       style="font-variation-settings:normal;display:inline;opacity:1;vector-effect:none;fill:#030500;fill-opacity:1;stroke:none;stroke-width:4.99999;stroke-linecap:butt;stroke-linejoin:miter;stroke-miterlimit:4;stroke-dasharray:none;stroke-dashoffset:0;stroke-opacity:1;-inkscape-stroke:none;stop-color:#000000;stop-opacity:1"
       d="m 155.64298,181.35692 -9.55335,0.75084 0.43417,1.99565 9.6961,-0.726 z"
       id="path361986" />
    <path
       style="font-variation-settings:normal;display:inline;opacity:1;vector-effect:none;fill:#030500;fill-opacity:1;stroke:none;stroke-width:4.99999;stroke-linecap:butt;stroke-linejoin:miter;stroke-miterlimit:4;stroke-dasharray:none;stroke-dashoffset:0;stroke-opacity:1;-inkscape-stroke:none;stop-color:#000000;stop-opacity:1"
       d="m 232.14133,265.85388 c -4.4916,-0.40855 -7.98051,-0.7259 -14.47006,-2.87189 -6.48956,-2.14598 -14.65209,-6.28156 -15.66112,-11.36951 -1.00904,-5.08795 1.42669,-36.03042 2.991,-55.90284 0,0 3.77449,-57.50245 3.77449,-57.50245 0,0 -2.45858,8.74909 -2.45858,8.74909 0,0 -3.73532,50.34241 -3.73532,50.34241 -1.40621,20.16377 -3.50531,50.26277 -1.97687,56.18308 1.52844,5.9203 12.62124,10.66338 20.05274,13.84095 0,0 11.48372,-1.46884 11.48372,-1.46884 z"
       id="path1181" />
  </g>
  <g
     id="layer17"
     style="display:inline"
     ref="svg_group">
    <path
       style="font-variation-settings:normal;opacity:1;vector-effect:none;fill:#000000;fill-opacity:1;stroke:none;stroke-width:4.99999;stroke-linecap:butt;stroke-linejoin:miter;stroke-miterlimit:4;stroke-dasharray:none;stroke-dashoffset:0;stroke-opacity:1;-inkscape-stroke:none;stop-color:#000000;stop-opacity:1"
       d="m 237.74465,122.46778 c 0,0 145.20109,14.23358 145.20109,14.23358 -13.51292,2.31921 -34.27507,5.88259 -44.84004,5.69146 -10.56497,-0.19112 -69.25396,-5.94418 -81.58047,-8.43981 -12.32652,-2.49564 -15.96643,-7.56552 -18.78058,-11.48523 z"
       id="path310708" />
    <path
       style="font-variation-settings:normal;opacity:1;vector-effect:none;fill:#000000;fill-opacity:1;stroke:none;stroke-width:4.99999;stroke-linecap:butt;stroke-linejoin:miter;stroke-miterlimit:4;stroke-dasharray:none;stroke-dashoffset:0;stroke-opacity:1;-inkscape-stroke:none;stop-color:#000000;stop-opacity:1"
       d="m 306.18814,123.40918 c 0,0 80.06469,-18.94183 80.06469,-18.94183 -4.24939,5.77438 -10.91062,14.82614 -16.68094,16.1913 -5.77032,1.36516 -40.94491,2.21097 -63.38375,2.75053 z"
       id="path332835" />
  </g>
  <g
     id="layer5"
     style="display:inline"
     ref="svg_group">
    <path
       style="font-variation-settings:normal;display:inline;vector-effect:none;fill:#789d50;fill-opacity:1;stroke:none;stroke-width:4.99999;stroke-linecap:butt;stroke-linejoin:miter;stroke-miterlimit:4;stroke-dasharray:none;stroke-dashoffset:0;stroke-opacity:1;-inkscape-stroke:none;stop-color:#000000"
       d="m 265.51009,78.481353 c 12.49814,-5.733921 130.10645,-32.990327 137.2806,-30.952657 7.17416,2.03767 -8.17487,54.188514 -21.44879,61.824194 -13.27392,7.63569 -72.40625,11.33074 -68.88778,13.53677 3.51847,2.20603 78.98503,5.5802 91.12804,10.23493 12.14301,4.65473 28.18978,47.51522 19.22604,53.9319 -8.96374,6.41667 -176.69602,74.0808 -191.11121,71.44515 -14.4152,-2.63565 29.57664,-86.11928 43.16068,-95.85154 13.58405,-9.73226 106.87774,-23.45303 103.4982,-25.83017 -3.37955,-2.37713 -131.01188,-9.62471 -139.02843,-12.82601 -8.01656,-3.2013 13.68452,-39.778646 26.18265,-45.512567 z"
       id="path148310" />
    <path
       style="font-variation-settings:normal;display:inline;opacity:1;vector-effect:none;fill:#030500;fill-opacity:1;stroke:none;stroke-width:4.99999;stroke-linecap:butt;stroke-linejoin:miter;stroke-miterlimit:4;stroke-dasharray:none;stroke-dashoffset:0;stroke-opacity:1;-inkscape-stroke:none;stop-color:#000000;stop-opacity:1"
       d="m 367.5364,211.90691 c -0.43122,-3.10276 -19.80742,-56.59745 -19.80742,-56.59745 l 2.15737,-0.59082 19.93586,56.0062 z"
       id="path361039" />
    <path
       style="font-variation-settings:normal;display:inline;opacity:1;vector-effect:none;fill:#030500;fill-opacity:1;stroke:none;stroke-width:4.99999;stroke-linecap:butt;stroke-linejoin:miter;stroke-miterlimit:4;stroke-dasharray:none;stroke-dashoffset:0;stroke-opacity:1;-inkscape-stroke:none;stop-color:#000000;stop-opacity:1"
       d="m 353.80394,116.5461 3.94835,-19.843634 1.7634,0.508281 -3.93254,19.164173 z"
       id="path362336" />
    <circle
       style="display:inline;fill:#000000;fill-opacity:1;stroke:none;stroke-width:4.99999;stroke-linecap:round;stroke-linejoin:round;stroke-miterlimit:300;stroke-opacity:1;paint-order:fill markers stroke"
       id="path364191"
       cx="372.70068"
       cy="202.38165"
       r="1.7318369" />
  </g>
  <g
     id="layer10"
     style="display:inline"
     ref="svg_group">
    <path
       style="font-variation-settings:normal;opacity:1;vector-effect:none;fill:#678348;fill-opacity:1;stroke:none;stroke-width:4.99999;stroke-linecap:butt;stroke-linejoin:miter;stroke-miterlimit:4;stroke-dasharray:none;stroke-dashoffset:0;stroke-opacity:1;-inkscape-stroke:none;stop-color:#000000;stop-opacity:1"
       d="m 228.50376,253.91788 c 0.60061,-6.81474 1.08388,-12.29815 9.08504,-30.95616 8.00116,-18.65802 24.84386,-50.80198 31.25429,-57.7044 6.41044,-6.90241 31.3978,-14.1417 24.18355,-23.73924 -7.21425,-9.59754 -77.99451,-59.819592 -84.59496,-64.083353 -6.60045,-4.263762 -14.63231,-5.706447 -19.44001,-6.570007 5.67687,-0.423358 15.84964,-1.182002 20.78855,1.601718 4.9389,2.78372 101.11575,65.327032 102.95448,80.403722 1.83873,15.07668 -49.92969,66.78577 -84.23094,101.04772 z"
       id="path203804" />
    <path
       style="font-variation-settings:normal;display:inline;vector-effect:none;fill:#030500;fill-opacity:1;stroke:none;stroke-width:4.99999;stroke-linecap:butt;stroke-linejoin:miter;stroke-miterlimit:4;stroke-dasharray:none;stroke-dashoffset:0;stroke-opacity:1;-inkscape-stroke:none;stop-color:#000000"
       d="m 230.37793,258.19295 c 0.22865,-0.0177 -1.88291,-6.56731 0.42861,-14.21422 2.31152,-7.64691 8.82894,-21.9992 16.50032,-37.99074 7.67138,-15.99154 12.71838,-25.87497 18.94041,-38.05946 -5.05912,8.58633 -9.44952,16.0377 -17.53335,31.32727 -8.08382,15.28957 -18.17213,35.44516 -20.76137,43.91471 -2.58924,8.46955 2.19673,15.04015 2.42538,15.02244 z"
       id="path1831" />
  </g>
  <g
     id="layer11"
     style="display:inline"
     ref="svg_group">
    <path
       style="font-variation-settings:normal;opacity:1;vector-effect:none;fill:#000000;fill-opacity:1;stroke:none;stroke-width:4.99999;stroke-linecap:butt;stroke-linejoin:miter;stroke-miterlimit:4;stroke-dasharray:none;stroke-dashoffset:0;stroke-opacity:1;-inkscape-stroke:none;stop-color:#000000;stop-opacity:1"
       d="M 133.51389,196.07622 C 124.43025,178.09676 91.41444,91.591559 90.389394,81.333258 c -1.025045,-10.258301 28.757786,-2.923403 33.696626,6.852665 4.93884,9.776068 28.17895,111.097377 28.86065,117.917907 0.6817,6.82052 -10.34914,7.95186 -19.43278,-10.02761 z"
       id="path205360" />
    <path
       style="font-variation-settings:normal;opacity:1;vector-effect:none;fill:#000000;fill-opacity:1;stroke:none;stroke-width:4.99999;stroke-linecap:butt;stroke-linejoin:miter;stroke-miterlimit:4;stroke-dasharray:none;stroke-dashoffset:0;stroke-opacity:1;-inkscape-stroke:none;stop-color:#000000;stop-opacity:1"
       d="m 285.69913,67.857654 c 7.70697,-4.330364 113.36271,-26.307583 123.43688,-23.944371 10.07417,2.363213 -9.77902,46.54683 -15.53209,49.779227 -5.75308,3.232398 -76.73489,10.51299 -87.39585,8.01241 -10.66096,-2.500575 -28.2159,-29.516902 -20.50894,-33.847266 z"
       id="path206059" />
    <path
       style="font-variation-settings:normal;opacity:1;vector-effect:none;fill:#000000;fill-opacity:1;stroke:none;stroke-width:5.13078;stroke-linecap:butt;stroke-linejoin:miter;stroke-miterlimit:4;stroke-dasharray:none;stroke-dashoffset:0;stroke-opacity:1;-inkscape-stroke:none;stop-color:#000000;stop-opacity:1"
       d="m 304.69457,178.90874 c -7.4367,1.67378 12.11517,-18.59053 12.20737,-25.17878 0.0922,-6.58826 -18.6333,-16.61437 -10.68416,-18.40357 7.94914,-1.7892 77.01271,-2.58628 76.92801,3.47105 -0.0847,6.05733 -71.01453,38.43751 -78.45122,40.1113 z"
       id="path208158" />
  </g>
  <g
     id="layer13"
     style="display:inline"
     ref="svg_group" />
  <g
     id="layer19"
     style="display:inline"
     ref="svg_group">
    <path
       style="font-variation-settings:normal;opacity:1;vector-effect:none;fill:#ffffff;fill-opacity:1;stroke:none;stroke-width:4.99999;stroke-linecap:butt;stroke-linejoin:miter;stroke-miterlimit:4;stroke-dasharray:none;stroke-dashoffset:0;stroke-opacity:1;-inkscape-stroke:none;stop-color:#000000;stop-opacity:1"
       d="m 169.12306,179.41377 c 7.17524,2.03603 17.85158,5.06553 20.60285,3.01404 2.75127,-2.05149 8.06389,-17.00234 11.6344,-27.05054 -4.41261,8.70187 -10.29097,20.29426 -13.87902,22.96964 -3.58804,2.67539 -12.02509,1.75656 -18.35823,1.06686 z"
       id="path366946" />
    <path
       style="font-variation-settings:normal;opacity:1;vector-effect:none;fill:#ffffff;fill-opacity:1;stroke:none;stroke-width:4.99999;stroke-linecap:butt;stroke-linejoin:miter;stroke-miterlimit:4;stroke-dasharray:none;stroke-dashoffset:0;stroke-opacity:1;-inkscape-stroke:none;stop-color:#000000;stop-opacity:1"
       d="m 418.13552,164.61901 c 1.18641,6.62029 3.16003,17.63327 1.8937,19.33905 -1.26633,1.70579 -15.75957,7.55856 -24.47212,11.07693 7.6317,-4.52377 20.00202,-11.85642 21.42855,-13.77803 1.42654,-1.9216 1.25543,-11.02306 1.14987,-16.63795 z"
       id="path369318" />
    <path
       style="font-variation-settings:normal;opacity:1;vector-effect:none;fill:#ffffff;fill-opacity:1;stroke:none;stroke-width:4.99999;stroke-linecap:butt;stroke-linejoin:miter;stroke-miterlimit:4;stroke-dasharray:none;stroke-dashoffset:0;stroke-opacity:1;-inkscape-stroke:none;stop-color:#000000;stop-opacity:1"
       d="m 358.64675,112.22634 c 7.28439,-0.94806 15.06966,-1.96132 19.70026,-4.20736 4.6306,-2.24604 7.47408,-6.3881 10.13466,-10.263734 -3.2733,3.149634 -6.39185,6.150364 -11.59932,8.676214 -5.20748,2.52585 -11.56393,4.12082 -18.2356,5.79488 z"
       id="path370990" />
  </g>
</svg>
