<?xml version="1.0" encoding="UTF-8" standalone="no"?>
<!-- Created with Inkscape (http://www.inkscape.org/) -->

<svg
   width="1980"
   height="1300"
   viewBox="0 0 523.87499 343.95835"
   version="1.1"
   id="svg5"
   xmlns="http://www.w3.org/2000/svg"
   xmlns:svg="http://www.w3.org/2000/svg">
  <defs
     id="defs2" />
  <g
     id="layer10"
     ref="svg_group"
     style="display:inline">
    <circle
       style="fill:#000000;fill-opacity:1;stroke:none;stroke-width:4.99999;stroke-linecap:round;stroke-linejoin:round;stroke-miterlimit:300;paint-order:fill markers stroke"
       id="path127834"
       cx="242.7205"
       cy="154.25163"
       r="113.49473" />
    <path
       style="font-variation-settings:normal;opacity:1;vector-effect:none;fill:#000000;fill-opacity:1;stroke:none;stroke-width:2;stroke-linecap:butt;stroke-linejoin:miter;stroke-miterlimit:4;stroke-dasharray:none;stroke-dashoffset:0;stroke-opacity:1;-inkscape-stroke:none;stop-color:#000000;stop-opacity:1"
       d="m 198.20837,51.881258 c 7.81471,-7.402987 21.19926,-20.082373 25.16098,-20.600644 3.96171,-0.518272 49.16523,8.158895 54.52475,10.310234 5.35952,2.15134 16.38625,15.028564 20.50328,16.661254 4.11704,1.632689 18.87972,1.375177 28.94002,1.19969 -10.97186,0.826612 -25.75978,1.940723 -30.82268,0.05107 -5.06291,-1.889651 -13.47476,-14.120596 -19.54874,-16.813393 -6.07399,-2.692797 -45.72538,-11.006771 -51.71522,-10.413049 -5.98985,0.593721 -13.4271,10.5383 -18.34152,17.109513 0,0 -8.70087,2.495322 -8.70087,2.495322 z"
       id="path135194" />
    <path
       style="font-variation-settings:normal;opacity:1;vector-effect:none;fill:#030500;fill-opacity:1;stroke:none;stroke-width:4.99999;stroke-linecap:butt;stroke-linejoin:miter;stroke-miterlimit:4;stroke-dasharray:none;stroke-dashoffset:0;stroke-opacity:1;-inkscape-stroke:none;stop-color:#000000;stop-opacity:1"
       d="m 162.12726,64.833135 c -4.08984,12.847145 -9.85905,30.969569 -14.84196,37.554285 -4.98291,6.58471 -31.12206,25.9505 -32.63406,30.46463 -1.51199,4.51413 8.11019,34.95917 11.01046,41.39755 2.90027,6.43838 10.70053,17.44702 16.16291,25.15618 0,0 -4.0174,-12.88097 -4.0174,-12.88097 -3.82594,-4.33072 -10.42662,-11.80224 -11.3807,-14.34085 -0.95408,-2.5386 -7.51304,-32.29147 -4.90636,-39.46724 2.60667,-7.17578 23.37496,-23.2353 27.65891,-29.51945 4.28395,-6.284145 9.38385,-25.166873 12.9482,-38.364135 z"
       id="path1151" />
    <path
       style="font-variation-settings:normal;opacity:1;vector-effect:none;fill:#030500;fill-opacity:1;stroke:none;stroke-width:4.99999;stroke-linecap:butt;stroke-linejoin:miter;stroke-miterlimit:4;stroke-dasharray:none;stroke-dashoffset:0;stroke-opacity:1;-inkscape-stroke:none;stop-color:#000000;stop-opacity:1"
       d="m 97.621286,126.64921 c 11.188844,-0.61679 28.402574,-1.5657 29.750834,-6.37058 1.34826,-4.80489 -10.28953,-48.787013 -14.52021,-53.367148 -4.23067,-4.580134 -33.809956,-12.97997 -51.863619,-18.106794 17.430736,5.542887 46.640529,14.831457 50.218079,18.770017 3.57755,3.938561 13.56522,44.329425 12.20423,49.649995 -1.361,5.32057 -15.93329,7.7687 -25.789314,9.42451 z"
       id="path2333" />
    <path
       style="font-variation-settings:normal;opacity:1;vector-effect:none;fill:#030500;fill-opacity:1;stroke:none;stroke-width:4.99999;stroke-linecap:butt;stroke-linejoin:miter;stroke-miterlimit:4;stroke-dasharray:none;stroke-dashoffset:0;stroke-opacity:1;-inkscape-stroke:none;stop-color:#000000;stop-opacity:1"
       d="m 215.13368,254.63481 c 26.33607,7.26601 69.10836,19.0667 76.82656,17.1556 7.7182,-1.91109 39.22008,-39.1994 42.72954,-44.8778 3.50946,-5.67841 3.1125,-14.72765 2.85046,-20.70134 0,0 -2.40419,4.0592 -2.40419,4.0592 0.38967,4.39725 1.07974,12.18436 -0.50213,14.61881 -1.58186,2.43446 -33.29682,40.08214 -44.13408,42.8702 -10.83725,2.78807 -49.17088,-6.66495 -75.36616,-13.12467 z"
       id="path2849" />
    <path
       style="font-variation-settings:normal;opacity:1;vector-effect:none;fill:#030500;fill-opacity:1;stroke:none;stroke-width:4.99999;stroke-linecap:butt;stroke-linejoin:miter;stroke-miterlimit:4;stroke-dasharray:none;stroke-dashoffset:0;stroke-opacity:1;-inkscape-stroke:none;stop-color:#000000;stop-opacity:1"
       d="m 356.05943,129.95515 c -3.29,-2.64627 -7.04029,-5.66276 -7.16022,-9.84503 -0.11993,-4.18227 4.80939,-15.7706 9.58485,-19.66991 4.77546,-3.899322 28.67982,-16.501369 44.6498,-24.920518 -15.22853,9.197646 -33.21142,20.058851 -40.5028,26.340718 -7.29138,6.28187 -10.91803,14.9326 -11.09658,18.38633 -0.17856,3.45373 2.41378,6.901 4.52495,9.70841 z"
       id="path3350" />
  </g>
  <g
     id="layer7"
     style="display:inline"
     ref="svg_group">
    <path
       style="font-variation-settings:normal;opacity:1;vector-effect:none;fill:#9ece6a;fill-opacity:1;stroke:none;stroke-width:2;stroke-linecap:butt;stroke-linejoin:miter;stroke-miterlimit:4;stroke-dasharray:none;stroke-dashoffset:0;stroke-opacity:1;-inkscape-stroke:none;stop-color:#000000;stop-opacity:1"
       d="m 284.12843,105.70279 c 9.95648,-1.83665 14.80158,-2.73041 29.08149,-16.730982 14.27991,-14.000568 21.68423,-27.842062 31.53898,-37.36634 9.85475,-9.524278 38.2475,-26.146831 59.37416,-38.515449 -20.13996,12.574009 -44.63806,27.868948 -56.62497,38.576947 -11.98691,10.707999 -26.72832,31.51531 -21.44494,31.61653 5.28339,0.10122 31.54429,-16.066947 47.37792,-27.489252 15.83364,-11.422305 21.16528,-17.562417 26.95435,-24.229314 -5.10856,7.651924 -9.02936,13.52476 -31.07046,29.853044 -22.04109,16.328285 -45.57065,30.79102 -76.22837,49.635166 0,0 -8.95816,-5.35035 -8.95816,-5.35035 z"
       id="path85833" />
    <path
       style="font-variation-settings:normal;opacity:1;vector-effect:none;fill:#9ece6a;fill-opacity:1;stroke:none;stroke-width:2;stroke-linecap:butt;stroke-linejoin:miter;stroke-miterlimit:4;stroke-dasharray:none;stroke-dashoffset:0;stroke-opacity:1;-inkscape-stroke:none;stop-color:#000000;stop-opacity:1"
       d="m 293.08659,111.05314 c -0.45839,-12.114275 -0.99724,-26.354652 9.29939,-32.591018 10.29663,-6.236366 52.77587,-11.269088 61.86779,-15.964373 9.09191,-4.695286 24.84469,-27.958145 35.38484,-43.523286 -10.54015,15.565141 -25.509,37.670349 -36.30046,42.872857 -10.79146,5.202508 -61.25024,9.703072 -68.01188,13.552718 -6.76164,3.849647 -5.10503,21.749972 -3.97872,33.920112 0,0 1.73904,1.73299 1.73904,1.73299 z"
       id="path87527" />
  </g>
  <g
     id="layer4"
     style="display:inline"
     ref="svg_group" />
  <g
     id="layer23"
     style="display:inline"
     ref="svg_group">
    <path
       style="font-variation-settings:normal;display:inline;opacity:1;vector-effect:none;fill:#444555;fill-opacity:1;stroke:none;stroke-width:4.99999;stroke-linecap:butt;stroke-linejoin:miter;stroke-miterlimit:4;stroke-dasharray:none;stroke-dashoffset:0;stroke-opacity:1;-inkscape-stroke:none;stop-color:#000000;stop-opacity:1"
       d="m 158.13385,235.93269 c -6.94313,2.58161 -48.08692,40.02431 -75.934255,65.36664 9.651032,-5.71453 22.505605,-13.32594 30.014825,-18.12147 7.50922,-4.79554 29.4651,-19.58504 34.71637,-20.87787 5.25127,-1.29282 12.25975,6.36524 14.0522,2.69589 1.79245,-3.66934 4.09398,-31.64479 -2.84914,-29.06319 z"
       id="path70722" />
  </g>
  <g
     id="layer1"
     style="display:inline"
     ref="svg_group">
    <path
       style="font-variation-settings:normal;opacity:1;vector-effect:none;fill:#030500;fill-opacity:1;stroke:none;stroke-width:4.99999;stroke-linecap:butt;stroke-linejoin:miter;stroke-miterlimit:4;stroke-dasharray:none;stroke-dashoffset:0;stroke-opacity:1;-inkscape-stroke:none;stop-color:#000000;stop-opacity:1"
       d="m 138.61703,220.75456 c 3.06335,6.72473 4.19926,9.21829 -9.19121,29.31106 -13.39047,20.09277 -20.62062,26.74443 -40.121564,44.68508 17.822354,-14.09982 33.662384,-26.63136 49.888394,-43.98613 16.22602,-17.35476 35.54375,-46.4389 35.41125,-47.45045 -0.1325,-1.01155 -23.22066,10.87048 -35.98687,17.44044 z"
       id="path5804" />
  </g>
  <g
     id="layer2"
     style="display:inline"
     ref="svg_group">
    <path
       style="font-variation-settings:normal;display:inline;opacity:1;vector-effect:none;fill:#444555;fill-opacity:1;stroke:none;stroke-width:4.99999;stroke-linecap:butt;stroke-linejoin:miter;stroke-miterlimit:4;stroke-dasharray:none;stroke-dashoffset:0;stroke-opacity:1;-inkscape-stroke:none;stop-color:#000000;stop-opacity:1"
       d="m 257.67408,120.54183 c -3.44726,-10.15151 -2.46044,-7.24552 -6.54953,-25.581871 -4.08909,-18.336355 -4.05193,-16.650963 -4.18177,-22.540114 -2.06528,1.498901 -3.97614,2.885728 -3.8612,10.092061 0.11494,7.206332 2.22369,18.226774 4.50286,30.137844 0,0 10.08964,7.89208 10.08964,7.89208 z"
       id="path51954" />
    <path
       style="font-variation-settings:normal;opacity:1;vector-effect:none;fill:#444555;fill-opacity:1;stroke:none;stroke-width:4.99999;stroke-linecap:butt;stroke-linejoin:miter;stroke-miterlimit:4;stroke-dasharray:none;stroke-dashoffset:0;stroke-opacity:1;-inkscape-stroke:none;stop-color:#000000;stop-opacity:1"
       d="M 409.50116,39.387401 C 369.71459,69.440527 304.9586,118.35451 298.3256,125.98177 c -6.63299,7.62727 0.1455,25.37906 4.31033,36.28608 -2.93121,-9.02929 -6.6358,-20.44093 6.47505,-35.51684 13.11085,-15.07591 61.83723,-55.432746 100.39018,-87.363609 z"
       id="path52611" />
    <path
       style="font-variation-settings:normal;display:inline;fill:#2a2c41;fill-opacity:1;stroke:none;stroke-width:5.29167;stroke-linecap:round;stroke-linejoin:round;stroke-miterlimit:4;stroke-dasharray:none;stroke-dashoffset:0;stroke-opacity:1;stop-color:#000000"
       d="m 227.9739,138.92955 c 6.52661,-3.00893 13.62787,2.7004 23.80017,10.8788 0,0 15.25845,12.2676 15.25845,12.2676 5.08615,4.0892 11.52885,9.26906 16.05298,9.65183 4.52413,0.38277 13.71039,-3.47402 20.96285,-6.51892 0,0 -12.79858,-29.39801 -12.79858,-29.39801 0,0 50.37506,-45.137882 50.37506,-45.137882 0,0 68.02235,-51.260846 68.02235,-51.260846 -8.01897,1.375101 -4.88523,0.837725 -56.99334,33.210663 -52.1081,32.372935 -38.20783,22.327763 -73.77996,48.034325 0,0 8.18284,23.39435 8.18284,23.39435 C 273.13353,126.30293 269.20315,121.2927 234.98843,91.462372 200.7737,61.632046 181.02806,48.690882 175.08295,49.38349 c -5.94511,0.692609 -1.1117,31.668833 0.29549,47.739567 1.40719,16.070733 1.46363,33.568993 1.51508,49.519333 0.0515,15.95034 0.1356,42.03836 -1.82141,46.54207 -1.95701,4.5037 -19.60697,18.8415 -30.39834,27.60778 -15.06737,12.97382 -0.38791,0.33402 -21.79041,31.40264 -21.40249,31.06862 -22.06064,23.3544 -21.38512,31.27219 0,0 42.03782,-36.25082 42.03782,-36.25082 0,0 17.82805,-14.51652 17.82805,-14.51652 0,0 0,42.63599 0,42.63599 1.25513,-18.6062 0.55243,-8.18924 9.84873,-29.7875 9.29631,-21.59826 3.83717,-23.17173 16.65158,-27.09211 12.81442,-3.92037 25.04172,-11.02019 29.60344,-18.24419 4.56173,-7.22401 4.37339,-23.73544 4.22737,-36.53627 -0.14602,-12.80084 -0.24795,-21.73717 6.27867,-24.7461 z"
       id="path6119-3" />
    <path
       style="font-variation-settings:normal;display:inline;opacity:1;vector-effect:none;fill:#2a2c41;fill-opacity:1;stroke:none;stroke-width:4.99999;stroke-linecap:butt;stroke-linejoin:miter;stroke-miterlimit:4;stroke-dasharray:none;stroke-dashoffset:0;stroke-opacity:1;-inkscape-stroke:none;stop-color:#000000;stop-opacity:1"
       d="m 310.3986,154.09488 c 35.18038,16.1695 111.40077,63.57109 122.29223,69.8357 10.89145,6.2646 25.64186,10.69945 34.60094,13.39308 -47.75166,-31.84429 -85.90144,-57.28534 -132.78688,-94.66191 -46.88544,-37.37657 -80.60198,-71.174827 -87.43567,-70.427241 -6.83369,0.747586 6.85492,43.514901 17.27994,76.085801 6.03461,-5.77137 10.86905,-10.39493 46.04944,5.77457 z"
       id="path25858" />
  </g>
  <g
     id="layer3"
     style="display:inline"
     ref="svg_group">
    <path
       style="font-variation-settings:normal;opacity:1;vector-effect:none;fill:#444555;fill-opacity:1;stroke:none;stroke-width:4.99999;stroke-linecap:butt;stroke-linejoin:miter;stroke-miterlimit:4;stroke-dasharray:none;stroke-dashoffset:0;stroke-opacity:1;-inkscape-stroke:none;stop-color:#000000;stop-opacity:1"
       d="m 277.63022,217.14899 c -1.95096,-0.72413 -35.21407,-13.07036 -37.34291,-13.89918 -2.12884,-0.82881 -29.62316,-12.11356 -49.12862,-1.23378 -19.50546,10.87978 -44.86126,39.39263 -69.84287,67.48472 18.03889,-17.9561 38.87392,-38.69551 56.75322,-45.79459 17.8793,-7.09908 45.92138,-5.76689 70.20035,-4.61347 0,0 31.31179,-1.21956 29.36083,-1.9437 z"
       id="path2016" />
    <path
       style="font-variation-settings:normal;display:inline;opacity:1;vector-effect:none;fill:#444555;fill-opacity:1;stroke:none;stroke-width:4.99999;stroke-linecap:butt;stroke-linejoin:miter;stroke-miterlimit:4;stroke-dasharray:none;stroke-dashoffset:0;stroke-opacity:1;-inkscape-stroke:none;stop-color:#000000;stop-opacity:1"
       d="m 429.10067,218.05018 c -6.50122,-2.39225 -14.30605,-5.26419 -19.13477,-6.74786 -4.82871,-1.48368 -14.93936,-3.87494 -18.92886,-6.47523 -3.98951,-2.60029 -13.71361,-10.4438 -44.25334,-27.95557 -30.53973,-17.51178 -31.15448,-17.73153 -47.31837,-23.50962 0,0 -4.69878,-8.51955 -4.69878,-8.51955"
       id="path20072" />
    <path
       style="font-variation-settings:normal;display:inline;opacity:1;vector-effect:none;fill:#444555;fill-opacity:1;stroke:none;stroke-width:4.99999;stroke-linecap:butt;stroke-linejoin:miter;stroke-miterlimit:4;stroke-dasharray:none;stroke-dashoffset:0;stroke-opacity:1;-inkscape-stroke:none;stop-color:#000000;stop-opacity:1"
       d="m 251.19968,105.7803 c 0.82424,0.63386 0.87487,0.67279 3.65788,2.86508 2.78302,2.1923 2.9077,2.29146 4.95412,3.91894 -2.18117,-1.89136 -3.23844,-2.80816 -5.68244,-5.44601 -2.44399,-2.63785 -2.9508,-3.40939 -3.99566,-5.00004 0,0 1.0661,3.66203 1.0661,3.66203 z"
       id="path1218" />
    <path
       style="font-variation-settings:normal;display:inline;opacity:1;vector-effect:none;fill:#1d1f30;fill-opacity:1;stroke:none;stroke-width:4.99999;stroke-linecap:butt;stroke-linejoin:miter;stroke-miterlimit:4;stroke-dasharray:none;stroke-dashoffset:0;stroke-opacity:1;-inkscape-stroke:none;stop-color:#000000;stop-opacity:1"
       d="m 180.47029,236.29494 c 0,0 -10.26519,-14.23904 6.98598,-17.73571 17.25117,-3.49667 87.57238,-3.83882 103.2804,-4.70162 15.70802,-0.86281 28.83306,-4.81011 38.05333,-7.58307 -10.96647,5.03588 -29.56917,13.57838 -37.84332,14.03289 -8.27416,0.4545 -81.56691,-2.98477 -100.75355,-0.0623 -19.18664,2.92243 -9.72284,16.04985 -9.72284,16.04985 z"
       id="path21166" />
    <path
       style="font-variation-settings:normal;display:inline;opacity:1;vector-effect:none;fill:#1d1f30;fill-opacity:1;stroke:none;stroke-width:4.99999;stroke-linecap:butt;stroke-linejoin:miter;stroke-miterlimit:4;stroke-dasharray:none;stroke-dashoffset:0;stroke-opacity:1;-inkscape-stroke:none;stop-color:#000000;stop-opacity:1"
       d="m 207.48527,216.53068 c 0,0 63.599,-2.00708 63.599,-2.00708 0,0 -28.21018,-8.67995 -28.21018,-8.67995 4.24143,2.99575 5.29999,3.74341 -5.0247,6.86124 -10.32469,3.11782 -14.32641,3.2592 -30.36412,3.82579 z"
       id="path18615" />
    <path
       style="font-variation-settings:normal;display:inline;opacity:1;vector-effect:none;fill:#1d1f30;fill-opacity:1;stroke:none;stroke-width:4.99999;stroke-linecap:butt;stroke-linejoin:miter;stroke-miterlimit:4;stroke-dasharray:none;stroke-dashoffset:0;stroke-opacity:1;-inkscape-stroke:none;stop-color:#000000;stop-opacity:1"
       d="m 188.68213,203.689 c 3.13068,1.78867 8.09824,4.62682 12.08116,4.93983 3.98293,0.31301 29.59136,-0.1214 45.7316,-0.39519 0,0 -3.6208,-2.38999 -3.6208,-2.38999 -13.36438,0.99283 -32.21064,2.3929 -36.52336,1.71079 -4.31273,-0.68212 -6.08951,-5.34522 -7.34937,-8.65168 0,0 -10.31923,4.78624 -10.31923,4.78624 z"
       id="path26927" />
    <path
       style="font-variation-settings:normal;display:inline;opacity:1;vector-effect:none;fill:#1d1f30;fill-opacity:1;stroke:none;stroke-width:4.99999;stroke-linecap:butt;stroke-linejoin:miter;stroke-miterlimit:4;stroke-dasharray:none;stroke-dashoffset:0;stroke-opacity:1;-inkscape-stroke:none;stop-color:#000000;stop-opacity:1"
       d="m 145.02149,243.09733 c 16.96978,-17.64832 36.03461,-37.47545 50.33009,-42.9178 14.29549,-5.44235 31.87476,0.4337 47.52251,5.66412 -15.09037,-3.3302 -31.81364,-7.02075 -46.35749,-1.48383 -14.54385,5.53693 -33.96795,22.98942 -51.49511,38.73751 z"
       id="path18171" />
    <path
       style="font-variation-settings:normal;display:inline;opacity:1;vector-effect:none;fill:#1d1f30;fill-opacity:1;stroke:none;stroke-width:4.99999;stroke-linecap:butt;stroke-linejoin:miter;stroke-miterlimit:4;stroke-dasharray:none;stroke-dashoffset:0;stroke-opacity:1;-inkscape-stroke:none;stop-color:#000000;stop-opacity:1"
       d="m 199.00136,198.90276 c 5.94766,-1.90019 13.01355,-4.15764 22.52867,-2.06511 9.51512,2.09252 29.45097,10.13378 43.8083,13.60845 14.35733,3.47467 23.79286,3.07228 33.70442,2.64959 -7.29773,2.58946 -13.87173,4.92212 -27.20565,1.58642 -13.33392,-3.33569 -17.8383,-5.63486 -39.13804,-11.62062 -21.29974,-5.98577 -24.6129,-5.49752 -33.6977,-4.15873 z"
       id="path27205" />
  </g>
  <g
     id="layer5"
     style="display:inline"
     ref="svg_group">
    <path
       style="font-variation-settings:normal;opacity:1;vector-effect:none;fill:#000000;fill-opacity:1;stroke:none;stroke-width:4.99999;stroke-linecap:butt;stroke-linejoin:miter;stroke-miterlimit:4;stroke-dasharray:none;stroke-dashoffset:0;stroke-opacity:1;-inkscape-stroke:none;stop-color:#000000;stop-opacity:1"
       d="m 141.32413,249.90665 c 4.21921,-4.94026 5.4677,-6.40212 10.96894,-10.45358 5.50123,-4.05147 6.37074,-3.97946 7.49432,-3.55181 1.12358,0.42765 1.38577,1.25474 1.6258,2.0119 0,0 0.0231,19.85331 0.0231,19.85331 -0.0241,-8.35558 -0.0365,-12.67043 -5.00944,-14.614 -4.97294,-1.94356 -8.42275,1.01854 -15.10274,6.75418 0,0 2e-5,0 2e-5,0 z"
       id="path16946" />
    <path
       style="font-variation-settings:normal;opacity:1;vector-effect:none;fill:#1d1f30;fill-opacity:1;stroke:none;stroke-width:4.99999;stroke-linecap:butt;stroke-linejoin:miter;stroke-miterlimit:4;stroke-dasharray:none;stroke-dashoffset:0;stroke-opacity:1;-inkscape-stroke:none;stop-color:#000000;stop-opacity:1"
       d="m 298.48437,146.68892 c 0,0 58.38101,31.88728 58.38101,31.88728 0,0 29.46016,16.17954 29.46016,16.17954 -14.99561,-8.09051 -27.99416,-15.10355 -44.5607,-23.68771 -16.56654,-8.58415 -28.91423,-14.70455 -43.15827,-21.76491 0,0 -0.1222,-2.6142 -0.1222,-2.6142 z"
       id="path23658" />
    <path
       style="font-variation-settings:normal;opacity:1;vector-effect:none;fill:#1d1f30;fill-opacity:1;stroke:none;stroke-width:4.99999;stroke-linecap:butt;stroke-linejoin:miter;stroke-miterlimit:4;stroke-dasharray:none;stroke-dashoffset:0;stroke-opacity:1;-inkscape-stroke:none;stop-color:#000000;stop-opacity:1"
       d="m 299.62036,155.7671 c -0.0158,-0.0147 -5.69724,-21.08635 -0.53095,-28.15778 5.1663,-7.07142 35.87411,-31.467015 57.05318,-48.292572 -20.774,17.202237 -43.11334,35.700672 -51.79747,47.587032 -8.68413,11.88635 -4.70895,28.87802 -4.72476,28.86332 z"
       id="path24291" />
  </g>
  <g
     id="layer9"
     style="display:inline"
     ref="svg_group">
    <path
       style="font-variation-settings:normal;opacity:1;vector-effect:none;fill:#ffffff;fill-opacity:1;stroke:none;stroke-width:2;stroke-linecap:butt;stroke-linejoin:miter;stroke-miterlimit:4;stroke-dasharray:none;stroke-dashoffset:0;stroke-opacity:1;-inkscape-stroke:none;stop-color:#000000;stop-opacity:1"
       d="m 187.59977,54.479357 c -0.0247,-0.04814 -14.45644,-10.697596 -16.03284,-6.901393 -1.57641,3.796203 0.88516,24.477406 2.76308,40.255007 -1.21086,-14.477918 -2.62133,-31.342498 -0.71111,-35.94261 1.91022,-4.600112 14.00559,2.637136 13.98087,2.588996 z"
       id="path98815" />
    <path
       style="font-variation-settings:normal;opacity:1;vector-effect:none;fill:#fefefe;fill-opacity:1;stroke:none;stroke-width:2;stroke-linecap:butt;stroke-linejoin:miter;stroke-miterlimit:4;stroke-dasharray:none;stroke-dashoffset:0;stroke-opacity:1;-inkscape-stroke:none;stop-color:#000000;stop-opacity:1"
       d="m 241.5852,138.30917 c 13.73455,12.44467 33.93194,30.74524 39.44388,33.11883 5.51193,2.37359 15.93277,-2.74103 23.01927,-6.21914 -7.38099,2.83982 -16.53265,6.3609 -24.44546,2.95338 -7.9128,-3.40752 -24.57763,-18.04669 -38.01769,-29.85307 z"
       id="path102751" />
    <path
       style="font-variation-settings:normal;opacity:1;vector-effect:none;fill:#ffffff;fill-opacity:1;stroke:none;stroke-width:2;stroke-linecap:butt;stroke-linejoin:miter;stroke-miterlimit:4;stroke-dasharray:none;stroke-dashoffset:0;stroke-opacity:1;-inkscape-stroke:none;stop-color:#000000;stop-opacity:1"
       d="m 177.04602,144.63672 c -0.35557,16.50762 -0.91524,42.49094 -2.21698,47.07295 -1.30174,4.58201 -10.3618,12.46001 -16.11784,17.46506 8.48477,-4.33983 21.28347,-10.88616 22.78561,-16.17359 1.50215,-5.28744 -2.07762,-31.19158 -4.45079,-48.36442 z"
       id="path103800" />
    <path
       style="font-variation-settings:normal;opacity:1;vector-effect:none;fill:#fdfffc;fill-opacity:1;stroke:none;stroke-width:2;stroke-linecap:butt;stroke-linejoin:miter;stroke-miterlimit:4;stroke-dasharray:none;stroke-dashoffset:0;stroke-opacity:1;-inkscape-stroke:none;stop-color:#000000;stop-opacity:1"
       d="m 228.6806,86.004222 c 0.0233,0.02221 11.11066,9.893289 17.07782,15.205828 0,0 -2.55616,-16.19365 -2.55616,-16.19365 0.52415,5.084787 1.11858,10.851418 -1.09604,10.88835 -2.21462,0.03693 -13.44888,-9.922739 -13.42562,-9.900528 z"
       id="path117024" />
    <path
       style="font-variation-settings:normal;opacity:1;vector-effect:none;fill:#ffffff;fill-opacity:1;stroke:none;stroke-width:2;stroke-linecap:butt;stroke-linejoin:miter;stroke-miterlimit:4;stroke-dasharray:none;stroke-dashoffset:0;stroke-opacity:1;-inkscape-stroke:none;stop-color:#000000;stop-opacity:1"
       d="m 287.71507,103.40594 c 0,0 7.00982,6.0718 7.00982,6.0718 0,0 12.1912,-8.67975 12.1912,-8.67975 -4.00533,2.43326 -9.10035,5.5285 -11.42971,5.84502 -2.32937,0.31652 -5.3763,-1.67313 -7.77131,-3.23707 z"
       id="path120075" />
    <path
       style="font-variation-settings:normal;display:inline;opacity:1;vector-effect:none;fill:#ffffff;fill-opacity:1;stroke:none;stroke-width:4.99999;stroke-linecap:butt;stroke-linejoin:miter;stroke-miterlimit:4;stroke-dasharray:none;stroke-dashoffset:0;stroke-opacity:1;-inkscape-stroke:none;stop-color:#000000;stop-opacity:1"
       d="m 221.7597,160.72515 c -0.0962,-12.1122 -0.17888,-22.52572 7.71407,-23.0686 7.89294,-0.54288 19.87834,9.05197 33.81882,20.21196 -13.83559,-10.57679 -24.40456,-18.65638 -32.96104,-18.06785 -8.55648,0.58853 -8.56313,9.39548 -8.57183,20.92449 0,0 -2e-5,0 -2e-5,0 z"
       id="path20232" />
  </g>
  <g
     id="layer28"
     style="display:inline"
     ref="svg_group">
    <path
       style="font-variation-settings:normal;opacity:1;vector-effect:none;fill:#000000;fill-opacity:1;stroke:none;stroke-width:2;stroke-linecap:butt;stroke-linejoin:miter;stroke-miterlimit:4;stroke-dasharray:none;stroke-dashoffset:0;stroke-opacity:1;-inkscape-stroke:none;stop-color:#000000;stop-opacity:1"
       d="m 221.82461,179.8891 c 0.0609,-0.001 -0.89481,-21.4698 -0.78763,-29.5621 0.10719,-8.09231 0.85077,-14.93941 4.83472,-16.05951 3.98394,-1.1201 12.04189,4.15572 18.4289,9.05941 6.38701,4.9037 17.99751,14.76631 27.5101,22.84684 -9.6475,-9.1818 -18.46726,-17.57582 -28.54335,-26.14391 -10.07609,-8.56808 -20.84375,-16.54244 -23.83448,-15.39254 -2.99074,1.1499 -2.52577,11.51592 -1.32182,24.43313 1.20394,12.9172 3.65262,30.81987 3.71356,30.81868 z"
       id="path109823" />
    <path
       style="font-variation-settings:normal;opacity:1;vector-effect:none;fill:#000000;fill-opacity:1;stroke:none;stroke-width:2;stroke-linecap:butt;stroke-linejoin:miter;stroke-miterlimit:4;stroke-dasharray:none;stroke-dashoffset:0;stroke-opacity:1;-inkscape-stroke:none;stop-color:#000000;stop-opacity:1"
       d="m 321.04029,175.96697 c 1.13427,0.20224 2.31344,0.41248 1.89931,-6.4183 -0.41414,-6.83077 -2.49636,-21.87579 -0.36349,-33.12645 2.13288,-11.25066 10.49814,-22.12831 23.98888,-34.16953 13.49074,-12.041216 58.54301,-48.851355 92.45229,-76.557068 -34.44359,27.207439 -66.72576,52.707541 -88.94708,71.540108 -22.22132,18.83257 -28.46412,25.80236 -30.88304,36.92498 -2.41893,11.12262 -0.34122,19.71827 1.15738,28.52543 1.49859,8.80716 1.14239,10.79202 0.69575,13.28083 z"
       id="path112770" />
    <path
       style="font-variation-settings:normal;opacity:1;vector-effect:none;fill:#1d1f30;fill-opacity:1;stroke:none;stroke-width:2;stroke-linecap:butt;stroke-linejoin:miter;stroke-miterlimit:4;stroke-dasharray:none;stroke-dashoffset:0;stroke-opacity:1;-inkscape-stroke:none;stop-color:#000000;stop-opacity:1"
       d="m 188.68213,203.68899 c 0.10149,-0.0964 21.07768,-14.30956 31.36583,-13.81064 10.28815,0.49892 29.47927,10.91894 39.72544,10.65063 10.24617,-0.26831 20.198,-10.01992 29.00333,-18.64808 -8.69776,9.17207 -19.98565,21.07552 -29.11663,22.10791 -9.13099,1.03239 -31.11528,-6.88259 -43.91602,-7.78011 -12.80073,-0.89753 -27.16343,7.57668 -27.06195,7.48029 z"
       id="path116170" />
    <path
       style="font-variation-settings:normal;opacity:1;vector-effect:none;fill:#000000;fill-opacity:1;stroke:none;stroke-width:2;stroke-linecap:butt;stroke-linejoin:miter;stroke-miterlimit:4;stroke-dasharray:none;stroke-dashoffset:0;stroke-opacity:1;-inkscape-stroke:none;stop-color:#000000;stop-opacity:1"
       d="m 409.50115,39.387401 c -0.0742,-0.005 -99.50312,71.043159 -110.61624,85.456419 -11.11312,14.41327 1.03356,34.55312 9.83479,49.14605 -7.83556,-14.52835 -17.71812,-32.85218 -4.47397,-50.02925 13.24414,-17.17707 105.32961,-84.568254 105.25542,-84.573219 z"
       id="path116905" />
    <path
       style="font-variation-settings:normal;opacity:1;vector-effect:none;fill:#000000;fill-opacity:1;stroke:none;stroke-width:2;stroke-linecap:butt;stroke-linejoin:miter;stroke-miterlimit:4;stroke-dasharray:none;stroke-dashoffset:0;stroke-opacity:1;-inkscape-stroke:none;stop-color:#000000;stop-opacity:1"
       d="m 176.95332,157.89451 c 0.0532,0.0663 -1.03944,-33.76595 2.72636,-49.27115 3.7658,-15.505195 10.18295,-22.416978 17.51466,-30.313812 -8.01557,7.04466 -17.04598,14.981243 -19.97022,27.021432 -2.92424,12.0402 -0.32401,52.49723 -0.2708,52.56353 z"
       id="path127485" />
    <path
       style="font-variation-settings:normal;opacity:1;vector-effect:none;fill:#000000;fill-opacity:1;stroke:none;stroke-width:2;stroke-linecap:butt;stroke-linejoin:miter;stroke-miterlimit:4;stroke-dasharray:none;stroke-dashoffset:0;stroke-opacity:1;-inkscape-stroke:none;stop-color:#000000;stop-opacity:1"
       d="m 72.972023,37.707628 c 0,0 29.290777,22.649677 29.290777,22.649677 15.94523,9.323268 38.51112,22.517668 44.45463,31.171033 5.9435,8.653362 13.01359,41.361782 16.61616,51.332912 3.60256,9.97112 13.54175,19.91313 13.46858,19.49201 -0.0732,-0.42112 -19.70396,-60.89791 -29.4105,-72.578137 C 137.68513,78.094894 99.488299,54.256361 72.972023,37.707628 Z"
       id="path128534" />
    <path
       style="font-variation-settings:normal;opacity:1;vector-effect:none;fill:#000000;fill-opacity:1;stroke:none;stroke-width:2;stroke-linecap:butt;stroke-linejoin:miter;stroke-miterlimit:4;stroke-dasharray:none;stroke-dashoffset:0;stroke-opacity:1;-inkscape-stroke:none;stop-color:#000000;stop-opacity:1"
       d="M 76.008486,24.252962 C 99.492964,42.238844 132.4444,67.475115 142.45245,81.227204 152.4605,94.979293 166.56073,134.39571 176.61014,162.48826 167.16623,134.13532 150.94526,85.436012 146.21074,78.930195 141.47622,72.424379 100.09846,41.978457 76.008486,24.252962 Z"
       id="path3898" />
    <path
       style="font-variation-settings:normal;opacity:1;vector-effect:none;fill:#000000;fill-opacity:1;stroke:none;stroke-width:2;stroke-linecap:butt;stroke-linejoin:miter;stroke-miterlimit:4;stroke-dasharray:none;stroke-dashoffset:0;stroke-opacity:1;-inkscape-stroke:none;stop-color:#000000;stop-opacity:1"
       d="m 172.90072,58.635896 c -0.53936,7.282154 -1.06848,14.426081 -3.47125,21.607357 -2.40277,7.181276 -7.61426,15.682095 -6.9632,25.702897 0.65106,10.02081 8.19155,36.01936 14.14387,56.54211 -6.96805,-20.20237 -17.85766,-51.77444 -18.32864,-57.33239 -0.47098,-5.557952 5.13652,-11.641573 9.14264,-21.716981 4.00612,-10.075408 4.55875,-15.610389 5.47658,-24.802993 z"
       id="path5195" />
    <path
       style="font-variation-settings:normal;opacity:1;vector-effect:none;fill:#000000;fill-opacity:1;stroke:none;stroke-width:2;stroke-linecap:butt;stroke-linejoin:miter;stroke-miterlimit:4;stroke-dasharray:none;stroke-dashoffset:0;stroke-opacity:1;-inkscape-stroke:none;stop-color:#000000;stop-opacity:1"
       d="m 175.55647,143.81486 c -0.56754,-1.00215 -2.65009,-26.63954 -1.30549,-40.67725 1.34459,-14.037702 5.44192,-26.888344 8.6123,-43.406652 3.17038,-16.518307 3.32658,-24.285285 3.5458,-35.186283 0.51496,8.469739 0.77857,12.805372 -1.80249,33.810367 -2.58106,21.004995 -6.29122,39.408066 -7.43171,49.795688 -1.1405,10.38762 -1.05088,36.66628 -1.61841,35.66413 z"
       id="path8645" />
    <path
       style="font-variation-settings:normal;opacity:1;vector-effect:none;fill:#000000;fill-opacity:1;stroke:none;stroke-width:4.99999;stroke-linecap:butt;stroke-linejoin:miter;stroke-miterlimit:4;stroke-dasharray:none;stroke-dashoffset:0;stroke-opacity:1;-inkscape-stroke:none;stop-color:#000000;stop-opacity:1"
       d="m 188.68304,85.852058 c -5.16538,11.191671 -12.88117,27.909222 -13.33801,37.151702 -0.45683,9.24247 6.88422,64.55636 5.10274,69.77796 -1.78149,5.2216 -26.94699,19.51766 -41.83074,27.97284 17.00719,-8.28874 45.83273,-22.33736 47.5906,-27.48974 1.75787,-5.15237 -7.87047,-49.90127 -8.0201,-67.12477 -0.14963,-17.22351 5.33013,-29.096321 10.49551,-40.287992 z"
       id="path2716" />
    <path
       style="font-variation-settings:normal;opacity:1;vector-effect:none;fill:#000000;fill-opacity:1;stroke:none;stroke-width:4.99999;stroke-linecap:butt;stroke-linejoin:miter;stroke-miterlimit:4;stroke-dasharray:none;stroke-dashoffset:0;stroke-opacity:1;-inkscape-stroke:none;stop-color:#000000;stop-opacity:1"
       d="m 166.43984,126.69693 c 1.62346,5.91051 3.71972,13.54233 4.92139,17.69529 1.20167,4.15296 3.53277,11.81369 4.04459,8.68864 0.51182,-3.12505 -0.2221,-15.70494 -0.93604,-27.94221 -0.12045,7.21652 -0.23974,14.36423 -1.59081,14.62646 -1.35107,0.26223 -3.88293,-6.37109 -6.43913,-13.06818 z"
       id="path7564" />
    <path
       style="font-variation-settings:normal;opacity:1;vector-effect:none;fill:#000000;fill-opacity:1;stroke:none;stroke-width:4.99999;stroke-linecap:butt;stroke-linejoin:miter;stroke-miterlimit:4;stroke-dasharray:none;stroke-dashoffset:0;stroke-opacity:1;-inkscape-stroke:none;stop-color:#000000;stop-opacity:1"
       d="m 178.53432,116.10483 c 0.0187,0.1979 1.79591,-22.283214 15.34437,-24.66199 13.54845,-2.378776 28.60491,4.27844 47.09531,15.32869 18.4904,11.05026 27.62167,19.45071 38.20368,29.1858 C 268.59567,126.22224 257.41456,115.936 241.98022,105.77318 226.54587,95.610351 205.1108,84.175613 192.57806,86.376038 180.04532,88.576463 178.51564,115.90692 178.53432,116.10483 Z"
       id="path9135" />
    <path
       style="font-variation-settings:normal;opacity:1;vector-effect:none;fill:#000000;fill-opacity:1;stroke:none;stroke-width:4.99999;stroke-linecap:butt;stroke-linejoin:miter;stroke-miterlimit:4;stroke-dasharray:none;stroke-dashoffset:0;stroke-opacity:1;-inkscape-stroke:none;stop-color:#000000;stop-opacity:1"
       d="m 331.38849,185.13191 c 20.13899,11.04422 58.31445,13.90508 73.33403,16.00424 15.01957,2.09916 19.05729,4.9592 24.05313,8.49788 4.99585,3.53869 8.89133,6.29794 15.52946,11.06923 6.63813,4.77129 14.72781,10.63454 22.98666,16.6204 -18.03674,-14.72943 -46.03101,-37.59053 -57.17849,-40.83201 -11.14749,-3.24149 -54.07259,-2.89487 -75.77821,-13.59654 -21.70562,-10.70167 -25.26682,-25.18771 -29.71607,-43.28612 3.45047,17.94252 6.63049,34.47869 26.76949,45.52292 z"
       id="path28238" />
    <path
       style="font-variation-settings:normal;opacity:1;vector-effect:none;fill:#000000;fill-opacity:1;stroke:none;stroke-width:4.99999;stroke-linecap:butt;stroke-linejoin:miter;stroke-miterlimit:4;stroke-dasharray:none;stroke-dashoffset:0;stroke-opacity:1;-inkscape-stroke:none;stop-color:#000000;stop-opacity:1"
       d="m 343.03045,188.71166 c 6.50853,8.37479 16.21334,20.86238 22.26577,22.09597 6.05242,1.23359 6.29541,1.18399 40.58574,4.26502 34.29034,3.08104 29.32396,0.21218 39.73516,6.22628 0,0 21.67465,16.02473 21.67465,16.02473 -20.58488,-9.87751 -28.78871,-13.81405 -56.52286,-18.95185 -27.73416,-5.1378 -37.42229,-2.75138 -46.22797,-5.43967 -8.80568,-2.68829 -22.72973,-16.9458 -33.51561,-27.98999 0,0 12.00512,3.76951 12.00512,3.76951 z"
       id="path30097" />
    <path
       style="font-variation-settings:normal;opacity:1;vector-effect:none;fill:#000000;fill-opacity:1;stroke:none;stroke-width:4.99999;stroke-linecap:butt;stroke-linejoin:miter;stroke-miterlimit:4;stroke-dasharray:none;stroke-dashoffset:0;stroke-opacity:1;-inkscape-stroke:none;stop-color:#000000;stop-opacity:1"
       d="m 384.23199,77.769802 c -0.45701,0.350455 -34.46111,26.425898 -40.74863,40.385138 -6.28752,13.95923 -1.63044,42.60226 4.75754,48.63103 6.38798,6.02878 35.03655,14.63076 53.75554,23.0878 18.71899,8.45703 22.546,12.69274 27.97641,18.70307 0,0 3.3334,2.14344 3.3334,2.14344 -6.01234,-7.71243 -10.97973,-14.08444 -27.50109,-22.471 -16.52136,-8.38655 -42.75819,-16.18149 -50.6882,-23.78631 -7.93001,-7.60483 -12.37789,-36.95834 -8.51432,-46.70807 3.86358,-9.74973 23.54283,-27.337605 38.08637,-40.335552 0,0 0,0 -0.45702,0.350454 z"
       id="path34025" />
    <path
       style="font-variation-settings:normal;opacity:1;vector-effect:none;fill:#000000;fill-opacity:1;stroke:none;stroke-width:4.99999;stroke-linecap:butt;stroke-linejoin:miter;stroke-miterlimit:4;stroke-dasharray:none;stroke-dashoffset:0;stroke-opacity:1;-inkscape-stroke:none;stop-color:#000000;stop-opacity:1"
       d="m 355.38059,71.060053 c -28.77907,15.358322 -66.47314,35.474247 -75.23579,42.999007 -8.76265,7.52477 -1.21281,21.88606 -1.24974,21.88191 -0.0369,-0.004 -9.78306,-14.85977 -1.53958,-21.93872 8.24347,-7.07895 48.33922,-27.685571 78.02511,-42.942197 z"
       id="path9140" />
    <path
       style="font-variation-settings:normal;opacity:1;vector-effect:none;fill:#000000;fill-opacity:1;stroke:none;stroke-width:4.99999;stroke-linecap:butt;stroke-linejoin:miter;stroke-miterlimit:4;stroke-dasharray:none;stroke-dashoffset:0;stroke-opacity:1;-inkscape-stroke:none;stop-color:#000000;stop-opacity:1"
       d="m 384.68901,77.419348 c -18.06977,14.120857 -36.41294,28.455362 -44.4616,39.289782 -8.04866,10.83442 -7.25839,14.44452 -10.00284,24.83084 -2.74445,10.38631 -5.07015,12.80526 -10.32043,18.26605 5.4817,-3.65762 8.95977,-5.97834 13.4755,-15.46955 4.51573,-9.49122 5.50533,-18.4442 11.63229,-27.49583 6.12696,-9.05163 24.6961,-25.860471 39.67708,-39.421292 z"
       id="path29791" />
    <path
       style="font-variation-settings:normal;opacity:1;vector-effect:none;fill:#000000;fill-opacity:1;stroke:none;stroke-width:4.99999;stroke-linecap:butt;stroke-linejoin:miter;stroke-miterlimit:4;stroke-dasharray:none;stroke-dashoffset:0;stroke-opacity:1;-inkscape-stroke:none;stop-color:#000000;stop-opacity:1"
       d="m 159.88319,227.95793 c -6.2426,3.43869 -13.02306,7.17367 -16.60733,14.11432 -3.58426,6.94066 -6.22861,26.34052 -8.44265,29.66758 -2.21404,3.32707 -15.62482,8.85862 -24.19563,12.39382 7.56647,-4.68937 15.0404,-9.32138 19.55579,-17.10557 4.5154,-7.78418 5.92901,-18.93573 11.13065,-26.58742 5.20164,-7.6517 15.39291,-13.46462 25.05005,-18.97287 0,0 -6.49088,6.49014 -6.49088,6.49014 z"
       id="path3813" />
  </g>
  <g
     id="layer8"
     style="display:inline"
     ref="svg_group">
    <path
       style="font-variation-settings:normal;opacity:1;vector-effect:none;fill:#9ece6a;fill-opacity:1;stroke:none;stroke-width:2;stroke-linecap:butt;stroke-linejoin:miter;stroke-miterlimit:4;stroke-dasharray:none;stroke-dashoffset:0;stroke-opacity:1;-inkscape-stroke:none;stop-color:#000000;stop-opacity:1"
       d="m 132.98816,210.53431 c 25.39253,-12.72455 66.82849,-33.4887 74.86621,-33.54955 8.03772,-0.0608 42.65141,23.42163 52.65242,22.67017 10.00102,-0.75145 21.20465,-18.97887 30.07554,-33.4111 -10.1145,15.59946 -20.21958,31.1844 -33.87109,30.94864 -13.6515,-0.23577 -41.28691,-26.11194 -50.84095,-25.64859 -9.55404,0.46335 -61.05566,30.19467 -93.02278,48.64893 0,0 20.14065,-9.6585 20.14065,-9.6585 z"
       id="path74223" />
    <path
       style="font-variation-settings:normal;opacity:1;vector-effect:none;fill:#9ece6a;fill-opacity:1;stroke:none;stroke-width:2;stroke-linecap:butt;stroke-linejoin:miter;stroke-miterlimit:4;stroke-dasharray:none;stroke-dashoffset:0;stroke-opacity:1;-inkscape-stroke:none;stop-color:#000000;stop-opacity:1"
       d="m 221.82461,179.8891 c -20.24426,6.7552 -21.93711,7.32007 -64.50734,16.12026 -42.57023,8.80019 -46.69959,9.21494 -61.495206,17.77691 -14.795618,8.56197 -23.743876,26.31346 -31.975082,42.64246 9.032853,-18.08816 18.322781,-36.69112 34.22069,-46.26095 15.897908,-9.56982 36.778708,-10.99055 60.721468,-15.65735 23.94277,-4.66679 39.33275,-10.23012 57.3795,-16.75384 0,0 5.65597,2.13251 5.65597,2.13251 z"
       id="path79078" />
  </g>
</svg>
