<?xml version="1.0" encoding="UTF-8"?>
<!-- Generator: Gravit.io -->
<svg width="284.24pt" height="233.03pt" style="isolation:isolate" inkscape:version="1.1.1 (3bf5ae0d25, 2021-09-20)" sodipodi:docname="piece-arrow.svg" version="1.1" viewBox="0 0 284.24 233.03" xmlns="http://www.w3.org/2000/svg" xmlns:inkscape="http://www.inkscape.org/namespaces/inkscape" xmlns:sodipodi="http://sodipodi.sourceforge.net/DTD/sodipodi-0.dtd">
 <sodipodi:namedview bordercolor="#666666" borderopacity="1.0" inkscape:current-layer="layer7" inkscape:cx="162.01632" inkscape:cy="179.9568" inkscape:document-units="pt" inkscape:pagecheckerboard="0" inkscape:pageopacity="0.0" inkscape:pageshadow="2" inkscape:window-height="1011" inkscape:window-maximized="1" inkscape:window-width="1920" inkscape:window-x="0" inkscape:window-y="0" inkscape:zoom="1.8115459" pagecolor="#ffffff" showgrid="false"/>
 <g inkscape:groupmode="layer" inkscape:label="arrow 1" ref="around" sodipodi:insensitive="true">
  <g style="isolation:isolate">
   <path d="m211.03 87.241-42.935-65.658c-0.194-1.657 6.209-8.036 18.17-9.225q19.63-1.403 36.821 18.292 17.692 22.733 13.584 61.622-2.968 21.509 7.863 25.16l0.509-5.517 8.032-0.505 31.164 34.127-6.421 4.378-39.845-4.648-0.906-7.733 4.397-4.39q-20.026-10.604-14.335-40.928 3.313-29.648-10.952-46.566-13.09-14.289-21.02-7.988-1.506 1.173-2.405 2.79c-4.718 8.494 9.385 25.057 23.908 48.772z"/>
  </g>
 </g>
 <g inkscape:groupmode="layer" inkscape:label="main" ref="around" sodipodi:insensitive="true">
  <path d="m166.44 14.353 78.094 103.08-27.817 85.879-124.74 18.388-91.093-41.101 14-113.5 68-67z" style="isolation:isolate"/>
 </g>
 <g inkscape:groupmode="layer" inkscape:label="piece1" ref="around" sodipodi:insensitive="true">
  <path d="m92.944 223.39 123.56-18.187-2.625 8.25-117.38 12z" style="isolation:isolate"/>
 </g>
 <g inkscape:groupmode="layer" inkscape:label="piece2" ref="around" sodipodi:insensitive="true">
  <path d="m106.56 226.25 106.5-11.505-2.522 6.984-100.99 6.407z" style="isolation:isolate"/>
 </g>
 <g inkscape:groupmode="layer" inkscape:label="piece3" ref="around" sodipodi:insensitive="true">
  <path d="m115.27 229.72 94.158-5.6234-2.513 6.0363-89.099 1.372z" stroke-width=".88056" style="isolation:isolate"/>
 </g>
</svg>
