<?xml version="1.0" encoding="UTF-8" standalone="no"?>
<!-- Generator: Gravit.io -->

<svg
   style="isolation:isolate"
   viewBox="0 0 437.42285 530.12543"
   width="583.23047"
   height="706.83386"
   version="1.1"
   id="svg314"
   xmlns="http://www.w3.org/2000/svg"
   xmlns:svg="http://www.w3.org/2000/svg">
  <defs
     id="defs195">
    <clipPath
       id="_clipPath_VL4lQNFTekCiBlrKs3lIcRmLPUe8LF3L">
      <rect
         width="257.70001"
         height="131.14999"
         id="rect192"
         x="0"
         y="0" />
    </clipPath>
  </defs>
  <g
     id="layer1"
     style="display:none"
     transform="translate(-79.888588,-263.97784)">
    <rect
       style="fill:#1a1b26;fill-opacity:1;fill-rule:evenodd;stroke:none;stroke-width:2.24823"
       id="rect421"
       width="405.13992"
       height="752.39954"
       x="47.337067"
       y="4.8483777" />
  </g>
  <g
     clip-path="url(#_clipPath_VL4lQNFTekCiBlrKs3lIcRmLPUe8LF3L)"
     id="g312"
     transform="translate(-79.888588,-263.97784)">
    <clipPath
       id="_clipPath_2R05YMjZbD0UgsZZwA9G1NSyA91KCKEh">
      <rect
         x="0"
         y="0"
         width="257.70001"
         height="131.14999"
         fill="#ffffff"
         id="rect199" />
    </clipPath>
    <g
       clip-path="url(#_clipPath_2R05YMjZbD0UgsZZwA9G1NSyA91KCKEh)"
       id="g294">
      <g
         id="g292">
        <g
           id="g274">
          <g
             id="g272">
            <g
               id="g206" />
            <g
               id="g214" />
            <g
               id="g228" />
            <g
               id="g234" />
            <g
               id="g240" />
            <g
               id="g246" />
            <g
               id="g252" />
            <g
               id="g258" />
            <g
               id="g264" />
            <g
               id="g270" />
          </g>
        </g>
      </g>
    </g>
  </g>
  <g
     id="layer2"
     style="display:inline"
     transform="translate(-80.690512,-264.32668)">
    <path
       style="font-variation-settings:normal;opacity:1;vector-effect:none;fill:#444555;fill-opacity:1;stroke:none;stroke-width:76.0396;stroke-linecap:butt;stroke-linejoin:miter;stroke-miterlimit:4;stroke-dasharray:none;stroke-dashoffset:0;stroke-opacity:1;-inkscape-stroke:none;stop-color:#000000;stop-opacity:1"
       d="m 407.00003,757.68763 c 9.62583,-42.22752 24.05141,-105.51102 14.43933,-128.88185 -9.61209,-23.37082 -102.60373,-122.23906 -118.45053,-149.52495 -15.8468,-27.2859 -28.13027,-93.94242 -36.66413,-140.25164 2.41549,-0.47236 3.68354,-0.72033 11.76548,32.89851 8.08194,33.61885 18.15599,87.93015 28.35222,104.81729 10.19622,16.88714 108.43368,118.041 123.70554,152.21358 15.27186,34.17258 -4.5455,129.54867 -6.06164,129.48187 -1.51614,-0.0668 -10.88547,-0.47961 -17.08627,-0.75281 z"
       id="path1589" />
    <path
       style="font-variation-settings:normal;opacity:1;vector-effect:none;fill:#444555;fill-opacity:1;stroke:none;stroke-width:76.0396;stroke-linecap:butt;stroke-linejoin:miter;stroke-miterlimit:4;stroke-dasharray:none;stroke-dashoffset:0;stroke-opacity:1;-inkscape-stroke:none;stop-color:#000000;stop-opacity:1"
       d="m 390.72023,757.34577 c -0.82421,-42.62575 -1.78125,-92.12078 -10.21476,-123.64957 -8.4335,-31.52879 -35.28604,-76.85034 -40.74734,-110.28133 -5.46129,-33.43098 -0.88636,-82.2938 2.14902,-133.75407 3.03538,-51.46026 2.55973,-71.79842 -0.41221,-80.46934 -2.97194,-8.67091 -11.64197,-7.93112 -18.74062,-7.32541 5.31908,22.37383 12.32284,51.834 12.167,78.38668 -0.15584,26.55267 -7.24776,94.51925 0.49158,143.00916 7.73935,48.48991 31.0946,87.97531 37.69201,115.62562 6.5974,27.6503 3.76266,78.54534 1.50555,119.0696 0,0 16.10977,-0.61134 16.10977,-0.61134 z"
       id="path7655" />
    <path
       style="font-variation-settings:normal;opacity:1;vector-effect:none;fill:#444555;fill-opacity:1;stroke:none;stroke-width:76.0396;stroke-linecap:butt;stroke-linejoin:miter;stroke-miterlimit:4;stroke-dasharray:none;stroke-dashoffset:0;stroke-opacity:1;-inkscape-stroke:none;stop-color:#000000;stop-opacity:1"
       d="m 422.73593,750.23918 c -1.5057,-5.95278 -31.0004,-122.56025 -46.75848,-151.54587 -15.75808,-28.98562 -85.40343,-102.47673 -95.0875,-115.33096 -9.68407,-12.85424 -13.18784,-30.26663 -20.13408,-35.97475 -6.94624,-5.70812 -13.34582,-2.28104 -21.77928,2.23522 9.15189,10.48185 17.46656,20.0048 43.09344,47.6809 25.62688,27.67609 81.68274,87.32748 91.63092,106.90749 9.94818,19.58001 24.23153,101.4822 33.29908,153.47642 0,0 17.2416,-1.49566 15.7359,-7.44845 z"
       id="path8813" />
    <path
       style="font-variation-settings:normal;opacity:1;vector-effect:none;fill:#444555;fill-opacity:1;stroke:none;stroke-width:76.0396;stroke-linecap:butt;stroke-linejoin:miter;stroke-miterlimit:4;stroke-dasharray:none;stroke-dashoffset:0;stroke-opacity:1;-inkscape-stroke:none;stop-color:#000000;stop-opacity:1"
       d="m 364.05988,757.96318 c -9.22966,-39.27862 -19.90953,-84.72883 -13.89278,-120.58422 6.01674,-35.85539 35.68095,-93.65346 47.41421,-124.12045 11.73326,-30.46698 15.5742,-62.1769 14.33772,-71.44429 -1.23648,-9.26739 -15.12985,-20.38752 -15.4431,-18.95168 -0.31326,1.43585 3.0858,62.79439 -4.10112,85.71179 -7.18692,22.91741 -38.49642,82.25479 -47.66695,129.80108 -9.17052,47.5463 -1.79637,81.15591 6.56553,119.26747 0,0 12.78649,0.3203 12.78649,0.3203 z"
       id="path9823" />
    <path
       style="font-variation-settings:normal;opacity:1;vector-effect:none;fill:#444555;fill-opacity:1;stroke:none;stroke-width:76.0396;stroke-linecap:butt;stroke-linejoin:miter;stroke-miterlimit:4;stroke-dasharray:none;stroke-dashoffset:0;stroke-opacity:1;-inkscape-stroke:none;stop-color:#000000;stop-opacity:1"
       d="m 351.27339,757.64287 c -2.57819,-3.36835 -37.19667,-48.59658 -36.9794,-66.13459 0.21727,-17.53802 31.06752,-46.31847 34.06381,-57.62495 2.99628,-11.30649 -8.24848,-47.95723 -15.90108,-72.89982 4.76197,24.42161 11.61273,59.55548 8.44294,71.51767 -3.1698,11.96218 -31.33538,43.88487 -32.83667,58.29041 -1.50128,14.40554 13.83708,45.93627 25.48987,69.89064 6.76624,0.10963 18.40735,0.29824 19.35304,0.31356 0.94568,0.0153 0.94568,0.0154 -1.63251,-3.35292 z"
       id="path11664" />
    <path
       style="font-variation-settings:normal;opacity:1;vector-effect:none;fill:#444555;fill-opacity:1;stroke:none;stroke-width:76.0396;stroke-linecap:butt;stroke-linejoin:miter;stroke-miterlimit:4;stroke-dasharray:none;stroke-dashoffset:0;stroke-opacity:1;-inkscape-stroke:none;stop-color:#000000;stop-opacity:1"
       d="m 356.29851,539.29293 c -0.41915,-1.04362 -18.73231,-46.64048 -19.66001,-63.1097 -0.9277,-16.46922 6.32538,-54.70587 11.77621,-83.4414 -3.7677,28.52138 -9.31315,70.50025 -7.93567,84.03595 1.37749,13.5357 14.58891,46.96854 23.56709,69.68871 0,0 -7.32847,-6.12994 -7.74762,-7.17356 z"
       id="path12426" />
  </g>
  <g
     id="layer3"
     style="display:inline"
     transform="translate(-80.690512,-264.32668)">
    <path
       style="font-variation-settings:normal;opacity:1;vector-effect:none;fill:#ffffff;fill-opacity:1;stroke:none;stroke-width:14.1732;stroke-linecap:butt;stroke-linejoin:miter;stroke-miterlimit:4;stroke-dasharray:none;stroke-dashoffset:0;stroke-opacity:1;-inkscape-stroke:none;stop-color:#000000;stop-opacity:1"
       d="m 405.70928,752.83243 c -1.29075,-4.85524 -40.53384,-152.47058 -41.15545,-170.99939 -0.62161,-18.52881 22.90539,-61.9044 28.23646,-81.72546 5.33107,-19.82105 4.99376,-48.38128 4.7096,-72.44087 0.72368,26.28794 1.53635,55.80867 -3.85127,76.70511 -5.38761,20.89643 -27.52242,57.24692 -25.34664,75.11705 2.17577,17.87012 39.00654,117.99768 62.33918,181.42943 0,0 -23.64113,-3.23063 -24.93188,-8.08587 z"
       id="path75746" />
    <path
       style="font-variation-settings:normal;opacity:1;vector-effect:none;fill:#ffffff;fill-opacity:1;stroke:none;stroke-width:14.1732;stroke-linecap:butt;stroke-linejoin:miter;stroke-miterlimit:4;stroke-dasharray:none;stroke-dashoffset:0;stroke-opacity:1;-inkscape-stroke:none;stop-color:#000000;stop-opacity:1"
       d="m 426.25781,664.92093 c -0.0871,-2.46119 -1.22041,-34.4993 -18.99306,-61.71101 -17.77265,-27.2117 -94.79791,-114.95991 -101.87827,-126.26599 -7.08036,-11.30609 -24.06505,-86.49886 -24.02438,-86.52581 0.0407,-0.027 17.29445,70.49047 28.02569,86.84297 10.73124,16.35249 71.24794,82.78862 97.60445,119.44391 26.35651,36.65529 27.84115,49.189 29.6347,64.33064 0,0 -10.28207,6.34649 -10.36913,3.88529 z"
       id="path78015" />
    <path
       style="font-variation-settings:normal;opacity:1;vector-effect:none;fill:#ffffff;fill-opacity:1;stroke:none;stroke-width:14.1732;stroke-linecap:butt;stroke-linejoin:miter;stroke-miterlimit:4;stroke-dasharray:none;stroke-dashoffset:0;stroke-opacity:1;-inkscape-stroke:none;stop-color:#000000;stop-opacity:1"
       d="m 372.07894,556.35724 c -14.98341,-27.16439 -37.13688,-67.32787 -40.38287,-81.7453 -3.24598,-14.41744 0.5011,-56.01676 3.03532,-84.1512 -1.68175,26.10462 -4.38412,68.0518 0.1725,81.3406 4.55663,13.28879 44.50418,79.96987 69.36514,121.46817 0,0 -32.19009,-36.91227 -32.19009,-36.91227 z"
       id="path79122" />
    <path
       style="font-variation-settings:normal;opacity:1;vector-effect:none;fill:#fefffe;fill-opacity:1;stroke:none;stroke-width:14.1732;stroke-linecap:butt;stroke-linejoin:miter;stroke-miterlimit:4;stroke-dasharray:none;stroke-dashoffset:0;stroke-opacity:1;-inkscape-stroke:none;stop-color:#000000;stop-opacity:1"
       d="m 407.04065,711.58089 c -0.92158,-1.58824 -54.33211,-68.80866 -61.36231,-83.52425 -7.03021,-14.71559 -16.30365,-61.92982 -27.69305,-85.71759 -11.38941,-23.78778 -27.56312,-39.14289 -43.90684,-54.65941 15.52265,16.11007 30.05366,31.19097 39.83558,61.07815 9.78193,29.88717 13.58205,83.01589 20.94514,101.46533 7.3631,18.44945 36.91385,46.78942 58.17778,67.18211 5.16025,-1.46458 14.92528,-4.2361 14.0037,-5.82434 z"
       id="path79943" />
  </g>
  <g
     id="layer4"
     style="display:inline"
     transform="translate(-80.690512,-264.32668)">
    <path
       style="font-variation-settings:normal;opacity:1;vector-effect:none;fill:#ffffff;fill-opacity:1;stroke:none;stroke-width:139.627;stroke-linecap:butt;stroke-linejoin:miter;stroke-miterlimit:4;stroke-dasharray:none;stroke-dashoffset:0;stroke-opacity:1;-inkscape-stroke:none;stop-color:#000000;stop-opacity:1"
       d="m 227.29767,493.28462 c 8.50623,4.45992 25.50771,-20.15807 36.5436,-27.01773 11.03589,-6.85967 34.23286,-7.27965 34.02129,-15.92578 -0.21157,-8.64613 -19.13687,-35.84543 -35.14444,-50.24335 -16.00757,-14.39792 -31.4722,-17.13447 -36.28919,-18.61695 -4.81699,-1.48249 -9.7217,-5.24485 -12.2128,-5.97804 -2.4911,-0.73319 -3.51123,0.0364 -4.02042,2.83203 -0.5092,2.79566 0.18521,5.18342 -2.10402,11.19517 -2.28924,6.01176 -8.14556,16.89595 -4.54281,44.05639 3.60276,27.16044 15.24256,55.23834 23.74879,59.69826 z"
       id="path45511" />
    <path
       style="font-variation-settings:normal;display:inline;isolation:isolate;vector-effect:none;fill:#ffffff;fill-opacity:1;stroke:none;stroke-width:133.695;stroke-linecap:butt;stroke-linejoin:miter;stroke-miterlimit:4;stroke-dasharray:none;stroke-dashoffset:0;stroke-opacity:1;-inkscape-stroke:none;stop-color:#000000"
       d="m 358.8426,480.31648 c 4.94536,7.7536 30.7868,-4.61062 43.22074,-5.05852 12.43394,-0.4479 31.90789,10.24202 35.84658,2.95737 3.93869,-7.28465 1.15736,-38.89033 -5.29152,-58.47101 -6.44888,-19.58068 -17.99601,-29.21369 -21.29291,-32.73775 -3.2969,-3.52407 -5.58175,-8.9842 -7.30268,-10.77886 -1.72092,-1.79466 -2.93474,-1.6407 -4.68821,0.43987 -1.75347,2.08058 -2.31276,4.39499 -7.07572,8.3007 -4.76295,3.90571 -14.80841,10.16237 -24.73992,34.44413 -9.9315,24.28176 -13.62172,53.15047 -8.67636,60.90407 z"
       id="path45511-5" />
    <path
       style="font-variation-settings:normal;display:inline;isolation:isolate;vector-effect:none;fill:#ffffff;fill-opacity:1;stroke:none;stroke-width:88.8406;stroke-linecap:butt;stroke-linejoin:miter;stroke-miterlimit:4;stroke-dasharray:none;stroke-dashoffset:0;stroke-opacity:1;-inkscape-stroke:none;stop-color:#000000"
       d="m 251.59146,381.52477 c 4.65417,1.79422 16.58099,-7.4721 23.0875,-8.67978 6.50652,-1.20768 18.28655,3.63234 21.53466,0.62648 3.24812,-3.00586 4.32183,-16.38411 -1.25551,-28.49703 -5.57733,-12.11291 -19.36637,-24.83345 -23.16895,-28.6423 -3.80259,-3.80885 -5.90644,-7.132 -7.23339,-8.11645 -1.32694,-0.98444 -2.10504,-0.74865 -3.02253,0.80934 -0.91749,1.55798 -1.02663,3.13642 -4.32354,9.24771 -3.2969,6.1113 -10.54361,18.07597 -12.73258,34.32741 -2.18896,16.25144 2.46018,27.1304 7.11434,28.92462 z"
       id="path45511-6" />
    <path
       style="font-variation-settings:normal;display:inline;isolation:isolate;vector-effect:none;fill:#ffffff;fill-opacity:1;stroke:none;stroke-width:137.679;stroke-linecap:butt;stroke-linejoin:miter;stroke-miterlimit:4;stroke-dasharray:none;stroke-dashoffset:0;stroke-opacity:1;-inkscape-stroke:none;stop-color:#000000"
       d="m 305.59166,371.61956 c 5.11484,5.32585 26.15655,-4.92587 36.40924,-4.68354 10.25269,0.24232 26.57553,11.33744 31.68827,7.54335 5.11274,-3.79409 8.54919,-24.6034 3.95119,-44.75191 -4.59801,-20.14851 -18.76255,-42.88962 -22.66237,-49.64892 -3.89981,-6.75931 -6.03129,-12.46976 -7.72994,-14.38572 -1.69866,-1.91595 -2.95389,-1.80636 -4.84194,0.26403 -1.88805,2.07039 -2.55668,4.42946 -7.9886,11.40793 -5.43191,6.97846 -16.84955,20.04656 -25.34968,43.99589 -8.50013,23.94934 -8.59101,44.93304 -3.47617,50.25889 z"
       id="path45511-6-7" />
  </g>
  <g
     id="layer8"
     style="display:inline"
     transform="translate(-34.254646,-266.49665)">
    <path
       style="font-variation-settings:normal;opacity:1;vector-effect:none;fill:#dbdbdb;fill-opacity:1;stroke:none;stroke-width:14.1732;stroke-linecap:butt;stroke-linejoin:miter;stroke-miterlimit:4;stroke-dasharray:none;stroke-dashoffset:0;stroke-opacity:1;-inkscape-stroke:none;stop-color:#000000;stop-opacity:1"
       d="m 251.57824,449.01409 c -8.35941,-14.45132 -19.04628,-32.92621 -25.66734,-40.17606 -6.62106,-7.24984 -16.12972,-12.61985 -25.21191,-17.1604 -9.0822,-4.54055 -13.59324,-6.00443 -14.19269,-5.91972 -0.59945,0.0847 1.26816,2.91266 6.17327,6.3621 4.9051,3.44943 23.8747,15.46362 28.12036,20.12621 4.24565,4.6626 4.92171,12.21378 9.89466,18.92016 4.97296,6.70639 12.47009,11.95619 20.88365,17.84771 z"
       id="path131956" />
    <path
       style="font-variation-settings:normal;opacity:1;vector-effect:none;fill:#dbdbdb;fill-opacity:1;stroke:none;stroke-width:14.1732;stroke-linecap:butt;stroke-linejoin:miter;stroke-miterlimit:4;stroke-dasharray:none;stroke-dashoffset:0;stroke-opacity:1;-inkscape-stroke:none;stop-color:#000000;stop-opacity:1"
       d="m 178.45303,492.95357 c -1.86041,-0.17233 -8.37502,-9.80614 -12.14175,-19.92058 -3.76674,-10.11444 -8.85975,-29.92816 -9.85237,-43.83174 -0.99262,-13.90358 1.45358,-24.47291 3.89965,-35.04169 -1.15665,19.21169 -1.99758,33.17944 2.76327,51.20253 4.76086,18.02308 13.7944,27.54672 16.37036,32.70128 2.57597,5.15456 0.82125,15.06252 -1.03916,14.8902 z"
       id="path142254" />
  </g>
  <g
     id="layer6"
     style="display:inline"
     transform="translate(-80.690512,-264.32668)">
    <path
       style="font-variation-settings:normal;opacity:1;isolation:isolate;vector-effect:none;fill:#444555;fill-opacity:1;stroke:none;stroke-width:76.0396;stroke-linecap:butt;stroke-linejoin:miter;stroke-miterlimit:4;stroke-dasharray:none;stroke-dashoffset:0;stroke-opacity:1;-inkscape-stroke:none;stop-color:#000000;stop-opacity:1"
       d="m 287.71919,492.8186 c -8.34758,-17.07537 -19.12489,-39.12089 -22.45689,-50.60439 -3.332,-11.4835 -4.71705,-31.64529 -9.98477,-41.37837 -5.26772,-9.73308 -15.21656,-14.41693 -24.94379,-18.99645 11.16606,2.09049 27.24625,5.101 30.41618,10.54025 3.16992,5.43924 3.46802,38.3499 7.93546,50.44538 4.46743,12.09549 28.26765,51.91055 44.59269,79.22047 0,0 -25.55888,-29.22689 -25.55888,-29.22689 z"
       id="path56700" />
    <path
       style="font-variation-settings:normal;opacity:1;isolation:isolate;vector-effect:none;fill:#444555;fill-opacity:1;stroke:none;stroke-width:76.0396;stroke-linecap:butt;stroke-linejoin:miter;stroke-miterlimit:4;stroke-dasharray:none;stroke-dashoffset:0;stroke-opacity:1;-inkscape-stroke:none;stop-color:#000000;stop-opacity:1"
       d="m 277.57888,470.53028 c -0.44067,-0.0726 -30.91808,-8.34111 -45.767,-17.28551 -14.84892,-8.94441 -29.77026,-23.98348 -32.84714,-33.32809 -3.07688,-9.3446 7.31624,-27.02889 7.74183,-27.13524 0.4256,-0.10636 -4.35177,14.86528 -0.0506,25.56364 4.30112,10.69835 18.744,26.8315 28.19887,32.94284 9.45488,6.11135 26.26238,10.24954 39.77631,13.57682 1.1515,1.94999 3.38845,5.73813 2.94778,5.66554 z"
       id="path60329" />
    <path
       style="font-variation-settings:normal;opacity:1;isolation:isolate;vector-effect:none;fill:#444555;fill-opacity:1;stroke:none;stroke-width:76.0396;stroke-linecap:butt;stroke-linejoin:miter;stroke-miterlimit:4;stroke-dasharray:none;stroke-dashoffset:0;stroke-opacity:1;-inkscape-stroke:none;stop-color:#000000;stop-opacity:1"
       d="m 229.06273,449.21296 c 13.69552,11.94626 36.96541,32.24401 39.4618,35.42726 2.49638,3.18324 8.36958,21.8597 14.24562,27.31325 5.87604,5.45355 25.5746,15.06875 40.33947,22.27574 -13.639,-8.19767 -33.41132,-20.08174 -38.07758,-24.60346 -4.66626,-4.52171 -11.54563,-21.58849 -14.2537,-24.99215 -2.70807,-3.40366 -20.33563,-18.95173 -31.22261,-28.55439 0,0 -10.493,-6.86625 -10.493,-6.86625 z"
       id="path62933" />
    <path
       style="font-variation-settings:normal;opacity:1;vector-effect:none;fill:#444555;fill-opacity:1;stroke:none;stroke-width:14.1732;stroke-linecap:butt;stroke-linejoin:miter;stroke-miterlimit:4;stroke-dasharray:none;stroke-dashoffset:0;stroke-opacity:1;-inkscape-stroke:none;stop-color:#000000;stop-opacity:1"
       d="m 257.17196,318.57002 c -3.58203,5.63794 -8.92347,14.0451 -7.77022,18.27908 1.15325,4.23398 11.77479,18.63719 18.18196,29.47398 6.40717,10.8368 8.63857,16.83555 11.36682,24.17004 1.9668,11.23682 5.80802,33.18271 5.74137,33.04255 -0.0666,-0.14015 -6.87859,-24.53228 -17.95367,-47.49524 -11.07508,-22.96296 -21.19468,-36.33931 -22.11288,-40.07747 -0.9182,-3.73816 7.33788,-12.11071 12.54662,-17.39294 z"
       id="path84450" />
    <path
       style="font-variation-settings:normal;opacity:1;vector-effect:none;fill:#444555;fill-opacity:1;stroke:none;stroke-width:14.1732;stroke-linecap:butt;stroke-linejoin:miter;stroke-miterlimit:4;stroke-dasharray:none;stroke-dashoffset:0;stroke-opacity:1;-inkscape-stroke:none;stop-color:#000000;stop-opacity:1"
       d="m 257.90575,359.23528 c 0.11452,0.68598 9.92651,27.65229 12.36507,42.51199 2.43856,14.8597 1.37262,31.81323 2.09497,39.36196 0.72235,7.54874 4.48163,19.45094 8.33486,28.6983 3.85322,9.24736 7.60284,16.13961 11.7008,23.67216 -6.66211,-16.54358 -12.81042,-31.81126 -15.8437,-47.47739 -3.03328,-15.66612 -1.94943,-28.86819 -2.43875,-38.78373 -0.48932,-9.91555 -2.92239,-21.4696 -5.07668,-31.69982 -3.94995,-5.95752 -11.25108,-16.96945 -11.13657,-16.28347 z"
       id="path87461" />
    <path
       style="font-variation-settings:normal;opacity:1;vector-effect:none;fill:#444555;fill-opacity:1;stroke:none;stroke-width:14.1732;stroke-linecap:butt;stroke-linejoin:miter;stroke-miterlimit:4;stroke-dasharray:none;stroke-dashoffset:0;stroke-opacity:1;-inkscape-stroke:none;stop-color:#000000;stop-opacity:1"
       d="m 273.42828,317.98426 c 5.76773,5.36773 13.38837,12.45987 14.85899,22.39159 1.47061,9.93172 -1.20249,54.46516 -0.70126,63.09426 0.50124,8.6291 6.0962,30.01617 9.72267,43.87854 0.9812,3.00574 2.89772,8.87666 2.83747,8.54863 -0.0602,-0.32802 -8.25203,-39.54912 -8.94199,-52.78862 -0.68996,-13.2395 1.938,-60.03707 0.71134,-66.66595 -1.22667,-6.62887 -11.70726,-13.81178 -18.48722,-18.45845 z"
       id="path96098" />
    <path
       style="font-variation-settings:normal;opacity:1;vector-effect:none;fill:#444555;fill-opacity:1;stroke:none;stroke-width:14.1732;stroke-linecap:butt;stroke-linejoin:miter;stroke-miterlimit:4;stroke-dasharray:none;stroke-dashoffset:0;stroke-opacity:1;-inkscape-stroke:none;stop-color:#000000;stop-opacity:1"
       d="m 328.63022,284.85247 c -0.0971,-0.0313 -14.67998,16.86387 -13.76601,21.81742 0.91398,4.95354 16.18728,34.68698 22.2625,53.60052 6.07522,18.91354 5.22151,25.87187 4.09285,35.07134 2.74268,-10.15796 7.28678,-26.98779 5.91107,-32.11015 -1.37572,-5.12237 -25.06607,-48.48243 -26.60651,-54.61929 -1.54044,-6.13686 8.20325,-23.72856 8.1061,-23.75984 z"
       id="path104683" />
    <path
       style="font-variation-settings:normal;opacity:1;vector-effect:none;fill:#444555;fill-opacity:1;stroke:none;stroke-width:14.1732;stroke-linecap:butt;stroke-linejoin:miter;stroke-miterlimit:4;stroke-dasharray:none;stroke-dashoffset:0;stroke-opacity:1;-inkscape-stroke:none;stop-color:#000000;stop-opacity:1"
       d="m 321.08822,320.92622 c 2.21875,16.04492 6.01211,43.47668 4.56005,48.17913 -1.45206,4.70244 -29.59329,42.34932 -31.54812,47.69234 -1.95483,5.34302 2.19527,21.1612 4.80008,31.08947 -1.66329,-10.02737 -3.75599,-22.64353 0.30085,-32.2786 4.05684,-9.63508 27.0561,-38.7461 29.39265,-45.23954 2.33655,-6.49343 -0.50942,-28.47014 -2.32582,-42.49651 0,0 -5.17969,-6.94629 -5.17969,-6.94629 z"
       id="path108463" />
    <path
       style="font-variation-settings:normal;opacity:1;vector-effect:none;fill:#444555;fill-opacity:1;stroke:none;stroke-width:14.1732;stroke-linecap:butt;stroke-linejoin:miter;stroke-miterlimit:4;stroke-dasharray:none;stroke-dashoffset:0;stroke-opacity:1;-inkscape-stroke:none;stop-color:#000000;stop-opacity:1"
       d="m 343.69489,356.79624 c -0.20444,-0.24298 -10.18271,-17.59602 -7.65377,-23.26536 2.52893,-5.66934 27.11909,-24.7879 29.57297,-28.12267 2.45387,-3.33476 -1.32266,-9.66664 -3.79236,-13.80743 5.27153,5.27395 12.62317,12.62897 9.92079,17.45322 -2.70237,4.82426 -26.86027,22.96651 -30.6524,28.89958 -3.79213,5.93307 2.80922,19.08565 2.60477,18.84266 z"
       id="path111764" />
    <path
       style="font-variation-settings:normal;opacity:1;vector-effect:none;fill:#444555;fill-opacity:1;stroke:none;stroke-width:14.1732;stroke-linecap:butt;stroke-linejoin:miter;stroke-miterlimit:4;stroke-dasharray:none;stroke-dashoffset:0;stroke-opacity:1;-inkscape-stroke:none;stop-color:#000000;stop-opacity:1"
       d="m 387.44641,387.9137 c -9.6938,8.03747 -22.25982,18.45639 -20.63543,33.6273 1.6244,15.17091 19.20634,58.27 23.69513,81.42139 4.4888,23.15138 -1.01286,30.88049 -6.91392,39.17069 0,0 -4.23642,10.12806 -4.23642,10.12806 8.56602,-10.96197 19.1125,-24.45834 17.4221,-41.68119 -1.69039,-17.22286 -19.76031,-64.39616 -22.21785,-82.74349 -2.45754,-18.34733 5.79141,-29.94636 12.88639,-39.92276 z"
       id="path115789" />
    <path
       style="font-variation-settings:normal;opacity:1;vector-effect:none;fill:#444555;fill-opacity:1;stroke:none;stroke-width:14.1732;stroke-linecap:butt;stroke-linejoin:miter;stroke-miterlimit:4;stroke-dasharray:none;stroke-dashoffset:0;stroke-opacity:1;-inkscape-stroke:none;stop-color:#000000;stop-opacity:1"
       d="m 383.59219,542.13308 c -1.1452,-16.6216 -2.51614,-36.51951 -7.7493,-49.74177 -5.23315,-13.22226 -23.3205,-38.03992 -27.46533,-45.62767 -4.14484,-7.58774 -4.62968,-15.69679 -4.99589,-21.82179 0,0 2.68067,-13.66553 2.68067,-13.66553 -0.52734,10.68018 -0.96702,19.58494 6.15272,34.77225 7.11974,15.1873 21.05086,31.99245 26.55139,43.54482 5.50053,11.55237 8.18993,31.54475 10.32421,47.41047 0,0 -5.49847,5.12922 -5.49847,5.12922 z"
       id="path121161" />
  </g>
  <g
     id="layer9"
     transform="translate(-34.254646,-266.49665)">
    <path
       style="font-variation-settings:normal;opacity:1;vector-effect:none;fill:#9ece6a;fill-opacity:1;stroke:none;stroke-width:15.7662;stroke-linecap:butt;stroke-linejoin:miter;stroke-miterlimit:4;stroke-dasharray:none;stroke-dashoffset:0;stroke-opacity:1;-inkscape-stroke:none;stop-color:#000000;stop-opacity:1"
       d="M 34.254646,770.92358 C 87.380587,720.57604 178.84938,633.89091 185.88164,620.73252 c 7.03226,-13.15838 1.57917,-106.55178 6.29544,-117.91522 4.71628,-11.36344 43.03518,3.47526 47.48078,11.68983 4.44561,8.21458 38.3981,128.87693 40.29415,134.52441 1.89605,5.64749 -14.62363,-61.12086 -6.86657,-68.90202 7.75707,-7.78117 91.94553,-3.9326 101.65872,-1.40343 9.7132,2.52917 22.40616,23.12378 22.47244,28.55427 0.0663,5.43048 -8.61107,17.5659 -14.71171,26.09773 0,0 65.67671,97.18541 65.67671,97.18541 0,0 1.14762,57.41756 1.14762,57.41756 0,0 -88.86867,-3.04644 -88.86867,-3.04644 -18.02384,-42.3611 -42.17172,-99.1154 -46.69926,-106.38771 -4.52755,-7.27232 1.24482,19.96559 5.55337,40.29619 -14.04253,-3.34068 -29.7273,-7.07205 -39.27552,-19.33464 -9.54823,-12.2626 -18.84543,-42.21836 -22.63606,-45.89187 -3.79062,-3.6735 -5.01493,17.79559 -12.69438,35.66792 -7.67946,17.87233 -30.43224,53.73527 -49.12667,83.20145 0,0 -161.327384,-1.56238 -161.327384,-1.56238 z"
       id="path147133" />
  </g>
  <g
     id="layer7"
     transform="translate(-34.254646,-266.49665)">
    <path
       style="fill:#ffffff;fill-opacity:1;stroke:#ffffff;stroke-width:18.8976;stroke-linecap:round;stroke-linejoin:round;stroke-miterlimit:300;paint-order:fill markers stroke"
       id="path75515"
       d="m 347.29991,820.98139 54.75596,27.20906 53.45617,-29.68141 -8.95684,60.48407 44.74756,41.66778 -60.29158,10.17215 -25.80066,55.43351 -28.3054,-54.19734 -60.69325,-7.40798 42.79788,-43.66794 z"
       transform="matrix(0.8256421,0,0,0.8256421,58.236824,-37.096137)" />
    <path
       style="isolation:isolate;fill:#ffffff;fill-opacity:1;stroke:#ffffff;stroke-width:18.8976;stroke-linecap:round;stroke-linejoin:round;stroke-miterlimit:300;paint-order:fill markers stroke"
       id="path75515-3"
       transform="matrix(0.18244133,-0.54001983,0.54001983,0.18244133,-267.2614,793.30115)"
       d="m 347.29991,820.98139 54.75596,27.20906 53.45617,-29.68141 -8.95684,60.48407 44.74756,41.66778 -60.29158,10.17215 -25.80066,55.43351 -28.3054,-54.19734 -60.69325,-7.40798 42.79788,-43.66794 z" />
  </g>
</svg>
