<?xml version="1.0" encoding="UTF-8"?>
<!-- Created with Inkscape (http://www.inkscape.org/) -->
<svg width="1570.2" height="571.92" version="1.1" viewBox="0 0 415.45 151.32" xmlns="http://www.w3.org/2000/svg">
 <g transform="translate(-8.3121 -35.363)" type="delete">
  <rect x="-1.5174" y="-.83339" width="442.15" height="199.51" fill="#cacaca" stroke-width=".55272"/>
 </g>
 <g id="letter_r_shadow" transform="translate(-8.3121 -35.363)" type="layer">
  <path d="m8.8998 137.38c-1.9334 6.1039 2.0667 30.415 3.8837 29.01 1.817-1.4053 24.496-48.103 28.728-53.544s37.087-30.291 40.346-33.582 11.979-18.096 17.216-26.988c-3.7178 3.5224-7.9077 7.4921-17.227 14.02-9.3189 6.5281-40.46 26.722-45.381 31.241-4.921 4.5185-25.632 33.739-27.565 39.843z" fill="#43221b" stop-color="#000000" style="-inkscape-stroke:none;font-variation-settings:normal"/>
  <g fill="#a2a2a2">
   <path d="m34.261 143.83c-1.4576 1.6753-13.355 5.974-12.978 3.4635 0.37686-2.5105 13.169-24.864 17.964-30.539s17.513-13.641 26.198-16.06c8.6847-2.419 47.077-9.4742 73.099-14.256-23.65 5.1217-63.139 13.674-68.297 15.532-5.1578 1.8579-16.366 10.915-22.923 19.471-6.5572 8.5557-11.605 20.714-13.062 22.389z" stop-color="#000000" style="-inkscape-stroke:none;font-variation-settings:normal"/>
   <path d="m77.667 137.28c0.27714-1.4441 8.3943-7.7646 12.47-7.1897 4.0754 0.57488 32.661 13.205 35.529 16.014 2.8678 2.8091 13.007 28.472 10.088 28.248-2.9188-0.22425-45.425-29.021-48.353-30.882-2.9273-1.8613-10.012-4.7464-9.7344-6.1905z" stop-color="#000000" style="-inkscape-stroke:none;font-variation-settings:normal"/>
   <path d="m89.335 123.3c-1.06 0.60209-12.958 7.3598-11.93 8.1605 1.0273 0.80071 30.546 6.9102 36.313 4.4923s76.922-51.455 79.881-53.039c2.959-1.5846 6.492 6.3771 10.059 7.567 3.5674 1.1899 30.56 3.3849 31.68 3.3154 1.1197-0.06955 1.0346-4.5973 0.10856-4.9886-0.92599-0.39134-35.653-10.469-37.29-10.291-1.6366 0.17881-18.713 9.0109-38.527 19.428-19.814 10.417-42.564 22.553-48.735 24.789-6.1701 2.2359-18.128 0.34001-19.314 0.15193s-1.1862-0.18808-2.2463 0.41401z" stop-color="#000000" style="-inkscape-stroke:none;font-variation-settings:normal"/>
   <path d="m123.24 108c-2.4108 1.7088 11.364 7.8983 16.412 5.7914 5.048-2.1069 51.383-33.041 50.788-34.888-0.59569-1.8478-29.636 2.9162-59.001 8.5844-29.364 5.6681-53.822 11.329-51.641 11.189 2.1814-0.14056 77.851-11.188 83.242-10.111s-37.39 17.726-39.8 19.435z" stop-color="#000000" style="-inkscape-stroke:none;font-variation-settings:normal"/>
   <path d="m98.167 60.768c-4.6611 0.31904-17.992 15.036-15.649 16.086s36.597 1.8739 39.335 4.0235c2.7377 2.1496-25.16 8.7379-26.459 9.1946s-4.0984 6.2346-2.3764 5.7711c1.722-0.46346 61.181-21.188 61.407-23.183s-51.597-12.211-56.258-11.892z" stop-color="#000000" style="-inkscape-stroke:none;font-variation-settings:normal"/>
   <path d="m98.355 76.688 4.528 12.336 1.1908-0.67622-4.3738-11.67z" stop-color="#000000" style="-inkscape-stroke:none;font-variation-settings:normal"/>
  </g>
 </g>
 <g id="letter_d_shadow" transform="translate(-8.3121 -35.363)" type="layer">
  <path d="m196.85 88.703c-0.67533 0.89584-23.365 15.773-21.911 22.052 1.4539 6.2791 33.799 31.422 37.588 32.452 3.7888 1.0295 42.384-2.2571 63.903-4.0896 0.42448 1.0351 1.1422 2.7852-0.38194 3.5219s-24.226 8.9699-27.319 9.1959-8.7391-5.6802-11.032-5.9857c-2.2926-0.30546-23.349 2.6235-26.868 1.4801-3.5188-1.1434-51.832-26.662-53.687-30.659-1.8545-3.9967 18.362-22.806 24.158-26.289 5.7954-3.4834 16.226-2.5736 15.551-1.6778z" fill="#64382e" stop-color="#000000" style="-inkscape-stroke:none;font-variation-settings:normal"/>
  <path d="m207.38 149.43c-0.52393-1.417 1.3573-4.9245 2.9133-3.8535s17.049 16.031 20.796 17.018c3.7472 0.98654 26.356-4.5068 27.665-4.5792 1.3081-0.0724-0.12266 4.725-1.154 5.7208-1.0313 0.99576-28.043 23.707-30.75 22.934-2.707-0.77327-18.946-35.823-19.47-37.24z" fill="#64382e" stop-color="#000000" style="-inkscape-stroke:none;font-variation-settings:normal"/>
  <path d="m234.31 181.78c0.95751-0.86292 28.82-22.75 31.072-22.859 2.2513-0.10979 52.121 11.896 78.672 18.288-0.83188 0.98806-2.3987 2.849-3.9386 2.6813-1.5398-0.16773-69.495-10.434-73.476-10.331s-27.846 12.315-28.965 12.811c-1.1187 0.49612-4.3213 0.27242-3.3638-0.5905z" fill="#a2a2a2" stop-color="#000000" style="-inkscape-stroke:none;font-variation-settings:normal"/>
  <g fill="#64382e">
   <path d="m139.27 139.53c-1.1994 0.99003-1.7697 5.9945-0.65668 5.3382s17.267-14.457 20.176-13.881c2.9097 0.57543 17.038 19.322 19.158 21.196s6.0604 0.81196 8.6187 0.12228c-5.2204-11.253-14.071-30.331-16.531-30.952-2.4597-0.62082-29.567 17.186-30.766 18.176z" stop-color="#000000" style="-inkscape-stroke:none;font-variation-settings:normal"/>
   <path d="m182.9 147.86 26.913 2.358 0.0291 1.2304-26.398-2.3401z" stop-color="#000000" style="-inkscape-stroke:none;font-variation-settings:normal"/>
   <path d="m221.54 99.61c-0.2211 1.8284 3.3487 10.543 7.2907 12.126s45.962 9.0839 48.268 9.996 12.845 15.136 13.232 15.53c0.38693 0.39361 2.75-0.83488 2.6063-1.2445s-9.0914-18.331-12.237-20.199c-3.146-1.8679-50.822-17.659-52.205-18.05-1.3827-0.39052-6.7328 0.01278-6.9539 1.8412z" stop-color="#000000" style="-inkscape-stroke:none;font-variation-settings:normal"/>
  </g>
 </g>
 <g id="letter_p_shadow" transform="translate(-8.3121 -35.363)" type="layer">
  <path d="m306.15 67.931c-0.27217 0.83775-5.4522 34.829-3.2028 40.46 2.2495 5.6313 32.108 49.278 49.579 74.816l-1.1651-4.4894c-14.335-25.203-38.453-67.606-40.152-72.573-1.6992-4.9668 6.8056-19.208 7.057-21.227 0.25142-2.0196-4.3764-14.356-5.504-15.885s-6.3395-1.9391-6.6117-1.1013z" fill="#a2a2a2" stop-color="#000000" style="-inkscape-stroke:none;font-variation-settings:normal"/>
  <path d="m331.64 89.913c3.158 0.28644 72.089 18.623 76.492 22.504 4.403 3.8812-16.96 19.231-25.887 22.383-8.9264 3.1519-44.022 6.6682-45.926 6.7661-1.9045 0.0979-2.8482-1.9923-1.9111-2.2366 0.93701-0.24428 37.59-7.8181 43.694-10.27 6.1036-2.4518 11.686-11.272 8.4493-12.123s-63.395-4.4398-66.456-4.9971c-3.0606-0.55723-2.5641-6.8058-1.2615-9.2996 1.3026-2.4938 9.6482-13.014 12.806-12.727z" fill="#43221b" stop-color="#000000" style="-inkscape-stroke:none;font-variation-settings:normal"/>
  <path d="m341.7 112.41c-3.1907 1.202-16.618 14.513-16.726 17.632-0.10807 3.1187 8.8784 18.392 14.491 27.93l8.313 14.715 1.6031 0.35927c-1.5825-6.3684-3.8552-15.514-4.931-17.488-1.0758-1.9741-5.2372-3.1552-6.9275-5.296-1.6902-2.1408-9.619-16.951-8.7422-18.458 0.87683-1.5065 18.042-9.5705 26.069-13.342 8.0273-3.7713 11.647-5.4718 10.102-5.9797-1.5442-0.50791-20.061-1.2747-23.252-0.0727z" fill="#a2a2a2" stop-color="#000000" style="-inkscape-stroke:none;font-variation-settings:normal"/>
 </g>
 <g id="letter_r" transform="translate(-8.3121 -35.363)" type="layer">
  <path d="m8.8623 137.17c-1.9773 5.942 1.8713 28.101 3.7053 26.644 1.8341-1.4567 24.928-46.627 29.109-51.917 4.181-5.2903 35.96-29.691 39.27-33.034 3.31-3.343 17.997-26.309 18.454-27.319 0.45662-1.0107-3.9724-0.30222-5.8028 1.2801-1.8304 1.5823-13.202 13.871-20.28 19.233-7.078 5.3621-33.125 21.239-37.329 25.244-4.2041 4.0048-25.148 33.927-27.125 39.869z" fill="#7c3c2e" stop-color="#000000" style="-inkscape-stroke:none;font-variation-settings:normal"/>
  <g fill="#fff">
   <path d="m34.315 142.87c-1.3751 1.5745-13.647 5.745-13.392 4.1538 0.25507-1.5912 13.93-25.631 18.664-31.221s17.452-13.558 26.136-15.977c8.6847-2.419 47.077-9.4742 73.099-14.256-24.615 5.5448-65.716 14.803-70.874 16.661s-14.94 10.29-20.981 18.574c-6.0409 8.2833-11.278 20.491-12.653 22.065z" stop-color="#000000" style="-inkscape-stroke:none;font-variation-settings:normal"/>
   <path d="m77.577 136.8c0.2816-1.3989 8.6909-8.063 12.802-7.5307 4.1116 0.53237 32.698 13.163 35.565 15.972s13.007 28.472 10.085 28.217-45.462-29.389-48.41-31.226-10.325-4.0333-10.043-5.4322z" stop-color="#000000" style="-inkscape-stroke:none;font-variation-settings:normal"/>
   <path d="m90.787 122.64c-2.2593 0.42777-14.303 7.3399-13.261 8.0694 1.0415 0.72953 30.949 5.5001 36.706 3.0846s76.327-50.019 79.264-51.585c2.9362-1.5658 6.4727 5.5338 10.024 6.7505s30.402 4.5073 31.544 4.493c1.1427-0.01425 1.8724-4.2676 0.93919-4.6577s-36.765-10.704-38.409-10.544c-1.6438 0.16013-18.316 8.7169-37.908 18.983-19.592 10.266-42.342 22.402-48.513 24.638-6.1701 2.2359-18.128 0.34001-20.387 0.76778z" stop-color="#000000" style="-inkscape-stroke:none;font-variation-settings:normal"/>
   <path d="m123.52 107.14c-2.4108 1.7088 11.364 7.8983 16.412 5.7914 5.048-2.1069 51.383-33.041 50.788-34.888s-29.636 2.9162-59.001 8.5844c-29.364 5.6681-53.822 11.329-51.641 11.189s77.851-11.188 83.242-10.111c5.3907 1.0775-37.39 17.726-39.8 19.435z" stop-color="#000000" style="-inkscape-stroke:none;font-variation-settings:normal"/>
   <path d="m98.414 59.952c-4.6933 0.36821-18.475 15.774-16.082 16.776 2.3927 1.002 37.494 0.83261 40.331 2.8304 2.837 1.9978-25.641 9.143-26.965 9.624-1.3243 0.48098-4.1237 6.2589-2.4017 5.7954 1.722-0.46346 61.181-21.188 61.407-23.183 0.22652-1.9949-51.597-12.211-56.29-11.842z" stop-color="#000000" style="-inkscape-stroke:none;font-variation-settings:normal"/>
   <path d="m98.634 75.823 4.528 12.336 1.1908-0.67622-4.3738-11.67z" stop-color="#000000" style="-inkscape-stroke:none;font-variation-settings:normal"/>
  </g>
 </g>
 <g id="letter_d" transform="translate(-8.3121 -35.363)" type="layer">
  <path d="m197.06 88.383c-0.63112 0.85978-23.517 14.703-22.094 20.818 1.4228 6.1154 33.768 31.259 37.551 32.347 3.783 1.0885 42.277-1.172 63.74-2.4324 0.55239 0.87868 1.4864 2.3643-0.0286 2.988-1.515 0.62369-24.376 7.592-27.449 7.7724-3.0735 0.18043-8.3935-4.915-10.686-5.1895-2.2926-0.27444-23.712 2.1225-27.249 0.95205s-51.851-26.689-53.777-30.627c-1.9262-3.9382 17.59-22.176 23.419-25.48 5.8294-3.3033 17.206-2.0086 16.574-1.1488z" fill="#bc5a45" stop-color="#000000" style="-inkscape-stroke:none;font-variation-settings:normal"/>
  <path d="m207.38 147.69c-0.51643-1.3975 1.3648-4.905 2.9208-3.834 1.556 1.071 17.049 16.031 20.796 17.018 3.7472 0.98654 26.356-4.5068 27.665-4.5792 1.3081-0.0724-0.12268 4.725-1.1614 5.7014-1.0388 0.97644-28.255 23.155-30.962 22.382-2.707-0.77327-18.742-35.291-19.258-36.688z" fill="#bc5a45" stop-color="#000000" style="-inkscape-stroke:none;font-variation-settings:normal"/>
  <path d="m234.32 180.06c0.95751-0.86292 28.82-22.75 31.073-22.825 2.2531-0.0757 52.178 12.984 78.759 19.937-0.9443 0.77638-2.7228 2.2386-4.2644 2.0382s-69.277-11.393-73.249-11.33c-3.972 0.0632-27.837 12.275-28.955 12.771-1.1187 0.49612-4.3213 0.27242-3.3638-0.5905z" fill="#fffcfc" stop-color="#000000" style="-inkscape-stroke:none;font-variation-settings:normal"/>
  <path d="m139.27 137.81c-1.1994 0.99002-1.7697 5.9945-0.65669 5.3382s17.267-14.457 20.176-13.881c2.9097 0.57543 17.038 19.322 19.112 21.22 2.0734 1.8979 5.7003 0.99438 8.0551 0.40775-5.017-11.356-13.522-30.609-15.951-31.246-2.4287-0.63651-29.536 17.171-30.735 18.161z" fill="#a34734" stop-color="#000000" style="-inkscape-stroke:none;font-variation-settings:normal"/>
  <path d="m183.07 147.31 26.913 2.358 0.0291 1.2304-26.398-2.3401z" fill="#a34734" stop-color="#000000" style="-inkscape-stroke:none;font-variation-settings:normal"/>
  <path d="m221.5 99.481c-0.22101 1.8284 3.3824 9.2388 7.328 10.68 3.9456 1.4412 45.966 8.9419 48.271 9.854 2.3054 0.91211 12.845 15.136 13.224 15.565 0.37948 0.42937 2.482 0.42937 2.3381 0.0197s-8.8432-19.501-11.976-21.434c-3.1323-1.9325-50.809-17.724-52.192-18.068-1.3839-0.34413-6.7726 1.5544-6.9936 3.3829z" fill="#bc5a45" stop-color="#000000" style="-inkscape-stroke:none;font-variation-settings:normal"/>
 </g>
 <g id="letter_p" transform="translate(-8.3121 -35.363)" type="layer">
  <path d="m306.44 66.662c-0.26073 0.8234-5.4408 34.815-3.2087 40.5 2.2321 5.6854 31.886 49.968 49.237 75.879l-0.80646-5.6061c-14.335-25.203-38.453-67.606-40.204-72.611-1.7512-5.0044 5.9868-19.8 6.208-21.782s-4.0858-13.333-5.1289-14.802c-1.0431-1.4685-5.8364-2.4016-6.0972-1.5782z" fill="#fff" stop-color="#000000" style="-inkscape-stroke:none;font-variation-settings:normal"/>
  <path d="m331.93 88.629c3.158 0.28644 72.089 18.623 76.492 22.504 4.403 3.8812-16.96 19.231-25.887 22.383-8.9264 3.1519-44.022 6.6682-45.926 6.7661s-2.8482-1.9923-1.9112-2.2366c0.93702-0.24428 37.59-7.8181 43.694-10.27 6.1036-2.4518 11.686-11.272 8.4493-12.123-3.2366-0.85102-63.395-4.4399-66.456-4.9971s-2.5641-6.8058-1.2615-9.2996c1.3026-2.4938 9.6482-13.014 12.806-12.727z" fill="#7c3c2e" stop-color="#000000" style="-inkscape-stroke:none;font-variation-settings:normal"/>
  <path d="m342 111.13c-3.1907 1.202-16.618 14.513-16.726 17.632-0.10806 3.1187 8.8784 18.392 14.491 27.93l8.313 14.715 1.6031 0.35927c-1.5825-6.3684-3.8552-15.514-4.931-17.488-1.0758-1.9741-5.2372-3.1552-6.9275-5.296-1.6902-2.1409-9.5698-16.859-8.2078-18.651s32.599-16.468 33.681-18.038c1.0817-1.5704-18.105-2.3649-21.296-1.1629z" fill="#fff" stop-color="#000000" style="-inkscape-stroke:none;font-variation-settings:normal"/>
 </g>
 <g id="letter_r_pieces" transform="translate(-8.3121 -35.363)" type="layer">
  <path d="m37.704 136.85c6.1885-10.053 12.952-21.041 20.048-25.858 7.0961-4.8176 25.788-5.944 26.323-6.0103 0.53429-0.0662-0.13112-1.3027-0.06404-1.7396 0.06708-0.43696 1.1311-1.8598 1.6516-1.8065 0.52052 0.0533 19.182 3.945 19.146 4.125-0.0366 0.18002-21.199 8.5738-21.765 8.7485s-1.4101-1.2289-1.3666-1.4819c0.04346-0.25302 1.3792-1.8715 0.57802-2.0061-0.8012-0.13455-18.119-1.4288-23.175 1.5782-5.0561 3.007-17.361 21.474-18.35 22.812-0.98894 1.3382-2.2745 1.5282-3.0253 1.6393z" fill="#7c3c2e" stop-color="#000000" style="-inkscape-stroke:none;font-variation-settings:normal"/>
  <path d="m50.382 120.14c2.8134-3.221 6.9811-7.9924 13.666-7.358s55.071 12.576 61.14 12.394 21.44-10.976 30.895-17.616c0.34397 1.9816 0.93867 5.4074-0.35589 6.3385-1.2946 0.93106-25.274 12.775-30.018 13-4.7436 0.22469-50.202-6.9976-57.177-7.612-6.9751-0.61438-12.138 1.616-13.541 1.8552-1.4025 0.23924-3.2418-0.47272-4.609-1.002z" fill="#7c3c2e" stop-color="#000000" style="-inkscape-stroke:none;font-variation-settings:normal"/>
  <path d="m37.629 136.8c5.0819-9.5264 10.636-19.938 17.668-24.863 7.0322-4.9247 27.633-7.5584 28.223-7.6691 0.59067-0.11075-0.07474-1.3472-0.0077-1.7842 0.06708-0.43696 1.1311-1.8598 1.6897-1.788 0.55856 0.0718 20.685 4.6743 20.649 4.8543-0.0366 0.18001-22.664 7.8625-23.269 8.019-0.60455 0.15648-1.4477-1.2471-1.4042-1.5002 0.04346-0.25302 1.3792-1.8715 0.57306-1.9893-0.80618-0.11772-18.224-1.0728-23.241 1.9868-5.0166 3.0596-17.737 22.636-18.285 23.405-0.54819 0.76881-1.8741 1.1311-2.5962 1.3284z" fill="#bc5a45" stop-color="#000000" style="-inkscape-stroke:none;font-variation-settings:normal"/>
  <path d="m151.88 96.683-1.1484 15.743 0.59373-0.26159 1.6719-15.959z" fill="#7c3c2e" stop-color="#000000" style="-inkscape-stroke:none;font-variation-settings:normal"/>
  <path d="m146.35 90.212c0.8193 0.09928 12.096-0.38655 12.216 0.4067 0.11953 0.79325-10.956 5.845-11.593 6.2553-0.63717 0.41027 1.6815 1.5285 2.6204 1.163 0.93889-0.3655 22.569-10.653 22.579-11.464 0.0104-0.81098-21.778 1.2898-22.599 1.4218s-4.043 2.1179-3.2237 2.2171z" fill="#7c3c2e" stop-color="#000000" style="-inkscape-stroke:none;font-variation-settings:normal"/>
  <path d="m50.663 119.76c2.5536-3.3467 6.3363-8.3044 12.954-7.7026 6.6174 0.60187 55.003 12.543 61.112 12.398 6.1084-0.14502 21.821-10.617 31.486-17.059 0.13371 1.7834 0.36487 4.8667-0.95819 5.7709-1.323 0.9042-25.303 12.749-30.046 12.973-4.7436 0.22469-50.202-6.9976-57.177-7.612-6.9751-0.61438-12.138 1.616-13.456 1.8964-1.3174 0.28041-2.8072-0.2624-3.9146-0.6659z" fill="#bc5a45" stop-color="#000000" style="-inkscape-stroke:none;font-variation-settings:normal"/>
  <path d="m146.75 89.84c0.79877 0.07066 11.426-0.67978 11.473 0.14004 0.0468 0.81982-10.769 6.3002-11.406 6.7102-0.63667 0.40999 1.3548 0.99001 2.3064 0.6229 0.95154-0.36711 23.205-10.198 23.241-10.972 0.0368-0.77424-22.112 1.2407-22.927 1.3682-0.81502 0.12753-3.4862 2.06-2.6874 2.1307z" fill="#bc5a45" stop-color="#000000" style="-inkscape-stroke:none;font-variation-settings:normal"/>
  <path d="m38.163 87.507c-0.95481 0.55807-9.8375 3.8235-12.472 6.4176-2.6348 2.594-6.0765 12.324-6.3467 12.862s-2.0879 0.87236-2.4436-0.84435c-0.35573-1.7167-1.6032-15.324 0.31927-17.504 1.9225-2.1801 16.955-2.4645 18.073-2.428 1.1183 0.0365 3.8248 0.93896 2.87 1.497z" fill="#7c3c2e" stop-color="#000000" style="-inkscape-stroke:none;font-variation-settings:normal"/>
  <path d="m151.38 95.921-1.1484 15.743 0.59373-0.26159 1.6719-15.959z" fill="#bc5a45" stop-color="#000000" style="-inkscape-stroke:none;font-variation-settings:normal"/>
  <path d="m37.665 86.744c-0.95481 0.55807-9.8375 3.8235-12.472 6.4176-2.6348 2.594-6.0765 12.324-6.3467 12.862s-2.0879 0.87236-2.4436-0.84435c-0.35573-1.7167-1.6032-15.324 0.31927-17.504 1.9225-2.1801 16.955-2.4645 18.073-2.428 1.1183 0.0365 3.8248 0.93896 2.87 1.497z" fill="#bc5a45" stop-color="#000000" style="-inkscape-stroke:none;font-variation-settings:normal"/>
  <path d="m71.602 110.31-1.5099 3.0424 0.91137 0.0714 1.3627-3.1184z" fill="#7c3c2e" stop-color="#000000" style="-inkscape-stroke:none;font-variation-settings:normal"/>
  <path d="m71.103 109.55-1.1794 3.8781 0.64878 0.0952 1.2948-3.9779z" fill="#bc5a45" stop-color="#000000" style="-inkscape-stroke:none;font-variation-settings:normal"/>
  <path d="m8.1293 150.18c-0.048054-1.0014 1.3852-1.7892 1.5386-1.3797s2.2281 9.7178 4.641 7.5829c2.4129-2.1349 15.086-24.143 15.926-25.519 0.84089-1.3758 1.2197-0.33932 1.0419 0.0869-0.17775 0.42625-15.762 36.163-18.344 38.218-2.5823 2.055-4.7557-17.988-4.8037-18.989z" fill="#7c3c2e" stop-color="#000000" style="-inkscape-stroke:none;font-variation-settings:normal"/>
  <path d="m30.023 132.31 11.099-1.874-0.14431 0.48162-11.22 2.2469z" fill="#7c3c2e" stop-color="#000000" style="-inkscape-stroke:none;font-variation-settings:normal"/>
  <path d="m30.388 131.77 11.099-1.874-0.34959 0.66404-11.015 2.0645z" fill="#bc5a45" stop-color="#000000" style="-inkscape-stroke:none;font-variation-settings:normal"/>
  <path d="m7.8985 148.44c-0.030808-1.0032 1.4024-1.791 1.5559-1.3815 0.15347 0.40951 2.2281 9.7178 4.6544 7.6044s15.181-23.99 16.032-25.292c0.85124-1.3015 1.3319 1.0544 1.1486 1.4795-0.18323 0.42502-16.327 34.93-18.935 36.802-2.6079 1.8716-4.425-18.209-4.4558-19.212z" fill="#a34734" stop-color="#000000" style="-inkscape-stroke:none;font-variation-settings:normal"/>
 </g>
 <g id="letter_d_pieces" transform="translate(-8.3121 -35.363)" fill="#7c3c2e" type="layer">
  <path d="m178.8 88.303c-0.79863 0.7745-22.418 21.74-23.228 25.471-0.81076 3.7309 12.661 10.198 14.214 10.65 1.553 0.45201 1.4945-2.4686 1.0427-3.1568s-6.0323-6.6831-5.1073-10.379c0.92498-3.6956 11.015-17.313 12.215-19.089 1.2001-1.7752 1.633-4.1101 1.648-4.1908 0.0149-0.08065 0.0149-0.08065-0.7837 0.69385z" stop-color="#000000" style="-inkscape-stroke:none;font-variation-settings:normal"/>
  <path d="m163.93 120.66c12.078 6.3831 32.118 16.974 35.081 19.542s16.321 24.41 16.712 25.005c0.39052 0.59543 0.63733-0.5173 0.70939-0.57967 0.0721-0.0624 0.97919 0.0875 1.0282 0.1927 0.049 0.10516 4.6394 11.239 6.9774 16.91-4.6892-4.4593-13.353-12.698-13.7-13.07-0.34698-0.37265-0.0524-1.2852 0.16581-1.3423 0.21824-0.0571 1.2178 0.53285 1.0016 0.0318-0.21624-0.50102-10.283-21.997-14.924-26.397-4.6414-4.3993-31.064-17.73-31.99-18.238s-1.0141-1.5108-1.062-2.0549z" stop-color="#000000" style="-inkscape-stroke:none;font-variation-settings:normal"/>
  <path d="m178.58 129.51c-9.588-4.8725-26.587-13.511-28.232-13.799-1.6452-0.28864-10.338 3.8449-15.241 6.1762 0.5103 0.41683 1.355 1.1068 2.1336 1.2039 0.77862 0.0971 9.6424 0.42077 10.716 0.14141 1.0731-0.27936 2.9429-3.1534 5.5725-2.5698 2.6296 0.58354 22.941 8.9447 23.35 9.0983 0.40862 0.15359 1.2572-0.11162 1.7016-0.25054z" stop-color="#000000" style="-inkscape-stroke:none;font-variation-settings:normal"/>
  <path d="m245.97 113.01c0.57732-0.17153 29.691 3.2741 32.078 4.5706 2.3864 1.2964 12.268 18.305 12.8 19.443 0.53177 1.1374-0.38918 3.1877-1.3465 2.2744s-10.461-12.439-14.501-14.239-20.035-0.89481-20.887-1.18c-0.8527-0.28521-8.7203-10.697-8.143-10.868z" stop-color="#000000" style="-inkscape-stroke:none;font-variation-settings:normal"/>
  <path d="m201.43 143.66c9.7462 5.1379 26.236 13.831 28.772 14.329 2.5362 0.49838 19.709-4.3678 20.119-4.5219 0.40975-0.15415-0.9112-1.0429-1.0365-1.3225-0.12535-0.27962 0.36115-1.3011 0.76697-1.4417 0.40581-0.14062 18.152-5.5643 27.421-8.3973l-26.867 19.273c-0.32884-0.38572-0.73423-0.86122-0.745-1.2209-0.0108-0.35965 0.60891-1.4966 0.0337-1.4568-0.57522 0.0399-18.403 2.6721-20.005 2.2482-1.6021-0.42389-18.125-9.8413-27.307-15.075l-1.1526-2.4151z" stop-color="#000000" style="-inkscape-stroke:none;font-variation-settings:normal"/>
  <path d="m203.29 146.37 7.9778 12.885c0.27635-0.49457 0.72278-1.2935 0.62242-1.6919-0.10036-0.39835-1.6444-3.4492-1.3941-3.8715 0.25028-0.42234 3.2366 0.25343 3.6001 0.24219 0.36353-0.0112 1.5607-1.0565 1.4287-1.149-0.13206-0.0925-8.1013-4.2553-12.235-6.4146z" stop-color="#000000" style="-inkscape-stroke:none;font-variation-settings:normal"/>
  <path d="m248.68 176.45c0.47124-0.71118 14.528-16.294 16.872-16.64 2.3434-0.34684 20.818 10.264 21.562 10.873 0.74441 0.6093-2.0131 3.0337-2.9202 3.0283-0.90714-5e-3 -12.975-2.0448-16.999-1.4143s-14.009 5.8516-15.268 6.2547c-1.2588 0.40311-3.7184-1.3901-3.2472-2.1013z" stop-color="#000000" style="-inkscape-stroke:none;font-variation-settings:normal"/>
  <path d="m242.35 159.79 14.623 9.6343-0.56994 0.34118-14.955-9.837z" stop-color="#000000" style="-inkscape-stroke:none;font-variation-settings:normal"/>
  <path d="m243.33 160.83-23.947 9.6502 0.36067 0.39748 24.102-9.5224z" stop-color="#000000" style="-inkscape-stroke:none;font-variation-settings:normal"/>
 </g>
 <g id="letter_p_pieces" transform="translate(-8.3121 -35.363)" type="layer">
  <path d="m387.18 108.14c1.2653 1.0518 11.205 4.9858 12.295 6.9964s-3.5748 7.5211-4.0771 8.9488c-0.50234 1.4277 2.5236 2.8679 3.7593 2.3612 1.2356-0.50671 21.048-11.152 20.078-14.13s-26.537-6.8139-27.467-6.8829c-0.92993-0.069-5.8541 1.6544-4.5888 2.7062z" fill="#7c3c2e" stop-color="#000000" style="-inkscape-stroke:none;font-variation-settings:normal"/>
  <path d="m345.1 121.92c-5.9423 2.8456-15.395 7.3721-16.105 9.0255-0.71026 1.6534 4.8769 13.482 6.5924 15.068 1.7155 1.5852 14.941 8.8847 22.861 13.256-0.35539 0.0893-0.83688 0.21036-0.90666 0.36775-0.0698 0.15739 0.24684 1.0644 0.51755 1.1058 0.27072 0.0414 13.33 1.3268 20.125 1.9956-5.4744-2.9701-15.934-8.645-16.193-8.7754-0.25871-0.13042-0.97523-0.0175-1.0688 0.1549-0.0936 0.17241 0.031 1.1295-0.4822 0.90146-0.51319-0.22804-19.429-9.5919-22.365-11.782-2.9358-2.19-7.9819-9.9091-7.2482-11.741 0.73363-1.8315 8.8228-6.459 14.273-9.5767z" fill="#7c3c2e" stop-color="#000000" style="-inkscape-stroke:none;font-variation-settings:normal"/>
  <path d="m387.09 107.89c1.2995 0.98134 11.545 4.0898 12.652 6.1077 1.1072 2.018-3.7786 8.3728-4.3166 9.8092-0.53799 1.4365 2.5584 1.8371 3.7984 1.3142 1.24-0.52295 21.056-10.483 20.086-13.385-0.96976-2.9017-26.542-7.0691-27.477-7.13-0.93535-0.0608-6.0426 2.3026-4.7432 3.2839z" fill="#a34734" stop-color="#000000" style="-inkscape-stroke:none;font-variation-settings:normal"/>
  <path d="m339.14 151.89c0.0161 0.95213 6.738 15.532 7.1994 16.226s3.3982 0.1945 3.3927-0.12612c-6e-3 -0.32063-3.0407-13.291-3.7296-14.327-0.68891-1.0362-6.8786-2.7248-6.8625-1.7727z" fill="#7c3c2e" stop-color="#000000" style="-inkscape-stroke:none;font-variation-settings:normal"/>
  <path d="m345.95 121.47c-6.141 2.9033-15.91 7.5216-16.673 9.1467-0.76369 1.6251 4.6818 13.011 6.387 14.564 1.7052 1.5529 14.93 8.8524 22.851 13.224-0.35539 0.0893-0.83688 0.21036-0.90666 0.36775-0.0698 0.15739 0.24684 1.0644 0.52134 1.1191 0.2745 0.0547 13.52 1.9927 20.412 3.001-5.5713-3.3097-16.216-9.6334-16.479-9.779s-0.97956-0.0327-1.0731 0.13974c-0.0936 0.17241 0.031 1.1295-0.4822 0.90146-0.51319-0.22804-19.429-9.5919-22.365-11.782-2.9358-2.19-7.9819-9.9091-7.1808-11.705 0.80104-1.7958 9.2782-6.2183 14.99-9.1979z" fill="#bc5a45" stop-color="#000000" style="-inkscape-stroke:none;font-variation-settings:normal"/>
  <path d="m352.6 155.44-5.3268 3.5925-0.0393 0.5486 5.9046-3.8087z" fill="#7c3c2e" stop-color="#000000" style="-inkscape-stroke:none;font-variation-settings:normal"/>
  <path d="m346.14 156.45 4.8112-2.0457 0.39457 0.27689-5.0032 2.1421z" fill="#7c3c2e" stop-color="#000000" style="-inkscape-stroke:none;font-variation-settings:normal"/>
  <path d="m339.23 151.84c0.0418 0.9472 7.1081 14.714 7.5679 15.394s2.9862 0.80075 2.9719 0.48174c-0.0143-0.31901-3.0204-13.812-3.7071-14.83-0.68673-1.0178-6.8744-1.9933-6.8327-1.0461z" fill="#bc5a45" stop-color="#000000" style="-inkscape-stroke:none;font-variation-settings:normal"/>
  <path d="m346.13 156.17 5.15-2.2357 0.44105 0.24068-5.3078 2.4269z" fill="#bc5a45" stop-color="#000000" style="-inkscape-stroke:none;font-variation-settings:normal"/>
  <path d="m313.61 93.466c-1.4068 3.4715-3.6928 9.1129-2.5322 12.28 1.1606 3.1671 13.502 24.97 21.098 38.388 0.1531-1.2783 0.42224-3.5254-0.26065-5.0839-0.6829-1.5585-12.944-26.098-14.801-30.974-1.857-4.876-1.769-10.989-1.9313-12.195-0.16225-1.2069-0.98381-1.9108-1.572-2.4148z" fill="#7c3c2e" stop-color="#000000" style="-inkscape-stroke:none;font-variation-settings:normal"/>
  <path d="m352.74 154.87-5.4618 4.0047 0.0879 0.38114 5.9588-4.0842z" fill="#bc5a45" stop-color="#000000" style="-inkscape-stroke:none;font-variation-settings:normal"/>
  <path d="m313.67 92.604c-1.4068 3.4715-3.6928 9.1129-2.5322 12.28 1.1606 3.1671 13.502 24.97 21.098 38.388 0.1531-1.2783 0.42224-3.5254-0.26065-5.0839-0.6829-1.5585-12.944-26.098-14.801-30.974-1.857-4.876-1.769-10.989-1.9313-12.195-0.16225-1.2069-0.98381-1.9108-1.572-2.4148z" fill="#bc5a45" stop-color="#000000" style="-inkscape-stroke:none;font-variation-settings:normal"/>
 </g>
 <g id="letter_r_fill" transform="translate(-8.3121 -35.363)" type="layer">
  <path d="m95.614 70.775c-2.7274-2.4527 6.7152-20.614 9.8101-20.922 3.0949-0.3079 74.757 11.167 74.946 13.33 0.18909 2.1632-71.073 27.046-72.302 27.447s-0.3696-1.5729 0.64293-2.0016c1.0125-0.42869 22.398-8.1452 20.849-9.6809s-31.218-5.7194-33.946-8.172z" stop-color="#000000" style="-inkscape-stroke:none;font-variation-settings:normal"/>
  <path d="m88.503 143.78c2.6485 2.4709 46.613 32.328 49.386 32.521 2.7732 0.1937-8.2079-25.205-12.304-29.027s-27.424-9.6074-29.397-9.7452c-1.973-0.13784-10.333 3.7801-7.6847 6.251z" stop-color="#000000" style="-inkscape-stroke:none;font-variation-settings:normal"/>
  <path d="m14.145 132.49c1.6027-1.9661 15.647-27.249 20.959-32.68 5.3127-5.4316 26.701-17.496 29.411-19.579 2.7094-2.083-1.4763-2.2001-4.506-2.2848-13.665 3.2647-33.788 8.0724-38.155 12.371s-10.647 32.59-10.955 35.006 1.6431 9.1336 3.2458 7.1675z" stop-color="#000000" style="-inkscape-stroke:none;font-variation-settings:normal"/>
  <path d="m117.9 86.133c4.3812 1.25 11.36 3.241 9.9962 6.7723-1.3635 3.5313-19.004 29.16-30.079 45.251l2.5668 0.47505c13.525-17.065 36.174-45.643 37.718-48.739 1.5442-3.0957-5.2107-6.3889-9.244-8.3552l-10.958 4.5965z" stop-color="#000000" style="-inkscape-stroke:none;font-variation-settings:normal"/>
  <path d="m63.02 80.251 33.978-15.546-0.85428 4.0841-33.33 12.596z" stop-color="#000000" style="-inkscape-stroke:none;font-variation-settings:normal"/>
  <path d="m83.341 88.374c-0.99428 0.07516-37.27 6.4334-45.549 11.76-8.2789 5.3262-23.338 30.744-24.013 32.448-0.6755 1.7036 5.7989-0.24262 7.9417-2.3715 2.1428-2.1289 17.894-21.548 24.478-25.798 6.5847-4.2496 30.107-10.023 32.49-10.867 2.3825-0.84414 5.6464-5.2462 4.6521-5.1711z" stop-color="#000000" style="-inkscape-stroke:none;font-variation-settings:normal"/>
  <path d="m135.74 82.518c2.9592 1.9743 7.7571 5.1753 6.9473 7.0738-0.80986 1.8985-12.54 14.952-19.775 23.004l0.2717 0.11509c7.606-8.1423 20.244-21.671 20.99-23.386s-4.5697-5.0279-7.7688-7.0214l-0.66485 0.2145z" stop-color="#000000" style="-inkscape-stroke:none;font-variation-settings:normal"/>
  <path d="m133.03 84.087 3.7825-1.1426 0.29309 0.23637-3.6766 1.2061z" stop-color="#000000" style="-inkscape-stroke:none;font-variation-settings:normal"/>
  <path d="m141.19 92.024-4.9834 0.32471-0.17093 0.30496 4.931-0.16831z" stop-color="#000000" style="-inkscape-stroke:none;font-variation-settings:normal"/>
  <path d="m121.92 111.1 1.4144 1.1134 0.1859-0.13166-1.4225-1.2781z" stop-color="#000000" style="-inkscape-stroke:none;font-variation-settings:normal"/>
  <path d="m135.35 93.498 5.125-0.09114-0.3661 0.28697-5.0325 0.0576z" stop-color="#000000" style="-inkscape-stroke:none;font-variation-settings:normal"/>
  <path d="m32.992 120.13c4.9461-5.0844 12.2-12.541 14.878-14.38 2.6785-1.8394 10.152-4.497 15.248-6.3091 0 0 0.02127 0.22362 0.02127 0.22362-5.0226 1.9809-12.961 5.1121-15.025 6.6153-2.064 1.5032-9.6843 9.7042-14.505 14.892l-0.61726-1.0419z" stop-color="#000000" style="-inkscape-stroke:none;font-variation-settings:normal"/>
  <path d="m62.479 99.695-0.37021-1.6019-0.278 0.05754 0.46282 1.66z" stop-color="#000000" style="-inkscape-stroke:none;font-variation-settings:normal"/>
  <path d="m47.659 103.37 1.2927 2.2014 0.20665-0.16637-1.2429-2.2264z" stop-color="#000000" style="-inkscape-stroke:none;font-variation-settings:normal"/>
  <path d="m49.412 105.06-1.1093-1.9794 0.10377-0.0275 1.1626 1.9875z" stop-color="#000000" style="-inkscape-stroke:none;font-variation-settings:normal"/>
  <path d="m32.132 118.16 1.1866 2.0064 0.38645-0.28385-1.2959-2.1699z" stop-color="#000000" style="-inkscape-stroke:none;font-variation-settings:normal"/>
  <path d="m86.384 70.634c3.9228-6.0363 11.075-17.042 11.364-17.548 0.28866-0.5061-1.5076 0.33672-1.7568 0.62868-0.24924 0.29196-10.206 12.839-15.406 19.392l5.7987-2.4724z" stop-color="#000000" style="-inkscape-stroke:none;font-variation-settings:normal"/>
  <path d="m96.917 54.032 6.1015-1.7056-0.0671 0.37121-6.3679 1.784z" stop-color="#000000" style="-inkscape-stroke:none;font-variation-settings:normal"/>
  <path d="m96.225 55.396 6.1015-1.7056-0.0854 0.5033-6.5192 1.9348z" stop-color="#000000" style="-inkscape-stroke:none;font-variation-settings:normal"/>
 </g>
 <g id="letter_p_fill" transform="translate(-8.3121 -35.363)" type="layer">
  <path d="m292.56 46.926c5.8746 1.7816 108.1 40.598 118.28 50.243 10.18 9.6453-8.1182 21.275-24.122 28.705s-27.439 7.9641-27.948 7.8863c-0.50928-0.0779-7.1851-4.77-5.9987-5.2658 1.1864-0.49577 22.336-2.9758 17.403-8.847-4.9335-5.8713-70.681-56.141-75.48-60.29-4.7999-4.1494-8.0077-14.213-2.1331-12.431z" stop-color="#000000" style="-inkscape-stroke:none;font-variation-settings:normal"/>
  <path d="m298.61 106.25c15.948 23.356 44.708 65.473 45.882 67.653 1.1738 2.1801-9.0304-0.84727-10.961-2.2341s-25.003-21.621-28.631-27.784c-3.6282-6.1629-7.4787-31.338-7.6642-33.253s0.79683-3.4687 1.3745-4.3824z" stop-color="#000000" style="-inkscape-stroke:none;font-variation-settings:normal"/>
  <path d="m343.36 96.291c-3.724 0.61524-8.662 1.431-11.439 5.8739-2.7769 4.4429-8.7661 21.111-13.283 33.681l0.99178 1.6946c4.8402-11.882 12.059-29.604 14.818-32.439s11.718-1.7425 17.726-1.0097l-8.814-7.8002z" stop-color="#000000" style="-inkscape-stroke:none;font-variation-settings:normal"/>
  <path d="m338.96 95.276c-2.5616 0.64548-6.1056 1.5385-8.0858 4.7212-1.9801 3.1827-7.3238 16.576-11.186 26.256l-0.6206-1.9183c3.9988-9.2792 9.5525-22.166 11.554-25.158 2.0014-2.9918 5.5433-3.7019 8.0937-4.2132l0.24492 0.31257z" stop-color="#000000" style="-inkscape-stroke:none;font-variation-settings:normal"/>
  <path d="m337.95 95.435 2.0926 1.692-0.46601 0.07876-2.0551-1.686z" stop-color="#000000" style="-inkscape-stroke:none;font-variation-settings:normal"/>
  <path d="m332.88 97.686 1.7546 2.0806 0.39348-0.35774-1.9585-1.9883z" stop-color="#000000" style="-inkscape-stroke:none;font-variation-settings:normal"/>
  <path d="m333.54 97.155 1.761 1.9674 0.14519-0.15438-1.7005-1.9088z" stop-color="#000000" style="-inkscape-stroke:none;font-variation-settings:normal"/>
  <path d="m320.78 122.71 1.9466 3.4748-0.0854 0.19105-1.9511-3.4546z" stop-color="#000000" style="-inkscape-stroke:none;font-variation-settings:normal"/>
 </g>
 <g id="letter_d_fill" transform="translate(-8.3121 -35.363)" type="layer">
  <path d="m172.99 38.261c0.68604 2.7094 13.945 33.483 19.552 36.587s81.938 22.205 90.09 27.693c8.1516 5.4876 14.524 39.749 15.401 42.833 0.87676 3.0837 2.945-2.5766 2.8156-4.9176-0.12946-2.3409-4.5662-39.491-11.86-45.847-7.2937-6.3567-76.666-34.127-82.363-36.915s-22.016-16.221-25.854-18.795c-3.8382-2.5742-8.468-3.3475-7.7819-0.63805z" stop-color="#000000" style="-inkscape-stroke:none;font-variation-settings:normal"/>
  <path d="m206.01 83.322 9.8574 20.534c21.887 3.6838 58.668 9.8746 62.781 11.768 4.1123 1.8929 12.569 19.793 13.973 21.903 1.4036 2.1097 5.6909 3.1994 5.5028 1.7749-0.18811-1.4245-8.324-29.942-13.926-33.416s-50.669-15.326-78.188-22.564z" stop-color="#000000" style="-inkscape-stroke:none;font-variation-settings:normal"/>
  <path d="m175.7 113.19c0.68433 0.74383 32.714 29.387 35.755 30.279 3.0411 0.89191 55.079-3.0539 56.386-3.2294s-2.6029-2.7957-3.5702-2.9123c-0.96728-0.11666-42.528-3.1654-47.955-4.7671-5.4269-1.6018-32.754-18.526-34.144-19.254-1.389-0.72741-7.1567-0.86056-6.4724-0.11673z" stop-color="#000000" style="-inkscape-stroke:none;font-variation-settings:normal"/>
  <path d="m205.27 83.496c7.1333 14.946 19.446 40.745 19.878 42.993 0.4321 2.2474-6.4348 4.7794-10.413 6.2461l-20.53-10.564c-0.63558-1.8291-1.6678-4.7998-0.12112-4.6488 1.5467 0.15106 20.207 5.6928 21.093 3.1345 0.8864-2.5584-11.008-29.681-11.697-31.755-0.68853-2.074 0.87025-4.1704 1.7887-5.4055z" stop-color="#000000" style="-inkscape-stroke:none;font-variation-settings:normal"/>
  <path d="m221.98 112.03c2.6972 5.3397 7.1059 14.068 6.9068 15.361-0.19914 1.2938-6.3883 4.1375-10.175 5.8774 0.16416 0.0675 0.43756 0.17991 1.1627-0.0908 0.72511-0.27076 10.772-4.3324 10.915-5.1861 0.14327-0.85374-7.5091-14.884-7.7838-15.351-0.27475-0.46691-0.7604-0.55996-1.0257-0.61079z" stop-color="#000000" style="-inkscape-stroke:none;font-variation-settings:normal"/>
  <path d="m223.15 114-3.7964-0.35711 0.31927 0.6005 3.5235 0.12536z" stop-color="#000000" style="-inkscape-stroke:none;font-variation-settings:normal"/>
  <path d="m228.73 125.46-4.1332-0.19155 0.12807 0.46363 4.0834 0.0873z" stop-color="#000000" style="-inkscape-stroke:none;font-variation-settings:normal"/>
  <path d="m228.88 126.32-4.1229-0.0713 0.0969 0.31083 4.1188-0.0353c-0.0261-0.11979-0.0928-0.20422-0.0928-0.20422z" stop-color="#000000" style="-inkscape-stroke:none;font-variation-settings:normal"/>
  <path d="m252.68 113.6c8.5684 1.0788 23.566 2.9671 25.017 3.7016s6.8004 9.1392 9.8565 13.941c-0.21451 0.0195-0.5738 0.0521-1.0816-0.68752-0.50777-0.7396-7.1396-11.156-9.3977-12.284-2.2581-1.128-19.499-3.1796-21.612-3.5064s-2.515-0.83025-2.7825-1.1652z" stop-color="#000000" style="-inkscape-stroke:none;font-variation-settings:normal"/>
  <path d="m254.46 114.03-0.50543-3.9773 0.22631 0.0273 0.66161 3.978z" stop-color="#000000" style="-inkscape-stroke:none;font-variation-settings:normal"/>
  <path d="m276.3 117.07 0.57065-2.3242-0.19203-0.0771-0.57655 2.3583z" stop-color="#000000" style="-inkscape-stroke:none;font-variation-settings:normal"/>
  <path d="m278.54 118.42 1.5893-1.9075 0.10805 0.23992-1.4979 1.8718z" stop-color="#000000" style="-inkscape-stroke:none;font-variation-settings:normal"/>
 </g>
</svg>
