<?xml version="1.0" encoding="UTF-8"?>
<!-- Created with Inkscape (http://www.inkscape.org/) -->
<svg width="713.55" height="456.03" version="1.1" viewBox="0 0 188.79 120.66" xmlns="http://www.w3.org/2000/svg">
 <defs>
  <marker id="Arrow1Lstart" overflow="visible" orient="auto">
   <path transform="matrix(.8 0 0 .8 10 0)" d="m0 0 5-5-17.5 5 17.5 5z" fill="context-stroke" fill-rule="evenodd" stroke="context-stroke" stroke-width="1pt"/>
  </marker>
  <marker id="Arrow1Lend-5" overflow="visible" orient="auto">
   <path transform="matrix(-.8 0 0 -.8 -10 0)" d="m0 0 5-5-17.5 5 17.5 5z" fill="context-stroke" fill-rule="evenodd" stroke="context-stroke" stroke-width="1pt"/>
  </marker>
  <marker id="Arrow1Lstart-7-4" overflow="visible" orient="auto">
   <path transform="matrix(.8 0 0 .8 10 0)" d="m0 0 5-5-17.5 5 17.5 5z" fill="context-stroke" fill-rule="evenodd" stroke="context-stroke" stroke-width="1pt"/>
  </marker>
 </defs>
 <g transform="translate(-4.0197 -9.606)">
  <path x="29.842051" y="29.352493" width="139.29848" height="84.95739" d="m35.134 29.352h128.72a5.2917 5.2917 45 0 1 5.2917 5.2917v74.374a5.2917 5.2917 135 0 1-5.2917 5.2917h-128.72a5.2917 5.2917 45 0 1-5.2917-5.2917v-74.374a5.2917 5.2917 135 0 1 5.2917-5.2917z" fill="none" stroke="#000" stroke-width=".265"/>
  <g>
   <path d="m19.87 11.616 171.43 0.33259h1.2352" stop-color="#000000" stroke="#f00" stroke-dasharray="0.764474, 0.764474" stroke-width=".76447" style="font-variation-settings:normal"/>
   <path d="m19.87 100.63 171.43 0.33259h1.2352" stop-color="#000000" stroke="#f00" stroke-dasharray="0.764474, 0.764474" stroke-width=".76447" style="font-variation-settings:normal"/>
   <rect x="87.129" y="101.61" width="28.655" height="28.655"/>
   <rect x="87.129" y="12.45" width="28.655" height="28.655"/>
  </g>
  <g>
   <text x="3.713737" y="102.0586" fill="#000000" font-family="sans-serif" font-size="10.583px" stroke-width=".26458" style="line-height:1.25" xml:space="preserve"><tspan x="3.713737" y="102.0586" font-family="sans-serif" font-size="5.6444px" stroke-width=".26458" style="font-variant-caps:normal;font-variant-east-asian:normal;font-variant-ligatures:normal;font-variant-numeric:normal">start</tspan></text>
   <text x="3.806695" y="13.894406" fill="#000000" font-family="sans-serif" font-size="10.583px" stroke-width=".26458" style="line-height:1.25" xml:space="preserve"><tspan x="3.806695" y="13.894406" font-family="sans-serif" font-size="5.6444px" stroke-width=".26458" style="font-variant-caps:normal;font-variant-east-asian:normal;font-variant-ligatures:normal;font-variant-numeric:normal">end</tspan></text>
   <path d="m170.81 102.38v11.845" marker-start="url(#Arrow1Lstart)" stop-color="#000000" stroke="#000" stroke-width=".15242" style="font-variation-settings:normal"/>
   <text x="172.95381" y="109.57013" fill="#000000" font-family="sans-serif" font-size="10.583px" stroke-width=".26458" style="line-height:1.25" xml:space="preserve"><tspan x="172.95381" y="109.57013" font-family="sans-serif" font-size="5.6444px" stroke-width=".26458" style="font-variant-caps:normal;font-variant-east-asian:normal;font-variant-ligatures:normal;font-variant-numeric:normal">+40px</tspan></text>
   <path d="m172.02 29.423v11.845" marker-end="url(#Arrow1Lend-5)" stop-color="#000000" stroke="#000" stroke-width=".15242" style="font-variation-settings:normal"/>
   <path d="m120.85 13.234v27.424" marker-start="url(#Arrow1Lstart-7-4)" stop-color="#000000" stroke="#000" stroke-width=".23192" style="font-variation-settings:normal"/>
   <text x="174.16292" y="37.145893" fill="#000000" font-family="sans-serif" font-size="10.583px" stroke-width=".26458" style="line-height:1.25" xml:space="preserve"><tspan x="174.16292" y="37.145893" font-family="sans-serif" font-size="5.6444px" stroke-width=".26458" style="font-variant-caps:normal;font-variant-east-asian:normal;font-variant-ligatures:normal;font-variant-numeric:normal">+40px</tspan></text>
   <text x="123.25373" y="26.17708" fill="#000000" font-family="sans-serif" font-size="10.583px" stroke-width=".26458" style="line-height:1.25" xml:space="preserve"><tspan x="123.25373" y="26.17708" font-family="sans-serif" font-size="5.6444px" stroke-width=".26458" style="font-variant-caps:normal;font-variant-east-asian:normal;font-variant-ligatures:normal;font-variant-numeric:normal">-height</tspan></text>
   <path d="m19.87 41.765 171.43 0.33259h1.2352" stop-color="#000000" stroke="#969696" stroke-dasharray="0.764474, 0.764474" stroke-width=".76447" style="font-variation-settings:normal"/>
  </g>
 </g>
</svg>
