<?xml version="1.0" encoding="UTF-8" standalone="no"?>
<svg
   version="1.1"
   viewBox="0 0 95.000002 95.000002"
   x="0px"
   y="0px"
   id="svg1568"
   width="95"
   height="95"
   xmlns="http://www.w3.org/2000/svg"
   xmlns:svg="http://www.w3.org/2000/svg"
   xmlns:rdf="http://www.w3.org/1999/02/22-rdf-syntax-ns#"
   xmlns:cc="http://creativecommons.org/ns#"
   xmlns:dc="http://purl.org/dc/elements/1.1/">
  <defs
     id="defs1572" />
  <path
     d="M 80.381205,69.362657 58.235352,47.229522 80.364248,25.083669 c 2.552029,-2.543551 2.552029,-6.634429 0.0085,-9.186459 l -2.056059,-2.060277 c -1.208187,-1.237861 -2.861495,-1.911902 -4.599588,-1.911902 -0.0085,0 -0.0085,0 -0.0085,0 -1.738093,0 -3.370205,0.682519 -4.59111,1.907663 L 46.980138,35.987026 24.834285,13.85813 c -2.539312,-2.543552 -6.625951,-2.556269 -9.177981,-0.01272 l -2.060276,2.03908 c -1.242101,1.216665 -1.920381,2.869974 -1.920381,4.603828 0,1.742333 0.682519,3.382923 1.907663,4.603828 L 35.737642,47.229522 13.604506,69.375375 c -2.552029,2.543551 -2.552029,6.634429 -0.0085,9.194937 l 2.056037,2.056037 c 1.216666,1.237862 2.865735,1.911903 4.603828,1.911903 1.729616,0 3.382924,-0.690998 4.59959,-1.907663 L 46.988616,58.480497 69.125991,80.605153 c 1.254818,1.267537 2.925083,1.907664 4.599588,1.907664 1.657548,0 3.319334,-0.631649 4.586871,-1.894946 l 2.056037,-2.051798 c 1.24634,-1.208187 1.920381,-2.861495 1.920381,-4.599588 0.0085,-1.738094 -0.674041,-3.378684 -1.899185,-4.603828 z"
     id="path1562"
     style="stroke-width:4.23925" />
  <metadata
     id="metadata1654">
    <rdf:RDF>
      <cc:Work
         rdf:about="">
        <dc:title>close</dc:title>
      </cc:Work>
    </rdf:RDF>
  </metadata>
</svg>
