<?xml version="1.0" encoding="UTF-8"?>
<svg width="89.98" height="90" version="1.1" viewBox="-5 -10 89.98 90" xml:space="preserve" xmlns="http://www.w3.org/2000/svg"><path transform="translate(-9.0098 -14)" d="m22.271 94c-4.88 0-9.468-1.902-12.919-5.354-7.123-7.124-7.123-18.714 0-25.838l21.6-21.6c3.451-3.451 8.038-5.352 12.918-5.352s9.468 1.901 12.918 5.352c0.566 0.566 0.879 1.319 0.879 2.12s-0.312 1.554-0.878 2.12-1.32 0.879-2.121 0.879-1.554-0.312-2.12-0.878c-2.318-2.318-5.4-3.595-8.678-3.595s-6.36 1.277-8.678 3.595l-21.601 21.6c-2.318 2.318-3.594 5.4-3.594 8.678 1e-3 3.278 1.277 6.36 3.595 8.679s5.4 3.597 8.678 3.597 6.361-1.278 8.681-3.597l10.799-10.799c0.566-0.566 1.319-0.879 2.12-0.879s1.554 0.312 2.12 0.879c1.169 1.169 1.169 3.071 0 4.24l-10.797 10.799c-3.452 3.452-8.042 5.354-12.922 5.354z"/><path transform="translate(-9.0098 -14)" d="m51.971 64.298c-4.88 0-9.468-1.901-12.918-5.352-1.169-1.169-1.169-3.071 0-4.24 0.566-0.566 1.319-0.879 2.12-0.879s1.554 0.312 2.12 0.878c2.318 2.319 5.4 3.595 8.678 3.595s6.36-1.277 8.678-3.595l23.758-23.758c2.318-2.318 3.595-5.4 3.595-8.678s-1.277-6.36-3.595-8.678-5.4-3.595-8.679-3.595c-3.28 0-6.362 1.277-8.68 3.595l-12.957 12.957c-0.566 0.566-1.32 0.879-2.12 0.879-0.801 0-1.554-0.312-2.12-0.879-1.169-1.169-1.169-3.071 0-4.24l12.956-12.956c3.451-3.451 8.039-5.352 12.92-5.352 4.88 0 9.469 1.901 12.92 5.352 7.124 7.123 7.124 18.713 0 25.837l-23.757 23.757c-3.451 3.452-8.039 5.352-12.919 5.352z"/></svg>
