<?xml version="1.0" encoding="UTF-8" standalone="no"?><!-- Generator: Gravit.io --><svg xmlns="http://www.w3.org/2000/svg" xmlns:xlink="http://www.w3.org/1999/xlink" style="isolation:isolate" viewBox="0 0 466.726 466.722" width="466.726pt" height="466.722pt"><defs><clipPath id="_clipPath_NGPjDQvH1wIrClzh8RPwl8j4Z0sPfcPA"><rect width="466.726" height="466.722"/></clipPath></defs><g clip-path="url(#_clipPath_NGPjDQvH1wIrClzh8RPwl8j4Z0sPfcPA)"><path d=" M 64.164 0 C 28.918 0 0 28.918 0 64.164 L 0 306.614 C 0 341.86 28.918 370.778 64.164 370.778 L 306.614 370.778 C 341.86 370.778 370.778 341.86 370.778 306.614 L 370.778 64.164 C 370.778 28.918 341.86 0 306.614 0 L 64.164 0 Z  M 64.164 34.969 L 306.614 34.969 C 323.075 34.969 335.723 47.703 335.723 64.164 L 335.723 306.614 C 335.723 323.075 323.075 335.723 306.614 335.723 L 64.164 335.723 C 47.703 335.723 34.969 323.075 34.969 306.614 L 34.969 64.164 C 34.969 47.703 47.703 34.969 64.164 34.969 Z " fill-rule="evenodd" /><path d=" M 353.214 95.945 C 348.577 95.949 344.132 97.793 340.855 101.07 C 337.578 104.347 335.734 108.793 335.73 113.429 C 335.734 118.062 337.578 122.507 340.855 125.784 C 344.132 129.061 348.578 130.905 353.214 130.913 L 402.566 130.913 C 418.882 130.913 431.675 143.792 431.675 160.108 L 431.675 402.558 C 431.675 418.874 418.882 431.667 402.566 431.667 L 160.116 431.667 C 143.8 431.667 130.921 418.874 130.921 402.558 L 130.917 353.292 C 130.937 348.643 129.105 344.175 125.823 340.878 C 122.542 337.581 118.085 335.726 113.432 335.722 C 108.78 335.726 104.323 337.581 101.045 340.878 C 97.764 344.175 95.928 348.643 95.948 353.292 L 95.948 402.558 C 95.948 437.792 124.882 466.722 160.112 466.722 L 402.562 466.722 C 437.796 466.722 466.726 437.788 466.726 402.558 L 466.726 160.108 C 466.726 124.874 437.792 95.944 402.562 95.944 L 353.214 95.945 Z " /></g></svg>
