<?xml version="1.0" encoding="UTF-8"?>
<svg width="700pt" height="700pt" version="1.1" viewBox="0 0 700 700" xmlns="http://www.w3.org/2000/svg" xmlns:xlink="http://www.w3.org/1999/xlink">
 <g>
  <path d="m221.2 367.92-102.48-85.684 102.48-85.117c7.2812-6.1602 8.3984-16.801 2.2383-24.078-3.3594-3.9219-8.3984-6.1602-13.441-6.1602-3.9219 0-7.8398 1.1211-11.199 3.9219l-117.6 98.555c-3.9219 3.3594-6.1602 7.8398-6.1602 13.441 0 5.6016 2.2383 10.078 6.1602 13.441l118.16 98.559c3.3594 2.8008 6.7188 3.9219 11.199 3.9219 5.0391 0 10.078-2.2383 13.441-6.1602 5.6016-7.8438 4.4805-18.484-2.8008-24.641z"/>
  <path d="m623.28 288.96c0-5.0391-2.2383-10.078-6.1602-13.441l-118.72-98.559c-3.3594-2.8008-7.2812-3.9219-11.199-3.9219-5.0391 0-10.078 2.2383-13.441 6.1602-6.1602 7.2812-5.0391 17.922 2.2383 24.078l102.48 85.68-101.92 85.684c-7.2812 6.1602-8.3984 16.801-2.2383 24.078 3.3594 3.9219 7.8398 6.1602 13.441 6.1602 3.9219 0 7.8398-1.6797 11.199-3.9219l118.16-98.559c3.918-3.3594 6.1602-8.3984 6.1602-13.438z"/>
  <path d="m408.8 72.801c-1.6797-0.55859-3.3594-0.55859-5.0391-0.55859-7.2812 0-14 4.4805-16.238 12.32l-124.88 399.84c-2.8008 8.9609 2.2383 18.48 11.199 21.281 1.6797 0.55859 3.3594 0.55859 5.0391 0.55859 7.8398 0 14-5.0391 16.238-12.32l124.32-400.4c3.3633-8.3984-1.6758-17.918-10.637-20.719z"/>
 </g>
</svg>
