<?xml version="1.0" encoding="UTF-8"?>
<svg width="60.021" height="60.002" version="1.1" viewBox="0 0 60.021 60.002" xmlns="http://www.w3.org/2000/svg">
 <g stroke-width="1.0513">
  <path d="m30.455 10.244a16.672 16.672 0 0 0-16.541 14.751h33.081a16.688 16.688 0 0 0-16.541-14.751z"/>
  <path d="m47.105 27.178h-15.559v32.274a16.636 16.636 0 0 0 14.097-9.8088 16.447 16.447 0 0 0 1.462-6.7974z"/>
  <path d="m13.805 31.706a0.66421 0.66421 0 0 1 0 0.2073v10.933a16.434 16.434 0 0 0 1.5929 7.092 16.617 16.617 0 0 0 13.966 9.5142v-32.274h-15.559z"/>
  <path d="m23.308 9.4698a18.729 18.729 0 0 1 2.324-0.77463l-2.4986-2.4331v-4.5934a1.0912 1.0912 0 0 0-2.1822 0v5.0626a1.0715 1.0715 0 0 0 0.32731 0.77463z"/>
  <path d="m39.62 7.5058a1.0715 1.0715 0 0 0 0.32731-0.77463v-5.0626a1.0911 1.0911 0 1 0-2.1822 0v4.5934l-2.4985 2.4331a18.729 18.729 0 0 1 2.324 0.77463z"/>
  <path d="m9.5279 36.518 2.0949-2.084v-3.0659l-3.306 3.2842h-5.0626a1.0912 1.0912 0 0 0 0 2.1822h5.5099a1.1006 1.1006 0 0 0 0.76375-0.31639z"/>
  <path d="m9.5062 53.626h-5.0517a1.0912 1.0912 0 0 0 0 2.1822h5.499a1.08 1.08 0 0 0 0.77469-0.31645l3.3605-3.3605a15.652 15.652 0 0 1-1.0256-2.0512z"/>
  <path d="m57.306 34.652h-5.0845l-2.935-2.935v3.0878l1.713 1.713a1.1268 1.1268 0 0 0 0.77468 0.31639h5.5318a1.0912 1.0912 0 0 0 0-2.1822z"/>
  <path d="m56.488 53.626h-5.0517l-3.5787-3.5787a18.272 18.272 0 0 1-1.0256 2.0731l3.3824 3.3714a1.0733 1.0733 0 0 0 0.7637 0.31645h5.51a1.0912 1.0912 0 0 0-6.4e-5 -2.1822z"/>
 </g>
</svg>
