<?xml version="1.0" encoding="UTF-8"?>
<!-- Created with Inkscape (http://www.inkscape.org/) -->
<svg width="50.51" height="51.18" version="1.1" viewBox="0 0 13.364 13.541" xmlns="http://www.w3.org/2000/svg">
 <g transform="translate(-6.0855 -4.2559)">
  <path d="m7.5846 9.2554h10.366l-5.1892 7.0421z" color="#000000" stroke-linejoin="round" stroke-width="3" style="-inkscape-stroke:none"/>
  <path d="m7.584 7.7559a1.5002 1.5002 0 0 0-1.207 2.3887l5.1758 7.041a1.5002 1.5002 0 0 0 2.416 2e-3l5.1895-7.043a1.5002 1.5002 0 0 0-1.207-2.3887zm2.9648 3h4.4316l-2.2188 3.0117z" color="#000000" style="-inkscape-stroke:none"/>
  <path d="m10.712 5.7557h4.1113v4.4858h-4.1113z" color="#000000" stroke-linejoin="round" stroke-width="3" style="-inkscape-stroke:none"/>
  <path d="m10.711 4.2559a1.5002 1.5002 0 0 0-1.5 1.5v4.4863a1.5002 1.5002 0 0 0 1.5 1.5h4.1113a1.5002 1.5002 0 0 0 1.5-1.5v-4.4863a1.5002 1.5002 0 0 0-1.5-1.5zm1.5 3h1.1113v1.4863h-1.1113z" color="#000000" style="-inkscape-stroke:none"/>
 </g>
</svg>
