<?xml version="1.0" encoding="UTF-8" standalone="no"?>
<svg
   data-name="Layer 1"
   viewBox="0 0 90 90"
   x="0px"
   y="0px"
   version="1.1"
   id="svg862"
   width="90"
   height="90"
   xmlns="http://www.w3.org/2000/svg"
   xmlns:svg="http://www.w3.org/2000/svg"
   xmlns:rdf="http://www.w3.org/1999/02/22-rdf-syntax-ns#"
   xmlns:cc="http://creativecommons.org/ns#"
   xmlns:dc="http://purl.org/dc/elements/1.1/">
  <path
     d="M 49.390422,31.326739 38.367999,42.124215 v 0 l -2.744359,2.699369 a 3.9590743,3.9590743 0 0 1 -5.488716,0 l -2.789348,-2.789348 -5.488717,-5.398738 5.488717,-5.308759 5.533706,5.488717 11.022423,-11.022423 z m 35.721647,4.498948 v 44.989481 a 4.4989481,4.4989481 0 0 1 -4.498948,4.498948 H 35.62364 A 4.4989481,4.4989481 0 0 1 31.124692,80.815168 V 67.318324 H 8.6299518 A 4.4989481,4.4989481 0 0 1 4.1310037,62.819376 V 8.8319992 A 4.4989481,4.4989481 0 0 1 8.6299518,4.3330511 H 62.617329 a 4.4989481,4.4989481 0 0 1 4.498948,4.4989481 V 31.326739 h 13.496844 a 4.4989481,4.4989481 0 0 1 4.498948,4.498948 z M 31.124692,58.320428 H 58.118381 V 13.330947 H 13.1289 V 58.320428 Z M 76.114173,40.324636 h -8.997896 v 22.49474 a 4.4989481,4.4989481 0 0 1 -4.498948,4.498948 h -22.49474 v 8.997896 h 35.991584 z"
     />
</svg>
