<?xml version="1.0" encoding="UTF-8" standalone="no"?>
<svg
   version="1.1"
   viewBox="-5 -10 81.437599 94.449203"
   id="svg1564"
   sodipodi:docname="noun-history-8207546.svg"
   width="81.437599"
   height="94.449203"
   inkscape:version="1.1.1 (3bf5ae0d25, 2021-09-20)"
   xmlns:inkscape="http://www.inkscape.org/namespaces/inkscape"
   xmlns:sodipodi="http://sodipodi.sourceforge.net/DTD/sodipodi-0.dtd"
   xmlns="http://www.w3.org/2000/svg"
   xmlns:svg="http://www.w3.org/2000/svg">
  <defs
     id="defs1568" />
  <sodipodi:namedview
     id="namedview1566"
     pagecolor="#ffffff"
     bordercolor="#666666"
     borderopacity="1.0"
     inkscape:pageshadow="2"
     inkscape:pageopacity="0.0"
     inkscape:pagecheckerboard="0"
     showgrid="false"
     inkscape:zoom="6.0148148"
     inkscape:cx="40.649631"
     inkscape:cy="54.698276"
     inkscape:window-width="1920"
     inkscape:window-height="1027"
     inkscape:window-x="0"
     inkscape:window-y="0"
     inkscape:window-maximized="1"
     inkscape:current-layer="svg1564" />
  <path
     d="M 3.8906,-10 C -0.9805,-10 -5,-5.9844 -5,-1.1094 v 58.25 c 0,4.8711 4.0195,8.8906 8.8906,8.8906 h 29.75 c 1.5117,10.391 10.5,18.418 21.293,18.418 11.848,0 21.504,-9.668 21.504,-21.516 0,-10.797 -8.0195,-19.785 -18.406,-21.293 v -42.746 c 0,-4.8711 -4.0156,-8.8906 -8.8906,-8.8906 z m 0,6.207 h 45.254 c 1.543,0 2.6797,1.1367 2.6797,2.6797 v 42.75 c -9.3711,1.3672 -16.82,8.8203 -18.184,18.191 h -29.75 c -1.543,0 -2.6953,-1.1484 -2.6953,-2.6914 v -58.25 c 0,-1.543 1.1523,-2.6797 2.6953,-2.6797 z M 13.4062,7.16 v 0.0039 c -1.7109,0 -3.1016,1.3867 -3.1016,3.0977 -0.0039,0.82422 0.32422,1.6172 0.90234,2.1992 0.58203,0.58594 1.375,0.91406 2.1992,0.91406 h 26.223 c 0.82422,0 1.6133,-0.32812 2.1953,-0.91406 0.58203,-0.58203 0.90625,-1.375 0.90234,-2.1992 0,-1.7109 -1.3867,-3.0977 -3.0977,-3.0977 z m 0,17.754 v 0.0039 c -1.7109,0 -3.1016,1.3867 -3.1016,3.0977 0.0039,1.7109 1.3906,3.0938 3.1016,3.0938 h 26.223 c 1.7109,0 3.0977,-1.3828 3.0977,-3.0938 0,-1.7109 -1.3867,-3.0977 -3.0977,-3.0977 z m 0,17.738 v 0.0039 c -0.82422,-0.0039 -1.6133,0.32031 -2.1953,0.89844 -0.58594,0.57812 -0.91406,1.3633 -0.91797,2.1875 -0.01563,1.7109 1.3633,3.1094 3.0742,3.1211 l 13.121,0.06641 c 1.707,0.0078 3.0977,-1.3633 3.1133,-3.0703 0.0078,-0.82422 -0.3125,-1.6172 -0.89453,-2.2031 -0.57812,-0.58594 -1.3672,-0.91797 -2.1914,-0.92188 z m 41.516,4.9531 c 8.4961,0 15.309,6.8242 15.309,15.32 0,8.5 -6.8125,15.32 -15.309,15.32 -8.4965,0 -15.32,-6.8203 -15.32,-15.32 0,-0.52734 0,-1.0586 0.08203,-1.5742 0.26172,-2.582 1.1562,-4.9727 2.5273,-7.0117 2.7461,-4.0742 7.4062,-6.7383 12.715,-6.7383 z m 0,4.9062 c -0.82422,-0.0039 -1.6133,0.32031 -2.1992,0.90234 -0.58203,0.58203 -0.91406,1.3711 -0.91406,2.1953 v 8.8633 c 0,0.94922 0.43359,1.8438 1.1758,2.4297 l 6.2109,4.9023 c 1.3398,1.0625 3.2852,0.84375 4.3516,-0.49609 0.51172,-0.64453 0.74219,-1.4648 0.64844,-2.2812 -0.09375,-0.81641 -0.51172,-1.5625 -1.1562,-2.0703 l -5.0234,-3.9844 v -7.3633 c 0,-1.707 -1.3828,-3.0938 -3.0938,-3.0977 z"
     id="path1558" />
</svg>
