<?xml version="1.0" encoding="UTF-8" standalone="no"?>
<svg
   version="1.1"
   x="0px"
   y="0px"
   viewBox="-5 -10 89.980247 90"
   xml:space="preserve"
   id="svg6"
   sodipodi:docname="icon-link.svg"
   width="89.980247"
   height="90"
   inkscape:version="1.4.4 (dcaf3e7d9e, 2026-05-05)"
   xmlns:inkscape="http://www.inkscape.org/namespaces/inkscape"
   xmlns:sodipodi="http://sodipodi.sourceforge.net/DTD/sodipodi-0.dtd"
   xmlns="http://www.w3.org/2000/svg"
   xmlns:svg="http://www.w3.org/2000/svg"><defs
     id="defs6" /><sodipodi:namedview
     id="namedview6"
     pagecolor="#ffffff"
     bordercolor="#000000"
     borderopacity="0.25"
     inkscape:showpageshadow="2"
     inkscape:pageopacity="0.0"
     inkscape:pagecheckerboard="0"
     inkscape:deskcolor="#d1d1d1"
     inkscape:zoom="4.1745489"
     inkscape:cx="47.789594"
     inkscape:cy="32.698144"
     inkscape:window-width="1920"
     inkscape:window-height="1011"
     inkscape:window-x="0"
     inkscape:window-y="0"
     inkscape:window-maximized="1"
     inkscape:current-layer="svg6" /><path
     d="m 22.271,94 c -4.88,0 -9.468,-1.902 -12.919,-5.354 -7.123,-7.124 -7.123,-18.714 0,-25.838 l 21.6,-21.6 c 3.451,-3.451 8.038,-5.352 12.918,-5.352 4.88,0 9.468,1.901 12.918,5.352 0.566,0.566 0.879,1.319 0.879,2.12 0,0.801 -0.312,1.554 -0.878,2.12 -0.566,0.566 -1.32,0.879 -2.121,0.879 -0.801,0 -1.554,-0.312 -2.12,-0.878 -2.318,-2.318 -5.4,-3.595 -8.678,-3.595 -3.278,0 -6.36,1.277 -8.678,3.595 l -21.601,21.6 c -2.318,2.318 -3.594,5.4 -3.594,8.678 10e-4,3.278 1.277,6.36 3.595,8.679 2.318,2.319 5.4,3.597 8.678,3.597 3.278,0 6.361,-1.278 8.681,-3.597 L 41.75,73.607 c 0.566,-0.566 1.319,-0.879 2.12,-0.879 0.801,0 1.554,0.312 2.12,0.879 1.169,1.169 1.169,3.071 0,4.24 L 35.193,88.646 C 31.741,92.098 27.151,94 22.271,94 Z"
     id="path1"
     transform="translate(-9.00975,-14)" /><path
     d="m 51.971,64.298 c -4.88,0 -9.468,-1.901 -12.918,-5.352 -1.169,-1.169 -1.169,-3.071 0,-4.24 0.566,-0.566 1.319,-0.879 2.12,-0.879 0.801,0 1.554,0.312 2.12,0.878 2.318,2.319 5.4,3.595 8.678,3.595 3.278,0 6.36,-1.277 8.678,-3.595 L 84.407,30.947 c 2.318,-2.318 3.595,-5.4 3.595,-8.678 0,-3.278 -1.277,-6.36 -3.595,-8.678 -2.318,-2.318 -5.4,-3.595 -8.679,-3.595 -3.28,0 -6.362,1.277 -8.68,3.595 L 54.091,26.548 c -0.566,0.566 -1.32,0.879 -2.12,0.879 -0.801,0 -1.554,-0.312 -2.12,-0.879 -1.169,-1.169 -1.169,-3.071 0,-4.24 L 62.807,9.352 C 66.258,5.901 70.846,4 75.727,4 c 4.88,0 9.469,1.901 12.92,5.352 7.124,7.123 7.124,18.713 0,25.837 L 64.89,58.946 c -3.451,3.452 -8.039,5.352 -12.919,5.352 z"
     id="path2"
     transform="translate(-9.00975,-14)" /></svg>
