<?xml version="1.0" encoding="UTF-8" standalone="no"?>
<svg
   viewBox="0 0 60.020653 60.002285"
   x="0px"
   y="0px"
   version="1.1"
   width="60.020653"
   height="60.002285"
   id="svg1"
   sodipodi:docname="icon-debug.svg"
   inkscape:version="1.4.4 (dcaf3e7d9e, 2026-05-05)"
   xmlns:inkscape="http://www.inkscape.org/namespaces/inkscape"
   xmlns:sodipodi="http://sodipodi.sourceforge.net/DTD/sodipodi-0.dtd"
   xmlns="http://www.w3.org/2000/svg"
   xmlns:svg="http://www.w3.org/2000/svg">
  <defs
     id="defs1" />
  <sodipodi:namedview
     id="namedview1"
     pagecolor="#ffffff"
     bordercolor="#000000"
     borderopacity="0.25"
     inkscape:showpageshadow="2"
     inkscape:pageopacity="0.0"
     inkscape:pagecheckerboard="0"
     inkscape:deskcolor="#d1d1d1"
     showgrid="false"
     inkscape:zoom="9.3923774"
     inkscape:cx="17.407733"
     inkscape:cy="29.225827"
     inkscape:window-width="1920"
     inkscape:window-height="1011"
     inkscape:window-x="0"
     inkscape:window-y="0"
     inkscape:window-maximized="1"
     inkscape:current-layer="svg1" />
  <g
     inkscape:groupmode="layer"
     id="layer1"
     inkscape:label="Layer 1">
    <path
       d="M 30.454809,10.244493 A 16.671768,16.671768 0 0 0 13.914079,24.995836 H 46.99557 A 16.687989,16.687989 0 0 0 30.454809,10.244493 Z"
       id="path1-5"
       style="stroke-width:1.05133" />
    <path
       d="M 47.104646,27.177988 H 31.545869 v 32.274027 a 16.636369,16.636369 0 0 0 14.096775,-9.808777 16.44652,16.44652 0 0 0 1.462002,-6.797397 z"
       id="path2"
       style="stroke-width:1.05133" />
    <path
       d="m 13.805004,31.705921 a 0.66420956,0.66420956 0 0 1 0,0.207301 v 10.932619 a 16.433515,16.433515 0 0 0 1.592934,7.092011 16.617466,16.617466 0 0 0 13.965779,9.514163 V 27.177988 H 13.805004 Z"
       id="path3"
       style="stroke-width:1.05133" />
    <path
       d="M 23.308243,9.4697574 A 18.728948,18.728948 0 0 1 25.632251,8.6951266 L 23.133701,6.2619799 V 1.668591 a 1.0911969,1.0911969 0 0 0 -2.182152,0 V 6.7311992 A 1.071516,1.071516 0 0 0 21.27886,7.50583 Z"
       id="path4"
       style="stroke-width:1.05133" />
    <path
       d="M 39.619866,7.50583 A 1.071516,1.071516 0 0 0 39.947177,6.7311992 V 1.668591 a 1.0910813,1.0910813 0 1 0 -2.182152,0 v 4.5933889 l -2.49854,2.4331467 a 18.729368,18.729368 0 0 1 2.323999,0.7746308 z"
       id="path5"
       style="stroke-width:1.05133" />
    <path
       d="m 9.5279287,36.517609 2.0949233,-2.084 V 31.367686 L 8.3168492,34.651844 H 3.2542304 a 1.0911969,1.0911969 0 0 0 0,2.182151 h 5.5099493 a 1.1005747,1.1005747 0 0 0 0.763749,-0.316386 z"
       id="path6"
       style="stroke-width:1.05133" />
    <path
       d="M 9.5061561,53.6257 H 4.4544608 a 1.0911969,1.0911969 0 0 0 0,2.182152 H 9.9534125 A 1.0800002,1.0800002 0 0 0 10.728107,55.4914 l 3.360472,-3.360471 a 15.651945,15.651945 0 0 1 -1.025625,-2.051231 z"
       id="path7"
       style="stroke-width:1.05133" />
    <path
       d="m 57.306262,34.651844 h -5.084455 l -2.935009,-2.934979 v 3.087758 l 1.713006,1.712995 a 1.1267949,1.1267949 0 0 0 0.774683,0.316388 h 5.531775 a 1.0911969,1.0911969 0 0 0 0,-2.182162 z"
       id="path8"
       style="stroke-width:1.05133" />
    <path
       d="m 56.487959,53.6257 h -5.051695 l -3.578729,-3.578729 a 18.272449,18.272449 0 0 1 -1.025615,2.073076 l 3.382382,3.371395 a 1.0733348,1.0733348 0 0 0 0.763697,0.316451 h 5.510024 a 1.0911969,1.0911969 0 0 0 -6.4e-5,-2.182193 z"
       id="path9"
       style="stroke-width:1.05133" />
  </g>
</svg>
