<?xml version="1.0" encoding="UTF-8" standalone="no"?>
<!-- Created with Inkscape (http://www.inkscape.org/) -->

<svg
   width="1980"
   height="1000"
   viewBox="0 0 523.87499 264.58334"
   version="1.1"
   id="svg5"
   inkscape:version="1.1.1 (3bf5ae0d25, 2021-09-20)"
   sodipodi:docname="child.svg"
   xmlns:inkscape="http://www.inkscape.org/namespaces/inkscape"
   xmlns:sodipodi="http://sodipodi.sourceforge.net/DTD/sodipodi-0.dtd"
   xmlns="http://www.w3.org/2000/svg"
   xmlns:svg="http://www.w3.org/2000/svg">
  <sodipodi:namedview
     id="namedview7"
     pagecolor="#ffffff"
     bordercolor="#666666"
     borderopacity="1.0"
     inkscape:pageshadow="2"
     inkscape:pageopacity="0.0"
     inkscape:pagecheckerboard="0"
     inkscape:document-units="mm"
     showgrid="false"
     inkscape:zoom="2"
     inkscape:cx="986.75"
     inkscape:cy="287"
     inkscape:window-width="1920"
     inkscape:window-height="1011"
     inkscape:window-x="0"
     inkscape:window-y="0"
     inkscape:window-maximized="1"
     inkscape:current-layer="layer11"
     units="px"
     inkscape:lockguides="false"
     inkscape:snap-nodes="false" />
  <defs
     id="defs2" />
  <g
     inkscape:groupmode="layer"
     id="layer11"
     inkscape:label="blue">
    <path
       style="display:inline;font-variation-settings:normal;opacity:1;vector-effect:none;fill:#2a2c41;fill-opacity:1;stroke:none;stroke-width:1.32292;stroke-linecap:butt;stroke-linejoin:miter;stroke-miterlimit:4;stroke-dasharray:none;stroke-dashoffset:0;stroke-opacity:1;-inkscape-stroke:none;stop-color:#000000;stop-opacity:1"
       d="m 197.45875,62.742939 2.76262,-7.195942 38.26639,-10.626224 6.81768,5.853387 -2.10634,5.798614 -33.1866,8.187613 z"
       id="path175253" />
    <path
       style="font-variation-settings:normal;opacity:1;vector-effect:none;fill:#2a2c41;fill-opacity:1;stroke:none;stroke-width:1.32292;stroke-linecap:butt;stroke-linejoin:miter;stroke-miterlimit:4;stroke-dasharray:none;stroke-dashoffset:0;stroke-opacity:1;-inkscape-stroke:none;stop-color:#000000;stop-opacity:1"
       d="m 264.8908,46.032848 -6.54223,6.571176 0.80718,5.392951 25.02897,9.560658 16.95556,-5.312854 -0.64648,-3.929994 z"
       id="path175483" />
  </g>
  <g
     inkscape:groupmode="layer"
     id="layer8"
     inkscape:label="green"
     style="display:inline"
     sodipodi:insensitive="true">
    <path
       style="font-variation-settings:normal;opacity:1;vector-effect:none;fill:#9ece6a;fill-opacity:1;stroke:none;stroke-width:1.32292;stroke-linecap:butt;stroke-linejoin:miter;stroke-miterlimit:4;stroke-dasharray:none;stroke-dashoffset:0;stroke-opacity:1;-inkscape-stroke:none;stop-color:#000000;stop-opacity:1"
       d="m 199.80522,79.420981 c 1.38478,0.185703 25.71755,5.537149 25.71755,5.537149 l 20.36451,-2.697238 5.58408,3.584259 4.06807,-3.03319 17.56478,5.88723 27.03921,-4.836958 -0.29741,1.065068 -45.31238,14.48258 -0.78796,-3.576939 -4.03793,6.654618 -1.23862,-9.495461 -8.23962,4.096507 z"
       id="path142040"
       sodipodi:nodetypes="cccccccccccccc" />
    <path
       style="font-variation-settings:normal;opacity:1;vector-effect:none;fill:#658a3f;fill-opacity:1;stroke:none;stroke-width:1.32292;stroke-linecap:butt;stroke-linejoin:miter;stroke-miterlimit:4;stroke-dasharray:none;stroke-dashoffset:0;stroke-opacity:1;-inkscape-stroke:none;stop-color:#000000;stop-opacity:1"
       d="m 201.37914,79.874995 c 0,0.147923 38.91226,17.159907 38.91226,17.159907 l 10.45273,-5.495228 0.32735,7.739518 2.69175,-4.986479 2.26058,2.445909 18.21289,-2.538071 -7.54938,2.629302 -12.62253,2.459749 -0.78647,-2.260531 -4.18061,6.828929 -1.72593,-8.315026 -8.01061,4.31914 -42.93776,-20.122538 z"
       id="path146723"
       sodipodi:nodetypes="ccccccccccccccc" />
    <path
       style="font-variation-settings:normal;opacity:1;vector-effect:none;fill:#9ece6a;fill-opacity:1;stroke:none;stroke-width:1.32292;stroke-linecap:butt;stroke-linejoin:miter;stroke-miterlimit:4;stroke-dasharray:none;stroke-dashoffset:0;stroke-opacity:1;-inkscape-stroke:none;stop-color:#000000;stop-opacity:1"
       d="m 251.69053,60.357654 -0.69098,7.669906 3.50325,8.790426 1.08042,-2.742202 -0.81742,-4.794147 0.6581,-1.219729 -2.7274,-1.893909 z"
       id="path158019"
       sodipodi:nodetypes="cccccccc" />
    <path
       style="font-variation-settings:normal;opacity:1;vector-effect:none;fill:#9ece6a;fill-opacity:1;stroke:none;stroke-width:1.32292;stroke-linecap:butt;stroke-linejoin:miter;stroke-miterlimit:4;stroke-dasharray:none;stroke-dashoffset:0;stroke-opacity:1;-inkscape-stroke:none;stop-color:#000000;stop-opacity:1"
       d="m 250.29331,75.804253 -1.2392,-6.936988 1.01182,-8.509976 -3.5704,9.169903 -0.38733,2.530813 1.93392,0.05317 z"
       id="path162503"
       sodipodi:nodetypes="ccccccc" />
    <path
       style="font-variation-settings:normal;opacity:1;vector-effect:none;fill:#9ece6a;fill-opacity:1;stroke:none;stroke-width:1.32292;stroke-linecap:butt;stroke-linejoin:miter;stroke-miterlimit:4;stroke-dasharray:none;stroke-dashoffset:0;stroke-opacity:1;-inkscape-stroke:none;stop-color:#000000;stop-opacity:1"
       d="m 251.35874,52.536835 c -1.01145,0.532765 -40.76998,10.216796 -40.76998,10.216796 l -13.96295,7.342501 0.20905,2.98611 46.86499,-12.164417 1.68453,2.893295 4.22484,-2.482577 0.81267,-8.258943 z"
       id="path172252"
       sodipodi:nodetypes="ccccccccc" />
    <path
       style="font-variation-settings:normal;opacity:1;vector-effect:none;fill:#9ece6a;fill-opacity:1;stroke:none;stroke-width:1.32292;stroke-linecap:butt;stroke-linejoin:miter;stroke-miterlimit:4;stroke-dasharray:none;stroke-dashoffset:0;stroke-opacity:1;-inkscape-stroke:none;stop-color:#000000;stop-opacity:1"
       d="m 252.20502,51.362781 c 0.68989,0.374179 53.79163,21.385845 53.79163,21.385845 l -2.91227,3.847375 -43.4466,-16.027506 -5.39707,2.133979 -3.88611,-2.137267 z"
       id="path172433"
       sodipodi:nodetypes="ccccccc" />
    <path
       style="font-variation-settings:normal;opacity:1;vector-effect:none;fill:#9ece6a;fill-opacity:1;stroke:none;stroke-width:1.32292;stroke-linecap:butt;stroke-linejoin:miter;stroke-miterlimit:4;stroke-dasharray:none;stroke-dashoffset:0;stroke-opacity:1;-inkscape-stroke:none;stop-color:#000000;stop-opacity:1"
       d="m 213.9052,67.260567 c 0.83678,1.267965 19.01471,17.705824 19.01471,17.705824 l 0.79074,-0.0877 -12.67562,-13.749554 1.8665,-5.964182 -1.25079,0.699024 -1.90852,5.775267 -4.52046,-4.659313 z"
       id="path173091" />
    <path
       style="font-variation-settings:normal;opacity:1;vector-effect:none;fill:#9ece6a;fill-opacity:1;stroke:none;stroke-width:1.32292;stroke-linecap:butt;stroke-linejoin:miter;stroke-miterlimit:4;stroke-dasharray:none;stroke-dashoffset:0;stroke-opacity:1;-inkscape-stroke:none;stop-color:#000000;stop-opacity:1"
       d="m 272.59835,64.438445 -10.81743,17.918284 -5.99912,1.483114 1.16995,0.502295 7.41454,-1.970423 7.3546,-12.816271 24.81035,3.742923 -1.25132,-0.848527 -21.58474,-3.536476 -1.43015,-2.63188 0.88728,-1.911254 z"
       id="path173607" />
    <path
       style="font-variation-settings:normal;opacity:1;vector-effect:none;fill:#9ece6a;fill-opacity:1;stroke:none;stroke-width:1.32292;stroke-linecap:butt;stroke-linejoin:miter;stroke-miterlimit:4;stroke-dasharray:none;stroke-dashoffset:0;stroke-opacity:1;-inkscape-stroke:none;stop-color:#000000;stop-opacity:1"
       d="m 270.30701,71.22511 c 0.84182,0.764294 21.80177,11.58327 21.80177,11.58327 l 1.37512,2.741436 0.6935,-0.426331 -2.02263,-4.294828 -15.19182,-8.047053 -1.2423,-3.002918 -0.83667,-0.130225 1.63679,3.956465 -6.05356,-3.271753 z"
       id="path173813"
       sodipodi:nodetypes="ccccccccccc" />
    <path
       style="font-variation-settings:normal;opacity:1;vector-effect:none;fill:#9ece6a;fill-opacity:1;stroke:none;stroke-width:1.32292;stroke-linecap:butt;stroke-linejoin:miter;stroke-miterlimit:4;stroke-dasharray:none;stroke-dashoffset:0;stroke-opacity:1;-inkscape-stroke:none;stop-color:#000000;stop-opacity:1"
       d="m 197.63806,74.393133 c 0.82398,0 23.06578,2.094963 23.06578,2.094963 l 10.70116,8.093045 0.98107,-0.149863 -10.86497,-9.440508 -18.60558,-1.388545 0.16485,-2.591057 -0.74544,0.134101 -0.18526,2.875534 -4.77593,-0.341579 z"
       id="path174479"
       sodipodi:nodetypes="ccccccccccc" />
  </g>
  <g
     inkscape:groupmode="layer"
     id="layer2"
     inkscape:label="head"
     style="display:inline"
     sodipodi:insensitive="true">
    <path
       style="color:#000000;fill:#000000;-inkscape-stroke:none"
       d="m 308.95802,59.843801 -10.14357,24.826121 -24.77343,5.640625 -18.69922,-4.597656 -2.96008,1.664021 -4.38758,-2.70699 c 0,0 -1.68344,0.06671 -2.41401,0.117105 -3.96429,0.27981 -7.57068,0.551966 -11.66602,0.867188 l -0.0723,0.0039 -6.62187,0.429624 -31.72579,-7.994077 -0.32031,1.283203 35.06836,8.755859 17.32358,-2.32317 4.76627,3.477469 3.25586,-2.15039 18.44141,4.533203 25.71484,-5.855469 14.40037,-26.792883 z"
       id="path4976"
       sodipodi:nodetypes="cccccccccccccccccccc" />
    <path
       style="color:#000000;fill:#000000;-inkscape-stroke:none"
       d="m 195.52539,78.101562 -0.38477,1.265625 38.03907,11.589844 14.87695,-0.378906 4.20898,0.646484 7.86524,2.144532 13.62305,-0.78125 25.69336,-6.705079 -0.33399,-1.28125 -25.56641,6.673829 -13.27539,0.761718 -7.73046,-2.107422 -4.4004,-0.677734 -14.78125,0.378906 z"
       id="path5186" />
    <path
       style="color:#000000;fill:#000000;-inkscape-stroke:none"
       d="m 195.55859,78.113281 -0.45117,1.244141 c 15.32427,5.548863 30.48097,13.443612 45.45117,20.335937 l 0.3086,0.140625 9.30078,-5.287109 0.34125,6.084765 3.39331,-5.731249 2.21289,2.867187 18.33594,-3.369141 25.04297,-8.53125 -0.42773,-1.251953 -24.94922,8.5 -17.44727,3.205078 -3.08984,-4.003906 -1.77012,2.767968 -0.32382,-2.808983 -10.67578,6.072265 C 225.97758,91.506392 210.89434,83.6663 195.55859,78.113281 Z"
       id="path5512"
       sodipodi:nodetypes="cccccccccccccccccc" />
    <path
       style="color:#000000;fill:#000000;-inkscape-stroke:none"
       d="m 204.31836,84.554687 -6.13672,2.039063 1.26563,3.876956 5.00717,-3.672385 36.45965,17.604849 -0.0126,2.13256 -9.06559,13.79044 -4.47368,6.69335 v 0 l 7.49126,-6.54491 14.68164,-15.80664 -2.70549,-6.043306 4.51802,-4.804352 -1.04102,-0.816406 -4.32732,5.603051 2.13787,5.643043 -11.70309,13.05469 5.44332,-10.48242 -0.10351,-3.11329 z"
       id="path5514"
       sodipodi:nodetypes="cccccccccccccccccccc" />
    <path
       style="color:#000000;fill:#000000;-inkscape-stroke:none"
       d="m 243.1075,98.070734 -0.49617,2.210516 1.92187,5.48242 -10.69926,13.86524 8.86918,-7.7168 3.27149,-6.03125 -1.90039,-5.42578 6.09375,-5.908205 z"
       id="path5516"
       sodipodi:nodetypes="ccccccccc" />
    <path
       style="color:#000000;fill:#000000;-inkscape-stroke:none"
       d="m 256.23047,96.404297 v 0 l -6.69535,8.263673 -15.62106,14.88281 0.83789,1.02344 16.09363,-15.45691 5.71106,-7.431763 v 0 z"
       id="path5802"
       sodipodi:nodetypes="ccccccccc" />
    <path
       style="color:#000000;fill:#000000;-inkscape-stroke:none"
       d="m 285.25195,94.992187 -24.09648,6.492783 -24.74141,15.81972 -1.56058,3.16992 3.68718,-2.99775 15.66279,-10.44848 31.23796,-10.708068 6.41406,0.13086 2.67187,1.689453 0.70703,-1.119141 -2.98437,-1.886718 z"
       id="path5804"
       sodipodi:nodetypes="cccccccccccc" />
    <path
       style="color:#000000;fill:#000000;-inkscape-stroke:none"
       d="m 286.07422,91.898437 -20.91016,5.822266 -26.41052,17.347977 5.48279,-2.0843 21.48047,-14.044927 20.38069,-6.311815 6.15251,2.507128 -0.61514,0.482532 3.81241,1.622936 -2.05274,-3.40625 z"
       id="path5806"
       sodipodi:nodetypes="ccccccccccc" />
    <path
       style="color:#000000;fill:#000000;-inkscape-stroke:none"
       d="m 298.61914,85.238281 -2.71503,8.958505 -2.2772,3.295401 1.06641,0.78125 5.20703,-7.109375 0.041,-5.917968 z"
       id="path5808"
       sodipodi:nodetypes="ccccccc" />
    <path
       style="color:#000000;fill:#000000;-inkscape-stroke:none"
       d="m 199.51562,86.486328 -1.31835,0.0957 0.50781,6.945313 28.15429,39.357429 -7.65234,21.23046 1.20117,0.54493 11.06446,-19.99219 43.23242,-14.9375 11.32617,-11.26758 4.27706,-7.98152 3.3186,-2.989183 -2.08199,-2.123049 -3.22656,3.871093 -3.41211,8.476569 -10.91992,10.86328 -43.88062,13.70055 -6.05113,12.82524 5.07052,-13.00206 -29.12901,-39.045219 z"
       id="path6097"
       sodipodi:nodetypes="cccccccccccccccccccc" />
    <path
       style="color:#000000;fill:#000000;-inkscape-stroke:none"
       d="m 188.05078,36.070312 -3.5,0.302735 0.11328,1.318359 3.16602,-0.273437 17.56445,7.679687 12.24609,-0.43164 6.55079,1.05664 2.62695,-1.373047 24.65234,-2.769531 2.40625,-3.947266 -1.1289,-0.6875 -2.07032,3.392579 -24.25195,2.724609 -2.45703,1.283203 -6.24609,-1.005859 -12.3047,-0.0561 z"
       id="path8517"
       sodipodi:nodetypes="ccccccccccccccccc" />
    <path
       style="color:#000000;fill:#000000;-inkscape-stroke:none"
       d="m 187.36734,29.596604 -3.15836,3.979568 0.43555,4.123047 1.31641,-0.138672 -0.35352,-3.351563 3.43555,-2.43164 14.67969,7.294922 5.72656,4.304687 8.13086,1.279297 0.20508,-1.306641 -7.80469,-1.228515 -5.56055,-4.179688 z"
       id="path8636"
       sodipodi:nodetypes="ccccccccccccc" />
    <path
       style="color:#000000;fill:#000000;-inkscape-stroke:none"
       d="m 204.16016,37.851562 -0.17774,1.310547 15.70492,1.949507 3.59709,2.075403 3.56157,0.684792 -0.0804,-0.811264 -3.84512,-0.774891 -3.96906,-2.490518 z"
       id="path8638"
       sodipodi:nodetypes="ccccccccc" />
    <path
       style="color:#000000;fill:#000000;-inkscape-stroke:none"
       d="m 318.19336,40.683594 -2.5824,1.465393 5.36365,2.335388 -7.97852,13.876953 1.14844,0.660156 8.55469,-14.882812 z"
       id="path9703"
       sodipodi:nodetypes="ccccccc" />
    <path
       style="color:#000000;fill:#000000;-inkscape-stroke:none"
       d="m 222.81055,-87.460937 -1.28125,0.333984 28.86914,110.935547 0.0644,0.09375 c 0.81335,1.223093 2.18745,3.25586 2.18745,3.25586 l 0.0391,5.085938 -0.041,5.103515 1.32422,0.01563 c 0,0 0.0295,-2.538649 0.041,-5.113281 0.006,-1.287316 0.007,-2.583563 -0.002,-3.580078 -0.005,-0.498258 -0.0234,-1.236328 -0.0234,-1.236328 l -1.34758,-2.679688 c 0,0 0.78015,-2.520408 0.72188,-2.605575 z"
       id="path9989"
       sodipodi:nodetypes="cccccccccccccc" />
    <path
       style="color:#000000;fill:#000000;-inkscape-stroke:none"
       d="m 334.02734,-94.974609 -77.29297,117.466796 -0.8125,7.3125 -3.20703,4.734375 2.35743,6.158204 2.1289,-10.421875 1.71916,-6.302948 76.21248,-118.22049 z"
       id="path9991"
       sodipodi:nodetypes="ccccccccc" />
    <path
       style="color:#000000;fill:#000000;-inkscape-stroke:none"
       d="m 252.02734,-95.429687 -1.32226,0.03906 1.94521,122.548831 -0.0233,7.57031 4.08184,-4.852512 -1.02715,-1.012723 z"
       id="path9993"
       sodipodi:nodetypes="ccccccc" />
    <path
       style="color:#000000;fill:#000000;-inkscape-stroke:none"
       d="M 373.11328,-78.445312 261.7793,22.431641 l -4.10613,0.934182 -0.77083,1.145896 0.55363,2.443829 5.03817,-3.385237 111.50781,-101.035156 z"
       id="path9995"
       sodipodi:nodetypes="cccccccc" />
    <path
       style="color:#000000;fill:#000000;-inkscape-stroke:none"
       d="m 156.7832,-72.939453 -0.97851,0.890625 92.89062,102.035156 4.03321,7.613281 0.81068,-7.034727 -3.02021,-3.114248 z"
       id="path9997"
       sodipodi:nodetypes="ccccccc" />
    <path
       style="color:#000000;fill:#000000;-inkscape-stroke:none"
       d="m 190.33132,37.862026 -3.01101,-0.88937 4.41797,11.953125 -4.16016,13.535156 1.26563,0.388672 4.29102,-13.96289 z"
       id="path6692"
       sodipodi:nodetypes="ccccccc" />
    <path
       style="color:#000000;fill:#000000;-inkscape-stroke:none"
       d="m 250.77069,53.804358 -385.66682,95.159352 0.0524,7.87613 385.51367,-101.292965 z"
       id="path16736"
       sodipodi:nodetypes="ccccc" />
    <path
       style="color:#000000;fill:#000000;-inkscape-stroke:none"
       d="m 258.62382,56.49428 -5.81459,-0.693105 466.03843,186.028905 8.79153,-7.4917 z"
       id="path16851"
       sodipodi:nodetypes="ccccc" />
    <path
       style="color:#000000;fill:#000000;-inkscape-stroke:none"
       d="m 253.92969,37.121094 -1.23828,0.466797 1.62304,4.300781 27.97852,4.765625 14.96484,-2.726563 10.05456,2.11222 2.97669,-1.963782 -13.07617,-1.484375 -14.92773,2.71875 -27,-4.59961 z"
       id="path18400"
       sodipodi:nodetypes="ccccccccccc" />
    <path
       style="color:#000000;fill:#000000;-inkscape-stroke:none"
       d="m 319.91016,32.285156 -29.10352,8.253906 -3.39258,4.199219 2.78179,-0.260538 1.46421,-2.141973 28.17783,-8.656083 3.88477,1.558594 -1.02539,3.185547 -21.36524,9.455078 -20.55664,-0.355469 -2.4707,-2.902343 -3.90221,0.34439 5.75377,3.870453 21.44531,0.371094 22.17383,-9.8125 1.58398,-4.923828 z"
       id="path18435"
       sodipodi:nodetypes="ccccccccccccccccc" />
    <path
       style="color:#000000;fill:#000000;-inkscape-stroke:none"
       d="m 327.5986,27.551968 -1.82321,0.346469 2.69531,1.814454 -0.75,6.294921 -5.42187,6.253907 -4.10547,-1.578125 1.76952,2.968751 2.95508,-0.08398 6.64863,-6.595072 0.31426,-7.906881 z"
       id="path19013"
       sodipodi:nodetypes="ccccccccccc" />
    <path
       style="color:#000000;fill:#000000;-inkscape-stroke:none"
       d="m 255.07227,40.697266 -0.54493,1.205078 11.29102,5.105468 37.69623,10.974584 3.30803,2.632676 4.78276,-1.5297 -5.81046,-2.643966 -39.5293,-10.683594 z"
       id="path20300"
       sodipodi:nodetypes="ccccccccc" />
    <path
       style="color:#000000;fill:#000000;-inkscape-stroke:none"
       d="m 237.80078,44.550781 -37.63867,10.28711 -5.69336,7.9375 3.78655,0.793374 2.97336,-6.848995 36.91978,-10.891645 z"
       id="path20505"
       sodipodi:nodetypes="ccccccc" />
    <path
       style="color:#000000;fill:#000000;-inkscape-stroke:none"
       d="m 266.26367,45.759766 -0.44336,1.246093 33.0452,11.628196 0.0958,3.523244 4.77699,-1.02058 -2.56055,-2.988282 z"
       id="path20620"
       sodipodi:nodetypes="ccccccc" />
    <path
       style="color:#000000;fill:#000000;-inkscape-stroke:none"
       d="m 239.08439,43.961297 -2.2652,0.956257 8.20815,6.506274 -0.24701,-0.9263 -2.9031,6.703027 2.39596,-1.325796 2.09787,-5.111087 z"
       id="path21887"
       sodipodi:nodetypes="cccccccc" />
    <path
       style="color:#000000;fill:#000000;-inkscape-stroke:none"
       d="m 263.7902,45.956355 -5.98187,6.66673 0.21702,3.796329 -7.25466,-2.615056 -0.46634,1.70013 5.85577,0.945226 3.01406,0.667896 -0.37411,-3.546752 6.58216,-6.913923 z"
       id="path22002"
       sodipodi:nodetypes="cccccccccc" />
    <path
       style="color:#000000;fill:#000000;-inkscape-stroke:none"
       d="m 197.94899,68.626158 -3.44899,1.362126 1.22461,18.8125 2.81836,2.636719 0.80797,-2.013251 -2.33922,-1.232843 z"
       id="path27130"
       sodipodi:nodetypes="ccccccc" />
    <path
       style="color:#000000;fill:#000000;-inkscape-stroke:none"
       d="m 307.05273,76.242187 -8.37695,12.859375 1.10742,0.722657 9.5586,-12.484375 z"
       id="path27833"
       sodipodi:nodetypes="ccccc" />
    <path
       style="color:#000000;fill:#000000;-inkscape-stroke:none"
       d="m 583.83933,-23.088452 c 0,0 -168.07097,52.303743 -252.96238,76.209546 0,0 -11.1107,3.119151 -21.12002,5.925208 -5.27764,1.479558 -10.24907,2.87207 -13.12412,3.674401 -4.16386,1.161996 -7.45997,2.077158 -9.74023,2.705078 -1.14013,0.31396 -2.02559,0.55612 -2.63867,0.720703 -0.30654,0.08229 -0.54569,0.145154 -0.71094,0.1875 -0.0826,0.02117 -0.14677,0.03677 -0.18945,0.04687 -0.0427,0.01011 -0.10236,0.01741 -0.0176,0.0078 l 0.15039,1.314453 c 0.11189,-0.01267 0.11555,-0.02182 0.17187,-0.03516 0.0563,-0.01334 0.12576,-0.03041 0.21289,-0.05273 0.17427,-0.04466 0.41544,-0.108408 0.72461,-0.191406 0.61834,-0.165996 1.50688,-0.408303 2.64844,-0.722656 2.28312,-0.628706 5.57954,-1.544828 9.74414,-2.707031 8.32921,-2.324408 34.24805,-9.59961 34.24805,-9.59961 0,0 168.405,-47.4618268 252.59961,-71.220703 z"
       id="path31732"
       sodipodi:nodetypes="ccssssssccsssssccc" />
    <path
       style="color:#000000;fill:#000000;-inkscape-stroke:none"
       d="m -125.70508,25.757812 -0.0536,12.370463 336.99982,27.54802 1.85648,-1.080592 z"
       id="path32710"
       sodipodi:nodetypes="ccccc" />
    <path
       style="color:#000000;fill:#000000;-inkscape-stroke:none"
       d="m 191.97266,63.017578 -1.85743,7.783203 2.83151,-0.189217 0.31107,-7.287345 z"
       id="path34009"
       sodipodi:nodetypes="ccccc" />
    <path
       style="color:#000000;fill:#000000;-inkscape-stroke:none"
       d="m 308.82422,64.667969 -1.11234,2.515258 5.62015,2.978882 -3.99023,7.177735 1.15625,0.642578 5.44706,-10.01223 z"
       id="path35163"
       sodipodi:nodetypes="ccccccc" />
    <path
       style="color:#000000;fill:#000000;-inkscape-stroke:none"
       d="m -45.089494,-98.083797 -2.090193,6.288875 239.251957,124.845703 12.34765,4.890625 z"
       id="path36710"
       sodipodi:nodetypes="ccccc" />
    <path
       style="color:#000000;fill:#000000;-inkscape-stroke:none"
       d="M 533.77986,-85.480818 309.92914,35.839754 312.61523,35.535156 536.83203,-78.359375 Z"
       id="path36905"
       sodipodi:nodetypes="ccccc" />
    <path
       style="color:#000000;fill:#000000;-inkscape-stroke:none"
       d="m 250.9043,40.320312 c -2.43588,0.649859 -16.44918,3.854078 -29.76953,6.873047 C 207.81441,50.212328 195.125,53.0625 195.125,53.0625 l -0.17969,0.04102 -6.38672,6.076171 0.28516,3.669918 6.74805,-8.537105 c 0.17187,-0.03861 12.60515,-2.829456 25.83593,-5.828125 13.32191,-3.019321 27.21174,-6.189875 29.81641,-6.884766 z"
       id="path55622"
       sodipodi:nodetypes="cscccccscc" />
    <path
       style="color:#000000;display:inline;fill:#000000;-inkscape-stroke:none"
       d="m 195.26864,73.170432 -47.71981,13.476052 -5.11524,-3.382812 -0.73047,1.103515 5.59375,3.697266 48.25782,-11.429687 z"
       id="path51909"
       sodipodi:nodetypes="ccccccc" />
    <path
       style="color:#000000;display:inline;fill:#000000;-inkscape-stroke:none"
       d="m 306.45728,79.284966 -1.9358,2.658393 57.27735,20.246091 2.96679,-2.492184 -0.8496,-1.011719 -2.38868,2.003903 z"
       id="path52024"
       sodipodi:nodetypes="ccccccc" />
    <path
       style="color:#000000;display:inline;fill:#000000;-inkscape-stroke:none"
       d="m 356.07812,43.095703 -39.20703,8.882813 -0.79961,2.908601 39.7293,-10.371492 2.77734,1.927734 0.75586,-1.085937 z"
       id="path52139"
       sodipodi:nodetypes="ccccccc" />
    <path
       style="color:#000000;display:inline;fill:#000000;-inkscape-stroke:none"
       d="m 147.41016,53.474609 -3.37891,3.513672 0.95508,0.916016 2.95703,-3.076172 41.13587,3.586367 1.20792,-2.697695 z"
       id="path52141"
       sodipodi:nodetypes="ccccccc" />
  </g>
  <g
     inkscape:groupmode="layer"
     id="layer4"
     inkscape:label=" nose"
     style="display:inline"
     sodipodi:insensitive="true">
    <path
       style="color:#000000;fill:#000000;-inkscape-stroke:none"
       d="m 252.66211,37.164062 c -0.0221,0.114986 -0.0365,0.239702 -0.0742,0.509766 -0.0377,0.270064 -0.0897,0.642622 -0.15234,1.105469 -0.12522,0.925693 -0.29628,2.20918 -0.49805,3.728515 -0.40354,3.038672 -0.92815,7.023499 -1.44922,10.986329 -1.04213,7.925659 -2.06836,15.763672 -2.06836,15.763671 l -0.0117,0.09766 3.28711,19.240234 1.31055,-0.05469 0.54883,-6.453125 L 255.0332,77 251.11719,67.810547 253.9707,37.351562 Z m -2.7793,31.125 3.11786,10.628934 -0.75262,2.925754 v 0 l -2.50196,-12.513672 c 8.6e-4,-0.0065 0.12727,-0.968788 0.13672,-1.041016 z"
       id="path3319"
       sodipodi:nodetypes="cscssccccccccccccccc" />
    <path
       style="color:#000000;fill:#000000;-inkscape-stroke:none"
       d="m 250.63867,55.746094 c 0,0.241771 0.0345,0.379598 0.084,0.703125 0.0495,0.323526 0.11966,0.746739 0.20312,1.238281 0.16693,0.983084 0.60938,3.470703 0.60938,3.470703 l 0.93947,5.138672 3.44922,2.3125 2.82809,5.464844 -4.7363,2.388672 0.63282,1.160156 5.71296,-2.668894 -3.20295,-6.496968 -2.75004,-1.983008 -1.57052,-5.550349 c 0,0 -0.44379,-2.481856 -0.60937,-3.457031 -0.0828,-0.487588 -0.15172,-0.908159 -0.19922,-1.21875 -0.0475,-0.310591 -0.0684,-0.59982 -0.0684,-0.501953 z"
       id="path3321"
       sodipodi:nodetypes="cssccccccccccsscc" />
    <path
       style="color:#000000;fill:#000000;-inkscape-stroke:none"
       d="m 252.14453,53.626953 -1.34376,3.521486 2.91603,4.267577 4.98242,2.757812 4.84975,11.097497 -4.79702,-1.197106 -0.31054,1.285156 5.81693,1.724132 6.5996,8.210542 -1.66263,-3.190533 -9.49804,-18.888672 -4.91797,-2.722657 z"
       id="path3531"
       sodipodi:nodetypes="ccccccccccccc" />
    <path
       style="color:#000000;fill:#000000;-inkscape-stroke:none"
       d="m 249.72266,62.900391 -0.0853,-1.481693 -3.96156,8.407474 -0.83203,6.146484 5.62603,4.680715 v 0 l 0.44233,-4.586965 -0.76759,1.678737 -3.74612,-2.107061 0.55277,-5.37441 c 0.0597,-0.10378 2.77144,-7.363281 2.77144,-7.363281 l 1.08208,0.761718 z"
       id="path3855"
       sodipodi:nodetypes="ccccccccccccc" />
    <path
       style="color:#000000;fill:#000000;-inkscape-stroke:none"
       d="m 250.66992,55.546875 c 0.006,-0.01895 -0.0678,0.180818 -0.16406,0.423828 -0.0963,0.24301 -0.22764,0.569179 -0.38086,0.947266 -0.30645,0.756174 -0.70235,1.7224 -1.09375,2.675781 -0.76241,1.857065 -1.46751,3.567394 -1.50586,3.660156 l -5.50781,6.294922 -2.45313,14.167969 6.57422,-8.166016 -1.0293,-0.830078 -2.28833,2.278542 0.43677,-6.860573 5.46094,-6.314453 0.62036,-3.381235 c 0,0 1.70458,-2.269249 2.01244,-3.028922 0.15394,-0.379836 0.2862,-0.706358 0.38477,-0.955078 0.0986,-0.24872 0.15344,-0.379383 0.19531,-0.511718 z"
       id="path4065"
       sodipodi:nodetypes="cssscccccccccsscc" />
    <path
       style="color:#000000;display:inline;fill:#000000;-inkscape-stroke:none"
       d="m 251.5,51.949219 -4.0293,11.435547 1.24805,0.439453 2.83398,-8.044922 2.07813,5.412109 1.23437,-0.474609 z"
       id="path6989" />
  </g>
  <g
     inkscape:groupmode="layer"
     id="layer5"
     inkscape:label="collo"
     style="display:inline"
     sodipodi:insensitive="true">
    <path
       style="color:#000000;fill:#000000;-inkscape-stroke:none"
       d="m 221.17721,122.19457 -10.00734,17.70777 6.1836,6.77735 1.68687,10.29737 c 0,0 -3.63935,14.79052 -5.74156,22.21239 0.95584,0.57613 1.55997,0.38794 1.72445,-0.75568 3.41346,-8.53522 6.82693,-17.07043 10.24039,-25.60565 5.79232,-3.48242 17.85198,-9.90244 17.85198,-9.90244 l 1.04801,-7.00809 5.08575,-5.5528 5.56389,-3.88751 -2.08916,-0.16746 -4.7216,3.70694 c 0,0 -4.0056,4.16461 -6.0084,6.24691 -0.19857,1.77344 -0.39713,3.54687 -0.5957,5.32031 -5.73242,3.44596 -11.46485,6.89193 -17.19727,10.33789 -2.06055,5.153 -4.12109,10.30599 -6.18164,15.45899 0.98307,-3.47201 1.96615,-6.94401 2.94922,-10.41602 l -2.39844,-10.91406 c -1.92187,-2.10677 -4.73245,-5.05469 -4.73245,-5.05469 l 9.07173,-16.30688 z"
       id="path1354"
       sodipodi:nodetypes="ccccsccccccccccccccccc" />
    <path
       style="color:#000000;fill:#000000;-inkscape-stroke:none"
       d="m 224.83718,126.69407 -3.12234,7.48757 2.02503,10.22111 1.0476,-3.12599 -1.69372,-6.90762 3.08617,-5.37404 z"
       id="path1931"
       sodipodi:nodetypes="ccccccc" />
    <path
       style="color:#000000;fill:#000000;-inkscape-stroke:none"
       d="m 241.10821,129.74813 -5.88555,7.76164 -9.20934,4.35563 -0.78416,2.18194 10.78256,-5.45359 9.34485,-9.37578 z"
       id="path1968"
       sodipodi:nodetypes="ccccccc" />
    <path
       style="color:#000000;fill:#000000;-inkscape-stroke:none"
       d="m 235.07227,137.67578 -2.79883,4.06055 c -0.16133,0.0708 -2.15786,0.94638 -4.38477,1.93359 -1.15755,0.51316 -2.33184,1.03765 -3.25586,1.45508 -0.462,0.20871 -0.86173,0.38945 -1.16601,0.53125 -0.30428,0.1418 -0.47672,0.21991 -0.63086,0.31055 l 0.67187,1.14062 c -0.0108,0.006 0.22168,-0.11406 0.51758,-0.25195 0.29591,-0.13789 0.69299,-0.31788 1.15234,-0.52539 0.91871,-0.41503 2.09201,-0.93869 3.24805,-1.45117 2.31208,-1.02497 4.55274,-2.00782 4.55274,-2.00782 l 0.17187,-0.0762 12.20618,-13.57692 z"
       id="path2326"
       sodipodi:nodetypes="ccsssccssscccc" />
    <path
       style="color:#000000;fill:#000000;-inkscape-stroke:none"
       d="m 215.38672,144.37305 -0.67774,13.88672 3.28907,5.7539 1.14843,-0.6582 -3.09765,-5.41602 1.30464,-11.25976 z"
       id="path4856"
       sodipodi:nodetypes="ccccccc" />
    <path
       style="color:#000000;fill:#000000;-inkscape-stroke:none"
       d="m 211.76102,140.37778 0.44786,10.48745 2.85743,5.39649 0.82227,-0.45636 -2.34962,-5.25458 c 0.11255,-3.26718 0.29885,-9.55469 0.29885,-9.55469 z"
       id="path4858"
       sodipodi:nodetypes="ccccccc" />
    <path
       style="color:#000000;fill:#000000;-inkscape-stroke:none"
       d="m 227.7787,150.30577 -2.35487,5.82118 -3.9043,2.47266 0.70703,1.11719 4.20508,-2.66211 3.6875,-7.06446 z"
       id="path5224"
       sodipodi:nodetypes="ccccccc" />
    <path
       style="color:#000000;fill:#000000;-inkscape-stroke:none"
       d="m 234.75,145.59375 -2.65625,4.67578 -4.95313,2.59375 0.61329,1.17188 5.29687,-2.77539 4.49522,-5.30889 z"
       id="path5339"
       sodipodi:nodetypes="ccccccc" />
    <path
       style="color:#000000;fill:#000000;-inkscape-stroke:none"
       d="m 222.14062,135.49219 -1.98046,5.16015 0.95703,9.36524 1.73595,-1.04189 -1.34533,-8.14366 1.4174,-5.14559 z"
       id="path5715"
       sodipodi:nodetypes="ccccccc" />
    <path
       style="color:#000000;fill:#000000;-inkscape-stroke:none"
       d="m 202.95508,99.484375 -0.32813,3.529295 13.4961,20.8086 -0.43946,8.50781 2.1828,-1.95614 -0.46206,-7.0282 -0.45511,0.38868 0.50781,-0.27149 -0.0527,-0.11719 -0.0117,0.002 -13.40625,-20.66797 0.28515,-3.074221 z"
       id="path3927"
       sodipodi:nodetypes="ccccccccccccc" />
    <path
       style="color:#000000;fill:#000000;-inkscape-stroke:none"
       d="m 270.61899,120.38115 -3.7323,4.68074 -18.32419,7.73889 -6.9082,7.97852 1.4613,2.14638 8.8782,-10.36119 18.72886,-8.28519 2.74218,-3.64844 z"
       id="path4042"
       sodipodi:nodetypes="ccccccccc" />
    <path
       style="color:#000000;fill:#000000;-inkscape-stroke:none"
       d="m 204.27153,99.605549 -1.38021,0.607981 25.46805,31.97788 -9.75585,21.65234 1.17773,0.59766 11.07812,-21.38271 42.60547,-12.42784 -0.39843,-1.26172 -42.79098,12.87398 -4.63676,9.21 3.45722,-9.36093 z"
       id="path108867"
       sodipodi:nodetypes="cccccccccccc" />
  </g>
  <g
     inkscape:groupmode="layer"
     id="layer6"
     inkscape:label="body"
     style="display:inline"
     sodipodi:insensitive="true">
    <path
       style="color:#000000;fill:#000000;-inkscape-stroke:none"
       d="m 212.48297,138.19725 -42.24664,14.01173 -156.957033,231.23438 2.576517,1.74743 155.216456,-231.85876 41.05514,-12.0795 z"
       id="path2575"
       sodipodi:nodetypes="ccccccc" />
    <path
       style="color:#000000;fill:#000000;-inkscape-stroke:none"
       d="m 214.95792,134.7416 -36.08487,10.45762 -14.52539,22 -7.69336,4.36133 0.65234,1.15039 7.9707,-4.51758 14.41602,-21.83399 33.65234,-8.32617 z"
       id="path2577"
       sodipodi:nodetypes="ccccccccc" />
    <path
       style="color:#000000;fill:#000000;-inkscape-stroke:none"
       d="m 243.85937,140.10742 -2.1289,2.4707 15.21484,7.34571 14.10156,-0.7461 4.84206,-3.2204 7.73408,0.18084 33.62504,40.57866 1.01172,-0.85352 -35.42774,-42.05469 -7.49023,0.0215 -6.40274,4.12742 -11.72422,0.62844 z"
       id="path3115"
       sodipodi:nodetypes="ccccccccccccc" />
    <path
       style="color:#000000;fill:#000000;-inkscape-stroke:none"
       d="m 213.29102,179.22461 -3.17774,14.04101 1.97852,7.42188 -11.73243,26.06641 0.78711,22.27929 -145.300777,159.77735 0.978516,0.88867 145.662111,-160.17383 -0.79297,-22.51172 11.79687,-26.21289 -2.01562,-7.5625 3.10742,-13.72266 z"
       id="path4577" />
    <path
       style="color:#000000;fill:#000000;-inkscape-stroke:none"
       d="m 273.41016,146.86328 -1.11914,0.70508 12.18359,19.31445 24.11719,13.25196 3.27929,-0.74805 c -0.25102,-0.59669 -4.33447,-5.29687 -1.62866,-2.66007 l -2.58352,0.34804 -24.194,-13.82865 z"
       id="path9010"
       sodipodi:nodetypes="ccccccccc" />
    <path
       style="color:#000000;fill:#000000;-inkscape-stroke:none"
       d="m 245.32951,138.26818 -1.47014,1.83924 15.54688,7.02539 7.01953,5.06641 9.34766,-0.35547 0.14067,-0.65832 -8.29788,0.40695 -7.54398,-5.60996 z"
       id="path49925"
       sodipodi:nodetypes="ccccccccc" />
    <path
       style="color:#000000;fill:#000000;-inkscape-stroke:none"
       d="m 299.95748,166.03923 2.42969,1.32626 71.0314,4.10603 13.76736,7.70266 10.60509,-0.84011 -23.78711,-10.88481 z"
       id="path51505"
       sodipodi:nodetypes="ccccccc" />
    <path
       style="color:#000000;fill:#000000;-inkscape-stroke:none"
       d="m 109.18164,111.98438 -1.4043,7.96289 48.7168,52.63867 2.58094,-2.47974 -48.57088,-49.31941 1.27518,-6.49108 z"
       id="path51620"
       sodipodi:nodetypes="ccccccc" />
  </g>
  <g
     inkscape:groupmode="layer"
     id="layer7"
     inkscape:label="gambe"
     style="display:inline"
     sodipodi:insensitive="true">
    <path
       style="color:#000000;fill:#000000;-inkscape-stroke:none"
       d="m 217.34046,195.19095 c 0,0 -3.79609,-0.30305 -3.25858,0.64546 1.00783,3.11192 2.10469,6.19425 3.17612,9.28467 -4.4369,8.251 -8.91576,16.48185 -13.32644,24.74543 -1.08585,2.56273 -2.17169,5.12545 -3.25754,7.68817 0.44565,0.0357 1.22368,0.89161 1.36379,0.17317 1.13952,-2.61702 2.17529,-5.28386 3.38033,-7.86943 l 13.95862,-26.82896 z"
       id="path13328"
       sodipodi:nodetypes="ccccccccc" />
    <path
       style="color:#000000;fill:#000000;-inkscape-stroke:none"
       d="m 725.21094,149.55078 -513.91602,45.04883 0.11524,1.31836 518.72399,-36.15222 z"
       id="path39758"
       sodipodi:nodetypes="ccccc" />
    <path
       style="color:#000000;fill:#000000;-inkscape-stroke:none"
       d="m 101.66992,104.14063 -78.191222,20.62034 -14.4591667,-6.67894 -4.657246,1.33887 15.2275587,7.54199 c 0,0 54.485677,-14.24089 81.728516,-21.36133 20.86296,18.74396 62.54883,56.27735 62.54883,56.27735 l 2.46824,-3.52204 z"
       id="path40468"
       sodipodi:nodetypes="ccccccccc" />
    <path
       style="color:#000000;fill:#000000;-inkscape-stroke:none"
       d="m 335.75,212.09766 -1.06445,0.78515 129.08346,185.75021 9.13529,-0.82443 z"
       id="path45540"
       sodipodi:nodetypes="ccccc" />
    <path
       style="color:#000000;fill:#000000;-inkscape-stroke:none"
       d="m 212.85547,200.08594 -2.37517,4.62473 554.29509,51.63894 0.13086,-1.31641 z"
       id="path47846"
       sodipodi:nodetypes="ccccc" />
  </g>
</svg>
