<?xml version="1.0" encoding="UTF-8" standalone="no"?>
<!-- Created with Inkscape (http://www.inkscape.org/) -->

<svg
   width="50.510235"
   height="51.179955"
   viewBox="0 0 13.364166 13.541364"
   version="1.1"
   id="svg5"
   inkscape:version="1.1.1 (3bf5ae0d25, 2021-09-20)"
   sodipodi:docname="arrow.svg"
   xmlns:inkscape="http://www.inkscape.org/namespaces/inkscape"
   xmlns:sodipodi="http://sodipodi.sourceforge.net/DTD/sodipodi-0.dtd"
   xmlns="http://www.w3.org/2000/svg"
   xmlns:svg="http://www.w3.org/2000/svg">
  <sodipodi:namedview
     id="namedview7"
     pagecolor="#ffffff"
     bordercolor="#666666"
     borderopacity="1.0"
     inkscape:pageshadow="2"
     inkscape:pageopacity="0.0"
     inkscape:pagecheckerboard="0"
     inkscape:document-units="mm"
     showgrid="false"
     units="px"
     width="200px"
     fit-margin-top="0"
     fit-margin-left="0"
     fit-margin-right="0"
     fit-margin-bottom="0"
     inkscape:zoom="5.5304153"
     inkscape:cx="50.5387"
     inkscape:cy="52.075656"
     inkscape:window-width="1920"
     inkscape:window-height="1011"
     inkscape:window-x="0"
     inkscape:window-y="0"
     inkscape:window-maximized="1"
     inkscape:current-layer="layer1" />
  <defs
     id="defs2" />
  <g
     inkscape:label="Livello 1"
     inkscape:groupmode="layer"
     id="layer1"
     transform="translate(-6.0855122,-4.2558594)">
    <g
       id="path1950">
      <path
         style="color:#000000;fill:#000000;stroke-width:3;stroke-linejoin:round;-inkscape-stroke:none"
         d="M 7.5845932,9.255403 H 17.950287 l -5.189174,7.042062 z"
         id="path2295" />
      <path
         style="color:#000000;fill:#000000;stroke-linejoin:round;-inkscape-stroke:none;stroke:none"
         d="M 7.5839844,7.7558594 A 1.50015,1.50015 0 0 0 6.3769531,10.144531 l 5.1757809,7.041016 a 1.50015,1.50015 0 0 0 2.416016,0.002 l 5.189453,-7.042969 A 1.50015,1.50015 0 0 0 17.951172,7.7558594 Z m 2.9648436,2.9999996 h 4.431641 l -2.21875,3.011719 z"
         id="path2378" />
    </g>
    <g
       id="rect2123">
      <path
         style="color:#000000;fill:#000000;stroke-width:3;stroke-linejoin:round;-inkscape-stroke:none"
         d="m 10.711797,5.7556949 h 4.111286 v 4.4857841 h -4.111286 z"
         id="path2289" />
      <path
         style="color:#000000;fill:#000000;stroke-linejoin:round;-inkscape-stroke:none;stroke:none"
         d="m 10.710938,4.2558594 a 1.50015,1.50015 0 0 0 -1.5000005,1.5 v 4.4863286 a 1.50015,1.50015 0 0 0 1.5000005,1.5 h 4.111328 a 1.50015,1.50015 0 0 0 1.5,-1.5 V 5.7558594 a 1.50015,1.50015 0 0 0 -1.5,-1.5 z m 1.5,3 h 1.111328 v 1.4863281 h -1.111328 z"
         id="path2291" />
    </g>
  </g>
</svg>
