<?xml version="1.0" encoding="UTF-8" standalone="no"?>
<!-- Created with Inkscape (http://www.inkscape.org/) -->

<svg
   width="1200"
   height="980"
   viewBox="0 0 317.49999 259.29165"
   version="1.1"
   id="svg5"
   inkscape:version="1.1.1 (3bf5ae0d25, 2021-09-20)"
   sodipodi:docname="footer_shape_right.svg"
   xmlns:inkscape="http://www.inkscape.org/namespaces/inkscape"
   xmlns:sodipodi="http://sodipodi.sourceforge.net/DTD/sodipodi-0.dtd"
   xmlns="http://www.w3.org/2000/svg"
   xmlns:svg="http://www.w3.org/2000/svg">
  <sodipodi:namedview
     id="namedview7"
     pagecolor="#ffffff"
     bordercolor="#666666"
     borderopacity="1.0"
     inkscape:pageshadow="2"
     inkscape:pageopacity="0.0"
     inkscape:pagecheckerboard="0"
     inkscape:document-units="px"
     showgrid="false"
     units="px"
     width="1980px"
     inkscape:zoom="1"
     inkscape:cx="615.5"
     inkscape:cy="781"
     inkscape:window-width="1920"
     inkscape:window-height="1011"
     inkscape:window-x="0"
     inkscape:window-y="0"
     inkscape:window-maximized="1"
     inkscape:current-layer="svg5" />
  <defs
     id="defs2" />
  <g
     inkscape:label="Livello 1"
     inkscape:groupmode="layer"
     id="layer1"
     style="display:inline">
    <circle
       id="path1075"
       style="fill:#000000;stroke:#050a00;stroke-width:0.264583"
       cx="349.5968"
       cy="88.869049"
       r="0" />
    <circle
       id="path1077"
       style="fill:#000000;stroke:#050a00;stroke-width:0.264583"
       cx="349.5968"
       cy="88.869049"
       r="0" />
    <circle
       id="path1079"
       style="fill:#000000;stroke:#050a00;stroke-width:0.264583"
       cx="328.35263"
       cy="134.82603"
       r="0" />
    <circle
       id="path1081"
       style="fill:#000000;stroke:#050a00;stroke-width:0.264583"
       cx="328.35263"
       cy="134.82603"
       r="0" />
  </g>
  <path
     style="color:#000000;fill:#000000;-inkscape-stroke:none"
     d="m 28.238281,260.64648 c -0.325497,0.16275 -0.519022,0.26769 -0.65039,0.33008 -0.131368,0.0624 -0.188761,0.0806 -0.28125,0.0859 -0.184979,0.0106 -0.529132,-0.0566 -1.591797,-0.0566 v 0.26562 c 1.051252,0 1.351128,0.0692 1.605468,0.0547 0.127171,-0.007 0.236753,-0.0409 0.38086,-0.10937 0.144107,-0.0684 0.334148,-0.17294 0.65625,-0.33399 z"
     id="path1151" />
  <path
     style="color:#000000;fill:#000000;-inkscape-stroke:none"
     d="m 336.52148,131.60937 -26.16992,34.82032 -7.36914,62.88086 -27.60937,-59.11328 -4.57618,18.92968 12.8086,41.58399 -70.99414,9.02929 12.92773,-35.07031 -13.2832,-16.85547 -43.55078,52.67774 -149.169924,21.09179 -0.05908,1.32972 151.307124,-18.70862 41.53876,-53.53542 11.16346,13.85341 -16.85847,39.97888 79.66735,-11.77748 -12.59156,-43.72975 2.8412,-12.80362 27.83552,60.32897 6.96143,-69.84268 z"
     id="path1186"
     sodipodi:nodetypes="cccccccccccccccccccccc" />
  <path
     style="color:#000000;fill:#000000;-inkscape-stroke:none"
     d="m 197.13281,168.50781 -66.23047,68.70117 -37.824215,9.08594 -9.748047,7.49805 4.507133,-0.14014 6.149695,-5.78135 40.042594,-8.76974 63.64806,-68.76017 17.92309,4.5515 -47.49909,66.3413 3.28321,2.22852 47.13085,-69.37305 z"
     id="path5433"
     sodipodi:nodetypes="ccccccccccccc" />
  <path
     style="color:#000000;fill:#000000;-inkscape-stroke:none"
     d="m 217.77734,221.83398 -1.06015,2.89223 -5.35922,16.69603 26.12705,-3.66321 1.25131,-0.13012 -7.79297,-10.66407 z"
     id="path7535"
     sodipodi:nodetypes="ccccccc" />
  <path
     style="color:#000000;fill:#000000;-inkscape-stroke:none"
     d="m 234.5957,220.00586 -10.73437,5.22851 1.15549,0.82552 9.72909,-4.77414 30.0119,14.56581 1.04492,-2.43164 z"
     id="path7650"
     sodipodi:nodetypes="ccccccc" />
  <path
     style="color:#000000;fill:#000000;-inkscape-stroke:none"
     d="m 278.46875,211.22656 c -0.44002,0.79881 -2.14582,3.42952 -3.67969,5.74024 -1.53386,2.31072 -2.9375,4.38281 -2.9375,4.38281 l -0.15429,0.22851 -2.42774,12.95313 2.60156,0.48633 11.73438,-4.30664 -3.61056,-17.25117 z"
     id="path7765"
     sodipodi:nodetypes="csccccccc" />
  <path
     style="color:#000000;fill:#000000;-inkscape-stroke:none"
     d="m 293.46702,211.57967 0.38623,1.65726 9.95389,19.14797 0.40184,-11.90053 1.55384,-2.63608 -3.17298,-5.86196 z"
     id="path7880"
     sodipodi:nodetypes="ccccccc" />
  <path
     style="color:#000000;fill:#000000;-inkscape-stroke:none"
     d="m 143.84766,219.82422 -28.88282,9.09961 -5.26833,14.9211 2.74525,-0.80307 3.8192,-12.9884 27.01632,-8.91121 3.79659,3.65541 0.20933,-1.12969 z"
     id="path8090"
     sodipodi:nodetypes="ccccccccc" />
  <path
     style="color:#000000;fill:#000000;-inkscape-stroke:none"
     d="m 114.94336,231.77539 -8.08008,1.7832 -4.47265,11.34571 2.92445,-0.34294 3.12396,-9.53906 6.74448,-1.97109 z"
     id="path8205"
     sodipodi:nodetypes="ccccccc" />
  <path
     style="fill:#9ece6a;fill-opacity:1;stroke:none;stroke-width:0.264583px;stroke-linecap:butt;stroke-linejoin:miter;stroke-opacity:1"
     d="m 170.7832,244.20508 41.53876,-53.53542 -0.15507,4.9649 -40.19401,52.31026 z"
     id="path14251"
     sodipodi:nodetypes="ccccc" />
  <path
     style="fill:#679138;stroke:none;stroke-width:0.264583px;stroke-linecap:butt;stroke-linejoin:miter;stroke-opacity:1;fill-opacity:1"
     d="m 212.32196,190.66966 11.16346,13.85341 -0.67945,1.74565 -10.63908,-10.63416 z"
     id="path14465" />
  <path
     style="fill:none;stroke:none;stroke-width:0.264583px;stroke-linecap:butt;stroke-linejoin:miter;stroke-opacity:1"
     d="m 90.208442,251.44614 c 0,0 3.778464,-3.57466 3.778464,-3.57466 l 0.419471,2.11299 -2.437834,1.43273 z"
     id="path15331" />
  <path
     style="fill:#9ece6a;fill-opacity:1;stroke:none;stroke-width:0.264583px;stroke-linecap:butt;stroke-linejoin:miter;stroke-opacity:1"
     d="m 89.967888,251.63783 4.019018,-3.76635 0.419471,2.11299 -2.271242,1.33663 z"
     id="path18351"
     sodipodi:nodetypes="ccccc" />
  <path
     style="fill:#679138;stroke:none;stroke-width:0.264583px;stroke-linecap:butt;stroke-linejoin:miter;stroke-opacity:1;fill-opacity:1"
     d="M 170.7832,244.20508 19.476076,262.9137 20.190045,263.15728 171.97288,247.94482 Z"
     id="path21726" />
  <path
     style="fill:#679138;fill-opacity:1;stroke:none;stroke-width:0.264583px;stroke-linecap:butt;stroke-linejoin:miter;stroke-opacity:1"
     d="m 93.986906,247.87148 40.042594,-8.76974 1.15936,4.39592 -40.782483,6.48681 z"
     id="path30182"
     sodipodi:nodetypes="ccccc" />
  <path
     style="fill:#9ece6a;fill-opacity:1;stroke:none;stroke-width:0.264583px;stroke-linecap:butt;stroke-linejoin:miter;stroke-opacity:1"
     d="m 134.0295,239.10174 63.64806,-68.76017 -0.0532,1.9678 -62.4355,71.18829 z"
     id="path35802"
     sodipodi:nodetypes="ccccc" />
  <path
     style="fill:#679138;fill-opacity:1;stroke:none;stroke-width:0.264583px;stroke-linecap:butt;stroke-linejoin:miter;stroke-opacity:1"
     d="m 197.67756,170.34157 17.92309,4.5515 -1.92655,2.64518 -16.04974,-5.22888 z"
     id="path39721"
     sodipodi:nodetypes="ccccc" />
  <path
     style="fill:#679138;fill-opacity:1;stroke:none;stroke-width:0.264583px;stroke-linecap:butt;stroke-linejoin:miter;stroke-opacity:1"
     d="m 195.04722,208.62763 23.4684,-34.53779 -0.74405,4.74244 -9.87049,14.25121 z"
     id="path46222"
     sodipodi:nodetypes="ccccc" />
  <path
     style="fill:#9ece6a;fill-opacity:1;stroke:none;stroke-width:0.264583px;stroke-linecap:butt;stroke-linejoin:miter;stroke-opacity:1"
     d="m 105.67668,243.29935 2.76236,-8.27705 0.47214,3.1386 -1.179,4.62168 z"
     id="path58719"
     sodipodi:nodetypes="ccccc" />
  <path
     style="fill:#679138;fill-opacity:1;stroke:none;stroke-width:0.264583px;stroke-linecap:butt;stroke-linejoin:miter;stroke-opacity:1"
     d="m 108.43904,235.0223 0.47214,3.1386 3.24224,-1.25838 1.18708,-3.30252 z"
     id="path58834"
     sodipodi:nodetypes="ccccc" />
  <path
     style="fill:#9ece6a;fill-opacity:1;stroke:none;stroke-width:0.264583px;stroke-linecap:butt;stroke-linejoin:miter;stroke-opacity:1"
     d="m 112.8207,241.5822 3.44026,-11.52874 0.47997,3.31833 -2.22558,7.82123 z"
     id="path59272"
     sodipodi:nodetypes="ccccc" />
  <path
     style="fill:#679138;stroke:none;stroke-width:0.264583px;stroke-linecap:butt;stroke-linejoin:miter;stroke-opacity:1;fill-opacity:1"
     d="m 116.26096,230.05346 27.01632,-8.91121 -0.12467,1.81956 -26.41168,10.40998 z"
     id="path59424" />
  <path
     style="fill:#5d8134;stroke:none;stroke-width:0.264583px;stroke-linecap:butt;stroke-linejoin:miter;stroke-opacity:1;fill-opacity:1"
     d="m 143.15261,222.96181 0.12467,-1.81956 1.72041,1.58762 -1.09869,1.09326 z"
     id="path59428" />
  <path
     style="fill:#000000;fill-opacity:1;stroke:none;stroke-width:0.264583px;stroke-linecap:butt;stroke-linejoin:miter;stroke-opacity:1"
     d="m 88.588644,252.14762 3.863472,-4.06117 40.852624,-10.40917 c 0,0 10.87844,-10.55033 11.20917,-9.86355 0.33073,0.68678 6.08878,9.17618 6.08878,9.17618 l -0.25942,6.24717 z"
     id="path88789"
     sodipodi:nodetypes="cccsccc" />
  <path
     style="fill:#000000;fill-opacity:1;stroke:none;stroke-width:0.264583px;stroke-linecap:butt;stroke-linejoin:miter;stroke-opacity:1"
     d="m 20.190045,263.15728 c 0,0 139.434215,-18.87613 140.440545,-17.70828 1.00634,1.16784 30.59814,11.87099 30.59814,11.87099 l 81.05542,2.56297 -252.808074,3.03074 z"
     id="path91202"
     sodipodi:nodetypes="cscccc" />
  <path
     style="fill:#9ece6a;fill-opacity:1;stroke:none;stroke-width:0.264583px;stroke-linecap:butt;stroke-linejoin:miter;stroke-opacity:1"
     d="m 225.53906,204.66992 0.27622,5.69593 -3.53516,13.21541 -3.30315,-1.21506 z"
     id="path92011"
     sodipodi:nodetypes="ccccc" />
  <path
     style="fill:#000000;fill-opacity:1;stroke:none;stroke-width:0.264583px;stroke-linecap:butt;stroke-linejoin:miter;stroke-opacity:1"
     d="m 188.1451,250.62758 22.8663,-16.09307 -4.38445,9.96744 8.96298,-1.71213 79.75438,-11.44592 -7.93086,28.58544 -105.52327,-0.41444 z"
     id="path122655"
     sodipodi:nodetypes="cccccccc" />
  <path
     style="fill:#9ece6a;fill-opacity:1;stroke:none;stroke-width:0.264583px;stroke-linecap:butt;stroke-linejoin:miter;stroke-opacity:1"
     d="m 226.56947,225.27671 8.17644,-3.99096 0.21868,2.50824 c 0.23141,-0.13735 -5.84754,2.46929 -5.84754,2.46929 z"
     id="path123448"
     sodipodi:nodetypes="ccccc" />
  <path
     style="fill:#679138;fill-opacity:1;stroke:none;stroke-width:0.264583px;stroke-linecap:butt;stroke-linejoin:miter;stroke-opacity:1"
     d="m 234.74591,221.28575 0.21868,2.50824 21.4762,10.39067 3.85137,-0.49969 z"
     id="path123450"
     sodipodi:nodetypes="ccccc" />
  <path
     style="fill:#9ece6a;fill-opacity:1;stroke:none;stroke-width:0.264583px;stroke-linecap:butt;stroke-linejoin:miter;stroke-opacity:1"
     d="m 286.2943,232.72447 -12.59156,-43.72975 1.36181,2.70282 13.21195,40.66183 z"
     id="path136792"
     sodipodi:nodetypes="ccccc" />
  <path
     style="fill:#679138;stroke:none;stroke-width:0.264583px;stroke-linecap:butt;stroke-linejoin:miter;stroke-opacity:1;fill-opacity:1"
     d="m 273.70274,188.99472 2.8412,-12.80362 0.6558,1.54791 -2.13519,13.95853 z"
     id="path141257" />
  <path
     style="fill:#9ece6a;fill-opacity:1;stroke:none;stroke-width:0.264583px;stroke-linecap:butt;stroke-linejoin:miter;stroke-opacity:1"
     d="m 294.70967,211.6293 -19.33662,-41.43203 1.99242,2.43017 20.69849,39.17461 z"
     id="path154132"
     sodipodi:nodetypes="ccccc" />
  <path
     style="fill:#9ece6a;stroke:none;stroke-width:0.264583px;stroke-linecap:butt;stroke-linejoin:miter;stroke-opacity:1;fill-opacity:1"
     d="m 336.52149,131.60937 -25.18061,35.06802 1.01952,4.55788 22.61071,-34.7625 z"
     id="path175123" />
  <path
     style="fill:#679138;stroke:none;stroke-width:0.264583px;stroke-linecap:butt;stroke-linejoin:miter;stroke-opacity:1;fill-opacity:1"
     d="m 311.34088,166.67739 -6.96142,69.84268 2.43972,-3.55303 5.54122,-61.73177 z"
     id="path175224" />
  <path
     style="fill:#000000;fill-opacity:1;stroke:none;stroke-width:0.264583px;stroke-linecap:butt;stroke-linejoin:miter;stroke-opacity:1"
     d="m 297.58718,221.53124 -2.24287,9.81266 -16.90815,22.66842 -27.06208,5.84798 66.69272,-0.21851 -0.39537,-33.73516 -7.41852,-13.00851 -3.85722,-3.90036 -2.00673,25.57396 z"
     id="path179065"
     sodipodi:nodetypes="cccccccccc" />
</svg>
