<?xml version="1.0" encoding="UTF-8" standalone="no"?>
<!-- Created with Inkscape (http://www.inkscape.org/) -->

<svg
   width="1200"
   height="980"
   viewBox="0 0 317.49999 259.29165"
   version="1.1"
   id="svg5"
   inkscape:version="1.1.1 (3bf5ae0d25, 2021-09-20)"
   sodipodi:docname="footer_shape_left.svg"
   xmlns:inkscape="http://www.inkscape.org/namespaces/inkscape"
   xmlns:sodipodi="http://sodipodi.sourceforge.net/DTD/sodipodi-0.dtd"
   xmlns="http://www.w3.org/2000/svg"
   xmlns:svg="http://www.w3.org/2000/svg">
  <sodipodi:namedview
     id="namedview7"
     pagecolor="#ffffff"
     bordercolor="#666666"
     borderopacity="1.0"
     inkscape:pageshadow="2"
     inkscape:pageopacity="0.0"
     inkscape:pagecheckerboard="0"
     inkscape:document-units="px"
     showgrid="false"
     units="px"
     width="1980px"
     inkscape:zoom="0.5"
     inkscape:cx="729"
     inkscape:cy="856"
     inkscape:window-width="1920"
     inkscape:window-height="1011"
     inkscape:window-x="0"
     inkscape:window-y="0"
     inkscape:window-maximized="1"
     inkscape:current-layer="svg5" />
  <defs
     id="defs2" />
  <g
     inkscape:label="Livello 1"
     inkscape:groupmode="layer"
     id="layer1"
     style="display:inline"
     sodipodi:insensitive="true">
    <circle
       id="path1075"
       style="fill:#000000;stroke:#050a00;stroke-width:0.264583"
       cx="349.5968"
       cy="88.869049"
       r="0" />
    <circle
       id="path1077"
       style="fill:#000000;stroke:#050a00;stroke-width:0.264583"
       cx="349.5968"
       cy="88.869049"
       r="0" />
    <circle
       id="path1079"
       style="fill:#000000;stroke:#050a00;stroke-width:0.264583"
       cx="328.35263"
       cy="134.82603"
       r="0" />
    <circle
       id="path1081"
       style="fill:#000000;stroke:#050a00;stroke-width:0.264583"
       cx="328.35263"
       cy="134.82603"
       r="0" />
  </g>
  <path
     style="fill:none;stroke:#000000;stroke-width:2.64583;stroke-linecap:butt;stroke-linejoin:miter;stroke-miterlimit:4;stroke-dasharray:none;stroke-opacity:1"
     d="m 204.95562,258.02742 -122.125601,-65.80001 -21.692949,3.60618 48.02916,45.96535 79.99941,17.9839"
     id="path194252"
     sodipodi:nodetypes="ccccc" />
  <path
     style="fill:none;stroke:#000000;stroke-width:2.64583;stroke-linecap:butt;stroke-linejoin:miter;stroke-miterlimit:4;stroke-dasharray:none;stroke-opacity:1"
     d="m 109.16623,241.79894 -45.38069,-37.75391 -1.419922,12.11793 36.165792,38.53194 80.6776,2.91595 -0.68989,0.0979"
     id="path194420"
     sodipodi:nodetypes="cccccc" />
  <path
     style="fill:none;stroke:#000000;stroke-width:1.91875;stroke-linecap:butt;stroke-linejoin:miter;stroke-miterlimit:4;stroke-dasharray:none;stroke-opacity:1"
     d="m 168.06969,230.12686 3.79894,-8.34939 38.20983,5.61466 11.65226,22.7226 -16.7751,7.91269"
     id="path194554" />
  <path
     style="fill:none;stroke:#000000;stroke-width:1.91875;stroke-linecap:butt;stroke-linejoin:miter;stroke-miterlimit:4;stroke-dasharray:none;stroke-opacity:1"
     d="m 180.16608,222.47599 4.91297,-5.72173 28.9367,7.31459 12.95865,19.94787 -6.21615,3.45773 0.97247,2.64028"
     id="path194556"
     sodipodi:nodetypes="cccccc" />
  <path
     style="fill:none;stroke:#000000;stroke-width:2.64583;stroke-linecap:butt;stroke-linejoin:miter;stroke-miterlimit:4;stroke-dasharray:none;stroke-opacity:1"
     d="M 20.598754,259.32973 C 17.485482,256.7368 -7.5858594,233.57581 -7.5858594,233.57581 L 33.35586,164.7988 20.478471,166.1952 -33.73799,226.54637 6.3326372,172.36744 -2.6441956,172.22984 -176.15713,260.1994 17.427017,257.29806"
     id="path194784"
     sodipodi:nodetypes="ccccccccc" />
  <path
     style="fill:none;stroke:#000000;stroke-width:2.64583;stroke-linecap:butt;stroke-linejoin:miter;stroke-miterlimit:4;stroke-dasharray:none;stroke-opacity:1"
     d="M 8.3298296,205.08279 26.715677,204.0538 47.82162,241.19528 17.427017,257.29806"
     id="path194932" />
  <g
     inkscape:groupmode="layer"
     id="layer2"
     inkscape:label="Layer 1">
    <path
       style="fill:#000000;fill-opacity:1;stroke:none;stroke-width:0.264583px;stroke-linecap:butt;stroke-linejoin:miter;stroke-opacity:1"
       d="m 309.28033,259.98722 c -3.77341,-1.05833 -81.41311,-27.39574 -81.41311,-27.39574 l -10.09034,10.16578 -1.22525,6.34173 -20.42201,2.37919 c 0,0 -32.29053,-25.06514 -33.14888,-24.58455 -0.85835,0.48059 -66.174251,5.07876 -66.174251,5.07876 l 8.510591,7.06469 -19.764167,9.33018 -24.362337,11.19466 -16.603635,-16.26154 -49.121031,-5.85235 -29.2039,-10.90166 c 0,0 -9.671761,-15.15515 -10.656197,-14.93087 -0.984437,0.22427 -83.130843,16.98397 -83.130843,16.98397 l -239.72281,47.35265 z"
       id="path195735"
       sodipodi:nodetypes="cccccscccccccsccc" />
  </g>
  <path
     style="fill:none;stroke:#000000;stroke-width:2.64583;stroke-linecap:butt;stroke-linejoin:miter;stroke-miterlimit:4;stroke-dasharray:none;stroke-opacity:1"
     d="m 152.88472,229.91774 c -1.28468,-1.25057 -44.76419,-25.09924 -44.76419,-25.09924 l -24.452257,-23.76289 8.986533,0.26148 58.596934,30.8994 36.84581,-1.73891 20.19607,12.18619"
     id="path197011"
     sodipodi:nodetypes="ccccccc" />
  <path
     style="fill:none;stroke:#000000;stroke-width:2.64583321;stroke-linecap:butt;stroke-linejoin:miter;stroke-opacity:1;stroke-miterlimit:4;stroke-dasharray:none"
     d="m 75.203673,230.62157 -20.890713,10.38903 -3.175,14.61099"
     id="path197361" />
</svg>
