<?xml version="1.0" encoding="UTF-8" standalone="no"?>
<!-- Created with Inkscape (http://www.inkscape.org/) -->

<svg
   width="1980"
   height="1300"
   viewBox="0 0 523.87499 343.95835"
   version="1.1"
   id="svg5"
   inkscape:version="1.1.1 (3bf5ae0d25, 2021-09-20)"
   sodipodi:docname="m2.svg"
   xmlns:inkscape="http://www.inkscape.org/namespaces/inkscape"
   xmlns:sodipodi="http://sodipodi.sourceforge.net/DTD/sodipodi-0.dtd"
   xmlns="http://www.w3.org/2000/svg"
   xmlns:svg="http://www.w3.org/2000/svg">
  <sodipodi:namedview
     id="namedview7"
     pagecolor="#ffffff"
     bordercolor="#666666"
     borderopacity="1.0"
     inkscape:pageshadow="2"
     inkscape:pageopacity="0.0"
     inkscape:pagecheckerboard="0"
     inkscape:document-units="px"
     showgrid="false"
     inkscape:zoom="1.3826038"
     inkscape:cx="443.00471"
     inkscape:cy="352.23395"
     inkscape:window-width="1920"
     inkscape:window-height="1011"
     inkscape:window-x="0"
     inkscape:window-y="0"
     inkscape:window-maximized="1"
     inkscape:current-layer="layer13"
     units="px"
     width="1980px" />
  <defs
     id="defs2">
    <inkscape:path-effect
       effect="bspline"
       id="path-effect70152"
       is_visible="true"
       lpeversion="1"
       weight="33.333333"
       steps="2"
       helper_size="0"
       apply_no_weight="true"
       apply_with_weight="true"
       only_selected="false" />
    <inkscape:path-effect
       effect="bspline"
       id="path-effect68312"
       is_visible="true"
       lpeversion="1"
       weight="33.333333"
       steps="2"
       helper_size="0"
       apply_no_weight="true"
       apply_with_weight="true"
       only_selected="false" />
    <inkscape:path-effect
       effect="bspline"
       id="path-effect64634"
       is_visible="true"
       lpeversion="1"
       weight="33.333333"
       steps="2"
       helper_size="0"
       apply_no_weight="true"
       apply_with_weight="true"
       only_selected="false" />
    <inkscape:path-effect
       effect="bspline"
       id="path-effect60676"
       is_visible="true"
       lpeversion="1"
       weight="33.333333"
       steps="2"
       helper_size="0"
       apply_no_weight="true"
       apply_with_weight="true"
       only_selected="false" />
    <inkscape:path-effect
       effect="bspline"
       id="path-effect59913"
       is_visible="true"
       lpeversion="1"
       weight="33.333333"
       steps="2"
       helper_size="0"
       apply_no_weight="true"
       apply_with_weight="true"
       only_selected="false" />
    <inkscape:path-effect
       effect="bspline"
       id="path-effect58669"
       is_visible="true"
       lpeversion="1"
       weight="33.333333"
       steps="2"
       helper_size="0"
       apply_no_weight="true"
       apply_with_weight="true"
       only_selected="false" />
    <inkscape:path-effect
       effect="bspline"
       id="path-effect57303"
       is_visible="true"
       lpeversion="1"
       weight="33.333333"
       steps="2"
       helper_size="0"
       apply_no_weight="true"
       apply_with_weight="true"
       only_selected="false" />
    <inkscape:path-effect
       effect="bspline"
       id="path-effect45028"
       is_visible="true"
       lpeversion="1"
       weight="33.333333"
       steps="2"
       helper_size="0"
       apply_no_weight="true"
       apply_with_weight="true"
       only_selected="false" />
    <inkscape:path-effect
       effect="bspline"
       id="path-effect44621"
       is_visible="true"
       lpeversion="1"
       weight="33.333333"
       steps="2"
       helper_size="0"
       apply_no_weight="true"
       apply_with_weight="true"
       only_selected="false" />
    <inkscape:path-effect
       effect="bspline"
       id="path-effect42845"
       is_visible="true"
       lpeversion="1"
       weight="33.333333"
       steps="2"
       helper_size="0"
       apply_no_weight="true"
       apply_with_weight="true"
       only_selected="false" />
    <inkscape:path-effect
       effect="bspline"
       id="path-effect39843"
       is_visible="true"
       lpeversion="1"
       weight="33.333333"
       steps="2"
       helper_size="0"
       apply_no_weight="true"
       apply_with_weight="true"
       only_selected="true" />
    <inkscape:path-effect
       effect="bspline"
       id="path-effect37675"
       is_visible="true"
       lpeversion="1"
       weight="33.333333"
       steps="2"
       helper_size="0"
       apply_no_weight="true"
       apply_with_weight="true"
       only_selected="false" />
    <inkscape:path-effect
       effect="bspline"
       id="path-effect25498"
       is_visible="true"
       lpeversion="1"
       weight="33.333333"
       steps="2"
       helper_size="0"
       apply_no_weight="true"
       apply_with_weight="true"
       only_selected="false" />
    <inkscape:path-effect
       effect="bspline"
       id="path-effect23518"
       is_visible="true"
       lpeversion="1"
       weight="33.333333"
       steps="2"
       helper_size="0"
       apply_no_weight="true"
       apply_with_weight="true"
       only_selected="false" />
    <inkscape:path-effect
       effect="bspline"
       id="path-effect22570"
       is_visible="true"
       lpeversion="1"
       weight="33.333333"
       steps="2"
       helper_size="0"
       apply_no_weight="true"
       apply_with_weight="true"
       only_selected="false" />
    <inkscape:path-effect
       effect="bspline"
       id="path-effect21413"
       is_visible="true"
       lpeversion="1"
       weight="33.333333"
       steps="2"
       helper_size="0"
       apply_no_weight="true"
       apply_with_weight="true"
       only_selected="true" />
    <inkscape:path-effect
       effect="bspline"
       id="path-effect20899"
       is_visible="true"
       lpeversion="1"
       weight="33.333333"
       steps="2"
       helper_size="0"
       apply_no_weight="true"
       apply_with_weight="true"
       only_selected="false" />
    <inkscape:path-effect
       effect="bspline"
       id="path-effect20291"
       is_visible="true"
       lpeversion="1"
       weight="33.333333"
       steps="2"
       helper_size="0"
       apply_no_weight="true"
       apply_with_weight="true"
       only_selected="true" />
    <inkscape:path-effect
       effect="bspline"
       id="path-effect19563"
       is_visible="true"
       lpeversion="1"
       weight="33.333333"
       steps="2"
       helper_size="0"
       apply_no_weight="true"
       apply_with_weight="true"
       only_selected="false" />
    <inkscape:path-effect
       effect="bspline"
       id="path-effect17024"
       is_visible="true"
       lpeversion="1"
       weight="33.333333"
       steps="2"
       helper_size="0"
       apply_no_weight="true"
       apply_with_weight="true"
       only_selected="true" />
    <inkscape:path-effect
       effect="bspline"
       id="path-effect15019"
       is_visible="true"
       lpeversion="1"
       weight="33.333333"
       steps="2"
       helper_size="0"
       apply_no_weight="true"
       apply_with_weight="true"
       only_selected="true" />
    <inkscape:path-effect
       effect="bspline"
       id="path-effect13503"
       is_visible="true"
       lpeversion="1"
       weight="33.333333"
       steps="2"
       helper_size="0"
       apply_no_weight="true"
       apply_with_weight="true"
       only_selected="true" />
    <inkscape:path-effect
       effect="bspline"
       id="path-effect9577"
       is_visible="true"
       lpeversion="1"
       weight="10"
       steps="1"
       helper_size="1"
       apply_no_weight="true"
       apply_with_weight="true"
       only_selected="true" />
  </defs>
  <g
     inkscape:label="diagonal"
     inkscape:groupmode="layer"
     id="layer1"
     style="display:inline"
     sodipodi:insensitive="true">
    <path
       style="font-variation-settings:normal;opacity:1;fill:none;fill-opacity:1;stroke:#eae7e7;stroke-width:1.58879;stroke-linecap:butt;stroke-linejoin:miter;stroke-miterlimit:4;stroke-dasharray:none;stroke-dashoffset:0;stroke-opacity:1;stop-color:#000000;stop-opacity:1"
       d="M 77.726111,34.627958 406.71269,297.01913"
       id="path885" />
    <path
       style="font-variation-settings:normal;opacity:1;fill:none;fill-opacity:1;stroke:#eae7e7;stroke-width:1.58879;stroke-linecap:butt;stroke-linejoin:miter;stroke-miterlimit:4;stroke-dasharray:none;stroke-dashoffset:0;stroke-opacity:1;stop-color:#000000;stop-opacity:1"
       d="M 76.768962,295.72293 407.66983,34.322968"
       id="path887" />
  </g>
  <g
     inkscape:groupmode="layer"
     id="layer14"
     inkscape:label="N 7"
     style="display:inline">
    <path
       style="font-variation-settings:normal;opacity:1;vector-effect:none;fill:none;fill-opacity:1;stroke:#db1f1f;stroke-width:3.96875;stroke-linecap:butt;stroke-linejoin:miter;stroke-miterlimit:4;stroke-dasharray:none;stroke-dashoffset:0;stroke-opacity:1;-inkscape-stroke:none;stop-color:#000000;stop-opacity:1"
       d="m 196.27507,125.10862 c 0,0 0,-60.02365 0,-60.02365 0,-12.79478 0,-23.155454 1.90995,-30.769897 1.90995,-7.614442 4.5084,-7.614442 7.71758,-7.614442 0,23.799086 0,71.397259 0,70.71277 0,-0.684489 0,-57.325277 0,-86.33016 3.70041,0.0888 7.46514,0.179146 9.27296,9.548311 1.80782,9.369165 1.78666,28.67675 1.76586,47.656079 0.2361,25.94963 0.58004,63.753129 0.70829,77.848889"
       id="path58572"
       inkscape:path-effect="#path-effect58669"
       inkscape:original-d="m 196.27507,125.10862 0,-60.02365 c 0,0 2.6e-4,-23.155454 0,-38.384339 3.8199,2.65e-4 9.62753,0 9.62753,0 0,0 -0.79037,72.76624 0,71.397259 0.79038,-1.368978 0,-87.014649 0,-87.014649 0,0 7.46513,0.179404 11.10122,0.266404 -0.0202,18.651072 -0.0624,56.937986 -0.0624,56.937986 0,0 0.58031,63.753129 0.70829,77.848889"
       sodipodi:nodetypes="ccccscccc" />
    <path
       style="font-variation-settings:normal;opacity:1;vector-effect:none;fill:none;fill-opacity:1;stroke:#db1f1f;stroke-width:3.96875;stroke-linecap:butt;stroke-linejoin:miter;stroke-miterlimit:4;stroke-dasharray:none;stroke-dashoffset:0;stroke-opacity:1;-inkscape-stroke:none;stop-color:#000000;stop-opacity:1"
       d="m 172.37148,92.285931 c 3.16751,2.156748 16.00781,10.899669 19.92955,4.847459 3.92175,-6.052212 4.01091,-24.173162 4.09826,-41.927028"
       id="path59702"
       sodipodi:nodetypes="ccc"
       inkscape:path-effect="#path-effect59913"
       inkscape:original-d="m 172.37148,92.285931 c 3.16747,2.156805 16.00777,10.899729 23.76575,16.182029 0.0858,-17.386781 0.26206,-53.261598 0.26206,-53.261598" />
    <path
       style="font-variation-settings:normal;opacity:1;vector-effect:none;fill:none;fill-opacity:1;stroke:#db1f1f;stroke-width:3.96875;stroke-linecap:butt;stroke-linejoin:miter;stroke-miterlimit:4;stroke-dasharray:none;stroke-dashoffset:0;stroke-opacity:1;-inkscape-stroke:none;stop-color:#000000;stop-opacity:1"
       d="m 216.93251,62.757205 c 0.44494,18.012575 0.91733,37.136872 4.05997,50.124505 3.14263,12.98762 9.78176,23.25489 16.03522,32.92572"
       id="path60617"
       inkscape:path-effect="#path-effect60676"
       inkscape:original-d="m 216.93251,62.757205 c 0,0 0.91759,37.136866 1.33481,54.037725 5.86786,9.07436 18.76038,29.0125 18.76038,29.0125"
       sodipodi:nodetypes="ccc" />
  </g>
  <g
     inkscape:groupmode="layer"
     id="layer13"
     inkscape:label="N 6"
     style="display:inline">
    <path
       style="font-variation-settings:normal;opacity:1;vector-effect:none;fill:none;fill-opacity:1;stroke:#db1f1f;stroke-width:3.96875;stroke-linecap:butt;stroke-linejoin:miter;stroke-miterlimit:4;stroke-dasharray:none;stroke-dashoffset:0;stroke-opacity:1;-inkscape-stroke:none;stop-color:#000000;stop-opacity:1"
       d="m 164.64202,99.988727 c 0,-29.969209 0,-73.323994 -0.99453,-81.615811 -0.99454,-8.291816 -6.19564,-8.291816 -9.79073,-8.291816 0,0 0,38.578187 0,38.578187 0,0 0,38.578187 0,38.578187 0,0 0,-41.013619 0,-41.013619 -4.11188,0 -8.61721,0 -10.47642,4.606036 -1.85921,4.606036 -1.85921,15.768462 -1.85921,25.955711 0,10.187249 0,17.92038 -5.73781,19.741131 -5.73781,1.820751 -12.75791,-3.684826 -22.00577,-10.937547 -9.24786,-7.252721 -20.448024,-16.03655 -25.100846,-17.755312 -4.652821,-1.718762 -7.73886,1.787962 -10.286918,4.683369 0,0 44.127804,36.666027 44.127804,36.666027 0,0 -36.070246,-29.90019 -36.070246,-29.90019 C 74.423928,69.31635 58.660639,56.249477 53.653677,53.815616 c -5.006961,-2.433861 -8.299939,1.370049 -10.811618,4.271436 0,0 38.391306,32.636124 38.391306,32.636124 0,0 38.391305,32.636124 38.391305,32.636124 0,0 -44.630134,-37.947279 -44.630134,-37.947279 -2.449518,2.884984 -4.62264,5.444436 -0.638248,11.763502 3.984391,6.319067 12.50965,13.834277 22.119628,22.305687 15.549724,13.96755 34.778904,31.24018 40.888404,43.54244 6.10951,12.30227 6.67441,34.88603 7.13123,53.14894"
       id="path63929"
       sodipodi:nodetypes="ccccccccccccccccccccccc"
       inkscape:path-effect="#path-effect64634"
       inkscape:original-d="m 164.64202,99.988727 c 0,0 2.6e-4,-73.323994 0,-89.907627 -1.98907,2.65e-4 -10.78526,0 -10.78526,0 V 48.659287 87.237474 46.223855 c 0,0 -8.61721,2.65e-4 -12.33563,0 2.6e-4,9.212072 0,30.561747 0,30.561747 0,0 2.6e-4,17.92038 0,30.561748 -11.47565,-8.999833 -27.74358,-21.758164 -27.74358,-21.758164 0,0 -20.448052,-16.036515 -27.743589,-21.758164 -2.009798,2.284336 -7.644175,8.686221 -7.644175,8.686221 L 122.51759,109.18327 86.447344,79.28308 c 0,0 -27.786727,-23.033576 -36.070247,-29.90019 -1.730099,1.999109 -7.535038,8.704162 -7.535038,8.704162 L 81.233365,90.723176 119.62467,123.3593 74.994536,85.412021 c 0,0 -4.622355,5.444678 -7.348553,8.654953 10.694678,9.427636 28.829933,25.414236 28.829933,25.414236 0,0 34.778894,31.24019 46.649174,41.90266 0.349,13.94204 1.37046,54.78872 1.37046,54.78872" />
    <path
       style="font-variation-settings:normal;opacity:1;vector-effect:none;fill:none;fill-opacity:1;stroke:#db1f1f;stroke-width:3.96875;stroke-linecap:butt;stroke-linejoin:miter;stroke-miterlimit:4;stroke-dasharray:none;stroke-dashoffset:0;stroke-opacity:1;-inkscape-stroke:none;stop-color:#000000;stop-opacity:1"
       d="m 122.51759,109.18327 c 6.12371,5.12215 10.64817,8.90662 19.50261,6.9738 8.85443,-1.93282 14.70405,-7.98135 22.62182,-16.168343"
       id="path68291"
       inkscape:path-effect="#path-effect68312"
       inkscape:original-d="m 122.51759,109.18327 c 0,0 10.64815,8.90664 18.37113,15.36645 9.98618,-10.32521 23.7533,-24.560993 23.7533,-24.560993"
       sodipodi:nodetypes="ccc" />
    <path
       style="font-variation-settings:normal;opacity:1;vector-effect:none;fill:none;fill-opacity:1;stroke:#db1f1f;stroke-width:3.96875;stroke-linecap:butt;stroke-linejoin:miter;stroke-miterlimit:4;stroke-dasharray:none;stroke-dashoffset:0;stroke-opacity:1;-inkscape-stroke:none;stop-color:#000000;stop-opacity:1"
       d="m 259.60622,196.53196 c -3.31631,2.6887 -7.3417,5.9523 -11.74374,4.73444 -4.40203,-1.21787 -13.97057,-8.2428 -21.85326,-14.03003 -7.8827,-5.78723 -14.81374,-10.87579 -19.23091,-9.96094 -4.41718,0.91484 -4.41718,7.43892 -4.41718,14.85876 0,0 0,22.25951 0,22.25951"
       id="path70017"
       sodipodi:nodetypes="cccccc"
       inkscape:path-effect="#path-effect70152"
       inkscape:original-d="m 259.60622,196.53196 c 0,0 -7.34147,5.95259 -9.94892,8.06611 -6.19688,-4.54949 -23.64808,-17.3617 -23.64808,-17.3617 0,0 -14.81377,-10.87574 -23.64809,-17.3617 2.6e-4,8.3156 0,22.25952 0,22.25952 v 22.25951" />
  </g>
  <g
     inkscape:groupmode="layer"
     id="layer16"
     inkscape:label="N9"
     style="display:inline">
    <path
       style="font-variation-settings:normal;opacity:1;fill:none;fill-opacity:1;stroke:#db1f1f;stroke-width:3.96875;stroke-linecap:butt;stroke-linejoin:miter;stroke-miterlimit:4;stroke-dasharray:none;stroke-dashoffset:0;stroke-opacity:1;stop-color:#000000;stop-opacity:1"
       d="m 90.362696,300.39649 c 10.861714,-7.50293 19.404874,-13.40427 27.294624,-14.83261 7.88976,-1.42833 9.57428,2.6208 11.71616,7.76929"
       id="path44931"
       sodipodi:nodetypes="ccc"
       inkscape:path-effect="#path-effect45028"
       inkscape:original-d="m 90.362696,300.39649 c 0,0 19.405084,-13.40397 32.585144,-22.50879 2.59937,6.24779 6.42564,15.44547 6.42564,15.44547" />
  </g>
  <g
     inkscape:groupmode="layer"
     id="layer15"
     inkscape:label="N8"
     style="display:inline">
    <path
       style="font-variation-settings:normal;display:inline;opacity:1;fill:none;fill-opacity:1;stroke:#db1f1f;stroke-width:3.96875;stroke-linecap:butt;stroke-linejoin:miter;stroke-miterlimit:4;stroke-dasharray:none;stroke-dashoffset:0;stroke-opacity:1;stop-color:#000000;stop-opacity:1"
       d="m 128.81179,254.3789 c 0,0 -48.124208,40.36328 -48.124208,40.36328 -12.418438,10.41573 -26.558364,22.27533 -30.865635,27.93308 -4.307272,5.65776 -0.88119,9.51363 4.87569,6.36435 5.75688,-3.14927 23.078294,-17.79376 36.624242,-29.24626 0,0 38.102771,-33.14542 38.102771,-33.14542"
       id="path8610"
       sodipodi:nodetypes="cccccc"
       inkscape:path-effect="#path-effect20899"
       inkscape:original-d="m 128.81179,254.3789 -48.124208,40.36328 c 0,0 -26.558123,22.27562 -37.255314,31.2472 2.082426,2.34362 5.508507,6.19949 7.251767,8.16147 9.770719,-8.26023 40.637844,-34.3575 40.637844,-34.3575 l 38.102771,-33.14542" />
  </g>
  <g
     inkscape:groupmode="layer"
     id="layer10"
     inkscape:label="N 4"
     style="display:inline">
    <path
       style="font-variation-settings:normal;opacity:1;fill:none;fill-opacity:1;stroke:#db1f1f;stroke-width:3.96875;stroke-linecap:butt;stroke-linejoin:miter;stroke-miterlimit:4;stroke-dasharray:none;stroke-dashoffset:0;stroke-opacity:1;stop-color:#000000;stop-opacity:1"
       d="m 313.2982,180.30142 c 0,0 55.94041,44.46194 55.94041,44.46194 19.12173,14.54207 43.86721,33.36099 51.29229,37.30815 7.42508,3.94716 9.90402,-0.39941 11.81958,-3.75815 0,0 -50.61145,-37.98358 -50.61145,-37.98358 0,0 -48.2747,-39.2013 -48.2747,-39.2013"
       id="path7848"
       sodipodi:nodetypes="cccccc"
       inkscape:path-effect="#path-effect21413"
       inkscape:original-d="m 313.2982,180.30142 c 0,0 55.94041,44.46194 55.94041,44.46194 0,0 43.86718,33.36103 57.3652,43.62621 1.35249,-2.37072 5.74667,-10.07621 5.74667,-10.07621 0,0 -50.61145,-37.98358 -50.61145,-37.98358 0,0 -48.2747,-39.2013 -48.2747,-39.2013" />
    <path
       style="font-variation-settings:normal;opacity:1;fill:none;fill-opacity:1;stroke:#db1f1f;stroke-width:3.96875;stroke-linecap:butt;stroke-linejoin:miter;stroke-miterlimit:4;stroke-dasharray:none;stroke-dashoffset:0;stroke-opacity:1;stop-color:#000000;stop-opacity:1"
       d="m 388.82039,225.15976 c 0,0 -6.10464,-25.45018 -6.10464,-25.45018 -2.03488,-8.48339 -3.57944,-14.92267 -11.30737,-25.13283 -7.72792,-10.21016 -15.63821,-16.26205 -26.05868,-24.2344 0,0 -31.26141,-23.91704 -31.26141,-23.91704 0,0 -31.26142,-23.91705 -31.26142,-23.91705 -10.42047,-7.972348 -18.7013,-14.30773 -24.98136,-13.638953 -6.28005,0.668777 -6.28005,7.885992 -6.28005,16.968033 0,0 0.11842,31.14543 0.11842,31.14543"
       id="path7850"
       sodipodi:nodetypes="ccccccccc"
       inkscape:path-effect="#path-effect13503"
       inkscape:original-d="m 388.82039,225.15976 -6.10464,-25.45018 c 0,0 -3.57925,-14.92272 -6.10463,-25.45018 -12.93069,-9.89277 -31.26142,-23.91705 -31.26142,-23.91705 l -31.26141,-23.91704 -31.26142,-23.91705 c 0,0 -18.70133,-14.307691 -31.26141,-23.917044 2.6e-4,10.946868 0,27.246124 0,27.246124 l 0.11842,31.14543" />
  </g>
  <g
     inkscape:groupmode="layer"
     id="layer11"
     inkscape:label="N 5"
     style="display:inline">
    <path
       style="font-variation-settings:normal;opacity:1;vector-effect:none;fill:none;fill-opacity:1;stroke:#db1f1f;stroke-width:3.96875;stroke-linecap:butt;stroke-linejoin:miter;stroke-miterlimit:4;stroke-dasharray:none;stroke-dashoffset:0;stroke-opacity:1;-inkscape-stroke:none;stop-color:#000000;stop-opacity:1"
       d="m 177.12437,130.37292 c 0,0 -0.50907,-44.938682 -0.50907,-44.938682 0,0 -0.60775,-44.635187 -0.60775,-44.635187 -3.69205,-0.01944 -7.42824,-0.03911 -9.2522,6.110511 -1.82396,6.149617 -1.82396,18.767414 -1.82396,31.235532 0,0 0,37.404356 0,37.404356"
       id="path56940"
       sodipodi:nodetypes="cccccc"
       inkscape:path-effect="#path-effect57303"
       inkscape:original-d="M 177.12437,130.37292 176.6153,85.434238 176.00755,40.799051 c 0,0 -7.42824,-0.03884 -11.07616,-0.05831 2.6e-4,12.318438 0,37.404353 0,37.404353 v 37.404356" />
  </g>
  <g
     inkscape:groupmode="layer"
     id="layer6"
     inkscape:label="N"
     style="display:inline">
    <path
       style="font-variation-settings:normal;opacity:1;fill:none;fill-opacity:1;stroke:#db1f1f;stroke-width:3.96875;stroke-linecap:butt;stroke-linejoin:miter;stroke-miterlimit:4;stroke-dasharray:none;stroke-dashoffset:0;stroke-opacity:1;stop-color:#000000;stop-opacity:1"
       d="m 195.42158,160.60873 c 6.52661,-3.00893 13.62787,2.7004 23.80017,10.8788 0,0 15.25845,12.2676 15.25845,12.2676 5.08615,4.0892 11.52885,9.26906 14.50456,9.83485 2.97572,0.56579 6.81331,-2.65887 9.84302,-5.20469 0,0 9.08914,-7.63744 9.08914,-7.63744 0,0 1.38367,-39.83178 1.38367,-39.83178 0,0 48.51351,-38.09305 48.51351,-38.09305 0,0 48.54267,-36.876822 48.54267,-36.876822 -2.23942,-3.044389 -5.01066,-6.811754 -12.7314,-2.742971 -7.72074,4.068783 -30.01381,21.045998 -48.02728,34.764094 0,0 -59.27653,44.368969 -59.27653,44.368969 0,0 -0.27246,11.23385 -0.27246,11.23385 0,0 -36.9391,-31.94989 -36.9391,-31.94989 0,0 -36.73852,-29.334319 -36.73852,-29.334319 -9.39487,9.394869 -19.70163,19.701639 -23.9199,31.144339 -4.21827,11.4427 -4.16183,28.94096 -4.11038,44.8913 0,0 0.15435,47.85102 0.15435,47.85102 0,0 -32.3741,26.29882 -32.3741,26.29882 -10.79137,8.76627 -22.201403,18.03512 -25.181025,24.46749 -2.979623,6.43236 1.701987,11.54462 6.959286,11.56555 5.257299,0.0209 11.141339,-4.77018 17.084029,-9.60902 0,0 17.82805,-14.51653 17.82805,-14.51653 0,0 0,26.11697 0,26.11697 0,8.70566 0,16.62493 3.70681,21.38535 3.7068,4.76042 9.30308,4.78215 12.9966,0.055 3.69352,-4.7272 3.69352,-12.70029 3.69352,-21.42837 0,0 0,-26.18425 0,-26.18425 0,0 40.37224,-30.56623 40.37224,-30.56623 0,0 -0.43805,-38.4025 -0.43805,-38.4025 -0.14602,-12.80083 -0.24795,-21.73717 6.27867,-24.74609 z"
       id="path6119"
       sodipodi:nodetypes="ccccccccccccccccccccccccccccccc"
       inkscape:path-effect="#path-effect9577"
       inkscape:original-d="m 188.70486,146.95232 c 13.24331,10.64751 30.51689,24.53521 30.51689,24.53521 l 15.25845,12.2676 c 0,0 11.52882,9.26909 15.25844,12.26761 2.22208,-1.86669 9.08914,-7.63745 9.08914,-7.63745 l 9.08914,-7.63744 1.38367,-39.83178 48.51351,-38.09305 48.54267,-36.876822 c 0,0 -5.01062,-6.811785 -6.71827,-9.133166 -13.73364,10.459274 -54.04041,41.154289 -54.04041,41.154289 L 246.32156,142.33629 246.0491,153.57014 209.11,121.62025 172.37148,92.285931 c 0,0 -19.70137,19.701899 -28.18462,28.184619 0.0467,14.40242 0.15434,47.85102 0.15434,47.85102 l 0.15435,47.85102 -32.3741,26.29882 c 0,0 -22.201167,18.03541 -32.374095,26.29882 4.213461,4.60102 8.895069,9.71328 13.40833,14.64173 6.001562,-4.8863 17.828055,-14.51653 17.828055,-14.51653 l 17.82805,-14.51653 v 26.11697 c 0,0 2.6e-4,16.62493 0,26.11698 7.41361,0.0291 13.00989,0.0508 20.39693,0.0792 2.6e-4,-9.48308 0,-26.18425 0,-26.18425 v -26.18425 l 40.37224,-30.56623 -0.43805,-38.4025 c 0,0 -0.24769,-21.73717 -0.43805,-38.4025 z" />
  </g>
  <g
     inkscape:groupmode="layer"
     id="layer7"
     inkscape:label="N 1"
     style="display:inline">
    <path
       style="font-variation-settings:normal;opacity:1;fill:none;fill-opacity:1;stroke:#db1f1f;stroke-width:3.96875;stroke-linecap:butt;stroke-linejoin:miter;stroke-miterlimit:4;stroke-dasharray:none;stroke-dashoffset:0;stroke-opacity:1;stop-color:#000000;stop-opacity:1"
       d="m 291.94381,162.20628 c 0,0 0,19.25545 0,19.25545 0,6.41849 0,14.71188 -4.98572,21.68803 -4.98572,6.97616 -23.18495,24.14836 -37.27028,37.43883 -14.08533,13.29047 -26.98775,25.46478 -40.30733,30.76421 -13.31957,5.29942 -22.92915,2.08147 -33.4194,-1.43139 -10.49024,-3.51286 -27.54625,-9.22439 -29.50849,-10.79901 -1.96224,-1.57462 -1.96224,-9.55206 -1.96224,-14.45831 0,-4.90625 0,-11.20845 2.57295,-14.13286 2.57296,-2.92441 11.81239,-7.12322 19.00506,-10.39189 7.19267,-3.26867 17.3892,-7.90243 21.68692,-8.11908 4.29772,-0.21665 15.02296,3.36184 22.58889,5.88623 7.56593,2.52439 18.66887,6.2289 21.85812,5.87925 3.18926,-0.34966 9.66345,-5.98066 14.07533,-9.81795 4.41189,-3.83729 11.5953,-10.08514 12.41548,-12.48488 0.82018,-2.39974 0.82018,-17.17087 0.82018,-26.24281 0,-9.07194 0,-20.47434 2.31382,-25.63578 2.31381,-5.16143 10.14127,-11.2192 16.36882,-16.03877 0,0 18.68263,-14.45871 18.68263,-14.45871 0,0 37.36527,-28.917435 37.36527,-28.917435 24.47534,-18.622146 58.55029,-44.548197 66.51181,-49.37361 7.96151,-4.825413 10.35987,-1.006995 12.0827,1.735921 0,0 -56.94389,45.376904 -56.94389,45.376904 0,0 -57.6206,47.93793 -57.6206,47.93793"
       id="path6745"
       sodipodi:nodetypes="cccccccccccccccccccccccc"
       inkscape:path-effect="#path-effect15019"
       inkscape:original-d="m 291.94381,162.20628 c 0,0 0,19.25545 0,19.25545 0,0 2.6e-4,14.71188 0,19.25546 -9.97118,9.409 -42.256,39.8714 -42.256,39.8714 0,0 -26.9875,25.46505 -42.25599,39.8714 -11.37096,-3.80761 -31.47074,-10.53858 -31.47074,-10.53858 0,0 -27.5463,-9.22423 -31.47073,-10.53858 2.6e-4,-1.83505 0,-14.71874 0,-14.71874 0,0 2.6e-4,-11.20845 0,-14.71874 5.14605,-2.33821 21.57801,-9.80601 21.57801,-9.80601 0,0 17.38934,-7.90211 21.57801,-9.80601 4.40658,1.47044 22.6978,7.57316 22.6978,7.57316 0,0 18.66882,6.22906 22.6978,7.57316 2.34982,-2.04329 13.23565,-11.51186 13.23565,-11.51186 0,0 11.59555,-10.08486 13.23566,-11.51186 2.6e-4,-3.37276 0,-27.21583 0,-27.21583 0,0 2.6e-4,-20.47434 0,-27.21583 4.62786,-3.58109 18.68264,-14.45872 18.68264,-14.45872 0,0 18.68263,-14.45871 18.68263,-14.45871 0,0 37.36527,-28.917435 37.36527,-28.917435 0,0 58.55052,-44.5479 73.42601,-55.866437 1.04738,1.667369 5.1685,8.228748 5.1685,8.228748 0,0 -56.94389,45.376904 -56.94389,45.376904 0,0 -57.6206,47.93793 -57.6206,47.93793" />
    <path
       style="font-variation-settings:normal;opacity:1;fill:none;fill-opacity:1;stroke:#db1f1f;stroke-width:3.96875;stroke-linecap:butt;stroke-linejoin:miter;stroke-miterlimit:4;stroke-dasharray:none;stroke-dashoffset:0;stroke-opacity:1;stop-color:#000000;stop-opacity:1"
       d="m 165.49576,266.40805 c 0,4.22102 0,7.70483 3.5492,11.10768 3.54921,3.40286 8.5356,4.70066 14.578,6.2733 9.15996,2.14773 18.93413,4.43948 26.89007,2.16052 7.95594,-2.27895 16.38032,-9.78326 24.27558,-16.81623 0,0 23.68577,-21.09892 23.68577,-21.09892 0,0 24.15792,-22.54167 24.15792,-22.54167 7.94032,-7.5997 18.66302,-17.86242 21.08404,-23.22415 2.42102,-5.36173 1.76428,-17.39259 1.27797,-26.30142 -0.57354,-10.15407 -1.4937,-26.44468 1.58171,-31.10987 3.07542,-4.6652 28.93869,-26.21007 45.05921,-39.63894 15.08686,-11.665351 36.9394,-28.562021 40.6014,-32.734099 3.66199,-4.172079 1.04269,-9.18944 -0.76555,-12.653182 0,0 -47.17272,37.902622 -47.17272,37.902622 0,0 -46.02452,38.132859 -46.02452,38.132859"
       id="path6747"
       sodipodi:nodetypes="ccccccccccccccc"
       inkscape:path-effect="#path-effect17024"
       inkscape:original-d="m 165.49576,266.40805 c 0,0 2.6e-4,7.70483 0,12.66305 7.09836,1.84767 18.1272,4.71793 18.1272,4.71793 0,0 18.93409,4.43967 27.47988,6.4432 7.36638,-6.56135 23.68577,-21.09891 23.68577,-21.09891 l 23.68577,-21.09892 24.15792,-22.54167 c 0,0 18.66328,-17.86215 23.82095,-22.79909 -0.31564,-5.7868 -1.45894,-26.72648 -1.45894,-26.72648 0,0 -1.49346,-26.44469 -1.72063,-30.4622 6.378,-5.31258 48.36155,-40.28661 48.36155,-40.28661 0,0 36.93963,-28.561727 45.26057,-34.996054 -0.99708,-1.910174 -5.42472,-10.391227 -5.42472,-10.391227 l -47.17272,37.902622 -46.02452,38.132859" />
  </g>
  <g
     inkscape:groupmode="layer"
     id="layer9"
     inkscape:label="N 3"
     style="display:inline">
    <path
       style="font-variation-settings:normal;opacity:1;fill:none;fill-opacity:1;stroke:#db1f1f;stroke-width:3.96875;stroke-linecap:butt;stroke-linejoin:miter;stroke-miterlimit:4;stroke-dasharray:none;stroke-dashoffset:0;stroke-opacity:1;stop-color:#000000;stop-opacity:1"
       d="m 292.81491,164.14154 c 0,0 49.3712,39.76642 49.3712,39.76642 0,0 50.54592,38.3734 50.54592,38.3734 -2.42933,2.71911 -5.05016,5.65257 -10.39946,3.52094 -5.3493,-2.13163 -15.25866,-10.05841 -24.44373,-17.40582 0,0 -30.00559,-22.87869 -30.00559,-22.87869"
       id="path7572"
       sodipodi:nodetypes="cccccc"
       inkscape:path-effect="#path-effect20291"
       inkscape:original-d="m 292.81491,164.14154 49.3712,39.76642 50.54592,38.3734 c 0,0 -5.04988,5.65282 -7.28798,8.15734 -8.46081,-6.76799 -27.55521,-22.04222 -27.55521,-22.04222 l -30.00559,-22.87869" />
    <path
       style="font-variation-settings:normal;opacity:1;fill:none;fill-opacity:1;stroke:#db1f1f;stroke-width:3.96875;stroke-linecap:butt;stroke-linejoin:miter;stroke-miterlimit:4;stroke-dasharray:none;stroke-dashoffset:0;stroke-opacity:1;stop-color:#000000;stop-opacity:1"
       d="m 288.48796,197.64615 c 0,0 19.1568,15.83376 19.1568,15.83376 6.33687,5.23765 11.61895,9.60347 17.95823,12.76467 6.33927,3.16121 10.11646,3.31334 14.64849,3.49587 0,0 19.71757,0.42165 19.71757,0.42165"
       id="path7782"
       sodipodi:nodetypes="ccccc"
       inkscape:path-effect="#path-effect19563"
       inkscape:original-d="m 288.48796,197.64615 19.1568,15.83376 c 0,0 11.61893,9.6035 19.01062,15.71294 5.28687,0.21319 13.5961,0.5476 13.5961,0.5476 l 19.71757,0.42165" />
  </g>
</svg>
