<?xml version="1.0" encoding="UTF-8" standalone="no"?>
<!-- Created with Inkscape (http://www.inkscape.org/) -->

<svg
   width="1245.2454"
   height="559.02795"
   viewBox="0 0 329.47116 147.90948"
   version="1.1"
   id="svg5"
   inkscape:version="1.1.1 (3bf5ae0d25, 2021-09-20)"
   sodipodi:docname="m3d.svg"
   xmlns:inkscape="http://www.inkscape.org/namespaces/inkscape"
   xmlns:sodipodi="http://sodipodi.sourceforge.net/DTD/sodipodi-0.dtd"
   xmlns="http://www.w3.org/2000/svg"
   xmlns:svg="http://www.w3.org/2000/svg">
  <sodipodi:namedview
     id="namedview7"
     pagecolor="#ffffff"
     bordercolor="#666666"
     borderopacity="1.0"
     inkscape:pageshadow="2"
     inkscape:pageopacity="0.0"
     inkscape:pagecheckerboard="0"
     inkscape:document-units="mm"
     showgrid="false"
     units="px"
     width="1920px"
     inkscape:zoom="1.0761588"
     inkscape:cx="741.99086"
     inkscape:cy="261.11388"
     inkscape:window-width="1920"
     inkscape:window-height="1027"
     inkscape:window-x="0"
     inkscape:window-y="0"
     inkscape:window-maximized="1"
     inkscape:current-layer="layer23"
     inkscape:snap-global="false" />
  <defs
     id="defs2">
    <inkscape:path-effect
       effect="bspline"
       id="path-effect2925"
       is_visible="true"
       lpeversion="1"
       weight="33.333333"
       steps="2"
       helper_size="0"
       apply_no_weight="true"
       apply_with_weight="true"
       only_selected="false" />
    <inkscape:path-effect
       effect="bspline"
       id="path-effect267105"
       is_visible="true"
       lpeversion="1"
       weight="33.333333"
       steps="2"
       helper_size="0"
       apply_no_weight="true"
       apply_with_weight="true"
       only_selected="false" />
    <inkscape:path-effect
       effect="bspline"
       id="path-effect258826"
       is_visible="true"
       lpeversion="1"
       weight="33.333333"
       steps="2"
       helper_size="0"
       apply_no_weight="true"
       apply_with_weight="true"
       only_selected="false" />
    <inkscape:path-effect
       effect="bspline"
       id="path-effect247547"
       is_visible="true"
       lpeversion="1"
       weight="33.333333"
       steps="2"
       helper_size="0"
       apply_no_weight="true"
       apply_with_weight="true"
       only_selected="false" />
    <inkscape:path-effect
       effect="bspline"
       id="path-effect231907"
       is_visible="true"
       lpeversion="1"
       weight="33.333333"
       steps="2"
       helper_size="0"
       apply_no_weight="true"
       apply_with_weight="true"
       only_selected="false" />
    <inkscape:path-effect
       effect="bspline"
       id="path-effect231679"
       is_visible="true"
       lpeversion="1"
       weight="33.333333"
       steps="2"
       helper_size="0"
       apply_no_weight="true"
       apply_with_weight="true"
       only_selected="false" />
    <inkscape:path-effect
       effect="bspline"
       id="path-effect231389"
       is_visible="true"
       lpeversion="1"
       weight="33.333333"
       steps="2"
       helper_size="0"
       apply_no_weight="true"
       apply_with_weight="true"
       only_selected="false" />
    <inkscape:path-effect
       effect="bspline"
       id="path-effect224269"
       is_visible="true"
       lpeversion="1"
       weight="33.333333"
       steps="2"
       helper_size="0"
       apply_no_weight="true"
       apply_with_weight="true"
       only_selected="false" />
    <inkscape:path-effect
       effect="bspline"
       id="path-effect222200"
       is_visible="true"
       lpeversion="1"
       weight="33.333333"
       steps="2"
       helper_size="0"
       apply_no_weight="true"
       apply_with_weight="true"
       only_selected="false" />
    <inkscape:path-effect
       effect="bspline"
       id="path-effect199026"
       is_visible="true"
       lpeversion="1"
       weight="33.333333"
       steps="2"
       helper_size="0"
       apply_no_weight="true"
       apply_with_weight="true"
       only_selected="false" />
    <inkscape:path-effect
       effect="bspline"
       id="path-effect179430"
       is_visible="true"
       lpeversion="1"
       weight="33.333333"
       steps="2"
       helper_size="0"
       apply_no_weight="true"
       apply_with_weight="true"
       only_selected="false" />
    <inkscape:path-effect
       effect="bspline"
       id="path-effect165795"
       is_visible="true"
       lpeversion="1"
       weight="33.333333"
       steps="2"
       helper_size="0"
       apply_no_weight="true"
       apply_with_weight="true"
       only_selected="false" />
    <inkscape:path-effect
       effect="bspline"
       id="path-effect142926"
       is_visible="true"
       lpeversion="1"
       weight="33.333333"
       steps="2"
       helper_size="0"
       apply_no_weight="true"
       apply_with_weight="true"
       only_selected="false" />
    <inkscape:path-effect
       effect="bspline"
       id="path-effect141389"
       is_visible="true"
       lpeversion="1"
       weight="33.333333"
       steps="2"
       helper_size="0"
       apply_no_weight="true"
       apply_with_weight="true"
       only_selected="false" />
    <inkscape:path-effect
       effect="bspline"
       id="path-effect137960"
       is_visible="true"
       lpeversion="1"
       weight="33.333333"
       steps="2"
       helper_size="0"
       apply_no_weight="true"
       apply_with_weight="true"
       only_selected="false" />
    <inkscape:path-effect
       effect="bspline"
       id="path-effect136588"
       is_visible="true"
       lpeversion="1"
       weight="33.333333"
       steps="2"
       helper_size="0"
       apply_no_weight="true"
       apply_with_weight="true"
       only_selected="false" />
    <inkscape:path-effect
       effect="bspline"
       id="path-effect134471"
       is_visible="true"
       lpeversion="1"
       weight="33.333333"
       steps="2"
       helper_size="0"
       apply_no_weight="true"
       apply_with_weight="true"
       only_selected="false" />
    <inkscape:path-effect
       effect="bspline"
       id="path-effect134465"
       is_visible="true"
       lpeversion="1"
       weight="33.333333"
       steps="2"
       helper_size="0"
       apply_no_weight="true"
       apply_with_weight="true"
       only_selected="false" />
    <inkscape:path-effect
       effect="bspline"
       id="path-effect134459"
       is_visible="true"
       lpeversion="1"
       weight="33.333333"
       steps="2"
       helper_size="0"
       apply_no_weight="true"
       apply_with_weight="true"
       only_selected="false" />
    <inkscape:path-effect
       effect="bspline"
       id="path-effect134453"
       is_visible="true"
       lpeversion="1"
       weight="33.333333"
       steps="2"
       helper_size="0"
       apply_no_weight="true"
       apply_with_weight="true"
       only_selected="false" />
    <inkscape:path-effect
       effect="bspline"
       id="path-effect134447"
       is_visible="true"
       lpeversion="1"
       weight="33.333333"
       steps="2"
       helper_size="0"
       apply_no_weight="true"
       apply_with_weight="true"
       only_selected="false" />
    <inkscape:path-effect
       effect="bspline"
       id="path-effect134441"
       is_visible="true"
       lpeversion="1"
       weight="33.333333"
       steps="2"
       helper_size="0"
       apply_no_weight="true"
       apply_with_weight="true"
       only_selected="false" />
    <inkscape:path-effect
       effect="bspline"
       id="path-effect134435"
       is_visible="true"
       lpeversion="1"
       weight="33.333333"
       steps="2"
       helper_size="0"
       apply_no_weight="true"
       apply_with_weight="true"
       only_selected="false" />
    <inkscape:path-effect
       effect="bspline"
       id="path-effect134429"
       is_visible="true"
       lpeversion="1"
       weight="33.333333"
       steps="2"
       helper_size="0"
       apply_no_weight="true"
       apply_with_weight="true"
       only_selected="false" />
    <inkscape:path-effect
       effect="bspline"
       id="path-effect134423"
       is_visible="true"
       lpeversion="1"
       weight="33.333333"
       steps="2"
       helper_size="0"
       apply_no_weight="true"
       apply_with_weight="true"
       only_selected="false" />
    <inkscape:path-effect
       effect="bspline"
       id="path-effect134417"
       is_visible="true"
       lpeversion="1"
       weight="33.333333"
       steps="2"
       helper_size="0"
       apply_no_weight="true"
       apply_with_weight="true"
       only_selected="false" />
    <inkscape:path-effect
       effect="bspline"
       id="path-effect134411"
       is_visible="true"
       lpeversion="1"
       weight="33.333333"
       steps="2"
       helper_size="0"
       apply_no_weight="true"
       apply_with_weight="true"
       only_selected="false" />
    <inkscape:path-effect
       effect="bspline"
       id="path-effect134405"
       is_visible="true"
       lpeversion="1"
       weight="33.333333"
       steps="2"
       helper_size="0"
       apply_no_weight="true"
       apply_with_weight="true"
       only_selected="false" />
    <inkscape:path-effect
       effect="bspline"
       id="path-effect134399"
       is_visible="true"
       lpeversion="1"
       weight="33.333333"
       steps="2"
       helper_size="0"
       apply_no_weight="true"
       apply_with_weight="true"
       only_selected="false" />
    <inkscape:path-effect
       effect="bspline"
       id="path-effect134393"
       is_visible="true"
       lpeversion="1"
       weight="33.333333"
       steps="2"
       helper_size="0"
       apply_no_weight="true"
       apply_with_weight="true"
       only_selected="false" />
    <inkscape:path-effect
       effect="bspline"
       id="path-effect134387"
       is_visible="true"
       lpeversion="1"
       weight="33.333333"
       steps="2"
       helper_size="0"
       apply_no_weight="true"
       apply_with_weight="true"
       only_selected="false" />
    <inkscape:path-effect
       effect="bspline"
       id="path-effect126759"
       is_visible="true"
       lpeversion="1"
       weight="33.333333"
       steps="2"
       helper_size="0"
       apply_no_weight="true"
       apply_with_weight="true"
       only_selected="false" />
    <inkscape:path-effect
       effect="bspline"
       id="path-effect125251"
       is_visible="true"
       lpeversion="1"
       weight="33.333333"
       steps="2"
       helper_size="0"
       apply_no_weight="true"
       apply_with_weight="true"
       only_selected="false" />
    <inkscape:path-effect
       effect="bspline"
       id="path-effect124240"
       is_visible="true"
       lpeversion="1"
       weight="33.333333"
       steps="2"
       helper_size="0"
       apply_no_weight="true"
       apply_with_weight="true"
       only_selected="false" />
    <inkscape:path-effect
       effect="bspline"
       id="path-effect123551"
       is_visible="true"
       lpeversion="1"
       weight="33.333333"
       steps="2"
       helper_size="0"
       apply_no_weight="true"
       apply_with_weight="true"
       only_selected="false" />
    <inkscape:path-effect
       effect="bspline"
       id="path-effect118125"
       is_visible="true"
       lpeversion="1"
       weight="33.333333"
       steps="2"
       helper_size="0"
       apply_no_weight="true"
       apply_with_weight="true"
       only_selected="false" />
    <inkscape:path-effect
       effect="bspline"
       id="path-effect116390"
       is_visible="true"
       lpeversion="1"
       weight="33.333333"
       steps="2"
       helper_size="0"
       apply_no_weight="true"
       apply_with_weight="true"
       only_selected="false" />
    <inkscape:path-effect
       effect="bspline"
       id="path-effect114846"
       is_visible="true"
       lpeversion="1"
       weight="33.333333"
       steps="2"
       helper_size="0"
       apply_no_weight="true"
       apply_with_weight="true"
       only_selected="false" />
    <inkscape:path-effect
       effect="bspline"
       id="path-effect112570"
       is_visible="true"
       lpeversion="1"
       weight="33.333333"
       steps="2"
       helper_size="0"
       apply_no_weight="true"
       apply_with_weight="true"
       only_selected="false" />
    <inkscape:path-effect
       effect="bspline"
       id="path-effect110387"
       is_visible="true"
       lpeversion="1"
       weight="33.333333"
       steps="2"
       helper_size="0"
       apply_no_weight="true"
       apply_with_weight="true"
       only_selected="false" />
    <inkscape:path-effect
       effect="bspline"
       id="path-effect91985"
       is_visible="true"
       lpeversion="1"
       weight="33.333333"
       steps="2"
       helper_size="0"
       apply_no_weight="true"
       apply_with_weight="true"
       only_selected="false" />
    <inkscape:path-effect
       effect="bspline"
       id="path-effect74175"
       is_visible="true"
       lpeversion="1"
       weight="33.333333"
       steps="2"
       helper_size="0"
       apply_no_weight="true"
       apply_with_weight="true"
       only_selected="false" />
    <inkscape:path-effect
       effect="bspline"
       id="path-effect59518"
       is_visible="true"
       lpeversion="1"
       weight="33.333333"
       steps="2"
       helper_size="0"
       apply_no_weight="true"
       apply_with_weight="true"
       only_selected="false" />
    <inkscape:path-effect
       effect="bspline"
       id="path-effect4297"
       is_visible="true"
       lpeversion="1"
       weight="33.333333"
       steps="2"
       helper_size="0"
       apply_no_weight="true"
       apply_with_weight="true"
       only_selected="false" />
  </defs>
  <g
     inkscape:groupmode="layer"
     id="layer24"
     inkscape:label="B-under"
     style="display:inline"
     transform="translate(0,-0.85359868)"
     sodipodi:insensitive="true">
    <path
       id="path216053-5"
       style="font-variation-settings:normal;display:inline;vector-effect:none;fill:#000000;fill-opacity:1;stroke:none;stroke-width:0.276975px;stroke-linecap:butt;stroke-linejoin:miter;stroke-miterlimit:4;stroke-dasharray:none;stroke-dashoffset:0;stroke-opacity:1;-inkscape-stroke:none;stop-color:#000000"
       d="m 192.8989,13.139507 c 1.93377,4.069508 4.27997,9.006238 6.73398,14.137118 l -5.97608,-2.980731 28.28862,47.029769 -1.66765,6.039463 28.35433,53.288104 c 0,0 41.29156,-17.94164 52.21537,-24.75182 11.08622,-6.911402 18.07942,-14.525724 10.71386,-24.632967 -7.36553,-10.107237 -23.79382,-13.895959 -33.86732,-14.545551 -5.32022,-0.343076 -10.88688,0.443602 -16.22254,1.64833 4.41695,-1.90695 7.81459,-3.609062 8.8719,-4.737796 2.64937,-2.828407 2.305,-11.144567 -6.94773,-17.96875 -9.25277,-6.824185 -20.99306,-10.507757 -27.4402,-13.497827 -6.4471,-2.990075 -4.77328,-4.831139 -4.9619,-7.094562 z m 38.59807,47.729613 c 4.77855,0.03947 9.2501,0.284754 10.90539,1.251261 3.00441,1.754268 1.04484,4.233123 -2.8601,7.425326 z m 16.69614,17.578578 c 5.63918,-1.514302 12.67566,-0.903368 11.33412,1.332582 -0.54211,0.903546 -3.57392,2.198766 -7.21435,3.539011 z"
       sodipodi:nodetypes="ccccccssscssscccscccscc" />
  </g>
  <g
     inkscape:groupmode="layer"
     id="layer22"
     inkscape:label="B"
     style="display:inline"
     transform="translate(-58.193854,-25.781868)"
     sodipodi:insensitive="true">
    <path
       id="path216053"
       style="font-variation-settings:normal;opacity:1;vector-effect:none;fill:#bdd7dd;fill-opacity:1;stroke:none;stroke-width:0.264583px;stroke-linecap:butt;stroke-linejoin:miter;stroke-miterlimit:4;stroke-dasharray:none;stroke-dashoffset:0;stroke-opacity:1;-inkscape-stroke:none;stop-color:#000000;stop-opacity:1"
       d="m 252.95837,38.929079 c 1.84725,3.887431 4.08848,8.603284 6.43269,13.504601 l -5.7087,-2.847369 28.27889,46.282445 -1.84899,5.173844 26.11003,48.98147 c 0,0 39.4198,-15.97791 49.85486,-22.48339 10.59021,-6.60218 17.27052,-13.87583 10.23451,-23.53086 -7.03599,-9.655023 -22.72925,-13.274232 -32.35204,-13.89476 -5.08219,-0.327726 -10.39979,0.423754 -15.49672,1.574581 4.21933,-1.82163 7.46495,-3.447587 8.47495,-4.52582 2.53084,-2.701859 1.09193,-10.564852 -7.74682,-17.083711 -8.83878,-6.51886 -18.81346,-9.521249 -24.97214,-12.377539 -6.15865,-2.856294 -6.34757,-5.124225 -6.52775,-7.286379 z m 36.87113,45.594116 c 4.56475,0.0377 8.83624,0.272013 10.41747,1.195277 2.86999,1.67578 0.99809,4.043727 -2.73214,7.093106 z m 15.94913,16.792085 c 5.38688,-1.44655 12.10853,-0.86295 10.82702,1.27296 -0.51786,0.86312 -3.41402,2.10039 -6.89157,3.38067 z"
       sodipodi:nodetypes="ccccccssscssscccscccscc" />
  </g>
  <g
     inkscape:groupmode="layer"
     id="layer3"
     inkscape:label="B 1"
     sodipodi:insensitive="true" />
  <g
     inkscape:groupmode="layer"
     id="layer17"
     inkscape:label="M-under"
     style="display:inline"
     sodipodi:insensitive="true"
     transform="translate(-58.193854,-25.781868)">
    <path
       style="font-variation-settings:normal;opacity:1;vector-effect:none;fill:#000000;fill-opacity:1;stroke:none;stroke-width:0.264583px;stroke-linecap:butt;stroke-linejoin:miter;stroke-miterlimit:4;stroke-dasharray:none;stroke-dashoffset:0;stroke-opacity:1;-inkscape-stroke:none;stop-color:#000000;stop-opacity:1"
       d="m 100.50648,120.84153 14.45945,-69.002546 17.23464,-12.056846 1.0698,4.816459 4.08371,-9.151331 14.30129,23.56576 4.02863,-21.149532 25.44175,30.469093 9.29883,2.946387 38.44163,33.091456 6.26892,13.88664 7.30022,4.48889 11.11677,35.48813 -77.99334,-29.21329 -1.21019,-4.18738 -4.37693,-2.89544 -2.10702,-3.98064 6.5888,15.23543 -23.05101,8.48375 -5.41059,-2.2018 -8.851,3.56659 -64.415923,-14.03651 z"
       id="path200381"
       sodipodi:nodetypes="ccccccccccccccccccccccc" />
  </g>
  <g
     inkscape:label="M"
     inkscape:groupmode="layer"
     id="layer1"
     style="display:inline"
     sodipodi:insensitive="true"
     transform="translate(-58.193854,-25.781868)">
    <path
       id="path16535"
       style="fill:#bdd7dd;fill-opacity:1;stroke:none;stroke-width:0.451695px;stroke-linecap:butt;stroke-linejoin:miter;stroke-opacity:1"
       d="m 137.10551,40.4616 -3.61003,7.412388 -2.28847,-6.05995 -15.96901,13.417638 -12.61305,67.080244 -16.067821,6.63957 53.105051,11.41677 5.89144,-2.01234 18.57332,-6.3449 -17.64876,6.6572 5.1945,1.75474 18.07751,-8.10846 -24.49035,-56.292501 22.32803,40.626091 -4.11995,-42.872212 8.4631,48.424882 5.40976,1.92235 43.518,16.75507 -43.35567,-15.92667 0.69872,3.25538 73.82656,28.29446 -14.56012,-34.79992 -5.04275,-2.61489 -4.64575,-14.01843 -0.26378,-0.14115 -39.65125,-32.248561 -7.45649,-3.534162 -24.18333,-26.482385 -3.6551,19.108924 z"
       sodipodi:nodetypes="cccccccccccccccccccccccccccccc" />
  </g>
  <g
     inkscape:groupmode="layer"
     id="layer14"
     inkscape:label="M-star"
     style="display:inline"
     sodipodi:insensitive="true"
     transform="translate(-58.193854,-25.781868)">
    <path
       sodipodi:type="star"
       style="fill:#758c91;fill-opacity:1;stroke:none;stroke-opacity:1"
       id="path194095-7-3-6"
       inkscape:flatsided="false"
       sodipodi:sides="5"
       sodipodi:cx="418.7063"
       sodipodi:cy="193.01639"
       sodipodi:r1="61.185623"
       sodipodi:r2="30.592813"
       sodipodi:arg1="-2.0943951"
       sodipodi:arg2="-1.4660766"
       inkscape:rounded="0"
       inkscape:randomized="0"
       transform="matrix(0.39505136,-0.14554199,0.14554199,0.39505136,-87.989741,34.391387)"
       inkscape:transform-center-x="-1.9559799"
       inkscape:transform-center-y="0.52417389"
       d="m 388.11349,140.02808 33.79063,22.56308 37.74335,-15.04455 -11.01688,39.10917 25.97156,31.24704 -40.59944,1.60772 -21.69205,34.35629 -14.07495,-38.11555 -39.37798,-10.01369 31.90064,-25.16442 z" />
  </g>
  <g
     inkscape:groupmode="layer"
     id="layer16"
     inkscape:label="O-star"
     style="display:inline"
     sodipodi:insensitive="true"
     transform="translate(-58.193854,-25.781868)">
    <path
       sodipodi:type="star"
       style="display:inline;fill:#758c91;fill-opacity:1;stroke:none;stroke-opacity:1"
       id="path194095"
       inkscape:flatsided="false"
       sodipodi:sides="5"
       sodipodi:cx="418.7063"
       sodipodi:cy="193.01639"
       sodipodi:r1="61.185623"
       sodipodi:r2="30.592813"
       sodipodi:arg1="-2.0943951"
       sodipodi:arg2="-1.4660766"
       inkscape:rounded="0"
       inkscape:randomized="0"
       d="m 388.11349,140.02808 33.79063,22.56308 37.74335,-15.04455 -11.01688,39.10917 25.97156,31.24704 -40.59944,1.60772 -21.69205,34.35629 -14.07495,-38.11555 -39.37798,-10.01369 31.90064,-25.16442 z"
       transform="matrix(0.45169507,0,0,0.45169507,33.232598,55.06394)"
       inkscape:transform-center-x="0.89271304"
       inkscape:transform-center-y="1.7756445" />
    <path
       sodipodi:type="star"
       style="display:inline;fill:#758c91;fill-opacity:1;stroke:none;stroke-opacity:1"
       id="path194095-7-3"
       inkscape:flatsided="false"
       sodipodi:sides="5"
       sodipodi:cx="418.7063"
       sodipodi:cy="193.01639"
       sodipodi:r1="61.185623"
       sodipodi:r2="30.592813"
       sodipodi:arg1="-2.0943951"
       sodipodi:arg2="-1.4660766"
       inkscape:rounded="0"
       inkscape:randomized="0"
       transform="matrix(0.206823,-0.03284508,0.03284508,0.206823,158.47393,18.174659)"
       inkscape:transform-center-x="-0.20885948"
       inkscape:transform-center-y="1.0232155"
       d="m 388.11349,140.02808 33.79063,22.56308 37.74335,-15.04455 -11.01688,39.10917 25.97156,31.24704 -40.59944,1.60772 -21.69205,34.35629 -14.07495,-38.11555 -39.37798,-10.01369 31.90064,-25.16442 z" />
  </g>
  <g
     inkscape:groupmode="layer"
     id="layer5"
     inkscape:label="O"
     style="display:inline"
     transform="translate(-58.193854,-25.781868)"
     sodipodi:insensitive="true">
    <path
       id="path39162"
       style="fill:#a4bbc1;fill-opacity:1;stroke:none;stroke-width:0.378714;stroke-opacity:1"
       d="M 214.42449,38.147821 A 60.519369,37.511615 66.904198 0 1 272.66943,79.1016 60.519369,37.511615 66.904198 0 1 261.90408,149.48478 60.519369,37.511615 66.904198 0 1 203.6591,108.53103 60.519369,37.511615 66.904198 0 1 214.42449,38.147821 Z m 32.87472,37.587645 a 25.609566,15.873531 66.904198 0 0 -4.55525,29.783244 25.609566,15.873531 66.904198 0 0 24.64701,17.33079 25.609566,15.873531 66.904198 0 0 4.55561,-29.784235 25.609566,15.873531 66.904198 0 0 -24.64737,-17.329799 z" />
  </g>
  <g
     inkscape:groupmode="layer"
     id="layer2"
     inkscape:label="M-over"
     style="display:inline"
     sodipodi:insensitive="true"
     transform="translate(-58.193854,-25.781868)">
    <path
       id="path12634"
       style="fill:#a4bbc1;fill-opacity:1;stroke:none;stroke-width:0.451695px;stroke-linecap:butt;stroke-linejoin:miter;stroke-opacity:1"
       d="m 126.11574,31.57062 -15.4538,6.044949 -1.53417,1.827071 17.59317,-7.374451 z m 0.8134,0.68107 -17.91959,7.692931 -0.72606,2.3714 19.11322,-9.372673 z m 0.67313,0.857516 -19.35231,10.21166 -0.29113,2.799272 17.587,-10.096089 -17.6964,11.156515 -3.10893,29.929212 13.87551,-17.32145 -4.46137,39.651239 -8.93598,6.973925 -0.63431,4.13142 -2.91396,-0.97749 -1.18129,6.49752 28.05715,6.61751 c 0,0 -25.14657,-5.17948 -28.33505,-6.03171 l -22.919995,16.04047 -19.097351,41.00014 94.077856,-47.15273 -23.21554,-7.78644 -9.35503,-10.06698 1.49712,-15.124726 -0.99338,-1.476831 3.24215,-38.327031 9.56676,-11.942574 z m 35.22781,0.825753 c 0.51801,1.800574 6.78954,27.965395 6.78954,27.965395 l 1.63122,1.577405 -2.277,-15.761688 3.73795,18.938549 8.00347,5.445925 0.28496,2.737521 34.68347,29.431634 13.27207,31.1899 6.94746,3.66914 2.37758,6.70397 40.29437,16.39158 -36.52113,-42.50697 -4.83984,-2.77192 26.84057,34.01563 -30.70821,-36.87402 -7.69205,-3.85881 8.93686,25.20053 -3.16364,-1.82179 -9.85788,-25.49254 -37.59744,-31.784507 -0.32819,-2.2373 32.8714,22.36508 -39.55419,-54.290748 z m -43.15541,64.421247 -1.38773,12.801844 5.01364,5.66384 -17.06296,-5.72295 0.41553,-2.59371 z" />
  </g>
  <g
     inkscape:groupmode="layer"
     id="layer23"
     inkscape:label="B-over"
     style="display:inline"
     transform="translate(0,-0.85359868)">
    <path
       id="path247545"
       style="font-variation-settings:normal;opacity:1;vector-effect:none;fill:#a4bbc1;fill-opacity:1;stroke:none;stroke-width:0.999999px;stroke-linecap:butt;stroke-linejoin:miter;stroke-miterlimit:4;stroke-dasharray:none;stroke-dashoffset:0;stroke-opacity:1;-inkscape-stroke:none;stop-color:#000000;stop-opacity:1"
       d="m 778.59961,124.55469 92.50195,131.12304 -28.21875,75.8125 80.29297,145.02149 111.64312,-47.49725 -122.57085,-147.80939 c 14.68068,-3.20405 96.74875,-20.99793 114.89845,-21.99219 32.0564,-1.75607 75.9175,17.43238 78.8398,37.24023 2.9223,19.80786 -22.0902,81.12516 -41.0097,127.50782 47.9487,-23.18014 119.0252,-57.54025 136.3808,-78.50391 17.3557,-20.96366 53.0837,-129.07823 41.6875,-144.99805 -11.3962,-15.91983 -67.4577,-10.14004 -164.0039,14.95118 -14.7021,3.82091 -28.2251,7.47448 -41.0469,11.04882 25.4321,-19.30509 46.4162,-38.87566 32.3243,-50.52734 -17.6138,-14.56358 -102.89791,-27.41606 -176.75785,-38.54687 l -40.88282,-7 c 39.55814,7.10255 107.30131,28.96435 120.72071,39.85937 13.91911,11.30074 25.52862,39.6319 -1.18164,59.9043 -10.27419,7.79784 -68.92327,35.49832 -71.63282,36.77734 L 789.87695,131.38867 Z"
       transform="matrix(0.26458333,0,0,0.26458333,0,0.85359868)"
       sodipodi:nodetypes="ccccccsscssscsccssccc" />
    <path
       style="font-variation-settings:normal;opacity:1;vector-effect:none;fill:#a4bbc1;fill-opacity:1;stroke:none;stroke-width:0.264583px;stroke-linecap:butt;stroke-linejoin:miter;stroke-miterlimit:4;stroke-dasharray:none;stroke-dashoffset:0;stroke-opacity:1;-inkscape-stroke:none;stop-color:#000000;stop-opacity:1"
       d="m 273.93398,55.47482 17.10738,6.597857 2.00242,-1.267709 -17.81231,-6.791857 z"
       id="path259830" />
    <path
       style="font-variation-settings:normal;display:inline;vector-effect:none;fill:#a4bbc1;fill-opacity:1;stroke:none;stroke-width:0.264583px;stroke-linecap:butt;stroke-linejoin:miter;stroke-miterlimit:4;stroke-dasharray:none;stroke-dashoffset:0;stroke-opacity:1;-inkscape-stroke:none;stop-color:#000000"
       d="m 275.65308,53.21215 17.10738,6.597857 0.0862,-0.691477 -17.73692,-7.009144 z"
       id="path259830-8"
       sodipodi:nodetypes="ccccc" />
    <path
       style="font-variation-settings:normal;opacity:1;vector-effect:none;fill:#a4bbc1;fill-opacity:1;stroke:none;stroke-width:0.264583px;stroke-linecap:butt;stroke-linejoin:miter;stroke-miterlimit:4;stroke-dasharray:none;stroke-dashoffset:0;stroke-opacity:1;-inkscape-stroke:none;stop-color:#000000;stop-opacity:1"
       d="m 283.53977,111.01303 -13.16465,-4.86146 5.20384,-37.262083 0.90678,0.200737 -4.19353,30.498038 15.27064,5.462198 z"
       id="path261136"
       sodipodi:nodetypes="ccccccc" />
    <path
       style="font-variation-settings:normal;opacity:1;vector-effect:none;fill:#a4bbc1;fill-opacity:1;stroke:none;stroke-width:0.264583px;stroke-linecap:butt;stroke-linejoin:miter;stroke-miterlimit:4;stroke-dasharray:none;stroke-dashoffset:0;stroke-opacity:1;-inkscape-stroke:none;stop-color:#000000;stop-opacity:1"
       d="m 273.39319,90.90277 3.03284,-1.354796 8.46222,-17.413039 -0.34704,-0.599302 -8.26494,16.923753 -2.83012,1.181627 z"
       id="path263196"
       sodipodi:nodetypes="ccccccc" />
    <path
       style="font-variation-settings:normal;opacity:1;vector-effect:none;fill:#a4bbc1;fill-opacity:1;stroke:none;stroke-width:0.264583px;stroke-linecap:butt;stroke-linejoin:miter;stroke-miterlimit:4;stroke-dasharray:none;stroke-dashoffset:0;stroke-opacity:1;-inkscape-stroke:none;stop-color:#000000;stop-opacity:1"
       d="m 272.93406,89.265525 4.34113,-1.641035 0.12546,-0.629656 -4.32104,1.621854 z"
       id="path264411" />
    <path
       style="fill:#a4bbc1;fill-opacity:1;stroke:none;stroke-width:0.264583px;stroke-linecap:butt;stroke-linejoin:miter;stroke-opacity:1"
       d="m 227.14032,35.617908 2.36543,-1.791601 25.21543,0.0389 7.00603,5.974565 0.29436,2.248266 z"
       id="path10969"
       sodipodi:nodetypes="cccccc" />
    <path
       style="fill:#a4bbc1;fill-opacity:1;stroke:none;stroke-width:0.264583px;stroke-linecap:butt;stroke-linejoin:miter;stroke-opacity:1"
       d="M 259.29853,62.576632 C 258.68871,61.860863 233.43584,36.363526 233.43584,36.363526 l 1.4806,0.464148 24.69841,24.717126 z"
       id="path13067"
       sodipodi:nodetypes="ccccc" />
    <path
       style="fill:#a4bbc1;fill-opacity:1;stroke:none;stroke-width:0.264583px;stroke-linecap:butt;stroke-linejoin:miter;stroke-opacity:1"
       d="m 255.12866,57.9702 -8.35081,7.512983 1.24119,2.507211 -0.87684,1.180555 -1.49484,-3.226899 9.2005,-8.375292 z"
       id="path14313"
       sodipodi:nodetypes="ccccccc" />
  </g>
  <g
     inkscape:groupmode="layer"
     id="layer25"
     inkscape:label="B-star"
     style="display:inline"
     transform="translate(0,-0.85359868)"
     sodipodi:insensitive="true">
    <path
       sodipodi:type="star"
       style="display:inline;fill:#758c91;fill-opacity:1;stroke:none;stroke-opacity:1"
       id="path194095-7"
       inkscape:flatsided="false"
       sodipodi:sides="5"
       sodipodi:cx="418.7063"
       sodipodi:cy="193.01639"
       sodipodi:r1="61.185623"
       sodipodi:r2="30.592813"
       sodipodi:arg1="-2.0943951"
       sodipodi:arg2="-1.4660766"
       inkscape:rounded="0"
       inkscape:randomized="0"
       transform="matrix(0.30070607,-0.26091148,0.26091148,0.30070607,64.914172,165.08927)"
       inkscape:transform-center-x="-0.13834323"
       inkscape:transform-center-y="-2.1941342"
       d="m 388.11349,140.02808 33.79063,22.56308 37.74335,-15.04455 -11.01688,39.10917 25.97156,31.24704 -40.59944,1.60772 -21.69205,34.35629 -14.07495,-38.11555 -39.37798,-10.01369 31.90064,-25.16442 z" />
  </g>
  <g
     inkscape:groupmode="layer"
     id="layer10"
     inkscape:label="O-outline"
     style="display:inline"
     transform="translate(-58.193854,-25.781868)"
     sodipodi:insensitive="true">
    <path
       id="path39162-0"
       style="display:inline;fill:#000000;fill-opacity:1;stroke:none;stroke-width:0.378714;stroke-opacity:1"
       d="m 224.05353,35.490719 c -3.61437,-0.07754 -7.04269,0.563599 -10.18961,1.905589 -19.05637,8.126934 -23.87591,39.638483 -10.76482,70.383262 5.15464,12.08476 12.60671,22.80129 21.23055,30.53088 -7.55271,-7.49653 -14.03998,-17.26652 -18.66506,-28.11008 -13.11113,-30.745167 -8.29116,-62.256897 10.7657,-70.383257 10.83287,-4.604528 24.53052,-0.740942 36.99488,10.434862 C 244.06179,40.95154 233.62865,35.70818 224.05353,35.490719 Z"
       sodipodi:nodetypes="cccccccc" />
    <path
       id="path39162-2"
       style="display:inline;fill:#000000;fill-opacity:1;stroke:none;stroke-width:0.378714;stroke-opacity:1"
       d="m 249.54484,72.939555 a 25.609566,15.873531 66.904198 0 0 -3.25451,0.78076 25.609566,15.873531 66.904198 0 0 -4.55577,29.782765 25.609566,15.873531 66.904198 0 0 0.25232,0.54345 25.609566,15.873531 66.904198 0 1 5.6409,-26.921739 25.609566,15.873531 66.904198 0 1 24.42769,16.856519 25.609566,15.873531 66.904198 0 0 -1.11777,-2.931606 25.609566,15.873531 66.904198 0 0 -21.39286,-18.110149 z m 23.82513,8.440167 a 60.519369,37.511615 66.904198 0 1 -12.47542,66.089508 60.519369,37.511615 66.904198 0 1 -58.24485,-40.95338 60.519369,37.511615 66.904198 0 1 -0.41199,-1.02602 60.519369,37.511615 66.904198 0 0 1.75031,4.43049 60.519369,37.511615 66.904198 0 0 58.24485,40.95338 60.519369,37.511615 66.904198 0 0 11.1371,-69.493978 z" />
  </g>
</svg>
