<?xml version="1.0" encoding="UTF-8" standalone="no"?>
<!-- Created with Inkscape (http://www.inkscape.org/) -->

<svg
   width="1245.2454"
   height="559.02795"
   viewBox="0 0 329.47116 147.90948"
   version="1.1"
   id="svg5"
   inkscape:version="1.1.1 (3bf5ae0d25, 2021-09-20)"
   sodipodi:docname="m3d.svg"
   xmlns:inkscape="http://www.inkscape.org/namespaces/inkscape"
   xmlns:sodipodi="http://sodipodi.sourceforge.net/DTD/sodipodi-0.dtd"
   xmlns="http://www.w3.org/2000/svg"
   xmlns:svg="http://www.w3.org/2000/svg">
  <sodipodi:namedview
     id="namedview7"
     pagecolor="#ffffff"
     bordercolor="#666666"
     borderopacity="1.0"
     inkscape:pageshadow="2"
     inkscape:pageopacity="0.0"
     inkscape:pagecheckerboard="0"
     inkscape:document-units="mm"
     showgrid="false"
     units="px"
     width="1920px"
     inkscape:zoom="1.0761588"
     inkscape:cx="770.79702"
     inkscape:cy="248.10465"
     inkscape:window-width="1920"
     inkscape:window-height="1027"
     inkscape:window-x="0"
     inkscape:window-y="0"
     inkscape:window-maximized="1"
     inkscape:current-layer="layer23"
     inkscape:snap-global="false" />
  <defs
     id="defs2">
    <inkscape:path-effect
       effect="bspline"
       id="path-effect27021"
       is_visible="true"
       lpeversion="1"
       weight="33.333333"
       steps="2"
       helper_size="0"
       apply_no_weight="true"
       apply_with_weight="true"
       only_selected="false" />
    <inkscape:path-effect
       effect="bspline"
       id="path-effect26298"
       is_visible="true"
       lpeversion="1"
       weight="33.333333"
       steps="2"
       helper_size="0"
       apply_no_weight="true"
       apply_with_weight="true"
       only_selected="false" />
    <inkscape:path-effect
       effect="bspline"
       id="path-effect16442"
       is_visible="true"
       lpeversion="1"
       weight="33.333333"
       steps="2"
       helper_size="0"
       apply_no_weight="true"
       apply_with_weight="true"
       only_selected="false" />
    <inkscape:path-effect
       effect="bspline"
       id="path-effect2925"
       is_visible="true"
       lpeversion="1"
       weight="33.333333"
       steps="2"
       helper_size="0"
       apply_no_weight="true"
       apply_with_weight="true"
       only_selected="false" />
    <inkscape:path-effect
       effect="bspline"
       id="path-effect267105"
       is_visible="true"
       lpeversion="1"
       weight="33.333333"
       steps="2"
       helper_size="0"
       apply_no_weight="true"
       apply_with_weight="true"
       only_selected="false" />
    <inkscape:path-effect
       effect="bspline"
       id="path-effect258826"
       is_visible="true"
       lpeversion="1"
       weight="33.333333"
       steps="2"
       helper_size="0"
       apply_no_weight="true"
       apply_with_weight="true"
       only_selected="false" />
    <inkscape:path-effect
       effect="bspline"
       id="path-effect247547"
       is_visible="true"
       lpeversion="1"
       weight="33.333333"
       steps="2"
       helper_size="0"
       apply_no_weight="true"
       apply_with_weight="true"
       only_selected="false" />
    <inkscape:path-effect
       effect="bspline"
       id="path-effect231907"
       is_visible="true"
       lpeversion="1"
       weight="33.333333"
       steps="2"
       helper_size="0"
       apply_no_weight="true"
       apply_with_weight="true"
       only_selected="false" />
    <inkscape:path-effect
       effect="bspline"
       id="path-effect231679"
       is_visible="true"
       lpeversion="1"
       weight="33.333333"
       steps="2"
       helper_size="0"
       apply_no_weight="true"
       apply_with_weight="true"
       only_selected="false" />
    <inkscape:path-effect
       effect="bspline"
       id="path-effect231389"
       is_visible="true"
       lpeversion="1"
       weight="33.333333"
       steps="2"
       helper_size="0"
       apply_no_weight="true"
       apply_with_weight="true"
       only_selected="false" />
    <inkscape:path-effect
       effect="bspline"
       id="path-effect224269"
       is_visible="true"
       lpeversion="1"
       weight="33.333333"
       steps="2"
       helper_size="0"
       apply_no_weight="true"
       apply_with_weight="true"
       only_selected="false" />
    <inkscape:path-effect
       effect="bspline"
       id="path-effect222200"
       is_visible="true"
       lpeversion="1"
       weight="33.333333"
       steps="2"
       helper_size="0"
       apply_no_weight="true"
       apply_with_weight="true"
       only_selected="false" />
    <inkscape:path-effect
       effect="bspline"
       id="path-effect199026"
       is_visible="true"
       lpeversion="1"
       weight="33.333333"
       steps="2"
       helper_size="0"
       apply_no_weight="true"
       apply_with_weight="true"
       only_selected="false" />
    <inkscape:path-effect
       effect="bspline"
       id="path-effect179430"
       is_visible="true"
       lpeversion="1"
       weight="33.333333"
       steps="2"
       helper_size="0"
       apply_no_weight="true"
       apply_with_weight="true"
       only_selected="false" />
    <inkscape:path-effect
       effect="bspline"
       id="path-effect165795"
       is_visible="true"
       lpeversion="1"
       weight="33.333333"
       steps="2"
       helper_size="0"
       apply_no_weight="true"
       apply_with_weight="true"
       only_selected="false" />
    <inkscape:path-effect
       effect="bspline"
       id="path-effect142926"
       is_visible="true"
       lpeversion="1"
       weight="33.333333"
       steps="2"
       helper_size="0"
       apply_no_weight="true"
       apply_with_weight="true"
       only_selected="false" />
    <inkscape:path-effect
       effect="bspline"
       id="path-effect141389"
       is_visible="true"
       lpeversion="1"
       weight="33.333333"
       steps="2"
       helper_size="0"
       apply_no_weight="true"
       apply_with_weight="true"
       only_selected="false" />
    <inkscape:path-effect
       effect="bspline"
       id="path-effect137960"
       is_visible="true"
       lpeversion="1"
       weight="33.333333"
       steps="2"
       helper_size="0"
       apply_no_weight="true"
       apply_with_weight="true"
       only_selected="false" />
    <inkscape:path-effect
       effect="bspline"
       id="path-effect136588"
       is_visible="true"
       lpeversion="1"
       weight="33.333333"
       steps="2"
       helper_size="0"
       apply_no_weight="true"
       apply_with_weight="true"
       only_selected="false" />
    <inkscape:path-effect
       effect="bspline"
       id="path-effect134471"
       is_visible="true"
       lpeversion="1"
       weight="33.333333"
       steps="2"
       helper_size="0"
       apply_no_weight="true"
       apply_with_weight="true"
       only_selected="false" />
    <inkscape:path-effect
       effect="bspline"
       id="path-effect134465"
       is_visible="true"
       lpeversion="1"
       weight="33.333333"
       steps="2"
       helper_size="0"
       apply_no_weight="true"
       apply_with_weight="true"
       only_selected="false" />
    <inkscape:path-effect
       effect="bspline"
       id="path-effect134459"
       is_visible="true"
       lpeversion="1"
       weight="33.333333"
       steps="2"
       helper_size="0"
       apply_no_weight="true"
       apply_with_weight="true"
       only_selected="false" />
    <inkscape:path-effect
       effect="bspline"
       id="path-effect134453"
       is_visible="true"
       lpeversion="1"
       weight="33.333333"
       steps="2"
       helper_size="0"
       apply_no_weight="true"
       apply_with_weight="true"
       only_selected="false" />
    <inkscape:path-effect
       effect="bspline"
       id="path-effect134447"
       is_visible="true"
       lpeversion="1"
       weight="33.333333"
       steps="2"
       helper_size="0"
       apply_no_weight="true"
       apply_with_weight="true"
       only_selected="false" />
    <inkscape:path-effect
       effect="bspline"
       id="path-effect134441"
       is_visible="true"
       lpeversion="1"
       weight="33.333333"
       steps="2"
       helper_size="0"
       apply_no_weight="true"
       apply_with_weight="true"
       only_selected="false" />
    <inkscape:path-effect
       effect="bspline"
       id="path-effect134435"
       is_visible="true"
       lpeversion="1"
       weight="33.333333"
       steps="2"
       helper_size="0"
       apply_no_weight="true"
       apply_with_weight="true"
       only_selected="false" />
    <inkscape:path-effect
       effect="bspline"
       id="path-effect134429"
       is_visible="true"
       lpeversion="1"
       weight="33.333333"
       steps="2"
       helper_size="0"
       apply_no_weight="true"
       apply_with_weight="true"
       only_selected="false" />
    <inkscape:path-effect
       effect="bspline"
       id="path-effect134423"
       is_visible="true"
       lpeversion="1"
       weight="33.333333"
       steps="2"
       helper_size="0"
       apply_no_weight="true"
       apply_with_weight="true"
       only_selected="false" />
    <inkscape:path-effect
       effect="bspline"
       id="path-effect134417"
       is_visible="true"
       lpeversion="1"
       weight="33.333333"
       steps="2"
       helper_size="0"
       apply_no_weight="true"
       apply_with_weight="true"
       only_selected="false" />
    <inkscape:path-effect
       effect="bspline"
       id="path-effect134411"
       is_visible="true"
       lpeversion="1"
       weight="33.333333"
       steps="2"
       helper_size="0"
       apply_no_weight="true"
       apply_with_weight="true"
       only_selected="false" />
    <inkscape:path-effect
       effect="bspline"
       id="path-effect134405"
       is_visible="true"
       lpeversion="1"
       weight="33.333333"
       steps="2"
       helper_size="0"
       apply_no_weight="true"
       apply_with_weight="true"
       only_selected="false" />
    <inkscape:path-effect
       effect="bspline"
       id="path-effect134399"
       is_visible="true"
       lpeversion="1"
       weight="33.333333"
       steps="2"
       helper_size="0"
       apply_no_weight="true"
       apply_with_weight="true"
       only_selected="false" />
    <inkscape:path-effect
       effect="bspline"
       id="path-effect134393"
       is_visible="true"
       lpeversion="1"
       weight="33.333333"
       steps="2"
       helper_size="0"
       apply_no_weight="true"
       apply_with_weight="true"
       only_selected="false" />
    <inkscape:path-effect
       effect="bspline"
       id="path-effect134387"
       is_visible="true"
       lpeversion="1"
       weight="33.333333"
       steps="2"
       helper_size="0"
       apply_no_weight="true"
       apply_with_weight="true"
       only_selected="false" />
    <inkscape:path-effect
       effect="bspline"
       id="path-effect126759"
       is_visible="true"
       lpeversion="1"
       weight="33.333333"
       steps="2"
       helper_size="0"
       apply_no_weight="true"
       apply_with_weight="true"
       only_selected="false" />
    <inkscape:path-effect
       effect="bspline"
       id="path-effect125251"
       is_visible="true"
       lpeversion="1"
       weight="33.333333"
       steps="2"
       helper_size="0"
       apply_no_weight="true"
       apply_with_weight="true"
       only_selected="false" />
    <inkscape:path-effect
       effect="bspline"
       id="path-effect124240"
       is_visible="true"
       lpeversion="1"
       weight="33.333333"
       steps="2"
       helper_size="0"
       apply_no_weight="true"
       apply_with_weight="true"
       only_selected="false" />
    <inkscape:path-effect
       effect="bspline"
       id="path-effect123551"
       is_visible="true"
       lpeversion="1"
       weight="33.333333"
       steps="2"
       helper_size="0"
       apply_no_weight="true"
       apply_with_weight="true"
       only_selected="false" />
    <inkscape:path-effect
       effect="bspline"
       id="path-effect118125"
       is_visible="true"
       lpeversion="1"
       weight="33.333333"
       steps="2"
       helper_size="0"
       apply_no_weight="true"
       apply_with_weight="true"
       only_selected="false" />
    <inkscape:path-effect
       effect="bspline"
       id="path-effect116390"
       is_visible="true"
       lpeversion="1"
       weight="33.333333"
       steps="2"
       helper_size="0"
       apply_no_weight="true"
       apply_with_weight="true"
       only_selected="false" />
    <inkscape:path-effect
       effect="bspline"
       id="path-effect114846"
       is_visible="true"
       lpeversion="1"
       weight="33.333333"
       steps="2"
       helper_size="0"
       apply_no_weight="true"
       apply_with_weight="true"
       only_selected="false" />
    <inkscape:path-effect
       effect="bspline"
       id="path-effect112570"
       is_visible="true"
       lpeversion="1"
       weight="33.333333"
       steps="2"
       helper_size="0"
       apply_no_weight="true"
       apply_with_weight="true"
       only_selected="false" />
    <inkscape:path-effect
       effect="bspline"
       id="path-effect110387"
       is_visible="true"
       lpeversion="1"
       weight="33.333333"
       steps="2"
       helper_size="0"
       apply_no_weight="true"
       apply_with_weight="true"
       only_selected="false" />
    <inkscape:path-effect
       effect="bspline"
       id="path-effect91985"
       is_visible="true"
       lpeversion="1"
       weight="33.333333"
       steps="2"
       helper_size="0"
       apply_no_weight="true"
       apply_with_weight="true"
       only_selected="false" />
    <inkscape:path-effect
       effect="bspline"
       id="path-effect74175"
       is_visible="true"
       lpeversion="1"
       weight="33.333333"
       steps="2"
       helper_size="0"
       apply_no_weight="true"
       apply_with_weight="true"
       only_selected="false" />
    <inkscape:path-effect
       effect="bspline"
       id="path-effect59518"
       is_visible="true"
       lpeversion="1"
       weight="33.333333"
       steps="2"
       helper_size="0"
       apply_no_weight="true"
       apply_with_weight="true"
       only_selected="false" />
    <inkscape:path-effect
       effect="bspline"
       id="path-effect4297"
       is_visible="true"
       lpeversion="1"
       weight="33.333333"
       steps="2"
       helper_size="0"
       apply_no_weight="true"
       apply_with_weight="true"
       only_selected="false" />
  </defs>
  <g
     inkscape:groupmode="layer"
     id="layer24"
     inkscape:label="B-under"
     style="display:inline"
     transform="translate(0,-0.85359868)">
    <path
       style="fill:#000000;fill-opacity:1;stroke:none;stroke-width:0.264583px;stroke-linecap:butt;stroke-linejoin:miter;stroke-opacity:1"
       d="m 190.48048,14.273662 c 0,0 30.17971,55.10524 30.17971,55.10524 0,0 -1.19182,6.40048 -1.19182,6.40048 0,0 11.28386,60.872128 11.28386,60.872128 0,0 10.909,-18.93999 10.909,-18.93999 0,0 7.61131,3.62502 7.61131,3.62502 21.09589,-12.35706 60.04349,-35.170877 61.83128,-37.058056 1.78779,-1.887179 7.41807,-33.725708 6.01107,-34.955724 -1.40699,-1.230016 -26.47115,1.715346 -40.66222,3.382979 1.9893,-1.939498 5.96789,-5.818494 4.6437,-6.390509 -1.3242,-0.572015 -37.48845,-16.19398 -42.26981,-17.46569 -4.78135,-1.271709 -12.94576,-0.737482 -17.36486,-3.794895 -4.4191,-3.057413 -2.25901,-9.120901 -2.8943,-9.849529 -0.63529,-0.728627 -16.2685,-6.9172325 -24.86936,-10.3219937 0,0 2.92622,7.5827857 2.92622,7.5827857 0,0 -5.76756,-5.0687723 -5.76756,-5.0687723 0,0 -0.37622,6.8765263 -0.37622,6.8765263 z"
       id="path26873"
       inkscape:path-effect="#path-effect27021"
       inkscape:original-d="m 190.48048,14.273662 30.17971,55.10524 -1.19182,6.40048 11.28386,60.872128 10.909,-18.93999 7.61131,3.62502 c 0,0 60.04367,-35.170564 63.28766,-37.071174 0.33171,-1.874007 5.96199,-33.712537 6.46567,-36.562527 -3.31794,0.390196 -42.5732,5.0029 -42.5732,5.0029 0,0 8.651,-4.94925 5.96789,-5.818494 -2.64844,-1.143904 -38.8127,-16.765866 -45.18398,-19.518237 -3.19135,0.209104 -11.35576,0.743331 -22.63528,1.481109 2.44162,-6.852772 4.60171,-12.916259 4.89933,-13.752711 C 217.93206,14.476627 193.69804,4.8831223 193.69804,4.8831223 l 2.92622,7.5827857 -5.76756,-5.0687723 z"
       sodipodi:nodetypes="cccccccccsccscccc" />
  </g>
  <g
     inkscape:groupmode="layer"
     id="layer22"
     inkscape:label="B"
     style="display:inline"
     transform="translate(-58.193854,-25.781868)"
     sodipodi:insensitive="true">
    <g
       id="g26254"
       transform="translate(3.1504986,-1.8704622)"
       style="stroke:none">
      <path
         id="path16242"
         style="fill:#bdd7dd;fill-opacity:1;stroke:none;stroke-width:0.999999px;stroke-linecap:butt;stroke-linejoin:miter;stroke-opacity:1"
         d="m 1166.9551,29.837891 c 7.3769,40.162609 13.8734,75.530959 54.625,108.601559 40.7516,33.0706 113.2016,54.02477 129.2226,66.8711 16.0211,12.84633 -16.9762,32.50334 -24.5254,40.64648 -7.5491,8.14314 -0.3477,13.67938 5.9239,18.50195 32.0752,2.11929 67.0895,4.43455 87.8633,5.67774 20.7737,1.24319 37.1741,1.98475 33.1191,8.07617 -4.0551,6.09143 -29.2927,20.56324 -52.0547,33.61523 l -65.5469,125.11329 30.6973,15.88476 c 1.402,-0.8017 3.3423,-1.91739 4.7812,-2.74023 10.1366,-32.80113 38.369,-121.75278 37.8262,-116.20703 -0.5216,5.33102 -24.2943,80.99671 -32.8123,112.41016 77.9587,-44.59206 201.3718,-114.48572 211.6658,-125.36134 10.8519,-11.46504 29.6045,-124.81193 23.7305,-129.14062 -5.8741,-4.32869 -156.3255,14.66771 -161.0312,14.64844 -4.7057,-0.0192 25.7057,-18.28406 17.8027,-24.41602 -7.903,-6.13196 -135.1092,-63.26335 -143.7871,-66.15625 -8.6779,-2.8929 -53.8665,-6.87298 -66.1016,-15.61523 -12.2352,-8.742262 -12.0481,-24.659811 -11.8633,-40.275394 z"
         transform="matrix(0.26458333,0,0,0.26458333,-56.905616,26.561702)"
         sodipodi:nodetypes="cssscssccccscsssssscc" />
      <path
         style="fill:#bdd7dd;fill-opacity:1;stroke:none;stroke-width:0.264583px;stroke-linecap:butt;stroke-linejoin:miter;stroke-opacity:1"
         d="m 247.32891,36.868574 65.55986,71.485416 -26.70261,47.11082 -9.66437,-52.33436 1.2293,-7.185606 -30.67476,-54.41551 z"
         id="path19755"
         sodipodi:nodetypes="ccccccc" />
    </g>
  </g>
  <g
     inkscape:groupmode="layer"
     id="layer3"
     inkscape:label="B 1"
     sodipodi:insensitive="true"
     style="display:inline" />
  <g
     inkscape:groupmode="layer"
     id="layer17"
     inkscape:label="M-under"
     style="display:inline"
     sodipodi:insensitive="true"
     transform="translate(-58.193854,-25.781868)">
    <path
       style="font-variation-settings:normal;opacity:1;vector-effect:none;fill:#000000;fill-opacity:1;stroke:none;stroke-width:0.264583px;stroke-linecap:butt;stroke-linejoin:miter;stroke-miterlimit:4;stroke-dasharray:none;stroke-dashoffset:0;stroke-opacity:1;-inkscape-stroke:none;stop-color:#000000;stop-opacity:1"
       d="m 100.50648,120.84153 14.45945,-69.002546 17.23464,-12.056846 1.0698,4.816459 4.08371,-9.151331 14.30129,23.56576 4.02863,-21.149532 25.44175,30.469093 9.29883,2.946387 38.44163,33.091456 6.26892,13.88664 7.30022,4.48889 11.11677,35.48813 -77.99334,-29.21329 -1.21019,-4.18738 -4.37693,-2.89544 -2.10702,-3.98064 6.5888,15.23543 -23.05101,8.48375 -5.41059,-2.2018 -8.851,3.56659 -64.415923,-14.03651 z"
       id="path200381"
       sodipodi:nodetypes="ccccccccccccccccccccccc" />
  </g>
  <g
     inkscape:label="M"
     inkscape:groupmode="layer"
     id="layer1"
     style="display:inline"
     sodipodi:insensitive="true"
     transform="translate(-58.193854,-25.781868)">
    <path
       id="path16535"
       style="fill:#bdd7dd;fill-opacity:1;stroke:none;stroke-width:0.451695px;stroke-linecap:butt;stroke-linejoin:miter;stroke-opacity:1"
       d="m 137.10551,40.4616 -3.61003,7.412388 -2.28847,-6.05995 -15.96901,13.417638 -12.61305,67.080244 -16.067821,6.63957 53.105051,11.41677 5.89144,-2.01234 18.57332,-6.3449 -17.64876,6.6572 5.1945,1.75474 18.07751,-8.10846 -24.49035,-56.292501 22.32803,40.626091 -4.11995,-42.872212 8.4631,48.424882 5.40976,1.92235 43.518,16.75507 -43.35567,-15.92667 0.69872,3.25538 73.82656,28.29446 -14.56012,-34.79992 -5.04275,-2.61489 -4.64575,-14.01843 -0.26378,-0.14115 -39.65125,-32.248561 -7.45649,-3.534162 -24.18333,-26.482385 -3.6551,19.108924 z"
       sodipodi:nodetypes="cccccccccccccccccccccccccccccc" />
  </g>
  <g
     inkscape:groupmode="layer"
     id="layer14"
     inkscape:label="M-star"
     style="display:inline"
     sodipodi:insensitive="true"
     transform="translate(-58.193854,-25.781868)">
    <path
       sodipodi:type="star"
       style="fill:#758c91;fill-opacity:1;stroke:none;stroke-opacity:1"
       id="path194095-7-3-6"
       inkscape:flatsided="false"
       sodipodi:sides="5"
       sodipodi:cx="418.7063"
       sodipodi:cy="193.01639"
       sodipodi:r1="61.185623"
       sodipodi:r2="30.592813"
       sodipodi:arg1="-2.0943951"
       sodipodi:arg2="-1.4660766"
       inkscape:rounded="0"
       inkscape:randomized="0"
       transform="matrix(0.39505136,-0.14554199,0.14554199,0.39505136,-87.989741,34.391387)"
       inkscape:transform-center-x="-1.9559799"
       inkscape:transform-center-y="0.52417389"
       d="m 388.11349,140.02808 33.79063,22.56308 37.74335,-15.04455 -11.01688,39.10917 25.97156,31.24704 -40.59944,1.60772 -21.69205,34.35629 -14.07495,-38.11555 -39.37798,-10.01369 31.90064,-25.16442 z" />
  </g>
  <g
     inkscape:groupmode="layer"
     id="layer16"
     inkscape:label="O-star"
     style="display:inline"
     sodipodi:insensitive="true"
     transform="translate(-58.193854,-25.781868)">
    <path
       sodipodi:type="star"
       style="display:inline;fill:#758c91;fill-opacity:1;stroke:none;stroke-opacity:1"
       id="path194095"
       inkscape:flatsided="false"
       sodipodi:sides="5"
       sodipodi:cx="418.7063"
       sodipodi:cy="193.01639"
       sodipodi:r1="61.185623"
       sodipodi:r2="30.592813"
       sodipodi:arg1="-2.0943951"
       sodipodi:arg2="-1.4660766"
       inkscape:rounded="0"
       inkscape:randomized="0"
       d="m 388.11349,140.02808 33.79063,22.56308 37.74335,-15.04455 -11.01688,39.10917 25.97156,31.24704 -40.59944,1.60772 -21.69205,34.35629 -14.07495,-38.11555 -39.37798,-10.01369 31.90064,-25.16442 z"
       transform="matrix(0.45169507,0,0,0.45169507,33.232598,55.06394)"
       inkscape:transform-center-x="0.89271304"
       inkscape:transform-center-y="1.7756445" />
    <path
       sodipodi:type="star"
       style="display:inline;fill:#758c91;fill-opacity:1;stroke:none;stroke-opacity:1"
       id="path194095-7-3"
       inkscape:flatsided="false"
       sodipodi:sides="5"
       sodipodi:cx="418.7063"
       sodipodi:cy="193.01639"
       sodipodi:r1="61.185623"
       sodipodi:r2="30.592813"
       sodipodi:arg1="-2.0943951"
       sodipodi:arg2="-1.4660766"
       inkscape:rounded="0"
       inkscape:randomized="0"
       transform="matrix(0.206823,-0.03284508,0.03284508,0.206823,158.47393,18.174659)"
       inkscape:transform-center-x="-0.20885948"
       inkscape:transform-center-y="1.0232155"
       d="m 388.11349,140.02808 33.79063,22.56308 37.74335,-15.04455 -11.01688,39.10917 25.97156,31.24704 -40.59944,1.60772 -21.69205,34.35629 -14.07495,-38.11555 -39.37798,-10.01369 31.90064,-25.16442 z" />
  </g>
  <g
     inkscape:groupmode="layer"
     id="layer5"
     inkscape:label="O"
     style="display:inline"
     transform="translate(-58.193854,-25.781868)"
     sodipodi:insensitive="true">
    <path
       id="path39162"
       style="fill:#a4bbc1;fill-opacity:1;stroke:none;stroke-width:0.378714;stroke-opacity:1"
       d="M 214.42449,38.147821 A 60.519369,37.511615 66.904198 0 1 272.66943,79.1016 60.519369,37.511615 66.904198 0 1 261.90408,149.48478 60.519369,37.511615 66.904198 0 1 203.6591,108.53103 60.519369,37.511615 66.904198 0 1 214.42449,38.147821 Z m 32.87472,37.587645 a 25.609566,15.873531 66.904198 0 0 -4.55525,29.783244 25.609566,15.873531 66.904198 0 0 24.64701,17.33079 25.609566,15.873531 66.904198 0 0 4.55561,-29.784235 25.609566,15.873531 66.904198 0 0 -24.64737,-17.329799 z" />
  </g>
  <g
     inkscape:groupmode="layer"
     id="layer2"
     inkscape:label="M-over"
     style="display:inline"
     sodipodi:insensitive="true"
     transform="translate(-58.193854,-25.781868)">
    <path
       id="path12634"
       style="fill:#a4bbc1;fill-opacity:1;stroke:none;stroke-width:0.451695px;stroke-linecap:butt;stroke-linejoin:miter;stroke-opacity:1"
       d="m 126.11574,31.57062 -15.4538,6.044949 -1.53417,1.827071 17.59317,-7.374451 z m 0.8134,0.68107 -17.91959,7.692931 -0.72606,2.3714 19.11322,-9.372673 z m 0.67313,0.857516 -19.35231,10.21166 -0.29113,2.799272 17.587,-10.096089 -17.6964,11.156515 -3.10893,29.929212 13.87551,-17.32145 -4.46137,39.651239 -8.93598,6.973925 -0.63431,4.13142 -2.91396,-0.97749 -1.18129,6.49752 28.05715,6.61751 c 0,0 -25.14657,-5.17948 -28.33505,-6.03171 l -22.919995,16.04047 -19.097351,41.00014 94.077856,-47.15273 -23.21554,-7.78644 -9.35503,-10.06698 1.49712,-15.124726 -0.99338,-1.476831 3.24215,-38.327031 9.56676,-11.942574 z m 35.22781,0.825753 c 0.51801,1.800574 6.78954,27.965395 6.78954,27.965395 l 1.63122,1.577405 -2.277,-15.761688 3.73795,18.938549 8.00347,5.445925 0.28496,2.737521 34.68347,29.431634 13.27207,31.1899 6.94746,3.66914 2.37758,6.70397 40.29437,16.39158 -36.52113,-42.50697 -4.83984,-2.77192 26.84057,34.01563 -30.70821,-36.87402 -7.69205,-3.85881 8.93686,25.20053 -3.16364,-1.82179 -9.85788,-25.49254 -37.59744,-31.784507 -0.32819,-2.2373 32.8714,22.36508 -39.55419,-54.290748 z m -43.15541,64.421247 -1.38773,12.801844 5.01364,5.66384 -17.06296,-5.72295 0.41553,-2.59371 z" />
  </g>
  <g
     inkscape:groupmode="layer"
     id="layer23"
     inkscape:label="B-over"
     style="display:inline"
     transform="translate(0,-0.85359868)" />
  <g
     inkscape:groupmode="layer"
     id="layer25"
     inkscape:label="B-star"
     style="display:inline"
     transform="translate(0,-0.85359868)"
     sodipodi:insensitive="true">
    <path
       sodipodi:type="star"
       style="display:inline;fill:#758c91;fill-opacity:1;stroke:none;stroke-opacity:1"
       id="path194095-7"
       inkscape:flatsided="false"
       sodipodi:sides="5"
       sodipodi:cx="418.7063"
       sodipodi:cy="193.01639"
       sodipodi:r1="61.185623"
       sodipodi:r2="30.592813"
       sodipodi:arg1="-2.0943951"
       sodipodi:arg2="-1.4660766"
       inkscape:rounded="0"
       inkscape:randomized="0"
       transform="matrix(0.30070607,-0.26091148,0.26091148,0.30070607,64.914172,165.08927)"
       inkscape:transform-center-x="-0.13834323"
       inkscape:transform-center-y="-2.1941342"
       d="m 388.11349,140.02808 33.79063,22.56308 37.74335,-15.04455 -11.01688,39.10917 25.97156,31.24704 -40.59944,1.60772 -21.69205,34.35629 -14.07495,-38.11555 -39.37798,-10.01369 31.90064,-25.16442 z" />
  </g>
  <g
     inkscape:groupmode="layer"
     id="layer10"
     inkscape:label="O-outline"
     style="display:inline"
     transform="translate(-58.193854,-25.781868)"
     sodipodi:insensitive="true">
    <path
       id="path39162-0"
       style="display:inline;fill:#000000;fill-opacity:1;stroke:none;stroke-width:0.378714;stroke-opacity:1"
       d="m 224.05353,35.490719 c -3.61437,-0.07754 -7.04269,0.563599 -10.18961,1.905589 -19.05637,8.126934 -23.87591,39.638483 -10.76482,70.383262 5.15464,12.08476 12.60671,22.80129 21.23055,30.53088 -7.55271,-7.49653 -14.03998,-17.26652 -18.66506,-28.11008 -13.11113,-30.745167 -8.29116,-62.256897 10.7657,-70.383257 10.83287,-4.604528 24.53052,-0.740942 36.99488,10.434862 C 244.06179,40.95154 233.62865,35.70818 224.05353,35.490719 Z"
       sodipodi:nodetypes="cccccccc" />
    <path
       id="path39162-2"
       style="display:inline;fill:#000000;fill-opacity:1;stroke:none;stroke-width:0.378714;stroke-opacity:1"
       d="m 249.54484,72.939555 a 25.609566,15.873531 66.904198 0 0 -3.25451,0.78076 25.609566,15.873531 66.904198 0 0 -4.55577,29.782765 25.609566,15.873531 66.904198 0 0 0.25232,0.54345 25.609566,15.873531 66.904198 0 1 5.6409,-26.921739 25.609566,15.873531 66.904198 0 1 24.42769,16.856519 25.609566,15.873531 66.904198 0 0 -1.11777,-2.931606 25.609566,15.873531 66.904198 0 0 -21.39286,-18.110149 z m 23.82513,8.440167 a 60.519369,37.511615 66.904198 0 1 -12.47542,66.089508 60.519369,37.511615 66.904198 0 1 -58.24485,-40.95338 60.519369,37.511615 66.904198 0 1 -0.41199,-1.02602 60.519369,37.511615 66.904198 0 0 1.75031,4.43049 60.519369,37.511615 66.904198 0 0 58.24485,40.95338 60.519369,37.511615 66.904198 0 0 11.1371,-69.493978 z" />
  </g>
  <g
     inkscape:groupmode="layer"
     id="layer4"
     inkscape:label="O-outline 1"
     sodipodi:insensitive="true"
     style="display:inline" />
</svg>
