<?xml version="1.0" encoding="UTF-8" standalone="no"?>
<!-- Generator: Gravit.io -->

<svg
   style="isolation:isolate"
   viewBox="0 0 284.241 233.029"
   width="284.241pt"
   height="233.029pt"
   version="1.1"
   id="svg989"
   sodipodi:docname="piece-arrow.svg"
   inkscape:version="1.1.1 (3bf5ae0d25, 2021-09-20)"
   xmlns:inkscape="http://www.inkscape.org/namespaces/inkscape"
   xmlns:sodipodi="http://sodipodi.sourceforge.net/DTD/sodipodi-0.dtd"
   xmlns="http://www.w3.org/2000/svg"
   xmlns:svg="http://www.w3.org/2000/svg">
  <sodipodi:namedview
     id="namedview991"
     pagecolor="#ffffff"
     bordercolor="#666666"
     borderopacity="1.0"
     inkscape:pageshadow="2"
     inkscape:pageopacity="0.0"
     inkscape:pagecheckerboard="0"
     inkscape:document-units="pt"
     showgrid="false"
     inkscape:zoom="1.8115459"
     inkscape:cx="162.01632"
     inkscape:cy="179.9568"
     inkscape:window-width="1920"
     inkscape:window-height="1011"
     inkscape:window-x="0"
     inkscape:window-y="0"
     inkscape:window-maximized="1"
     inkscape:current-layer="layer7" />
  <defs
     id="defs971">
    <clipPath
       id="_clipPath_jM8YYUJ7y6SITknhJSHhTEy5fIjGL6tT">
      <rect
         width="284.241"
         height="233.029"
         id="rect968" />
    </clipPath>
    <clipPath
       id="_clipPath_jM8YYUJ7y6SITknhJSHhTEy5fIjGL6tT-3">
      <rect
         width="284.241"
         height="233.02901"
         id="rect968-6"
         x="0"
         y="0" />
    </clipPath>
  </defs>
  <g
     inkscape:groupmode="layer"
     id="layer2"
     inkscape:label="arrow 1"
     style="display:inline"
     sodipodi:insensitive="true"
     ref="around">
    <g
       id="g977"
       style="isolation:isolate">
      <path
         d="M 211.033,87.241 168.098,21.583 c -0.194,-1.657 6.209,-8.036 18.17,-9.225 q 19.63,-1.403 36.821,18.292 17.692,22.733 13.584,61.622 -2.968,21.509 7.863,25.16 l 0.509,-5.517 8.032,-0.505 31.164,34.127 -6.421,4.378 -39.845,-4.648 -0.906,-7.733 4.397,-4.39 Q 221.44,122.54 227.131,92.216 230.444,62.568 216.179,45.65 q -13.09,-14.289 -21.02,-7.988 -1.506,1.173 -2.405,2.79 c -4.718,8.494 9.385,25.057 23.908,48.772 z"
         fill="#000000"
         id="path975" />
    </g>
  </g>
  <g
     inkscape:groupmode="layer"
     id="layer3"
     inkscape:label="main"
     style="display:inline"
     sodipodi:insensitive="true"
     ref="around">
    <path
       d="M 166.442,14.352991 244.536,117.432 216.719,203.31099 91.978998,221.699 l -91.093,-41.101 14,-113.500004 68,-67.0000052 z"
       fill="#000000"
       id="path973"
       style="display:inline;isolation:isolate" />
  </g>
  <g
     inkscape:groupmode="layer"
     id="layer4"
     inkscape:label="piece1"
     style="display:inline"
     sodipodi:insensitive="true"
     ref="around">
    <path
       d="m 92.944158,223.39197 123.563002,-18.187 -2.625,8.25 -117.375002,12 z"
       fill="#000000"
       id="path981"
       style="display:inline;isolation:isolate" />
  </g>
  <g
     inkscape:groupmode="layer"
     id="layer5"
     inkscape:label="piece2"
     style="display:inline"
     sodipodi:insensitive="true"
     ref="around">
    <path
       d="m 106.55555,226.24771 106.501,-11.505 -2.522,6.984 -100.994,6.407 z"
       fill="#000000"
       id="path983"
       style="display:inline;isolation:isolate" />
  </g>
  <g
     inkscape:groupmode="layer"
     id="layer7"
     inkscape:label="piece3"
     sodipodi:insensitive="true"
     style="display:inline"
     ref="around">
    <path
       d="m 115.27229,229.71942 94.15819,-5.62344 -2.51303,6.03629 -89.09933,1.37198 z"
       fill="#000000"
       id="path983-7"
       style="display:inline;isolation:isolate;stroke-width:0.880558" />
  </g>
</svg>
