<?xml version="1.0" encoding="UTF-8" standalone="no"?>
<!-- Created with Inkscape (http://www.inkscape.org/) -->

<svg
   width="138.09821mm"
   height="23.720711mm"
   viewBox="0 0 138.09821 23.720711"
   version="1.1"
   id="svg1"
   inkscape:version="1.4 (e7c3feb, 2024-10-09)"
   sodipodi:docname="sign.svg"
   xmlns:inkscape="http://www.inkscape.org/namespaces/inkscape"
   xmlns:sodipodi="http://sodipodi.sourceforge.net/DTD/sodipodi-0.dtd"
   xmlns="http://www.w3.org/2000/svg"
   xmlns:svg="http://www.w3.org/2000/svg">
  <sodipodi:namedview
     id="namedview1"
     pagecolor="#ffffff"
     bordercolor="#666666"
     borderopacity="1.0"
     inkscape:showpageshadow="2"
     inkscape:pageopacity="0.0"
     inkscape:pagecheckerboard="0"
     inkscape:deskcolor="#d1d1d1"
     inkscape:document-units="mm"
     inkscape:zoom="2.0157702"
     inkscape:cx="269.1279"
     inkscape:cy="35.222269"
     inkscape:window-width="1920"
     inkscape:window-height="1011"
     inkscape:window-x="0"
     inkscape:window-y="0"
     inkscape:window-maximized="1"
     inkscape:current-layer="layer1"
     showguides="true" />
  <defs
     id="defs1">
    <inkscape:path-effect
       effect="bspline"
       id="path-effect20"
       is_visible="true"
       lpeversion="1.3"
       weight="1"
       steps="2"
       helper_size="0"
       apply_no_weight="true"
       apply_with_weight="true"
       only_selected="true"
       uniform="false" />
    <inkscape:path-effect
       effect="bspline"
       id="path-effect19"
       is_visible="true"
       lpeversion="1.3"
       weight="0"
       steps="2"
       helper_size="0"
       apply_no_weight="true"
       apply_with_weight="true"
       only_selected="true"
       uniform="false" />
    <inkscape:path-effect
       effect="bspline"
       id="path-effect18"
       is_visible="true"
       lpeversion="1.3"
       weight="1"
       steps="2"
       helper_size="0"
       apply_no_weight="true"
       apply_with_weight="true"
       only_selected="true"
       uniform="false" />
    <inkscape:path-effect
       effect="bspline"
       id="path-effect17"
       is_visible="true"
       lpeversion="1.3"
       weight="2"
       steps="2"
       helper_size="0"
       apply_no_weight="true"
       apply_with_weight="true"
       only_selected="true"
       uniform="false" />
    <inkscape:path-effect
       effect="bspline"
       id="path-effect16"
       is_visible="true"
       lpeversion="1.3"
       weight="1"
       steps="2"
       helper_size="0"
       apply_no_weight="true"
       apply_with_weight="true"
       only_selected="true"
       uniform="false" />
    <inkscape:path-effect
       effect="bspline"
       id="path-effect15"
       is_visible="true"
       lpeversion="1.3"
       weight="1"
       steps="2"
       helper_size="0"
       apply_no_weight="true"
       apply_with_weight="true"
       only_selected="true"
       uniform="false" />
    <inkscape:path-effect
       effect="bspline"
       id="path-effect14"
       is_visible="true"
       lpeversion="1.3"
       weight="1"
       steps="2"
       helper_size="0"
       apply_no_weight="true"
       apply_with_weight="true"
       only_selected="true"
       uniform="false" />
    <inkscape:path-effect
       effect="bspline"
       id="path-effect13"
       is_visible="true"
       lpeversion="1.3"
       weight="1"
       steps="2"
       helper_size="0"
       apply_no_weight="true"
       apply_with_weight="true"
       only_selected="true"
       uniform="false" />
    <inkscape:path-effect
       effect="bspline"
       id="path-effect12"
       is_visible="true"
       lpeversion="1.3"
       weight="1"
       steps="2"
       helper_size="0"
       apply_no_weight="true"
       apply_with_weight="true"
       only_selected="true"
       uniform="false" />
    <inkscape:path-effect
       effect="bspline"
       id="path-effect11"
       is_visible="true"
       lpeversion="1.3"
       weight="1"
       steps="2"
       helper_size="0"
       apply_no_weight="true"
       apply_with_weight="true"
       only_selected="true"
       uniform="false" />
    <inkscape:path-effect
       effect="bspline"
       id="path-effect10"
       is_visible="true"
       lpeversion="1.3"
       weight="1"
       steps="2"
       helper_size="0"
       apply_no_weight="true"
       apply_with_weight="true"
       only_selected="true"
       uniform="false" />
    <inkscape:path-effect
       effect="bspline"
       id="path-effect9"
       is_visible="true"
       lpeversion="1.3"
       weight="1"
       steps="2"
       helper_size="0"
       apply_no_weight="true"
       apply_with_weight="true"
       only_selected="true"
       uniform="false" />
    <inkscape:path-effect
       effect="bspline"
       id="path-effect8"
       is_visible="true"
       lpeversion="1.3"
       weight="1"
       steps="2"
       helper_size="0"
       apply_no_weight="true"
       apply_with_weight="true"
       only_selected="true"
       uniform="false" />
    <inkscape:path-effect
       effect="bspline"
       id="path-effect7"
       is_visible="true"
       lpeversion="1.3"
       weight="2"
       steps="2"
       helper_size="0"
       apply_no_weight="true"
       apply_with_weight="true"
       only_selected="true"
       uniform="false" />
    <inkscape:path-effect
       effect="taper_stroke"
       start_shape="center | center"
       end_shape="center | center"
       id="path-effect4"
       is_visible="true"
       lpeversion="1"
       stroke_width="2.36"
       subpath="1"
       attach_start="0.5"
       end_offset="0.2"
       start_smoothing="0.5"
       end_smoothing="0.5"
       jointype="extrapolated"
       miter_limit="100" />
    <inkscape:path-effect
       effect="bspline"
       id="path-effect3"
       is_visible="true"
       lpeversion="1.3"
       weight="0"
       steps="2"
       helper_size="0"
       apply_no_weight="true"
       apply_with_weight="true"
       only_selected="true"
       uniform="false" />
    <inkscape:path-effect
       effect="powerstroke"
       message=""
       id="path-effect2"
       is_visible="true"
       lpeversion="1.3"
       scale_width="13.821138"
       interpolator_type="CubicBezierFit"
       interpolator_beta="0.13821138"
       start_linecap_type="zerowidth"
       end_linecap_type="zerowidth"
       offset_points="0.79743909,0.045109012 | 3.7897558,0.1322915 | 0,0.1322915"
       linejoin_type="round"
       miter_limit="4"
       not_jump="false"
       sort_points="true" />
    <inkscape:path-effect
       effect="bspline"
       id="path-effect11-3"
       is_visible="true"
       lpeversion="1.3"
       weight="1"
       steps="2"
       helper_size="0"
       apply_no_weight="true"
       apply_with_weight="true"
       only_selected="true"
       uniform="false" />
    <inkscape:path-effect
       effect="bspline"
       id="path-effect12-6"
       is_visible="true"
       lpeversion="1.3"
       weight="1"
       steps="2"
       helper_size="0"
       apply_no_weight="true"
       apply_with_weight="true"
       only_selected="true"
       uniform="false" />
    <inkscape:path-effect
       effect="bspline"
       id="path-effect9-0"
       is_visible="true"
       lpeversion="1.3"
       weight="1"
       steps="2"
       helper_size="0"
       apply_no_weight="true"
       apply_with_weight="true"
       only_selected="true"
       uniform="false" />
    <inkscape:path-effect
       effect="bspline"
       id="path-effect17-2"
       is_visible="true"
       lpeversion="1.3"
       weight="2"
       steps="2"
       helper_size="0"
       apply_no_weight="true"
       apply_with_weight="true"
       only_selected="true"
       uniform="false" />
    <inkscape:path-effect
       effect="bspline"
       id="path-effect17-3"
       is_visible="true"
       lpeversion="1.3"
       weight="2"
       steps="2"
       helper_size="0"
       apply_no_weight="true"
       apply_with_weight="true"
       only_selected="true"
       uniform="false" />
    <inkscape:path-effect
       effect="bspline"
       id="path-effect14-4"
       is_visible="true"
       lpeversion="1.3"
       weight="1"
       steps="2"
       helper_size="0"
       apply_no_weight="true"
       apply_with_weight="true"
       only_selected="true"
       uniform="false" />
  </defs>
  <g
     inkscape:label="Livello 1"
     inkscape:groupmode="layer"
     id="layer1"
     transform="translate(-14.794829,-107.62702)">
    <path
       style="font-variation-settings:normal;opacity:1;vector-effect:none;fill:#000000;fill-opacity:1;stroke:none;stroke-width:0.188002px;stroke-linecap:butt;stroke-linejoin:miter;stroke-miterlimit:4;stroke-dasharray:none;stroke-dashoffset:0;stroke-opacity:1;-inkscape-stroke:none;stop-color:#000000;stop-opacity:1"
       d="m 15.748433,128.91665 c 1.196658,-1.34777 22.097602,-24.88815 24.442788,-26.93953 2.345187,-2.051381 10.055848,-3.988408 10.71849,-3.625463 0.662643,0.362946 -0.558422,4.236853 -0.32023,4.184963 0.238193,-0.0519 2.311905,-4.20002 3.233715,-4.902873 0.921809,-0.702854 7.915193,-2.343125 8.272348,-1.225169 0.357156,1.117956 0.693144,28.134222 0.2726,29.180252 -0.420544,1.04604 -11.782744,2.3546 -12.36611,1.57206 -0.583365,-0.78254 0.855741,-10.58773 0.926332,-11.63675 0.07059,-1.04903 -1.261933,5.52291 -1.405676,5.62036 -0.143742,0.0975 -12.046178,0.0975 -12.126636,-0.004 -0.08046,-0.10156 2.758901,-6.72673 1.980968,-5.53822 -0.777934,1.18851 -5.924834,11.03475 -7.368166,12.05886 -1.443333,1.02411 -15.846174,2.44453 -16.651625,2.52397 -0.805451,0.0794 -0.805456,0.0794 0.391202,-1.26835 z"
       id="path4"
       sodipodi:nodetypes="ccccccccccccccc"
       inkscape:path-effect="#path-effect10"
       inkscape:original-d="m 14.551775,130.26443 c 2.393318,-2.69555 23.294256,-26.23593 26.636256,-29.99996 1.348376,-0.338734 9.059038,-2.275759 10.746765,-2.699739 -0.362442,1.149872 -1.583508,5.023779 -2.307886,7.321919 1.200764,-2.40193 3.274476,-6.55005 3.825671,-7.652624 1.292424,-0.303133 8.285808,-1.943404 8.970315,-2.103952 0.0298,2.39646 0.365792,29.412726 0.39057,31.405076 -0.865868,0.0997 -12.228066,1.40828 -13.648514,1.57187 0.253717,-1.72867 1.692822,-11.53386 2.437863,-16.61011 -0.60386,2.9782 -1.936381,9.55014 -1.9759,9.74504 -0.247967,0 -12.150403,0 -12.39837,0 0.08705,-0.20312 2.92641,-6.82829 4.352619,-10.15611 -2.982074,5.70484 -8.128975,15.55108 -9.10093,17.41047 -1.914711,0.18883 -16.317552,1.60925 -17.928454,1.76812 z"
       transform="matrix(0.62421324,0,0,0.62421324,5.5597009,49.489196)" />
    <path
       id="path5"
       style="fill:#000000;fill-opacity:1;stroke:none;stroke-width:0.103081;stroke-dasharray:0.309242, 0.309242;stroke-opacity:1"
       d="m 53.177038,108.8283 a 7.8104326,10.703185 10.745333 0 0 -9.668986,9.0594 7.8104326,10.703185 10.745333 0 0 5.677902,11.97161 7.8104326,10.703185 10.745333 0 0 9.668948,-9.05921 7.8104326,10.703185 10.745333 0 0 -5.677864,-11.9718 z m -3.848133,8.83142 a 2.809684,3.8503074 10.745333 0 1 2.042439,4.30654 2.809684,3.8503074 10.745333 0 1 -3.47818,3.25909 2.809684,3.8503074 10.745333 0 1 -2.042597,-4.30677 2.809684,3.8503074 10.745333 0 1 3.478338,-3.25886 z" />
    <path
       id="path5-0"
       style="fill:#000000;fill-opacity:1;stroke:none;stroke-width:0.103081;stroke-dasharray:0.309242, 0.309242;stroke-opacity:1"
       d="m 118.92189,111.77058 a 7.8104326,10.703185 41.504219 0 0 -12.94204,2.84002 7.8104326,10.703185 41.504219 0 0 -1.2434,13.19136 7.8104326,10.703185 41.504219 0 0 12.94189,-2.83988 7.8104326,10.703185 41.504219 0 0 1.24355,-13.1915 z m -7.82341,5.62104 a 2.809684,3.8503074 41.504219 0 1 -0.44736,4.74528 2.809684,3.8503074 41.504219 0 1 -4.65568,1.0218 2.809684,3.8503074 41.504219 0 1 0.44734,-4.74556 2.809684,3.8503074 41.504219 0 1 4.6557,-1.02152 z" />
    <path
       id="path6"
       style="font-variation-settings:normal;opacity:1;vector-effect:none;fill:#000000;fill-opacity:1;stroke:none;stroke-width:0.179461px;stroke-linecap:butt;stroke-linejoin:miter;stroke-miterlimit:4;stroke-dasharray:none;stroke-dashoffset:0;stroke-opacity:1;-inkscape-stroke:none;stop-color:#000000;stop-opacity:1"
       d="m 86.731222,98.846311 c -0.05688,0.0016 -0.100349,0.0081 -0.12874,0.02081 -0.90853,0.405969 3.175794,5.984969 2.804545,13.901699 -0.37125,7.91673 -4.978442,15.26602 -3.928522,16.1373 1.04992,0.87129 19.903445,-3.92547 22.418635,-5.1712 2.51518,-1.24574 6.50186,-7.91022 6.07009,-8.57246 -0.43178,-0.66222 -7.87122,-1.81825 -8.1577,-1.92956 -0.28648,-0.11132 6.11377,0.62032 6.4486,0.21894 0.33484,-0.40138 -2.99999,-6.19771 -5.90588,-7.87324 -2.81509,-1.62317 -17.857601,-6.780622 -19.621028,-6.732294 z m 9.420435,6.596619 c 0.634982,0.0308 6.693113,2.36172 7.481613,2.84926 0.81394,0.50326 2.30533,2.81607 1.86019,3.01423 -0.44514,0.19816 -5.578229,-0.35914 -6.559613,-0.96594 -0.981385,-0.60681 -3.108976,-4.76778 -2.826131,-4.8937 0.0088,-0.004 0.02346,-0.005 0.04394,-0.004 z m 2.969519,8.92706 c 1.753074,0.0497 7.230524,1.73372 7.550994,1.97119 0.35362,0.26204 -0.51043,2.32613 -1.81856,2.79992 -1.30813,0.4738 -9.214063,1.74157 -9.805115,1.3036 -0.591052,-0.43797 2.678722,-5.67997 3.657935,-6.03463 0.0918,-0.0333 0.233393,-0.0452 0.414746,-0.0401 z"
       transform="matrix(0.67033635,0,0,0.67033635,-1.4133546,42.747541)" />
    <path
       style="font-variation-settings:normal;opacity:1;vector-effect:none;fill:#000000;fill-opacity:1;stroke:none;stroke-width:0.264583px;stroke-linecap:butt;stroke-linejoin:miter;stroke-miterlimit:4;stroke-dasharray:none;stroke-dashoffset:0;stroke-opacity:1;-inkscape-stroke:none;stop-color:#000000;stop-opacity:1"
       d="m 103.67044,128.40042 c 0.62684,-1.09806 18.36171,-29.73822 19.65091,-31.457161 1.28921,-1.71894 6.30065,-3.462049 5.58607,-2.210304 -0.71458,1.251746 -22.37818,31.875675 -23.20396,32.976705 -0.82578,1.10104 -2.65987,1.78882 -2.03302,0.69076 z"
       id="path12"
       sodipodi:nodetypes="ccccc"
       inkscape:path-effect="#path-effect13"
       inkscape:original-d="m 102.90525,129.55036 c 1.39203,-2.248 19.1269,-30.88816 21.13233,-34.126744 0.57298,-0.199297 5.58442,-1.942407 6.03781,-2.100107 -1.88255,2.66119 -23.54615,33.285121 -25.07004,35.439311 -0.12766,0.0479 -1.96176,0.73566 -2.1001,0.78754 z"
       transform="matrix(0.62421324,0,0,0.62421324,6.4132823,49.719036)" />
    <path
       style="font-variation-settings:normal;opacity:1;vector-effect:none;fill:#000000;fill-opacity:1;stroke:none;stroke-width:0.264583px;stroke-linecap:butt;stroke-linejoin:miter;stroke-miterlimit:4;stroke-dasharray:none;stroke-dashoffset:0;stroke-opacity:1;-inkscape-stroke:none;stop-color:#000000;stop-opacity:1"
       d="m 68.699866,136.68027 c -3.598034,1.79406 5.041636,10.43372 6.687377,10.36789 1.645741,-0.0658 19.473014,-8.22972 16.699505,-5.27131 -2.773508,2.95841 -26.768637,19.96594 -26.258232,21.9225 0.510405,1.95656 37.859564,-9.24819 39.526944,-10.05329 1.66738,-0.80511 -3.36149,-5.73339 -5.434341,-5.52188 -2.072852,0.21152 -14.606496,6.13496 -12.629452,4.04875 1.977045,-2.0862 25.326703,-20.29742 23.126373,-22.59205 -2.20033,-2.29463 -38.12014,5.30533 -41.718174,7.09939 z"
       id="path13"
       inkscape:path-effect="#path-effect14"
       inkscape:original-d="m 63.396979,136.76948 c 1.704854,1.70485 10.344524,10.34451 11.288084,11.28807 2.347919,-1.07522 20.175193,-9.23911 28.088937,-12.86316 -13.460758,9.54087 -37.45589,26.5484 -47.777447,33.86423 11.342368,-3.40271 48.691527,-14.60746 52.502677,-15.7508 -0.47639,-0.46687 -5.50526,-5.39515 -6.56284,-6.43158 -3.088122,1.45946 -15.621768,7.3829 -19.163466,9.05672 7.495789,-5.84623 30.845446,-24.05745 40.558316,-31.63287 -14.11353,2.98616 -50.03334,10.58612 -58.934261,12.46939 z"
       sodipodi:nodetypes="ccccccccc"
       transform="matrix(0.62421324,0,0,0.62421324,72.435649,27.007933)" />
    <path
       style="font-variation-settings:normal;vector-effect:none;fill:#000000;fill-opacity:1;stroke:none;stroke-width:0.264583px;stroke-linecap:butt;stroke-linejoin:miter;stroke-miterlimit:4;stroke-dasharray:none;stroke-dashoffset:0;stroke-opacity:1;-inkscape-stroke:none;stop-color:#000000"
       d="m 75.493525,135.41524 c -4.125759,1.91757 -7.435314,13.06088 -6.149999,13.06341 1.285316,0.003 23.547857,-9.19941 21.758785,-6.4714 -1.789071,2.72801 -25.7842,19.73554 -25.418342,21.85271 0.365858,2.11717 36.763061,-8.02985 38.430441,-8.83496 1.66738,-0.80511 -2.33608,-6.87273 -4.301113,-6.78102 -1.96503,0.0917 -14.498674,6.01516 -12.52163,3.92895 1.977045,-2.0862 25.326703,-20.29742 24.158983,-22.78789 -1.16771,-2.49047 -31.831367,4.11263 -35.957125,6.0302 z"
       id="path13-0"
       inkscape:path-effect="#path-effect14-4"
       inkscape:original-d="m 72.020835,135.13392 c -0.65307,2.19889 -3.962624,13.3422 -4.324069,14.55919 2.932074,-1.21194 25.194616,-10.41387 35.077234,-14.49872 -13.460758,9.54087 -37.45589,26.5484 -47.777447,33.86423 11.053275,-3.08149 47.450477,-13.22852 51.164497,-14.26393 -0.37926,-0.5748 -4.38272,-6.64242 -5.22466,-7.91845 -3.088122,1.45946 -15.621768,7.3829 -19.163466,9.05672 7.495789,-5.84623 30.845446,-24.05745 40.558316,-31.63287 -12.0483,2.59448 -42.711957,9.19758 -50.310405,10.83383 z"
       sodipodi:nodetypes="ccccccccc"
       transform="matrix(0.62421324,0,0,0.62421324,41.455214,28.883221)" />
    <path
       id="path17-9"
       style="font-variation-settings:normal;vector-effect:none;fill:#000000;fill-opacity:1;stroke:none;stroke-width:0.264583px;stroke-linecap:butt;stroke-linejoin:miter;stroke-miterlimit:4;stroke-dasharray:none;stroke-dashoffset:0;stroke-opacity:1;-inkscape-stroke:none;stop-color:#000000"
       d="m 157.13564,152.42855 c -3.29028,3.22273 -10.34231,25.5507 -9.75972,26.55107 0.5826,1.00037 14.31031,-4.29697 19.07875,-4.24503 4.76844,0.0519 11.00379,3.88536 12.77948,7.83549 1.77569,3.95013 0.89959,12.08484 -1.41988,15.76834 -2.31947,3.6835 -8.26723,7.28837 -14.82813,6.3282 -6.56091,-0.96016 -14.22,-6.16936 -15.14605,-4.58507 -0.92605,1.58428 4.90777,11.08135 13.86498,14.42143 8.95721,3.34008 23.55416,1.39559 30.55766,-5.43742 7.0035,-6.83302 11.35844,-27.55568 10.5692,-33.0439 -0.78924,-5.48821 -9.8177,-12.84006 -14.18349,-14.06515 -4.36579,-1.22509 -14.62968,0.8482 -17.43015,1.5216 -2.80047,0.67339 -7.45227,2.06601 -8.25512,1.92782 -0.80284,-0.13819 3.71289,-2.48501 4.0325,-2.59817 0.31961,-0.11315 19.71597,-5.88686 21.77051,-8.1128 2.05454,-2.22594 2.7045,-17.8827 2.07642,-17.9592 -0.62809,-0.0765 -30.41669,12.47006 -33.70696,15.69279 z"
       transform="matrix(0.32328239,0.11597049,-0.09646016,0.26889485,104.27681,51.001767)"
       inkscape:path-effect="#path-effect19"
       inkscape:original-d="m 155.18374,151.41375 c -1.33838,4.23753 -8.39041,26.5655 -9.27175,29.35597 2.04653,-0.78973 15.77424,-6.08707 21.52963,-8.308 3.78149,2.32481 10.01684,6.15823 14.1457,8.6966 -0.57748,5.36189 -1.45358,13.4966 -1.97846,18.37012 -4.11406,2.49348 -10.06182,6.09835 -15.50742,9.39886 -7.67621,-5.22084 -15.3353,-10.43004 -21.85951,-14.86736 4.67211,7.60589 10.50593,17.10296 15.65404,25.48374 12.76631,-1.70062 27.36326,-3.64511 38.819,-5.17115 2.55126,-12.13999 6.9062,-32.86265 8.64522,-41.13765 -3.3175,-2.70143 -12.34596,-10.05328 -16.49233,-13.42966 -4.58521,0.9262 -14.8491,2.99949 -18.23784,3.68401 -2.2122,0.66227 -6.864,2.05489 -11.90583,3.56427 3.43614,-1.78576 7.95187,-4.13258 8.11415,-4.21692 0.47694,-0.14197 19.8733,-5.91568 23.84667,-7.09843 0.13571,-3.26913 0.78567,-18.92589 0.81449,-19.62012 -1.28499,0.54122 -31.07359,13.08779 -36.31576,15.29572 z"
       sodipodi:nodetypes="ccccccccccccccccc" />
  </g>
</svg>
