<?xml version="1.0" encoding="UTF-8"?>
<!-- Created with Inkscape (http://www.inkscape.org/) -->
<svg width="1200" height="980" version="1.1" viewBox="0 0 317.5 259.29" xmlns="http://www.w3.org/2000/svg">
 <g stroke="#050a00" stroke-width=".26458">
  <circle cx="349.6" cy="88.869" r="0"/>
  <circle cx="349.6" cy="88.869" r="0"/>
  <circle cx="328.35" cy="134.83" r="0"/>
  <circle cx="328.35" cy="134.83" r="0"/>
 </g>
 <g fill="none" stroke="#000">
  <path d="m204.96 258.03-122.13-65.8-21.693 3.6062 48.029 45.965 79.999 17.984" stroke-width="2.6458"/>
  <path d="m109.17 241.8-45.381-37.754-1.4199 12.118 36.166 38.532 80.678 2.916-0.68989 0.0979" stroke-width="2.6458"/>
  <path d="m168.07 230.13 3.7989-8.3494 38.21 5.6147 11.652 22.723-16.775 7.9127" stroke-width="1.9188"/>
  <path d="m180.17 222.48 4.913-5.7217 28.937 7.3146 12.959 19.948-6.2162 3.4577 0.97247 2.6403" stroke-width="1.9188"/>
  <path d="m20.599 259.33c-3.1133-2.5929-28.185-25.754-28.185-25.754l40.942-68.777-12.877 1.3964-54.216 60.351 40.071-54.179-8.9768-0.1376-173.51 87.97 193.58-2.9013" stroke-width="2.6458"/>
  <path d="m8.3298 205.08 18.386-1.029 21.106 37.141-30.395 16.103" stroke-width="2.6458"/>
 </g>
 <path d="m309.28 259.99c-3.7734-1.0583-81.413-27.396-81.413-27.396l-10.09 10.166-1.2252 6.3417-20.422 2.3792s-32.291-25.065-33.149-24.585-66.174 5.0788-66.174 5.0788l8.5106 7.0647-19.764 9.3302-24.362 11.195-16.604-16.262-49.121-5.8524-29.204-10.902s-9.6718-15.155-10.656-14.931c-0.98444 0.22427-83.131 16.984-83.131 16.984l-239.72 47.353z"/>
 <path d="m152.88 229.92c-1.2847-1.2506-44.764-25.099-44.764-25.099l-24.452-23.763 8.9865 0.26148 58.597 30.899 36.846-1.7389 20.196 12.186" fill="none" stroke="#000" stroke-width="2.6458"/>
 <path d="m75.204 230.62-20.891 10.389-3.175 14.611" fill="none" stroke="#000" stroke-width="2.6458"/>
</svg>
