<?xml version="1.0" encoding="UTF-8"?>
<!-- Created with Inkscape (http://www.inkscape.org/) -->
<svg width="1200" height="980" version="1.1" viewBox="0 0 317.5 259.29" xmlns="http://www.w3.org/2000/svg">
 <path d="m84.648 204.79 0.04201-1.6119 65.328 35.861-3.9842 0.28156z" fill="#679138"/>
 <g>
  <path d="m84.555 201.64-24.746 4.1152 50.205 48.047 80.357 18.064 0.58008-2.582-79.641-17.902-46.581-43.607 19.959-4.6029 121.13 66.812 1.2559-2.3281z" color="#000000" style="-inkscape-stroke:none"/>
  <path d="m64.253 212.26-1.7754 15.152 36.959 39.379 80.752 2.918 0.0137 0.10156 0.68945-0.0977-0.13867-2.6309-80.133-2.8965-36.254-36.861 2.1874-9.4827 43.264 35.767 1.6914-2.0352z" color="#000000" style="-inkscape-stroke:none"/>
  <path d="m172.79 231.52-4.0976 9.0078 1.4239 1.2379 3.8222-8.1363 36.371 6.6265 14.486 4.7988-4.4995-4.8896-8.6653-2.5226z" color="#000000" style="-inkscape-stroke:none"/>
  <path d="m186.23 226.47-5.5636 6.4433 2.0584 0.6014 4.309-5.05 26.675 7.6553 13.745 17.417-6.3872 4.2907 1.2559 3.4121 1.8008-0.66407-0.68945-1.8691 6.3965-3.5586-13.723-21.125z" color="#000000" style="-inkscape-stroke:none"/>
  <path d="m37.344 173.99-16.016 1.7363-39.809 45.324 28.905-39.173-11.879-0.18164-173.8 88.117 0.61914 2.502 193.58-2.9004-0.0059-0.37109c0.4768 0.42118 2.0535 1.8816 2.3105 2.0957l1.6934-2.0332c-1.4101-1.1744-8.5557-7.6939-15.211-13.807-6.2499-5.7405-11.438-10.535-12.135-11.178zm-6.0401 4.3716-39.079 66.251 0.78711 0.72656s6.269 5.7922 12.928 11.908c4.5809 4.2075 7.479 6.8074 10.531 9.5566l-185.43 2.7793 166.03-84.231 8.1675-0.90986-38.539 52.109 2.0469 1.6699 53.879-59.975z" color="#000000" style="-inkscape-stroke:none"/>
  <path d="m28.958 213.48-17.999 1.2065-0.62774 1.5525 17.668-0.69577 18.445 34.536-28.138 16.842 1.2383 2.3379 31.598-16.74z" color="#000000" style="-inkscape-stroke:none"/>
 </g>
 <g>
  <path d="m310.78 270.78c-3.7734-1.0583-92.499-32.951-92.499-32.951l-4.6535 4.0576-15.385 6.9598-4.4338 9.0258-29.328-20.186-66.174 5.0788 8.5106 7.0647-19.764 9.3302-24.362 11.195-16.604-16.262-49.121-5.8524-29.204-10.902s-9.6718-15.155-10.656-14.931c-0.98444 0.22427-83.131 16.984-83.131 16.984l-239.72 47.353z"/>
  <path d="m134.74 240.24c0-0.78961-0.26303-10.354-0.26303-10.354s2.1229-0.93017 2.9631-0.41341c0.84026 0.51677 23.817 8.5085 23.817 8.5085z"/>
 </g>
 <path d="m81.803 190.43 26.155 25.549 0.92173 0.47251s10.969 6.2842 21.996 12.401c5.5134 3.0582 11.066 6.1546 15.316 8.5625 2.1251 1.2039 3.9264 2.237 5.2266 3.002 0.6501 0.38248 1.1759 0.69764 1.5469 0.92969 0.37094 0.23206 0.70552 0.52022 0.49414 0.31445l1.8438-1.8945c-0.37196-0.36208-0.52844-0.40742-0.93555-0.66211-0.4071-0.25468-0.94568-0.57942-1.6074-0.96875-1.3235-0.77864-3.1319-1.8157-5.2637-3.0234-4.2636-2.4155-9.8209-5.514-15.338-8.5742-10.952-6.0751-16.622-9.0847-16.782-9.1721l-28.05-24.481 7.9618 0.10454 57.161 31.361 36.805-1.7363 19.852 11.979 1.3515-0.99656-20.523-13.664-36.889 1.7422-58.549-30.875z" color="#000000" style="-inkscape-stroke:none"/>
 <path d="m76.112 240.23-21.461 10.672-3.3086 15.23 3.5332 1.14 1.5671-15.028 20.175-10.739z" color="#000000" style="-inkscape-stroke:none"/>
 <g>
  <path d="m104.34 212.28-22.54-21.848 1.0543 4.6614 16.499 14.576z" fill="#9ece6a"/>
  <path d="m87.327 192.88 7.9618 0.10454 0.09541 2.1548-5.8273-0.29963z" fill="#9ece6a"/>
  <path d="m95.289 192.99 0.09541 2.1548 57.139 31.983-0.073-2.7773z" fill="#679138"/>
  <path d="m152.45 224.35 36.805-1.7363-0.078 1.0962-36.654 3.4174z" fill="#9ece6a"/>
  <path d="m189.18 223.71 0.078-1.0962 13.211 7.9707-4.1287-1.0313z" fill="#679138"/>
  <path d="m170.24 241.54 3.7046-7.9083 0.0681 2.8506-2.8602 5.6838z" fill="#9ece6a"/>
  <path d="m173.94 233.63 0.0681 2.8506 35.817 5.4851 0.48528-1.7091z" fill="#679138"/>
  <path d="m209.83 241.96 0.48528-1.7091 4.3418 1.372-2.8874 1.1447z" fill="#557333"/>
  <path d="m183.11 233.04 3.9256-4.5767-0.0899 1.8923-2.7391 2.851z" fill="#9ece6a"/>
  <path d="m187.04 228.47-0.0899 1.8923 26.682 7.274 0.0821-1.511z" fill="#679138"/>
  <path d="m213.63 237.63 0.0821-1.511 2.2345 2.7987-1.3019-0.39007z" fill="#557333"/>
  <path d="m59.809 205.76 2.1895 7.5288 1.9224 2.1787 0.33146-3.2035 18.073 15.017z" fill="#9ece6a"/>
  <path d="m64.731 207.78 19.959-4.6029-0.04201 1.6119-17.964 4.9099z" fill="#9ece6a"/>
 </g>
</svg>
