<?xml version="1.0" encoding="UTF-8"?>
<!-- Created with Inkscape (http://www.inkscape.org/) -->
<svg width="1200" height="980" version="1.1" viewBox="0 0 317.5 259.29" xmlns="http://www.w3.org/2000/svg">
 <g stroke="#050a00" stroke-width=".26458">
  <circle cx="349.6" cy="88.869" r="0"/>
  <circle cx="349.6" cy="88.869" r="0"/>
  <circle cx="328.35" cy="134.83" r="0"/>
  <circle cx="328.35" cy="134.83" r="0"/>
 </g>
 <g fill="none" stroke="#000">
  <path d="m25.715 261.14c2.1139 0 1.288 0.27356 2.5832-0.37404" stroke-width=".26458px"/>
  <g>
   <path d="m19.813 263.55 149.93-21.2 42.476-51.375 11.075 14.052-13.675 37.095 76.578-9.7374-13.344-43.318 3.1174-12.897 28.17 60.313 14.237-128.7" stroke-width="3.9688"/>
   <path d="m169.74 242.35 45.551-67.05-17.54-4.5779-65.825 68.281-37.977 9.1227-9.4119 7.2413" stroke-width="3.9688"/>
   <g stroke-width="2.6458">
    <path d="m217.3 223.07 12.807 4.9901 7.5657 10.351"/>
    <path d="m224.44 226.42 10.19-4.9632 30.651 13.175"/>
    <path d="m279.63 211.86c-1.058 1.9206-6.6803 10.227-6.6803 10.227l-2.3773 12.683"/>
    <path d="m292.42 212.9 9.3686 0.3771 3.5829 6.5739"/>
    <path d="m110.77 244.93 5.2246-14.945 27.435-8.6443 2.8659 3.2079"/>
    <path d="m103.62 245.39 4.2142-10.691 7.3937-1.6313"/>
   </g>
  </g>
 </g>
</svg>
