<?xml version="1.0" encoding="UTF-8"?>
<!-- Created with Inkscape (http://www.inkscape.org/) -->
<svg width="1200" height="980" version="1.1" viewBox="0 0 317.5 259.29" xmlns="http://www.w3.org/2000/svg">
 <path d="m82.777 196.81 0.04201-1.6119 65.328 35.861-3.9842 0.28156z" fill="#679138"/>
 <g>
  <path d="m82.684 193.66-24.746 4.1152 50.205 48.047 80.357 18.064 0.58008-2.582-79.641-17.902-46.581-43.607 19.959-4.6029 121.13 66.812 1.2559-2.3281z" color="#000000" style="-inkscape-stroke:none"/>
  <path d="m63.402 202.94-2.7953 16.491 36.959 39.379 80.752 2.918 0.0137 0.10156 0.68945-0.0977-0.13867-2.6309-80.133-2.8965-36.254-36.861 2.1846-11.659 43.266 37.944 1.6914-2.0352z" color="#000000" style="-inkscape-stroke:none"/>
  <path d="m170.92 223.54-4.0976 9.0078 1.4239 1.2379 3.8222-8.1363 36.371 6.6265 14.486 4.7988-4.4995-4.8896-8.6653-2.5226z" color="#000000" style="-inkscape-stroke:none"/>
  <path d="m184.36 218.49-5.5636 6.4433 2.0584 0.6014 4.309-5.05 26.675 7.6553 13.745 17.417-6.3872 4.2907 1.2559 3.4121 1.8008-0.66407-0.68945-1.8691 6.3965-3.5586-13.723-21.125z" color="#000000" style="-inkscape-stroke:none"/>
  <path d="m35.473 166.01-16.016 1.7363-39.809 45.324 28.905-39.173-11.879-0.18164-173.8 88.117 0.61914 2.502 193.58-2.9004-0.0059-0.37109c0.4768 0.42118 2.0535 1.8816 2.3105 2.0957l1.6934-2.0332c-1.4101-1.1744-8.5557-7.6939-15.211-13.807-6.2499-5.7405-11.438-10.535-12.135-11.178zm-6.0401 4.3716-39.079 66.251 0.78711 0.72656s6.269 5.7922 12.928 11.908c4.5809 4.2075 7.479 6.8074 10.531 9.5566l-185.43 2.7793 167.14-85.105 7.0527-0.0362-38.539 52.109 2.0469 1.6699 53.879-59.975z" color="#000000" style="-inkscape-stroke:none"/>
  <path d="m27.087 205.5-17.999 1.2065-0.62774 1.5525 17.668-0.69577 18.445 34.536-28.138 16.842 1.2383 2.3379 31.598-16.74z" color="#000000" style="-inkscape-stroke:none"/>
 </g>
 <g>
  <path d="m308.91 262.8c-3.7734-1.0583-92.499-32.951-92.499-32.951l-4.6535 4.0576-15.385 6.9598-4.4338 9.0258-29.328-20.186-66.174 5.0788 8.5106 7.0647-19.764 9.3302-24.362 11.195-16.604-16.262-49.121-5.8524-29.204-10.902s-9.6718-15.155-10.656-14.931c-0.98444 0.22427-83.131 16.984-83.131 16.984l-239.72 47.353z"/>
  <path d="m132.87 232.26c0-0.78961-0.26303-10.354-0.26303-10.354l1.3093-0.56359 25.47 8.6587z"/>
  <path d="m60.606 219.43 0.9847 3.7105 9.3217 10.839 2.2749-1.1724z" fill="#9ece6a"/>
  <path d="m62.495 219.35 2.1846-11.659 0.18885 3.1177-1.2356 9.8154z" fill="#9ece6a"/>
  <path d="m64.869 210.8-0.18885-3.1177 39.283 34.624-1.1243 0.55476z" fill="#679138"/>
  <path d="m54.572 244.27 0.75484 4.1206-0.1956 8.6305-1.6208-1.8673z" fill="#9ece6a"/>
  <path d="m54.572 244.27 19.592-10.447-0.10361 1.7638-18.733 12.803z" fill="#679138"/>
  <path d="m74.06 235.58 0.10361-1.7638 14.721 15.663-2.1186 0.97175z" fill="#557333"/>
 </g>
 <path d="m74.241 232.25-21.461 10.672-3.3086 15.23 3.5332 1.14 1.5671-15.028 20.175-10.739z" color="#000000" style="-inkscape-stroke:none"/>
 <g>
  <path d="m168.36 233.55 3.7046-7.9083 0.0681 2.8506-2.8602 5.6838z" fill="#9ece6a"/>
  <path d="m172.07 225.65 0.0681 2.8506 35.817 5.4851 0.48528-1.7091z" fill="#679138"/>
  <path d="m207.95 233.98 0.48528-1.7091 4.3418 1.372-2.8874 1.1447z" fill="#557333"/>
  <path d="m181.24 225.06 3.9256-4.5767-0.0899 1.8923-2.7391 2.851z" fill="#9ece6a"/>
  <path d="m185.17 220.49-0.0899 1.8923 26.682 7.274 0.0821-1.511z" fill="#679138"/>
  <path d="m211.76 229.65 0.0821-1.511 2.2345 2.7987-1.3019-0.39007z" fill="#557333"/>
  <path d="m57.938 197.78 1.8028 4.9778 3.1253 3.3876 0.53516-3.2z" fill="#9ece6a"/>
  <path d="m62.86 199.8 19.959-4.6029-0.04201 1.6119-17.983 4.804z" fill="#9ece6a"/>
  <path d="m35.473 166.01-24.198 40.594 1.8576-0.15949s21.242-33.389 21.242-33.891 1.0989-6.5433 1.0989-6.5433z" fill="#679138"/>
  <path d="m-32.796 229.84 53.547-59.576 0.074 2.2742-51.086 58.302z" fill="#679138"/>
  <path d="m20.825 172.54-0.074-2.2742 8.6825 0.11383-1.2578 2.1067z" fill="#9ece6a"/>
  <path d="m10.37 208.18-0.04034 2.2909 15.534-0.0406 0.26409-2.8647z" fill="#9ece6a"/>
  <path d="m25.863 210.43 0.26409-2.8646 18.445 34.536-2.8 1.7541z" fill="#557333"/>
  <path d="m-6.2746 236.14 16.644-27.963-0.04034 2.2909-15.82 26.395z" fill="#679138"/>
  <path d="m8.5536 173.9-28.905 39.173 9.1887-10.463 18.778-24.834z" fill="#557333"/>
  <path d="m-101.22 226.05c0.78197-0.1659 97.53-49.548 97.53-49.548l-0.051849 1.8488-87.094 45.517z" fill="#679138"/>
  <path d="m-3.6886 176.5 7.0527-0.0362-1.3412 1.8136-5.7633 0.0714z" fill="#9ece6a"/>
 </g>
</svg>
