<?xml version="1.0" encoding="UTF-8" standalone="no"?><!-- Generator: Gravit.io --><svg xmlns="http://www.w3.org/2000/svg" xmlns:xlink="http://www.w3.org/1999/xlink" style="isolation:isolate" viewBox="0 0 254 148.016" width="254pt" height="148.016pt"><defs><clipPath id="_clipPath_OWHi9DBgSaZhOOeexuMhalCaWLq2mDaW"><rect width="254" height="148.016"/></clipPath></defs><g clip-path="url(#_clipPath_OWHi9DBgSaZhOOeexuMhalCaWLq2mDaW)"><g style="isolation:isolate"/><g style="isolation:isolate"><path d=" M 55.547 142.641 L 58.625 144.375 L 65.625 141.797 L 81.703 110.016 L 81.938 108.094 L 55.547 142.641 Z " fill="rgb(0,0,0)"/><path d=" M 67.078 138.984 L 68.438 141 L 77.484 137.859 L 78.292 135.583 L 87.984 108.281 L 87.891 106.078 L 67.078 138.984 Z " fill="rgb(0,0,0)"/><path d=" M 78.188 135.703 L 78.938 137.625 L 87.844 134.484 L 93 106.266 L 93.047 104.578 L 78.188 135.703 Z " fill="rgb(0,0,0)"/></g><g style="isolation:isolate"><path d=" M 205.523 106.523 L 206.93 107.648 L 209.391 107.297 L 215.25 111.25 Q 217.195 106.242 217.055 106.102 Q 216.707 105.754 208.477 104.906 L 205.523 106.523 Z " fill="rgb(0,0,0)"/><path d=" M 214.969 58.406 L 214.688 59.438 L 221.813 101.531 L 223.969 95.531 L 223.781 94.5 L 214.969 58.406 Z " fill="rgb(0,0,0)"/><path d=" M 64.48 90.08 C 65.891 89.295 67.275 88.486 68.634 87.65 L 68.634 87.65 Q 72.239 91.547 80.346 99.945 Q 78.955 102.079 77.531 104.272 L 64.48 90.08 Z " fill="rgb(0,0,0)"/><path d=" M 82 108.016 L 65.5 139.555 L 55.5 142.555 L 79 109.016 L 82 108.016 Z " fill="rgb(158,206,106)"/><path d=" M 169.938 8.969 L 169.656 12.813 L 154.313 66.375 L 154.582 68.836 L 154.125 70.594 Q 150.945 67.148 151.016 66.727 Q 151.086 66.305 169.938 8.969 Z " fill="rgb(0,0,0)"/><path d=" M 117 94.516 L 66 45.016 L 62 46.516 L 101 100.516 L 95 104.516 L 91 127.016 L 124 117.516 L 117 94.516 Z " fill="rgb(158,206,106)"/><path d=" M 141 114.516 L 177 93.516 L 177 87.516 L 172 89.516 L 173 83.516 L 194 52.516 Q 199.083 55.683 199 56.516 Q 198.973 56.79 217 105.978 L 215 109.516 L 209 105.67 L 138 121.516 L 141 114.516 Z " fill="rgb(158,206,106)"/><path d=" M 181 24.016 L 145 92.016 L 194 144.016 L 192 148.016 L 254 148.016 L 197 99.016 L 194 102.016 L 194 106.17 L 161 90.016 L 181 31.016 L 181 24.016 Z " fill="rgb(0,0,0)"/><path d=" M 225.938 58.375 L 225.75 95.125 L 227.688 92.875 Q 227.938 92.438 227.875 91.938 Q 227.813 91.438 225.938 58.375 Z " fill="rgb(0,0,0)"/><path d=" M 153.871 117.92 L 138.023 121.5 L 138.832 122.414 L 167.219 115.5 L 166.625 115.031 L 153.871 117.92 Z " fill="rgb(0,0,0)"/><path d=" M 142 98.497 Q 141.75 98.369 131 74 L 152.768 29.255 L 167 0 L 170 9 L 153 67 L 158 74 Q 142.375 102.622 142 98.497 Z " fill="rgb(158,206,106)"/><path d=" M 165 48.016 L 141 94.016 L 113 21.016 L 68 20.016 L 75 45.016 L 89 45.016 L 89 65.016 L 115 48.016 L 100.856 73.016 L 119 125.016 L 134 122.016 L 170 53.016 L 165 48.016 Z " fill="rgb(0,0,0)"/><path d=" M 91.031 126.984 L 92.25 129 L 128.375 117.5 L 128.672 116.297 L 91.031 126.984 Z " fill="rgb(15,0,0)"/><path d=" M 116.125 97.063 Q 116.375 97.5 116.813 98.313 L 119.063 98.938 L 137.625 85.219 Q 137.437 84.469 137.5 84.438 C 138.384 83.996 115.875 96.625 116.125 97.063 Z " fill="rgb(64,64,64)"/><path d=" M 93 104.516 L 87.563 132.75 L 78.141 135.703 L 89 105.67 L 93 104.516 Z " fill="rgb(158,206,106)"/><path d=" M 88 105.978 L 77 136.016 L 67 139.016 L 84 107.016 L 88 105.978 Z " fill="rgb(158,206,106)"/><path d=" M 203.25 58.25 L 203.125 59.688 Q 213.258 89.567 218.746 105.752 Q 218.836 106.015 219 106.5 L 220.875 101.625 L 220.875 100.25 L 203.25 58.25 Z " fill="rgb(0,0,0)"/><path d=" M 203 58.016 L 219 104.17 L 221 100.516 L 212 58.016 L 203 58.016 Z " fill="rgb(158,206,106)"/><path d=" M 215 58.363 L 222 99.016 L 224 95.016 L 224 58.363 L 215 58.363 Z " fill="rgb(158,206,106)"/><path d=" M 226 58.363 L 226 94.016 L 228 92.016 L 235 58.363 L 226 58.363 Z " fill="rgb(158,206,106)"/><path d=" M 173.531 95.484 Q 162.844 101.766 162.75 101.766 Q 190.125 104.204 190 104.17 L 173.531 95.484 Z " fill="rgb(158,206,106)"/><path d=" M 133.312 66.313 L 116.172 97.001 L 118.984 97.845 L 136.593 85.21 L 150.562 75.188 L 133.312 66.313 Z " fill="rgb(158,206,106)"/><path d=" M 62.086 46.477 L 62.25 47.344 L 101.25 101.109 L 102.187 100.5 L 62.086 46.477 Z " fill="rgb(0,0,0)"/><path d=" M 91.031 126.984 L 128.75 116.313 L 127.844 113.751 L 112.359 110.156 L 91.031 126.984 Z " fill="rgb(158,206,106)"/><path d=" M 60.508 92.185 C 46.756 99.136 30.446 103.989 10 108.016 L 6 104.17 L 0 106.478 L 0 148.016 L 67 131.863 L 62 128.401 Q 68.787 117.77 74.971 108.22 L 60.508 92.185 Z " fill="rgb(0,0,0)"/><path d=" M 70.448 86.508 C 74.219 84.08 77.795 81.435 81.219 78.537 Q 94.29 67.476 103 43.016 L 117 46.016 Q 103.562 64.406 81.619 97.995 L 70.448 86.508 L 70.448 86.508 Z " fill="rgb(0,0,0)"/><circle vector-effect="non-scaling-stroke" cx="42.8503289473684" cy="89.14967105263156" r="12.600328947368418" fill="rgb(0,0,0)"/><circle vector-effect="non-scaling-stroke" cx="170.875" cy="72.125" r="7.375" fill="rgb(0,0,0)"/><circle vector-effect="non-scaling-stroke" cx="48.46546052631577" cy="70.85690789473685" r="3.942434210526315" fill="rgb(0,0,0)"/><circle vector-effect="non-scaling-stroke" cx="176.891447368421" cy="62.80592105263156" r="3.1809210526315894" fill="rgb(0,0,0)"/><circle vector-effect="non-scaling-stroke" cx="54.18585526315789" cy="66.83717105263158" r="2.0871710526315823" fill="rgb(0,0,0)"/><path d=" M 152.156 33.844 L 167.016 0.281 C 167.016 -0.469 166.547 2.297 156.625 2.313 Q 148.063 1.625 141.625 10.5 Q 135.125 20.75 138.875 38.375 Q 141.25 48.125 136.75 49.75 L 136.25 47.25 L 132.75 47 L 121.008 62.332 L 124 64.375 L 141 62.375 L 141 58.875 L 138.875 56.875 Q 147 52.125 143 38.375 Q 140.062 24.937 145.375 17.313 Q 150.313 10.875 154.063 13.75 Q 154.774 14.285 155.245 15.02 C 157.717 18.88 155.227 25.945 147.867 39.305" fill="rgb(158,206,106)"/><path d=" M 162.863 108.161 L 147.857 93.525 C 147.365 93.354 144.75 94.721 143.181 98.028 Q 140.774 103.493 145.131 109.746 Q 150.377 116.354 162.806 117.916 Q 169.749 118.583 169.789 121.909 L 168.033 121.666 L 167.07 123.907 L 174.482 135.133 L 176.48 133.619 L 179.049 122.001 L 176.751 121.202 L 174.952 122.14 Q 173.689 115.721 163.747 115.208 Q 154.254 114.068 150.461 108.839 Q 147.361 104.128 150.105 102.322 Q 150.619 101.977 151.209 101.836 C 154.308 101.094 158.151 104.35 165.242 112.232" fill="rgb(0,0,0)"/><path d=" M 34.631 103.337 L 54.737 97.409 C 55.127 97.064 55.214 94.114 53.097 91.128 Q 49.508 86.355 41.923 87.097 Q 33.593 88.44 26.151 98.515 Q 22.173 104.245 19.253 102.653 L 20.323 101.24 L 18.84 99.304 L 5.423 100.278 L 5.766 102.76 L 14.643 110.684 L 16.464 109.071 L 16.525 107.043 Q 22.742 109.081 28.052 100.662 Q 33.69 92.939 40.107 92.188 Q 45.732 91.79 45.965 95.067 Q 46.014 95.683 45.849 96.267 C 44.98 99.333 40.26 101.092 29.917 103.421" fill="rgb(0,0,0)"/></g></g></svg>