<?xml version="1.0" encoding="UTF-8"?>
<!-- Generator: Gravit.io -->
<svg width="258.5pt" height="139.49pt" style="isolation:isolate" version="1.1" viewBox="0 0 258.5 139.49" xmlns="http://www.w3.org/2000/svg">
 <defs>
  <clipPath id="_clipPath_VL4lQNFTekCiBlrKs3lIcRmLPUe8LF3L">
   <rect width="257.7" height="131.15"/>
  </clipPath>
 </defs>
 <g transform="translate(.80192 .34883)" display="none">
  <rect x="-.80192" y="-.34883" width="258.5" height="140.24" fill="#a0a0b1" fill-rule="evenodd"/>
 </g>
 <g transform="translate(.80192 .34883)" clip-path="url(#_clipPath_VL4lQNFTekCiBlrKs3lIcRmLPUe8LF3L)">
  <clipPath id="_clipPath_2R05YMjZbD0UgsZZwA9G1NSyA91KCKEh">
   <rect width="257.7" height="131.15" fill="#fff"/>
  </clipPath>
  <g clip-path="url(#_clipPath_2R05YMjZbD0UgsZZwA9G1NSyA91KCKEh)">
   <g>
    <g>
     <g></g>
    </g>
   </g>
  </g>
 </g>
 <g transform="translate(.80192 .34883)">
  <path d="m146.46 93.889 31.541-18.509v-6l-5 2 1-6 21-31c3.3887 2.1113 5.0553 3.4447 5 4-0.018 0.18267 5.982 16.67 18 49.462l-2 3.538-6-3.846-66.747 14.739z" fill="#9ece6a" style="isolation:isolate"/>
  <path d="m143.26 102.27 0.52664 1.6163 66.345-15.275 5.75 2.625-5.625-3.75c-22.331 4.9333-66.997 14.784-66.997 14.784z" style="isolation:isolate"/>
  <path d="m169.82 75.638q-10.737 6.278-10.831 6.278 0.153 0.014 0.305 0.029c19.312 1.818 28.926 2.716 28.843 2.693z" fill="#8ab55d" style="isolation:isolate"/>
  <path d="m159.02 81.912 0.772 1.719 3.644 0.258 2.262-1.336z" style="isolation:isolate"/>
  <path d="m173 71.381 1.063 1.532 3.937-1.61 0.063-2.078z" fill="#080000" style="isolation:isolate"/>
 </g>
 <g transform="translate(.80192 .34883)">
  <path d="m204.25 40.114-0.125 1.438q15.505 46.697 15.669 47.182l2.081-5.245v-1.375z" style="isolation:isolate"/>
  <path d="m204 39.88 16 46.154 2-3.654-9-42.5z" fill="#9ece6a" style="isolation:isolate"/>
 </g>
 <g transform="translate(.80192 .34883)">
  <path d="m215.97 40.27-0.281 1.032 7.059 42.932 2.222-6.839-0.188-1.031z" style="isolation:isolate"/>
  <path d="m216 40.227 7 40.653 2-4v-36.653z" fill="#9ece6a" style="isolation:isolate"/>
 </g>
 <g transform="translate(.80192 .34883)">
  <path d="m226.94 40.239-0.675 37.949 2.425-3.449q0.25-0.437 0.187-0.937-0.062-0.5-1.937-33.563z" style="isolation:isolate"/>
  <path d="m227 40.227v35.653l2-2 7-33.653z" fill="#9ece6a" style="isolation:isolate"/>
 </g>
 <g transform="translate(.80192 .34883)">
  <path d="m91.09 59.565 29.85 19.224-12.939 29.028-17.204 6.255 5.207-27.692 6-4-15.779-22.76z" fill="#9ece6a" style="isolation:isolate"/>
  <path d="m90.796 114.07 0.46082 1.5478 17.425-6.5882-0.68235-1.2147z" fill="#0f0000" style="isolation:isolate"/>
  <path d="m86.224 59.62 15.83 22.83-0.62178 0.33767-14.88-22.056z" style="isolation:isolate"/>
  <path d="m108 107.82 12.939-29.028 0.0463 1.0381-12.303 29.205z" fill="#0f0000"/>
 </g>
 <g transform="translate(.80192 .34883)">
  <path d="m79.191 117.57 0.75 1.922 8.906-3.141 5.156-28.218 0.047-1.688z" style="isolation:isolate"/>
  <path d="m94.003 86.38-5.437 28.234-9.422 2.953 10.859-30.033z" fill="#9ece6a" style="isolation:isolate"/>
 </g>
 <g transform="translate(.80192 .34883)">
  <path d="m68.081 120.85 1.36 2.016 9.046-3.141 0.808-2.276 9.692-27.302-0.093-2.203z" style="isolation:isolate"/>
  <path d="m89.003 87.842-11 30.038-10 3 16.32-31.438z" fill="#9ece6a" style="isolation:isolate"/>
 </g>
 <g transform="translate(.80192 .34883)">
  <path d="m56.55 124.5 3.078 1.734 7.75-2.906 15.82-31.078-0.257-2.297z" style="isolation:isolate"/>
  <path d="m83.003 89.88-16.5 31.539-10 3 23.5-33.539z" fill="#9ece6a" style="isolation:isolate"/>
 </g>
 <g transform="translate(.80192 .34883)">
  <path d="m132.6 68.324 1.1992 0.71114-47.031 9.0446-23.41 30.87 7.568 4.9821-71.218 17.698 0.21-44.22 6.48-2.54 4.45 3.17 51.11-15.63 4.47 4.92 59.97-11.32 7.33-20.11 7.73-6.53-7.6593 29.665-1.1992-0.71114 7.7486-26.694-5.77 4.86-7.43 20.39-61.08 11.54-4.42-4.86-50.98 15.58-4.41-3.15-5.34 2.1-0.21 42.26 67.714-16.767-6.4841-4.423 24.26-31.99z" fill="#fff" style="isolation:isolate"/>
  <g>
   <path d="m-0.29 131.63 12.442 4.078 73.472-12.474-14.696-9.3023z" fill="#658a3f" style="isolation:isolate"/>
   <path d="m74.117 116.07 14.44-33.779-1.7874-4.2128-23.41 30.87z" fill="#3c5c1d" style="isolation:isolate"/>
   <path d="m88.557 82.293 44.897-11.478 0.34611-1.7794-47.031 9.0446z" fill="#658a3f" style="isolation:isolate"/>
   <path transform="translate(-.80192 -.34883)" d="m142.26 39.719 1.5687 2.3201-9.5741 29.125 0.34611-1.7794z" fill="#3c5c1d" style="isolation:isolate"/>
   <path d="m127.15 66.88 7.43-20.39 5.77-4.86-7.7486 26.694-46.401 8.8457-5.06 6.5903-6.8164 1.8889-5.4495-3.4318-6.4607 0.62897-3.7664-8.3286 3.003-0.95785 4.42 4.86 17.016-3.2217z" fill="#2a2c41"/>
   <path d="m58.647 74.518 3.7664 8.3286 6.4607-0.62896 5.4495 3.4318 6.8164-1.8889-1.2835 1.8379-5.4861 1.4849-5.4262-3.6836-6.5655 0.34834z"/>
  </g>
 </g>
 <g transform="translate(.80192 .34883)">
  <g fill="#fff">
   <path d="m147.52 80.156 47.487 45.724-2 4h62l-57-49-3 3v4.154l-33-16.154 20-59v-7l-16.315 30.62-0.438-1.25 17.75-33.4v11.19l-19.77 58.33 30.77 15.06v-2.96l3.95-3.95 59.75 51.36h-66.31l2.41-4.82-46.706-44.779z" style="isolation:isolate"/>
   <path d="m149.12 77.19-2.356-2.659 18.047-36.187-19.407 36.281 3.212 3.488z" style="isolation:isolate"/>
   <path d="m133.43 104.2 1.589-0.318 16.54-31.698-15.873 32.588-2.878 0.575z" style="isolation:isolate"/>
   <path d="m128.37 79.349 17.082-43.842 10.419-4.468-11.098 38.219-4.5956 9.7954 14.018-46.006-8.07 3.578z" style="isolation:isolate"/>
   <path d="m164.78 65.29-0.32-0.38 0.76-0.65 0.33 0.39 5.8 6.87 0.22 3.76 0.03 0.49-1 0.06-0.03-0.5-0.2-3.42z" style="isolation:isolate"/>
   <path d="m142 74.125 21.969-42.437 2.594 6.75-2.761-4.846-23.625 45.461z" style="isolation:isolate"/>
  </g>
  <g>
   <path transform="translate(-.80192 -.34883)" d="m183.8 13.389-0.31998 6.2804-14.197 48.81-3.2626-3.8708z" fill="#3c5c1d" style="isolation:isolate"/>
   <path transform="translate(-.80192 -.34883)" d="m258.5 131.23-5.2257 4.2582-59.062 4.0078-2.0222-8.266z" fill="#658a3f" style="isolation:isolate"/>
   <path transform="translate(-.80192 -.34883)" d="m148.66 82.385 45.94 44.024-1.9062 3.837-44.465-46.934z" fill="#3c5c1d" style="isolation:isolate"/>
   <path transform="translate(-.80192 -.34883)" d="m156.67 31.388-11.098 38.219 4.6096-9.5455 7.544-23.381z" fill="#3c5c1d" style="isolation:isolate"/>
   <path transform="translate(-.80192 -.34883)" d="m108.13 127.53 1.5704 3.8766 9.4697-1.573-1.147-3.7546z" fill="#658a3f" style="isolation:isolate"/>
   <path transform="translate(-.80192 -.34883)" d="m123.2 117.46 1.55 4.4326 4.5969-1.4601-0.57781-4.8405z" fill="#658a3f" style="isolation:isolate"/>
   <path transform="translate(-.80192 -.34883)" d="m128.77 115.59 4.9595-9.9229 0.72197 1.7933-5.1036 12.97z" fill="#3c5c1d" style="isolation:isolate"/>
   <path transform="translate(-.80192 -.34883)" d="m133.73 105.67 0.72197 1.7933 2.9754-0.38407-0.93992-1.9583z" fill="#658a3f" style="isolation:isolate"/>
   <path transform="translate(-.80192 -.34883)" d="m136.49 105.12 11.408-23.489 0.76557 0.75482-11.234 24.692z" fill="#3c5c1d" style="isolation:isolate"/>
   <path d="m146.12 36.625 8.07-3.578-14.018 46.006-6.5587 3.1245-22.37 43.172-1.7713 0.22853z" fill="#2a2c41"/>
   <path d="m111.25 125.35 1.3561-0.24557 22.004-41.706 4.9246-2.4479 0.6442-1.8964-6.5587 3.1245z"/>
   <path d="m166.56 38.438-0.875-1.938 16.315-30.62v7l-20 59 27.825 13.629-1.4078 0.29972-30.075-12.04-4.2648-6.3699-4.4944 1.3016 15.227-30.357-18.49 34.54-0.0066-5.718 17.486-33.574z" fill="#2a2c41"/>
   <path d="m148.28 71.521 1.3019-2.8205 4.4944-1.3016 4.2648 6.3699 30.075 12.04 1.4078-0.29972-1.5e-4 0.4774-1.4416 0.45802-30.67-11.723-4.4531-5.2575z"/>
   <path d="m146.32 67.166-0.46239 0.86779 0.0431 5.7418 0.42584-0.89159z"/>
   <path transform="translate(-.80192 -.34883)" d="m119.17 129.83 4.9773-9.5246-0.94335-2.851-0.0923 0.01 9.3389-19.182-14.428 27.793z" fill="#3c5c1d" style="isolation:isolate"/>
  </g>
  <g fill="#fff">
   <path d="m140.48 90.211-12.515 25.031-5.569 1.868 10.136-20.941-8.3166 19.003 3.328-1.125z" style="isolation:isolate"/>
   <path d="m132.54 96.169-6.0667 12.842-9.25 16.719-9.893 1.451 25.275-58.858 13.524-31.699-36.648 88.953 7.171-1.055z" style="isolation:isolate"/>
   <path d="m133.22 67.803-0.69922 0.15625-12.668 2.8262 0.91797 11.494 3.9941 3.3066 0.85356 0.66319zm-1.2344 1.043-6.6113 16.273-0.13086-0.10938-3.75-3.1055-0.83985-10.529z" color="#000000" style="-inkscape-stroke:none"/>
  </g>
  <g>
   <path d="m131.98 68.846c-0.27047 0-11.332 2.5293-11.332 2.5293l0.29558 3.9608 5.4347 2.3714 2.2768-0.6482z" fill="#2a2c41"/>
   <path d="m120.95 75.336 5.4347 2.3714 2.2768-0.6482-0.51727 1.2051-1.7879 0.81968-5.3046-2.5831z"/>
   <path d="m120.76 82.282 0.75208 3.7136 2.1282 3.1868 1.4168-3.363z" fill="#658a3f"/>
  </g>
 </g>
</svg>
