<?xml version="1.0" encoding="UTF-8" standalone="no"?><!-- Generator: Gravit.io --><svg xmlns="http://www.w3.org/2000/svg" xmlns:xlink="http://www.w3.org/1999/xlink" style="isolation:isolate" viewBox="0 0 254 148.016" width="254pt" height="148.016pt"><defs><clipPath id="_clipPath_jifdXEfEBLyApwwlV7hOVPZVzkN6oQ5i"><rect width="254" height="148.016"/></clipPath></defs><g clip-path="url(#_clipPath_jifdXEfEBLyApwwlV7hOVPZVzkN6oQ5i)"><g style="isolation:isolate"/><g style="isolation:isolate"/><g><path d=" M 141 114.516 L 177 93.516 L 177 87.516 L 172 89.516 L 173 83.516 L 194 52.516 Q 199.083 55.683 199 56.516 Q 198.973 56.79 217 105.978 L 215 109.516 L 209 105.67 L 138 121.516 L 141 114.516 Z " fill="rgb(158,206,106)"/><path d=" M 153.871 117.92 L 138.023 121.5 L 138.832 122.414 L 209.125 106.75 L 214.875 109.375 L 209.25 105.625 L 153.871 117.92 Z " fill="rgb(0,0,0)"/></g><g><defs><filter id="n9yKND3JjBDrvPwE6nODbNeQeUPg1Rpi" x="-200%" y="-200%" width="400%" height="400%" filterUnits="objectBoundingBox" color-interpolation-filters="sRGB"><feGaussianBlur xmlns="http://www.w3.org/2000/svg" in="SourceGraphic" stdDeviation="2.146804531419514"/><feOffset xmlns="http://www.w3.org/2000/svg" dx="0" dy="0" result="pf_100_offsetBlur"/><feFlood xmlns="http://www.w3.org/2000/svg" flood-color="#000000" flood-opacity="0.65"/><feComposite xmlns="http://www.w3.org/2000/svg" in2="pf_100_offsetBlur" operator="in" result="pf_100_dropShadow"/><feBlend xmlns="http://www.w3.org/2000/svg" in="SourceGraphic" in2="pf_100_dropShadow" mode="normal"/></filter></defs><g filter="url(#n9yKND3JjBDrvPwE6nODbNeQeUPg1Rpi)"><path d=" M 181 24.016 L 145 92.016 L 194 144.016 L 192 148.016 L 254 148.016 L 197 99.016 L 194 102.016 L 194 106.17 L 161 90.016 L 181 31.016 L 181 24.016 Z " fill="rgb(0,0,0)"/></g></g><g><path d=" M 55.547 142.641 L 58.625 144.375 L 66.375 141.469 L 82.195 110.391 L 81.938 108.094 L 55.547 142.641 Z " fill="rgb(0,0,0)"/><path d=" M 82 108.016 L 65.5 139.555 L 55.5 142.555 L 79 109.016 L 82 108.016 Z " fill="rgb(158,206,106)"/></g><g><path d=" M 78.188 135.703 L 78.938 137.625 L 87.844 134.484 L 93 106.266 L 93.047 104.578 L 78.188 135.703 Z " fill="rgb(0,0,0)"/><path d=" M 93 104.516 L 87.563 132.75 L 78.141 135.703 L 89 105.67 L 93 104.516 Z " fill="rgb(158,206,106)"/></g><g><path d=" M 67.078 138.984 L 68.438 141 L 77.484 137.859 L 78.292 135.583 L 87.984 108.281 L 87.891 106.078 L 67.078 138.984 Z " fill="rgb(0,0,0)"/><path d=" M 88 105.978 L 77 136.016 L 67 139.016 L 83.32 107.578 L 88 105.978 Z " fill="rgb(158,206,106)"/></g><g><path d=" M 203.25 58.25 L 203.125 59.688 Q 213.258 89.567 218.746 105.752 Q 218.836 106.015 219 106.5 L 220.875 101.625 L 220.875 100.25 L 203.25 58.25 Z " fill="rgb(0,0,0)"/><path d=" M 203 58.016 L 219 104.17 L 221 100.516 L 212 58.016 L 203 58.016 Z " fill="rgb(158,206,106)"/></g><g><path d=" M 214.969 58.406 L 214.688 59.438 L 221.813 101.531 L 223.969 95.531 L 223.781 94.5 L 214.969 58.406 Z " fill="rgb(0,0,0)"/><path d=" M 215 58.363 L 222 99.016 L 224 95.016 L 224 58.363 L 215 58.363 Z " fill="rgb(158,206,106)"/></g><g><path d=" M 225.938 58.375 L 225.75 95.125 L 227.688 92.875 Q 227.938 92.438 227.875 91.938 Q 227.813 91.438 225.938 58.375 Z " fill="rgb(0,0,0)"/><path d=" M 226 58.363 L 226 94.016 L 228 92.016 L 235 58.363 L 226 58.363 Z " fill="rgb(158,206,106)"/></g><g><path d=" M 117 94.516 L 66 45.016 L 62 46.516 L 101 100.516 L 95 104.516 L 91 127.016 L 124 117.516 L 117 94.516 Z " fill="rgb(158,206,106)"/><path d=" M 91.031 126.984 L 92.25 129 L 128.375 117.5 L 128.672 116.297 L 91.031 126.984 Z " fill="rgb(15,0,0)"/><path d=" M 62.086 46.477 L 62.25 47.344 L 101.25 101.109 L 102.188 100.5 L 62.086 46.477 Z " fill="rgb(0,0,0)"/></g><g><path d=" M 64.48 90.08 C 65.891 89.295 67.275 88.486 68.634 87.65 L 68.634 87.65 Q 72.239 91.547 80.346 99.945 Q 78.955 102.079 77.531 104.272 L 64.48 90.08 Z " fill="rgb(0,0,0)"/></g><g><defs><filter id="BxmDChCkl0r8Yu6nMvbbrNPkJL9fSJhL" x="-200%" y="-200%" width="400%" height="400%" filterUnits="objectBoundingBox" color-interpolation-filters="sRGB"><feGaussianBlur xmlns="http://www.w3.org/2000/svg" in="SourceGraphic" stdDeviation="2.146804531419514"/><feOffset xmlns="http://www.w3.org/2000/svg" dx="0" dy="0" result="pf_100_offsetBlur"/><feFlood xmlns="http://www.w3.org/2000/svg" flood-color="#000000" flood-opacity="0.65"/><feComposite xmlns="http://www.w3.org/2000/svg" in2="pf_100_offsetBlur" operator="in" result="pf_100_dropShadow"/><feBlend xmlns="http://www.w3.org/2000/svg" in="SourceGraphic" in2="pf_100_dropShadow" mode="normal"/></filter></defs><g filter="url(#BxmDChCkl0r8Yu6nMvbbrNPkJL9fSJhL)"><path d=" M 60.508 92.185 C 46.756 99.136 30.446 103.989 10 108.016 L 6 104.17 L 0 106.478 L 0 148.016 L 67 131.863 L 62 128.401 Q 68.787 117.77 74.971 108.22 L 60.508 92.185 Z " fill="rgb(0,0,0)"/></g></g><g><defs><filter id="tgxoidkms70SmiaSdj6DxPCu4AKgefBk" x="-200%" y="-200%" width="400%" height="400%" filterUnits="objectBoundingBox" color-interpolation-filters="sRGB"><feGaussianBlur xmlns="http://www.w3.org/2000/svg" in="SourceGraphic" stdDeviation="2.146804531419514"/><feOffset xmlns="http://www.w3.org/2000/svg" dx="0" dy="0" result="pf_100_offsetBlur"/><feFlood xmlns="http://www.w3.org/2000/svg" flood-color="#000000" flood-opacity="0.65"/><feComposite xmlns="http://www.w3.org/2000/svg" in2="pf_100_offsetBlur" operator="in" result="pf_100_dropShadow"/><feBlend xmlns="http://www.w3.org/2000/svg" in="SourceGraphic" in2="pf_100_dropShadow" mode="normal"/></filter></defs><g filter="url(#tgxoidkms70SmiaSdj6DxPCu4AKgefBk)"><path d=" M 165 48.016 L 141 94.016 L 113 21.016 L 68 20.016 L 75 45.016 L 89 45.016 L 89 65.016 Q 92.875 62.375 94.433 61.464 C 90.938 69.063 85.25 77 70.625 86.625 Q 76.5 93 81.625 97.75 L 115 48.016 L 100.856 73.016 L 119 125.016 L 134 122.016 L 170 53.016 L 165 48.016 Z " fill="rgb(0,0,0)"/></g></g><g><circle vector-effect="non-scaling-stroke" cx="42.8503289473684" cy="89.14967105263156" r="12.600328947368418" fill="rgb(0,0,0)"/><circle vector-effect="non-scaling-stroke" cx="170.875" cy="72.125" r="7.375" fill="rgb(0,0,0)"/><circle vector-effect="non-scaling-stroke" cx="48.46546052631577" cy="70.85690789473685" r="3.942434210526315" fill="rgb(0,0,0)"/><circle vector-effect="non-scaling-stroke" cx="176.891447368421" cy="62.80592105263156" r="3.1809210526315894" fill="rgb(0,0,0)"/><circle vector-effect="non-scaling-stroke" cx="54.18585526315789" cy="66.83717105263158" r="2.0871710526315823" fill="rgb(0,0,0)"/></g><g><path d=" M 163.828 110.297 L 147.857 93.525 C 147.365 93.354 144.75 94.721 143.181 98.028 Q 140.774 103.493 145.131 109.746 Q 150.377 116.354 162.806 117.916 Q 169.749 118.583 169.789 121.909 L 168.033 121.666 L 167.07 123.907 L 174.482 135.133 L 176.48 133.619 L 179.049 122.001 L 176.751 121.202 L 174.952 122.14 Q 173.689 115.721 163.747 115.208 Q 154.254 114.068 150.461 108.839 Q 147.361 104.128 150.105 102.322 Q 150.619 101.977 151.209 101.836 C 154.308 101.094 158.008 106.253 163.875 112.031 L 163.828 110.297 Z " fill="rgb(0,0,0)"/></g><g><path d=" M 158.013 61.568 L 141.665 94.131 C 141.002 94.615 136.44 93.755 132.562 89.498 Q 126.435 82.376 130.127 70.968 Q 134.992 58.618 152.981 50.569 Q 163.126 46.382 161.661 41.359 L 159.13 42.529 L 156.653 39.598 L 162.662 19.306 L 166.363 20.667 L 175.555 36.976 L 172.462 39.232 L 169.326 38.644 Q 170.367 48.884 155.64 54.214 Q 141.875 60.281 138.563 69.889 Q 136.058 78.401 141.015 79.861 Q 141.947 80.145 142.9 80.087 C 147.903 79.783 151.107 70.323 157.288 58.936 L 158.013 61.568 Z " fill="rgb(158,206,106)"/></g><g><path d=" M 37.36 102.428 L 59.277 94.946 C 59.639 94.571 59.492 91.624 57.146 88.814 Q 53.19 84.341 45.687 85.68 Q 37.49 87.677 30.868 98.31 Q 27.355 104.337 24.319 102.98 L 25.274 101.487 L 23.642 99.674 L 10.345 101.706 L 10.882 104.154 L 20.358 111.351 L 22.046 109.598 L 21.947 107.572 Q 28.305 109.112 32.933 100.299 Q 37.943 92.155 44.28 90.899 Q 49.856 90.057 50.347 93.305 Q 50.445 93.916 50.327 94.511 C 49.703 97.635 43.469 98.836 35.765 101.745 L 37.36 102.428 Z " fill="rgb(0,0,0)"/></g><g><path d=" M 171.141 94.922 Q 160.242 101.203 160.148 101.203 Q 189.266 103.675 189.141 103.641 L 171.141 94.922 Z " fill="rgb(158,206,106)"/><path d=" M 88.5 87.398 Q 88.43 86.836 86.813 81.07 L 93.773 77.133 L 94.688 78.328 Q 88.57 87.961 88.5 87.398 Z " fill="rgb(158,206,106)"/><path d=" M 115.195 115.43 L 128.602 113.367 L 127.852 110.086 L 109.852 100.43 L 115.195 115.43 Z " fill="rgb(158,206,106)"/></g></g></svg>