<?xml version="1.0" encoding="UTF-8" standalone="no"?><!-- Generator: Gravit.io --><svg xmlns="http://www.w3.org/2000/svg" xmlns:xlink="http://www.w3.org/1999/xlink" style="isolation:isolate" viewBox="0 0 254 148.016" width="254pt" height="148.016pt"><defs><clipPath id="_clipPath_JcM89wohfapTjrbVj35GZftawaME41Rs"><rect width="254" height="148.016"/></clipPath></defs><g clip-path="url(#_clipPath_JcM89wohfapTjrbVj35GZftawaME41Rs)"><clipPath id="_clipPath_D0SXKJZTPL0QRbMGrohKweAjJK9rDVQP"><rect x="0" y="0" width="254" height="148.016" transform="matrix(1,0,0,1,0,0)" fill="rgb(255,255,255)"/></clipPath><g clip-path="url(#_clipPath_D0SXKJZTPL0QRbMGrohKweAjJK9rDVQP)"><g><path d=" M 82 108.016 L 65.5 139.555 L 55.5 142.555 L 79 109.016 L 82 108.016 L 82 108.016 Z " fill="rgb(158,206,106)"/><path d=" M 117 94.516 L 66 45.016 L 62 46.516 L 101 100.516 L 95 104.516 L 91 127.016 L 124 117.516 L 117 94.516 L 117 94.516 Z " fill="rgb(158,206,106)"/><path d=" M 141 114.516 L 177 93.516 L 177 87.516 L 172 89.516 L 173 83.516 L 194 52.516 Q 199.083 55.683 199 56.516 Q 198.973 56.79 217 105.978 L 215 109.516 L 209 105.67 L 138 121.516 L 141 114.516 L 141 114.516 Z " fill="rgb(158,206,106)"/><path d=" M 181 24.016 L 145 92.016 L 194 144.016 L 192 148.016 L 254 148.016 L 197 99.016 L 194 102.016 L 194 106.17 L 161 90.016 L 181 31.016 L 181 24.016 L 181 24.016 Z " fill="rgb(0,0,0)"/><path d=" M 142 98.497 Q 141.75 98.369 131 74 L 152.768 29.255 L 167 0 L 170 9 L 153 67 L 158 74 Q 142.375 102.622 142 98.497 Z " fill="rgb(158,206,106)"/><path d=" M 165 48.016 L 141 94.016 L 113 21.016 L 68 20.016 L 75 45.016 L 89 45.016 L 89 65.016 L 115 48.016 L 100.856 73.016 L 119 125.016 L 134 122.016 L 170 53.016 L 165 48.016 L 165 48.016 Z " fill="rgb(0,0,0)"/><path d=" M 93 104.516 L 87 134.016 L 78 136.016 L 89 105.67 L 93 104.516 L 93 104.516 Z " fill="rgb(158,206,106)"/><path d=" M 88 105.978 L 77 136.016 L 67 139.016 L 84 107.016 L 88 105.978 L 88 105.978 Z " fill="rgb(158,206,106)"/><path d=" M 203 58.016 L 219 104.17 L 221 100.516 L 212 58.016 L 203 58.016 L 203 58.016 Z " fill="rgb(158,206,106)"/><path d=" M 215 58.363 L 222 99.016 L 224 95.016 L 224 58.363 L 215 58.363 L 215 58.363 Z " fill="rgb(158,206,106)"/><path d=" M 226 58.363 L 226 94.016 L 228 92.016 L 235 58.363 L 226 58.363 L 226 58.363 Z " fill="rgb(158,206,106)"/><path d=" M 173.531 95.484 Q 162.844 101.766 162.75 101.766 Q 190.125 104.204 190 104.17 L 173.531 95.484 Z " fill="rgb(158,206,106)"/><path d=" M 132.484 71.141 L 115.047 100.251 L 117.859 101.095 L 138.391 86.329 L 132.484 71.141 L 132.484 71.141 Z " fill="rgb(158,206,106)"/><path d=" M 115.031 120.047 L 128.406 116.001 L 127.844 113.751 L 112.359 110.156 L 115.031 120.047 Z " fill="rgb(158,206,106)"/><path d=" M 64.48 90.08 C 65.891 89.295 67.275 88.486 68.634 87.65 L 68.634 87.65 Q 72.239 91.547 80.346 99.945 Q 78.955 102.079 77.531 104.272 L 64.48 90.08 L 64.48 90.08 Z " fill="rgb(0,0,0)"/><path d=" M 60.508 92.185 C 46.756 99.136 30.446 103.989 10 108.016 L 6 104.17 L 0 106.478 L 0 148.016 L 67 131.863 L 62 128.401 Q 68.787 117.77 74.971 108.22 L 60.508 92.185 L 60.508 92.185 Z " fill="rgb(0,0,0)"/><path d=" M 70.448 86.508 C 74.219 84.08 77.795 81.435 81.219 78.537 Q 94.29 67.476 103 43.016 L 117 46.016 Q 103.562 64.406 81.619 97.995 L 70.448 86.508 L 70.448 86.508 L 70.448 86.508 Z " fill="rgb(0,0,0)"/></g></g></g></svg>