<?xml version="1.0" encoding="UTF-8" standalone="no"?>
<!-- Generator: Gravit.io -->

<svg
   style="isolation:isolate"
   viewBox="0 0 258.50191 139.49488"
   width="258.50192pt"
   height="139.49487pt"
   version="1.1"
   id="svg314"
   xmlns="http://www.w3.org/2000/svg"
   xmlns:svg="http://www.w3.org/2000/svg">
  <defs
     id="defs195">
    <clipPath
       id="_clipPath_VL4lQNFTekCiBlrKs3lIcRmLPUe8LF3L">
      <rect
         width="257.70001"
         height="131.14999"
         id="rect192"
         x="0"
         y="0" />
    </clipPath>
  </defs>
  <g
     id="layer1"
     style="display:none"
     transform="translate(0.80192417,0.34883055)">
    <rect
       style="fill:#a0a0b1;fill-opacity:1;fill-rule:evenodd;stroke:none;stroke-width:0.775327"
       id="rect421"
       width="258.50192"
       height="140.24139"
       x="-0.80192417"
       y="-0.34883055" />
  </g>
  <g
     clip-path="url(#_clipPath_VL4lQNFTekCiBlrKs3lIcRmLPUe8LF3L)"
     id="g312"
     transform="translate(0.80192417,0.34883055)">
    <clipPath
       id="_clipPath_2R05YMjZbD0UgsZZwA9G1NSyA91KCKEh">
      <rect
         x="0"
         y="0"
         width="257.70001"
         height="131.14999"
         fill="#ffffff"
         id="rect199" />
    </clipPath>
    <g
       clip-path="url(#_clipPath_2R05YMjZbD0UgsZZwA9G1NSyA91KCKEh)"
       id="g294">
      <g
         id="g292">
        <g
           id="g274">
          <g
             id="g272">
            <g
               id="g206" />
            <g
               id="g214" />
            <g
               id="g228" />
            <g
               id="g234" />
            <g
               id="g240" />
            <g
               id="g246" />
            <g
               id="g252" />
            <g
               id="g258" />
            <g
               id="g264" />
            <g
               id="g270" />
          </g>
        </g>
      </g>
    </g>
  </g>
  <g
     id="layer4"
     style="display:inline"
     transform="translate(0.80192417,0.34883055)">
    <path
       d="M 140.88667,96.578356 178.003,75.38 v -6 l -5,2 1,-6 21,-31 c 3.38867,2.111333 5.05533,3.444667 5,4 -0.018,0.182667 5.982,16.67 18,49.462 l -2,3.538 -6,-3.846 -73.11731,16.05717 z"
       fill="#9ece6a"
       id="path202"
       style="isolation:isolate" />
    <path
       d="m 154.874,99.784 -17.98831,3.80717 0.5384,1.43955 74.37493,-14.857943 5.92643,3.737428 L 216.003,91.38 l -5.75,-3.891 z"
       fill="#000000"
       id="path204"
       style="isolation:isolate" />
    <path
       d="m 169.825,75.638 q -10.737,6.278 -10.831,6.278 0.153,0.014 0.305,0.029 c 19.312,1.818 28.926,2.716 28.843,2.693 z"
       fill="#8ab55d"
       id="path266"
       style="isolation:isolate" />
    <path
       d="m 159.025,81.912 0.772,1.719 3.644,0.258 2.262,-1.336 z"
       fill="#000000"
       id="path288"
       style="isolation:isolate" />
    <path
       d="m 173,71.381 1.063,1.532 3.937,-1.61 0.063,-2.078 z"
       fill="#080000"
       id="path290"
       style="isolation:isolate" />
    <path
       style="fill:#000000;fill-opacity:1;stroke:none;stroke-width:0.75px;stroke-linecap:butt;stroke-linejoin:miter;stroke-opacity:1"
       d="m 216.003,91.380002 2,-3.538005 0.87121,2.423302 c 0,0 -1.14876,3.644903 -1.14876,3.644903 z"
       id="path145736" />
  </g>
  <g
     id="layer2"
     style="display:inline"
     transform="translate(0.80192417,0.34883055)">
    <path
       d="m 204.253,40.114 -0.125,1.438 q 15.505,46.697 15.669,47.182 l 2.081,-5.245 v -1.375 z"
       fill="#000000"
       id="path248"
       style="display:inline;isolation:isolate" />
    <path
       d="m 204.003,39.88 16,46.154 2,-3.654 -9,-42.5 z"
       fill="#9ece6a"
       id="path250"
       style="display:inline;isolation:isolate" />
  </g>
  <g
     id="layer3"
     style="display:inline"
     transform="translate(0.80192417,0.34883055)">
    <path
       d="m 215.972,40.27 -0.281,1.032 7.059,42.932 2.222,-6.839 -0.188,-1.031 z"
       fill="#000000"
       id="path254"
       style="display:inline;isolation:isolate" />
    <path
       d="m 216.003,40.227 7,40.653 2,-4 V 40.227 Z"
       fill="#9ece6a"
       id="path256"
       style="display:inline;isolation:isolate" />
  </g>
  <g
     id="layer5"
     style="display:inline"
     transform="translate(0.80192417,0.34883055)">
    <path
       d="m 226.941,40.239 -0.675,37.949 2.425,-3.449 q 0.25,-0.437 0.187,-0.937 -0.062,-0.5 -1.937,-33.563 z"
       fill="#000000"
       id="path260"
       style="display:inline;isolation:isolate" />
    <path
       d="M 227.003,40.227 V 75.88 l 2,-2 7,-33.653 z"
       fill="#9ece6a"
       id="path262"
       style="display:inline;isolation:isolate" />
  </g>
  <g
     id="layer6"
     style="display:inline"
     transform="translate(0.80192417,0.34883055)">
    <path
       d="m 129.516,94.014 -0.493,2.953 -5.01111,1.803617 L 123.75,95.561 Z"
       fill="#0f0000"
       id="path216"
       style="isolation:isolate" />
    <path
       d="m 113.708,72.211 4.295,4.169 7,23 -33,9.5 4,-22.5 6,-4 -4.996,-6.917 z"
       fill="#9ece6a"
       id="path218"
       style="isolation:isolate" />
    <path
       d="m 92.034,108.848 2.201975,4.65833 28.319025,-11.55333 2.478,-2.67 z"
       fill="#0f0000"
       id="path222"
       style="isolation:isolate" />
    <path
       d="m 97.007,75.463 5.047,6.987 -1.45702,0.771022 -5.289285,-6.749201 z"
       fill="#000000"
       id="path224"
       style="isolation:isolate" />
    <path
       d="m 116.667,97.294 12.919,-3.139 -0.262,-2.205 -18,-9.656 z"
       fill="#8ab55d"
       id="path268"
       style="isolation:isolate" />
  </g>
  <g
     id="layer13"
     style="display:inline"
     transform="translate(0.80192417,0.34883055)">
    <path
       d="M 108.16767,69.406302 86.819908,58.810759 80.34066,57.560515 l 14.22573,14.5593 z"
       fill="#9ece6a"
       id="path220"
       style="display:inline;isolation:isolate" />
    <path
       d="m 94.56639,72.119815 -14.13973,-14.5983 0.166743,2.33467 11.637187,12.7281 z"
       fill="#000000"
       id="path226"
       style="display:inline;isolation:isolate" />
    <path
       style="display:inline;isolation:isolate;fill:#000000;fill-opacity:1;stroke:none;stroke-width:0.75px;stroke-linecap:butt;stroke-linejoin:miter;stroke-opacity:1"
       d="m 94.564086,72.910945 16.136794,-3.124776 -0.0315,-0.654354 -16.103003,2.988 z"
       id="path697" />
  </g>
  <g
     id="layer10"
     style="display:inline"
     transform="translate(0.80192417,0.34883055)">
    <path
       d="m 79.191,117.567 0.75,3.37513 9.194208,-2.75026 L 94.003,88.13 94.05,86.442 Z"
       fill="#000000"
       id="path236"
       style="display:inline;isolation:isolate" />
    <path
       d="m 94.003,86.38 -5.437,28.234 -9.422,2.953 10.859,-30.033 z"
       fill="#9ece6a"
       id="path238"
       style="display:inline;isolation:isolate" />
  </g>
  <g
     id="layer11"
     style="display:inline"
     transform="translate(0.80192417,0.34883055)">
    <path
       d="m 68.081,120.848 1.36,2.016 9.046,-3.141 0.808,-2.276 9.692,-27.302 -0.093,-2.203 z"
       fill="#000000"
       id="path242"
       style="display:inline;isolation:isolate" />
    <path
       d="m 89.003,87.842 -11,30.038 -10,3 16.32,-31.438 z"
       fill="#9ece6a"
       id="path244"
       style="display:inline;isolation:isolate" />
  </g>
  <g
     id="layer12"
     style="display:inline"
     transform="translate(0.80192417,0.34883055)">
    <path
       d="m 56.55,124.505 3.078,1.734 7.75,-2.906 15.82,-31.078 -0.257,-2.297 z"
       fill="#000000"
       id="path230"
       style="display:inline;isolation:isolate" />
    <path
       d="m 83.003,89.88 -16.5,31.539 -10,3 23.5,-33.539 z"
       fill="#9ece6a"
       id="path232"
       style="display:inline;isolation:isolate" />
  </g>
  <g
     id="layer7"
     style="display:inline"
     transform="translate(0.80192417,0.34883055)">
    <path
       d="m 132.539,68.379 -0.492,1.09 -45.277,8.611 -23.41,30.87 7.567966,4.98207 L -0.29,131.63 -0.08,87.41 6.4,84.87 l 4.45,3.17 51.11,-15.63 4.47,4.92 59.97,-11.32 7.33,-20.11 7.73,-6.53 -0.519,9.005 -0.981,0.825 0.39,-7.57 -5.77,4.86 -7.43,20.39 L 66.07,78.42 61.65,73.56 10.67,89.14 6.26,85.99 0.92,88.09 0.71,130.35 68.424083,113.58302 61.94,109.16 86.2,77.17 Z"
       fill="#ffffff"
       id="path308"
       style="isolation:isolate" />
  </g>
  <g
     id="layer16"
     transform="translate(0.80192417,0.34883055)"
     style="display:inline">
    <path
       style="fill:#658a3f;fill-opacity:1;stroke:none;stroke-width:0.75px;stroke-linecap:butt;stroke-linejoin:miter;stroke-opacity:1"
       d="m -0.29,131.63 12.442143,4.078 73.471952,-12.47364 -14.696129,-9.30229 z"
       id="path24700" />
    <path
       style="fill:#3c5c1d;fill-opacity:1;stroke:none;stroke-width:0.75px;stroke-linecap:butt;stroke-linejoin:miter;stroke-opacity:0.971079"
       d="M 74.117472,116.07143 88.55736,82.292835 86.769998,78.080002 63.36,108.95 Z"
       id="path25252" />
    <path
       style="fill:#658a3f;fill-opacity:1;stroke:none;stroke-width:0.75px;stroke-linecap:butt;stroke-linejoin:miter;stroke-opacity:1"
       d="M 88.55736,82.292835 130.80547,72.299217 132.047,69.469 86.769998,78.080002 Z"
       id="path25254" />
  </g>
  <g
     id="layer19"
     style="display:inline">
    <path
       style="fill:#658a3f;fill-opacity:1;stroke:none;stroke-width:0.75px;stroke-linecap:butt;stroke-linejoin:miter;stroke-opacity:1"
       d="m 108.12793,127.53083 1.57037,3.87664 9.46967,-1.57305 -1.14705,-3.75459 z"
       id="path46914" />
    <path
       style="fill:#3c5c1d;fill-opacity:1;stroke:none;stroke-width:0.75px;stroke-linecap:butt;stroke-linejoin:miter;stroke-opacity:1"
       d="m 119.16797,129.83442 5.85295,-14.31359 -1.819,1.938 1.88905,-5.86117 -7.07005,14.48217 z"
       id="path51124" />
    <path
       style="fill:#658a3f;fill-opacity:1;stroke:none;stroke-width:0.75px;stroke-linecap:butt;stroke-linejoin:miter;stroke-opacity:1"
       d="m 123.20192,117.45883 0.97117,2.4555 5.02257,-1.66808 -0.42473,-2.65541 z"
       id="path54417" />
    <path
       style="fill:#3c5c1d;fill-opacity:1;stroke:none;stroke-width:0.75px;stroke-linecap:butt;stroke-linejoin:miter;stroke-opacity:1"
       d="m 128.77093,115.59084 4.95949,-9.92294 0.72197,1.79328 -5.25673,10.78507 z"
       id="path58189" />
    <path
       style="fill:#658a3f;fill-opacity:1;stroke:none;stroke-width:0.75px;stroke-linecap:butt;stroke-linejoin:miter;stroke-opacity:1"
       d="m 133.73042,105.6679 0.72197,1.79328 3.13947,-0.0171 c 0,0 -1.10394,-2.32526 -1.10394,-2.32526 z"
       id="path62263" />
    <path
       style="fill:#3c5c1d;fill-opacity:1;stroke:none;stroke-width:0.75px;stroke-linecap:butt;stroke-linejoin:miter;stroke-opacity:1"
       d="m 136.48793,105.11883 11.408,-23.489002 0.76557,0.754815 -11.06964,25.059437 z"
       id="path65322" />
  </g>
  <g
     id="layer20"
     style="display:inline">
    <path
       style="fill:#3c5c1d;fill-opacity:1;stroke:none;stroke-width:0.75px;stroke-linecap:butt;stroke-linejoin:miter;stroke-opacity:1"
       d="m 156.67292,31.387831 -11.098,38.219 4.60965,-9.545491 7.54395,-23.38092 z"
       id="path68384" />
    <path
       style="fill:#3c5c1d;fill-opacity:1;stroke:none;stroke-width:0.75px;stroke-linecap:butt;stroke-linejoin:miter;stroke-opacity:1"
       d="m 142.26193,39.718831 1.5687,2.320079 -1.95493,4.74765 z"
       id="path102660" />
  </g>
  <g
     id="layer21"
     style="display:inline">
    <path
       style="fill:#658a3f;fill-opacity:1;stroke:none;stroke-width:0.75px;stroke-linecap:butt;stroke-linejoin:miter;stroke-opacity:1"
       d="m 258.50192,131.22883 -5.22567,4.25823 -59.06214,4.00781 -2.02218,-8.26604 z"
       id="path68566" />
    <path
       style="fill:#3c5c1d;fill-opacity:1;stroke:none;stroke-width:0.75px;stroke-linecap:butt;stroke-linejoin:miter;stroke-opacity:1"
       d="m 148.6615,82.384643 45.94042,44.024187 -1.90625,3.83703 -44.81395,-46.324875 z"
       id="path72600" />
  </g>
  <g
     id="layer22"
     style="display:inline">
    <path
       style="fill:#3c5c1d;fill-opacity:1;stroke:none;stroke-width:0.75px;stroke-linecap:butt;stroke-linejoin:miter;stroke-opacity:1"
       d="m 183.80192,13.38883 -0.31998,6.28036 -14.27784,48.940429 -3.62218,-2.970788 z"
       id="path94622" />
  </g>
  <g
     id="layer8"
     style="display:inline"
     transform="translate(0.80192417,0.34883055)">
    <path
       d="m 147.516,80.156 47.487,45.724 -2,4 h 62 l -57,-49 -3,3 v 4.154 l -33,-16.154 20,-59 v -7 L 165.688,36.5 165.25,35.25 183,1.85 V 13.04 L 163.23,71.37 194,86.43 v -2.96 l 3.95,-3.95 20.873,17.942 38.877,33.418 h -66.31 l 2.41,-4.82 -46.706,-44.779 z"
       fill="#ffffff"
       id="path208"
       style="isolation:isolate" />
    <path
       d="m 149.122,77.19 -2.356,-2.659 18.047,-36.187 -19.407,36.281 3.212,3.488 z"
       fill="#ffffff"
       id="path210"
       style="isolation:isolate" />
    <path
       d="m 133.43,104.198 1.589,-0.318 16.54,-31.698 -15.873,32.588 -2.878,0.575 z"
       fill="#ffffff"
       id="path278"
       style="isolation:isolate" />
    <path
       d="m 118.1579,103.72728 1.0921,3.33572 -0.656,0.937 -1.42923,-3.86889 z"
       fill="#ffffff"
       id="path280"
       style="isolation:isolate" />
    <path
       d="m 140.484,90.211 -12.515,25.031 -5.569,1.868 5.58,-16.71 1.29673,-1.254078 -5.05773,16.026078 3.328,-1.125 z"
       fill="#ffffff"
       id="path296"
       style="isolation:isolate" />
    <path
       d="m 125.308,85.622 20.144,-50.115 10.419,-4.468 -11.098,38.219 -2.773,4.867 12.195,-41.078 -8.07,3.578 z"
       fill="#ffffff"
       id="path298"
       style="isolation:isolate" />
    <path
       d="m 126.352,105.68 -0.844,3.234 -8.289,16.817 -9.893,1.451 14.387,-26.315 7.56373,-1.721078 -0.60473,1.401078 -6.117,1.406 -13.078,23.625 7.171,-1.055 z"
       fill="#ffffff"
       id="path300"
       style="isolation:isolate" />
    <path
       d="m 164.78,65.29 -0.32,-0.38 0.76,-0.65 0.33,0.39 5.8,6.87 0.22,3.76 0.03,0.49 -1,0.06 -0.03,-0.5 -0.2,-3.42 z"
       fill="#ffffff"
       id="path306"
       style="isolation:isolate" />
    <path
       d="m 142,74.125 21.969,-42.437 2.594,6.75 -2.761,-4.846 -23.62465,45.461435 z"
       fill="#ffffff"
       id="path276"
       style="isolation:isolate" />
  </g>
</svg>
