<?xml version="1.0" encoding="UTF-8" standalone="no"?>
<!-- Generator: Gravit.io -->

<svg
   style="isolation:isolate"
   viewBox="0 0 257.7 131.15"
   width="257.7pt"
   height="131.15pt"
   version="1.1"
   id="svg314"
   sodipodi:docname="logo.svg"
   inkscape:version="1.1.1 (3bf5ae0d25, 2021-09-20)"
   xmlns:inkscape="http://www.inkscape.org/namespaces/inkscape"
   xmlns:sodipodi="http://sodipodi.sourceforge.net/DTD/sodipodi-0.dtd"
   xmlns="http://www.w3.org/2000/svg"
   xmlns:svg="http://www.w3.org/2000/svg">
  <sodipodi:namedview
     id="namedview316"
     pagecolor="#ffffff"
     bordercolor="#666666"
     borderopacity="1.0"
     inkscape:pageshadow="2"
     inkscape:pageopacity="0.0"
     inkscape:pagecheckerboard="0"
     inkscape:document-units="pt"
     showgrid="false"
     inkscape:zoom="2.8284271"
     inkscape:cx="192.50982"
     inkscape:cy="109.248"
     inkscape:window-width="1920"
     inkscape:window-height="1011"
     inkscape:window-x="0"
     inkscape:window-y="0"
     inkscape:window-maximized="1"
     inkscape:current-layer="layer1" />
  <defs
     id="defs195">
    <clipPath
       id="_clipPath_VL4lQNFTekCiBlrKs3lIcRmLPUe8LF3L">
      <rect
         width="257.7"
         height="131.15"
         id="rect192" />
    </clipPath>
  </defs>
  <g
     inkscape:groupmode="layer"
     id="layer1"
     inkscape:label="background"
     style="display:none"
     sodipodi:insensitive="true">
    <rect
       style="fill:#a0a0b1;fill-opacity:1;fill-rule:evenodd;stroke:none;stroke-width:0.75"
       id="rect421"
       width="258.50192"
       height="131.22882"
       x="-0.80192417"
       y="-0.34883055" />
  </g>
  <g
     clip-path="url(#_clipPath_VL4lQNFTekCiBlrKs3lIcRmLPUe8LF3L)"
     id="g312">
    <clipPath
       id="_clipPath_2R05YMjZbD0UgsZZwA9G1NSyA91KCKEh">
      <rect
         x="0"
         y="0"
         width="257.7"
         height="131.15"
         fill="rgb(255,255,255)"
         id="rect199"
         transform="matrix(1,0,0,1,0,0)" />
    </clipPath>
    <g
       clip-path="url(#_clipPath_2R05YMjZbD0UgsZZwA9G1NSyA91KCKEh)"
       id="g294">
      <g
         id="g292">
        <g
           id="g274">
          <g
             id="g272">
            <g
               id="g206" />
            <g
               id="g214" />
            <g
               id="g228" />
            <g
               id="g234" />
            <g
               id="g240" />
            <g
               id="g246" />
            <g
               id="g252" />
            <g
               id="g258" />
            <g
               id="g264" />
            <g
               id="g270" />
          </g>
        </g>
      </g>
    </g>
  </g>
  <g
     inkscape:groupmode="layer"
     id="layer4"
     inkscape:label="green right"
     style="display:inline"
     sodipodi:insensitive="true">
    <path
       d="m 142.003,96.38 36,-21 v -6 l -5,2 1,-6 21,-31 q 5.083,3.167 5,4 -0.027,0.274 18,49.462 l -2,3.538 -6,-3.846 -71,15.846 z"
       fill="#9ece6a"
       id="path202"
       style="isolation:isolate" />
    <path
       d="m 154.874,99.784 -15.848,3.58 1.458,1.402 69.644,-16.152 5.75,2.625 -5.625,-3.75 z"
       fill="#000000"
       id="path204"
       style="isolation:isolate" />
    <path
       d="m 169.825,75.638 q -10.737,6.278 -10.831,6.278 0.153,0.014 0.305,0.029 c 19.312,1.818 28.926,2.716 28.843,2.693 z"
       fill="#8ab55d"
       id="path266"
       style="isolation:isolate" />
    <path
       d="m 159.025,81.912 0.772,1.719 3.644,0.258 2.262,-1.336 z"
       fill="#000000"
       id="path288"
       style="isolation:isolate" />
    <path
       d="m 173,71.381 1.063,1.532 3.937,-1.61 0.063,-2.078 z"
       fill="#080000"
       id="path290"
       style="isolation:isolate" />
  </g>
  <g
     inkscape:groupmode="layer"
     id="layer2"
     inkscape:label="green right a"
     sodipodi:insensitive="true"
     style="display:inline">
    <path
       d="m 204.253,40.114 -0.125,1.438 q 15.505,46.697 15.669,47.182 l 2.081,-5.245 v -1.375 z"
       fill="#000000"
       id="path248"
       style="display:inline;isolation:isolate" />
    <path
       d="m 204.003,39.88 16,46.154 2,-3.654 -9,-42.5 z"
       fill="#9ece6a"
       id="path250"
       style="display:inline;isolation:isolate" />
  </g>
  <g
     inkscape:groupmode="layer"
     id="layer3"
     inkscape:label="green right b"
     sodipodi:insensitive="true"
     style="display:inline">
    <path
       d="m 215.972,40.27 -0.281,1.032 7.059,42.932 2.222,-6.839 -0.188,-1.031 z"
       fill="#000000"
       id="path254"
       style="display:inline;isolation:isolate" />
    <path
       d="m 216.003,40.227 7,40.653 2,-4 V 40.227 Z"
       fill="#9ece6a"
       id="path256"
       style="display:inline;isolation:isolate" />
  </g>
  <g
     inkscape:groupmode="layer"
     id="layer5"
     inkscape:label="green right c"
     sodipodi:insensitive="true"
     style="display:inline">
    <path
       d="m 226.941,40.239 -0.675,37.949 2.425,-3.449 q 0.25,-0.437 0.187,-0.937 -0.062,-0.5 -1.937,-33.563 z"
       fill="#000000"
       id="path260"
       style="display:inline;isolation:isolate" />
    <path
       d="M 227.003,40.227 V 75.88 l 2,-2 7,-33.653 z"
       fill="#9ece6a"
       id="path262"
       style="display:inline;isolation:isolate" />
  </g>
  <g
     inkscape:groupmode="layer"
     id="layer6"
     inkscape:label="green left"
     style="display:inline"
     sodipodi:insensitive="true">
    <path
       d="m 129.516,94.014 -0.493,2.953 -4.763,1.121 -0.51,-2.527 z"
       fill="#0f0000"
       id="path216"
       style="isolation:isolate" />
    <path
       d="m 113.708,72.211 4.295,4.169 7,23 -33,9.5 4,-22.5 6,-4 -4.996,-6.917 z"
       fill="#9ece6a"
       id="path218"
       style="isolation:isolate" />
    <path
       d="m 92.034,108.848 1.219,2.016 31.546,-9.541 0.234,-2.04 z"
       fill="#0f0000"
       id="path222"
       style="isolation:isolate" />
    <path
       d="m 96.92,75.321 5.134,7.129 -0.62178,0.337669 -4.488089,-6.328018 z"
       fill="#000000"
       id="path224"
       style="isolation:isolate"
       sodipodi:nodetypes="ccccc" />
    <path
       d="m 116.667,97.294 12.919,-3.139 -0.262,-2.205 -18,-9.656 z"
       fill="#8ab55d"
       id="path268"
       style="isolation:isolate" />
  </g>
  <g
     inkscape:groupmode="layer"
     id="layer13"
     inkscape:label="green left top"
     style="display:inline"
     sodipodi:insensitive="true">
    <path
       d="m 110.66939,69.131815 -44.072,-42.776 -4,1.5 31.969,44.264 z"
       fill="#9ece6a"
       id="path220"
       style="display:inline;isolation:isolate" />
    <path
       d="m 94.56639,72.119815 -31.883,-44.303 0.03564,1.389846 31.845056,43.704284 z"
       fill="#000000"
       id="path226"
       style="display:inline;isolation:isolate"
       sodipodi:nodetypes="ccccc" />
    <path
       style="display:inline;isolation:isolate;fill:#000000;fill-opacity:1;stroke:none;stroke-width:0.75px;stroke-linecap:butt;stroke-linejoin:miter;stroke-opacity:1"
       d="m 94.564086,72.910945 16.136794,-3.124776 -0.0315,-0.654354 -16.103003,2.988 z"
       id="path697"
       sodipodi:nodetypes="ccccc" />
  </g>
  <g
     inkscape:groupmode="layer"
     id="layer10"
     inkscape:label="green left a"
     sodipodi:insensitive="true"
     style="display:inline">
    <path
       d="m 79.191,117.567 0.75,1.922 8.906,-3.141 5.156,-28.218 0.047,-1.688 z"
       fill="#000000"
       id="path236"
       style="display:inline;isolation:isolate" />
    <path
       d="m 94.003,86.38 -5.437,28.234 -9.422,2.953 10.859,-30.033 z"
       fill="#9ece6a"
       id="path238"
       style="display:inline;isolation:isolate" />
  </g>
  <g
     inkscape:groupmode="layer"
     id="layer11"
     inkscape:label="green left b"
     sodipodi:insensitive="true"
     style="display:inline">
    <path
       d="m 68.081,120.848 1.36,2.016 9.046,-3.141 0.808,-2.276 9.692,-27.302 -0.093,-2.203 z"
       fill="#000000"
       id="path242"
       style="display:inline;isolation:isolate" />
    <path
       d="m 89.003,87.842 -11,30.038 -10,3 16.32,-31.438 z"
       fill="#9ece6a"
       id="path244"
       style="display:inline;isolation:isolate" />
  </g>
  <g
     inkscape:groupmode="layer"
     id="layer12"
     inkscape:label="green left c"
     sodipodi:insensitive="true"
     style="display:inline">
    <path
       d="m 56.55,124.505 3.078,1.734 7.75,-2.906 15.82,-31.078 -0.257,-2.297 z"
       fill="#000000"
       id="path230"
       style="display:inline;isolation:isolate" />
    <path
       d="m 83.003,89.88 -16.5,31.539 -10,3 23.5,-33.539 z"
       fill="#9ece6a"
       id="path232"
       style="display:inline;isolation:isolate" />
  </g>
  <g
     inkscape:groupmode="layer"
     id="layer7"
     inkscape:label="M-left"
     style="display:inline"
     sodipodi:insensitive="true">
    <path
       d="m 132.539,68.379 -0.492,1.09 -45.277,8.611 -23.41,30.87 7.21,5.18 -70.86,17.5 0.21,-44.22 6.48,-2.54 4.45,3.17 51.11,-15.63 4.47,4.92 59.97,-11.32 7.33,-20.11 7.73,-6.53 -0.519,9.005 -0.981,0.825 0.39,-7.57 -5.77,4.86 -7.43,20.39 L 66.07,78.42 61.65,73.56 10.67,89.14 6.26,85.99 0.92,88.09 0.71,130.35 68.23,113.68 61.94,109.16 86.2,77.17 Z"
       fill="#ffffff"
       id="path308"
       style="isolation:isolate" />
  </g>
  <g
     inkscape:groupmode="layer"
     id="layer8"
     inkscape:label="M-right"
     sodipodi:insensitive="true"
     style="display:inline">
    <path
       d="m 147.516,80.156 47.487,45.724 -2,4 h 62 l -57,-49 -3,3 v 4.154 l -33,-16.154 20,-59 v -7 L 165.688,36.5 165.25,35.25 183,1.85 V 13.04 L 163.23,71.37 194,86.43 v -2.96 l 3.95,-3.95 20.873,17.942 38.877,33.418 h -66.31 l 2.41,-4.82 -46.706,-44.779 z"
       fill="#ffffff"
       id="path208"
       style="isolation:isolate" />
    <path
       d="m 149.122,77.19 -2.356,-2.659 18.047,-36.187 -19.407,36.281 3.212,3.488 z"
       fill="#ffffff"
       id="path210"
       style="isolation:isolate" />
    <path
       d="m 133.43,104.198 1.589,-0.318 16.54,-31.698 -15.873,32.588 -2.878,0.575 z"
       fill="#ffffff"
       id="path278"
       style="isolation:isolate" />
    <path
       d="m 118.031,103.4 1.219,3.663 -0.656,0.937 -1.5,-4.336 z"
       fill="#ffffff"
       id="path280"
       style="isolation:isolate" />
    <path
       d="m 140.484,90.211 -12.515,25.031 -5.569,1.868 5.58,-16.71 5.76,-2.22 -4.974,2.929 -4.547,14.063 3.328,-1.125 z"
       fill="#ffffff"
       id="path296"
       style="isolation:isolate" />
    <path
       d="m 125.308,85.622 20.144,-50.115 10.419,-4.468 -11.098,38.219 -2.773,4.867 12.195,-41.078 -8.07,3.578 z"
       fill="#ffffff"
       id="path298"
       style="isolation:isolate" />
    <path
       d="m 126.352,105.68 -0.844,3.234 -8.289,16.817 -9.893,1.451 14.387,-26.315 11.81,-2.5 -4.851,2.18 -6.117,1.406 -13.078,23.625 7.171,-1.055 z"
       fill="#ffffff"
       id="path300"
       style="isolation:isolate" />
    <path
       d="m 164.78,65.29 -0.32,-0.38 0.76,-0.65 0.33,0.39 5.8,6.87 0.22,3.76 0.03,0.49 -1,0.06 -0.03,-0.5 -0.2,-3.42 z"
       fill="#ffffff"
       id="path306"
       style="isolation:isolate" />
    <path
       d="m 142.156,73.45 21.813,-41.762 2.594,6.75 -2.761,-4.846 -21.783,42.288 -2.449,-6.622 z"
       fill="#ffffff"
       id="path276"
       style="isolation:isolate" />
  </g>
  <g
     inkscape:groupmode="layer"
     id="layer9"
     inkscape:label="M-top"
     sodipodi:insensitive="true"
     style="display:inline">
    <path
       d="M 85.781,73.688 77.906,75 73.059,69.999 v 0 l -1.232,0.151 c 1.667,1.794 5.29,5.941 5.423,6.069 l 10.125,-1.906 14.851,-22.083 -1.44,2.55 2.808,7.798 1.64,1.313 -3.359,-9.011 14.144,-25 -9.867,14.468 z"
       fill="#ffffff"
       id="path197"
       style="isolation:isolate" />
    <path
       d="m 114.891,10.406 14.015,39.657 -15.141,-39.982 6.891,-4.643 z"
       fill="#ffffff"
       id="path212"
       style="isolation:isolate" />
    <path
       d="M 132.188,52.063 132.5,51.188 118.617,12.797 Z"
       fill="#ffffff"
       id="path282"
       style="isolation:isolate" />
    <path
       d="m 83.742,59.133 q -2.326,2.087 -3.754,3.244 v 0 l -2.464,0.699 c 0.58,-0.451 3.04,-2.572 5.515,-4.857 z"
       fill="#ffffff"
       id="path284"
       style="isolation:isolate" />
    <path
       d="m 75.656,23.25 -1.593,3.281 15.956,0.349 -0.081,20.183 q 3.875,-2.642 5.514,-3.735 c -1.086,2.36 -2.383,4.753 -4.092,7.219 v 0 L 90.643,49.83 c 0.282,-0.417 0.561,-0.836 0.833,-1.26 0.5,-0.8 0.99,-1.61 1.44,-2.44 q -0.78,0.52 -4.166,3.245 -0.035,-1.641 0.266,-21.495 l -17.157,-0.317 2.86,-4.782 8.25,-2.062 8.578,-1.031 -0.141,-0.141 z"
       fill="#ffffff"
       id="path286"
       style="isolation:isolate" />
    <path
       d="m 92.177,57.88 -26.412,9.252 -2.557,5.289 17.281,-3.424 2.93,-5.433 -3.534,4.564 -14.525,2.733 1.537,-3.159 z"
       fill="#ffffff"
       id="path304"
       style="isolation:isolate" />
    <path
       d="M 92.72,19.36 85.594,20.906 65.42,23.14 68.48,17.96 114.98,1.89 117,7.969 116.11,8.78 114.33,3.17 69.15,18.79 67.33,21.86 Z"
       fill="#ffffff"
       id="path310"
       style="isolation:isolate" />
    <path
       d="m 92.177,57.88 -26.412,9.252 -2.557,5.289 17.281,-3.424 2.93,-5.433 -3.534,4.564 -14.525,2.733 1.537,-3.159 z"
       fill="#ffffff"
       id="path302"
       style="isolation:isolate" />
  </g>
</svg>
