<?xml version="1.0" encoding="UTF-8" standalone="no"?><!-- Generator: Gravit.io --><svg xmlns="http://www.w3.org/2000/svg" xmlns:xlink="http://www.w3.org/1999/xlink" style="isolation:isolate" viewBox="0 0 257.7 131.15" width="257.7pt" height="131.15pt"><defs><clipPath id="_clipPath_gcGqVtj7s11EeSR4ceG2XadApi37yVv8"><rect width="257.7" height="131.15"/></clipPath></defs><g clip-path="url(#_clipPath_gcGqVtj7s11EeSR4ceG2XadApi37yVv8)"><path d=" M 52.734 77.344 L 20.138 63.781 L 36.406 63.589 L 49.641 69.047 L 35.859 64.336 L 24.328 64.617 L 54.984 76.641 L 52.734 77.344 Z " fill="rgb(255,255,255)"/><path d=" M 176.438 101.063 L 176.345 112.418 L 147.045 80.978 L 147.563 79.969 L 175.405 109.958 L 176.438 101.063 Z " fill="rgb(255,255,255)"/><clipPath id="_clipPath_l36llEcFfmVOyma0x3HLwJf0CugnPBdB"><rect x="0" y="0" width="257.7" height="131.15" transform="matrix(1,0,0,1,0,0)" fill="rgb(255,255,255)"/></clipPath><g clip-path="url(#_clipPath_l36llEcFfmVOyma0x3HLwJf0CugnPBdB)"><g><g><g><g><path d=" M 142.003 96.38 L 178.003 75.38 L 178.003 69.38 L 173.003 71.38 L 174.003 65.38 L 195.003 34.38 Q 200.086 37.547 200.003 38.38 Q 199.976 38.654 218.003 87.842 L 216.003 91.38 L 210.003 87.534 L 139.003 103.38 L 142.003 96.38 Z " fill="rgb(158,206,106)"/><path d=" M 154.874 99.784 L 139.026 103.364 L 139.835 104.278 L 210.128 88.614 L 215.878 91.239 L 210.253 87.489 L 154.874 99.784 Z " fill="rgb(0,0,0)"/></g><g><path d=" M 176.191 105.916 L 195.003 125.88 L 193.003 129.88 L 255.003 129.88 L 198.003 80.88 L 195.003 83.88 L 195.003 88.034 L 162.003 71.88 L 182.003 12.88 L 182.003 5.88 L 165.688 36.5 L 165.25 35.25 L 183 1.85 L 183 13.04 L 163.23 71.37 L 194 86.43 L 194 83.47 L 197.95 79.52 L 218.823 97.462 L 257.7 130.88 L 191.39 130.88 L 193.8 126.06 L 176.112 107.289 L 176.191 105.916 L 176.191 105.916 Z " fill="rgb(255,255,255)"/><path d=" M 151.245 79.443 L 150.805 80.434 L 173.564 104.586 L 151.245 79.443 Z " fill="rgb(255,255,255)"/><path d=" M 149.122 77.19 L 146.766 74.531 L 164.813 38.344 L 145.406 74.625 L 148.618 78.113 L 149.122 77.19 L 149.122 77.19 Z " fill="rgb(255,255,255)"/><path d=" M 114.891 10.406 L 128.906 50.063 L 113.765 10.081 L 120.656 5.438 L 114.891 10.406 Z " fill="rgb(255,255,255)"/></g><path d=" M 129.516 94.014 L 129.023 96.967 L 124.26 98.088 L 123.75 95.561 L 129.516 94.014 Z " fill="rgb(15,0,0)"/><g><path d=" M 118.003 76.38 L 67.003 26.88 L 63.003 28.38 L 102.003 82.38 L 96.003 86.38 L 92.003 108.88 L 125.003 99.38 L 118.003 76.38 Z " fill="rgb(158,206,106)"/><path d=" M 92.034 108.848 L 93.253 110.864 L 124.799 101.323 L 125.033 99.283 L 92.034 108.848 Z " fill="rgb(15,0,0)"/><path d=" M 63.089 28.341 L 63.303 30.291 L 101.119 83.025 L 102.054 82.45 L 63.089 28.341 Z " fill="rgb(0,0,0)"/></g><g><path d=" M 56.55 124.505 L 59.628 126.239 L 67.378 123.333 L 83.198 92.255 L 82.941 89.958 L 56.55 124.505 Z " fill="rgb(0,0,0)"/><path d=" M 83.003 89.88 L 66.503 121.419 L 56.503 124.419 L 80.003 90.88 L 83.003 89.88 Z " fill="rgb(158,206,106)"/></g><g><path d=" M 79.191 117.567 L 79.941 119.489 L 88.847 116.348 L 94.003 88.13 L 94.05 86.442 L 79.191 117.567 Z " fill="rgb(0,0,0)"/><path d=" M 94.003 86.38 L 88.566 114.614 L 79.144 117.567 L 90.003 87.534 L 94.003 86.38 Z " fill="rgb(158,206,106)"/></g><g><path d=" M 68.081 120.848 L 69.441 122.864 L 78.487 119.723 L 79.295 117.447 L 88.987 90.145 L 88.894 87.942 L 68.081 120.848 Z " fill="rgb(0,0,0)"/><path d=" M 89.003 87.842 L 78.003 117.88 L 68.003 120.88 L 84.323 89.442 L 89.003 87.842 Z " fill="rgb(158,206,106)"/></g><g><path d=" M 204.253 40.114 L 204.128 41.552 Q 214.261 71.431 219.749 87.616 Q 219.839 87.879 220.003 88.364 L 221.878 83.489 L 221.878 82.114 L 204.253 40.114 Z " fill="rgb(0,0,0)"/><path d=" M 204.003 39.88 L 220.003 86.034 L 222.003 82.38 L 213.003 39.88 L 204.003 39.88 Z " fill="rgb(158,206,106)"/></g><g><path d=" M 215.972 40.27 L 215.691 41.302 L 222.816 83.395 L 224.972 77.395 L 224.784 76.364 L 215.972 40.27 Z " fill="rgb(0,0,0)"/><path d=" M 216.003 40.227 L 223.003 80.88 L 225.003 76.88 L 225.003 40.227 L 216.003 40.227 Z " fill="rgb(158,206,106)"/></g><g><path d=" M 226.941 40.239 L 226.753 76.989 L 228.691 74.739 Q 228.941 74.302 228.878 73.802 Q 228.816 73.302 226.941 40.239 Z " fill="rgb(0,0,0)"/><path d=" M 227.003 40.227 L 227.003 75.88 L 229.003 73.88 L 236.003 40.227 L 227.003 40.227 Z " fill="rgb(158,206,106)"/></g><g><path d=" M 63.291 76.022 L 61.511 74.049 C 47.759 81 31.449 85.853 11.003 89.88 L 7.003 86.034 L 1.003 88.342 L 1.003 129.88 L 68.003 113.727 L 63.003 110.265 Q 66.18 105.289 75.061 93.365 C 73.052 96.462 71.633 98.655 70.65 100.18 L 64.36 109.99 L 70.41 114.18 L 0 131.15 L 0 87.65 L 7.24 84.87 L 11.32 88.8 C 16.02 87.87 20.7 86.84 25.35 85.71 C 29.76 84.64 34.14 83.44 38.47 82.1 C 42.48 80.87 46.43 79.49 50.33 77.96 Q 53.98 76.52 61.75 72.866 L 64.03 75.35 L 74.242 86.611 L 73.457 87.293 L 63.291 76.022 Z " fill="rgb(255,255,255)"/></g><g><circle vector-effect="non-scaling-stroke" cx="171.8782345810758" cy="53.988532931388924" r="7.375" fill="rgb(0,0,0)"/><circle vector-effect="non-scaling-stroke" cx="46.963821850224754" cy="64.32195906984586" r="3.942434210526315" fill="rgb(0,0,0)"/><circle vector-effect="non-scaling-stroke" cx="177.89468194949683" cy="44.66945398402049" r="3.1809210526315894" fill="rgb(0,0,0)"/><circle vector-effect="non-scaling-stroke" cx="50.70668506825093" cy="59.24753875103877" r="2.0871710526315823" fill="rgb(0,0,0)"/></g><g><path d=" M 169.825 75.638 Q 159.088 81.916 158.994 81.916 Q 159.147 81.93 159.299 81.945 C 178.611 83.763 188.225 84.661 188.142 84.638 L 169.825 75.638 Z " fill="rgb(138,181,93)"/><path d=" M 89.505 69.392 Q 89.433 68.7 87.816 62.934 L 94.776 58.997 L 95.692 60.157 L 89.505 69.392 Z " fill="rgb(138,181,93)"/><path d=" M 116.667 97.294 L 129.586 94.155 L 129.324 91.95 L 111.324 82.294 L 116.667 97.294 Z " fill="rgb(138,181,93)"/></g></g></g><path d=" M 142.156 73.45 L 163.969 31.688 L 166.563 38.438 L 163.802 33.592 L 142.019 75.88 L 139.57 69.258 L 142.156 73.45 Z " fill="rgb(255,255,255)"/><path d=" M 133.43 104.198 L 135.019 103.88 L 151.559 72.182 L 135.686 104.77 L 132.808 105.345 L 133.43 104.198 L 133.43 104.198 Z " fill="rgb(255,255,255)"/><path d=" M 118.031 103.4 L 119.25 107.063 L 118.594 108 L 117.094 103.664 L 118.031 103.4 L 118.031 103.4 Z " fill="rgb(255,255,255)"/><path d=" M 110.5 81.25 L 101.875 54.88 L 116.019 29.88 L 82.5 79.031 C 79.501 76.252 76.454 73.638 73.059 69.999 L 73.059 69.999 L 71.827 70.15 C 73.494 71.944 75.191 73.713 76.916 75.46 Q 78.566 77.12 82.805 81.1 L 102.226 52.23 L 100.786 54.78 L 110.5 81.25 Z " fill="rgb(255,255,255)"/><path d=" M 132.938 54.469 L 133.313 53.25 L 118.617 12.797 L 132.938 54.469 Z " fill="rgb(255,255,255)"/><path d=" M 83.868 58.982 C 82.719 60.087 81.416 61.22 79.988 62.377 L 79.988 62.377 L 77.524 63.076 C 78.104 62.625 80.728 60.361 83.204 58.077 L 83.868 58.982 L 83.868 58.982 Z " fill="rgb(255,255,255)"/><path d=" M 76.019 26.88 L 90.019 26.88 L 89.938 47.063 Q 93.813 44.421 95.452 43.328 C 94.366 45.688 93.069 48.081 91.36 50.547 L 91.36 50.547 L 90.643 49.83 C 90.925 49.413 91.204 48.994 91.476 48.57 C 91.976 47.77 92.466 46.96 92.916 46.13 Q 92.136 46.65 88.75 49.375 Q 88.715 47.734 89.016 27.88 L 75.256 27.88 L 73.406 21.445 L 74.531 21.445 L 76.019 26.88 Z " fill="rgb(255,255,255)"/><path d=" M 114.25 3.063 L 116.334 8.653 L 116.914 8.25 L 116.914 8.25 L 114.672 1.975 L 72.996 18.652 L 114.25 3.063 Z " fill="rgb(255,255,255)"/><path d=" M 159.025 81.912 L 159.797 83.631 L 163.441 83.889 L 165.703 82.553 L 159.025 81.912 Z " fill="rgb(0,0,0)"/><path d=" M 173 71.381 L 174.063 72.913 L 178 71.303 L 178.063 69.225 L 173 71.381 Z " fill="rgb(8,0,0)"/></g></g><path d=" M 140.484 90.211 L 127.969 115.242 L 122.4 117.11 L 127.98 100.4 L 133.74 98.18 L 128.766 101.109 L 124.219 115.172 L 127.547 114.047 L 140.484 90.211 Z " fill="rgb(255,255,255)"/><path d=" M 125.308 85.622 L 145.452 35.507 L 155.871 31.039 L 144.773 69.258 L 142 74.125 L 154.195 33.047 L 146.125 36.625 L 125.308 85.622 Z " fill="rgb(255,255,255)"/><path d=" M 130.359 70.875 L 133.966 45.367 L 141.418 39.948 L 140.375 49.25 L 140.451 41.842 L 134.701 46.132 L 130.359 70.875 Z " fill="rgb(255,255,255)"/><path d=" M 127.969 102.375 L 117.219 125.731 L 107.326 127.182 L 121.713 100.867 L 133.523 98.367 L 122.555 101.953 L 109.477 125.578 L 116.648 124.523 L 127.969 102.375 Z " fill="rgb(255,255,255)"/><path d=" M 92.177 57.88 L 65.765 67.132 L 63.208 72.421 L 80.489 68.997 L 83.419 63.564 L 79.885 68.128 L 65.36 70.861 L 66.897 67.702 L 92.177 57.88 Z " fill="rgb(255,255,255)"/><path d=" M 92.177 57.88 L 65.765 67.132 L 63.208 72.421 L 80.489 68.997 L 83.419 63.564 L 79.885 68.128 L 65.36 70.861 L 66.897 67.702 L 92.177 57.88 Z " fill="rgb(255,255,255)"/><path d=" M 89.594 10.906 L 68.085 18.195 L 65.528 23.483 L 93.023 18.844 L 67.681 21.924 L 69.217 18.765 L 89.594 10.906 Z " fill="rgb(255,255,255)"/><path d=" M 62.625 105.562 L 86 83.063 L 86.062 80.086 L 72.51 87.632 L 72.187 92.625 L 73.437 88.142 L 85.289 81.352 L 85.266 82.762 L 62.625 105.562 Z " fill="rgb(255,255,255)"/><path d=" M 75.375 63.75 L 58.969 61.406 L 47.642 70.22 L 65.5 69.25 L 65.875 68.125 L 51.094 68.906 L 59.437 62.344 L 75.375 63.75 Z " fill="rgb(255,255,255)"/></g></svg>