<?xml version="1.0" encoding="UTF-8" standalone="no"?><!-- Generator: Gravit.io --><svg xmlns="http://www.w3.org/2000/svg" xmlns:xlink="http://www.w3.org/1999/xlink" style="isolation:isolate" viewBox="0 0 257.7 131.15" width="257.7pt" height="131.15pt"><defs><clipPath id="_clipPath_VL4lQNFTekCiBlrKs3lIcRmLPUe8LF3L"><rect width="257.7" height="131.15"/></clipPath></defs><g clip-path="url(#_clipPath_VL4lQNFTekCiBlrKs3lIcRmLPUe8LF3L)"><path d=" M 85.781 73.688 L 77.906 75 L 73.059 69.999 L 73.059 69.999 L 71.827 70.15 C 73.494 71.944 77.117 76.091 77.25 76.219 L 87.375 74.313 L 102.226 52.23 L 100.786 54.78 L 103.594 62.578 L 105.234 63.891 L 101.875 54.88 L 116.019 29.88 L 106.152 44.348 L 85.781 73.688 Z " fill="rgb(255,255,255)"/><clipPath id="_clipPath_2R05YMjZbD0UgsZZwA9G1NSyA91KCKEh"><rect x="0" y="0" width="257.7" height="131.15" transform="matrix(1,0,0,1,0,0)" fill="rgb(255,255,255)"/></clipPath><g clip-path="url(#_clipPath_2R05YMjZbD0UgsZZwA9G1NSyA91KCKEh)"><g><g><g><g><path d=" M 142.003 96.38 L 178.003 75.38 L 178.003 69.38 L 173.003 71.38 L 174.003 65.38 L 195.003 34.38 Q 200.086 37.547 200.003 38.38 Q 199.976 38.654 218.003 87.842 L 216.003 91.38 L 210.003 87.534 L 139.003 103.38 L 142.003 96.38 Z " fill="rgb(158,206,106)"/><path d=" M 154.874 99.784 L 139.026 103.364 L 140.484 104.766 L 210.128 88.614 L 215.878 91.239 L 210.253 87.489 L 154.874 99.784 Z " fill="rgb(0,0,0)"/></g><g><path d=" M 147.516 80.156 L 195.003 125.88 L 193.003 129.88 L 255.003 129.88 L 198.003 80.88 L 195.003 83.88 L 195.003 88.034 L 162.003 71.88 L 182.003 12.88 L 182.003 5.88 L 165.688 36.5 L 165.25 35.25 L 183 1.85 L 183 13.04 L 163.23 71.37 L 194 86.43 L 194 83.47 L 197.95 79.52 L 218.823 97.462 L 257.7 130.88 L 191.39 130.88 L 193.8 126.06 L 147.094 81.281 L 147.516 80.156 Z " fill="rgb(255,255,255)"/><path d=" M 149.122 77.19 L 146.766 74.531 L 164.813 38.344 L 145.406 74.625 L 148.618 78.113 L 149.122 77.19 L 149.122 77.19 Z " fill="rgb(255,255,255)"/><path d=" M 114.891 10.406 L 128.906 50.063 L 113.765 10.081 L 120.656 5.438 L 114.891 10.406 Z " fill="rgb(255,255,255)"/></g><path d=" M 129.516 94.014 L 129.023 96.967 L 124.26 98.088 L 123.75 95.561 L 129.516 94.014 Z " fill="rgb(15,0,0)"/><g><path d=" M 113.708 72.211 L 118.003 76.38 L 125.003 99.38 L 92.003 108.88 L 96.003 86.38 L 102.003 82.38 L 97.007 75.463 L 113.708 72.211 L 113.708 72.211 Z " fill="rgb(158,206,106)"/><path d=" M 111.075 69.656 L 67.003 26.88 L 63.003 28.38 L 94.972 72.644 L 111.075 69.656 L 111.075 69.656 Z " fill="rgb(158,206,106)"/><path d=" M 92.034 108.848 L 93.253 110.864 L 124.799 101.323 L 125.033 99.283 L 92.034 108.848 Z " fill="rgb(15,0,0)"/><path d=" M 96.92 75.321 L 102.054 82.45 L 101.119 83.025 L 95.706 75.476 L 96.92 75.321 L 96.92 75.321 Z " fill="rgb(0,0,0)"/><path d=" M 95.09 72.78 L 63.089 28.341 L 63.281 30.75 L 93.281 72.469 L 95.09 72.78 L 95.09 72.78 Z " fill="rgb(0,0,0)"/></g><g><path d=" M 56.55 124.505 L 59.628 126.239 L 67.378 123.333 L 83.198 92.255 L 82.941 89.958 L 56.55 124.505 Z " fill="rgb(0,0,0)"/><path d=" M 83.003 89.88 L 66.503 121.419 L 56.503 124.419 L 80.003 90.88 L 83.003 89.88 Z " fill="rgb(158,206,106)"/></g><g><path d=" M 79.191 117.567 L 79.941 119.489 L 88.847 116.348 L 94.003 88.13 L 94.05 86.442 L 79.191 117.567 Z " fill="rgb(0,0,0)"/><path d=" M 94.003 86.38 L 88.566 114.614 L 79.144 117.567 L 90.003 87.534 L 94.003 86.38 Z " fill="rgb(158,206,106)"/></g><g><path d=" M 68.081 120.848 L 69.441 122.864 L 78.487 119.723 L 79.295 117.447 L 88.987 90.145 L 88.894 87.942 L 68.081 120.848 Z " fill="rgb(0,0,0)"/><path d=" M 89.003 87.842 L 78.003 117.88 L 68.003 120.88 L 84.323 89.442 L 89.003 87.842 Z " fill="rgb(158,206,106)"/></g><g><path d=" M 204.253 40.114 L 204.128 41.552 Q 219.633 88.249 219.797 88.734 L 221.878 83.489 L 221.878 82.114 L 204.253 40.114 Z " fill="rgb(0,0,0)"/><path d=" M 204.003 39.88 L 220.003 86.034 L 222.003 82.38 L 213.003 39.88 L 204.003 39.88 Z " fill="rgb(158,206,106)"/></g><g><path d=" M 215.972 40.27 L 215.691 41.302 L 222.75 84.234 L 224.972 77.395 L 224.784 76.364 L 215.972 40.27 Z " fill="rgb(0,0,0)"/><path d=" M 216.003 40.227 L 223.003 80.88 L 225.003 76.88 L 225.003 40.227 L 216.003 40.227 Z " fill="rgb(158,206,106)"/></g><g><path d=" M 226.941 40.239 L 226.266 78.188 L 228.691 74.739 Q 228.941 74.302 228.878 73.802 Q 228.816 73.302 226.941 40.239 Z " fill="rgb(0,0,0)"/><path d=" M 227.003 40.227 L 227.003 75.88 L 229.003 73.88 L 236.003 40.227 L 227.003 40.227 Z " fill="rgb(158,206,106)"/></g><g><path d=" M 169.825 75.638 Q 159.088 81.916 158.994 81.916 Q 159.147 81.93 159.299 81.945 C 178.611 83.763 188.225 84.661 188.142 84.638 L 169.825 75.638 Z " fill="rgb(138,181,93)"/><path d=" M 116.667 97.294 L 129.586 94.155 L 129.324 91.95 L 111.324 82.294 L 116.667 97.294 Z " fill="rgb(138,181,93)"/></g></g></g><path d=" M 142.156 73.45 L 163.969 31.688 L 166.563 38.438 L 163.802 33.592 L 142.019 75.88 L 139.57 69.258 L 142.156 73.45 Z " fill="rgb(255,255,255)"/><path d=" M 133.43 104.198 L 135.019 103.88 L 151.559 72.182 L 135.686 104.77 L 132.808 105.345 L 133.43 104.198 L 133.43 104.198 Z " fill="rgb(255,255,255)"/><path d=" M 118.031 103.4 L 119.25 107.063 L 118.594 108 L 117.094 103.664 L 118.031 103.4 L 118.031 103.4 Z " fill="rgb(255,255,255)"/><path d=" M 132.188 52.063 L 132.5 51.188 L 118.617 12.797 L 132.188 52.063 Z " fill="rgb(255,255,255)"/><path d=" M 83.742 59.133 Q 81.416 61.22 79.988 62.377 L 79.988 62.377 L 77.524 63.076 C 78.104 62.625 80.564 60.504 83.039 58.219 L 83.742 59.133 Z " fill="rgb(255,255,255)"/><path d=" M 75.656 23.25 L 74.063 26.531 L 90.019 26.88 L 89.938 47.063 Q 93.813 44.421 95.452 43.328 C 94.366 45.688 93.069 48.081 91.36 50.547 L 91.36 50.547 L 90.643 49.83 C 90.925 49.413 91.204 48.994 91.476 48.57 C 91.976 47.77 92.466 46.96 92.916 46.13 Q 92.136 46.65 88.75 49.375 Q 88.715 47.734 89.016 27.88 L 71.859 27.563 L 74.719 22.781 L 82.969 20.719 L 91.547 19.688 L 91.406 19.547 L 75.656 23.25 Z " fill="rgb(255,255,255)"/><path d=" M 159.025 81.912 L 159.797 83.631 L 163.441 83.889 L 165.703 82.553 L 159.025 81.912 Z " fill="rgb(0,0,0)"/><path d=" M 173 71.381 L 174.063 72.913 L 178 71.303 L 178.063 69.225 L 173 71.381 Z " fill="rgb(8,0,0)"/></g></g><path d=" M 140.484 90.211 L 127.969 115.242 L 122.4 117.11 L 127.98 100.4 L 133.74 98.18 L 128.766 101.109 L 124.219 115.172 L 127.547 114.047 L 140.484 90.211 Z " fill="rgb(255,255,255)"/><path d=" M 125.308 85.622 L 145.452 35.507 L 155.871 31.039 L 144.773 69.258 L 142 74.125 L 154.195 33.047 L 146.125 36.625 L 125.308 85.622 Z " fill="rgb(255,255,255)"/><path d=" M 126.352 105.68 L 125.508 108.914 L 117.219 125.731 L 107.326 127.182 L 121.713 100.867 L 133.523 98.367 L 128.672 100.547 L 122.555 101.953 L 109.477 125.578 L 116.648 124.523 L 126.352 105.68 Z " fill="rgb(255,255,255)"/><path d=" M 92.177 57.88 L 65.765 67.132 L 63.208 72.421 L 80.489 68.997 L 83.419 63.564 L 79.885 68.128 L 65.36 70.861 L 66.897 67.702 L 92.177 57.88 Z " fill="rgb(255,255,255)"/><path d=" M 92.177 57.88 L 65.765 67.132 L 63.208 72.421 L 80.489 68.997 L 83.419 63.564 L 79.885 68.128 L 65.36 70.861 L 66.897 67.702 L 92.177 57.88 Z " fill="rgb(255,255,255)"/><path d=" M 164.78 65.29 L 164.46 64.91 L 165.22 64.26 L 165.55 64.65 L 171.35 71.52 L 171.57 75.28 L 171.6 75.77 L 170.6 75.83 L 170.57 75.33 L 170.37 71.91 L 164.78 65.29 Z " fill="rgb(255,255,255)"/><path d=" M 132.539 68.379 L 132.047 69.469 L 86.77 78.08 L 63.36 108.95 L 70.57 114.13 L -0.29 131.63 L -0.08 87.41 L 6.4 84.87 L 10.85 88.04 L 61.96 72.41 L 66.43 77.33 L 126.4 66.01 L 133.73 45.9 L 141.46 39.37 L 140.941 48.375 L 139.96 49.2 L 140.35 41.63 L 134.58 46.49 L 127.15 66.88 L 66.07 78.42 L 61.65 73.56 L 10.67 89.14 L 6.26 85.99 L 0.92 88.09 L 0.71 130.35 L 68.23 113.68 L 61.94 109.16 L 86.2 77.17 L 132.539 68.379 Z " fill="rgb(255,255,255)"/><path d=" M 92.72 19.36 L 85.594 20.906 L 65.42 23.14 L 68.48 17.96 L 114.98 1.89 L 117 7.969 L 116.11 8.78 L 114.33 3.17 L 69.15 18.79 L 67.33 21.86 L 92.72 19.36 Z " fill="rgb(255,255,255)"/></g></svg>