<?xml version="1.0" encoding="UTF-8" standalone="no"?><!-- Generator: Gravit.io --><svg xmlns="http://www.w3.org/2000/svg" xmlns:xlink="http://www.w3.org/1999/xlink" style="isolation:isolate" viewBox="0 0 257.7 131.15" width="257.7pt" height="131.15pt"><defs><clipPath id="_clipPath_duuWTT4U4zggwEiU3gK0hAWu8EiNxDcx"><rect width="257.7" height="131.15"/></clipPath></defs><g clip-path="url(#_clipPath_duuWTT4U4zggwEiU3gK0hAWu8EiNxDcx)"><g><g><g><path d=" M 142.003 96.38 L 178.003 75.38 L 178.003 69.38 L 173.003 71.38 L 174.003 65.38 L 195.003 34.38 Q 200.086 37.547 200.003 38.38 Q 199.976 38.654 218.003 87.842 L 216.003 91.38 L 210.003 87.534 L 139.003 103.38 L 142.003 96.38 Z " fill="rgb(158,206,106)"/><path d=" M 154.874 99.784 L 139.026 103.364 L 139.835 104.278 L 210.128 88.614 L 215.878 91.239 L 210.253 87.489 L 154.874 99.784 Z " fill="rgb(0,0,0)"/></g><g><path d=" M 195.003 125.88 L 193.003 129.88 L 255.003 129.88 L 198.003 80.88 L 195.003 83.88 L 195.003 88.034 L 162.003 71.88 L 182.003 12.88 L 182.003 5.88 L 165.688 36.5 L 165.25 35.25 L 183 1.85 L 183 13.04 L 163.23 71.37 L 194 86.43 L 194 83.47 L 197.95 79.52 L 218.823 97.462 L 257.7 130.88 L 191.39 130.88 L 193.8 126.06 L 150.805 80.434 L 151.245 79.443 L 195.003 125.88 Z " fill="rgb(255,255,255)"/><path d=" M 149.122 77.19 L 146.766 74.531 L 164.813 38.344 L 145.406 74.625 L 148.618 78.113 L 149.122 77.19 L 149.122 77.19 Z " fill="rgb(255,255,255)"/></g><path d=" M 129.516 94.014 L 129.023 96.967 L 124.26 98.088 L 123.75 95.561 L 129.516 94.014 Z " fill="rgb(15,0,0)"/><g><path d=" M 118.003 76.38 L 67.003 26.88 L 63.003 28.38 L 102.003 82.38 L 96.003 86.38 L 92.003 108.88 L 125.003 99.38 L 118.003 76.38 Z " fill="rgb(158,206,106)"/><path d=" M 92.034 108.848 L 93.253 110.864 L 124.799 101.323 L 125.033 99.283 L 92.034 108.848 Z " fill="rgb(15,0,0)"/><path d=" M 63.089 28.341 L 63.303 30.291 L 101.119 83.025 L 102.054 82.45 L 63.089 28.341 Z " fill="rgb(0,0,0)"/></g><g><path d=" M 56.55 124.505 L 59.628 126.239 L 67.378 123.333 L 83.198 92.255 L 82.941 89.958 L 56.55 124.505 Z " fill="rgb(0,0,0)"/><path d=" M 83.003 89.88 L 66.503 121.419 L 56.503 124.419 L 80.003 90.88 L 83.003 89.88 Z " fill="rgb(158,206,106)"/></g><g><path d=" M 79.191 117.567 L 79.941 119.489 L 88.847 116.348 L 94.003 88.13 L 94.05 86.442 L 79.191 117.567 Z " fill="rgb(0,0,0)"/><path d=" M 94.003 86.38 L 88.566 114.614 L 79.144 117.567 L 90.003 87.534 L 94.003 86.38 Z " fill="rgb(158,206,106)"/></g><g><path d=" M 68.081 120.848 L 69.441 122.864 L 78.487 119.723 L 79.295 117.447 L 88.987 90.145 L 88.894 87.942 L 68.081 120.848 Z " fill="rgb(0,0,0)"/><path d=" M 89.003 87.842 L 78.003 117.88 L 68.003 120.88 L 84.323 89.442 L 89.003 87.842 Z " fill="rgb(158,206,106)"/></g><g><path d=" M 204.253 40.114 L 204.128 41.552 Q 214.261 71.431 219.749 87.616 Q 219.839 87.879 220.003 88.364 L 221.878 83.489 L 221.878 82.114 L 204.253 40.114 Z " fill="rgb(0,0,0)"/><path d=" M 204.003 39.88 L 220.003 86.034 L 222.003 82.38 L 213.003 39.88 L 204.003 39.88 Z " fill="rgb(158,206,106)"/></g><g><path d=" M 215.972 40.27 L 215.691 41.302 L 222.816 83.395 L 224.972 77.395 L 224.784 76.364 L 215.972 40.27 Z " fill="rgb(0,0,0)"/><path d=" M 216.003 40.227 L 223.003 80.88 L 225.003 76.88 L 225.003 40.227 L 216.003 40.227 Z " fill="rgb(158,206,106)"/></g><g><path d=" M 226.941 40.239 L 226.753 76.989 L 228.691 74.739 Q 228.941 74.302 228.878 73.802 Q 228.816 73.302 226.941 40.239 Z " fill="rgb(0,0,0)"/><path d=" M 227.003 40.227 L 227.003 75.88 L 229.003 73.88 L 236.003 40.227 L 227.003 40.227 Z " fill="rgb(158,206,106)"/></g><g><path d=" M 65.483 71.944 C 66.894 71.159 68.278 70.35 69.637 69.514 L 69.637 69.514 Q 73.242 73.411 81.349 81.809 Q 79.958 83.943 78.534 86.136 L 65.483 71.944 Z " fill="rgb(0,0,0)"/></g><g><path d=" M 75.974 90.084 Q 69.79 99.634 63.003 110.265 L 68.003 113.727 L 1.003 129.88 L 1.003 88.342 L 7.003 86.034 L 11.003 89.88 C 31.449 85.853 47.759 81 61.511 74.049 L 63.291 76.022 L 75.974 90.084 Z  M 77.273 89.954 Q 72.7 97 70.65 100.18 L 64.36 109.99 L 70.41 114.18 L 0 131.15 L 0 87.65 L 7.24 84.87 L 11.32 88.8 C 16.02 87.87 20.7 86.84 25.35 85.71 C 29.76 84.64 34.14 83.44 38.47 82.1 C 42.48 80.87 46.43 79.49 50.33 77.96 Q 53.98 76.52 61.75 72.866 L 64.03 75.35 L 77.273 89.954 Z " fill-rule="evenodd" fill="rgb(255,255,255)"/></g><g><circle vector-effect="non-scaling-stroke" cx="171.87823458107582" cy="53.988532931388924" r="7.375" fill="rgb(0,0,0)"/><circle vector-effect="non-scaling-stroke" cx="46.963821850224754" cy="64.32195906984586" r="3.942434210526315" fill="rgb(0,0,0)"/><circle vector-effect="non-scaling-stroke" cx="177.89468194949686" cy="44.669453984020485" r="3.1809210526315894" fill="rgb(0,0,0)"/><circle vector-effect="non-scaling-stroke" cx="50.70668506825094" cy="59.24753875103877" r="2.0871710526315823" fill="rgb(0,0,0)"/></g><g><path d=" M 141.844 74.569 L 158.854 43.225 L 157.236 38.45 Q 153.4 45.64 152.11 48.26 C 151.24 50.02 150.34 51.78 149.42 53.52 C 148.69 54.93 147.87 56.29 146.98 57.61 C 146.62 58.13 146.23 58.63 145.81 59.11 C 145.47 59.5 145.09 59.87 144.68 60.19 C 144.35 60.46 143.99 60.68 143.61 60.84 C 143.27 60.99 142.92 61.07 142.55 61.09 C 142.3 61.11 142.05 61.1 141.79 61.07 C 141.53 61.04 141.27 60.98 141.02 60.91 C 140.67 60.8 140.33 60.65 140.02 60.46 C 139.77 60.31 139.55 60.12 139.35 59.91 C 139.16 59.68 139 59.43 138.88 59.16 C 138.71 58.79 138.6 58.41 138.53 58.02 C 138.42 57.32 138.4 56.61 138.48 55.91 C 138.63 54.65 138.88 53.41 139.23 52.2 C 139.74 50.72 140.45 49.32 141.32 48.03 C 142.34 46.53 143.53 45.15 144.86 43.92 C 146.23 42.67 147.71 41.54 149.28 40.56 C 151.35 39.27 153.5 38.13 155.73 37.15 C 157.51 36.5 159.25 35.74 160.92 34.86 C 162.19 34.2 163.39 33.43 164.51 32.55 C 164.87 32.27 165.22 31.97 165.56 31.67 C 165.88 31.38 166.18 31.09 166.47 30.78 C 167.15 30.07 167.76 29.28 168.29 28.44 C 168.77 27.68 169.16 26.86 169.45 26.01 C 169.74 25.17 169.94 24.29 170.03 23.41 C 170.09 22.9 170.11 22.38 170.11 21.87 L 172.42 22.3 L 175.438 18.5 L 166.77 1.86 L 161.72 0 L 155.26 21.84 L 158.58 25.76 L 160.55 24.85 C 160.53 25.12 160.48 25.39 160.39 25.65 C 160.27 26.01 160.1 26.36 159.87 26.67 C 159.55 27.13 159.17 27.56 158.75 27.95 C 158.07 28.57 157.33 29.11 156.54 29.57 C 155.17 30.36 153.76 31.05 152.3 31.65 C 149.27 33.01 146.33 34.57 143.5 36.33 C 141.3 37.7 139.21 39.26 137.28 40.99 C 136.27 41.89 135.32 42.84 134.42 43.84 C 133.6 44.75 132.83 45.71 132.12 46.71 C 131.46 47.65 130.85 48.62 130.31 49.62 C 129.78 50.6 129.31 51.6 128.9 52.64 C 128.24 54.66 127.8 56.75 127.56 58.87 C 127.38 60.53 127.42 62.21 127.68 63.87 C 127.8 64.64 127.97 65.4 128.19 66.14 C 128.41 66.87 128.68 67.57 129 68.26 C 129.32 68.95 129.69 69.62 130.1 70.26 C 130.53 70.92 131.01 71.56 131.53 72.16 C 132.704 73.478 134.086 74.589 135.621 75.443 L 135.337 74.069 C 135.091 73.921 133.043 72.341 132.279 71.503 Q 126.152 64.381 129.844 52.973 Q 134.71 40.623 152.699 32.574 Q 162.844 28.387 161.378 23.364 L 158.848 24.534 L 156.37 21.603 L 162.38 1.311 L 166.081 2.672 L 174.5 18.531 L 172.18 21.237 L 169.044 20.649 Q 170.085 30.889 155.357 36.219 Q 141.592 42.286 138.281 51.894 Q 135.775 60.406 140.732 61.866 Q 141.665 62.15 142.617 62.092 C 147.62 61.788 150.824 52.328 157.005 40.941 L 157.813 43.35 L 141.829 74.474 L 143.221 73.966 L 141.844 74.569 Z " fill="rgb(255,255,255)"/></g><g><path d=" M 38.363 84.292 L 60.28 76.81 C 60.642 76.435 60.495 73.488 58.149 70.678 Q 54.193 66.205 46.69 67.544 Q 38.493 69.541 31.871 80.174 Q 28.358 86.201 25.322 84.844 L 26.277 83.351 L 24.645 81.538 L 11.348 83.57 L 11.885 86.018 L 21.361 93.215 L 23.049 91.462 L 22.95 89.436 Q 29.308 90.976 33.936 82.163 Q 38.946 74.019 45.283 72.763 Q 50.859 71.921 51.35 75.169 Q 51.448 75.78 51.33 76.375 C 50.706 79.499 44.472 80.7 36.768 83.609 L 38.363 84.292 Z " fill="rgb(0,0,0)"/></g><g><path d=" M 169.825 75.638 Q 159.088 81.916 158.994 81.916 Q 159.147 81.93 159.299 81.945 C 178.611 83.763 188.225 84.661 188.142 84.638 L 169.825 75.638 Z " fill="rgb(138,181,93)"/><path d=" M 89.505 69.392 Q 89.433 68.7 87.816 62.934 L 94.776 58.997 L 95.692 60.157 L 89.505 69.392 Z " fill="rgb(138,181,93)"/><path d=" M 116.667 97.294 L 129.586 94.155 L 129.324 91.95 L 111.324 82.294 L 116.667 97.294 Z " fill="rgb(138,181,93)"/></g></g></g><path d=" M 142.156 73.45 L 163.969 31.688 L 166.563 38.438 L 163.802 33.592 L 142.019 75.88 L 139.57 69.258 L 142.156 73.45 Z " fill="rgb(255,255,255)"/><path d=" M 131.972 46.966 L 114.672 1.975 L 103.803 1.715 L 67.696 0.85 L 75.256 27.88 L 89.016 27.88 L 89.016 46.88 Q 89.016 47.25 89.051 48.891 Q 92.136 46.65 92.916 46.13 C 92.466 46.96 91.976 47.77 91.476 48.57 C 90.136 50.66 88.626 52.63 86.976 54.48 C 84.946 56.74 82.746 58.85 80.406 60.8 C 77.136 63.51 73.696 66.01 70.106 68.29 C 72.326 70.72 74.596 73.11 76.916 75.46 Q 78.566 77.12 82.805 81.1 L 102.226 52.23 L 100.786 54.78 L 119.366 108.03 L 135.686 104.77 L 151.559 72.182 L 135.019 103.88 L 120.019 106.88 L 101.875 54.88 L 116.019 29.88 L 82.644 79.614 Q 77.519 74.864 71.644 68.489 C 86.269 58.864 91.957 50.927 95.452 43.328 Q 93.894 44.239 90.019 46.88 L 90.019 26.88 L 76.019 26.88 L 69.019 1.88 L 114.019 2.88 L 131.326 47.959 L 131.972 46.966 L 131.972 46.966 Z " fill="rgb(255,255,255)"/><path d=" M 159.025 81.912 L 159.797 83.631 L 163.441 83.889 L 165.703 82.553 L 159.025 81.912 Z " fill="rgb(0,0,0)"/><path d=" M 173 71.381 L 174.063 72.913 L 178 71.303 L 178.063 69.225 L 173 71.381 Z " fill="rgb(8,0,0)"/></g></svg>