<?xml version="1.0" encoding="UTF-8" standalone="no"?>
<!-- Created with Inkscape (http://www.inkscape.org/) -->

<svg
   width="1920"
   height="768"
   viewBox="0 0 507.99999 203.20001"
   version="1.1"
   id="svg5"
   inkscape:version="1.1.1 (3bf5ae0d25, 2021-09-20)"
   sodipodi:docname="m3d.svg"
   xmlns:inkscape="http://www.inkscape.org/namespaces/inkscape"
   xmlns:sodipodi="http://sodipodi.sourceforge.net/DTD/sodipodi-0.dtd"
   xmlns="http://www.w3.org/2000/svg"
   xmlns:svg="http://www.w3.org/2000/svg">
  <sodipodi:namedview
     id="namedview7"
     pagecolor="#ffffff"
     bordercolor="#666666"
     borderopacity="1.0"
     inkscape:pageshadow="2"
     inkscape:pageopacity="0.0"
     inkscape:pagecheckerboard="0"
     inkscape:document-units="mm"
     showgrid="false"
     units="px"
     width="1920px"
     inkscape:zoom="0.99780624"
     inkscape:cx="477.54763"
     inkscape:cy="307.67497"
     inkscape:window-width="1920"
     inkscape:window-height="1027"
     inkscape:window-x="0"
     inkscape:window-y="0"
     inkscape:window-maximized="1"
     inkscape:current-layer="layer8" />
  <defs
     id="defs2">
    <inkscape:path-effect
       effect="bspline"
       id="path-effect91985"
       is_visible="true"
       lpeversion="1"
       weight="33.333333"
       steps="2"
       helper_size="0"
       apply_no_weight="true"
       apply_with_weight="true"
       only_selected="false" />
    <inkscape:path-effect
       effect="bspline"
       id="path-effect74175"
       is_visible="true"
       lpeversion="1"
       weight="33.333333"
       steps="2"
       helper_size="0"
       apply_no_weight="true"
       apply_with_weight="true"
       only_selected="false" />
    <inkscape:path-effect
       effect="bspline"
       id="path-effect59518"
       is_visible="true"
       lpeversion="1"
       weight="33.333333"
       steps="2"
       helper_size="0"
       apply_no_weight="true"
       apply_with_weight="true"
       only_selected="false" />
    <inkscape:path-effect
       effect="bspline"
       id="path-effect4297"
       is_visible="true"
       lpeversion="1"
       weight="33.333333"
       steps="2"
       helper_size="0"
       apply_no_weight="true"
       apply_with_weight="true"
       only_selected="false" />
  </defs>
  <g
     inkscape:groupmode="layer"
     id="layer7"
     inkscape:label="B"
     style="display:inline"
     sodipodi:insensitive="true">
    <path
       id="path74766"
       style="fill:#bfc9c9;fill-opacity:1;stroke:none;stroke-width:0.264583px;stroke-linecap:butt;stroke-linejoin:miter;stroke-opacity:1"
       d="m 183.17525,45.077885 -20.03392,14.320056 0.79582,11.049455 c -0.79554,-4.32848 -1.55288,-8.41344 -1.55288,-8.41344 l -0.86403,1.435571 1.58698,15.00632 -0.0977,0.229444 C 162.26955,72.795415 161.3228,65.293705 161.3228,65.293705 l -0.66972,1.12758 0.66042,12.601297 C 160.78501,73.591411 160.23605,67.94574 160.23605,67.94574 l -0.39636,1.265039 0.33693,16.161803 -10.04331,23.635758 46.34394,-8.47545 -37.5512,7.60161 -0.98133,4.63434 73.83218,-17.597888 -10.38283,-10.589019 c 0,0 -25.19072,-3.193421 -26.20408,-3.301606 -1.01335,-0.108196 18.16581,1.224214 18.16581,1.224214 l -3.32279,-20.226673 -4.64674,-2.726447 2.61276,9.920324 -3.09491,-7.53029 -19.89646,-13.368692 -16.68011,10.085171 16.0724,-10.667566 z m -0.91881,27.185421 19.70836,3.887099 2.35696,3.507799 -19.43964,-1.240235 z m 2.95486,11.061856 20.57497,1.008208 -2.32906,3.531568 -24.77471,4.157885 z" />
  </g>
  <g
     inkscape:groupmode="layer"
     id="layer8"
     inkscape:label="B-top"
     style="display:inline"
     sodipodi:insensitive="true">
    <path
       style="fill:#99abab;fill-opacity:1;stroke:none;stroke-width:0.264583px;stroke-linecap:butt;stroke-linejoin:miter;stroke-opacity:1"
       d="m 177.55808,96.878804 -3.46069,10.666996 4.30389,5.76379 58.99933,-18.365106 -0.1875,-3.77197 c 0,0 -54.5929,10.533136 -54.78662,10.526546 -0.19373,-0.007 -3.88806,-4.623046 -3.88806,-4.623046 z"
       id="path78971"
       sodipodi:nodetypes="cccccccc" />
    <path
       style="fill:#99abab;fill-opacity:1;stroke:none;stroke-width:0.264583px;stroke-linecap:butt;stroke-linejoin:miter;stroke-opacity:1"
       d="M 161.52024,61.882026 181.621,47.290716 180.01352,41.749579 159.20615,59.829412 Z"
       id="path82614"
       sodipodi:nodetypes="ccccc" />
    <path
       style="fill:#99abab;fill-opacity:1;stroke:none;stroke-width:0.264583px;stroke-linecap:butt;stroke-linejoin:miter;stroke-opacity:1"
       d="m 181.35397,86.050884 2.20552,-0.623307 -4.87699,6.595226 8.65642,-1.496031 -2.96249,1.833635 -14.60222,4.190136 z"
       id="path99225"
       sodipodi:nodetypes="ccccccc" />
    <path
       style="fill:#99abab;fill-opacity:1;stroke:none;stroke-width:0.264583px;stroke-linecap:butt;stroke-linejoin:miter;stroke-opacity:1"
       d="m 183.28275,74.745117 -1.77997,0.09082 -13.5434,-6.903626 19.02192,4.113283 -0.27558,0.998839 -4.44928,-0.781127 z"
       id="path99729"
       sodipodi:nodetypes="ccccccc" />
    <path
       style="fill:#99abab;fill-opacity:1;stroke:none;stroke-width:0.264583px;stroke-linecap:butt;stroke-linejoin:miter;stroke-opacity:1"
       d="m 178.55862,99.53037 c 0.50702,-0.06008 41.82641,-7.168259 41.82641,-7.168259 l 2.0628,2.32382 -5.87817,0.999289 -1.06299,-1.6231 -36.5573,6.23008 z"
       id="path100162" />
  </g>
  <g
     inkscape:groupmode="layer"
     id="layer5"
     inkscape:label="O"
     style="display:inline"
     sodipodi:insensitive="true">
    <path
       id="path39162"
       style="fill:#bfc9c9;fill-opacity:1;stroke:none;stroke-width:0.221834;stroke-opacity:1"
       d="m 122.43009,44.381431 a 35.449615,21.972673 66.904198 0 1 34.11735,23.988943 35.449615,21.972673 66.904198 0 1 -6.30587,41.227406 35.449615,21.972673 66.904198 0 1 -34.11738,-23.988928 35.449615,21.972673 66.904198 0 1 6.3059,-41.227421 z m 19.25658,22.017208 a 15.00097,9.2980245 66.904198 0 0 -2.66827,17.445729 15.00097,9.2980245 66.904198 0 0 14.43715,10.151625 15.00097,9.2980245 66.904198 0 0 2.66848,-17.446311 15.00097,9.2980245 66.904198 0 0 -14.43736,-10.151043 z" />
  </g>
  <g
     inkscape:label="M"
     inkscape:groupmode="layer"
     id="layer1"
     style="display:inline"
     sodipodi:insensitive="true">
    <path
       id="path16535"
       style="fill:#bfc9c9;fill-opacity:1;stroke:none;stroke-width:0.999999px;stroke-linecap:butt;stroke-linejoin:miter;stroke-opacity:1"
       d="m 291.55273,172.86328 -7.99218,16.41016 -5.06641,-13.41602 -35.35352,29.70508 -27.92382,148.50781 -35.57227,14.69922 117.56836,25.27539 13.04297,-4.45508 41.11914,-14.04687 -39.07227,14.73828 11.5,3.88477 40.02149,-17.95118 -54.21875,-124.625 49.43164,89.94141 -9.12109,-94.91406 18.73632,107.20703 11.97657,4.25586 96.34375,37.09375 -95.98438,-35.25977 1.54688,7.20703 163.44336,62.64063 -32.23438,-77.04297 -11.16406,-5.78906 -10.28516,-31.03516 -0.58398,-0.3125 -87.78321,-71.39453 -16.50781,-7.82422 -53.53906,-58.6289 -8.09197,42.30492 z"
       transform="scale(0.26458333)"
       sodipodi:nodetypes="cccccccccccccccccccccccccccccc" />
  </g>
  <g
     inkscape:groupmode="layer"
     id="layer2"
     inkscape:label="left"
     style="display:inline"
     sodipodi:insensitive="true">
    <path
       id="path12634"
       style="fill:#99abab;fill-opacity:1;stroke:none;stroke-width:0.999999px;stroke-linecap:butt;stroke-linejoin:miter;stroke-opacity:1"
       d="m 270.51367,156.58594 -42.84375,22.60742 -0.64453,6.19726 38.93555,-22.35156 -39.17774,24.69922 -6.88281,66.25977 30.71875,-38.34766 -9.87695,87.7832 -19.78321,15.43946 -1.40429,9.14648 -6.45117,-2.16406 -2.61524,14.38476 62.11524,14.65039 c 0,0 -55.67155,-11.46676 -62.73047,-13.35351 l -50.74219,35.51172 -42.2793,90.76953 208.27735,-104.39063 -51.39649,-17.23828 -20.71094,-22.28711 3.31446,-33.48437 -2.19922,-3.26953 7.17773,-84.85156 21.17969,-26.43946 z m -17.55078,144.44922 -3.07227,28.34179 11.09961,12.53907 -37.77539,-12.66993 0.91993,-5.74218 z"
       transform="scale(0.26458333)" />
  </g>
  <g
     inkscape:groupmode="layer"
     id="layer3"
     inkscape:label="right"
     style="display:inline"
     sodipodi:insensitive="true">
    <path
       id="path11124"
       style="display:inline;fill:#99abab;fill-opacity:1;stroke:none;stroke-width:0.999999px;stroke-linecap:butt;stroke-linejoin:miter;stroke-opacity:1"
       d="m 348.50391,158.41406 c 1.14681,3.98626 15.03125,61.91211 15.03125,61.91211 l 3.61132,3.49219 -5.04101,-34.89453 8.27539,41.92773 17.71875,12.05664 0.63086,6.06055 76.78515,65.1582 29.38282,69.05078 15.38086,8.12305 5.26367,14.8418 89.20703,36.28906 -80.85352,-94.10547 -10.71484,-6.13672 59.42188,75.30664 -67.98438,-81.63476 -17.0293,-8.54297 19.78516,55.79102 -7.00391,-4.03321 -21.82421,-56.4375 -83.23633,-70.36719 -0.72657,-4.95312 72.77344,49.51367 -87.56836,-120.19336 z"
       transform="scale(0.26458333)" />
  </g>
</svg>
