<?xml version="1.0" encoding="UTF-8" standalone="no"?>
<!-- Created with Inkscape (http://www.inkscape.org/) -->

<svg
   width="1920"
   height="768"
   viewBox="0 0 507.99999 203.20001"
   version="1.1"
   id="svg5"
   inkscape:version="1.1.1 (3bf5ae0d25, 2021-09-20)"
   sodipodi:docname="m3d.svg"
   xmlns:inkscape="http://www.inkscape.org/namespaces/inkscape"
   xmlns:sodipodi="http://sodipodi.sourceforge.net/DTD/sodipodi-0.dtd"
   xmlns="http://www.w3.org/2000/svg"
   xmlns:svg="http://www.w3.org/2000/svg">
  <sodipodi:namedview
     id="namedview7"
     pagecolor="#ffffff"
     bordercolor="#666666"
     borderopacity="1.0"
     inkscape:pageshadow="2"
     inkscape:pageopacity="0.0"
     inkscape:pagecheckerboard="0"
     inkscape:document-units="mm"
     showgrid="false"
     units="px"
     width="1920px"
     inkscape:zoom="0.87238585"
     inkscape:cx="943.96304"
     inkscape:cy="363.37132"
     inkscape:window-width="1920"
     inkscape:window-height="1027"
     inkscape:window-x="0"
     inkscape:window-y="0"
     inkscape:window-maximized="1"
     inkscape:current-layer="layer8"
     inkscape:snap-global="false" />
  <defs
     id="defs2">
    <inkscape:path-effect
       effect="bspline"
       id="path-effect199026"
       is_visible="true"
       lpeversion="1"
       weight="33.333333"
       steps="2"
       helper_size="0"
       apply_no_weight="true"
       apply_with_weight="true"
       only_selected="false" />
    <inkscape:path-effect
       effect="bspline"
       id="path-effect179430"
       is_visible="true"
       lpeversion="1"
       weight="33.333333"
       steps="2"
       helper_size="0"
       apply_no_weight="true"
       apply_with_weight="true"
       only_selected="false" />
    <inkscape:path-effect
       effect="bspline"
       id="path-effect165795"
       is_visible="true"
       lpeversion="1"
       weight="33.333333"
       steps="2"
       helper_size="0"
       apply_no_weight="true"
       apply_with_weight="true"
       only_selected="false" />
    <inkscape:path-effect
       effect="bspline"
       id="path-effect142926"
       is_visible="true"
       lpeversion="1"
       weight="33.333333"
       steps="2"
       helper_size="0"
       apply_no_weight="true"
       apply_with_weight="true"
       only_selected="false" />
    <inkscape:path-effect
       effect="bspline"
       id="path-effect141389"
       is_visible="true"
       lpeversion="1"
       weight="33.333333"
       steps="2"
       helper_size="0"
       apply_no_weight="true"
       apply_with_weight="true"
       only_selected="false" />
    <inkscape:path-effect
       effect="bspline"
       id="path-effect137960"
       is_visible="true"
       lpeversion="1"
       weight="33.333333"
       steps="2"
       helper_size="0"
       apply_no_weight="true"
       apply_with_weight="true"
       only_selected="false" />
    <inkscape:path-effect
       effect="bspline"
       id="path-effect136588"
       is_visible="true"
       lpeversion="1"
       weight="33.333333"
       steps="2"
       helper_size="0"
       apply_no_weight="true"
       apply_with_weight="true"
       only_selected="false" />
    <inkscape:path-effect
       effect="bspline"
       id="path-effect134471"
       is_visible="true"
       lpeversion="1"
       weight="33.333333"
       steps="2"
       helper_size="0"
       apply_no_weight="true"
       apply_with_weight="true"
       only_selected="false" />
    <inkscape:path-effect
       effect="bspline"
       id="path-effect134465"
       is_visible="true"
       lpeversion="1"
       weight="33.333333"
       steps="2"
       helper_size="0"
       apply_no_weight="true"
       apply_with_weight="true"
       only_selected="false" />
    <inkscape:path-effect
       effect="bspline"
       id="path-effect134459"
       is_visible="true"
       lpeversion="1"
       weight="33.333333"
       steps="2"
       helper_size="0"
       apply_no_weight="true"
       apply_with_weight="true"
       only_selected="false" />
    <inkscape:path-effect
       effect="bspline"
       id="path-effect134453"
       is_visible="true"
       lpeversion="1"
       weight="33.333333"
       steps="2"
       helper_size="0"
       apply_no_weight="true"
       apply_with_weight="true"
       only_selected="false" />
    <inkscape:path-effect
       effect="bspline"
       id="path-effect134447"
       is_visible="true"
       lpeversion="1"
       weight="33.333333"
       steps="2"
       helper_size="0"
       apply_no_weight="true"
       apply_with_weight="true"
       only_selected="false" />
    <inkscape:path-effect
       effect="bspline"
       id="path-effect134441"
       is_visible="true"
       lpeversion="1"
       weight="33.333333"
       steps="2"
       helper_size="0"
       apply_no_weight="true"
       apply_with_weight="true"
       only_selected="false" />
    <inkscape:path-effect
       effect="bspline"
       id="path-effect134435"
       is_visible="true"
       lpeversion="1"
       weight="33.333333"
       steps="2"
       helper_size="0"
       apply_no_weight="true"
       apply_with_weight="true"
       only_selected="false" />
    <inkscape:path-effect
       effect="bspline"
       id="path-effect134429"
       is_visible="true"
       lpeversion="1"
       weight="33.333333"
       steps="2"
       helper_size="0"
       apply_no_weight="true"
       apply_with_weight="true"
       only_selected="false" />
    <inkscape:path-effect
       effect="bspline"
       id="path-effect134423"
       is_visible="true"
       lpeversion="1"
       weight="33.333333"
       steps="2"
       helper_size="0"
       apply_no_weight="true"
       apply_with_weight="true"
       only_selected="false" />
    <inkscape:path-effect
       effect="bspline"
       id="path-effect134417"
       is_visible="true"
       lpeversion="1"
       weight="33.333333"
       steps="2"
       helper_size="0"
       apply_no_weight="true"
       apply_with_weight="true"
       only_selected="false" />
    <inkscape:path-effect
       effect="bspline"
       id="path-effect134411"
       is_visible="true"
       lpeversion="1"
       weight="33.333333"
       steps="2"
       helper_size="0"
       apply_no_weight="true"
       apply_with_weight="true"
       only_selected="false" />
    <inkscape:path-effect
       effect="bspline"
       id="path-effect134405"
       is_visible="true"
       lpeversion="1"
       weight="33.333333"
       steps="2"
       helper_size="0"
       apply_no_weight="true"
       apply_with_weight="true"
       only_selected="false" />
    <inkscape:path-effect
       effect="bspline"
       id="path-effect134399"
       is_visible="true"
       lpeversion="1"
       weight="33.333333"
       steps="2"
       helper_size="0"
       apply_no_weight="true"
       apply_with_weight="true"
       only_selected="false" />
    <inkscape:path-effect
       effect="bspline"
       id="path-effect134393"
       is_visible="true"
       lpeversion="1"
       weight="33.333333"
       steps="2"
       helper_size="0"
       apply_no_weight="true"
       apply_with_weight="true"
       only_selected="false" />
    <inkscape:path-effect
       effect="bspline"
       id="path-effect134387"
       is_visible="true"
       lpeversion="1"
       weight="33.333333"
       steps="2"
       helper_size="0"
       apply_no_weight="true"
       apply_with_weight="true"
       only_selected="false" />
    <inkscape:path-effect
       effect="bspline"
       id="path-effect126759"
       is_visible="true"
       lpeversion="1"
       weight="33.333333"
       steps="2"
       helper_size="0"
       apply_no_weight="true"
       apply_with_weight="true"
       only_selected="false" />
    <inkscape:path-effect
       effect="bspline"
       id="path-effect125251"
       is_visible="true"
       lpeversion="1"
       weight="33.333333"
       steps="2"
       helper_size="0"
       apply_no_weight="true"
       apply_with_weight="true"
       only_selected="false" />
    <inkscape:path-effect
       effect="bspline"
       id="path-effect124240"
       is_visible="true"
       lpeversion="1"
       weight="33.333333"
       steps="2"
       helper_size="0"
       apply_no_weight="true"
       apply_with_weight="true"
       only_selected="false" />
    <inkscape:path-effect
       effect="bspline"
       id="path-effect123551"
       is_visible="true"
       lpeversion="1"
       weight="33.333333"
       steps="2"
       helper_size="0"
       apply_no_weight="true"
       apply_with_weight="true"
       only_selected="false" />
    <inkscape:path-effect
       effect="bspline"
       id="path-effect118125"
       is_visible="true"
       lpeversion="1"
       weight="33.333333"
       steps="2"
       helper_size="0"
       apply_no_weight="true"
       apply_with_weight="true"
       only_selected="false" />
    <inkscape:path-effect
       effect="bspline"
       id="path-effect116390"
       is_visible="true"
       lpeversion="1"
       weight="33.333333"
       steps="2"
       helper_size="0"
       apply_no_weight="true"
       apply_with_weight="true"
       only_selected="false" />
    <inkscape:path-effect
       effect="bspline"
       id="path-effect114846"
       is_visible="true"
       lpeversion="1"
       weight="33.333333"
       steps="2"
       helper_size="0"
       apply_no_weight="true"
       apply_with_weight="true"
       only_selected="false" />
    <inkscape:path-effect
       effect="bspline"
       id="path-effect112570"
       is_visible="true"
       lpeversion="1"
       weight="33.333333"
       steps="2"
       helper_size="0"
       apply_no_weight="true"
       apply_with_weight="true"
       only_selected="false" />
    <inkscape:path-effect
       effect="bspline"
       id="path-effect110387"
       is_visible="true"
       lpeversion="1"
       weight="33.333333"
       steps="2"
       helper_size="0"
       apply_no_weight="true"
       apply_with_weight="true"
       only_selected="false" />
    <inkscape:path-effect
       effect="bspline"
       id="path-effect91985"
       is_visible="true"
       lpeversion="1"
       weight="33.333333"
       steps="2"
       helper_size="0"
       apply_no_weight="true"
       apply_with_weight="true"
       only_selected="false" />
    <inkscape:path-effect
       effect="bspline"
       id="path-effect74175"
       is_visible="true"
       lpeversion="1"
       weight="33.333333"
       steps="2"
       helper_size="0"
       apply_no_weight="true"
       apply_with_weight="true"
       only_selected="false" />
    <inkscape:path-effect
       effect="bspline"
       id="path-effect59518"
       is_visible="true"
       lpeversion="1"
       weight="33.333333"
       steps="2"
       helper_size="0"
       apply_no_weight="true"
       apply_with_weight="true"
       only_selected="false" />
    <inkscape:path-effect
       effect="bspline"
       id="path-effect4297"
       is_visible="true"
       lpeversion="1"
       weight="33.333333"
       steps="2"
       helper_size="0"
       apply_no_weight="true"
       apply_with_weight="true"
       only_selected="false" />
  </defs>
  <g
     inkscape:groupmode="layer"
     id="layer7"
     inkscape:label="B"
     style="display:inline"
     sodipodi:insensitive="true">
    <path
       id="path74766"
       style="fill:#bdd7dd;fill-opacity:1;stroke:none;stroke-width:0.511969px;stroke-linecap:butt;stroke-linejoin:miter;stroke-opacity:1"
       d="m 323.49312,29.353664 c 0,0 -38.76568,27.709345 -38.76568,27.709345 0,0 1.53991,21.380726 0.76706,17.193498 -0.77284,-4.187227 -1.23038,-6.666125 -2.23199,-12.092801 0,0 -1.67188,2.777833 -1.67188,2.777833 0,0 3.07079,29.03727 3.07079,29.03727 0,0 -0.18903,0.443974 -0.90809,-5.273444 -0.71906,-5.717417 -1.45682,-11.583552 -2.54476,-20.234037 0,0 -1.29591,2.181871 -1.29591,2.181871 0,0 1.27792,24.383544 0.76679,19.12886 -0.51113,-5.254683 -0.87879,-9.034462 -1.57375,-16.179035 0,0 -0.76695,2.447853 -0.76695,2.447853 0,0 0.65196,31.273133 0.65196,31.273133 0,0 -19.43383,45.73524 -19.43383,45.73524 0,0 89.67566,-16.40001 89.67566,-16.40001 0,0 -72.66168,14.70912 -72.66168,14.70912 0,0 8.24399,1.31996 8.24399,1.31996 44.24087,-8.80148 117.07636,-23.29171 123.35159,-26.34224 6.27523,-3.05053 -13.92919,-22.55367 -17.9238,-24.07048 -3.99461,-1.51682 -41.78294,-2.811263 -42.64195,-2.840689 -0.85902,-0.02943 27.65622,1.892249 30.36717,-1.578397 2.71095,-3.470643 -0.3617,-22.174616 -2.5049,-35.220837 0,0 -8.99145,-5.275684 -8.99145,-5.275684 0,0 5.0557,19.195855 5.0557,19.195855 0,0 -5.98867,-14.571131 -5.98867,-14.571131 0,0 -38.4997,-25.868455 -38.4997,-25.868455 0,0 -32.27605,19.514831 -32.27605,19.514831 0,0 31.10014,-20.641767 31.10014,-20.641767 0,0 -2.36981,-5.635662 -2.36981,-5.635662 z m -1.77791,52.603862 c 0,0 38.13575,7.521546 38.13575,7.521546 1.52024,2.262533 3.47636,5.173776 -0.4546,5.695305 -3.93097,0.521528 -20.06185,-0.50761 -32.60043,-1.307562 0,0 -5.08072,-11.909289 -5.08072,-11.909289 z m 5.71767,21.404724 c 13.27087,0.65029 29.86526,1.46344 34.27586,2.56097 4.41059,1.09752 2.53227,3.94564 1.03002,6.2235 0,0 -47.93911,8.04552 -47.93911,8.04552 0,0 12.63323,-16.82999 12.63323,-16.82999 z"
       sodipodi:nodetypes="cccccccccccccccccccsccccccccccccccccccc"
       inkscape:original-d="m 323.49312,29.353664 -38.76568,27.709345 1.53991,21.380726 c -1.53938,-8.37562 -3.00484,-16.280029 -3.00484,-16.280029 l -1.67188,2.777833 3.07079,29.03727 -0.18903,0.443974 c -1.43184,-11.435625 -3.26382,-25.951455 -3.26382,-25.951455 l -1.29591,2.181871 1.27792,24.383544 C 280.16795,84.527412 279.1057,73.603024 279.1057,73.603024 l -0.76695,2.447853 0.65196,31.273133 -19.43383,45.73524 89.67566,-16.40001 -72.66168,14.70912 8.24399,1.31996 c 0,0 117.07648,-23.29111 132.7226,-26.40444 -3.09579,-2.98832 -23.30021,-22.49146 -26.2646,-25.35297 -5.02483,-0.17169 -42.81316,-1.466138 -44.53118,-1.525425 -1.96083,-0.20936 28.51521,1.922145 35.1509,2.368855 -1.21335,-7.388536 -6.42961,-39.138663 -6.42961,-39.138663 l -8.99145,-5.275684 5.0557,19.195855 -5.98867,-14.571131 -38.4997,-25.868455 -32.27605,19.514831 31.10014,-20.641767 z m -1.77791,52.603862 38.13575,7.521546 c 0,0 3.47648,5.173696 4.56072,6.7876 -8.94632,-0.57029 -37.61575,-2.399857 -37.61575,-2.399857 z m 5.71767,21.404724 c 0,0 29.86524,1.46393 39.81262,1.95088 -1.12557,1.70801 -4.50674,6.83359 -4.50674,6.83359 l -47.93911,8.04552 z"
       inkscape:path-effect="#path-effect126759" />
  </g>
  <g
     inkscape:label="M"
     inkscape:groupmode="layer"
     id="layer1"
     style="display:inline"
     sodipodi:insensitive="true">
    <path
       id="path16535"
       style="fill:#bdd7dd;fill-opacity:1;stroke:none;stroke-width:0.451695px;stroke-linecap:butt;stroke-linejoin:miter;stroke-opacity:1"
       d="m 137.10551,40.4616 -3.61003,7.412388 -2.28847,-6.05995 -15.96901,13.417638 -12.61305,67.080244 -16.067821,6.63957 53.105051,11.41677 5.89144,-2.01234 18.57332,-6.3449 -17.64876,6.6572 5.1945,1.75474 18.07751,-8.10846 -24.49035,-56.292501 22.32803,40.626091 -4.11995,-42.872212 8.4631,48.424882 5.40976,1.92235 43.518,16.75507 -43.35567,-15.92667 0.69872,3.25538 73.82656,28.29446 -14.56012,-34.79992 -5.04275,-2.61489 -4.64575,-14.01843 -0.26378,-0.14115 -39.65125,-32.248561 -7.45649,-3.534162 -24.18333,-26.482385 -3.6551,19.108924 z"
       sodipodi:nodetypes="cccccccccccccccccccccccccccccc" />
  </g>
  <g
     inkscape:groupmode="layer"
     id="layer14"
     inkscape:label="M-star"
     style="display:inline"
     sodipodi:insensitive="true">
    <path
       sodipodi:type="star"
       style="fill:#758c91;fill-opacity:1;stroke:none;stroke-opacity:1"
       id="path194095-7-3-6"
       inkscape:flatsided="false"
       sodipodi:sides="5"
       sodipodi:cx="418.7063"
       sodipodi:cy="193.01639"
       sodipodi:r1="61.185623"
       sodipodi:r2="30.592813"
       sodipodi:arg1="-2.0943951"
       sodipodi:arg2="-1.4660766"
       inkscape:rounded="0"
       inkscape:randomized="0"
       transform="matrix(0.39505136,-0.14554199,0.14554199,0.39505136,-87.989741,34.391387)"
       inkscape:transform-center-x="-1.9559799"
       inkscape:transform-center-y="0.52417389"
       d="m 388.11349,140.02808 33.79063,22.56308 37.74335,-15.04455 -11.01688,39.10917 25.97156,31.24704 -40.59944,1.60772 -21.69205,34.35629 -14.07495,-38.11555 -39.37798,-10.01369 31.90064,-25.16442 z" />
  </g>
  <g
     inkscape:groupmode="layer"
     id="layer15"
     inkscape:label="B-star"
     style="display:inline"
     sodipodi:insensitive="true">
    <path
       sodipodi:type="star"
       style="display:inline;fill:#758c91;fill-opacity:1;stroke:none;stroke-opacity:1"
       id="path194095-1"
       inkscape:flatsided="false"
       sodipodi:sides="5"
       sodipodi:cx="418.7063"
       sodipodi:cy="193.01639"
       sodipodi:r1="61.185623"
       sodipodi:r2="30.592813"
       sodipodi:arg1="-2.0943951"
       sodipodi:arg2="-1.4660766"
       inkscape:rounded="0"
       inkscape:randomized="0"
       transform="matrix(0.26478254,0,0,0.26478254,201.97936,33.278435)"
       inkscape:transform-center-x="0.52329686"
       inkscape:transform-center-y="1.0408792"
       d="m 388.11349,140.02808 33.79063,22.56308 37.74335,-15.04455 -11.01688,39.10917 25.97156,31.24704 -40.59944,1.60772 -21.69205,34.35629 -14.07495,-38.11555 -39.37798,-10.01369 31.90064,-25.16442 z" />
    <path
       sodipodi:type="star"
       style="display:inline;fill:#758c91;fill-opacity:1;stroke:none;stroke-opacity:1"
       id="path194095-1-2"
       inkscape:flatsided="false"
       sodipodi:sides="5"
       sodipodi:cx="418.7063"
       sodipodi:cy="193.01639"
       sodipodi:r1="61.185623"
       sodipodi:r2="30.592813"
       sodipodi:arg1="-2.0943951"
       sodipodi:arg2="-1.4660766"
       inkscape:rounded="0"
       inkscape:randomized="0"
       transform="matrix(0.31480433,-0.18967616,0.18967616,0.31480433,243.89406,133.53583)"
       inkscape:transform-center-x="-1.3176231"
       inkscape:transform-center-y="-0.85528108"
       d="m 388.11349,140.02808 33.79063,22.56308 37.74335,-15.04455 -11.01688,39.10917 25.97156,31.24704 -40.59944,1.60772 -21.69205,34.35629 -14.07495,-38.11555 -39.37798,-10.01369 31.90064,-25.16442 z" />
  </g>
  <g
     inkscape:groupmode="layer"
     id="layer16"
     inkscape:label="O-star"
     style="display:inline"
     sodipodi:insensitive="true">
    <path
       sodipodi:type="star"
       style="display:inline;fill:#758c91;fill-opacity:1;stroke:none;stroke-opacity:1"
       id="path194095"
       inkscape:flatsided="false"
       sodipodi:sides="5"
       sodipodi:cx="418.7063"
       sodipodi:cy="193.01639"
       sodipodi:r1="61.185623"
       sodipodi:r2="30.592813"
       sodipodi:arg1="-2.0943951"
       sodipodi:arg2="-1.4660766"
       inkscape:rounded="0"
       inkscape:randomized="0"
       d="m 388.11349,140.02808 33.79063,22.56308 37.74335,-15.04455 -11.01688,39.10917 25.97156,31.24704 -40.59944,1.60772 -21.69205,34.35629 -14.07495,-38.11555 -39.37798,-10.01369 31.90064,-25.16442 z"
       transform="matrix(0.45169507,0,0,0.45169507,33.232598,55.06394)"
       inkscape:transform-center-x="0.89271304"
       inkscape:transform-center-y="1.7756445" />
    <path
       sodipodi:type="star"
       style="display:inline;fill:#758c91;fill-opacity:1;stroke:none;stroke-opacity:1"
       id="path194095-7"
       inkscape:flatsided="false"
       sodipodi:sides="5"
       sodipodi:cx="418.7063"
       sodipodi:cy="193.01639"
       sodipodi:r1="61.185623"
       sodipodi:r2="30.592813"
       sodipodi:arg1="-2.0943951"
       sodipodi:arg2="-1.4660766"
       inkscape:rounded="0"
       inkscape:randomized="0"
       transform="matrix(0.30070607,-0.26091148,0.26091148,0.30070607,93.325861,117.46674)"
       inkscape:transform-center-x="-0.13834323"
       inkscape:transform-center-y="-2.1941342"
       d="m 388.11349,140.02808 33.79063,22.56308 37.74335,-15.04455 -11.01688,39.10917 25.97156,31.24704 -40.59944,1.60772 -21.69205,34.35629 -14.07495,-38.11555 -39.37798,-10.01369 31.90064,-25.16442 z" />
    <path
       sodipodi:type="star"
       style="display:inline;fill:#758c91;fill-opacity:1;stroke:none;stroke-opacity:1"
       id="path194095-7-3"
       inkscape:flatsided="false"
       sodipodi:sides="5"
       sodipodi:cx="418.7063"
       sodipodi:cy="193.01639"
       sodipodi:r1="61.185623"
       sodipodi:r2="30.592813"
       sodipodi:arg1="-2.0943951"
       sodipodi:arg2="-1.4660766"
       inkscape:rounded="0"
       inkscape:randomized="0"
       transform="matrix(0.206823,-0.03284508,0.03284508,0.206823,171.22056,9.5093946)"
       inkscape:transform-center-x="-0.20885948"
       inkscape:transform-center-y="1.0232155"
       d="m 388.11349,140.02808 33.79063,22.56308 37.74335,-15.04455 -11.01688,39.10917 25.97156,31.24704 -40.59944,1.60772 -21.69205,34.35629 -14.07495,-38.11555 -39.37798,-10.01369 31.90064,-25.16442 z" />
  </g>
  <g
     inkscape:groupmode="layer"
     id="layer5"
     inkscape:label="O"
     style="display:inline"
     sodipodi:insensitive="true">
    <path
       id="path39162"
       style="fill:#bdd7dd;fill-opacity:1;stroke:none;stroke-width:0.378714;stroke-opacity:1"
       d="M 214.42449,38.147821 A 60.519369,37.511615 66.904198 0 1 272.66943,79.1016 60.519369,37.511615 66.904198 0 1 261.90408,149.48478 60.519369,37.511615 66.904198 0 1 203.6591,108.53103 60.519369,37.511615 66.904198 0 1 214.42449,38.147821 Z m 32.87472,37.587645 a 25.609566,15.873531 66.904198 0 0 -4.55525,29.783244 25.609566,15.873531 66.904198 0 0 24.64701,17.33079 25.609566,15.873531 66.904198 0 0 4.55561,-29.784235 25.609566,15.873531 66.904198 0 0 -24.64737,-17.329799 z" />
  </g>
  <g
     inkscape:groupmode="layer"
     id="layer2"
     inkscape:label="M-over"
     style="display:inline"
     sodipodi:insensitive="true">
    <path
       id="path12634"
       style="fill:#a4bbc1;fill-opacity:1;stroke:none;stroke-width:0.451695px;stroke-linecap:butt;stroke-linejoin:miter;stroke-opacity:1"
       d="m 126.11574,31.57062 -15.4538,6.044949 -1.53417,1.827071 17.59317,-7.374451 z m 0.8134,0.68107 -17.91959,7.692931 -0.72606,2.3714 19.11322,-9.372673 z m 0.67313,0.857516 -19.35231,10.21166 -0.29113,2.799272 17.587,-10.096089 -17.6964,11.156515 -3.10893,29.929212 13.87551,-17.32145 -4.46137,39.651239 -8.93598,6.973925 -0.63431,4.13142 -2.91396,-0.97749 -1.18129,6.49752 28.05715,6.61751 c 0,0 -25.14657,-5.17948 -28.33505,-6.03171 l -22.919995,16.04047 -19.097351,41.00014 94.077856,-47.15273 -23.21554,-7.78644 -9.35503,-10.06698 1.49712,-15.124726 -0.99338,-1.476831 3.24215,-38.327031 9.56676,-11.942574 z m 35.22781,0.825753 c 0.51801,1.800574 6.78954,27.965395 6.78954,27.965395 l 1.63122,1.577405 -2.277,-15.761688 3.73795,18.938549 8.00347,5.445925 0.28496,2.737521 34.68347,29.431634 13.27207,31.1899 6.94746,3.66914 2.37758,6.70397 40.29437,16.39158 -36.52113,-42.50697 -4.83984,-2.77192 26.84057,34.01563 -30.70821,-36.87402 -7.69205,-3.85881 8.93686,25.20053 -3.16364,-1.82179 -9.85788,-25.49254 -37.59744,-31.784507 -0.32819,-2.2373 32.8714,22.36508 -39.55419,-54.290748 z m -43.15541,64.421247 -1.38773,12.801844 5.01364,5.66384 -17.06296,-5.72295 0.41553,-2.59371 z" />
  </g>
  <g
     inkscape:groupmode="layer"
     id="layer10"
     inkscape:label="O-outline"
     style="display:inline"
     sodipodi:insensitive="true">
    <path
       id="path39162-0"
       style="display:inline;fill:#000000;fill-opacity:1;stroke:none;stroke-width:0.378714;stroke-opacity:1"
       d="m 224.05353,36.019886 c -3.61437,-0.07754 -7.04269,0.563599 -10.18961,1.905589 -19.05637,8.126934 -23.87591,39.638483 -10.76482,70.383265 5.15464,12.08476 12.60671,22.80129 21.23055,30.53088 -7.55271,-7.49653 -14.03998,-17.26652 -18.66506,-28.11008 -13.11113,-30.74517 -8.29116,-62.2569 10.7657,-70.38326 10.83287,-4.604528 24.53052,-0.740942 36.99488,10.434862 -9.36338,-9.300435 -19.79652,-14.543795 -29.37164,-14.761256 z"
       sodipodi:nodetypes="cccccccc" />
    <path
       id="path39162-2"
       style="display:inline;fill:#000000;fill-opacity:1;stroke:none;stroke-width:0.378714;stroke-opacity:1"
       d="m 249.54484,72.939555 a 25.609566,15.873531 66.904198 0 0 -3.25451,0.78076 25.609566,15.873531 66.904198 0 0 -4.55577,29.782765 25.609566,15.873531 66.904198 0 0 0.25232,0.54345 25.609566,15.873531 66.904198 0 1 5.6409,-26.921739 25.609566,15.873531 66.904198 0 1 24.42769,16.856519 25.609566,15.873531 66.904198 0 0 -1.11777,-2.931606 25.609566,15.873531 66.904198 0 0 -21.39286,-18.110149 z m 23.82513,8.440167 a 60.519369,37.511615 66.904198 0 1 -12.47542,66.089508 60.519369,37.511615 66.904198 0 1 -58.24485,-40.95338 60.519369,37.511615 66.904198 0 1 -0.41199,-1.02602 60.519369,37.511615 66.904198 0 0 1.75031,4.43049 60.519369,37.511615 66.904198 0 0 58.24485,40.95338 60.519369,37.511615 66.904198 0 0 11.1371,-69.493978 z" />
  </g>
  <g
     inkscape:groupmode="layer"
     id="layer11"
     inkscape:label="B-outline"
     style="display:inline"
     sodipodi:insensitive="true">
    <path
       style="fill:#000000;fill-opacity:1;stroke:none;stroke-width:0.511969px;stroke-linecap:butt;stroke-linejoin:miter;stroke-opacity:1"
       d="m 288.6503,60.140984 c -0.0116,-0.05919 32.30259,-25.347701 41.67856,-21.646662 9.37596,3.70104 32.48033,36.995743 48.99667,60.796733 C 362.9267,76.089303 342.49302,47.178872 330.7332,42.536893 318.97338,37.894913 288.66191,60.200176 288.6503,60.140984 Z"
       id="path123483"
       inkscape:path-effect="#path-effect123551"
       inkscape:original-d="m 285.73858,62.351366 c 2.90055,-2.26901 35.21475,-27.55752 44.03792,-34.463282 9.92844,14.307197 49.54903,71.402971 49.54903,71.402971 0,0 -36.8324,-52.112258 -49.19648,-69.605256 -11.15525,8.209692 -41.46672,30.514943 -44.39047,32.665567 z"
       sodipodi:nodetypes="ccccc" />
    <path
       style="display:inline;fill:#000000;fill-opacity:1;stroke:none;stroke-width:0.353715px;stroke-linecap:butt;stroke-linejoin:miter;stroke-opacity:1"
       d="m 377.59883,107.21948 c 0.0994,0.0667 -13.73257,21.62159 -22.63219,25.80582 -8.89963,4.18423 -41.5298,9.96044 -64.85587,14.08964 22.31988,-4.8041 50.13127,-10.79019 61.29361,-16.03827 11.16235,-5.24808 26.09506,-23.9239 26.19445,-23.85719 z"
       id="path123483-2"
       inkscape:path-effect="#path-effect125251"
       inkscape:original-d="m 378.93976,105.35142 c -1.24096,1.93514 -15.0729,23.49003 -18.85077,29.37593 -14.02188,2.48277 -69.97822,12.38759 -69.97822,12.38759 0,0 50.13139,-10.78961 66.95965,-14.41231 5.49687,-6.87359 20.42958,-25.54941 21.86934,-27.35121 z"
       sodipodi:nodetypes="ccccc" />
  </g>
  <g
     inkscape:groupmode="layer"
     id="layer8"
     inkscape:label="B-over"
     style="display:inline"
     sodipodi:insensitive="true">
    <path
       id="path175132"
       style="font-variation-settings:normal;opacity:1;vector-effect:none;fill:#a4bbc1;fill-opacity:1;stroke:none;stroke-width:0.451695px;stroke-linecap:butt;stroke-linejoin:miter;stroke-miterlimit:4;stroke-dasharray:none;stroke-dashoffset:0;stroke-opacity:1;-inkscape-stroke:none;stop-color:#000000;stop-opacity:1"
       d="m 349.13929,49.488446 -1.68327,0.567266 2.38022,3.386827 -51.39354,21.499629 -5.36829,-8.063462 -3.77589,-1.148647 21.5852,37.063701 -10.5222,10.35634 0.16409,8.26461 -9.6294,9.54823 -0.4614,4.45608 10.93861,-5.53415 6.47106,13.32942 -14.72861,3.24303 11.0533,3.72648 c 32.02217,-4.22238 79.32035,-10.45893 89.3474,-13.29324 10.02705,-2.83431 19.37159,-12.60875 25.6981,-19.22616 l -37.6098,-8.56191 -25.25963,23.43256 -46.47077,10.23195 -6.56105,-13.86315 4.92277,-2.4905 31.21813,-26.556495 -5.88086,-6.179049 -30.67998,-12.05108 -3.90204,-5.860567 51.82142,-20.93501 2.60519,3.707075 9.83936,3.784713 4.95277,9.567642 0.84251,-1.360379 -2.72781,-9.566761 z m -36.73551,55.915784 1.56241,2.68282 -12.49043,12.38545 0.005,-3.87558 z m 71.49574,1.01102 -1.513,1.53418 37.68213,8.63778 3.24039,-3.12128 z" />
  </g>
  <g
     inkscape:groupmode="layer"
     id="layer9"
     inkscape:label="M-outline"
     style="display:inline"
     sodipodi:insensitive="true">
    <path
       id="path16535-3"
       style="display:inline;fill:#000000;fill-opacity:1;stroke:none;stroke-width:0.451694px;stroke-linecap:butt;stroke-linejoin:miter;stroke-opacity:1"
       d="m 137.64368,40.631718 -3.61003,7.412389 -2.28847,-6.05995 c -5.32301,4.472539 -11.56404,9.71601 -15.50584,20.817672 -3.94181,11.101644 -13.54535,59.769981 -13.54535,59.769981 l -0.014,-0.11417 c 0,0 9.38029,-45.284669 13.3221,-56.386323 3.9418,-11.101652 10.18283,-16.346008 15.50584,-20.818553 l 2.28847,6.059946 3.61003,-7.412385 c 0,0 13.14574,24.948517 15.53081,25.117065 3.3365,0.235782 2.93316,-26.423836 2.93316,-26.423836 l -0.0271,0.02694 c 0,0 -0.67758,21.970624 -3.05293,21.697334 -2.37535,-0.273303 -9.99189,-16.583056 -15.14666,-23.686109 z"
       sodipodi:nodetypes="cccsccscccsccscc" />
    <path
       style="fill:#000000;fill-opacity:1;stroke:none;stroke-width:0.451694px;stroke-linecap:butt;stroke-linejoin:miter;stroke-opacity:1"
       d="m 145.53398,76.862342 c 1.0472,1.217255 20.69765,40.946398 20.69765,40.946398 l -2.18943,-41.771652 -0.6527,31.551622 z"
       id="path114517"
       sodipodi:nodetypes="ccccc" />
    <path
       style="fill:#000000;fill-opacity:1;stroke:none;stroke-width:0.451694px;stroke-linecap:butt;stroke-linejoin:miter;stroke-opacity:1"
       d="m 164.25205,76.680246 c -0.17224,-0.02291 -2.08479,23.492774 13.34515,38.709504 15.42993,15.21672 37.02312,24.13068 63.94581,35.24473 -24.72305,-10.82188 -42.80593,-18.73719 -59.14549,-34.851 C 166.05796,99.669671 164.42429,76.703155 164.25205,76.680246 Z"
       id="path114698"
       inkscape:path-effect="#path-effect114846"
       inkscape:original-d="m 164.26183,74.419255 c -0.18154,2.238121 -2.09408,25.753805 -3.48689,42.873075 32.2521,13.31437 80.76807,33.34215 80.76807,33.34215 0,0 -42.80602,-18.73698 -74.16915,-32.46563 -1.31548,-18.499209 -2.94916,-41.465724 -3.11203,-43.749595 z"
       sodipodi:nodetypes="cccsc" />
  </g>
</svg>
