<?xml version="1.0" encoding="UTF-8" standalone="no"?><!-- Generator: Gravit.io --><svg xmlns="http://www.w3.org/2000/svg" xmlns:xlink="http://www.w3.org/1999/xlink" style="isolation:isolate" viewBox="0 0 284.241 233.029" width="284.241pt" height="233.029pt"><defs><clipPath id="_clipPath_jM8YYUJ7y6SITknhJSHhTEy5fIjGL6tT"><rect width="284.241" height="233.029"/></clipPath></defs><g clip-path="url(#_clipPath_jM8YYUJ7y6SITknhJSHhTEy5fIjGL6tT)"><g><path d=" M 165.556 14.255 L 243.65 117.334 L 215.833 203.213 L 91.093 221.601 L 0 180.5 L 14 67 L 82 0 L 165.556 14.255 Z " fill="rgb(0,0,0)"/><g><path d=" M 211.033 87.241 L 168.098 21.583 C 167.904 19.926 174.307 13.547 186.268 12.358 Q 205.898 10.955 223.089 30.65 Q 240.781 53.383 236.673 92.272 Q 233.705 113.781 244.536 117.432 L 245.045 111.915 L 253.077 111.41 L 284.241 145.537 L 277.82 149.915 L 237.975 145.267 L 237.069 137.534 L 241.466 133.144 Q 221.44 122.54 227.131 92.216 Q 230.444 62.568 216.179 45.65 Q 203.089 31.361 195.159 37.662 Q 193.653 38.835 192.754 40.452 C 188.036 48.946 202.139 65.509 216.662 89.224 L 211.033 87.241 Z " fill="rgb(0,0,0)"/></g></g><path d=" M 92.375 223 L 215.938 204.813 L 213.313 213.063 L 95.938 225.063 L 92.375 223 Z " fill="rgb(0,0,0)"/><path d=" M 97.773 227.032 L 204.274 215.527 L 201.752 222.511 L 100.758 228.918 L 97.773 227.032 Z " fill="rgb(0,0,0)"/><path d=" M 100.846 230.321 L 197.401 226.911 L 194.677 233.029 L 103.409 232.212 L 100.846 230.321 Z " fill="rgb(0,0,0)"/></g></svg>

